<?xml version="1.0" encoding="utf-8" standalone="no"?>
<!DOCTYPE svg PUBLIC "-//W3C//DTD SVG 1.1//EN"
  "http://www.w3.org/Graphics/SVG/1.1/DTD/svg11.dtd">
<svg xmlns:xlink="http://www.w3.org/1999/xlink" width="576pt" height="360pt" viewBox="0 0 576 360" xmlns="http://www.w3.org/2000/svg" version="1.1">
 <metadata>
  <rdf:RDF xmlns:dc="http://purl.org/dc/elements/1.1/" xmlns:cc="http://creativecommons.org/ns#" xmlns:rdf="http://www.w3.org/1999/02/22-rdf-syntax-ns#">
   <cc:Work>
    <dc:type rdf:resource="http://purl.org/dc/dcmitype/StillImage"/>
    <dc:date>2023-12-15T16:06:05.211831</dc:date>
    <dc:format>image/svg+xml</dc:format>
    <dc:creator>
     <cc:Agent>
      <dc:title>Matplotlib v3.8.0, https://matplotlib.org/</dc:title>
     </cc:Agent>
    </dc:creator>
   </cc:Work>
  </rdf:RDF>
 </metadata>
 <defs>
  <style type="text/css">*{stroke-linejoin: round; stroke-linecap: butt}</style>
 </defs>
 <g id="figure_1">
  <g id="patch_1">
   <path d="M 0 360 
L 576 360 
L 576 0 
L 0 0 
z
" style="fill: #ffffff"/>
  </g>
  <g id="axes_1">
   <g id="patch_2">
    <path d="M 72 320.4 
L 518.4 320.4 
L 518.4 43.2 
L 72 43.2 
z
" style="fill: #ffffff"/>
   </g>
   <g id="PolyCollection_1">
    <defs>
     <path id="m0a645cf369" d="M 92.290909 -204.491754 
L 92.290909 -249.865974 
L 93.421322 -249.865974 
L 94.551735 -249.865974 
L 95.682147 -249.865974 
L 96.81256 -249.865974 
L 97.942973 -249.865974 
L 99.073386 -249.865974 
L 100.203798 -249.865974 
L 101.334211 -249.865974 
L 102.464624 -249.865974 
L 103.595037 -249.865974 
L 104.725449 -249.865974 
L 105.855862 -249.865974 
L 106.986275 -249.865974 
L 108.116688 -249.865974 
L 109.247101 -249.865974 
L 110.377513 -249.865974 
L 111.507926 -249.865974 
L 112.638339 -249.865974 
L 113.768752 -249.865974 
L 114.899164 -249.865974 
L 116.029577 -249.865974 
L 117.15999 -249.865974 
L 118.290403 -249.865974 
L 119.420815 -249.865974 
L 120.551228 -224.327634 
L 121.681641 -224.327634 
L 122.812054 -224.327634 
L 123.942466 -224.327634 
L 125.072879 -224.327634 
L 126.203292 -222.228059 
L 127.333705 -222.228059 
L 128.464117 -222.228059 
L 129.59453 -222.228059 
L 130.724943 -222.228059 
L 131.855356 -222.228059 
L 132.985769 -222.189992 
L 134.116181 -222.189992 
L 135.246594 -222.189992 
L 136.377007 -222.189992 
L 137.50742 -222.189992 
L 138.637832 -221.89501 
L 139.768245 -221.89501 
L 140.898658 -221.89501 
L 142.029071 -221.89501 
L 143.159483 -221.89501 
L 144.289896 -221.89501 
L 145.420309 -221.89501 
L 146.550722 -221.89501 
L 147.681134 -221.89501 
L 148.811547 -221.89501 
L 149.94196 -221.89501 
L 151.072373 -221.68708 
L 152.202786 -221.68708 
L 153.333198 -221.68708 
L 154.463611 -221.68708 
L 155.594024 -221.68708 
L 156.724437 -221.68708 
L 157.854849 -221.68708 
L 158.985262 -221.68708 
L 160.115675 -221.68708 
L 161.246088 -221.68708 
L 162.3765 -221.68708 
L 163.506913 -221.68708 
L 164.637326 -221.68708 
L 165.767739 -221.68708 
L 166.898151 -221.68708 
L 168.028564 -221.68708 
L 169.158977 -221.68708 
L 170.28939 -221.68708 
L 171.419802 -221.68708 
L 172.550215 -221.68708 
L 173.680628 -221.68708 
L 174.811041 -221.68708 
L 175.941454 -221.781375 
L 177.071866 -221.781375 
L 178.202279 -221.781375 
L 179.332692 -221.781375 
L 180.463105 -221.781375 
L 181.593517 -193.272073 
L 182.72393 -193.272073 
L 183.854343 -193.272073 
L 184.984756 -193.272073 
L 186.115168 -193.272073 
L 187.245581 -193.272073 
L 188.375994 -182.283496 
L 189.506407 -182.283496 
L 190.636819 -182.283496 
L 191.767232 -182.283496 
L 192.897645 -182.283496 
L 194.028058 -184.151493 
L 195.15847 -184.151493 
L 196.288883 -184.151493 
L 197.419296 -184.151493 
L 198.549709 -184.151493 
L 199.680122 -184.151493 
L 200.810534 -182.915382 
L 201.940947 -182.915382 
L 203.07136 -182.915382 
L 204.201773 -182.915382 
L 205.332185 -182.915382 
L 206.462598 -181.866554 
L 207.593011 -181.866554 
L 208.723424 -181.866554 
L 209.853836 -181.866554 
L 210.984249 -181.866554 
L 212.114662 -181.866554 
L 213.245075 -181.866554 
L 214.375487 -181.866554 
L 215.5059 -181.866554 
L 216.636313 -181.866554 
L 217.766726 -181.866554 
L 218.897139 -181.866554 
L 220.027551 -181.866554 
L 221.157964 -181.866554 
L 222.288377 -181.866554 
L 223.41879 -181.866554 
L 224.549202 -181.866554 
L 225.679615 -181.866554 
L 226.810028 -181.866554 
L 227.940441 -181.866554 
L 229.070853 -181.866554 
L 230.201266 -181.866554 
L 231.331679 -181.866554 
L 232.462092 -181.866554 
L 233.592504 -181.866554 
L 234.722917 -181.866554 
L 235.85333 -181.866554 
L 236.983743 -181.866554 
L 238.114155 -181.866554 
L 239.244568 -181.866554 
L 240.374981 -181.866554 
L 241.505394 -181.866554 
L 242.635807 -181.866554 
L 243.766219 -181.17396 
L 244.896632 -181.17396 
L 246.027045 -181.17396 
L 247.157458 -181.17396 
L 248.28787 -181.17396 
L 249.418283 -157.332256 
L 250.548696 -157.332256 
L 251.679109 -157.332256 
L 252.809521 -157.332256 
L 253.939934 -157.332256 
L 255.070347 -157.332256 
L 256.20076 -159.926283 
L 257.331172 -159.926283 
L 258.461585 -159.926283 
L 259.591998 -159.926283 
L 260.722411 -159.926283 
L 261.852823 -159.896597 
L 262.983236 -159.896597 
L 264.113649 -159.896597 
L 265.244062 -159.896597 
L 266.374475 -159.896597 
L 267.504887 -159.896597 
L 268.6353 -159.896597 
L 269.765713 -159.896597 
L 270.896126 -159.896597 
L 272.026538 -159.896597 
L 273.156951 -159.896597 
L 274.287364 -159.896597 
L 275.417777 -159.896597 
L 276.548189 -159.896597 
L 277.678602 -159.896597 
L 278.809015 -159.896597 
L 279.939428 -159.896597 
L 281.06984 -159.896597 
L 282.200253 -159.896597 
L 283.330666 -159.896597 
L 284.461079 -159.896597 
L 285.591492 -159.896597 
L 286.721904 -159.896597 
L 287.852317 -159.896597 
L 288.98273 -159.896597 
L 290.113143 -159.896597 
L 291.243555 -159.896597 
L 292.373968 -159.896597 
L 293.504381 -159.896597 
L 294.634794 -159.896597 
L 295.765206 -159.896597 
L 296.895619 -159.896597 
L 298.026032 -159.896597 
L 299.156445 -159.896597 
L 300.286857 -159.896597 
L 301.41727 -159.896597 
L 302.547683 -159.896597 
L 303.678096 -159.896597 
L 304.808508 -159.896597 
L 305.938921 -159.896597 
L 307.069334 -159.896597 
L 308.199747 -159.896597 
L 309.33016 -159.896597 
L 310.460572 -159.896597 
L 311.590985 -159.705737 
L 312.721398 -159.705737 
L 313.851811 -159.705737 
L 314.982223 -159.705737 
L 316.112636 -159.705737 
L 317.243049 -167.262738 
L 318.373462 -167.262738 
L 319.503874 -167.262738 
L 320.634287 -167.262738 
L 321.7647 -167.262738 
L 322.895113 -168.042593 
L 324.025525 -168.042593 
L 325.155938 -168.042593 
L 326.286351 -168.042593 
L 327.416764 -168.042593 
L 328.547177 -168.042593 
L 329.677589 -168.042593 
L 330.808002 -168.042593 
L 331.938415 -168.042593 
L 333.068828 -168.042593 
L 334.19924 -168.042593 
L 335.329653 -168.042593 
L 336.460066 -168.042593 
L 337.590479 -168.042593 
L 338.720891 -168.042593 
L 339.851304 -168.042593 
L 340.981717 -168.042593 
L 342.11213 -168.042593 
L 343.242542 -168.042593 
L 344.372955 -168.042593 
L 345.503368 -168.042593 
L 346.633781 -168.042593 
L 347.764193 -168.042593 
L 348.894606 -168.042593 
L 350.025019 -168.042593 
L 351.155432 -168.042593 
L 352.285845 -168.042593 
L 353.416257 -168.042593 
L 354.54667 -168.186281 
L 355.677083 -168.186281 
L 356.807496 -168.186281 
L 357.937908 -168.186281 
L 359.068321 -168.186281 
L 360.198734 -168.186281 
L 361.329147 -168.186281 
L 362.459559 -168.186281 
L 363.589972 -168.186281 
L 364.720385 -168.186281 
L 365.850798 -168.186281 
L 366.98121 -168.042593 
L 368.111623 -168.042593 
L 369.242036 -168.042593 
L 370.372449 -168.042593 
L 371.502861 -168.042593 
L 372.633274 -170.786334 
L 373.763687 -170.786334 
L 374.8941 -170.786334 
L 376.024513 -170.786334 
L 377.154925 -170.786334 
L 378.285338 -202.189028 
L 379.415751 -202.189028 
L 380.546164 -202.189028 
L 381.676576 -202.189028 
L 382.806989 -202.189028 
L 383.937402 -202.189028 
L 385.067815 -202.948116 
L 386.198227 -202.948116 
L 387.32864 -202.948116 
L 388.459053 -202.948116 
L 389.589466 -202.948116 
L 390.719878 -202.948116 
L 391.850291 -202.948116 
L 392.980704 -202.948116 
L 394.111117 -202.948116 
L 395.24153 -202.948116 
L 396.371942 -202.948116 
L 397.502355 -202.948116 
L 398.632768 -202.948116 
L 399.763181 -202.948116 
L 400.893593 -202.948116 
L 402.024006 -202.948116 
L 403.154419 -202.948116 
L 404.284832 -202.948116 
L 405.415244 -202.948116 
L 406.545657 -202.948116 
L 407.67607 -202.948116 
L 408.806483 -202.948116 
L 409.936895 -202.948116 
L 411.067308 -202.948116 
L 412.197721 -202.948116 
L 413.328134 -202.948116 
L 414.458546 -202.948116 
L 415.588959 -202.948116 
L 416.719372 -202.948116 
L 417.849785 -202.948116 
L 418.980198 -202.948116 
L 420.11061 -202.948116 
L 421.241023 -202.948116 
L 422.371436 -202.948116 
L 423.501849 -202.948116 
L 424.632261 -202.948116 
L 425.762674 -202.948116 
L 426.893087 -202.948116 
L 428.0235 -202.948116 
L 429.153912 -202.948116 
L 430.284325 -202.948116 
L 431.414738 -202.948116 
L 432.545151 -202.948116 
L 433.675563 -198.549687 
L 434.805976 -198.549687 
L 435.936389 -198.549687 
L 437.066802 -198.549687 
L 438.197214 -198.549687 
L 439.327627 -198.549687 
L 440.45804 -212.562001 
L 441.588453 -212.562001 
L 442.718866 -212.562001 
L 443.849278 -212.562001 
L 444.979691 -212.562001 
L 446.110104 -214.015033 
L 447.240517 -214.015033 
L 448.370929 -214.015033 
L 449.501342 -214.015033 
L 450.631755 -214.015033 
L 451.762168 -214.015033 
L 452.89258 -214.2367 
L 454.022993 -214.2367 
L 455.153406 -214.2367 
L 456.283819 -214.2367 
L 457.414231 -214.2367 
L 458.544644 -214.015033 
L 459.675057 -214.015033 
L 460.80547 -214.015033 
L 461.935883 -214.015033 
L 463.066295 -214.015033 
L 464.196708 -214.015033 
L 465.327121 -214.015033 
L 466.457534 -214.015033 
L 467.587946 -214.015033 
L 468.718359 -214.015033 
L 469.848772 -214.015033 
L 470.979185 -214.015033 
L 472.109597 -214.015033 
L 473.24001 -214.015033 
L 474.370423 -214.015033 
L 475.500836 -214.015033 
L 476.631248 -214.015033 
L 477.761661 -214.015033 
L 478.892074 -214.015033 
L 480.022487 -214.015033 
L 481.152899 -214.015033 
L 482.283312 -214.015033 
L 483.413725 -214.015033 
L 484.544138 -214.015033 
L 485.674551 -214.015033 
L 486.804963 -214.015033 
L 487.935376 -214.015033 
L 489.065789 -214.015033 
L 490.196202 -214.015033 
L 491.326614 -214.015033 
L 492.457027 -214.015033 
L 493.58744 -214.015033 
L 494.717853 -214.015033 
L 495.848265 -214.015033 
L 496.978678 -214.015033 
L 498.109091 -214.015033 
L 498.109091 -181.984967 
L 498.109091 -181.984967 
L 496.978678 -181.984967 
L 495.848265 -181.984967 
L 494.717853 -181.984967 
L 493.58744 -181.984967 
L 492.457027 -181.984967 
L 491.326614 -181.984967 
L 490.196202 -181.984967 
L 489.065789 -181.984967 
L 487.935376 -181.984967 
L 486.804963 -181.984967 
L 485.674551 -181.984967 
L 484.544138 -181.984967 
L 483.413725 -181.984967 
L 482.283312 -181.984967 
L 481.152899 -181.984967 
L 480.022487 -181.984967 
L 478.892074 -181.984967 
L 477.761661 -181.984967 
L 476.631248 -181.984967 
L 475.500836 -181.984967 
L 474.370423 -181.984967 
L 473.24001 -181.984967 
L 472.109597 -181.984967 
L 470.979185 -181.984967 
L 469.848772 -181.984967 
L 468.718359 -181.984967 
L 467.587946 -181.984967 
L 466.457534 -181.984967 
L 465.327121 -181.984967 
L 464.196708 -181.984967 
L 463.066295 -181.984967 
L 461.935883 -181.984967 
L 460.80547 -181.984967 
L 459.675057 -181.984967 
L 458.544644 -181.984967 
L 457.414231 -180.095876 
L 456.283819 -180.095876 
L 455.153406 -180.095876 
L 454.022993 -180.095876 
L 452.89258 -180.095876 
L 451.762168 -181.984967 
L 450.631755 -181.984967 
L 449.501342 -181.984967 
L 448.370929 -181.984967 
L 447.240517 -181.984967 
L 446.110104 -181.984967 
L 444.979691 -181.770047 
L 443.849278 -181.770047 
L 442.718866 -181.770047 
L 441.588453 -181.770047 
L 440.45804 -181.770047 
L 439.327627 -152.431977 
L 438.197214 -152.431977 
L 437.066802 -152.431977 
L 435.936389 -152.431977 
L 434.805976 -152.431977 
L 433.675563 -152.431977 
L 432.545151 -154.703244 
L 431.414738 -154.703244 
L 430.284325 -154.703244 
L 429.153912 -154.703244 
L 428.0235 -154.703244 
L 426.893087 -154.703244 
L 425.762674 -154.703244 
L 424.632261 -154.703244 
L 423.501849 -154.703244 
L 422.371436 -154.703244 
L 421.241023 -154.703244 
L 420.11061 -154.703244 
L 418.980198 -154.703244 
L 417.849785 -154.703244 
L 416.719372 -154.703244 
L 415.588959 -154.703244 
L 414.458546 -154.703244 
L 413.328134 -154.703244 
L 412.197721 -154.703244 
L 411.067308 -154.703244 
L 409.936895 -154.703244 
L 408.806483 -154.703244 
L 407.67607 -154.703244 
L 406.545657 -154.703244 
L 405.415244 -154.703244 
L 404.284832 -154.703244 
L 403.154419 -154.703244 
L 402.024006 -154.703244 
L 400.893593 -154.703244 
L 399.763181 -154.703244 
L 398.632768 -154.703244 
L 397.502355 -154.703244 
L 396.371942 -154.703244 
L 395.24153 -154.703244 
L 394.111117 -154.703244 
L 392.980704 -154.703244 
L 391.850291 -154.703244 
L 390.719878 -154.703244 
L 389.589466 -154.703244 
L 388.459053 -154.703244 
L 387.32864 -154.703244 
L 386.198227 -154.703244 
L 385.067815 -154.703244 
L 383.937402 -154.350364 
L 382.806989 -154.350364 
L 381.676576 -154.350364 
L 380.546164 -154.350364 
L 379.415751 -154.350364 
L 378.285338 -154.350364 
L 377.154925 -147.959874 
L 376.024513 -147.959874 
L 374.8941 -147.959874 
L 373.763687 -147.959874 
L 372.633274 -147.959874 
L 371.502861 -136.252783 
L 370.372449 -136.252783 
L 369.242036 -136.252783 
L 368.111623 -136.252783 
L 366.98121 -136.252783 
L 365.850798 -136.665079 
L 364.720385 -136.665079 
L 363.589972 -136.665079 
L 362.459559 -136.665079 
L 361.329147 -136.665079 
L 360.198734 -136.665079 
L 359.068321 -136.665079 
L 357.937908 -136.665079 
L 356.807496 -136.665079 
L 355.677083 -136.665079 
L 354.54667 -136.665079 
L 353.416257 -136.252783 
L 352.285845 -136.252783 
L 351.155432 -136.252783 
L 350.025019 -136.252783 
L 348.894606 -136.252783 
L 347.764193 -136.252783 
L 346.633781 -136.252783 
L 345.503368 -136.252783 
L 344.372955 -136.252783 
L 343.242542 -136.252783 
L 342.11213 -136.252783 
L 340.981717 -136.252783 
L 339.851304 -136.252783 
L 338.720891 -136.252783 
L 337.590479 -136.252783 
L 336.460066 -136.252783 
L 335.329653 -136.252783 
L 334.19924 -136.252783 
L 333.068828 -136.252783 
L 331.938415 -136.252783 
L 330.808002 -136.252783 
L 329.677589 -136.252783 
L 328.547177 -136.252783 
L 327.416764 -136.252783 
L 326.286351 -136.252783 
L 325.155938 -136.252783 
L 324.025525 -136.252783 
L 322.895113 -136.252783 
L 321.7647 -133.142334 
L 320.634287 -133.142334 
L 319.503874 -133.142334 
L 318.373462 -133.142334 
L 317.243049 -133.142334 
L 316.112636 -127.915927 
L 314.982223 -127.915927 
L 313.851811 -127.915927 
L 312.721398 -127.915927 
L 311.590985 -127.915927 
L 310.460572 -107.159995 
L 309.33016 -107.159995 
L 308.199747 -107.159995 
L 307.069334 -107.159995 
L 305.938921 -107.159995 
L 304.808508 -107.159995 
L 303.678096 -107.159995 
L 302.547683 -107.159995 
L 301.41727 -107.159995 
L 300.286857 -107.159995 
L 299.156445 -107.159995 
L 298.026032 -107.159995 
L 296.895619 -107.159995 
L 295.765206 -107.159995 
L 294.634794 -107.159995 
L 293.504381 -107.159995 
L 292.373968 -107.159995 
L 291.243555 -107.159995 
L 290.113143 -107.159995 
L 288.98273 -107.159995 
L 287.852317 -107.159995 
L 286.721904 -107.159995 
L 285.591492 -107.159995 
L 284.461079 -107.159995 
L 283.330666 -107.159995 
L 282.200253 -107.159995 
L 281.06984 -107.159995 
L 279.939428 -107.159995 
L 278.809015 -107.159995 
L 277.678602 -107.159995 
L 276.548189 -107.159995 
L 275.417777 -107.159995 
L 274.287364 -107.159995 
L 273.156951 -107.159995 
L 272.026538 -107.159995 
L 270.896126 -107.159995 
L 269.765713 -107.159995 
L 268.6353 -107.159995 
L 267.504887 -107.159995 
L 266.374475 -107.159995 
L 265.244062 -107.159995 
L 264.113649 -107.159995 
L 262.983236 -107.159995 
L 261.852823 -107.159995 
L 260.722411 -107.686293 
L 259.591998 -107.686293 
L 258.461585 -107.686293 
L 257.331172 -107.686293 
L 256.20076 -107.686293 
L 255.070347 -109.168352 
L 253.939934 -109.168352 
L 252.809521 -109.168352 
L 251.679109 -109.168352 
L 250.548696 -109.168352 
L 249.418283 -109.168352 
L 248.28787 -133.12596 
L 247.157458 -133.12596 
L 246.027045 -133.12596 
L 244.896632 -133.12596 
L 243.766219 -133.12596 
L 242.635807 -134.10079 
L 241.505394 -134.10079 
L 240.374981 -134.10079 
L 239.244568 -134.10079 
L 238.114155 -134.10079 
L 236.983743 -134.10079 
L 235.85333 -134.10079 
L 234.722917 -134.10079 
L 233.592504 -134.10079 
L 232.462092 -134.10079 
L 231.331679 -134.10079 
L 230.201266 -134.10079 
L 229.070853 -134.10079 
L 227.940441 -134.10079 
L 226.810028 -134.10079 
L 225.679615 -134.10079 
L 224.549202 -134.10079 
L 223.41879 -134.10079 
L 222.288377 -134.10079 
L 221.157964 -134.10079 
L 220.027551 -134.10079 
L 218.897139 -134.10079 
L 217.766726 -134.10079 
L 216.636313 -134.10079 
L 215.5059 -134.10079 
L 214.375487 -134.10079 
L 213.245075 -134.10079 
L 212.114662 -134.10079 
L 210.984249 -134.10079 
L 209.853836 -134.10079 
L 208.723424 -134.10079 
L 207.593011 -134.10079 
L 206.462598 -134.10079 
L 205.332185 -133.607418 
L 204.201773 -133.607418 
L 203.07136 -133.607418 
L 201.940947 -133.607418 
L 200.810534 -133.607418 
L 199.680122 -133.482747 
L 198.549709 -133.482747 
L 197.419296 -133.482747 
L 196.288883 -133.482747 
L 195.15847 -133.482747 
L 194.028058 -133.482747 
L 192.897645 -130.904456 
L 191.767232 -130.904456 
L 190.636819 -130.904456 
L 189.506407 -130.904456 
L 188.375994 -130.904456 
L 187.245581 -144.926183 
L 186.115168 -144.926183 
L 184.984756 -144.926183 
L 183.854343 -144.926183 
L 182.72393 -144.926183 
L 181.593517 -144.926183 
L 180.463105 -160.880289 
L 179.332692 -160.880289 
L 178.202279 -160.880289 
L 177.071866 -160.880289 
L 175.941454 -160.880289 
L 174.811041 -160.4186 
L 173.680628 -160.4186 
L 172.550215 -160.4186 
L 171.419802 -160.4186 
L 170.28939 -160.4186 
L 169.158977 -160.4186 
L 168.028564 -160.4186 
L 166.898151 -160.4186 
L 165.767739 -160.4186 
L 164.637326 -160.4186 
L 163.506913 -160.4186 
L 162.3765 -160.4186 
L 161.246088 -160.4186 
L 160.115675 -160.4186 
L 158.985262 -160.4186 
L 157.854849 -160.4186 
L 156.724437 -160.4186 
L 155.594024 -160.4186 
L 154.463611 -160.4186 
L 153.333198 -160.4186 
L 152.202786 -160.4186 
L 151.072373 -160.4186 
L 149.94196 -161.32211 
L 148.811547 -161.32211 
L 147.681134 -161.32211 
L 146.550722 -161.32211 
L 145.420309 -161.32211 
L 144.289896 -161.32211 
L 143.159483 -161.32211 
L 142.029071 -161.32211 
L 140.898658 -161.32211 
L 139.768245 -161.32211 
L 138.637832 -161.32211 
L 137.50742 -161.582584 
L 136.377007 -161.582584 
L 135.246594 -161.582584 
L 134.116181 -161.582584 
L 132.985769 -161.582584 
L 131.855356 -159.877093 
L 130.724943 -159.877093 
L 129.59453 -159.877093 
L 128.464117 -159.877093 
L 127.333705 -159.877093 
L 126.203292 -159.877093 
L 125.072879 -165.558126 
L 123.942466 -165.558126 
L 122.812054 -165.558126 
L 121.681641 -165.558126 
L 120.551228 -165.558126 
L 119.420815 -204.491754 
L 118.290403 -204.491754 
L 117.15999 -204.491754 
L 116.029577 -204.491754 
L 114.899164 -204.491754 
L 113.768752 -204.491754 
L 112.638339 -204.491754 
L 111.507926 -204.491754 
L 110.377513 -204.491754 
L 109.247101 -204.491754 
L 108.116688 -204.491754 
L 106.986275 -204.491754 
L 105.855862 -204.491754 
L 104.725449 -204.491754 
L 103.595037 -204.491754 
L 102.464624 -204.491754 
L 101.334211 -204.491754 
L 100.203798 -204.491754 
L 99.073386 -204.491754 
L 97.942973 -204.491754 
L 96.81256 -204.491754 
L 95.682147 -204.491754 
L 94.551735 -204.491754 
L 93.421322 -204.491754 
L 92.290909 -204.491754 
z
" style="stroke: #482475; stroke-opacity: 0.2"/>
    </defs>
    <g clip-path="url(#p15418d7d91)">
     <use xlink:href="#m0a645cf369" x="0" y="360" style="fill: #482475; fill-opacity: 0.2; stroke: #482475; stroke-opacity: 0.2"/>
    </g>
   </g>
   <g id="PolyCollection_2">
    <defs>
     <path id="md77d7187e6" d="M 92.290909 -63.05201 
L 92.290909 -198.446695 
L 93.421322 -198.446695 
L 94.551735 -198.446695 
L 95.682147 -198.397386 
L 96.81256 -198.397386 
L 97.942973 -198.397386 
L 99.073386 -198.397386 
L 100.203798 -198.397386 
L 101.334211 -198.397386 
L 102.464624 -208.855923 
L 103.595037 -208.855923 
L 104.725449 -208.855923 
L 105.855862 -208.855923 
L 106.986275 -208.855923 
L 108.116688 -210.109119 
L 109.247101 -210.109119 
L 110.377513 -210.109119 
L 111.507926 -210.109119 
L 112.638339 -210.109119 
L 113.768752 -210.109119 
L 114.899164 -211.223105 
L 116.029577 -211.223105 
L 117.15999 -211.223105 
L 118.290403 -211.223105 
L 119.420815 -211.223105 
L 120.551228 -205.960693 
L 121.681641 -205.960693 
L 122.812054 -205.960693 
L 123.942466 -205.960693 
L 125.072879 -205.960693 
L 126.203292 -207.940032 
L 127.333705 -207.940032 
L 128.464117 -207.940032 
L 129.59453 -207.940032 
L 130.724943 -207.940032 
L 131.855356 -207.940032 
L 132.985769 -209.617339 
L 134.116181 -209.617339 
L 135.246594 -209.617339 
L 136.377007 -209.617339 
L 137.50742 -209.617339 
L 138.637832 -209.588418 
L 139.768245 -209.588418 
L 140.898658 -209.588418 
L 142.029071 -209.588418 
L 143.159483 -209.588418 
L 144.289896 -209.588418 
L 145.420309 -209.588418 
L 146.550722 -209.588418 
L 147.681134 -209.588418 
L 148.811547 -209.588418 
L 149.94196 -209.588418 
L 151.072373 -208.6298 
L 152.202786 -208.6298 
L 153.333198 -208.6298 
L 154.463611 -208.6298 
L 155.594024 -208.6298 
L 156.724437 -208.6298 
L 157.854849 -208.6298 
L 158.985262 -208.6298 
L 160.115675 -208.6298 
L 161.246088 -208.6298 
L 162.3765 -208.6298 
L 163.506913 -207.983933 
L 164.637326 -207.983933 
L 165.767739 -207.983933 
L 166.898151 -207.983933 
L 168.028564 -207.983933 
L 169.158977 -208.6298 
L 170.28939 -208.862295 
L 171.419802 -208.862295 
L 172.550215 -208.862295 
L 173.680628 -208.862295 
L 174.811041 -208.862295 
L 175.941454 -219.657646 
L 177.071866 -219.657646 
L 178.202279 -219.657646 
L 179.332692 -219.657646 
L 180.463105 -219.657646 
L 181.593517 -215.146118 
L 182.72393 -215.146118 
L 183.854343 -215.146118 
L 184.984756 -215.146118 
L 186.115168 -215.146118 
L 187.245581 -215.146118 
L 188.375994 -213.378203 
L 189.506407 -213.378203 
L 190.636819 -213.378203 
L 191.767232 -213.378203 
L 192.897645 -213.378203 
L 194.028058 -221.8451 
L 195.15847 -221.8451 
L 196.288883 -221.8451 
L 197.419296 -221.8451 
L 198.549709 -221.8451 
L 199.680122 -221.8451 
L 200.810534 -223.385501 
L 201.940947 -223.385501 
L 203.07136 -223.385501 
L 204.201773 -223.385501 
L 205.332185 -223.385501 
L 206.462598 -224.979415 
L 207.593011 -224.979415 
L 208.723424 -224.979415 
L 209.853836 -224.979415 
L 210.984249 -224.979415 
L 212.114662 -224.979415 
L 213.245075 -223.923851 
L 214.375487 -223.923851 
L 215.5059 -223.923851 
L 216.636313 -223.923851 
L 217.766726 -223.923851 
L 218.897139 -223.175249 
L 220.027551 -223.175249 
L 221.157964 -223.175249 
L 222.288377 -223.175249 
L 223.41879 -223.175249 
L 224.549202 -226.861368 
L 225.679615 -226.861368 
L 226.810028 -226.861368 
L 227.940441 -226.861368 
L 229.070853 -226.861368 
L 230.201266 -226.861368 
L 231.331679 -226.861368 
L 232.462092 -226.861368 
L 233.592504 -226.861368 
L 234.722917 -226.861368 
L 235.85333 -226.861368 
L 236.983743 -226.861368 
L 238.114155 -226.861368 
L 239.244568 -226.861368 
L 240.374981 -226.861368 
L 241.505394 -226.861368 
L 242.635807 -226.861368 
L 243.766219 -223.094689 
L 244.896632 -223.094689 
L 246.027045 -223.094689 
L 247.157458 -223.094689 
L 248.28787 -223.094689 
L 249.418283 -182.842407 
L 250.548696 -182.842407 
L 251.679109 -182.842407 
L 252.809521 -182.842407 
L 253.939934 -182.842407 
L 255.070347 -182.842407 
L 256.20076 -186.633723 
L 257.331172 -186.633723 
L 258.461585 -186.633723 
L 259.591998 -186.633723 
L 260.722411 -186.633723 
L 261.852823 -183.846257 
L 262.983236 -183.846257 
L 264.113649 -183.846257 
L 265.244062 -183.846257 
L 266.374475 -183.846257 
L 267.504887 -183.846257 
L 268.6353 -172.127736 
L 269.765713 -172.127736 
L 270.896126 -172.127736 
L 272.026538 -172.127736 
L 273.156951 -172.127736 
L 274.287364 -172.641095 
L 275.417777 -172.641095 
L 276.548189 -172.641095 
L 277.678602 -172.641095 
L 278.809015 -172.641095 
L 279.939428 -172.641095 
L 281.06984 -172.641095 
L 282.200253 -172.641095 
L 283.330666 -172.641095 
L 284.461079 -172.641095 
L 285.591492 -172.641095 
L 286.721904 -172.641095 
L 287.852317 -172.641095 
L 288.98273 -172.641095 
L 290.113143 -172.641095 
L 291.243555 -172.641095 
L 292.373968 -172.641095 
L 293.504381 -172.641095 
L 294.634794 -172.641095 
L 295.765206 -172.641095 
L 296.895619 -172.641095 
L 298.026032 -172.641095 
L 299.156445 -172.641095 
L 300.286857 -172.641095 
L 301.41727 -172.641095 
L 302.547683 -172.641095 
L 303.678096 -172.641095 
L 304.808508 -172.641095 
L 305.938921 -172.641095 
L 307.069334 -172.641095 
L 308.199747 -172.641095 
L 309.33016 -172.641095 
L 310.460572 -172.641095 
L 311.590985 -197.897065 
L 312.721398 -197.897065 
L 313.851811 -197.897065 
L 314.982223 -197.897065 
L 316.112636 -197.897065 
L 317.243049 -220.201801 
L 318.373462 -220.201801 
L 319.503874 -220.201801 
L 320.634287 -220.201801 
L 321.7647 -220.201801 
L 322.895113 -220.201801 
L 324.025525 -220.201801 
L 325.155938 -220.201801 
L 326.286351 -220.201801 
L 327.416764 -220.201801 
L 328.547177 -220.201801 
L 329.677589 -220.201801 
L 330.808002 -220.201801 
L 331.938415 -220.201801 
L 333.068828 -220.201801 
L 334.19924 -220.201801 
L 335.329653 -220.201801 
L 336.460066 -220.201801 
L 337.590479 -220.201801 
L 338.720891 -220.201801 
L 339.851304 -220.201801 
L 340.981717 -220.201801 
L 342.11213 -220.201801 
L 343.242542 -220.201801 
L 344.372955 -220.201801 
L 345.503368 -220.201801 
L 346.633781 -220.201801 
L 347.764193 -220.201801 
L 348.894606 -220.201801 
L 350.025019 -220.201801 
L 351.155432 -220.201801 
L 352.285845 -220.201801 
L 353.416257 -220.201801 
L 354.54667 -220.918876 
L 355.677083 -220.918876 
L 356.807496 -220.918876 
L 357.937908 -220.918876 
L 359.068321 -220.918876 
L 360.198734 -219.507533 
L 361.329147 -219.507533 
L 362.459559 -219.507533 
L 363.589972 -219.507533 
L 364.720385 -219.507533 
L 365.850798 -219.507533 
L 366.98121 -219.507533 
L 368.111623 -219.507533 
L 369.242036 -219.507533 
L 370.372449 -219.507533 
L 371.502861 -219.507533 
L 372.633274 -212.711708 
L 373.763687 -212.711708 
L 374.8941 -212.711708 
L 376.024513 -212.711708 
L 377.154925 -212.711708 
L 378.285338 -241.329621 
L 379.415751 -241.329621 
L 380.546164 -241.329621 
L 381.676576 -241.329621 
L 382.806989 -241.329621 
L 383.937402 -241.329621 
L 385.067815 -241.41565 
L 386.198227 -241.41565 
L 387.32864 -241.41565 
L 388.459053 -241.41565 
L 389.589466 -241.41565 
L 390.719878 -241.41565 
L 391.850291 -241.41565 
L 392.980704 -241.41565 
L 394.111117 -241.41565 
L 395.24153 -241.41565 
L 396.371942 -241.41565 
L 397.502355 -241.41565 
L 398.632768 -241.41565 
L 399.763181 -241.41565 
L 400.893593 -241.41565 
L 402.024006 -241.41565 
L 403.154419 -241.41565 
L 404.284832 -241.41565 
L 405.415244 -241.41565 
L 406.545657 -241.41565 
L 407.67607 -241.41565 
L 408.806483 -241.41565 
L 409.936895 -241.41565 
L 411.067308 -241.41565 
L 412.197721 -241.41565 
L 413.328134 -241.41565 
L 414.458546 -241.41565 
L 415.588959 -241.41565 
L 416.719372 -241.41565 
L 417.849785 -241.41565 
L 418.980198 -241.41565 
L 420.11061 -241.41565 
L 421.241023 -241.41565 
L 422.371436 -241.41565 
L 423.501849 -241.41565 
L 424.632261 -241.41565 
L 425.762674 -241.41565 
L 426.893087 -241.41565 
L 428.0235 -241.41565 
L 429.153912 -241.41565 
L 430.284325 -241.41565 
L 431.414738 -241.41565 
L 432.545151 -241.41565 
L 433.675563 -234.797756 
L 434.805976 -234.797756 
L 435.936389 -234.797756 
L 437.066802 -234.797756 
L 438.197214 -234.797756 
L 439.327627 -234.797756 
L 440.45804 -246.659488 
L 441.588453 -246.659488 
L 442.718866 -246.659488 
L 443.849278 -246.659488 
L 444.979691 -246.659488 
L 446.110104 -247.885344 
L 447.240517 -247.885344 
L 448.370929 -247.885344 
L 449.501342 -247.885344 
L 450.631755 -247.885344 
L 451.762168 -247.885344 
L 452.89258 -247.293169 
L 454.022993 -247.293169 
L 455.153406 -247.293169 
L 456.283819 -247.293169 
L 457.414231 -247.293169 
L 458.544644 -247.885344 
L 459.675057 -247.885344 
L 460.80547 -247.885344 
L 461.935883 -247.885344 
L 463.066295 -247.885344 
L 464.196708 -247.885344 
L 465.327121 -247.885344 
L 466.457534 -247.885344 
L 467.587946 -247.885344 
L 468.718359 -247.885344 
L 469.848772 -247.885344 
L 470.979185 -247.885344 
L 472.109597 -247.885344 
L 473.24001 -247.885344 
L 474.370423 -247.885344 
L 475.500836 -247.885344 
L 476.631248 -247.885344 
L 477.761661 -247.885344 
L 478.892074 -247.885344 
L 480.022487 -247.885344 
L 481.152899 -247.885344 
L 482.283312 -247.885344 
L 483.413725 -247.885344 
L 484.544138 -247.885344 
L 485.674551 -247.885344 
L 486.804963 -247.885344 
L 487.935376 -247.885344 
L 489.065789 -247.885344 
L 490.196202 -247.885344 
L 491.326614 -247.885344 
L 492.457027 -247.885344 
L 493.58744 -247.885344 
L 494.717853 -247.885344 
L 495.848265 -247.885344 
L 496.978678 -247.885344 
L 498.109091 -247.885344 
L 498.109091 -208.695792 
L 498.109091 -208.695792 
L 496.978678 -208.695792 
L 495.848265 -208.695792 
L 494.717853 -208.695792 
L 493.58744 -208.695792 
L 492.457027 -208.695792 
L 491.326614 -208.695792 
L 490.196202 -208.695792 
L 489.065789 -208.695792 
L 487.935376 -208.695792 
L 486.804963 -208.695792 
L 485.674551 -208.695792 
L 484.544138 -208.695792 
L 483.413725 -208.695792 
L 482.283312 -208.695792 
L 481.152899 -208.695792 
L 480.022487 -208.695792 
L 478.892074 -208.695792 
L 477.761661 -208.695792 
L 476.631248 -208.695792 
L 475.500836 -208.695792 
L 474.370423 -208.695792 
L 473.24001 -208.695792 
L 472.109597 -208.695792 
L 470.979185 -208.695792 
L 469.848772 -208.695792 
L 468.718359 -208.695792 
L 467.587946 -208.695792 
L 466.457534 -208.695792 
L 465.327121 -208.695792 
L 464.196708 -208.695792 
L 463.066295 -208.695792 
L 461.935883 -208.695792 
L 460.80547 -208.695792 
L 459.675057 -208.695792 
L 458.544644 -208.695792 
L 457.414231 -207.064559 
L 456.283819 -207.064559 
L 455.153406 -207.064559 
L 454.022993 -207.064559 
L 452.89258 -207.064559 
L 451.762168 -208.695792 
L 450.631755 -208.695792 
L 449.501342 -208.695792 
L 448.370929 -208.695792 
L 447.240517 -208.695792 
L 446.110104 -208.695792 
L 444.979691 -207.69824 
L 443.849278 -207.69824 
L 442.718866 -207.69824 
L 441.588453 -207.69824 
L 440.45804 -207.69824 
L 439.327627 -187.879972 
L 438.197214 -187.879972 
L 437.066802 -187.879972 
L 435.936389 -187.879972 
L 434.805976 -187.879972 
L 433.675563 -187.879972 
L 432.545151 -194.045486 
L 431.414738 -194.045486 
L 430.284325 -194.045486 
L 429.153912 -194.045486 
L 428.0235 -194.045486 
L 426.893087 -194.045486 
L 425.762674 -194.045486 
L 424.632261 -194.045486 
L 423.501849 -194.045486 
L 422.371436 -194.045486 
L 421.241023 -194.045486 
L 420.11061 -194.045486 
L 418.980198 -194.045486 
L 417.849785 -194.045486 
L 416.719372 -194.045486 
L 415.588959 -194.045486 
L 414.458546 -194.045486 
L 413.328134 -194.045486 
L 412.197721 -194.045486 
L 411.067308 -194.045486 
L 409.936895 -194.045486 
L 408.806483 -194.045486 
L 407.67607 -194.045486 
L 406.545657 -194.045486 
L 405.415244 -194.045486 
L 404.284832 -194.045486 
L 403.154419 -194.045486 
L 402.024006 -194.045486 
L 400.893593 -194.045486 
L 399.763181 -194.045486 
L 398.632768 -194.045486 
L 397.502355 -194.045486 
L 396.371942 -194.045486 
L 395.24153 -194.045486 
L 394.111117 -194.045486 
L 392.980704 -194.045486 
L 391.850291 -194.045486 
L 390.719878 -194.045486 
L 389.589466 -194.045486 
L 388.459053 -194.045486 
L 387.32864 -194.045486 
L 386.198227 -194.045486 
L 385.067815 -194.045486 
L 383.937402 -193.575531 
L 382.806989 -193.575531 
L 381.676576 -193.575531 
L 380.546164 -193.575531 
L 379.415751 -193.575531 
L 378.285338 -193.575531 
L 377.154925 -179.39746 
L 376.024513 -179.39746 
L 374.8941 -179.39746 
L 373.763687 -179.39746 
L 372.633274 -179.39746 
L 371.502861 -180.938227 
L 370.372449 -180.938227 
L 369.242036 -180.938227 
L 368.111623 -180.938227 
L 366.98121 -180.938227 
L 365.850798 -180.938227 
L 364.720385 -180.938227 
L 363.589972 -180.938227 
L 362.459559 -180.938227 
L 361.329147 -180.938227 
L 360.198734 -180.938227 
L 359.068321 -180.638324 
L 357.937908 -180.638324 
L 356.807496 -180.638324 
L 355.677083 -180.638324 
L 354.54667 -180.638324 
L 353.416257 -180.799415 
L 352.285845 -180.799415 
L 351.155432 -180.799415 
L 350.025019 -180.799415 
L 348.894606 -180.799415 
L 347.764193 -180.799415 
L 346.633781 -180.799415 
L 345.503368 -180.799415 
L 344.372955 -180.799415 
L 343.242542 -180.799415 
L 342.11213 -180.799415 
L 340.981717 -180.799415 
L 339.851304 -180.799415 
L 338.720891 -180.799415 
L 337.590479 -180.799415 
L 336.460066 -180.799415 
L 335.329653 -180.799415 
L 334.19924 -180.799415 
L 333.068828 -180.799415 
L 331.938415 -180.799415 
L 330.808002 -180.799415 
L 329.677589 -180.799415 
L 328.547177 -180.799415 
L 327.416764 -180.799415 
L 326.286351 -180.799415 
L 325.155938 -180.799415 
L 324.025525 -180.799415 
L 322.895113 -180.799415 
L 321.7647 -180.799415 
L 320.634287 -180.799415 
L 319.503874 -180.799415 
L 318.373462 -180.799415 
L 317.243049 -180.799415 
L 316.112636 -165.310439 
L 314.982223 -165.310439 
L 313.851811 -165.310439 
L 312.721398 -165.310439 
L 311.590985 -165.310439 
L 310.460572 -162.777241 
L 309.33016 -162.777241 
L 308.199747 -162.777241 
L 307.069334 -162.777241 
L 305.938921 -162.777241 
L 304.808508 -162.777241 
L 303.678096 -162.777241 
L 302.547683 -162.777241 
L 301.41727 -162.777241 
L 300.286857 -162.777241 
L 299.156445 -162.777241 
L 298.026032 -162.777241 
L 296.895619 -162.777241 
L 295.765206 -162.777241 
L 294.634794 -162.777241 
L 293.504381 -162.777241 
L 292.373968 -162.777241 
L 291.243555 -162.777241 
L 290.113143 -162.777241 
L 288.98273 -162.777241 
L 287.852317 -162.777241 
L 286.721904 -162.777241 
L 285.591492 -162.777241 
L 284.461079 -162.777241 
L 283.330666 -162.777241 
L 282.200253 -162.777241 
L 281.06984 -162.777241 
L 279.939428 -162.777241 
L 278.809015 -162.777241 
L 277.678602 -162.777241 
L 276.548189 -162.777241 
L 275.417777 -162.777241 
L 274.287364 -162.777241 
L 273.156951 -160.511736 
L 272.026538 -160.511736 
L 270.896126 -160.511736 
L 269.765713 -160.511736 
L 268.6353 -160.511736 
L 267.504887 -133.786399 
L 266.374475 -133.786399 
L 265.244062 -133.786399 
L 264.113649 -133.786399 
L 262.983236 -133.786399 
L 261.852823 -133.786399 
L 260.722411 -123.218747 
L 259.591998 -123.218747 
L 258.461585 -123.218747 
L 257.331172 -123.218747 
L 256.20076 -123.218747 
L 255.070347 -120.897407 
L 253.939934 -120.897407 
L 252.809521 -120.897407 
L 251.679109 -120.897407 
L 250.548696 -120.897407 
L 249.418283 -120.897407 
L 248.28787 -137.890146 
L 247.157458 -137.890146 
L 246.027045 -137.890146 
L 244.896632 -137.890146 
L 243.766219 -137.890146 
L 242.635807 -140.237179 
L 241.505394 -140.237179 
L 240.374981 -140.237179 
L 239.244568 -140.237179 
L 238.114155 -140.237179 
L 236.983743 -140.237179 
L 235.85333 -140.237179 
L 234.722917 -140.237179 
L 233.592504 -140.237179 
L 232.462092 -140.237179 
L 231.331679 -140.237179 
L 230.201266 -140.237179 
L 229.070853 -140.237179 
L 227.940441 -140.237179 
L 226.810028 -140.237179 
L 225.679615 -140.237179 
L 224.549202 -140.237179 
L 223.41879 -136.697618 
L 222.288377 -136.697618 
L 221.157964 -136.697618 
L 220.027551 -136.697618 
L 218.897139 -136.697618 
L 217.766726 -117.052425 
L 216.636313 -117.052425 
L 215.5059 -117.052425 
L 214.375487 -117.052425 
L 213.245075 -117.052425 
L 212.114662 -113.217891 
L 210.984249 -113.217891 
L 209.853836 -113.217891 
L 208.723424 -113.217891 
L 207.593011 -113.217891 
L 206.462598 -113.217891 
L 205.332185 -110.921501 
L 204.201773 -110.921501 
L 203.07136 -110.921501 
L 201.940947 -110.921501 
L 200.810534 -110.921501 
L 199.680122 -106.904702 
L 198.549709 -106.904702 
L 197.419296 -106.904702 
L 196.288883 -106.904702 
L 195.15847 -106.904702 
L 194.028058 -106.904702 
L 192.897645 -93.695615 
L 191.767232 -93.695615 
L 190.636819 -93.695615 
L 189.506407 -93.695615 
L 188.375994 -93.695615 
L 187.245581 -77.476762 
L 186.115168 -77.476762 
L 184.984756 -77.476762 
L 183.854343 -77.476762 
L 182.72393 -77.476762 
L 181.593517 -77.476762 
L 180.463105 -80.746475 
L 179.332692 -80.746475 
L 178.202279 -80.746475 
L 177.071866 -80.746475 
L 175.941454 -80.746475 
L 174.811041 -69.310387 
L 173.680628 -69.310387 
L 172.550215 -69.310387 
L 171.419802 -69.310387 
L 170.28939 -69.310387 
L 169.158977 -67.875458 
L 168.028564 -67.965341 
L 166.898151 -67.965341 
L 165.767739 -67.965341 
L 164.637326 -67.965341 
L 163.506913 -67.965341 
L 162.3765 -67.875458 
L 161.246088 -67.875458 
L 160.115675 -67.875458 
L 158.985262 -67.875458 
L 157.854849 -67.875458 
L 156.724437 -67.875458 
L 155.594024 -67.875458 
L 154.463611 -67.875458 
L 153.333198 -67.875458 
L 152.202786 -67.875458 
L 151.072373 -67.875458 
L 149.94196 -68.02828 
L 148.811547 -68.02828 
L 147.681134 -68.02828 
L 146.550722 -68.02828 
L 145.420309 -68.02828 
L 144.289896 -68.02828 
L 143.159483 -68.02828 
L 142.029071 -68.02828 
L 140.898658 -68.02828 
L 139.768245 -68.02828 
L 138.637832 -68.02828 
L 137.50742 -68.555343 
L 136.377007 -68.555343 
L 135.246594 -68.555343 
L 134.116181 -68.555343 
L 132.985769 -68.555343 
L 131.855356 -69.12121 
L 130.724943 -69.12121 
L 129.59453 -69.12121 
L 128.464117 -69.12121 
L 127.333705 -69.12121 
L 126.203292 -69.12121 
L 125.072879 -69.433124 
L 123.942466 -69.433124 
L 122.812054 -69.433124 
L 121.681641 -69.433124 
L 120.551228 -69.433124 
L 119.420815 -73.063553 
L 118.290403 -73.063553 
L 117.15999 -73.063553 
L 116.029577 -73.063553 
L 114.899164 -73.063553 
L 113.768752 -71.953603 
L 112.638339 -71.953603 
L 111.507926 -71.953603 
L 110.377513 -71.953603 
L 109.247101 -71.953603 
L 108.116688 -71.953603 
L 106.986275 -71.539374 
L 105.855862 -71.539374 
L 104.725449 -71.539374 
L 103.595037 -71.539374 
L 102.464624 -71.539374 
L 101.334211 -62.545336 
L 100.203798 -62.545336 
L 99.073386 -62.545336 
L 97.942973 -62.545336 
L 96.81256 -62.545336 
L 95.682147 -62.545336 
L 94.551735 -63.05201 
L 93.421322 -63.05201 
L 92.290909 -63.05201 
z
" style="stroke: #bddf26; stroke-opacity: 0.2"/>
    </defs>
    <g clip-path="url(#p15418d7d91)">
     <use xlink:href="#md77d7187e6" x="0" y="360" style="fill: #bddf26; fill-opacity: 0.2; stroke: #bddf26; stroke-opacity: 0.2"/>
    </g>
   </g>
   <g id="matplotlib.axis_1">
    <g id="xtick_1">
     <g id="line2d_1">
      <defs>
       <path id="m9d310f24ed" d="M 0 0 
L 0 3.5 
" style="stroke: #000000; stroke-width: 0.8"/>
      </defs>
      <g>
       <use xlink:href="#m9d310f24ed" x="116.88595" y="320.4" style="stroke: #000000; stroke-width: 0.8"/>
      </g>
     </g>
     <g id="text_1">
      <!-- $\mathdefault{100}$ -->
      <g transform="translate(106.277417 337.431808) scale(0.145 -0.145)">
       <defs>
        <path id="CMR17-31" d="M 1702 4058 
C 1702 4192 1696 4192 1606 4192 
C 1357 3916 979 3827 621 3827 
C 602 3827 570 3827 563 3808 
C 557 3795 557 3782 557 3648 
C 755 3648 1088 3686 1344 3839 
L 1344 461 
C 1344 236 1331 160 781 160 
L 589 160 
L 589 0 
C 896 0 1216 0 1523 0 
C 1830 0 2150 0 2458 0 
L 2458 160 
L 2266 160 
C 1715 160 1702 230 1702 458 
L 1702 4058 
z
" transform="scale(0.015625)"/>
        <path id="CMR17-30" d="M 2688 2025 
C 2688 2416 2682 3080 2413 3591 
C 2176 4039 1798 4198 1466 4198 
C 1158 4198 768 4058 525 3597 
C 269 3118 243 2524 243 2025 
C 243 1661 250 1106 448 619 
C 723 -39 1216 -128 1466 -128 
C 1760 -128 2208 -7 2470 600 
C 2662 1042 2688 1559 2688 2025 
z
M 1466 -26 
C 1056 -26 813 325 723 812 
C 653 1188 653 1738 653 2096 
C 653 2588 653 2997 736 3387 
C 858 3929 1216 4096 1466 4096 
C 1728 4096 2067 3923 2189 3400 
C 2272 3036 2278 2607 2278 2096 
C 2278 1680 2278 1169 2202 792 
C 2067 95 1690 -26 1466 -26 
z
" transform="scale(0.015625)"/>
       </defs>
       <use xlink:href="#CMR17-31" transform="scale(0.996264)"/>
       <use xlink:href="#CMR17-30" transform="translate(45.690477 0) scale(0.996264)"/>
       <use xlink:href="#CMR17-30" transform="translate(91.380954 0) scale(0.996264)"/>
      </g>
     </g>
    </g>
    <g id="xtick_2">
     <g id="line2d_2">
      <g>
       <use xlink:href="#m9d310f24ed" x="178.373554" y="320.4" style="stroke: #000000; stroke-width: 0.8"/>
      </g>
     </g>
     <g id="text_2">
      <!-- $\mathdefault{200}$ -->
      <g transform="translate(167.76502 337.431808) scale(0.145 -0.145)">
       <defs>
        <path id="CMR17-32" d="M 2669 989 
L 2554 989 
C 2490 536 2438 459 2413 420 
C 2381 369 1920 369 1830 369 
L 602 369 
C 832 619 1280 1072 1824 1597 
C 2214 1967 2669 2402 2669 3035 
C 2669 3790 2067 4224 1395 4224 
C 691 4224 262 3604 262 3030 
C 262 2780 448 2748 525 2748 
C 589 2748 781 2787 781 3010 
C 781 3207 614 3264 525 3264 
C 486 3264 448 3258 422 3245 
C 544 3790 915 4058 1306 4058 
C 1862 4058 2227 3617 2227 3035 
C 2227 2479 1901 2000 1536 1584 
L 262 146 
L 262 0 
L 2515 0 
L 2669 989 
z
" transform="scale(0.015625)"/>
       </defs>
       <use xlink:href="#CMR17-32" transform="scale(0.996264)"/>
       <use xlink:href="#CMR17-30" transform="translate(45.690477 0) scale(0.996264)"/>
       <use xlink:href="#CMR17-30" transform="translate(91.380954 0) scale(0.996264)"/>
      </g>
     </g>
    </g>
    <g id="xtick_3">
     <g id="line2d_3">
      <g>
       <use xlink:href="#m9d310f24ed" x="239.861157" y="320.4" style="stroke: #000000; stroke-width: 0.8"/>
      </g>
     </g>
     <g id="text_3">
      <!-- $\mathdefault{300}$ -->
      <g transform="translate(229.252624 337.431808) scale(0.145 -0.145)">
       <defs>
        <path id="CMR17-33" d="M 1414 2157 
C 1984 2157 2234 1662 2234 1090 
C 2234 320 1824 25 1453 25 
C 1114 25 563 194 390 693 
C 422 680 454 680 486 680 
C 640 680 755 782 755 948 
C 755 1133 614 1216 486 1216 
C 378 1216 211 1165 211 926 
C 211 335 787 -128 1466 -128 
C 2176 -128 2720 430 2720 1085 
C 2720 1707 2208 2157 1600 2227 
C 2086 2328 2554 2756 2554 3329 
C 2554 3820 2048 4179 1472 4179 
C 890 4179 378 3829 378 3329 
C 378 3110 544 3072 627 3072 
C 762 3072 877 3155 877 3321 
C 877 3486 762 3569 627 3569 
C 602 3569 570 3569 544 3557 
C 730 3959 1235 4032 1459 4032 
C 1683 4032 2106 3925 2106 3320 
C 2106 3143 2080 2828 1862 2550 
C 1670 2304 1453 2304 1242 2284 
C 1210 2284 1062 2269 1037 2269 
C 992 2263 966 2257 966 2208 
C 966 2163 973 2157 1101 2157 
L 1414 2157 
z
" transform="scale(0.015625)"/>
       </defs>
       <use xlink:href="#CMR17-33" transform="scale(0.996264)"/>
       <use xlink:href="#CMR17-30" transform="translate(45.690477 0) scale(0.996264)"/>
       <use xlink:href="#CMR17-30" transform="translate(91.380954 0) scale(0.996264)"/>
      </g>
     </g>
    </g>
    <g id="xtick_4">
     <g id="line2d_4">
      <g>
       <use xlink:href="#m9d310f24ed" x="301.34876" y="320.4" style="stroke: #000000; stroke-width: 0.8"/>
      </g>
     </g>
     <g id="text_4">
      <!-- $\mathdefault{400}$ -->
      <g transform="translate(290.740227 337.431808) scale(0.145 -0.145)">
       <defs>
        <path id="CMR17-34" d="M 2150 4122 
C 2150 4256 2144 4256 2029 4256 
L 128 1254 
L 128 1088 
L 1779 1088 
L 1779 457 
C 1779 224 1766 160 1318 160 
L 1197 160 
L 1197 0 
C 1402 0 1747 0 1965 0 
C 2182 0 2528 0 2733 0 
L 2733 160 
L 2611 160 
C 2163 160 2150 224 2150 457 
L 2150 1088 
L 2803 1088 
L 2803 1254 
L 2150 1254 
L 2150 4122 
z
M 1798 3703 
L 1798 1254 
L 256 1254 
L 1798 3703 
z
" transform="scale(0.015625)"/>
       </defs>
       <use xlink:href="#CMR17-34" transform="scale(0.996264)"/>
       <use xlink:href="#CMR17-30" transform="translate(45.690477 0) scale(0.996264)"/>
       <use xlink:href="#CMR17-30" transform="translate(91.380954 0) scale(0.996264)"/>
      </g>
     </g>
    </g>
    <g id="xtick_5">
     <g id="line2d_5">
      <g>
       <use xlink:href="#m9d310f24ed" x="362.836364" y="320.4" style="stroke: #000000; stroke-width: 0.8"/>
      </g>
     </g>
     <g id="text_5">
      <!-- $\mathdefault{500}$ -->
      <g transform="translate(352.22783 337.431808) scale(0.145 -0.145)">
       <defs>
        <path id="CMR17-35" d="M 730 3692 
C 794 3666 1056 3584 1325 3584 
C 1920 3584 2246 3911 2432 4100 
C 2432 4157 2432 4192 2394 4192 
C 2387 4192 2374 4192 2323 4163 
C 2099 4058 1837 3973 1517 3973 
C 1325 3973 1037 3999 723 4139 
C 653 4171 640 4171 634 4171 
C 602 4171 595 4164 595 4037 
L 595 2203 
C 595 2089 595 2057 659 2057 
C 691 2057 704 2070 736 2114 
C 941 2401 1222 2522 1542 2522 
C 1766 2522 2246 2382 2246 1289 
C 2246 1085 2246 715 2054 421 
C 1894 159 1645 25 1370 25 
C 947 25 518 320 403 814 
C 429 807 480 795 506 795 
C 589 795 749 840 749 1038 
C 749 1210 627 1280 506 1280 
C 358 1280 262 1190 262 1011 
C 262 454 704 -128 1382 -128 
C 2042 -128 2669 440 2669 1264 
C 2669 2030 2170 2624 1549 2624 
C 1222 2624 947 2503 730 2274 
L 730 3692 
z
" transform="scale(0.015625)"/>
       </defs>
       <use xlink:href="#CMR17-35" transform="scale(0.996264)"/>
       <use xlink:href="#CMR17-30" transform="translate(45.690477 0) scale(0.996264)"/>
       <use xlink:href="#CMR17-30" transform="translate(91.380954 0) scale(0.996264)"/>
      </g>
     </g>
    </g>
    <g id="xtick_6">
     <g id="line2d_6">
      <g>
       <use xlink:href="#m9d310f24ed" x="424.323967" y="320.4" style="stroke: #000000; stroke-width: 0.8"/>
      </g>
     </g>
     <g id="text_6">
      <!-- $\mathdefault{600}$ -->
      <g transform="translate(413.715434 337.431808) scale(0.145 -0.145)">
       <defs>
        <path id="CMR17-36" d="M 678 2176 
C 678 3690 1395 4032 1811 4032 
C 1946 4032 2272 4009 2400 3776 
C 2298 3776 2106 3776 2106 3553 
C 2106 3381 2246 3323 2336 3323 
C 2394 3323 2566 3348 2566 3560 
C 2566 3954 2246 4179 1805 4179 
C 1043 4179 243 3390 243 1984 
C 243 253 966 -128 1478 -128 
C 2099 -128 2688 427 2688 1283 
C 2688 2081 2170 2662 1517 2662 
C 1126 2662 838 2407 678 1960 
L 678 2176 
z
M 1478 25 
C 691 25 691 1200 691 1436 
C 691 1896 909 2560 1504 2560 
C 1613 2560 1926 2560 2138 2120 
C 2253 1870 2253 1609 2253 1289 
C 2253 944 2253 690 2118 434 
C 1978 171 1773 25 1478 25 
z
" transform="scale(0.015625)"/>
       </defs>
       <use xlink:href="#CMR17-36" transform="scale(0.996264)"/>
       <use xlink:href="#CMR17-30" transform="translate(45.690477 0) scale(0.996264)"/>
       <use xlink:href="#CMR17-30" transform="translate(91.380954 0) scale(0.996264)"/>
      </g>
     </g>
    </g>
    <g id="xtick_7">
     <g id="line2d_7">
      <g>
       <use xlink:href="#m9d310f24ed" x="485.81157" y="320.4" style="stroke: #000000; stroke-width: 0.8"/>
      </g>
     </g>
     <g id="text_7">
      <!-- $\mathdefault{700}$ -->
      <g transform="translate(475.203037 337.431808) scale(0.145 -0.145)">
       <defs>
        <path id="CMR17-37" d="M 2886 3941 
L 2886 4081 
L 1382 4081 
C 634 4081 621 4165 595 4288 
L 480 4288 
L 294 3094 
L 410 3094 
C 429 3215 474 3540 550 3661 
C 589 3712 1062 3712 1171 3712 
L 2579 3712 
L 1869 2661 
C 1395 1954 1069 999 1069 165 
C 1069 89 1069 -128 1299 -128 
C 1530 -128 1530 89 1530 171 
L 1530 465 
C 1530 1508 1709 2196 2003 2636 
L 2886 3941 
z
" transform="scale(0.015625)"/>
       </defs>
       <use xlink:href="#CMR17-37" transform="scale(0.996264)"/>
       <use xlink:href="#CMR17-30" transform="translate(45.690477 0) scale(0.996264)"/>
       <use xlink:href="#CMR17-30" transform="translate(91.380954 0) scale(0.996264)"/>
      </g>
     </g>
    </g>
    <g id="text_8">
     <!-- time (s) -->
     <g transform="translate(271.677317 355.075073) scale(0.145 -0.145)">
      <defs>
       <path id="CMSS17-74" d="M 1069 2368 
L 1901 2368 
L 1901 2737 
L 1069 2737 
L 1069 3520 
L 614 3520 
L 614 2737 
L 109 2737 
L 109 2368 
L 602 2368 
L 602 749 
C 602 384 685 -64 1107 -64 
C 1427 -64 1722 25 2003 172 
L 1901 548 
C 1747 414 1562 337 1363 337 
C 1082 337 1069 696 1069 856 
L 1069 2368 
z
" transform="scale(0.015625)"/>
       <path id="CMSS17-69" d="M 979 4183 
L 442 4183 
L 442 3648 
L 979 3648 
L 979 4183 
z
M 947 2739 
L 474 2739 
L 474 0 
L 947 0 
L 947 2739 
z
" transform="scale(0.015625)"/>
       <path id="CMSS17-6d" d="M 4288 1877 
C 4288 2308 4179 2816 3462 2816 
C 2982 2816 2694 2516 2566 2331 
C 2451 2670 2182 2816 1798 2816 
C 1363 2816 1088 2568 941 2389 
L 941 2758 
L 474 2758 
L 474 0 
L 960 0 
L 960 1559 
C 960 1939 1101 2428 1555 2428 
C 2138 2428 2138 2016 2138 1829 
L 2138 0 
L 2624 0 
L 2624 1559 
C 2624 1939 2765 2428 3219 2428 
C 3802 2428 3802 2016 3802 1829 
L 3802 0 
L 4288 0 
L 4288 1877 
z
" transform="scale(0.015625)"/>
       <path id="CMSS17-65" d="M 2502 1377 
C 2502 1590 2490 2003 2285 2345 
C 2061 2713 1696 2816 1421 2816 
C 755 2816 192 2188 192 1375 
C 192 582 774 -64 1510 -64 
C 1798 -64 2150 19 2470 248 
C 2470 274 2458 414 2451 420 
C 2451 433 2432 630 2432 656 
C 2125 407 1773 325 1517 325 
C 1107 325 666 667 646 1377 
L 2502 1377 
z
M 698 1728 
C 781 2084 1062 2421 1421 2421 
C 1517 2421 1965 2421 2080 1728 
L 698 1728 
z
" transform="scale(0.015625)"/>
       <path id="CMSS17-28" d="M 1613 4768 
C 1267 4417 474 3601 474 1588 
C 474 -433 1267 -1243 1613 -1600 
L 2003 -1600 
C 1216 -784 960 357 960 1581 
C 960 2798 1203 3946 2003 4768 
L 1613 4768 
z
" transform="scale(0.015625)"/>
       <path id="CMSS17-73" d="M 2061 2627 
C 1683 2807 1389 2807 1197 2807 
C 742 2807 198 2648 198 2003 
C 198 1359 902 1218 1094 1179 
C 1389 1122 1715 1058 1715 740 
C 1715 337 1254 337 1171 337 
C 915 337 563 407 243 638 
L 166 210 
C 531 0 883 -64 1178 -64 
C 1965 -64 2163 416 2163 781 
C 2163 1094 1984 1305 1862 1401 
C 1651 1568 1574 1587 1050 1696 
C 960 1709 646 1779 646 2066 
C 646 2432 1050 2432 1139 2432 
C 1555 2432 1811 2303 1984 2208 
L 2061 2627 
z
" transform="scale(0.015625)"/>
       <path id="CMSS17-29" d="M 723 -1600 
C 1069 -1249 1862 -433 1862 1581 
C 1862 3601 1069 4411 723 4768 
L 333 4768 
C 1120 3952 1376 2811 1376 1588 
C 1376 370 1133 -778 333 -1600 
L 723 -1600 
z
" transform="scale(0.015625)"/>
      </defs>
      <use xlink:href="#CMSS17-74" transform="scale(0.996264)"/>
      <use xlink:href="#CMSS17-69" transform="translate(33.831567 0) scale(0.996264)"/>
      <use xlink:href="#CMSS17-6d" transform="translate(56.01229 0) scale(0.996264)"/>
      <use xlink:href="#CMSS17-65" transform="translate(130.241544 0) scale(0.996264)"/>
      <use xlink:href="#CMSS17-28" transform="translate(203.109479 0) scale(0.996264)"/>
      <use xlink:href="#CMSS17-73" transform="translate(239.543393 0) scale(0.996264)"/>
      <use xlink:href="#CMSS17-29" transform="translate(275.456935 0) scale(0.996264)"/>
     </g>
    </g>
   </g>
   <g id="matplotlib.axis_2">
    <g id="ytick_1">
     <g id="line2d_8">
      <path d="M 72 320.4 
L 518.4 320.4 
" clip-path="url(#p15418d7d91)" style="fill: none; stroke-dasharray: 1.85,0.8; stroke-dashoffset: 0; stroke: #808080; stroke-width: 0.5"/>
     </g>
     <g id="line2d_9">
      <defs>
       <path id="mb359b3e6a1" d="M 0 0 
L -3.5 0 
" style="stroke: #000000; stroke-width: 0.8"/>
      </defs>
      <g>
       <use xlink:href="#mb359b3e6a1" x="72" y="320.4" style="stroke: #000000; stroke-width: 0.8"/>
      </g>
     </g>
     <g id="text_9">
      <!-- $\mathdefault{0.0}$ -->
      <g transform="translate(46.926206 325.415904) scale(0.145 -0.145)">
       <defs>
        <path id="CMMI12-3a" d="M 1178 307 
C 1178 492 1024 619 870 619 
C 685 619 557 466 557 313 
C 557 128 710 0 864 0 
C 1050 0 1178 153 1178 307 
z
" transform="scale(0.015625)"/>
       </defs>
       <use xlink:href="#CMR17-30" transform="scale(0.996264)"/>
       <use xlink:href="#CMMI12-3a" transform="translate(45.690477 0) scale(0.996264)"/>
       <use xlink:href="#CMR17-30" transform="translate(72.787654 0) scale(0.996264)"/>
      </g>
     </g>
    </g>
    <g id="ytick_2">
     <g id="line2d_10">
      <path d="M 72 267.6 
L 518.4 267.6 
" clip-path="url(#p15418d7d91)" style="fill: none; stroke-dasharray: 1.85,0.8; stroke-dashoffset: 0; stroke: #808080; stroke-width: 0.5"/>
     </g>
     <g id="line2d_11">
      <g>
       <use xlink:href="#mb359b3e6a1" x="72" y="267.6" style="stroke: #000000; stroke-width: 0.8"/>
      </g>
     </g>
     <g id="text_10">
      <!-- $\mathdefault{0.2}$ -->
      <g transform="translate(46.926206 272.615904) scale(0.145 -0.145)">
       <use xlink:href="#CMR17-30" transform="scale(0.996264)"/>
       <use xlink:href="#CMMI12-3a" transform="translate(45.690477 0) scale(0.996264)"/>
       <use xlink:href="#CMR17-32" transform="translate(72.787654 0) scale(0.996264)"/>
      </g>
     </g>
    </g>
    <g id="ytick_3">
     <g id="line2d_12">
      <path d="M 72 214.8 
L 518.4 214.8 
" clip-path="url(#p15418d7d91)" style="fill: none; stroke-dasharray: 1.85,0.8; stroke-dashoffset: 0; stroke: #808080; stroke-width: 0.5"/>
     </g>
     <g id="line2d_13">
      <g>
       <use xlink:href="#mb359b3e6a1" x="72" y="214.8" style="stroke: #000000; stroke-width: 0.8"/>
      </g>
     </g>
     <g id="text_11">
      <!-- $\mathdefault{0.4}$ -->
      <g transform="translate(46.926206 219.815904) scale(0.145 -0.145)">
       <use xlink:href="#CMR17-30" transform="scale(0.996264)"/>
       <use xlink:href="#CMMI12-3a" transform="translate(45.690477 0) scale(0.996264)"/>
       <use xlink:href="#CMR17-34" transform="translate(72.787654 0) scale(0.996264)"/>
      </g>
     </g>
    </g>
    <g id="ytick_4">
     <g id="line2d_14">
      <path d="M 72 162 
L 518.4 162 
" clip-path="url(#p15418d7d91)" style="fill: none; stroke-dasharray: 1.85,0.8; stroke-dashoffset: 0; stroke: #808080; stroke-width: 0.5"/>
     </g>
     <g id="line2d_15">
      <g>
       <use xlink:href="#mb359b3e6a1" x="72" y="162" style="stroke: #000000; stroke-width: 0.8"/>
      </g>
     </g>
     <g id="text_12">
      <!-- $\mathdefault{0.6}$ -->
      <g transform="translate(46.926206 167.015904) scale(0.145 -0.145)">
       <use xlink:href="#CMR17-30" transform="scale(0.996264)"/>
       <use xlink:href="#CMMI12-3a" transform="translate(45.690477 0) scale(0.996264)"/>
       <use xlink:href="#CMR17-36" transform="translate(72.787654 0) scale(0.996264)"/>
      </g>
     </g>
    </g>
    <g id="ytick_5">
     <g id="line2d_16">
      <path d="M 72 109.2 
L 518.4 109.2 
" clip-path="url(#p15418d7d91)" style="fill: none; stroke-dasharray: 1.85,0.8; stroke-dashoffset: 0; stroke: #808080; stroke-width: 0.5"/>
     </g>
     <g id="line2d_17">
      <g>
       <use xlink:href="#mb359b3e6a1" x="72" y="109.2" style="stroke: #000000; stroke-width: 0.8"/>
      </g>
     </g>
     <g id="text_13">
      <!-- $\mathdefault{0.8}$ -->
      <g transform="translate(46.926206 114.215904) scale(0.145 -0.145)">
       <defs>
        <path id="CMR17-38" d="M 1741 2264 
C 2144 2467 2554 2773 2554 3263 
C 2554 3841 1990 4179 1472 4179 
C 890 4179 378 3759 378 3180 
C 378 3021 416 2747 666 2505 
C 730 2442 998 2251 1171 2130 
C 883 1983 211 1634 211 934 
C 211 279 838 -128 1459 -128 
C 2144 -128 2720 362 2720 1010 
C 2720 1590 2330 1857 2074 2029 
L 1741 2264 
z
M 902 2822 
C 851 2854 595 3051 595 3351 
C 595 3739 998 4032 1459 4032 
C 1965 4032 2336 3676 2336 3262 
C 2336 2669 1670 2331 1638 2331 
C 1632 2331 1626 2331 1574 2370 
L 902 2822 
z
M 2080 1519 
C 2176 1449 2483 1240 2483 851 
C 2483 381 2010 25 1472 25 
C 890 25 448 438 448 940 
C 448 1443 838 1862 1280 2060 
L 2080 1519 
z
" transform="scale(0.015625)"/>
       </defs>
       <use xlink:href="#CMR17-30" transform="scale(0.996264)"/>
       <use xlink:href="#CMMI12-3a" transform="translate(45.690477 0) scale(0.996264)"/>
       <use xlink:href="#CMR17-38" transform="translate(72.787654 0) scale(0.996264)"/>
      </g>
     </g>
    </g>
    <g id="ytick_6">
     <g id="line2d_18">
      <path d="M 72 56.4 
L 518.4 56.4 
" clip-path="url(#p15418d7d91)" style="fill: none; stroke-dasharray: 1.85,0.8; stroke-dashoffset: 0; stroke: #808080; stroke-width: 0.5"/>
     </g>
     <g id="line2d_19">
      <g>
       <use xlink:href="#mb359b3e6a1" x="72" y="56.4" style="stroke: #000000; stroke-width: 0.8"/>
      </g>
     </g>
     <g id="text_14">
      <!-- $\mathdefault{1.0}$ -->
      <g transform="translate(46.926206 61.415904) scale(0.145 -0.145)">
       <use xlink:href="#CMR17-31" transform="scale(0.996264)"/>
       <use xlink:href="#CMMI12-3a" transform="translate(45.690477 0) scale(0.996264)"/>
       <use xlink:href="#CMR17-30" transform="translate(72.787654 0) scale(0.996264)"/>
      </g>
     </g>
    </g>
    <g id="text_15">
     <!-- QoS -->
     <g transform="translate(40.117312 194.481753) rotate(-90) scale(0.145 -0.145)">
      <defs>
       <path id="CMSS17-51" d="M 3200 202 
C 3981 833 4096 1689 4096 2174 
C 4096 3501 3219 4497 2214 4497 
C 1210 4497 333 3497 333 2178 
C 333 847 1222 -128 2214 -128 
C 2438 -128 2630 -77 2765 -26 
L 3302 -832 
L 3930 -832 
L 3200 202 
z
M 2528 324 
C 2438 293 2330 273 2214 273 
C 1523 273 858 993 858 2178 
C 858 3357 1517 4096 2214 4096 
C 2918 4096 3571 3350 3571 2178 
C 3571 1771 3507 1089 2950 566 
L 2490 1210 
L 1939 1210 
L 2528 324 
z
" transform="scale(0.015625)"/>
       <path id="CMSS17-6f" d="M 2829 1356 
C 2829 2176 2221 2816 1504 2816 
C 768 2816 173 2157 173 1356 
C 173 544 787 -64 1498 -64 
C 2227 -64 2829 563 2829 1356 
z
M 1504 337 
C 1050 337 659 709 659 1408 
C 659 2151 1114 2427 1498 2427 
C 1914 2427 2342 2126 2342 1408 
C 2342 683 1926 337 1504 337 
z
" transform="scale(0.015625)"/>
       <path id="CMSS17-53" d="M 2797 4169 
C 2515 4334 2208 4480 1690 4480 
C 864 4480 333 3879 333 3266 
C 333 3025 403 2753 653 2475 
C 902 2196 1184 2121 1542 2033 
C 1690 1994 1939 1924 1984 1906 
C 2342 1767 2515 1444 2515 1140 
C 2515 742 2202 318 1645 318 
C 1453 318 890 318 358 819 
L 269 318 
C 794 -64 1363 -128 1651 -128 
C 2438 -128 3002 488 3002 1186 
C 3002 1440 2925 1763 2656 2061 
C 2394 2347 2163 2410 1638 2549 
C 1338 2626 1146 2677 986 2873 
C 877 3013 819 3146 819 3317 
C 819 3673 1126 4060 1690 4060 
C 1971 4060 2336 4002 2707 3660 
L 2797 4169 
z
" transform="scale(0.015625)"/>
      </defs>
      <use xlink:href="#CMSS17-51" transform="scale(0.996264)"/>
      <use xlink:href="#CMSS17-6f" transform="translate(69.024255 0) scale(0.996264)"/>
      <use xlink:href="#CMSS17-53" transform="translate(115.867879 0) scale(0.996264)"/>
     </g>
    </g>
   </g>
   <g id="line2d_20">
    <path d="M 92.290909 132.821136 
L 119.420815 132.821136 
L 120.551228 165.05712 
L 125.072879 165.05712 
L 126.203292 168.947424 
L 131.855356 168.947424 
L 132.985769 168.113712 
L 137.50742 168.113712 
L 138.637832 168.39144 
L 149.94196 168.39144 
L 151.072373 168.94716 
L 174.811041 168.94716 
L 175.941454 168.669168 
L 180.463105 168.669168 
L 181.593517 190.900872 
L 187.245581 190.900872 
L 188.375994 203.406024 
L 192.897645 203.406024 
L 194.028058 201.18288 
L 199.680122 201.18288 
L 200.810534 201.7386 
L 205.332185 201.7386 
L 206.462598 202.016328 
L 242.635807 202.016328 
L 243.766219 202.85004 
L 248.28787 202.85004 
L 249.418283 226.749696 
L 255.070347 226.749696 
L 256.20076 226.193712 
L 260.722411 226.193712 
L 261.852823 226.471704 
L 310.460572 226.471704 
L 311.590985 216.189168 
L 316.112636 216.189168 
L 317.243049 209.797464 
L 321.7647 209.797464 
L 322.895113 207.852312 
L 353.416257 207.852312 
L 354.54667 207.57432 
L 365.850798 207.57432 
L 366.98121 207.852312 
L 371.502861 207.852312 
L 372.633274 200.626896 
L 377.154925 200.626896 
L 378.285338 181.730304 
L 383.937402 181.730304 
L 385.067815 181.17432 
L 432.545151 181.17432 
L 433.675563 184.509168 
L 439.327627 184.509168 
L 440.45804 162.833976 
L 444.979691 162.833976 
L 446.110104 162 
L 451.762168 162 
L 452.89258 162.833712 
L 457.414231 162.833712 
L 458.544644 162 
L 498.109091 162 
L 498.109091 162 
" clip-path="url(#p15418d7d91)" style="fill: none; stroke: #482475; stroke-width: 2.5; stroke-linecap: square"/>
   </g>
   <g id="line2d_21">
    <path d="M 92.290909 229.250647 
L 94.551735 229.250647 
L 95.682147 229.528639 
L 101.334211 229.528639 
L 102.464624 219.802351 
L 106.986275 219.802351 
L 108.116688 218.968639 
L 113.768752 218.968639 
L 114.899164 217.856671 
L 119.420815 217.856671 
L 120.551228 222.303091 
L 125.072879 222.303091 
L 126.203292 221.469379 
L 131.855356 221.469379 
L 132.985769 220.913659 
L 137.50742 220.913659 
L 138.637832 221.191651 
L 149.94196 221.191651 
L 151.072373 221.747371 
L 162.3765 221.747371 
L 163.506913 222.025363 
L 168.028564 222.025363 
L 169.158977 221.747371 
L 170.28939 220.913659 
L 174.811041 220.913659 
L 175.941454 209.797939 
L 180.463105 209.797939 
L 181.593517 213.68856 
L 187.245581 213.68856 
L 188.375994 206.463091 
L 192.897645 206.463091 
L 194.028058 195.625099 
L 199.680122 195.625099 
L 200.810534 192.846499 
L 205.332185 192.846499 
L 206.462598 190.901347 
L 212.114662 190.901347 
L 213.245075 189.511862 
L 217.766726 189.511862 
L 218.897139 180.063566 
L 223.41879 180.063566 
L 224.549202 176.450726 
L 242.635807 176.450726 
L 243.766219 179.507582 
L 248.28787 179.507582 
L 249.418283 208.130093 
L 255.070347 208.130093 
L 256.20076 205.073765 
L 260.722411 205.073765 
L 261.852823 201.183672 
L 267.504887 201.183672 
L 268.6353 193.680264 
L 273.156951 193.680264 
L 274.287364 192.290832 
L 310.460572 192.290832 
L 311.590985 178.396248 
L 316.112636 178.396248 
L 317.243049 159.499392 
L 353.416257 159.499392 
L 354.54667 159.2214 
L 359.068321 159.2214 
L 360.198734 159.77712 
L 371.502861 159.77712 
L 372.633274 163.945416 
L 377.154925 163.945416 
L 378.285338 142.547424 
L 383.937402 142.547424 
L 385.067815 142.269432 
L 432.545151 142.269432 
L 433.675563 148.661136 
L 439.327627 148.661136 
L 440.45804 132.821136 
L 444.979691 132.821136 
L 446.110104 131.709432 
L 451.762168 131.709432 
L 452.89258 132.821136 
L 457.414231 132.821136 
L 458.544644 131.709432 
L 498.109091 131.709432 
L 498.109091 131.709432 
" clip-path="url(#p15418d7d91)" style="fill: none; stroke: #bddf26; stroke-width: 2.5; stroke-linecap: square"/>
   </g>
   <g id="patch_3">
    <path d="M 72 320.4 
L 72 43.2 
" style="fill: none; stroke: #000000; stroke-width: 0.8; stroke-linejoin: miter; stroke-linecap: square"/>
   </g>
   <g id="patch_4">
    <path d="M 518.4 320.4 
L 518.4 43.2 
" style="fill: none; stroke: #000000; stroke-width: 0.8; stroke-linejoin: miter; stroke-linecap: square"/>
   </g>
   <g id="patch_5">
    <path d="M 72 320.4 
L 518.4 320.4 
" style="fill: none; stroke: #000000; stroke-width: 0.8; stroke-linejoin: miter; stroke-linecap: square"/>
   </g>
   <g id="text_16">
    <!-- $nt=Barabsi$ $d=100$ $oc=1\%$ $l=costant$ -->
    <g transform="translate(134.141661 37.2) scale(0.18 -0.18)">
     <defs>
      <path id="CMMI12-6e" d="M 1318 1871 
C 1331 1910 1491 2229 1728 2433 
C 1894 2586 2112 2689 2362 2689 
C 2618 2689 2707 2497 2707 2242 
C 2707 1878 2445 1150 2317 805 
C 2259 651 2227 568 2227 453 
C 2227 166 2426 -64 2733 -64 
C 3328 -64 3552 875 3552 913 
C 3552 945 3526 971 3488 971 
C 3430 971 3424 952 3392 843 
C 3245 319 3002 64 2752 64 
C 2688 64 2586 64 2586 269 
C 2586 429 2656 621 2694 710 
C 2822 1063 3091 1780 3091 2145 
C 3091 2528 2867 2816 2381 2816 
C 1811 2816 1510 2415 1395 2255 
C 1376 2618 1114 2816 832 2816 
C 627 2816 486 2695 378 2478 
C 262 2248 173 1865 173 1839 
C 173 1814 198 1782 243 1782 
C 294 1782 301 1788 339 1935 
C 442 2325 557 2689 813 2689 
C 960 2689 1011 2586 1011 2395 
C 1011 2254 947 2005 902 1807 
L 723 1118 
C 698 996 627 709 595 594 
C 550 428 480 128 480 96 
C 480 6 550 -64 646 -64 
C 723 -64 813 -26 864 70 
C 877 102 934 326 966 453 
L 1107 1028 
L 1318 1871 
z
" transform="scale(0.015625)"/>
      <path id="CMMI12-74" d="M 1286 2566 
L 1875 2566 
C 1997 2566 2061 2566 2061 2681 
C 2061 2752 2022 2752 1894 2752 
L 1331 2752 
L 1568 3692 
C 1594 3781 1594 3794 1594 3840 
C 1594 3943 1510 4000 1427 4000 
C 1376 4000 1229 3981 1178 3775 
L 928 2752 
L 326 2752 
C 198 2752 141 2752 141 2630 
C 141 2566 186 2566 307 2566 
L 877 2566 
L 454 881 
C 403 658 384 594 384 511 
C 384 211 595 -64 954 -64 
C 1600 -64 1946 868 1946 912 
C 1946 951 1920 970 1882 970 
C 1869 970 1843 970 1830 944 
C 1824 938 1818 931 1773 829 
C 1638 511 1344 64 973 64 
C 781 64 768 224 768 364 
C 768 370 768 492 787 568 
L 1286 2566 
z
" transform="scale(0.015625)"/>
      <path id="CMR17-3d" d="M 4115 2017 
C 4211 2017 4307 2017 4307 2125 
C 4307 2240 4198 2240 4090 2240 
L 512 2240 
C 403 2240 294 2240 294 2125 
C 294 2017 390 2017 486 2017 
L 4115 2017 
z
M 4090 896 
C 4198 896 4307 896 4307 1011 
C 4307 1119 4211 1119 4115 1119 
L 486 1119 
C 390 1119 294 1119 294 1011 
C 294 896 403 896 512 896 
L 4090 896 
z
" transform="scale(0.015625)"/>
      <path id="CMMI12-42" d="M 2342 3921 
C 2400 4160 2426 4160 2675 4160 
L 3507 4160 
C 4230 4160 4230 3544 4230 3485 
C 4230 2966 3712 2304 2867 2304 
L 1946 2304 
L 2342 3921 
z
M 3424 2275 
C 4122 2402 4755 2886 4755 3473 
C 4755 3970 4314 4352 3590 4352 
L 1536 4352 
C 1414 4352 1357 4352 1357 4226 
C 1357 4160 1414 4160 1510 4160 
C 1901 4160 1901 4112 1901 4044 
C 1901 4032 1901 3993 1875 3897 
L 1011 472 
C 954 249 941 185 493 185 
C 371 185 307 185 307 70 
C 307 0 346 0 474 0 
L 2669 0 
C 3648 0 4403 739 4403 1383 
C 4403 1906 3942 2224 3424 2275 
z
M 2515 185 
L 1651 185 
C 1562 185 1549 185 1510 192 
C 1440 198 1434 211 1434 261 
C 1434 305 1446 343 1459 399 
L 1907 2176 
L 3110 2176 
C 3866 2176 3866 1483 3866 1433 
C 3866 828 3309 185 2515 185 
z
" transform="scale(0.015625)"/>
      <path id="CMMI12-61" d="M 1926 760 
C 1894 651 1894 639 1805 517 
C 1664 338 1382 64 1082 64 
C 819 64 672 300 672 677 
C 672 1028 870 1743 992 2012 
C 1210 2459 1510 2689 1760 2689 
C 2182 2689 2266 2165 2266 2114 
C 2266 2108 2246 2024 2240 2012 
L 1926 760 
z
M 2336 2395 
C 2266 2561 2093 2816 1760 2816 
C 1037 2816 256 1884 256 939 
C 256 307 627 -64 1062 -64 
C 1414 -64 1715 211 1894 422 
C 1958 45 2259 -64 2451 -64 
C 2643 -64 2797 51 2912 281 
C 3014 498 3104 888 3104 913 
C 3104 945 3078 971 3040 971 
C 2982 971 2976 939 2950 843 
C 2854 466 2733 64 2470 64 
C 2285 64 2272 230 2272 358 
C 2272 505 2291 575 2349 824 
C 2394 984 2426 1124 2477 1309 
C 2714 2267 2771 2497 2771 2535 
C 2771 2625 2701 2695 2605 2695 
C 2400 2695 2349 2472 2336 2395 
z
" transform="scale(0.015625)"/>
      <path id="CMMI12-72" d="M 2490 2612 
C 2291 2574 2189 2433 2189 2293 
C 2189 2139 2310 2088 2400 2088 
C 2579 2088 2726 2242 2726 2433 
C 2726 2638 2528 2816 2208 2816 
C 1952 2816 1658 2701 1389 2312 
C 1344 2650 1088 2816 832 2816 
C 582 2816 454 2625 378 2484 
C 269 2254 173 1871 173 1839 
C 173 1814 198 1782 243 1782 
C 294 1782 301 1788 339 1935 
C 435 2318 557 2689 813 2689 
C 966 2689 1011 2580 1011 2395 
C 1011 2254 947 2005 902 1807 
L 723 1118 
C 698 996 627 709 595 594 
C 550 428 480 128 480 96 
C 480 6 550 -64 646 -64 
C 717 -64 838 -19 877 109 
C 896 160 1133 1124 1171 1271 
C 1203 1411 1242 1546 1274 1686 
C 1299 1775 1325 1878 1344 1961 
C 1363 2018 1536 2331 1696 2472 
C 1773 2542 1939 2689 2202 2689 
C 2304 2689 2406 2670 2490 2612 
z
" transform="scale(0.015625)"/>
      <path id="CMMI12-62" d="M 1478 4257 
C 1485 4283 1498 4321 1498 4352 
C 1498 4416 1434 4416 1421 4416 
C 1414 4416 1184 4393 1069 4377 
C 960 4377 864 4358 749 4358 
C 595 4345 550 4339 550 4224 
C 550 4160 614 4160 678 4160 
C 1005 4160 1005 4103 1005 4040 
C 1005 3996 954 3811 928 3696 
L 774 3085 
C 710 2831 346 1387 320 1272 
C 288 1114 288 1005 288 922 
C 288 274 653 -64 1069 -64 
C 1811 -64 2579 888 2579 1814 
C 2579 2401 2246 2816 1766 2816 
C 1434 2816 1133 2542 1011 2414 
L 1478 4257 
z
M 1075 64 
C 870 64 646 217 646 715 
C 646 926 666 1047 781 1494 
C 800 1577 902 1986 928 2069 
C 941 2120 1318 2689 1754 2689 
C 2035 2689 2163 2408 2163 2076 
C 2163 1769 1984 1047 1824 715 
C 1664 370 1370 64 1075 64 
z
" transform="scale(0.015625)"/>
      <path id="CMMI12-73" d="M 1459 1280 
C 1568 1261 1741 1223 1779 1216 
C 1862 1192 2150 1090 2150 783 
C 2150 586 1971 70 1229 70 
C 1094 70 614 70 486 436 
C 742 404 870 603 870 745 
C 870 880 781 950 653 950 
C 512 950 326 841 326 552 
C 326 173 710 -64 1222 -64 
C 2195 -64 2483 651 2483 984 
C 2483 1079 2483 1258 2278 1462 
C 2118 1616 1965 1648 1619 1718 
C 1446 1756 1171 1814 1171 2101 
C 1171 2229 1286 2689 1894 2689 
C 2163 2689 2426 2589 2490 2368 
C 2208 2368 2195 2125 2195 2119 
C 2195 1984 2317 1946 2374 1946 
C 2464 1946 2643 2015 2643 2281 
C 2643 2545 2400 2816 1901 2816 
C 1062 2816 838 2160 838 1899 
C 838 1414 1312 1312 1459 1280 
z
" transform="scale(0.015625)"/>
      <path id="CMMI12-69" d="M 1811 913 
C 1811 945 1786 971 1747 971 
C 1690 971 1683 952 1651 843 
C 1485 262 1222 64 1011 64 
C 934 64 845 83 845 275 
C 845 447 922 639 992 830 
L 1440 2018 
C 1459 2069 1504 2184 1504 2305 
C 1504 2574 1312 2816 998 2816 
C 410 2816 173 1890 173 1839 
C 173 1814 198 1782 243 1782 
C 301 1782 307 1807 333 1896 
C 486 2428 730 2682 979 2682 
C 1037 2682 1146 2682 1146 2478 
C 1146 2312 1062 2101 1011 1961 
L 563 773 
C 525 671 486 568 486 453 
C 486 166 685 -64 992 -64 
C 1581 -64 1811 869 1811 913 
z
M 1760 4013 
C 1760 4109 1683 4224 1542 4224 
C 1395 4224 1229 4083 1229 3917 
C 1229 3758 1363 3707 1440 3707 
C 1613 3707 1760 3873 1760 4013 
z
" transform="scale(0.015625)"/>
      <path id="CMMI12-64" d="M 3219 4257 
C 3226 4282 3238 4320 3238 4352 
C 3238 4416 3174 4416 3162 4416 
C 3155 4416 2842 4388 2810 4380 
C 2701 4373 2605 4358 2490 4358 
C 2330 4345 2285 4339 2285 4224 
C 2285 4160 2336 4160 2426 4160 
C 2739 4160 2746 4103 2746 4040 
C 2746 4002 2733 3952 2726 3933 
L 2336 2395 
C 2266 2561 2093 2816 1760 2816 
C 1037 2816 256 1884 256 939 
C 256 307 627 -64 1062 -64 
C 1414 -64 1715 211 1894 422 
C 1958 45 2259 -64 2451 -64 
C 2643 -64 2797 51 2912 281 
C 3014 498 3104 888 3104 913 
C 3104 945 3078 971 3040 971 
C 2982 971 2976 939 2950 843 
C 2854 466 2733 64 2470 64 
C 2285 64 2272 229 2272 357 
C 2272 382 2272 515 2317 694 
L 3219 4257 
z
M 1926 760 
C 1894 651 1894 639 1805 517 
C 1664 338 1382 64 1082 64 
C 819 64 672 300 672 677 
C 672 1028 870 1743 992 2012 
C 1210 2459 1510 2689 1760 2689 
C 2182 2689 2266 2165 2266 2114 
C 2266 2108 2246 2024 2240 2012 
L 1926 760 
z
" transform="scale(0.015625)"/>
      <path id="CMMI12-6f" d="M 2918 1756 
C 2918 2363 2522 2816 1939 2816 
C 1094 2816 262 1897 262 996 
C 262 390 659 -64 1242 -64 
C 2093 -64 2918 856 2918 1756 
z
M 1248 64 
C 928 64 691 319 691 766 
C 691 1060 845 1712 1024 2031 
C 1312 2523 1670 2689 1933 2689 
C 2246 2689 2490 2433 2490 1986 
C 2490 1731 2355 1047 2112 658 
C 1850 230 1498 64 1248 64 
z
" transform="scale(0.015625)"/>
      <path id="CMMI12-63" d="M 2502 2431 
C 2381 2431 2323 2431 2234 2355 
C 2195 2323 2125 2227 2125 2125 
C 2125 1997 2221 1920 2342 1920 
C 2496 1920 2669 2044 2669 2292 
C 2669 2588 2374 2816 1933 2816 
C 1094 2816 256 1903 256 996 
C 256 441 602 -64 1254 -64 
C 2125 -64 2675 622 2675 706 
C 2675 744 2637 776 2611 776 
C 2592 776 2586 770 2528 713 
C 2118 162 1510 64 1267 64 
C 826 64 685 446 685 764 
C 685 988 794 1605 1024 2039 
C 1190 2338 1536 2682 1939 2682 
C 2022 2682 2374 2682 2502 2431 
z
" transform="scale(0.015625)"/>
      <path id="CMR17-25" d="M 4640 959 
C 4640 1698 4275 2240 3846 2240 
C 3411 2240 2970 1736 2970 959 
C 2970 183 3405 -320 3846 -320 
C 4275 -320 4640 215 4640 959 
z
M 3853 -218 
C 3686 -218 3270 -66 3270 959 
C 3270 1991 3686 2138 3853 2138 
C 4205 2138 4525 1634 4525 959 
C 4525 285 4205 -218 3853 -218 
z
M 4083 4577 
C 4128 4647 4134 4653 4134 4685 
C 4134 4761 4077 4800 4026 4800 
C 3962 4800 3936 4756 3891 4706 
C 3520 4190 3008 4134 2746 4134 
C 2106 4134 1715 4494 1594 4607 
C 1510 4682 1389 4800 1171 4800 
C 736 4800 294 4296 294 3519 
C 294 2743 730 2240 1171 2240 
C 1600 2240 1965 2778 1965 3527 
C 1965 3969 1830 4270 1811 4308 
C 2202 4064 2586 4032 2752 4032 
C 3162 4032 3456 4183 3616 4289 
L 3622 4283 
L 858 -84 
C 800 -174 800 -187 800 -206 
C 800 -276 858 -320 915 -320 
C 973 -320 992 -289 1037 -218 
L 4083 4577 
z
M 1178 2342 
C 1011 2342 595 2494 595 3519 
C 595 4551 1011 4698 1178 4698 
C 1530 4698 1850 4194 1850 3519 
C 1850 2845 1530 2342 1178 2342 
z
" transform="scale(0.015625)"/>
      <path id="CMMI12-6c" d="M 1626 4257 
C 1632 4282 1645 4320 1645 4352 
C 1645 4416 1581 4416 1568 4416 
C 1562 4416 1331 4393 1216 4377 
C 1107 4377 1011 4358 896 4358 
C 742 4345 698 4339 698 4224 
C 698 4160 762 4160 826 4160 
C 1152 4160 1152 4102 1152 4039 
C 1152 4014 1152 4001 1120 3887 
L 326 731 
C 307 661 294 610 294 509 
C 294 191 531 -64 858 -64 
C 1069 -64 1210 76 1312 274 
C 1421 483 1510 884 1510 909 
C 1510 941 1485 967 1446 967 
C 1389 967 1382 935 1357 840 
C 1242 401 1126 64 870 64 
C 678 64 678 267 678 357 
C 678 382 678 515 723 694 
L 1626 4257 
z
" transform="scale(0.015625)"/>
     </defs>
     <use xlink:href="#CMMI12-6e" transform="scale(0.996264)"/>
     <use xlink:href="#CMMI12-74" transform="translate(58.230047 0) scale(0.996264)"/>
     <use xlink:href="#CMR17-3d" transform="translate(121.130386 0) scale(0.996264)"/>
     <use xlink:href="#CMMI12-42" transform="translate(220.519183 0) scale(0.996264)"/>
     <use xlink:href="#CMMI12-61" transform="translate(299.654707 0) scale(0.996264)"/>
     <use xlink:href="#CMMI12-72" transform="translate(350.862564 0) scale(0.996264)"/>
     <use xlink:href="#CMMI12-61" transform="translate(397.533176 0) scale(0.996264)"/>
     <use xlink:href="#CMMI12-62" transform="translate(448.741034 0) scale(0.996264)"/>
     <use xlink:href="#CMMI12-73" transform="translate(490.216908 0) scale(0.996264)"/>
     <use xlink:href="#CMMI12-69" transform="translate(536.166956 0) scale(0.996264)"/>
     <use xlink:href="#CMMI12-64" transform="translate(600.67467 0) scale(0.996264)"/>
     <use xlink:href="#CMR17-3d" transform="translate(679.037776 0) scale(0.996264)"/>
     <use xlink:href="#CMR17-31" transform="translate(778.426573 0) scale(0.996264)"/>
     <use xlink:href="#CMR17-30" transform="translate(824.11705 0) scale(0.996264)"/>
     <use xlink:href="#CMR17-30" transform="translate(869.807527 0) scale(0.996264)"/>
     <use xlink:href="#CMMI12-6f" transform="translate(946.727117 0) scale(0.996264)"/>
     <use xlink:href="#CMMI12-63" transform="translate(993.622427 0) scale(0.996264)"/>
     <use xlink:href="#CMR17-3d" transform="translate(1063.279669 0) scale(0.996264)"/>
     <use xlink:href="#CMR17-31" transform="translate(1162.668466 0) scale(0.996264)"/>
     <use xlink:href="#CMR17-25" transform="translate(1208.358943 0) scale(0.996264)"/>
     <use xlink:href="#CMMI12-6c" transform="translate(1316.507646 0) scale(0.996264)"/>
     <use xlink:href="#CMR17-3d" transform="translate(1375.430058 0) scale(0.996264)"/>
     <use xlink:href="#CMMI12-63" transform="translate(1474.818856 0) scale(0.996264)"/>
     <use xlink:href="#CMMI12-6f" transform="translate(1516.802089 0) scale(0.996264)"/>
     <use xlink:href="#CMMI12-73" transform="translate(1563.697399 0) scale(0.996264)"/>
     <use xlink:href="#CMMI12-74" transform="translate(1609.647446 0) scale(0.996264)"/>
     <use xlink:href="#CMMI12-61" transform="translate(1644.873777 0) scale(0.996264)"/>
     <use xlink:href="#CMMI12-6e" transform="translate(1696.081634 0) scale(0.996264)"/>
     <use xlink:href="#CMMI12-74" transform="translate(1754.311682 0) scale(0.996264)"/>
    </g>
   </g>
  </g>
  <g id="axes_2">
   <g id="matplotlib.axis_3">
    <g id="ytick_7">
     <g id="line2d_22">
      <defs>
       <path id="m69be5dadfa" d="M 0 0 
L 3.5 0 
" style="stroke: #000000; stroke-width: 0.8"/>
      </defs>
      <g>
       <use xlink:href="#m69be5dadfa" x="518.4" y="320.4" style="stroke: #000000; stroke-width: 0.8"/>
      </g>
     </g>
     <g id="text_17">
      <!-- $\mathdefault{0}$ -->
      <g transform="translate(525.4 325.415904) scale(0.145 -0.145)">
       <use xlink:href="#CMR17-30" transform="scale(0.996264)"/>
      </g>
     </g>
    </g>
    <g id="ytick_8">
     <g id="line2d_23">
      <g>
       <use xlink:href="#m69be5dadfa" x="518.4" y="264.987706" style="stroke: #000000; stroke-width: 0.8"/>
      </g>
     </g>
     <g id="text_18">
      <!-- $\mathdefault{20}$ -->
      <g transform="translate(525.4 270.00361) scale(0.145 -0.145)">
       <use xlink:href="#CMR17-32" transform="scale(0.996264)"/>
       <use xlink:href="#CMR17-30" transform="translate(45.690477 0) scale(0.996264)"/>
      </g>
     </g>
    </g>
    <g id="ytick_9">
     <g id="line2d_24">
      <g>
       <use xlink:href="#m69be5dadfa" x="518.4" y="209.575412" style="stroke: #000000; stroke-width: 0.8"/>
      </g>
     </g>
     <g id="text_19">
      <!-- $\mathdefault{40}$ -->
      <g transform="translate(525.4 214.591316) scale(0.145 -0.145)">
       <use xlink:href="#CMR17-34" transform="scale(0.996264)"/>
       <use xlink:href="#CMR17-30" transform="translate(45.690477 0) scale(0.996264)"/>
      </g>
     </g>
    </g>
    <g id="ytick_10">
     <g id="line2d_25">
      <g>
       <use xlink:href="#m69be5dadfa" x="518.4" y="154.163118" style="stroke: #000000; stroke-width: 0.8"/>
      </g>
     </g>
     <g id="text_20">
      <!-- $\mathdefault{60}$ -->
      <g transform="translate(525.4 159.179023) scale(0.145 -0.145)">
       <use xlink:href="#CMR17-36" transform="scale(0.996264)"/>
       <use xlink:href="#CMR17-30" transform="translate(45.690477 0) scale(0.996264)"/>
      </g>
     </g>
    </g>
    <g id="ytick_11">
     <g id="line2d_26">
      <g>
       <use xlink:href="#m69be5dadfa" x="518.4" y="98.750825" style="stroke: #000000; stroke-width: 0.8"/>
      </g>
     </g>
     <g id="text_21">
      <!-- $\mathdefault{80}$ -->
      <g transform="translate(525.4 103.766729) scale(0.145 -0.145)">
       <use xlink:href="#CMR17-38" transform="scale(0.996264)"/>
       <use xlink:href="#CMR17-30" transform="translate(45.690477 0) scale(0.996264)"/>
      </g>
     </g>
    </g>
    <g id="ytick_12">
     <g id="line2d_27">
      <g>
       <use xlink:href="#m69be5dadfa" x="518.4" y="43.338531" style="stroke: #000000; stroke-width: 0.8"/>
      </g>
     </g>
     <g id="text_22">
      <!-- $\mathdefault{100}$ -->
      <g transform="translate(525.4 48.354435) scale(0.145 -0.145)">
       <use xlink:href="#CMR17-31" transform="scale(0.996264)"/>
       <use xlink:href="#CMR17-30" transform="translate(45.690477 0) scale(0.996264)"/>
       <use xlink:href="#CMR17-30" transform="translate(91.380954 0) scale(0.996264)"/>
      </g>
     </g>
    </g>
    <g id="text_23">
     <!-- CPU load in \% -->
     <g transform="translate(560.648875 226.102524) rotate(-90) scale(0.145 -0.145)">
      <defs>
       <path id="CMSS17-43" d="M 3501 714 
C 3072 427 2874 344 2355 344 
C 1459 344 934 1303 934 2179 
C 934 3112 1472 4032 2381 4032 
C 2790 4032 3059 3918 3386 3715 
L 3475 4217 
C 3168 4370 2778 4440 2387 4440 
C 1158 4440 397 3316 397 2179 
C 397 927 1299 -64 2323 -64 
C 2874 -64 3066 -19 3539 280 
L 3501 714 
z
" transform="scale(0.015625)"/>
       <path id="CMSS17-50" d="M 2106 1856 
C 2874 1856 3501 2453 3501 3158 
C 3501 3850 2899 4453 2067 4453 
L 570 4453 
L 570 0 
L 1107 0 
L 1107 1856 
L 2106 1856 
z
M 1926 4096 
C 2669 4096 2995 3627 2995 3157 
C 2995 2720 2694 2226 1926 2226 
L 1094 2226 
L 1094 4096 
L 1926 4096 
z
" transform="scale(0.015625)"/>
       <path id="CMSS17-55" d="M 3552 4384 
L 3066 4384 
L 3066 1449 
C 3066 604 2547 229 2074 229 
C 1587 229 1101 623 1101 1443 
L 1101 4384 
L 563 4384 
L 563 1454 
C 563 539 1274 -128 2067 -128 
C 2861 -128 3552 539 3552 1454 
L 3552 4384 
z
" transform="scale(0.015625)"/>
       <path id="CMSS17-6c" d="M 947 4416 
L 474 4416 
L 474 0 
L 947 0 
L 947 4416 
z
" transform="scale(0.015625)"/>
       <path id="CMSS17-61" d="M 2406 1791 
C 2406 2392 1978 2808 1402 2808 
C 1120 2808 813 2757 461 2553 
L 499 2135 
C 659 2248 934 2432 1395 2432 
C 1722 2432 1920 2180 1920 1782 
L 1920 1536 
C 896 1536 256 1238 256 726 
C 256 461 416 -64 947 -64 
C 1043 -64 1562 -64 1933 217 
L 1933 -19 
L 2406 -19 
L 2406 1791 
z
M 1920 816 
C 1920 701 1920 548 1728 434 
C 1562 325 1350 325 1261 325 
C 941 325 723 511 723 744 
C 723 1211 1722 1211 1920 1211 
L 1920 816 
z
" transform="scale(0.015625)"/>
       <path id="CMSS17-64" d="M 2611 4416 
L 2138 4416 
L 2138 2438 
C 1939 2603 1613 2756 1254 2756 
C 672 2756 211 2131 211 1347 
C 211 562 666 -64 1235 -64 
C 1677 -64 1971 172 2125 306 
L 2125 -13 
L 2611 -13 
L 2611 4416 
z
M 2125 836 
C 2125 747 2125 653 1926 482 
C 1798 375 1645 325 1498 325 
C 1152 325 698 576 698 1340 
C 698 2134 1210 2368 1562 2368 
C 1798 2368 1990 2254 2125 2065 
L 2125 836 
z
" transform="scale(0.015625)"/>
       <path id="CMSS17-6e" d="M 2618 1877 
C 2618 2283 2522 2816 1798 2816 
C 1389 2816 1120 2606 941 2389 
L 941 2758 
L 474 2758 
L 474 0 
L 960 0 
L 960 1559 
C 960 1964 1114 2428 1549 2428 
C 2112 2428 2131 2048 2131 1829 
L 2131 0 
L 2618 0 
L 2618 1877 
z
" transform="scale(0.015625)"/>
       <path id="CMSS17-25" d="M 3923 4583 
C 3962 4647 3962 4679 3962 4685 
C 3962 4755 3904 4800 3853 4800 
C 3782 4800 3750 4749 3718 4685 
L 1101 -104 
C 1088 -129 1062 -167 1062 -206 
C 1062 -276 1120 -320 1178 -320 
C 1235 -320 1248 -295 1299 -206 
L 3923 4583 
z
M 4678 959 
C 4678 1698 4282 2240 3846 2240 
C 3418 2240 3008 1711 3008 959 
C 3008 208 3418 -320 3846 -320 
C 4288 -320 4678 221 4678 959 
z
M 3846 68 
C 3712 68 3494 189 3494 959 
C 3494 1724 3712 1851 3846 1851 
C 4083 1851 4211 1386 4211 959 
C 4211 533 4083 68 3846 68 
z
M 2003 3519 
C 2003 4258 1606 4800 1171 4800 
C 742 4800 333 4271 333 3519 
C 333 2768 742 2240 1171 2240 
C 1613 2240 2003 2781 2003 3519 
z
M 1171 2628 
C 1037 2628 819 2749 819 3519 
C 819 4284 1037 4411 1171 4411 
C 1408 4411 1536 3946 1536 3519 
C 1536 3093 1408 2628 1171 2628 
z
" transform="scale(0.015625)"/>
      </defs>
      <use xlink:href="#CMSS17-43" transform="scale(0.996264)"/>
      <use xlink:href="#CMSS17-50" transform="translate(59.855772 0) scale(0.996264)"/>
      <use xlink:href="#CMSS17-55" transform="translate(119.591358 0) scale(0.996264)"/>
      <use xlink:href="#CMSS17-6c" transform="translate(214.960211 0) scale(0.996264)"/>
      <use xlink:href="#CMSS17-6f" transform="translate(237.140934 0) scale(0.996264)"/>
      <use xlink:href="#CMSS17-61" transform="translate(283.984557 0) scale(0.996264)"/>
      <use xlink:href="#CMSS17-64" transform="translate(328.906478 0) scale(0.996264)"/>
      <use xlink:href="#CMSS17-69" transform="translate(408.340534 0) scale(0.996264)"/>
      <use xlink:href="#CMSS17-6e" transform="translate(430.521257 0) scale(0.996264)"/>
      <use xlink:href="#CMSS17-25" transform="translate(509.955313 0) scale(0.996264)"/>
     </g>
    </g>
   </g>
   <g id="line2d_28">
    <path d="M 92.290909 112.603898 
L 498.109091 112.603898 
L 498.109091 112.603898 
" clip-path="url(#p15418d7d91)" style="fill: none; stroke-dasharray: 5.55,2.4; stroke-dashoffset: 0; stroke: #140e36; stroke-width: 1.5"/>
   </g>
   <g id="line2d_29">
    <path d="M 92.290909 48.381049 
L 119.420815 48.381049 
L 120.551228 47.272804 
L 125.072879 47.272804 
L 126.203292 47.051154 
L 187.245581 47.161979 
L 188.375994 46.275382 
L 310.460572 46.275382 
L 311.590985 46.497031 
L 316.112636 46.497031 
L 317.243049 46.330795 
L 371.502861 46.275382 
L 372.633274 47.106567 
L 377.154925 47.106567 
L 378.285338 46.663268 
L 432.545151 46.663268 
L 433.675563 53.146507 
L 439.327627 53.146507 
L 440.45804 48.048576 
L 498.109091 48.048576 
L 498.109091 48.048576 
" clip-path="url(#p15418d7d91)" style="fill: none; stroke-dasharray: 5.55,2.4; stroke-dashoffset: 0; stroke: #fecf92; stroke-width: 1.5"/>
   </g>
   <g id="patch_6">
    <path d="M 72 320.4 
L 72 43.2 
" style="fill: none; stroke: #000000; stroke-width: 0.8; stroke-linejoin: miter; stroke-linecap: square"/>
   </g>
   <g id="patch_7">
    <path d="M 518.4 320.4 
L 518.4 43.2 
" style="fill: none; stroke: #000000; stroke-width: 0.8; stroke-linejoin: miter; stroke-linecap: square"/>
   </g>
   <g id="patch_8">
    <path d="M 72 320.4 
L 518.4 320.4 
" style="fill: none; stroke: #000000; stroke-width: 0.8; stroke-linejoin: miter; stroke-linecap: square"/>
   </g>
   <g id="patch_9">
    <path d="M 72 43.2 
L 518.4 43.2 
" style="fill: none; stroke: #000000; stroke-width: 0.8; stroke-linejoin: miter; stroke-linecap: square"/>
   </g>
   <g id="legend_1">
    <g id="patch_10">
     <path d="M 347.090605 313.15 
L 508.25 313.15 
Q 511.15 313.15 511.15 310.25 
L 511.15 224.916687 
Q 511.15 222.016687 508.25 222.016687 
L 347.090605 222.016687 
Q 344.190605 222.016687 344.190605 224.916687 
L 344.190605 310.25 
Q 344.190605 313.15 347.090605 313.15 
z
" style="fill: #ffffff; opacity: 0.7; stroke: #cccccc; stroke-linejoin: miter"/>
    </g>
    <g id="line2d_30">
     <path d="M 349.990605 233.576059 
L 364.490605 233.576059 
L 378.990605 233.576059 
" style="fill: none; stroke: #482475; stroke-width: 2.5; stroke-linecap: square"/>
    </g>
    <g id="text_24">
     <!-- QoS [static] -->
     <g transform="translate(390.590605 238.651059) scale(0.145 -0.145)">
      <defs>
       <path id="CMSS17-5b" d="M 1613 -1600 
L 1613 -1212 
L 1062 -1212 
L 1062 4352 
L 1613 4352 
L 1613 4741 
L 595 4741 
L 595 -1600 
L 1613 -1600 
z
" transform="scale(0.015625)"/>
       <path id="CMSS17-63" d="M 2464 2541 
C 2464 2585 2170 2714 2093 2739 
C 1882 2816 1613 2816 1542 2816 
C 710 2816 211 2093 211 1363 
C 211 595 768 -64 1517 -64 
C 1946 -64 2253 76 2502 242 
L 2464 664 
C 2189 453 1869 337 1523 337 
C 1024 337 698 774 698 1369 
C 698 1831 909 2414 1549 2414 
C 1901 2414 2099 2343 2394 2145 
L 2464 2541 
z
" transform="scale(0.015625)"/>
       <path id="CMSS17-5d" d="M 1146 4741 
L 128 4741 
L 128 4352 
L 678 4352 
L 678 -1212 
L 128 -1212 
L 128 -1600 
L 1146 -1600 
L 1146 4741 
z
" transform="scale(0.015625)"/>
      </defs>
      <use xlink:href="#CMSS17-51" transform="scale(0.996264)"/>
      <use xlink:href="#CMSS17-6f" transform="translate(69.024255 0) scale(0.996264)"/>
      <use xlink:href="#CMSS17-53" transform="translate(115.867879 0) scale(0.996264)"/>
      <use xlink:href="#CMSS17-5b" transform="translate(199.145508 0) scale(0.996264)"/>
      <use xlink:href="#CMSS17-73" transform="translate(226.330946 0) scale(0.996264)"/>
      <use xlink:href="#CMSS17-74" transform="translate(262.244488 0) scale(0.996264)"/>
      <use xlink:href="#CMSS17-61" transform="translate(296.076055 0) scale(0.996264)"/>
      <use xlink:href="#CMSS17-74" transform="translate(340.997976 0) scale(0.996264)"/>
      <use xlink:href="#CMSS17-69" transform="translate(374.829542 0) scale(0.996264)"/>
      <use xlink:href="#CMSS17-63" transform="translate(397.010265 0) scale(0.996264)"/>
      <use xlink:href="#CMSS17-5d" transform="translate(438.649088 0) scale(0.996264)"/>
     </g>
    </g>
    <g id="line2d_31">
     <path d="M 349.990605 255.271887 
L 364.490605 255.271887 
L 378.990605 255.271887 
" style="fill: none; stroke: #bddf26; stroke-width: 2.5; stroke-linecap: square"/>
    </g>
    <g id="text_25">
     <!-- QoS [dynamic] -->
     <g transform="translate(390.590605 260.346887) scale(0.145 -0.145)">
      <defs>
       <path id="CMSS17-79" d="M 2675 2752 
L 2176 2752 
C 1632 1294 1446 702 1434 383 
L 1427 383 
C 1408 696 1126 1460 902 2007 
L 602 2752 
L 83 2752 
L 1216 13 
C 1146 -178 1043 -465 1011 -529 
C 870 -885 774 -885 672 -885 
C 646 -885 442 -885 211 -809 
L 250 -1229 
C 410 -1261 570 -1280 685 -1280 
C 845 -1280 1165 -1280 1459 -497 
L 2675 2752 
z
" transform="scale(0.015625)"/>
      </defs>
      <use xlink:href="#CMSS17-51" transform="scale(0.996264)"/>
      <use xlink:href="#CMSS17-6f" transform="translate(69.024255 0) scale(0.996264)"/>
      <use xlink:href="#CMSS17-53" transform="translate(115.867879 0) scale(0.996264)"/>
      <use xlink:href="#CMSS17-5b" transform="translate(199.145508 0) scale(0.996264)"/>
      <use xlink:href="#CMSS17-64" transform="translate(226.330946 0) scale(0.996264)"/>
      <use xlink:href="#CMSS17-79" transform="translate(274.53589 0) scale(0.996264)"/>
      <use xlink:href="#CMSS17-6e" transform="translate(317.536031 0) scale(0.996264)"/>
      <use xlink:href="#CMSS17-61" transform="translate(365.740974 0) scale(0.996264)"/>
      <use xlink:href="#CMSS17-6d" transform="translate(410.662895 0) scale(0.996264)"/>
      <use xlink:href="#CMSS17-69" transform="translate(484.892149 0) scale(0.996264)"/>
      <use xlink:href="#CMSS17-63" transform="translate(507.072872 0) scale(0.996264)"/>
      <use xlink:href="#CMSS17-5d" transform="translate(548.711695 0) scale(0.996264)"/>
     </g>
    </g>
    <g id="line2d_32">
     <path d="M 349.990605 276.967715 
L 364.490605 276.967715 
L 378.990605 276.967715 
" style="fill: none; stroke-dasharray: 5.55,2.4; stroke-dashoffset: 0; stroke: #140e36; stroke-width: 1.5"/>
    </g>
    <g id="text_26">
     <!-- Load driver (right) -->
     <g transform="translate(390.590605 282.042715) scale(0.145 -0.145)">
      <defs>
       <path id="CMSS17-4c" d="M 1670 414 
C 1594 414 1517 414 1440 414 
L 1101 414 
L 1101 4416 
L 563 4416 
L 563 0 
L 3002 0 
L 3002 414 
L 1670 414 
z
" transform="scale(0.015625)"/>
       <path id="CMSS17-72" d="M 954 1363 
C 954 1965 1395 2368 1958 2368 
L 1958 2789 
C 1549 2789 1165 2585 934 2253 
L 934 2758 
L 480 2758 
L 480 0 
L 954 0 
L 954 1363 
z
" transform="scale(0.015625)"/>
       <path id="CMSS17-76" d="M 2675 2752 
L 2176 2752 
L 1747 1556 
C 1613 1165 1421 627 1389 352 
L 1382 352 
C 1370 468 1318 634 1286 749 
C 1248 890 1197 1056 1158 1172 
L 595 2752 
L 83 2752 
L 1094 0 
L 1664 0 
L 2675 2752 
z
" transform="scale(0.015625)"/>
       <path id="CMSS17-67" d="M 2848 2808 
C 2483 2808 2170 2738 1914 2617 
C 1702 2777 1485 2808 1338 2808 
C 781 2808 358 2349 358 1814 
C 358 1468 550 1207 563 1195 
C 448 1035 384 863 384 672 
C 384 448 474 289 544 200 
C 211 -3 166 -314 166 -435 
C 166 -898 749 -1280 1498 -1280 
C 2253 -1280 2835 -898 2835 -428 
C 2835 448 1856 448 1587 448 
L 1069 448 
C 973 448 717 448 717 791 
C 717 921 774 1004 781 1010 
C 877 940 1075 832 1338 832 
C 1869 832 2310 1278 2310 1827 
C 2310 2132 2170 2355 2112 2432 
L 2131 2432 
C 2150 2432 2419 2432 2515 2432 
C 2720 2432 2739 2429 2918 2419 
L 2848 2808 
z
M 1338 1182 
C 1120 1182 813 1315 813 1823 
C 813 2375 1165 2464 1331 2464 
C 1549 2464 1856 2331 1856 1823 
C 1856 1271 1504 1182 1338 1182 
z
M 1581 -10 
C 1734 -10 2381 -10 2381 -442 
C 2381 -714 1984 -929 1504 -929 
C 1018 -929 621 -720 621 -435 
C 621 -403 621 -10 1062 -10 
L 1581 -10 
z
" transform="scale(0.015625)"/>
       <path id="CMSS17-68" d="M 2618 1891 
C 2618 2292 2522 2820 1798 2820 
C 1395 2820 1133 2623 947 2407 
L 947 4448 
L 474 4448 
L 474 32 
L 960 32 
L 960 1573 
C 960 1973 1114 2432 1549 2432 
C 2112 2432 2131 2056 2131 1839 
L 2131 32 
L 2618 32 
L 2618 1891 
z
" transform="scale(0.015625)"/>
      </defs>
      <use xlink:href="#CMSS17-4c" transform="scale(0.996264)"/>
      <use xlink:href="#CMSS17-6f" transform="translate(50.687105 0) scale(0.996264)"/>
      <use xlink:href="#CMSS17-61" transform="translate(97.530729 0) scale(0.996264)"/>
      <use xlink:href="#CMSS17-64" transform="translate(142.452649 0) scale(0.996264)"/>
      <use xlink:href="#CMSS17-64" transform="translate(221.886705 0) scale(0.996264)"/>
      <use xlink:href="#CMSS17-72" transform="translate(270.091649 0) scale(0.996264)"/>
      <use xlink:href="#CMSS17-69" transform="translate(302.001421 0) scale(0.996264)"/>
      <use xlink:href="#CMSS17-76" transform="translate(324.182144 0) scale(0.996264)"/>
      <use xlink:href="#CMSS17-65" transform="translate(367.182286 0) scale(0.996264)"/>
      <use xlink:href="#CMSS17-72" transform="translate(408.821108 0) scale(0.996264)"/>
      <use xlink:href="#CMSS17-28" transform="translate(471.959993 0) scale(0.996264)"/>
      <use xlink:href="#CMSS17-72" transform="translate(508.393907 0) scale(0.996264)"/>
      <use xlink:href="#CMSS17-69" transform="translate(540.30368 0) scale(0.996264)"/>
      <use xlink:href="#CMSS17-67" transform="translate(562.484403 0) scale(0.996264)"/>
      <use xlink:href="#CMSS17-68" transform="translate(609.328026 0) scale(0.996264)"/>
      <use xlink:href="#CMSS17-74" transform="translate(657.53297 0) scale(0.996264)"/>
      <use xlink:href="#CMSS17-29" transform="translate(691.364536 0) scale(0.996264)"/>
     </g>
    </g>
    <g id="line2d_33">
     <path d="M 349.990605 298.663543 
L 364.490605 298.663543 
L 378.990605 298.663543 
" style="fill: none; stroke-dasharray: 5.55,2.4; stroke-dashoffset: 0; stroke: #fecf92; stroke-width: 1.5"/>
    </g>
    <g id="text_27">
     <!-- System load (right) -->
     <g transform="translate(390.590605 303.738543) scale(0.145 -0.145)">
      <use xlink:href="#CMSS17-53" transform="scale(0.996264)"/>
      <use xlink:href="#CMSS17-79" transform="translate(52.048516 0) scale(0.996264)"/>
      <use xlink:href="#CMSS17-73" transform="translate(95.048658 0) scale(0.996264)"/>
      <use xlink:href="#CMSS17-74" transform="translate(130.9622 0) scale(0.996264)"/>
      <use xlink:href="#CMSS17-65" transform="translate(164.793767 0) scale(0.996264)"/>
      <use xlink:href="#CMSS17-6d" transform="translate(206.432589 0) scale(0.996264)"/>
      <use xlink:href="#CMSS17-6c" transform="translate(311.890956 0) scale(0.996264)"/>
      <use xlink:href="#CMSS17-6f" transform="translate(334.071679 0) scale(0.996264)"/>
      <use xlink:href="#CMSS17-61" transform="translate(380.915302 0) scale(0.996264)"/>
      <use xlink:href="#CMSS17-64" transform="translate(425.837223 0) scale(0.996264)"/>
      <use xlink:href="#CMSS17-28" transform="translate(505.271279 0) scale(0.996264)"/>
      <use xlink:href="#CMSS17-72" transform="translate(541.705193 0) scale(0.996264)"/>
      <use xlink:href="#CMSS17-69" transform="translate(573.614966 0) scale(0.996264)"/>
      <use xlink:href="#CMSS17-67" transform="translate(595.795689 0) scale(0.996264)"/>
      <use xlink:href="#CMSS17-68" transform="translate(642.639312 0) scale(0.996264)"/>
      <use xlink:href="#CMSS17-74" transform="translate(690.844255 0) scale(0.996264)"/>
      <use xlink:href="#CMSS17-29" transform="translate(724.675822 0) scale(0.996264)"/>
     </g>
    </g>
   </g>
  </g>
 </g>
 <defs>
  <clipPath id="p15418d7d91">
   <rect x="72" y="43.2" width="446.4" height="277.2"/>
  </clipPath>
 </defs>
</svg>
