<?xml version="1.0" encoding="utf-8" standalone="no"?>
<!DOCTYPE svg PUBLIC "-//W3C//DTD SVG 1.1//EN"
  "http://www.w3.org/Graphics/SVG/1.1/DTD/svg11.dtd">
<svg xmlns:xlink="http://www.w3.org/1999/xlink" width="720pt" height="360pt" viewBox="0 0 720 360" xmlns="http://www.w3.org/2000/svg" version="1.1">
 <metadata>
  <rdf:RDF xmlns:dc="http://purl.org/dc/elements/1.1/" xmlns:cc="http://creativecommons.org/ns#" xmlns:rdf="http://www.w3.org/1999/02/22-rdf-syntax-ns#">
   <cc:Work>
    <dc:type rdf:resource="http://purl.org/dc/dcmitype/StillImage"/>
    <dc:date>2024-06-13T14:26:56.775353</dc:date>
    <dc:format>image/svg+xml</dc:format>
    <dc:creator>
     <cc:Agent>
      <dc:title>Matplotlib v3.9.0, https://matplotlib.org/</dc:title>
     </cc:Agent>
    </dc:creator>
   </cc:Work>
  </rdf:RDF>
 </metadata>
 <defs>
  <style type="text/css">*{stroke-linejoin: round; stroke-linecap: butt}</style>
 </defs>
 <g id="figure_1">
  <g id="patch_1">
   <path d="M 0 360 
L 720 360 
L 720 0 
L 0 0 
z
" style="fill: #ffffff"/>
  </g>
  <g id="axes_1">
   <g id="patch_2">
    <path d="M 90 320.4 
L 648 320.4 
L 648 43.2 
L 90 43.2 
z
" style="fill: #ffffff"/>
   </g>
   <g id="PolyCollection_1">
    <defs>
     <path id="mb081c28e96" d="M 115.363636 -83.428519 
L 115.363636 -104.706329 
L 116.776652 -104.706329 
L 118.189668 -104.706329 
L 119.602684 -104.706329 
L 121.0157 -104.706329 
L 122.428716 -104.706329 
L 123.841732 -104.706329 
L 125.254748 -104.706329 
L 126.667764 -104.706329 
L 128.08078 -104.706329 
L 129.493796 -104.706329 
L 130.906812 -104.706329 
L 132.319828 -104.706329 
L 133.732844 -104.706329 
L 135.14586 -104.706329 
L 136.558876 -104.706329 
L 137.971892 -104.706329 
L 139.384908 -104.706329 
L 140.797924 -104.706329 
L 142.210939 -104.706329 
L 143.623955 -104.690426 
L 145.036971 -104.690426 
L 146.449987 -104.690426 
L 147.863003 -104.690426 
L 149.276019 -104.690426 
L 150.689035 -104.706329 
L 152.102051 -104.706329 
L 153.515067 -104.706329 
L 154.928083 -104.706329 
L 156.341099 -104.706329 
L 157.754115 -104.706329 
L 159.167131 -104.706329 
L 160.580147 -104.706329 
L 161.993163 -104.706329 
L 163.406179 -104.706329 
L 164.819195 -104.706329 
L 166.232211 -104.706329 
L 167.645227 -104.706329 
L 169.058243 -104.706329 
L 170.471259 -104.706329 
L 171.884274 -104.706329 
L 173.29729 -104.706329 
L 174.710306 -104.706329 
L 176.123322 -104.706329 
L 177.536338 -104.706329 
L 178.949354 -104.706329 
L 180.36237 -104.706329 
L 181.775386 -202.851329 
L 183.188402 -202.851329 
L 184.601418 -202.851329 
L 186.014434 -202.851329 
L 187.42745 -202.851329 
L 188.840466 -220.269551 
L 190.253482 -220.269551 
L 191.666498 -220.269551 
L 193.079514 -220.269551 
L 194.49253 -220.269551 
L 195.905546 -220.269551 
L 197.318562 -220.269551 
L 198.731578 -220.269551 
L 200.144594 -220.269551 
L 201.55761 -220.269551 
L 202.970625 -220.269551 
L 204.383641 -220.269551 
L 205.796657 -220.269551 
L 207.209673 -220.269551 
L 208.622689 -220.269551 
L 210.035705 -220.269551 
L 211.448721 -220.269551 
L 212.861737 -220.269551 
L 214.274753 -220.269551 
L 215.687769 -220.269551 
L 217.100785 -220.269551 
L 218.513801 -220.269551 
L 219.926817 -220.269551 
L 221.339833 -220.269551 
L 222.752849 -220.269551 
L 224.165865 -220.269551 
L 225.578881 -220.269551 
L 226.991897 -220.269551 
L 228.404913 -220.269551 
L 229.817929 -220.269551 
L 231.230945 -220.269551 
L 232.64396 -220.269551 
L 234.056976 -220.269551 
L 235.469992 -220.269551 
L 236.883008 -220.269551 
L 238.296024 -220.269551 
L 239.70904 -220.269551 
L 241.122056 -220.269551 
L 242.535072 -220.543375 
L 243.948088 -220.543375 
L 245.361104 -220.543375 
L 246.77412 -220.543375 
L 248.187136 -220.543375 
L 249.600152 -220.543375 
L 251.013168 -220.269551 
L 252.426184 -220.269551 
L 253.8392 -220.269551 
L 255.252216 -220.269551 
L 256.665232 -220.269551 
L 258.078248 -220.269551 
L 259.491264 -220.269551 
L 260.90428 -220.269551 
L 262.317296 -220.269551 
L 263.730311 -220.269551 
L 265.143327 -220.269551 
L 266.556343 -220.269551 
L 267.969359 -220.269551 
L 269.382375 -220.269551 
L 270.795391 -220.269551 
L 272.208407 -220.269551 
L 273.621423 -220.269551 
L 275.034439 -220.269551 
L 276.447455 -220.269551 
L 277.860471 -220.269551 
L 279.273487 -220.269551 
L 280.686503 -220.269551 
L 282.099519 -220.269551 
L 283.512535 -220.269551 
L 284.925551 -220.269551 
L 286.338567 -220.269551 
L 287.751583 -220.269551 
L 289.164599 -214.701168 
L 290.577615 -214.701168 
L 291.990631 -214.701168 
L 293.403646 -214.701168 
L 294.816662 -214.701168 
L 296.229678 -166.844829 
L 297.642694 -166.844829 
L 299.05571 -166.844829 
L 300.468726 -166.844829 
L 301.881742 -166.844829 
L 303.294758 -166.844829 
L 304.707774 -165.949934 
L 306.12079 -165.949934 
L 307.533806 -165.949934 
L 308.946822 -165.949934 
L 310.359838 -165.949934 
L 311.772854 -165.949934 
L 313.18587 -165.949934 
L 314.598886 -165.949934 
L 316.011902 -165.949934 
L 317.424918 -165.949934 
L 318.837934 -165.949934 
L 320.25095 -165.585551 
L 321.663966 -165.585551 
L 323.076982 -165.585551 
L 324.489997 -165.585551 
L 325.903013 -165.585551 
L 327.316029 -165.949934 
L 328.729045 -165.949934 
L 330.142061 -165.949934 
L 331.555077 -165.949934 
L 332.968093 -165.949934 
L 334.381109 -165.949934 
L 335.794125 -165.949934 
L 337.207141 -165.949934 
L 338.620157 -165.949934 
L 340.033173 -165.949934 
L 341.446189 -165.949934 
L 342.859205 -165.949934 
L 344.272221 -165.949934 
L 345.685237 -165.949934 
L 347.098253 -165.949934 
L 348.511269 -165.949934 
L 349.924285 -165.949934 
L 351.337301 -165.949934 
L 352.750317 -165.949934 
L 354.163332 -165.949934 
L 355.576348 -165.949934 
L 356.989364 -165.949934 
L 358.40238 -165.949934 
L 359.815396 -165.949934 
L 361.228412 -165.949934 
L 362.641428 -165.949934 
L 364.054444 -165.949934 
L 365.46746 -165.949934 
L 366.880476 -165.949934 
L 368.293492 -165.949934 
L 369.706508 -165.949934 
L 371.119524 -165.949934 
L 372.53254 -165.949934 
L 373.945556 -165.949934 
L 375.358572 -165.949934 
L 376.771588 -165.949934 
L 378.184604 -165.949934 
L 379.59762 -165.949934 
L 381.010636 -165.923768 
L 382.423652 -165.923768 
L 383.836668 -165.923768 
L 385.249683 -165.923768 
L 386.662699 -165.923768 
L 388.075715 -165.923768 
L 389.488731 -165.923768 
L 390.901747 -165.923768 
L 392.314763 -165.923768 
L 393.727779 -165.923768 
L 395.140795 -165.923768 
L 396.553811 -165.923768 
L 397.966827 -165.923768 
L 399.379843 -165.923768 
L 400.792859 -165.923768 
L 402.205875 -165.923768 
L 403.618891 -235.502577 
L 405.031907 -235.502577 
L 406.444923 -235.502577 
L 407.857939 -235.502577 
L 409.270955 -235.502577 
L 410.683971 -235.502577 
L 412.096987 -257.841863 
L 413.510003 -257.841863 
L 414.923018 -257.841863 
L 416.336034 -257.841863 
L 417.74905 -257.841863 
L 419.162066 -257.841863 
L 420.575082 -257.841863 
L 421.988098 -257.841863 
L 423.401114 -257.841863 
L 424.81413 -257.841863 
L 426.227146 -257.841863 
L 427.640162 -257.841863 
L 429.053178 -257.841863 
L 430.466194 -257.841863 
L 431.87921 -257.841863 
L 433.292226 -257.841863 
L 434.705242 -257.841863 
L 436.118258 -257.841863 
L 437.531274 -257.841863 
L 438.94429 -257.841863 
L 440.357306 -257.841863 
L 441.770322 -257.841863 
L 443.183338 -257.841863 
L 444.596354 -257.841863 
L 446.009369 -257.841863 
L 447.422385 -257.841863 
L 448.835401 -257.841863 
L 450.248417 -257.841863 
L 451.661433 -257.841863 
L 453.074449 -257.841863 
L 454.487465 -257.841863 
L 455.900481 -257.841863 
L 457.313497 -257.841863 
L 458.726513 -257.841863 
L 460.139529 -257.841863 
L 461.552545 -257.841863 
L 462.965561 -257.841863 
L 464.378577 -257.841863 
L 465.791593 -257.841863 
L 467.204609 -257.841863 
L 468.617625 -257.841863 
L 470.030641 -257.841863 
L 471.443657 -257.841863 
L 472.856673 -257.841863 
L 474.269689 -257.841863 
L 475.682704 -257.841863 
L 477.09572 -257.841863 
L 478.508736 -257.841863 
L 479.921752 -257.841863 
L 481.334768 -257.841863 
L 482.747784 -257.841863 
L 484.1608 -257.841863 
L 485.573816 -257.841863 
L 486.986832 -257.841863 
L 488.399848 -257.841863 
L 489.812864 -257.841863 
L 491.22588 -257.841863 
L 492.638896 -257.841863 
L 494.051912 -257.841863 
L 495.464928 -257.841863 
L 496.877944 -257.841863 
L 498.29096 -257.841863 
L 499.703976 -257.841863 
L 501.116992 -257.841863 
L 502.530008 -257.841863 
L 503.943024 -257.841863 
L 505.35604 -257.841863 
L 506.769055 -257.841863 
L 508.182071 -257.841863 
L 509.595087 -257.841863 
L 511.008103 -257.841863 
L 512.421119 -252.638896 
L 513.834135 -252.638896 
L 515.247151 -252.638896 
L 516.660167 -252.638896 
L 518.073183 -252.638896 
L 519.486199 -243.475141 
L 520.899215 -243.475141 
L 522.312231 -243.475141 
L 523.725247 -243.475141 
L 525.138263 -243.475141 
L 526.551279 -243.475141 
L 527.964295 -243.4034 
L 529.377311 -243.4034 
L 530.790327 -243.4034 
L 532.203343 -243.4034 
L 533.616359 -243.4034 
L 535.029375 -243.4034 
L 536.44239 -243.4034 
L 537.855406 -243.4034 
L 539.268422 -243.4034 
L 540.681438 -243.4034 
L 542.094454 -243.4034 
L 543.50747 -243.4034 
L 544.920486 -243.4034 
L 546.333502 -243.4034 
L 547.746518 -243.4034 
L 549.159534 -243.4034 
L 550.57255 -243.4034 
L 551.985566 -243.4034 
L 553.398582 -243.4034 
L 554.811598 -243.4034 
L 556.224614 -243.4034 
L 557.63763 -243.4034 
L 559.050646 -243.4034 
L 560.463662 -243.4034 
L 561.876678 -243.4034 
L 563.289694 -243.4034 
L 564.70271 -243.4034 
L 566.115726 -243.4034 
L 567.528741 -243.4034 
L 568.941757 -243.4034 
L 570.354773 -243.4034 
L 571.767789 -243.4034 
L 573.180805 -243.4034 
L 574.593821 -243.4034 
L 576.006837 -243.4034 
L 577.419853 -243.4034 
L 578.832869 -243.4034 
L 580.245885 -243.4034 
L 581.658901 -243.4034 
L 583.071917 -243.4034 
L 584.484933 -243.4034 
L 585.897949 -243.4034 
L 587.310965 -243.4034 
L 588.723981 -243.4034 
L 590.136997 -243.4034 
L 591.550013 -243.4034 
L 592.963029 -243.4034 
L 594.376045 -243.4034 
L 595.789061 -243.4034 
L 597.202076 -243.4034 
L 598.615092 -243.4034 
L 600.028108 -243.4034 
L 601.441124 -243.4034 
L 602.85414 -243.4034 
L 604.267156 -243.4034 
L 605.680172 -243.4034 
L 607.093188 -243.4034 
L 608.506204 -243.4034 
L 609.91922 -243.4034 
L 611.332236 -243.4034 
L 612.745252 -243.4034 
L 614.158268 -243.4034 
L 615.571284 -243.4034 
L 616.9843 -243.4034 
L 618.397316 -243.4034 
L 619.810332 -243.4034 
L 621.223348 -243.4034 
L 622.636364 -243.4034 
L 622.636364 -188.722888 
L 622.636364 -188.722888 
L 621.223348 -188.722888 
L 619.810332 -188.722888 
L 618.397316 -188.722888 
L 616.9843 -188.722888 
L 615.571284 -188.722888 
L 614.158268 -188.722888 
L 612.745252 -188.722888 
L 611.332236 -188.722888 
L 609.91922 -188.722888 
L 608.506204 -188.722888 
L 607.093188 -188.722888 
L 605.680172 -188.722888 
L 604.267156 -188.722888 
L 602.85414 -188.722888 
L 601.441124 -188.722888 
L 600.028108 -188.722888 
L 598.615092 -188.722888 
L 597.202076 -188.722888 
L 595.789061 -188.722888 
L 594.376045 -188.722888 
L 592.963029 -188.722888 
L 591.550013 -188.722888 
L 590.136997 -188.722888 
L 588.723981 -188.722888 
L 587.310965 -188.722888 
L 585.897949 -188.722888 
L 584.484933 -188.722888 
L 583.071917 -188.722888 
L 581.658901 -188.722888 
L 580.245885 -188.722888 
L 578.832869 -188.722888 
L 577.419853 -188.722888 
L 576.006837 -188.722888 
L 574.593821 -188.722888 
L 573.180805 -188.722888 
L 571.767789 -188.722888 
L 570.354773 -188.722888 
L 568.941757 -188.722888 
L 567.528741 -188.722888 
L 566.115726 -188.722888 
L 564.70271 -188.722888 
L 563.289694 -188.722888 
L 561.876678 -188.722888 
L 560.463662 -188.722888 
L 559.050646 -188.722888 
L 557.63763 -188.722888 
L 556.224614 -188.722888 
L 554.811598 -188.722888 
L 553.398582 -188.722888 
L 551.985566 -188.722888 
L 550.57255 -188.722888 
L 549.159534 -188.722888 
L 547.746518 -188.722888 
L 546.333502 -188.722888 
L 544.920486 -188.722888 
L 543.50747 -188.722888 
L 542.094454 -188.722888 
L 540.681438 -188.722888 
L 539.268422 -188.722888 
L 537.855406 -188.722888 
L 536.44239 -188.722888 
L 535.029375 -188.722888 
L 533.616359 -188.722888 
L 532.203343 -188.722888 
L 530.790327 -188.722888 
L 529.377311 -188.722888 
L 527.964295 -188.722888 
L 526.551279 -189.206603 
L 525.138263 -189.206603 
L 523.725247 -189.206603 
L 522.312231 -189.206603 
L 520.899215 -189.206603 
L 519.486199 -189.206603 
L 518.073183 -197.828528 
L 516.660167 -197.828528 
L 515.247151 -197.828528 
L 513.834135 -197.828528 
L 512.421119 -197.828528 
L 511.008103 -207.076921 
L 509.595087 -207.076921 
L 508.182071 -207.076921 
L 506.769055 -207.076921 
L 505.35604 -207.076921 
L 503.943024 -207.076921 
L 502.530008 -207.076921 
L 501.116992 -207.076921 
L 499.703976 -207.076921 
L 498.29096 -207.076921 
L 496.877944 -207.076921 
L 495.464928 -207.076921 
L 494.051912 -207.076921 
L 492.638896 -207.076921 
L 491.22588 -207.076921 
L 489.812864 -207.076921 
L 488.399848 -207.076921 
L 486.986832 -207.076921 
L 485.573816 -207.076921 
L 484.1608 -207.076921 
L 482.747784 -207.076921 
L 481.334768 -207.076921 
L 479.921752 -207.076921 
L 478.508736 -207.076921 
L 477.09572 -207.076921 
L 475.682704 -207.076921 
L 474.269689 -207.076921 
L 472.856673 -207.076921 
L 471.443657 -207.076921 
L 470.030641 -207.076921 
L 468.617625 -207.076921 
L 467.204609 -207.076921 
L 465.791593 -207.076921 
L 464.378577 -207.076921 
L 462.965561 -207.076921 
L 461.552545 -207.076921 
L 460.139529 -207.076921 
L 458.726513 -207.076921 
L 457.313497 -207.076921 
L 455.900481 -207.076921 
L 454.487465 -207.076921 
L 453.074449 -207.076921 
L 451.661433 -207.076921 
L 450.248417 -207.076921 
L 448.835401 -207.076921 
L 447.422385 -207.076921 
L 446.009369 -207.076921 
L 444.596354 -207.076921 
L 443.183338 -207.076921 
L 441.770322 -207.076921 
L 440.357306 -207.076921 
L 438.94429 -207.076921 
L 437.531274 -207.076921 
L 436.118258 -207.076921 
L 434.705242 -207.076921 
L 433.292226 -207.076921 
L 431.87921 -207.076921 
L 430.466194 -207.076921 
L 429.053178 -207.076921 
L 427.640162 -207.076921 
L 426.227146 -207.076921 
L 424.81413 -207.076921 
L 423.401114 -207.076921 
L 421.988098 -207.076921 
L 420.575082 -207.076921 
L 419.162066 -207.076921 
L 417.74905 -207.076921 
L 416.336034 -207.076921 
L 414.923018 -207.076921 
L 413.510003 -207.076921 
L 412.096987 -207.076921 
L 410.683971 -204.404319 
L 409.270955 -204.404319 
L 407.857939 -204.404319 
L 406.444923 -204.404319 
L 405.031907 -204.404319 
L 403.618891 -204.404319 
L 402.205875 -131.701384 
L 400.792859 -131.701384 
L 399.379843 -131.701384 
L 397.966827 -131.701384 
L 396.553811 -131.701384 
L 395.140795 -131.701384 
L 393.727779 -131.701384 
L 392.314763 -131.701384 
L 390.901747 -131.701384 
L 389.488731 -131.701384 
L 388.075715 -131.701384 
L 386.662699 -131.701384 
L 385.249683 -131.701384 
L 383.836668 -131.701384 
L 382.423652 -131.701384 
L 381.010636 -131.701384 
L 379.59762 -132.786658 
L 378.184604 -132.786658 
L 376.771588 -132.786658 
L 375.358572 -132.786658 
L 373.945556 -132.786658 
L 372.53254 -132.786658 
L 371.119524 -132.786658 
L 369.706508 -132.786658 
L 368.293492 -132.786658 
L 366.880476 -132.786658 
L 365.46746 -132.786658 
L 364.054444 -132.786658 
L 362.641428 -132.786658 
L 361.228412 -132.786658 
L 359.815396 -132.786658 
L 358.40238 -132.786658 
L 356.989364 -132.786658 
L 355.576348 -132.786658 
L 354.163332 -132.786658 
L 352.750317 -132.786658 
L 351.337301 -132.786658 
L 349.924285 -132.786658 
L 348.511269 -132.786658 
L 347.098253 -132.786658 
L 345.685237 -132.786658 
L 344.272221 -132.786658 
L 342.859205 -132.786658 
L 341.446189 -132.786658 
L 340.033173 -132.786658 
L 338.620157 -132.786658 
L 337.207141 -132.786658 
L 335.794125 -132.786658 
L 334.381109 -132.786658 
L 332.968093 -132.786658 
L 331.555077 -132.786658 
L 330.142061 -132.786658 
L 328.729045 -132.786658 
L 327.316029 -132.786658 
L 325.903013 -132.595057 
L 324.489997 -132.595057 
L 323.076982 -132.595057 
L 321.663966 -132.595057 
L 320.25095 -132.595057 
L 318.837934 -132.786658 
L 317.424918 -132.786658 
L 316.011902 -132.786658 
L 314.598886 -132.786658 
L 313.18587 -132.786658 
L 311.772854 -132.786658 
L 310.359838 -132.786658 
L 308.946822 -132.786658 
L 307.533806 -132.786658 
L 306.12079 -132.786658 
L 304.707774 -132.786658 
L 303.294758 -132.447747 
L 301.881742 -132.447747 
L 300.468726 -132.447747 
L 299.05571 -132.447747 
L 297.642694 -132.447747 
L 296.229678 -132.447747 
L 294.816662 -173.517168 
L 293.403646 -173.517168 
L 291.990631 -173.517168 
L 290.577615 -173.517168 
L 289.164599 -173.517168 
L 287.751583 -173.506513 
L 286.338567 -173.506513 
L 284.925551 -173.506513 
L 283.512535 -173.506513 
L 282.099519 -173.506513 
L 280.686503 -173.506513 
L 279.273487 -173.506513 
L 277.860471 -173.506513 
L 276.447455 -173.506513 
L 275.034439 -173.506513 
L 273.621423 -173.506513 
L 272.208407 -173.506513 
L 270.795391 -173.506513 
L 269.382375 -173.506513 
L 267.969359 -173.506513 
L 266.556343 -173.506513 
L 265.143327 -173.506513 
L 263.730311 -173.506513 
L 262.317296 -173.506513 
L 260.90428 -173.506513 
L 259.491264 -173.506513 
L 258.078248 -173.506513 
L 256.665232 -173.506513 
L 255.252216 -173.506513 
L 253.8392 -173.506513 
L 252.426184 -173.506513 
L 251.013168 -173.506513 
L 249.600152 -174.344129 
L 248.187136 -174.344129 
L 246.77412 -174.344129 
L 245.361104 -174.344129 
L 243.948088 -174.344129 
L 242.535072 -174.344129 
L 241.122056 -173.506513 
L 239.70904 -173.506513 
L 238.296024 -173.506513 
L 236.883008 -173.506513 
L 235.469992 -173.506513 
L 234.056976 -173.506513 
L 232.64396 -173.506513 
L 231.230945 -173.506513 
L 229.817929 -173.506513 
L 228.404913 -173.506513 
L 226.991897 -173.506513 
L 225.578881 -173.506513 
L 224.165865 -173.506513 
L 222.752849 -173.506513 
L 221.339833 -173.506513 
L 219.926817 -173.506513 
L 218.513801 -173.506513 
L 217.100785 -173.506513 
L 215.687769 -173.506513 
L 214.274753 -173.506513 
L 212.861737 -173.506513 
L 211.448721 -173.506513 
L 210.035705 -173.506513 
L 208.622689 -173.506513 
L 207.209673 -173.506513 
L 205.796657 -173.506513 
L 204.383641 -173.506513 
L 202.970625 -173.506513 
L 201.55761 -173.506513 
L 200.144594 -173.506513 
L 198.731578 -173.506513 
L 197.318562 -173.506513 
L 195.905546 -173.506513 
L 194.49253 -173.506513 
L 193.079514 -173.506513 
L 191.666498 -173.506513 
L 190.253482 -173.506513 
L 188.840466 -173.506513 
L 187.42745 -149.241775 
L 186.014434 -149.241775 
L 184.601418 -149.241775 
L 183.188402 -149.241775 
L 181.775386 -149.241775 
L 180.36237 -83.428519 
L 178.949354 -83.428519 
L 177.536338 -83.428519 
L 176.123322 -83.428519 
L 174.710306 -83.428519 
L 173.29729 -83.428519 
L 171.884274 -83.428519 
L 170.471259 -83.428519 
L 169.058243 -83.428519 
L 167.645227 -83.428519 
L 166.232211 -83.428519 
L 164.819195 -83.428519 
L 163.406179 -83.428519 
L 161.993163 -83.428519 
L 160.580147 -83.428519 
L 159.167131 -83.428519 
L 157.754115 -83.428519 
L 156.341099 -83.428519 
L 154.928083 -83.428519 
L 153.515067 -83.428519 
L 152.102051 -83.428519 
L 150.689035 -83.428519 
L 149.276019 -82.888438 
L 147.863003 -82.888438 
L 146.449987 -82.888438 
L 145.036971 -82.888438 
L 143.623955 -82.888438 
L 142.210939 -83.428519 
L 140.797924 -83.428519 
L 139.384908 -83.428519 
L 137.971892 -83.428519 
L 136.558876 -83.428519 
L 135.14586 -83.428519 
L 133.732844 -83.428519 
L 132.319828 -83.428519 
L 130.906812 -83.428519 
L 129.493796 -83.428519 
L 128.08078 -83.428519 
L 126.667764 -83.428519 
L 125.254748 -83.428519 
L 123.841732 -83.428519 
L 122.428716 -83.428519 
L 121.0157 -83.428519 
L 119.602684 -83.428519 
L 118.189668 -83.428519 
L 116.776652 -83.428519 
L 115.363636 -83.428519 
z
" style="stroke: #482475; stroke-opacity: 0.2"/>
    </defs>
    <g clip-path="url(#pa71d210fd3)">
     <use xlink:href="#mb081c28e96" x="0" y="360" style="fill: #482475; fill-opacity: 0.2; stroke: #482475; stroke-opacity: 0.2"/>
    </g>
   </g>
   <g id="PolyCollection_2">
    <defs>
     <path id="m23c731af97" d="M 115.363636 -80.395298 
L 115.363636 -111.07387 
L 116.776652 -111.07387 
L 118.189668 -111.07387 
L 119.602684 -114.457204 
L 121.0157 -114.457204 
L 122.428716 -114.457204 
L 123.841732 -114.457204 
L 125.254748 -114.457204 
L 126.667764 -114.457204 
L 128.08078 -117.719805 
L 129.493796 -117.719805 
L 130.906812 -117.719805 
L 132.319828 -117.719805 
L 133.732844 -117.719805 
L 135.14586 -119.796708 
L 136.558876 -119.796708 
L 137.971892 -119.796708 
L 139.384908 -119.796708 
L 140.797924 -119.796708 
L 142.210939 -119.796708 
L 143.623955 -119.796708 
L 145.036971 -119.796708 
L 146.449987 -119.796708 
L 147.863003 -119.796708 
L 149.276019 -119.796708 
L 150.689035 -119.796708 
L 152.102051 -119.796708 
L 153.515067 -119.796708 
L 154.928083 -119.796708 
L 156.341099 -119.796708 
L 157.754115 -117.692123 
L 159.167131 -117.692123 
L 160.580147 -117.692123 
L 161.993163 -117.692123 
L 163.406179 -117.692123 
L 164.819195 -117.692123 
L 166.232211 -117.692123 
L 167.645227 -117.692123 
L 169.058243 -117.692123 
L 170.471259 -117.692123 
L 171.884274 -117.692123 
L 173.29729 -117.692123 
L 174.710306 -117.692123 
L 176.123322 -117.692123 
L 177.536338 -117.692123 
L 178.949354 -117.692123 
L 180.36237 -117.692123 
L 181.775386 -185.533031 
L 183.188402 -185.533031 
L 184.601418 -185.533031 
L 186.014434 -185.533031 
L 187.42745 -185.533031 
L 188.840466 -231.941262 
L 190.253482 -231.941262 
L 191.666498 -231.941262 
L 193.079514 -231.941262 
L 194.49253 -231.941262 
L 195.905546 -231.941262 
L 197.318562 -233.664582 
L 198.731578 -233.664582 
L 200.144594 -233.664582 
L 201.55761 -233.664582 
L 202.970625 -233.664582 
L 204.383641 -233.664582 
L 205.796657 -233.664582 
L 207.209673 -233.664582 
L 208.622689 -233.664582 
L 210.035705 -233.664582 
L 211.448721 -233.664582 
L 212.861737 -233.664582 
L 214.274753 -233.664582 
L 215.687769 -233.664582 
L 217.100785 -233.664582 
L 218.513801 -233.664582 
L 219.926817 -233.664582 
L 221.339833 -233.664582 
L 222.752849 -233.664582 
L 224.165865 -233.664582 
L 225.578881 -233.664582 
L 226.991897 -233.664582 
L 228.404913 -233.664582 
L 229.817929 -233.664582 
L 231.230945 -233.664582 
L 232.64396 -233.664582 
L 234.056976 -233.664582 
L 235.469992 -233.664582 
L 236.883008 -233.664582 
L 238.296024 -233.664582 
L 239.70904 -233.664582 
L 241.122056 -233.664582 
L 242.535072 -233.664582 
L 243.948088 -233.664582 
L 245.361104 -233.664582 
L 246.77412 -233.664582 
L 248.187136 -233.664582 
L 249.600152 -233.664582 
L 251.013168 -233.664582 
L 252.426184 -233.664582 
L 253.8392 -233.664582 
L 255.252216 -233.664582 
L 256.665232 -233.664582 
L 258.078248 -233.664582 
L 259.491264 -233.664582 
L 260.90428 -233.664582 
L 262.317296 -233.664582 
L 263.730311 -233.664582 
L 265.143327 -233.664582 
L 266.556343 -233.664582 
L 267.969359 -233.664582 
L 269.382375 -233.664582 
L 270.795391 -233.664582 
L 272.208407 -233.664582 
L 273.621423 -233.664582 
L 275.034439 -233.664582 
L 276.447455 -233.664582 
L 277.860471 -233.664582 
L 279.273487 -233.664582 
L 280.686503 -233.664582 
L 282.099519 -233.664582 
L 283.512535 -233.664582 
L 284.925551 -233.664582 
L 286.338567 -233.664582 
L 287.751583 -233.664582 
L 289.164599 -218.258304 
L 290.577615 -218.258304 
L 291.990631 -218.258304 
L 293.403646 -218.258304 
L 294.816662 -218.258304 
L 296.229678 -129.800491 
L 297.642694 -129.800491 
L 299.05571 -129.800491 
L 300.468726 -129.800491 
L 301.881742 -129.800491 
L 303.294758 -129.800491 
L 304.707774 -130.618637 
L 306.12079 -130.618637 
L 307.533806 -130.618637 
L 308.946822 -130.618637 
L 310.359838 -130.618637 
L 311.772854 -136.00867 
L 313.18587 -136.00867 
L 314.598886 -136.00867 
L 316.011902 -136.00867 
L 317.424918 -136.00867 
L 318.837934 -136.00867 
L 320.25095 -180.222436 
L 321.663966 -180.222436 
L 323.076982 -180.222436 
L 324.489997 -180.222436 
L 325.903013 -180.222436 
L 327.316029 -183.10946 
L 328.729045 -183.10946 
L 330.142061 -183.10946 
L 331.555077 -183.10946 
L 332.968093 -183.10946 
L 334.381109 -183.10946 
L 335.794125 -183.416101 
L 337.207141 -183.416101 
L 338.620157 -183.416101 
L 340.033173 -183.416101 
L 341.446189 -183.416101 
L 342.859205 -183.416101 
L 344.272221 -183.416101 
L 345.685237 -183.416101 
L 347.098253 -183.416101 
L 348.511269 -183.416101 
L 349.924285 -183.416101 
L 351.337301 -183.416101 
L 352.750317 -183.416101 
L 354.163332 -183.416101 
L 355.576348 -183.416101 
L 356.989364 -183.416101 
L 358.40238 -183.416101 
L 359.815396 -183.416101 
L 361.228412 -183.416101 
L 362.641428 -183.416101 
L 364.054444 -183.416101 
L 365.46746 -183.416101 
L 366.880476 -183.416101 
L 368.293492 -183.416101 
L 369.706508 -183.416101 
L 371.119524 -183.416101 
L 372.53254 -183.416101 
L 373.945556 -183.416101 
L 375.358572 -183.416101 
L 376.771588 -183.416101 
L 378.184604 -183.416101 
L 379.59762 -183.416101 
L 381.010636 -183.416101 
L 382.423652 -183.416101 
L 383.836668 -183.416101 
L 385.249683 -183.416101 
L 386.662699 -183.416101 
L 388.075715 -183.416101 
L 389.488731 -183.44811 
L 390.901747 -183.44811 
L 392.314763 -183.44811 
L 393.727779 -183.44811 
L 395.140795 -183.44811 
L 396.553811 -183.408533 
L 397.966827 -183.408533 
L 399.379843 -183.408533 
L 400.792859 -183.408533 
L 402.205875 -183.408533 
L 403.618891 -224.662258 
L 405.031907 -224.662258 
L 406.444923 -224.662258 
L 407.857939 -224.662258 
L 409.270955 -224.662258 
L 410.683971 -224.662258 
L 412.096987 -272.989585 
L 413.510003 -272.989585 
L 414.923018 -272.989585 
L 416.336034 -272.989585 
L 417.74905 -272.989585 
L 419.162066 -279.531611 
L 420.575082 -279.531611 
L 421.988098 -279.531611 
L 423.401114 -279.531611 
L 424.81413 -279.531611 
L 426.227146 -279.531611 
L 427.640162 -279.857295 
L 429.053178 -279.857295 
L 430.466194 -279.857295 
L 431.87921 -279.857295 
L 433.292226 -279.857295 
L 434.705242 -279.857295 
L 436.118258 -279.857295 
L 437.531274 -279.857295 
L 438.94429 -279.857295 
L 440.357306 -279.857295 
L 441.770322 -279.857295 
L 443.183338 -279.857295 
L 444.596354 -279.857295 
L 446.009369 -279.857295 
L 447.422385 -279.857295 
L 448.835401 -279.857295 
L 450.248417 -279.737991 
L 451.661433 -279.737991 
L 453.074449 -279.737991 
L 454.487465 -279.737991 
L 455.900481 -279.737991 
L 457.313497 -279.737991 
L 458.726513 -279.857295 
L 460.139529 -279.857295 
L 461.552545 -279.857295 
L 462.965561 -279.857295 
L 464.378577 -279.857295 
L 465.791593 -279.857295 
L 467.204609 -279.857295 
L 468.617625 -279.857295 
L 470.030641 -279.857295 
L 471.443657 -279.857295 
L 472.856673 -279.573354 
L 474.269689 -279.573354 
L 475.682704 -279.573354 
L 477.09572 -279.573354 
L 478.508736 -279.573354 
L 479.921752 -279.573354 
L 481.334768 -279.857295 
L 482.747784 -279.857295 
L 484.1608 -279.857295 
L 485.573816 -279.857295 
L 486.986832 -279.857295 
L 488.399848 -279.857295 
L 489.812864 -279.857295 
L 491.22588 -279.857295 
L 492.638896 -279.857295 
L 494.051912 -279.857295 
L 495.464928 -279.857295 
L 496.877944 -279.857295 
L 498.29096 -279.857295 
L 499.703976 -279.857295 
L 501.116992 -279.857295 
L 502.530008 -279.857295 
L 503.943024 -279.857295 
L 505.35604 -279.857295 
L 506.769055 -279.857295 
L 508.182071 -279.857295 
L 509.595087 -279.857295 
L 511.008103 -279.857295 
L 512.421119 -232.06774 
L 513.834135 -232.06774 
L 515.247151 -232.06774 
L 516.660167 -232.06774 
L 518.073183 -232.06774 
L 519.486199 -168.862584 
L 520.899215 -168.862584 
L 522.312231 -168.862584 
L 523.725247 -168.862584 
L 525.138263 -168.862584 
L 526.551279 -168.862584 
L 527.964295 -225.964406 
L 529.377311 -225.964406 
L 530.790327 -225.964406 
L 532.203343 -225.964406 
L 533.616359 -225.964406 
L 535.029375 -252.891064 
L 536.44239 -252.891064 
L 537.855406 -252.891064 
L 539.268422 -252.891064 
L 540.681438 -252.891064 
L 542.094454 -254.823346 
L 543.50747 -254.823346 
L 544.920486 -254.823346 
L 546.333502 -254.823346 
L 547.746518 -254.823346 
L 549.159534 -254.823346 
L 550.57255 -254.823346 
L 551.985566 -254.823346 
L 553.398582 -254.823346 
L 554.811598 -254.823346 
L 556.224614 -254.823346 
L 557.63763 -254.823346 
L 559.050646 -254.823346 
L 560.463662 -254.823346 
L 561.876678 -254.823346 
L 563.289694 -254.823346 
L 564.70271 -254.823346 
L 566.115726 -254.823346 
L 567.528741 -254.823346 
L 568.941757 -254.823346 
L 570.354773 -254.823346 
L 571.767789 -254.823346 
L 573.180805 -254.823346 
L 574.593821 -254.823346 
L 576.006837 -254.823346 
L 577.419853 -254.823346 
L 578.832869 -254.823346 
L 580.245885 -254.823346 
L 581.658901 -254.823346 
L 583.071917 -254.823346 
L 584.484933 -254.823346 
L 585.897949 -254.823346 
L 587.310965 -254.823346 
L 588.723981 -254.823346 
L 590.136997 -254.823346 
L 591.550013 -254.823346 
L 592.963029 -254.823346 
L 594.376045 -254.823346 
L 595.789061 -254.823346 
L 597.202076 -254.823346 
L 598.615092 -254.823346 
L 600.028108 -254.823346 
L 601.441124 -254.823346 
L 602.85414 -254.823346 
L 604.267156 -254.823346 
L 605.680172 -254.823346 
L 607.093188 -254.823346 
L 608.506204 -254.823346 
L 609.91922 -254.823346 
L 611.332236 -254.823346 
L 612.745252 -254.823346 
L 614.158268 -254.823346 
L 615.571284 -254.823346 
L 616.9843 -254.823346 
L 618.397316 -254.823346 
L 619.810332 -254.823346 
L 621.223348 -254.823346 
L 622.636364 -254.823346 
L 622.636364 -215.651582 
L 622.636364 -215.651582 
L 621.223348 -215.651582 
L 619.810332 -215.651582 
L 618.397316 -215.651582 
L 616.9843 -215.651582 
L 615.571284 -215.651582 
L 614.158268 -215.651582 
L 612.745252 -215.651582 
L 611.332236 -215.651582 
L 609.91922 -215.651582 
L 608.506204 -215.651582 
L 607.093188 -215.651582 
L 605.680172 -215.651582 
L 604.267156 -215.651582 
L 602.85414 -215.651582 
L 601.441124 -215.651582 
L 600.028108 -215.651582 
L 598.615092 -215.651582 
L 597.202076 -215.651582 
L 595.789061 -215.651582 
L 594.376045 -215.651582 
L 592.963029 -215.651582 
L 591.550013 -215.651582 
L 590.136997 -215.651582 
L 588.723981 -215.651582 
L 587.310965 -215.651582 
L 585.897949 -215.651582 
L 584.484933 -215.651582 
L 583.071917 -215.651582 
L 581.658901 -215.651582 
L 580.245885 -215.651582 
L 578.832869 -215.651582 
L 577.419853 -215.651582 
L 576.006837 -215.651582 
L 574.593821 -215.651582 
L 573.180805 -215.651582 
L 571.767789 -215.651582 
L 570.354773 -215.651582 
L 568.941757 -215.651582 
L 567.528741 -215.651582 
L 566.115726 -215.651582 
L 564.70271 -215.651582 
L 563.289694 -215.651582 
L 561.876678 -215.651582 
L 560.463662 -215.651582 
L 559.050646 -215.651582 
L 557.63763 -215.651582 
L 556.224614 -215.651582 
L 554.811598 -215.651582 
L 553.398582 -215.651582 
L 551.985566 -215.651582 
L 550.57255 -215.651582 
L 549.159534 -215.651582 
L 547.746518 -215.651582 
L 546.333502 -215.651582 
L 544.920486 -215.651582 
L 543.50747 -215.651582 
L 542.094454 -215.651582 
L 540.681438 -214.249544 
L 539.268422 -214.249544 
L 537.855406 -214.249544 
L 536.44239 -214.249544 
L 535.029375 -214.249544 
L 533.616359 -178.37113 
L 532.203343 -178.37113 
L 530.790327 -178.37113 
L 529.377311 -178.37113 
L 527.964295 -178.37113 
L 526.551279 -138.766584 
L 525.138263 -138.766584 
L 523.725247 -138.766584 
L 522.312231 -138.766584 
L 520.899215 -138.766584 
L 519.486199 -138.766584 
L 518.073183 -188.387108 
L 516.660167 -188.387108 
L 515.247151 -188.387108 
L 513.834135 -188.387108 
L 512.421119 -188.387108 
L 511.008103 -246.197553 
L 509.595087 -246.197553 
L 508.182071 -246.197553 
L 506.769055 -246.197553 
L 505.35604 -246.197553 
L 503.943024 -246.197553 
L 502.530008 -246.197553 
L 501.116992 -246.197553 
L 499.703976 -246.197553 
L 498.29096 -246.197553 
L 496.877944 -246.197553 
L 495.464928 -246.197553 
L 494.051912 -246.197553 
L 492.638896 -246.197553 
L 491.22588 -246.197553 
L 489.812864 -246.197553 
L 488.399848 -246.197553 
L 486.986832 -246.197553 
L 485.573816 -246.197553 
L 484.1608 -246.197553 
L 482.747784 -246.197553 
L 481.334768 -246.197553 
L 479.921752 -245.926038 
L 478.508736 -245.926038 
L 477.09572 -245.926038 
L 475.682704 -245.926038 
L 474.269689 -245.926038 
L 472.856673 -245.926038 
L 471.443657 -246.197553 
L 470.030641 -246.197553 
L 468.617625 -246.197553 
L 467.204609 -246.197553 
L 465.791593 -246.197553 
L 464.378577 -246.197553 
L 462.965561 -246.197553 
L 461.552545 -246.197553 
L 460.139529 -246.197553 
L 458.726513 -246.197553 
L 457.313497 -245.760873 
L 455.900481 -245.760873 
L 454.487465 -245.760873 
L 453.074449 -245.760873 
L 451.661433 -245.760873 
L 450.248417 -245.760873 
L 448.835401 -246.197553 
L 447.422385 -246.197553 
L 446.009369 -246.197553 
L 444.596354 -246.197553 
L 443.183338 -246.197553 
L 441.770322 -246.197553 
L 440.357306 -246.197553 
L 438.94429 -246.197553 
L 437.531274 -246.197553 
L 436.118258 -246.197553 
L 434.705242 -246.197553 
L 433.292226 -246.197553 
L 431.87921 -246.197553 
L 430.466194 -246.197553 
L 429.053178 -246.197553 
L 427.640162 -246.197553 
L 426.227146 -245.967253 
L 424.81413 -245.967253 
L 423.401114 -245.967253 
L 421.988098 -245.967253 
L 420.575082 -245.967253 
L 419.162066 -245.967253 
L 417.74905 -241.393295 
L 416.336034 -241.393295 
L 414.923018 -241.393295 
L 413.510003 -241.393295 
L 412.096987 -241.393295 
L 410.683971 -174.672062 
L 409.270955 -174.672062 
L 407.857939 -174.672062 
L 406.444923 -174.672062 
L 405.031907 -174.672062 
L 403.618891 -174.672062 
L 402.205875 -137.004571 
L 400.792859 -137.004571 
L 399.379843 -137.004571 
L 397.966827 -137.004571 
L 396.553811 -137.004571 
L 395.140795 -138.076962 
L 393.727779 -138.076962 
L 392.314763 -138.076962 
L 390.901747 -138.076962 
L 389.488731 -138.076962 
L 388.075715 -137.552987 
L 386.662699 -137.552987 
L 385.249683 -137.552987 
L 383.836668 -137.552987 
L 382.423652 -137.552987 
L 381.010636 -137.552987 
L 379.59762 -137.552987 
L 378.184604 -137.552987 
L 376.771588 -137.552987 
L 375.358572 -137.552987 
L 373.945556 -137.552987 
L 372.53254 -137.552987 
L 371.119524 -137.552987 
L 369.706508 -137.552987 
L 368.293492 -137.552987 
L 366.880476 -137.552987 
L 365.46746 -137.552987 
L 364.054444 -137.552987 
L 362.641428 -137.552987 
L 361.228412 -137.552987 
L 359.815396 -137.552987 
L 358.40238 -137.552987 
L 356.989364 -137.552987 
L 355.576348 -137.552987 
L 354.163332 -137.552987 
L 352.750317 -137.552987 
L 351.337301 -137.552987 
L 349.924285 -137.552987 
L 348.511269 -137.552987 
L 347.098253 -137.552987 
L 345.685237 -137.552987 
L 344.272221 -137.552987 
L 342.859205 -137.552987 
L 341.446189 -137.552987 
L 340.033173 -137.552987 
L 338.620157 -137.552987 
L 337.207141 -137.552987 
L 335.794125 -137.552987 
L 334.381109 -136.191676 
L 332.968093 -136.191676 
L 331.555077 -136.191676 
L 330.142061 -136.191676 
L 328.729045 -136.191676 
L 327.316029 -136.191676 
L 325.903013 -127.963772 
L 324.489997 -127.963772 
L 323.076982 -127.963772 
L 321.663966 -127.963772 
L 320.25095 -127.963772 
L 318.837934 -109.927394 
L 317.424918 -109.927394 
L 316.011902 -109.927394 
L 314.598886 -109.927394 
L 313.18587 -109.927394 
L 311.772854 -109.927394 
L 310.359838 -111.428179 
L 308.946822 -111.428179 
L 307.533806 -111.428179 
L 306.12079 -111.428179 
L 304.707774 -111.428179 
L 303.294758 -118.915493 
L 301.881742 -118.915493 
L 300.468726 -118.915493 
L 299.05571 -118.915493 
L 297.642694 -118.915493 
L 296.229678 -118.915493 
L 294.816662 -185.522304 
L 293.403646 -185.522304 
L 291.990631 -185.522304 
L 290.577615 -185.522304 
L 289.164599 -185.522304 
L 287.751583 -190.124586 
L 286.338567 -190.124586 
L 284.925551 -190.124586 
L 283.512535 -190.124586 
L 282.099519 -190.124586 
L 280.686503 -190.124586 
L 279.273487 -190.124586 
L 277.860471 -190.124586 
L 276.447455 -190.124586 
L 275.034439 -190.124586 
L 273.621423 -190.124586 
L 272.208407 -190.124586 
L 270.795391 -190.124586 
L 269.382375 -190.124586 
L 267.969359 -190.124586 
L 266.556343 -190.124586 
L 265.143327 -190.124586 
L 263.730311 -190.124586 
L 262.317296 -190.124586 
L 260.90428 -190.124586 
L 259.491264 -190.124586 
L 258.078248 -190.124586 
L 256.665232 -190.124586 
L 255.252216 -190.124586 
L 253.8392 -190.124586 
L 252.426184 -190.124586 
L 251.013168 -190.124586 
L 249.600152 -190.124586 
L 248.187136 -190.124586 
L 246.77412 -190.124586 
L 245.361104 -190.124586 
L 243.948088 -190.124586 
L 242.535072 -190.124586 
L 241.122056 -190.124586 
L 239.70904 -190.124586 
L 238.296024 -190.124586 
L 236.883008 -190.124586 
L 235.469992 -190.124586 
L 234.056976 -190.124586 
L 232.64396 -190.124586 
L 231.230945 -190.124586 
L 229.817929 -190.124586 
L 228.404913 -190.124586 
L 226.991897 -190.124586 
L 225.578881 -190.124586 
L 224.165865 -190.124586 
L 222.752849 -190.124586 
L 221.339833 -190.124586 
L 219.926817 -190.124586 
L 218.513801 -190.124586 
L 217.100785 -190.124586 
L 215.687769 -190.124586 
L 214.274753 -190.124586 
L 212.861737 -190.124586 
L 211.448721 -190.124586 
L 210.035705 -190.124586 
L 208.622689 -190.124586 
L 207.209673 -190.124586 
L 205.796657 -190.124586 
L 204.383641 -190.124586 
L 202.970625 -190.124586 
L 201.55761 -190.124586 
L 200.144594 -190.124586 
L 198.731578 -190.124586 
L 197.318562 -190.124586 
L 195.905546 -187.40109 
L 194.49253 -187.40109 
L 193.079514 -187.40109 
L 191.666498 -187.40109 
L 190.253482 -187.40109 
L 188.840466 -187.40109 
L 187.42745 -135.990985 
L 186.014434 -135.990985 
L 184.601418 -135.990985 
L 183.188402 -135.990985 
L 181.775386 -135.990985 
L 180.36237 -96.565525 
L 178.949354 -96.565525 
L 177.536338 -96.565525 
L 176.123322 -96.565525 
L 174.710306 -96.565525 
L 173.29729 -96.565525 
L 171.884274 -96.565525 
L 170.471259 -96.565525 
L 169.058243 -96.565525 
L 167.645227 -96.565525 
L 166.232211 -96.565525 
L 164.819195 -96.565525 
L 163.406179 -96.565525 
L 161.993163 -96.565525 
L 160.580147 -96.565525 
L 159.167131 -96.565525 
L 157.754115 -96.565525 
L 156.341099 -90.570108 
L 154.928083 -90.570108 
L 153.515067 -90.570108 
L 152.102051 -90.570108 
L 150.689035 -90.570108 
L 149.276019 -90.570108 
L 147.863003 -90.570108 
L 146.449987 -90.570108 
L 145.036971 -90.570108 
L 143.623955 -90.570108 
L 142.210939 -90.570108 
L 140.797924 -90.570108 
L 139.384908 -90.570108 
L 137.971892 -90.570108 
L 136.558876 -90.570108 
L 135.14586 -90.570108 
L 133.732844 -88.756707 
L 132.319828 -88.756707 
L 130.906812 -88.756707 
L 129.493796 -88.756707 
L 128.08078 -88.756707 
L 126.667764 -83.126732 
L 125.254748 -83.126732 
L 123.841732 -83.126732 
L 122.428716 -83.126732 
L 121.0157 -83.126732 
L 119.602684 -83.126732 
L 118.189668 -80.395298 
L 116.776652 -80.395298 
L 115.363636 -80.395298 
z
" style="stroke: #bddf26; stroke-opacity: 0.2"/>
    </defs>
    <g clip-path="url(#pa71d210fd3)">
     <use xlink:href="#m23c731af97" x="0" y="360" style="fill: #bddf26; fill-opacity: 0.2; stroke: #bddf26; stroke-opacity: 0.2"/>
    </g>
   </g>
   <g id="matplotlib.axis_1">
    <g id="xtick_1">
     <g id="line2d_1">
      <defs>
       <path id="mdb66160de4" d="M 0 0 
L 0 3.5 
" style="stroke: #000000; stroke-width: 0.8"/>
      </defs>
      <g>
       <use xlink:href="#mdb66160de4" x="146.107438" y="320.4" style="stroke: #000000; stroke-width: 0.8"/>
      </g>
     </g>
     <g id="text_1">
      <!-- $\mathdefault{100}$ -->
      <g transform="translate(135.498905 337.431808) scale(0.145 -0.145)">
       <defs>
        <path id="CMR17-31" d="M 1702 4058 
C 1702 4192 1696 4192 1606 4192 
C 1357 3916 979 3827 621 3827 
C 602 3827 570 3827 563 3808 
C 557 3795 557 3782 557 3648 
C 755 3648 1088 3686 1344 3839 
L 1344 461 
C 1344 236 1331 160 781 160 
L 589 160 
L 589 0 
C 896 0 1216 0 1523 0 
C 1830 0 2150 0 2458 0 
L 2458 160 
L 2266 160 
C 1715 160 1702 230 1702 458 
L 1702 4058 
z
" transform="scale(0.015625)"/>
        <path id="CMR17-30" d="M 2688 2025 
C 2688 2416 2682 3080 2413 3591 
C 2176 4039 1798 4198 1466 4198 
C 1158 4198 768 4058 525 3597 
C 269 3118 243 2524 243 2025 
C 243 1661 250 1106 448 619 
C 723 -39 1216 -128 1466 -128 
C 1760 -128 2208 -7 2470 600 
C 2662 1042 2688 1559 2688 2025 
z
M 1466 -26 
C 1056 -26 813 325 723 812 
C 653 1188 653 1738 653 2096 
C 653 2588 653 2997 736 3387 
C 858 3929 1216 4096 1466 4096 
C 1728 4096 2067 3923 2189 3400 
C 2272 3036 2278 2607 2278 2096 
C 2278 1680 2278 1169 2202 792 
C 2067 95 1690 -26 1466 -26 
z
" transform="scale(0.015625)"/>
       </defs>
       <use xlink:href="#CMR17-31" transform="scale(0.996264)"/>
       <use xlink:href="#CMR17-30" transform="translate(45.690477 0) scale(0.996264)"/>
       <use xlink:href="#CMR17-30" transform="translate(91.380954 0) scale(0.996264)"/>
      </g>
     </g>
    </g>
    <g id="xtick_2">
     <g id="line2d_2">
      <g>
       <use xlink:href="#mdb66160de4" x="222.966942" y="320.4" style="stroke: #000000; stroke-width: 0.8"/>
      </g>
     </g>
     <g id="text_2">
      <!-- $\mathdefault{200}$ -->
      <g transform="translate(212.358409 337.431808) scale(0.145 -0.145)">
       <defs>
        <path id="CMR17-32" d="M 2669 989 
L 2554 989 
C 2490 536 2438 459 2413 420 
C 2381 369 1920 369 1830 369 
L 602 369 
C 832 619 1280 1072 1824 1597 
C 2214 1967 2669 2402 2669 3035 
C 2669 3790 2067 4224 1395 4224 
C 691 4224 262 3604 262 3030 
C 262 2780 448 2748 525 2748 
C 589 2748 781 2787 781 3010 
C 781 3207 614 3264 525 3264 
C 486 3264 448 3258 422 3245 
C 544 3790 915 4058 1306 4058 
C 1862 4058 2227 3617 2227 3035 
C 2227 2479 1901 2000 1536 1584 
L 262 146 
L 262 0 
L 2515 0 
L 2669 989 
z
" transform="scale(0.015625)"/>
       </defs>
       <use xlink:href="#CMR17-32" transform="scale(0.996264)"/>
       <use xlink:href="#CMR17-30" transform="translate(45.690477 0) scale(0.996264)"/>
       <use xlink:href="#CMR17-30" transform="translate(91.380954 0) scale(0.996264)"/>
      </g>
     </g>
    </g>
    <g id="xtick_3">
     <g id="line2d_3">
      <g>
       <use xlink:href="#mdb66160de4" x="299.826446" y="320.4" style="stroke: #000000; stroke-width: 0.8"/>
      </g>
     </g>
     <g id="text_3">
      <!-- $\mathdefault{300}$ -->
      <g transform="translate(289.217913 337.431808) scale(0.145 -0.145)">
       <defs>
        <path id="CMR17-33" d="M 1414 2157 
C 1984 2157 2234 1662 2234 1090 
C 2234 320 1824 25 1453 25 
C 1114 25 563 194 390 693 
C 422 680 454 680 486 680 
C 640 680 755 782 755 948 
C 755 1133 614 1216 486 1216 
C 378 1216 211 1165 211 926 
C 211 335 787 -128 1466 -128 
C 2176 -128 2720 430 2720 1085 
C 2720 1707 2208 2157 1600 2227 
C 2086 2328 2554 2756 2554 3329 
C 2554 3820 2048 4179 1472 4179 
C 890 4179 378 3829 378 3329 
C 378 3110 544 3072 627 3072 
C 762 3072 877 3155 877 3321 
C 877 3486 762 3569 627 3569 
C 602 3569 570 3569 544 3557 
C 730 3959 1235 4032 1459 4032 
C 1683 4032 2106 3925 2106 3320 
C 2106 3143 2080 2828 1862 2550 
C 1670 2304 1453 2304 1242 2284 
C 1210 2284 1062 2269 1037 2269 
C 992 2263 966 2257 966 2208 
C 966 2163 973 2157 1101 2157 
L 1414 2157 
z
" transform="scale(0.015625)"/>
       </defs>
       <use xlink:href="#CMR17-33" transform="scale(0.996264)"/>
       <use xlink:href="#CMR17-30" transform="translate(45.690477 0) scale(0.996264)"/>
       <use xlink:href="#CMR17-30" transform="translate(91.380954 0) scale(0.996264)"/>
      </g>
     </g>
    </g>
    <g id="xtick_4">
     <g id="line2d_4">
      <g>
       <use xlink:href="#mdb66160de4" x="376.68595" y="320.4" style="stroke: #000000; stroke-width: 0.8"/>
      </g>
     </g>
     <g id="text_4">
      <!-- $\mathdefault{400}$ -->
      <g transform="translate(366.077417 337.431808) scale(0.145 -0.145)">
       <defs>
        <path id="CMR17-34" d="M 2150 4122 
C 2150 4256 2144 4256 2029 4256 
L 128 1254 
L 128 1088 
L 1779 1088 
L 1779 457 
C 1779 224 1766 160 1318 160 
L 1197 160 
L 1197 0 
C 1402 0 1747 0 1965 0 
C 2182 0 2528 0 2733 0 
L 2733 160 
L 2611 160 
C 2163 160 2150 224 2150 457 
L 2150 1088 
L 2803 1088 
L 2803 1254 
L 2150 1254 
L 2150 4122 
z
M 1798 3703 
L 1798 1254 
L 256 1254 
L 1798 3703 
z
" transform="scale(0.015625)"/>
       </defs>
       <use xlink:href="#CMR17-34" transform="scale(0.996264)"/>
       <use xlink:href="#CMR17-30" transform="translate(45.690477 0) scale(0.996264)"/>
       <use xlink:href="#CMR17-30" transform="translate(91.380954 0) scale(0.996264)"/>
      </g>
     </g>
    </g>
    <g id="xtick_5">
     <g id="line2d_5">
      <g>
       <use xlink:href="#mdb66160de4" x="453.545455" y="320.4" style="stroke: #000000; stroke-width: 0.8"/>
      </g>
     </g>
     <g id="text_5">
      <!-- $\mathdefault{500}$ -->
      <g transform="translate(442.936921 337.431808) scale(0.145 -0.145)">
       <defs>
        <path id="CMR17-35" d="M 730 3692 
C 794 3666 1056 3584 1325 3584 
C 1920 3584 2246 3911 2432 4100 
C 2432 4157 2432 4192 2394 4192 
C 2387 4192 2374 4192 2323 4163 
C 2099 4058 1837 3973 1517 3973 
C 1325 3973 1037 3999 723 4139 
C 653 4171 640 4171 634 4171 
C 602 4171 595 4164 595 4037 
L 595 2203 
C 595 2089 595 2057 659 2057 
C 691 2057 704 2070 736 2114 
C 941 2401 1222 2522 1542 2522 
C 1766 2522 2246 2382 2246 1289 
C 2246 1085 2246 715 2054 421 
C 1894 159 1645 25 1370 25 
C 947 25 518 320 403 814 
C 429 807 480 795 506 795 
C 589 795 749 840 749 1038 
C 749 1210 627 1280 506 1280 
C 358 1280 262 1190 262 1011 
C 262 454 704 -128 1382 -128 
C 2042 -128 2669 440 2669 1264 
C 2669 2030 2170 2624 1549 2624 
C 1222 2624 947 2503 730 2274 
L 730 3692 
z
" transform="scale(0.015625)"/>
       </defs>
       <use xlink:href="#CMR17-35" transform="scale(0.996264)"/>
       <use xlink:href="#CMR17-30" transform="translate(45.690477 0) scale(0.996264)"/>
       <use xlink:href="#CMR17-30" transform="translate(91.380954 0) scale(0.996264)"/>
      </g>
     </g>
    </g>
    <g id="xtick_6">
     <g id="line2d_6">
      <g>
       <use xlink:href="#mdb66160de4" x="530.404959" y="320.4" style="stroke: #000000; stroke-width: 0.8"/>
      </g>
     </g>
     <g id="text_6">
      <!-- $\mathdefault{600}$ -->
      <g transform="translate(519.796425 337.431808) scale(0.145 -0.145)">
       <defs>
        <path id="CMR17-36" d="M 678 2176 
C 678 3690 1395 4032 1811 4032 
C 1946 4032 2272 4009 2400 3776 
C 2298 3776 2106 3776 2106 3553 
C 2106 3381 2246 3323 2336 3323 
C 2394 3323 2566 3348 2566 3560 
C 2566 3954 2246 4179 1805 4179 
C 1043 4179 243 3390 243 1984 
C 243 253 966 -128 1478 -128 
C 2099 -128 2688 427 2688 1283 
C 2688 2081 2170 2662 1517 2662 
C 1126 2662 838 2407 678 1960 
L 678 2176 
z
M 1478 25 
C 691 25 691 1200 691 1436 
C 691 1896 909 2560 1504 2560 
C 1613 2560 1926 2560 2138 2120 
C 2253 1870 2253 1609 2253 1289 
C 2253 944 2253 690 2118 434 
C 1978 171 1773 25 1478 25 
z
" transform="scale(0.015625)"/>
       </defs>
       <use xlink:href="#CMR17-36" transform="scale(0.996264)"/>
       <use xlink:href="#CMR17-30" transform="translate(45.690477 0) scale(0.996264)"/>
       <use xlink:href="#CMR17-30" transform="translate(91.380954 0) scale(0.996264)"/>
      </g>
     </g>
    </g>
    <g id="xtick_7">
     <g id="line2d_7">
      <g>
       <use xlink:href="#mdb66160de4" x="607.264463" y="320.4" style="stroke: #000000; stroke-width: 0.8"/>
      </g>
     </g>
     <g id="text_7">
      <!-- $\mathdefault{700}$ -->
      <g transform="translate(596.655929 337.431808) scale(0.145 -0.145)">
       <defs>
        <path id="CMR17-37" d="M 2886 3941 
L 2886 4081 
L 1382 4081 
C 634 4081 621 4165 595 4288 
L 480 4288 
L 294 3094 
L 410 3094 
C 429 3215 474 3540 550 3661 
C 589 3712 1062 3712 1171 3712 
L 2579 3712 
L 1869 2661 
C 1395 1954 1069 999 1069 165 
C 1069 89 1069 -128 1299 -128 
C 1530 -128 1530 89 1530 171 
L 1530 465 
C 1530 1508 1709 2196 2003 2636 
L 2886 3941 
z
" transform="scale(0.015625)"/>
       </defs>
       <use xlink:href="#CMR17-37" transform="scale(0.996264)"/>
       <use xlink:href="#CMR17-30" transform="translate(45.690477 0) scale(0.996264)"/>
       <use xlink:href="#CMR17-30" transform="translate(91.380954 0) scale(0.996264)"/>
      </g>
     </g>
    </g>
    <g id="text_8">
     <!-- time (s) -->
     <g transform="translate(345.477317 355.075073) scale(0.145 -0.145)">
      <defs>
       <path id="CMSS17-74" d="M 1069 2368 
L 1901 2368 
L 1901 2737 
L 1069 2737 
L 1069 3520 
L 614 3520 
L 614 2737 
L 109 2737 
L 109 2368 
L 602 2368 
L 602 749 
C 602 384 685 -64 1107 -64 
C 1427 -64 1722 25 2003 172 
L 1901 548 
C 1747 414 1562 337 1363 337 
C 1082 337 1069 696 1069 856 
L 1069 2368 
z
" transform="scale(0.015625)"/>
       <path id="CMSS17-69" d="M 979 4183 
L 442 4183 
L 442 3648 
L 979 3648 
L 979 4183 
z
M 947 2739 
L 474 2739 
L 474 0 
L 947 0 
L 947 2739 
z
" transform="scale(0.015625)"/>
       <path id="CMSS17-6d" d="M 4288 1877 
C 4288 2308 4179 2816 3462 2816 
C 2982 2816 2694 2516 2566 2331 
C 2451 2670 2182 2816 1798 2816 
C 1363 2816 1088 2568 941 2389 
L 941 2758 
L 474 2758 
L 474 0 
L 960 0 
L 960 1559 
C 960 1939 1101 2428 1555 2428 
C 2138 2428 2138 2016 2138 1829 
L 2138 0 
L 2624 0 
L 2624 1559 
C 2624 1939 2765 2428 3219 2428 
C 3802 2428 3802 2016 3802 1829 
L 3802 0 
L 4288 0 
L 4288 1877 
z
" transform="scale(0.015625)"/>
       <path id="CMSS17-65" d="M 2502 1377 
C 2502 1590 2490 2003 2285 2345 
C 2061 2713 1696 2816 1421 2816 
C 755 2816 192 2188 192 1375 
C 192 582 774 -64 1510 -64 
C 1798 -64 2150 19 2470 248 
C 2470 274 2458 414 2451 420 
C 2451 433 2432 630 2432 656 
C 2125 407 1773 325 1517 325 
C 1107 325 666 667 646 1377 
L 2502 1377 
z
M 698 1728 
C 781 2084 1062 2421 1421 2421 
C 1517 2421 1965 2421 2080 1728 
L 698 1728 
z
" transform="scale(0.015625)"/>
       <path id="CMSS17-28" d="M 1613 4768 
C 1267 4417 474 3601 474 1588 
C 474 -433 1267 -1243 1613 -1600 
L 2003 -1600 
C 1216 -784 960 357 960 1581 
C 960 2798 1203 3946 2003 4768 
L 1613 4768 
z
" transform="scale(0.015625)"/>
       <path id="CMSS17-73" d="M 2061 2627 
C 1683 2807 1389 2807 1197 2807 
C 742 2807 198 2648 198 2003 
C 198 1359 902 1218 1094 1179 
C 1389 1122 1715 1058 1715 740 
C 1715 337 1254 337 1171 337 
C 915 337 563 407 243 638 
L 166 210 
C 531 0 883 -64 1178 -64 
C 1965 -64 2163 416 2163 781 
C 2163 1094 1984 1305 1862 1401 
C 1651 1568 1574 1587 1050 1696 
C 960 1709 646 1779 646 2066 
C 646 2432 1050 2432 1139 2432 
C 1555 2432 1811 2303 1984 2208 
L 2061 2627 
z
" transform="scale(0.015625)"/>
       <path id="CMSS17-29" d="M 723 -1600 
C 1069 -1249 1862 -433 1862 1581 
C 1862 3601 1069 4411 723 4768 
L 333 4768 
C 1120 3952 1376 2811 1376 1588 
C 1376 370 1133 -778 333 -1600 
L 723 -1600 
z
" transform="scale(0.015625)"/>
      </defs>
      <use xlink:href="#CMSS17-74" transform="scale(0.996264)"/>
      <use xlink:href="#CMSS17-69" transform="translate(33.831567 0) scale(0.996264)"/>
      <use xlink:href="#CMSS17-6d" transform="translate(56.01229 0) scale(0.996264)"/>
      <use xlink:href="#CMSS17-65" transform="translate(130.241544 0) scale(0.996264)"/>
      <use xlink:href="#CMSS17-28" transform="translate(203.109479 0) scale(0.996264)"/>
      <use xlink:href="#CMSS17-73" transform="translate(239.543393 0) scale(0.996264)"/>
      <use xlink:href="#CMSS17-29" transform="translate(275.456935 0) scale(0.996264)"/>
     </g>
    </g>
   </g>
   <g id="matplotlib.axis_2">
    <g id="ytick_1">
     <g id="line2d_8">
      <path d="M 90 320.4 
L 648 320.4 
" clip-path="url(#pa71d210fd3)" style="fill: none; stroke-dasharray: 1.85,0.8; stroke-dashoffset: 0; stroke: #808080; stroke-width: 0.5"/>
     </g>
     <g id="line2d_9">
      <defs>
       <path id="m5be66c3d47" d="M 0 0 
L -3.5 0 
" style="stroke: #000000; stroke-width: 0.8"/>
      </defs>
      <g>
       <use xlink:href="#m5be66c3d47" x="90" y="320.4" style="stroke: #000000; stroke-width: 0.8"/>
      </g>
     </g>
     <g id="text_9">
      <!-- $\mathdefault{0.0}$ -->
      <g transform="translate(64.926206 325.415904) scale(0.145 -0.145)">
       <defs>
        <path id="CMMI12-3a" d="M 1178 307 
C 1178 492 1024 619 870 619 
C 685 619 557 466 557 313 
C 557 128 710 0 864 0 
C 1050 0 1178 153 1178 307 
z
" transform="scale(0.015625)"/>
       </defs>
       <use xlink:href="#CMR17-30" transform="scale(0.996264)"/>
       <use xlink:href="#CMMI12-3a" transform="translate(45.690477 0) scale(0.996264)"/>
       <use xlink:href="#CMR17-30" transform="translate(72.787654 0) scale(0.996264)"/>
      </g>
     </g>
    </g>
    <g id="ytick_2">
     <g id="line2d_10">
      <path d="M 90 267.6 
L 648 267.6 
" clip-path="url(#pa71d210fd3)" style="fill: none; stroke-dasharray: 1.85,0.8; stroke-dashoffset: 0; stroke: #808080; stroke-width: 0.5"/>
     </g>
     <g id="line2d_11">
      <g>
       <use xlink:href="#m5be66c3d47" x="90" y="267.6" style="stroke: #000000; stroke-width: 0.8"/>
      </g>
     </g>
     <g id="text_10">
      <!-- $\mathdefault{0.2}$ -->
      <g transform="translate(64.926206 272.615904) scale(0.145 -0.145)">
       <use xlink:href="#CMR17-30" transform="scale(0.996264)"/>
       <use xlink:href="#CMMI12-3a" transform="translate(45.690477 0) scale(0.996264)"/>
       <use xlink:href="#CMR17-32" transform="translate(72.787654 0) scale(0.996264)"/>
      </g>
     </g>
    </g>
    <g id="ytick_3">
     <g id="line2d_12">
      <path d="M 90 214.8 
L 648 214.8 
" clip-path="url(#pa71d210fd3)" style="fill: none; stroke-dasharray: 1.85,0.8; stroke-dashoffset: 0; stroke: #808080; stroke-width: 0.5"/>
     </g>
     <g id="line2d_13">
      <g>
       <use xlink:href="#m5be66c3d47" x="90" y="214.8" style="stroke: #000000; stroke-width: 0.8"/>
      </g>
     </g>
     <g id="text_11">
      <!-- $\mathdefault{0.4}$ -->
      <g transform="translate(64.926206 219.815904) scale(0.145 -0.145)">
       <use xlink:href="#CMR17-30" transform="scale(0.996264)"/>
       <use xlink:href="#CMMI12-3a" transform="translate(45.690477 0) scale(0.996264)"/>
       <use xlink:href="#CMR17-34" transform="translate(72.787654 0) scale(0.996264)"/>
      </g>
     </g>
    </g>
    <g id="ytick_4">
     <g id="line2d_14">
      <path d="M 90 162 
L 648 162 
" clip-path="url(#pa71d210fd3)" style="fill: none; stroke-dasharray: 1.85,0.8; stroke-dashoffset: 0; stroke: #808080; stroke-width: 0.5"/>
     </g>
     <g id="line2d_15">
      <g>
       <use xlink:href="#m5be66c3d47" x="90" y="162" style="stroke: #000000; stroke-width: 0.8"/>
      </g>
     </g>
     <g id="text_12">
      <!-- $\mathdefault{0.6}$ -->
      <g transform="translate(64.926206 167.015904) scale(0.145 -0.145)">
       <use xlink:href="#CMR17-30" transform="scale(0.996264)"/>
       <use xlink:href="#CMMI12-3a" transform="translate(45.690477 0) scale(0.996264)"/>
       <use xlink:href="#CMR17-36" transform="translate(72.787654 0) scale(0.996264)"/>
      </g>
     </g>
    </g>
    <g id="ytick_5">
     <g id="line2d_16">
      <path d="M 90 109.2 
L 648 109.2 
" clip-path="url(#pa71d210fd3)" style="fill: none; stroke-dasharray: 1.85,0.8; stroke-dashoffset: 0; stroke: #808080; stroke-width: 0.5"/>
     </g>
     <g id="line2d_17">
      <g>
       <use xlink:href="#m5be66c3d47" x="90" y="109.2" style="stroke: #000000; stroke-width: 0.8"/>
      </g>
     </g>
     <g id="text_13">
      <!-- $\mathdefault{0.8}$ -->
      <g transform="translate(64.926206 114.215904) scale(0.145 -0.145)">
       <defs>
        <path id="CMR17-38" d="M 1741 2264 
C 2144 2467 2554 2773 2554 3263 
C 2554 3841 1990 4179 1472 4179 
C 890 4179 378 3759 378 3180 
C 378 3021 416 2747 666 2505 
C 730 2442 998 2251 1171 2130 
C 883 1983 211 1634 211 934 
C 211 279 838 -128 1459 -128 
C 2144 -128 2720 362 2720 1010 
C 2720 1590 2330 1857 2074 2029 
L 1741 2264 
z
M 902 2822 
C 851 2854 595 3051 595 3351 
C 595 3739 998 4032 1459 4032 
C 1965 4032 2336 3676 2336 3262 
C 2336 2669 1670 2331 1638 2331 
C 1632 2331 1626 2331 1574 2370 
L 902 2822 
z
M 2080 1519 
C 2176 1449 2483 1240 2483 851 
C 2483 381 2010 25 1472 25 
C 890 25 448 438 448 940 
C 448 1443 838 1862 1280 2060 
L 2080 1519 
z
" transform="scale(0.015625)"/>
       </defs>
       <use xlink:href="#CMR17-30" transform="scale(0.996264)"/>
       <use xlink:href="#CMMI12-3a" transform="translate(45.690477 0) scale(0.996264)"/>
       <use xlink:href="#CMR17-38" transform="translate(72.787654 0) scale(0.996264)"/>
      </g>
     </g>
    </g>
    <g id="ytick_6">
     <g id="line2d_18">
      <path d="M 90 56.4 
L 648 56.4 
" clip-path="url(#pa71d210fd3)" style="fill: none; stroke-dasharray: 1.85,0.8; stroke-dashoffset: 0; stroke: #808080; stroke-width: 0.5"/>
     </g>
     <g id="line2d_19">
      <g>
       <use xlink:href="#m5be66c3d47" x="90" y="56.4" style="stroke: #000000; stroke-width: 0.8"/>
      </g>
     </g>
     <g id="text_14">
      <!-- $\mathdefault{1.0}$ -->
      <g transform="translate(64.926206 61.415904) scale(0.145 -0.145)">
       <use xlink:href="#CMR17-31" transform="scale(0.996264)"/>
       <use xlink:href="#CMMI12-3a" transform="translate(45.690477 0) scale(0.996264)"/>
       <use xlink:href="#CMR17-30" transform="translate(72.787654 0) scale(0.996264)"/>
      </g>
     </g>
    </g>
    <g id="text_15">
     <!-- QoS -->
     <g transform="translate(58.117312 194.481753) rotate(-90) scale(0.145 -0.145)">
      <defs>
       <path id="CMSS17-51" d="M 3200 202 
C 3981 833 4096 1689 4096 2174 
C 4096 3501 3219 4497 2214 4497 
C 1210 4497 333 3497 333 2178 
C 333 847 1222 -128 2214 -128 
C 2438 -128 2630 -77 2765 -26 
L 3302 -832 
L 3930 -832 
L 3200 202 
z
M 2528 324 
C 2438 293 2330 273 2214 273 
C 1523 273 858 993 858 2178 
C 858 3357 1517 4096 2214 4096 
C 2918 4096 3571 3350 3571 2178 
C 3571 1771 3507 1089 2950 566 
L 2490 1210 
L 1939 1210 
L 2528 324 
z
" transform="scale(0.015625)"/>
       <path id="CMSS17-6f" d="M 2829 1356 
C 2829 2176 2221 2816 1504 2816 
C 768 2816 173 2157 173 1356 
C 173 544 787 -64 1498 -64 
C 2227 -64 2829 563 2829 1356 
z
M 1504 337 
C 1050 337 659 709 659 1408 
C 659 2151 1114 2427 1498 2427 
C 1914 2427 2342 2126 2342 1408 
C 2342 683 1926 337 1504 337 
z
" transform="scale(0.015625)"/>
       <path id="CMSS17-53" d="M 2797 4169 
C 2515 4334 2208 4480 1690 4480 
C 864 4480 333 3879 333 3266 
C 333 3025 403 2753 653 2475 
C 902 2196 1184 2121 1542 2033 
C 1690 1994 1939 1924 1984 1906 
C 2342 1767 2515 1444 2515 1140 
C 2515 742 2202 318 1645 318 
C 1453 318 890 318 358 819 
L 269 318 
C 794 -64 1363 -128 1651 -128 
C 2438 -128 3002 488 3002 1186 
C 3002 1440 2925 1763 2656 2061 
C 2394 2347 2163 2410 1638 2549 
C 1338 2626 1146 2677 986 2873 
C 877 3013 819 3146 819 3317 
C 819 3673 1126 4060 1690 4060 
C 1971 4060 2336 4002 2707 3660 
L 2797 4169 
z
" transform="scale(0.015625)"/>
      </defs>
      <use xlink:href="#CMSS17-51" transform="scale(0.996264)"/>
      <use xlink:href="#CMSS17-6f" transform="translate(69.024255 0) scale(0.996264)"/>
      <use xlink:href="#CMSS17-53" transform="translate(115.867879 0) scale(0.996264)"/>
     </g>
    </g>
   </g>
   <g id="line2d_20">
    <path d="M 115.363636 265.932576 
L 142.210939 265.932576 
L 143.623955 266.210568 
L 149.276019 266.210568 
L 150.689035 265.932576 
L 180.36237 265.932576 
L 181.775386 183.953448 
L 187.42745 183.953448 
L 188.840466 163.111968 
L 241.122056 163.111968 
L 242.535072 162.556248 
L 249.600152 162.556248 
L 251.013168 163.111968 
L 287.751583 163.111968 
L 289.164599 165.890832 
L 294.816662 165.890832 
L 296.229678 210.353712 
L 303.294758 210.353712 
L 304.707774 210.631704 
L 318.837934 210.631704 
L 320.25095 210.909696 
L 325.903013 210.909696 
L 327.316029 210.631704 
L 379.59762 210.631704 
L 381.010636 211.187424 
L 402.205875 211.187424 
L 403.618891 140.046552 
L 410.683971 140.046552 
L 412.096987 127.540608 
L 511.008103 127.540608 
L 512.421119 134.766288 
L 518.073183 134.766288 
L 519.486199 143.659128 
L 526.551279 143.659128 
L 527.964295 143.936856 
L 622.636364 143.936856 
L 622.636364 143.936856 
" clip-path="url(#pa71d210fd3)" style="fill: none; stroke: #482475; stroke-width: 2.5; stroke-linecap: square"/>
   </g>
   <g id="line2d_21">
    <path d="M 115.363636 264.265416 
L 118.189668 264.265416 
L 119.602684 261.208032 
L 126.667764 261.208032 
L 128.08078 256.761744 
L 133.732844 256.761744 
L 135.14586 254.816592 
L 156.341099 254.816592 
L 157.754115 252.871176 
L 180.36237 252.871176 
L 181.775386 199.237992 
L 187.42745 199.237992 
L 188.840466 150.328824 
L 195.905546 150.328824 
L 197.318562 148.105416 
L 287.751583 148.105416 
L 289.164599 158.109696 
L 294.816662 158.109696 
L 296.229678 235.642008 
L 303.294758 235.642008 
L 304.707774 238.976592 
L 310.359838 238.976592 
L 311.772854 237.031968 
L 318.837934 237.031968 
L 320.25095 205.906896 
L 325.903013 205.906896 
L 327.316029 200.349432 
L 334.381109 200.349432 
L 335.794125 199.515456 
L 388.075715 199.515456 
L 389.488731 199.237464 
L 395.140795 199.237464 
L 396.553811 199.793448 
L 402.205875 199.793448 
L 403.618891 160.33284 
L 410.683971 160.33284 
L 412.096987 102.80856 
L 417.74905 102.80856 
L 419.162066 97.250568 
L 426.227146 97.250568 
L 427.640162 96.972576 
L 448.835401 96.972576 
L 450.248417 97.250568 
L 457.313497 97.250568 
L 458.726513 96.972576 
L 471.443657 96.972576 
L 472.856673 97.250304 
L 479.921752 97.250304 
L 481.334768 96.972576 
L 511.008103 96.972576 
L 512.421119 149.772576 
L 518.073183 149.772576 
L 519.486199 206.185416 
L 526.551279 206.185416 
L 527.964295 157.832232 
L 533.616359 157.832232 
L 535.029375 126.429696 
L 540.681438 126.429696 
L 542.094454 124.762536 
L 622.636364 124.762536 
L 622.636364 124.762536 
" clip-path="url(#pa71d210fd3)" style="fill: none; stroke: #bddf26; stroke-width: 2.5; stroke-linecap: square"/>
   </g>
   <g id="patch_3">
    <path d="M 90 320.4 
L 90 43.2 
" style="fill: none; stroke: #000000; stroke-width: 0.8; stroke-linejoin: miter; stroke-linecap: square"/>
   </g>
   <g id="patch_4">
    <path d="M 648 320.4 
L 648 43.2 
" style="fill: none; stroke: #000000; stroke-width: 0.8; stroke-linejoin: miter; stroke-linecap: square"/>
   </g>
   <g id="patch_5">
    <path d="M 90 320.4 
L 648 320.4 
" style="fill: none; stroke: #000000; stroke-width: 0.8; stroke-linejoin: miter; stroke-linecap: square"/>
   </g>
   <g id="text_16">
    <!-- $nt=Barabsi$ $d=100$ $oc=3\%$ $l=collective$ -->
    <g transform="translate(199.994359 37.2) scale(0.18 -0.18)">
     <defs>
      <path id="CMMI12-6e" d="M 1318 1871 
C 1331 1910 1491 2229 1728 2433 
C 1894 2586 2112 2689 2362 2689 
C 2618 2689 2707 2497 2707 2242 
C 2707 1878 2445 1150 2317 805 
C 2259 651 2227 568 2227 453 
C 2227 166 2426 -64 2733 -64 
C 3328 -64 3552 875 3552 913 
C 3552 945 3526 971 3488 971 
C 3430 971 3424 952 3392 843 
C 3245 319 3002 64 2752 64 
C 2688 64 2586 64 2586 269 
C 2586 429 2656 621 2694 710 
C 2822 1063 3091 1780 3091 2145 
C 3091 2528 2867 2816 2381 2816 
C 1811 2816 1510 2415 1395 2255 
C 1376 2618 1114 2816 832 2816 
C 627 2816 486 2695 378 2478 
C 262 2248 173 1865 173 1839 
C 173 1814 198 1782 243 1782 
C 294 1782 301 1788 339 1935 
C 442 2325 557 2689 813 2689 
C 960 2689 1011 2586 1011 2395 
C 1011 2254 947 2005 902 1807 
L 723 1118 
C 698 996 627 709 595 594 
C 550 428 480 128 480 96 
C 480 6 550 -64 646 -64 
C 723 -64 813 -26 864 70 
C 877 102 934 326 966 453 
L 1107 1028 
L 1318 1871 
z
" transform="scale(0.015625)"/>
      <path id="CMMI12-74" d="M 1286 2566 
L 1875 2566 
C 1997 2566 2061 2566 2061 2681 
C 2061 2752 2022 2752 1894 2752 
L 1331 2752 
L 1568 3692 
C 1594 3781 1594 3794 1594 3840 
C 1594 3943 1510 4000 1427 4000 
C 1376 4000 1229 3981 1178 3775 
L 928 2752 
L 326 2752 
C 198 2752 141 2752 141 2630 
C 141 2566 186 2566 307 2566 
L 877 2566 
L 454 881 
C 403 658 384 594 384 511 
C 384 211 595 -64 954 -64 
C 1600 -64 1946 868 1946 912 
C 1946 951 1920 970 1882 970 
C 1869 970 1843 970 1830 944 
C 1824 938 1818 931 1773 829 
C 1638 511 1344 64 973 64 
C 781 64 768 224 768 364 
C 768 370 768 492 787 568 
L 1286 2566 
z
" transform="scale(0.015625)"/>
      <path id="CMR17-3d" d="M 4115 2017 
C 4211 2017 4307 2017 4307 2125 
C 4307 2240 4198 2240 4090 2240 
L 512 2240 
C 403 2240 294 2240 294 2125 
C 294 2017 390 2017 486 2017 
L 4115 2017 
z
M 4090 896 
C 4198 896 4307 896 4307 1011 
C 4307 1119 4211 1119 4115 1119 
L 486 1119 
C 390 1119 294 1119 294 1011 
C 294 896 403 896 512 896 
L 4090 896 
z
" transform="scale(0.015625)"/>
      <path id="CMMI12-42" d="M 2342 3921 
C 2400 4160 2426 4160 2675 4160 
L 3507 4160 
C 4230 4160 4230 3544 4230 3485 
C 4230 2966 3712 2304 2867 2304 
L 1946 2304 
L 2342 3921 
z
M 3424 2275 
C 4122 2402 4755 2886 4755 3473 
C 4755 3970 4314 4352 3590 4352 
L 1536 4352 
C 1414 4352 1357 4352 1357 4226 
C 1357 4160 1414 4160 1510 4160 
C 1901 4160 1901 4112 1901 4044 
C 1901 4032 1901 3993 1875 3897 
L 1011 472 
C 954 249 941 185 493 185 
C 371 185 307 185 307 70 
C 307 0 346 0 474 0 
L 2669 0 
C 3648 0 4403 739 4403 1383 
C 4403 1906 3942 2224 3424 2275 
z
M 2515 185 
L 1651 185 
C 1562 185 1549 185 1510 192 
C 1440 198 1434 211 1434 261 
C 1434 305 1446 343 1459 399 
L 1907 2176 
L 3110 2176 
C 3866 2176 3866 1483 3866 1433 
C 3866 828 3309 185 2515 185 
z
" transform="scale(0.015625)"/>
      <path id="CMMI12-61" d="M 1926 760 
C 1894 651 1894 639 1805 517 
C 1664 338 1382 64 1082 64 
C 819 64 672 300 672 677 
C 672 1028 870 1743 992 2012 
C 1210 2459 1510 2689 1760 2689 
C 2182 2689 2266 2165 2266 2114 
C 2266 2108 2246 2024 2240 2012 
L 1926 760 
z
M 2336 2395 
C 2266 2561 2093 2816 1760 2816 
C 1037 2816 256 1884 256 939 
C 256 307 627 -64 1062 -64 
C 1414 -64 1715 211 1894 422 
C 1958 45 2259 -64 2451 -64 
C 2643 -64 2797 51 2912 281 
C 3014 498 3104 888 3104 913 
C 3104 945 3078 971 3040 971 
C 2982 971 2976 939 2950 843 
C 2854 466 2733 64 2470 64 
C 2285 64 2272 230 2272 358 
C 2272 505 2291 575 2349 824 
C 2394 984 2426 1124 2477 1309 
C 2714 2267 2771 2497 2771 2535 
C 2771 2625 2701 2695 2605 2695 
C 2400 2695 2349 2472 2336 2395 
z
" transform="scale(0.015625)"/>
      <path id="CMMI12-72" d="M 2490 2612 
C 2291 2574 2189 2433 2189 2293 
C 2189 2139 2310 2088 2400 2088 
C 2579 2088 2726 2242 2726 2433 
C 2726 2638 2528 2816 2208 2816 
C 1952 2816 1658 2701 1389 2312 
C 1344 2650 1088 2816 832 2816 
C 582 2816 454 2625 378 2484 
C 269 2254 173 1871 173 1839 
C 173 1814 198 1782 243 1782 
C 294 1782 301 1788 339 1935 
C 435 2318 557 2689 813 2689 
C 966 2689 1011 2580 1011 2395 
C 1011 2254 947 2005 902 1807 
L 723 1118 
C 698 996 627 709 595 594 
C 550 428 480 128 480 96 
C 480 6 550 -64 646 -64 
C 717 -64 838 -19 877 109 
C 896 160 1133 1124 1171 1271 
C 1203 1411 1242 1546 1274 1686 
C 1299 1775 1325 1878 1344 1961 
C 1363 2018 1536 2331 1696 2472 
C 1773 2542 1939 2689 2202 2689 
C 2304 2689 2406 2670 2490 2612 
z
" transform="scale(0.015625)"/>
      <path id="CMMI12-62" d="M 1478 4257 
C 1485 4283 1498 4321 1498 4352 
C 1498 4416 1434 4416 1421 4416 
C 1414 4416 1184 4393 1069 4377 
C 960 4377 864 4358 749 4358 
C 595 4345 550 4339 550 4224 
C 550 4160 614 4160 678 4160 
C 1005 4160 1005 4103 1005 4040 
C 1005 3996 954 3811 928 3696 
L 774 3085 
C 710 2831 346 1387 320 1272 
C 288 1114 288 1005 288 922 
C 288 274 653 -64 1069 -64 
C 1811 -64 2579 888 2579 1814 
C 2579 2401 2246 2816 1766 2816 
C 1434 2816 1133 2542 1011 2414 
L 1478 4257 
z
M 1075 64 
C 870 64 646 217 646 715 
C 646 926 666 1047 781 1494 
C 800 1577 902 1986 928 2069 
C 941 2120 1318 2689 1754 2689 
C 2035 2689 2163 2408 2163 2076 
C 2163 1769 1984 1047 1824 715 
C 1664 370 1370 64 1075 64 
z
" transform="scale(0.015625)"/>
      <path id="CMMI12-73" d="M 1459 1280 
C 1568 1261 1741 1223 1779 1216 
C 1862 1192 2150 1090 2150 783 
C 2150 586 1971 70 1229 70 
C 1094 70 614 70 486 436 
C 742 404 870 603 870 745 
C 870 880 781 950 653 950 
C 512 950 326 841 326 552 
C 326 173 710 -64 1222 -64 
C 2195 -64 2483 651 2483 984 
C 2483 1079 2483 1258 2278 1462 
C 2118 1616 1965 1648 1619 1718 
C 1446 1756 1171 1814 1171 2101 
C 1171 2229 1286 2689 1894 2689 
C 2163 2689 2426 2589 2490 2368 
C 2208 2368 2195 2125 2195 2119 
C 2195 1984 2317 1946 2374 1946 
C 2464 1946 2643 2015 2643 2281 
C 2643 2545 2400 2816 1901 2816 
C 1062 2816 838 2160 838 1899 
C 838 1414 1312 1312 1459 1280 
z
" transform="scale(0.015625)"/>
      <path id="CMMI12-69" d="M 1811 913 
C 1811 945 1786 971 1747 971 
C 1690 971 1683 952 1651 843 
C 1485 262 1222 64 1011 64 
C 934 64 845 83 845 275 
C 845 447 922 639 992 830 
L 1440 2018 
C 1459 2069 1504 2184 1504 2305 
C 1504 2574 1312 2816 998 2816 
C 410 2816 173 1890 173 1839 
C 173 1814 198 1782 243 1782 
C 301 1782 307 1807 333 1896 
C 486 2428 730 2682 979 2682 
C 1037 2682 1146 2682 1146 2478 
C 1146 2312 1062 2101 1011 1961 
L 563 773 
C 525 671 486 568 486 453 
C 486 166 685 -64 992 -64 
C 1581 -64 1811 869 1811 913 
z
M 1760 4013 
C 1760 4109 1683 4224 1542 4224 
C 1395 4224 1229 4083 1229 3917 
C 1229 3758 1363 3707 1440 3707 
C 1613 3707 1760 3873 1760 4013 
z
" transform="scale(0.015625)"/>
      <path id="CMMI12-64" d="M 3219 4257 
C 3226 4282 3238 4320 3238 4352 
C 3238 4416 3174 4416 3162 4416 
C 3155 4416 2842 4388 2810 4380 
C 2701 4373 2605 4358 2490 4358 
C 2330 4345 2285 4339 2285 4224 
C 2285 4160 2336 4160 2426 4160 
C 2739 4160 2746 4103 2746 4040 
C 2746 4002 2733 3952 2726 3933 
L 2336 2395 
C 2266 2561 2093 2816 1760 2816 
C 1037 2816 256 1884 256 939 
C 256 307 627 -64 1062 -64 
C 1414 -64 1715 211 1894 422 
C 1958 45 2259 -64 2451 -64 
C 2643 -64 2797 51 2912 281 
C 3014 498 3104 888 3104 913 
C 3104 945 3078 971 3040 971 
C 2982 971 2976 939 2950 843 
C 2854 466 2733 64 2470 64 
C 2285 64 2272 229 2272 357 
C 2272 382 2272 515 2317 694 
L 3219 4257 
z
M 1926 760 
C 1894 651 1894 639 1805 517 
C 1664 338 1382 64 1082 64 
C 819 64 672 300 672 677 
C 672 1028 870 1743 992 2012 
C 1210 2459 1510 2689 1760 2689 
C 2182 2689 2266 2165 2266 2114 
C 2266 2108 2246 2024 2240 2012 
L 1926 760 
z
" transform="scale(0.015625)"/>
      <path id="CMMI12-6f" d="M 2918 1756 
C 2918 2363 2522 2816 1939 2816 
C 1094 2816 262 1897 262 996 
C 262 390 659 -64 1242 -64 
C 2093 -64 2918 856 2918 1756 
z
M 1248 64 
C 928 64 691 319 691 766 
C 691 1060 845 1712 1024 2031 
C 1312 2523 1670 2689 1933 2689 
C 2246 2689 2490 2433 2490 1986 
C 2490 1731 2355 1047 2112 658 
C 1850 230 1498 64 1248 64 
z
" transform="scale(0.015625)"/>
      <path id="CMMI12-63" d="M 2502 2431 
C 2381 2431 2323 2431 2234 2355 
C 2195 2323 2125 2227 2125 2125 
C 2125 1997 2221 1920 2342 1920 
C 2496 1920 2669 2044 2669 2292 
C 2669 2588 2374 2816 1933 2816 
C 1094 2816 256 1903 256 996 
C 256 441 602 -64 1254 -64 
C 2125 -64 2675 622 2675 706 
C 2675 744 2637 776 2611 776 
C 2592 776 2586 770 2528 713 
C 2118 162 1510 64 1267 64 
C 826 64 685 446 685 764 
C 685 988 794 1605 1024 2039 
C 1190 2338 1536 2682 1939 2682 
C 2022 2682 2374 2682 2502 2431 
z
" transform="scale(0.015625)"/>
      <path id="CMR17-25" d="M 4640 959 
C 4640 1698 4275 2240 3846 2240 
C 3411 2240 2970 1736 2970 959 
C 2970 183 3405 -320 3846 -320 
C 4275 -320 4640 215 4640 959 
z
M 3853 -218 
C 3686 -218 3270 -66 3270 959 
C 3270 1991 3686 2138 3853 2138 
C 4205 2138 4525 1634 4525 959 
C 4525 285 4205 -218 3853 -218 
z
M 4083 4577 
C 4128 4647 4134 4653 4134 4685 
C 4134 4761 4077 4800 4026 4800 
C 3962 4800 3936 4756 3891 4706 
C 3520 4190 3008 4134 2746 4134 
C 2106 4134 1715 4494 1594 4607 
C 1510 4682 1389 4800 1171 4800 
C 736 4800 294 4296 294 3519 
C 294 2743 730 2240 1171 2240 
C 1600 2240 1965 2778 1965 3527 
C 1965 3969 1830 4270 1811 4308 
C 2202 4064 2586 4032 2752 4032 
C 3162 4032 3456 4183 3616 4289 
L 3622 4283 
L 858 -84 
C 800 -174 800 -187 800 -206 
C 800 -276 858 -320 915 -320 
C 973 -320 992 -289 1037 -218 
L 4083 4577 
z
M 1178 2342 
C 1011 2342 595 2494 595 3519 
C 595 4551 1011 4698 1178 4698 
C 1530 4698 1850 4194 1850 3519 
C 1850 2845 1530 2342 1178 2342 
z
" transform="scale(0.015625)"/>
      <path id="CMMI12-6c" d="M 1626 4257 
C 1632 4282 1645 4320 1645 4352 
C 1645 4416 1581 4416 1568 4416 
C 1562 4416 1331 4393 1216 4377 
C 1107 4377 1011 4358 896 4358 
C 742 4345 698 4339 698 4224 
C 698 4160 762 4160 826 4160 
C 1152 4160 1152 4102 1152 4039 
C 1152 4014 1152 4001 1120 3887 
L 326 731 
C 307 661 294 610 294 509 
C 294 191 531 -64 858 -64 
C 1069 -64 1210 76 1312 274 
C 1421 483 1510 884 1510 909 
C 1510 941 1485 967 1446 967 
C 1389 967 1382 935 1357 840 
C 1242 401 1126 64 870 64 
C 678 64 678 267 678 357 
C 678 382 678 515 723 694 
L 1626 4257 
z
" transform="scale(0.015625)"/>
      <path id="CMMI12-65" d="M 1146 1479 
C 1318 1479 1754 1479 2061 1595 
C 2547 1783 2592 2158 2592 2274 
C 2592 2558 2349 2816 1926 2816 
C 1254 2816 288 2210 288 1073 
C 288 402 672 -64 1254 -64 
C 2125 -64 2675 609 2675 692 
C 2675 730 2637 762 2611 762 
C 2592 762 2586 756 2528 699 
C 2118 159 1510 64 1267 64 
C 902 64 710 350 710 822 
C 710 911 710 1071 806 1479 
L 1146 1479 
z
M 838 1600 
C 1114 2592 1722 2689 1926 2689 
C 2208 2689 2400 2522 2400 2277 
C 2400 1600 1376 1600 1107 1600 
L 838 1600 
z
" transform="scale(0.015625)"/>
      <path id="CMMI12-76" d="M 2925 2389 
C 2925 2791 2720 2816 2669 2816 
C 2515 2816 2374 2663 2374 2535 
C 2374 2459 2419 2414 2445 2389 
C 2509 2331 2675 2159 2675 1827 
C 2675 1558 2291 64 1523 64 
C 1133 64 1056 390 1056 626 
C 1056 945 1203 1392 1376 1852 
C 1478 2114 1504 2178 1504 2305 
C 1504 2574 1312 2816 998 2816 
C 410 2816 173 1890 173 1839 
C 173 1814 198 1782 243 1782 
C 301 1782 307 1807 333 1897 
C 486 2446 736 2689 979 2689 
C 1037 2689 1146 2689 1146 2478 
C 1146 2312 1075 2127 979 1884 
C 672 1067 672 869 672 715 
C 672 575 691 313 890 134 
C 1120 -64 1440 -64 1498 -64 
C 2560 -64 2925 2024 2925 2389 
z
" transform="scale(0.015625)"/>
     </defs>
     <use xlink:href="#CMMI12-6e" transform="scale(0.996264)"/>
     <use xlink:href="#CMMI12-74" transform="translate(58.230047 0) scale(0.996264)"/>
     <use xlink:href="#CMR17-3d" transform="translate(121.130386 0) scale(0.996264)"/>
     <use xlink:href="#CMMI12-42" transform="translate(220.519183 0) scale(0.996264)"/>
     <use xlink:href="#CMMI12-61" transform="translate(299.654707 0) scale(0.996264)"/>
     <use xlink:href="#CMMI12-72" transform="translate(350.862564 0) scale(0.996264)"/>
     <use xlink:href="#CMMI12-61" transform="translate(397.533176 0) scale(0.996264)"/>
     <use xlink:href="#CMMI12-62" transform="translate(448.741034 0) scale(0.996264)"/>
     <use xlink:href="#CMMI12-73" transform="translate(490.216908 0) scale(0.996264)"/>
     <use xlink:href="#CMMI12-69" transform="translate(536.166956 0) scale(0.996264)"/>
     <use xlink:href="#CMMI12-64" transform="translate(600.67467 0) scale(0.996264)"/>
     <use xlink:href="#CMR17-3d" transform="translate(679.037776 0) scale(0.996264)"/>
     <use xlink:href="#CMR17-31" transform="translate(778.426573 0) scale(0.996264)"/>
     <use xlink:href="#CMR17-30" transform="translate(824.11705 0) scale(0.996264)"/>
     <use xlink:href="#CMR17-30" transform="translate(869.807527 0) scale(0.996264)"/>
     <use xlink:href="#CMMI12-6f" transform="translate(946.727117 0) scale(0.996264)"/>
     <use xlink:href="#CMMI12-63" transform="translate(993.622427 0) scale(0.996264)"/>
     <use xlink:href="#CMR17-3d" transform="translate(1063.279669 0) scale(0.996264)"/>
     <use xlink:href="#CMR17-33" transform="translate(1162.668466 0) scale(0.996264)"/>
     <use xlink:href="#CMR17-25" transform="translate(1208.358943 0) scale(0.996264)"/>
     <use xlink:href="#CMMI12-6c" transform="translate(1316.507646 0) scale(0.996264)"/>
     <use xlink:href="#CMR17-3d" transform="translate(1375.430058 0) scale(0.996264)"/>
     <use xlink:href="#CMMI12-63" transform="translate(1474.818856 0) scale(0.996264)"/>
     <use xlink:href="#CMMI12-6f" transform="translate(1516.802089 0) scale(0.996264)"/>
     <use xlink:href="#CMMI12-6c" transform="translate(1563.697399 0) scale(0.996264)"/>
     <use xlink:href="#CMMI12-6c" transform="translate(1594.945803 0) scale(0.996264)"/>
     <use xlink:href="#CMMI12-65" transform="translate(1626.194206 0) scale(0.996264)"/>
     <use xlink:href="#CMMI12-63" transform="translate(1671.406207 0) scale(0.996264)"/>
     <use xlink:href="#CMMI12-74" transform="translate(1713.389441 0) scale(0.996264)"/>
     <use xlink:href="#CMMI12-69" transform="translate(1748.615771 0) scale(0.996264)"/>
     <use xlink:href="#CMMI12-76" transform="translate(1781.894373 0) scale(0.996264)"/>
     <use xlink:href="#CMMI12-65" transform="translate(1832.629547 0) scale(0.996264)"/>
    </g>
   </g>
  </g>
  <g id="axes_2">
   <g id="matplotlib.axis_3">
    <g id="ytick_7">
     <g id="line2d_22">
      <defs>
       <path id="m6c45400599" d="M 0 0 
L 3.5 0 
" style="stroke: #000000; stroke-width: 0.8"/>
      </defs>
      <g>
       <use xlink:href="#m6c45400599" x="648" y="320.4" style="stroke: #000000; stroke-width: 0.8"/>
      </g>
     </g>
     <g id="text_17">
      <!-- $\mathdefault{0}$ -->
      <g transform="translate(655 325.415904) scale(0.145 -0.145)">
       <use xlink:href="#CMR17-30" transform="scale(0.996264)"/>
      </g>
     </g>
    </g>
    <g id="ytick_8">
     <g id="line2d_23">
      <g>
       <use xlink:href="#m6c45400599" x="648" y="264.987706" style="stroke: #000000; stroke-width: 0.8"/>
      </g>
     </g>
     <g id="text_18">
      <!-- $\mathdefault{20}$ -->
      <g transform="translate(655 270.00361) scale(0.145 -0.145)">
       <use xlink:href="#CMR17-32" transform="scale(0.996264)"/>
       <use xlink:href="#CMR17-30" transform="translate(45.690477 0) scale(0.996264)"/>
      </g>
     </g>
    </g>
    <g id="ytick_9">
     <g id="line2d_24">
      <g>
       <use xlink:href="#m6c45400599" x="648" y="209.575412" style="stroke: #000000; stroke-width: 0.8"/>
      </g>
     </g>
     <g id="text_19">
      <!-- $\mathdefault{40}$ -->
      <g transform="translate(655 214.591316) scale(0.145 -0.145)">
       <use xlink:href="#CMR17-34" transform="scale(0.996264)"/>
       <use xlink:href="#CMR17-30" transform="translate(45.690477 0) scale(0.996264)"/>
      </g>
     </g>
    </g>
    <g id="ytick_10">
     <g id="line2d_25">
      <g>
       <use xlink:href="#m6c45400599" x="648" y="154.163118" style="stroke: #000000; stroke-width: 0.8"/>
      </g>
     </g>
     <g id="text_20">
      <!-- $\mathdefault{60}$ -->
      <g transform="translate(655 159.179023) scale(0.145 -0.145)">
       <use xlink:href="#CMR17-36" transform="scale(0.996264)"/>
       <use xlink:href="#CMR17-30" transform="translate(45.690477 0) scale(0.996264)"/>
      </g>
     </g>
    </g>
    <g id="ytick_11">
     <g id="line2d_26">
      <g>
       <use xlink:href="#m6c45400599" x="648" y="98.750825" style="stroke: #000000; stroke-width: 0.8"/>
      </g>
     </g>
     <g id="text_21">
      <!-- $\mathdefault{80}$ -->
      <g transform="translate(655 103.766729) scale(0.145 -0.145)">
       <use xlink:href="#CMR17-38" transform="scale(0.996264)"/>
       <use xlink:href="#CMR17-30" transform="translate(45.690477 0) scale(0.996264)"/>
      </g>
     </g>
    </g>
    <g id="ytick_12">
     <g id="line2d_27">
      <g>
       <use xlink:href="#m6c45400599" x="648" y="43.338531" style="stroke: #000000; stroke-width: 0.8"/>
      </g>
     </g>
     <g id="text_22">
      <!-- $\mathdefault{100}$ -->
      <g transform="translate(655 48.354435) scale(0.145 -0.145)">
       <use xlink:href="#CMR17-31" transform="scale(0.996264)"/>
       <use xlink:href="#CMR17-30" transform="translate(45.690477 0) scale(0.996264)"/>
       <use xlink:href="#CMR17-30" transform="translate(91.380954 0) scale(0.996264)"/>
      </g>
     </g>
    </g>
    <g id="text_23">
     <!-- CPU load in \% -->
     <g transform="translate(690.248875 226.102524) rotate(-90) scale(0.145 -0.145)">
      <defs>
       <path id="CMSS17-43" d="M 3501 714 
C 3072 427 2874 344 2355 344 
C 1459 344 934 1303 934 2179 
C 934 3112 1472 4032 2381 4032 
C 2790 4032 3059 3918 3386 3715 
L 3475 4217 
C 3168 4370 2778 4440 2387 4440 
C 1158 4440 397 3316 397 2179 
C 397 927 1299 -64 2323 -64 
C 2874 -64 3066 -19 3539 280 
L 3501 714 
z
" transform="scale(0.015625)"/>
       <path id="CMSS17-50" d="M 2106 1856 
C 2874 1856 3501 2453 3501 3158 
C 3501 3850 2899 4453 2067 4453 
L 570 4453 
L 570 0 
L 1107 0 
L 1107 1856 
L 2106 1856 
z
M 1926 4096 
C 2669 4096 2995 3627 2995 3157 
C 2995 2720 2694 2226 1926 2226 
L 1094 2226 
L 1094 4096 
L 1926 4096 
z
" transform="scale(0.015625)"/>
       <path id="CMSS17-55" d="M 3552 4384 
L 3066 4384 
L 3066 1449 
C 3066 604 2547 229 2074 229 
C 1587 229 1101 623 1101 1443 
L 1101 4384 
L 563 4384 
L 563 1454 
C 563 539 1274 -128 2067 -128 
C 2861 -128 3552 539 3552 1454 
L 3552 4384 
z
" transform="scale(0.015625)"/>
       <path id="CMSS17-6c" d="M 947 4416 
L 474 4416 
L 474 0 
L 947 0 
L 947 4416 
z
" transform="scale(0.015625)"/>
       <path id="CMSS17-61" d="M 2406 1791 
C 2406 2392 1978 2808 1402 2808 
C 1120 2808 813 2757 461 2553 
L 499 2135 
C 659 2248 934 2432 1395 2432 
C 1722 2432 1920 2180 1920 1782 
L 1920 1536 
C 896 1536 256 1238 256 726 
C 256 461 416 -64 947 -64 
C 1043 -64 1562 -64 1933 217 
L 1933 -19 
L 2406 -19 
L 2406 1791 
z
M 1920 816 
C 1920 701 1920 548 1728 434 
C 1562 325 1350 325 1261 325 
C 941 325 723 511 723 744 
C 723 1211 1722 1211 1920 1211 
L 1920 816 
z
" transform="scale(0.015625)"/>
       <path id="CMSS17-64" d="M 2611 4416 
L 2138 4416 
L 2138 2438 
C 1939 2603 1613 2756 1254 2756 
C 672 2756 211 2131 211 1347 
C 211 562 666 -64 1235 -64 
C 1677 -64 1971 172 2125 306 
L 2125 -13 
L 2611 -13 
L 2611 4416 
z
M 2125 836 
C 2125 747 2125 653 1926 482 
C 1798 375 1645 325 1498 325 
C 1152 325 698 576 698 1340 
C 698 2134 1210 2368 1562 2368 
C 1798 2368 1990 2254 2125 2065 
L 2125 836 
z
" transform="scale(0.015625)"/>
       <path id="CMSS17-6e" d="M 2618 1877 
C 2618 2283 2522 2816 1798 2816 
C 1389 2816 1120 2606 941 2389 
L 941 2758 
L 474 2758 
L 474 0 
L 960 0 
L 960 1559 
C 960 1964 1114 2428 1549 2428 
C 2112 2428 2131 2048 2131 1829 
L 2131 0 
L 2618 0 
L 2618 1877 
z
" transform="scale(0.015625)"/>
       <path id="CMSS17-25" d="M 3923 4583 
C 3962 4647 3962 4679 3962 4685 
C 3962 4755 3904 4800 3853 4800 
C 3782 4800 3750 4749 3718 4685 
L 1101 -104 
C 1088 -129 1062 -167 1062 -206 
C 1062 -276 1120 -320 1178 -320 
C 1235 -320 1248 -295 1299 -206 
L 3923 4583 
z
M 4678 959 
C 4678 1698 4282 2240 3846 2240 
C 3418 2240 3008 1711 3008 959 
C 3008 208 3418 -320 3846 -320 
C 4288 -320 4678 221 4678 959 
z
M 3846 68 
C 3712 68 3494 189 3494 959 
C 3494 1724 3712 1851 3846 1851 
C 4083 1851 4211 1386 4211 959 
C 4211 533 4083 68 3846 68 
z
M 2003 3519 
C 2003 4258 1606 4800 1171 4800 
C 742 4800 333 4271 333 3519 
C 333 2768 742 2240 1171 2240 
C 1613 2240 2003 2781 2003 3519 
z
M 1171 2628 
C 1037 2628 819 2749 819 3519 
C 819 4284 1037 4411 1171 4411 
C 1408 4411 1536 3946 1536 3519 
C 1536 3093 1408 2628 1171 2628 
z
" transform="scale(0.015625)"/>
      </defs>
      <use xlink:href="#CMSS17-43" transform="scale(0.996264)"/>
      <use xlink:href="#CMSS17-50" transform="translate(59.855772 0) scale(0.996264)"/>
      <use xlink:href="#CMSS17-55" transform="translate(119.591358 0) scale(0.996264)"/>
      <use xlink:href="#CMSS17-6c" transform="translate(214.960211 0) scale(0.996264)"/>
      <use xlink:href="#CMSS17-6f" transform="translate(237.140934 0) scale(0.996264)"/>
      <use xlink:href="#CMSS17-61" transform="translate(283.984557 0) scale(0.996264)"/>
      <use xlink:href="#CMSS17-64" transform="translate(328.906478 0) scale(0.996264)"/>
      <use xlink:href="#CMSS17-69" transform="translate(408.340534 0) scale(0.996264)"/>
      <use xlink:href="#CMSS17-6e" transform="translate(430.521257 0) scale(0.996264)"/>
      <use xlink:href="#CMSS17-25" transform="translate(509.955313 0) scale(0.996264)"/>
     </g>
    </g>
   </g>
   <g id="line2d_28">
    <path d="M 115.363636 99.308316 
L 180.36237 99.308316 
L 181.775386 209.854158 
L 287.751583 209.854158 
L 289.164599 161.394333 
L 294.816662 161.394333 
L 296.229678 154.581237 
L 402.205875 154.581237 
L 403.618891 265.127079 
L 511.008103 265.127079 
L 512.421119 239.575247 
L 518.073183 239.575247 
L 519.486199 237.490618 
L 622.636364 237.490618 
L 622.636364 237.490618 
" clip-path="url(#pa71d210fd3)" style="fill: none; stroke-dasharray: 5.55,2.4; stroke-dashoffset: 0; stroke: #140e36; stroke-width: 1.5"/>
   </g>
   <g id="patch_6">
    <path d="M 90 320.4 
L 90 43.2 
" style="fill: none; stroke: #000000; stroke-width: 0.8; stroke-linejoin: miter; stroke-linecap: square"/>
   </g>
   <g id="patch_7">
    <path d="M 648 320.4 
L 648 43.2 
" style="fill: none; stroke: #000000; stroke-width: 0.8; stroke-linejoin: miter; stroke-linecap: square"/>
   </g>
   <g id="patch_8">
    <path d="M 90 320.4 
L 648 320.4 
" style="fill: none; stroke: #000000; stroke-width: 0.8; stroke-linejoin: miter; stroke-linecap: square"/>
   </g>
   <g id="patch_9">
    <path d="M 90 43.2 
L 648 43.2 
" style="fill: none; stroke: #000000; stroke-width: 0.8; stroke-linejoin: miter; stroke-linecap: square"/>
   </g>
   <g id="legend_1">
    <g id="patch_10">
     <path d="M 481.7533 313.15 
L 637.85 313.15 
Q 640.75 313.15 640.75 310.25 
L 640.75 246.612516 
Q 640.75 243.712516 637.85 243.712516 
L 481.7533 243.712516 
Q 478.8533 243.712516 478.8533 246.612516 
L 478.8533 310.25 
Q 478.8533 313.15 481.7533 313.15 
z
" style="fill: #ffffff; opacity: 0.7; stroke: #cccccc; stroke-linejoin: miter"/>
    </g>
    <g id="line2d_29">
     <path d="M 484.6533 255.271887 
L 499.1533 255.271887 
L 513.6533 255.271887 
" style="fill: none; stroke: #482475; stroke-width: 2.5; stroke-linecap: square"/>
    </g>
    <g id="text_24">
     <!-- QoS [local] -->
     <g transform="translate(525.2533 260.346887) scale(0.145 -0.145)">
      <defs>
       <path id="CMSS17-5b" d="M 1613 -1600 
L 1613 -1212 
L 1062 -1212 
L 1062 4352 
L 1613 4352 
L 1613 4741 
L 595 4741 
L 595 -1600 
L 1613 -1600 
z
" transform="scale(0.015625)"/>
       <path id="CMSS17-63" d="M 2464 2541 
C 2464 2585 2170 2714 2093 2739 
C 1882 2816 1613 2816 1542 2816 
C 710 2816 211 2093 211 1363 
C 211 595 768 -64 1517 -64 
C 1946 -64 2253 76 2502 242 
L 2464 664 
C 2189 453 1869 337 1523 337 
C 1024 337 698 774 698 1369 
C 698 1831 909 2414 1549 2414 
C 1901 2414 2099 2343 2394 2145 
L 2464 2541 
z
" transform="scale(0.015625)"/>
       <path id="CMSS17-5d" d="M 1146 4741 
L 128 4741 
L 128 4352 
L 678 4352 
L 678 -1212 
L 128 -1212 
L 128 -1600 
L 1146 -1600 
L 1146 4741 
z
" transform="scale(0.015625)"/>
      </defs>
      <use xlink:href="#CMSS17-51" transform="scale(0.996264)"/>
      <use xlink:href="#CMSS17-6f" transform="translate(69.024255 0) scale(0.996264)"/>
      <use xlink:href="#CMSS17-53" transform="translate(115.867879 0) scale(0.996264)"/>
      <use xlink:href="#CMSS17-5b" transform="translate(199.145508 0) scale(0.996264)"/>
      <use xlink:href="#CMSS17-6c" transform="translate(226.330946 0) scale(0.996264)"/>
      <use xlink:href="#CMSS17-6f" transform="translate(248.511669 0) scale(0.996264)"/>
      <use xlink:href="#CMSS17-63" transform="translate(297.957732 0) scale(0.996264)"/>
      <use xlink:href="#CMSS17-61" transform="translate(339.596554 0) scale(0.996264)"/>
      <use xlink:href="#CMSS17-6c" transform="translate(384.518474 0) scale(0.996264)"/>
      <use xlink:href="#CMSS17-5d" transform="translate(406.699197 0) scale(0.996264)"/>
     </g>
    </g>
    <g id="line2d_30">
     <path d="M 484.6533 276.967715 
L 499.1533 276.967715 
L 513.6533 276.967715 
" style="fill: none; stroke: #bddf26; stroke-width: 2.5; stroke-linecap: square"/>
    </g>
    <g id="text_25">
     <!-- QoS [collective] -->
     <g transform="translate(525.2533 282.042715) scale(0.145 -0.145)">
      <defs>
       <path id="CMSS17-76" d="M 2675 2752 
L 2176 2752 
L 1747 1556 
C 1613 1165 1421 627 1389 352 
L 1382 352 
C 1370 468 1318 634 1286 749 
C 1248 890 1197 1056 1158 1172 
L 595 2752 
L 83 2752 
L 1094 0 
L 1664 0 
L 2675 2752 
z
" transform="scale(0.015625)"/>
      </defs>
      <use xlink:href="#CMSS17-51" transform="scale(0.996264)"/>
      <use xlink:href="#CMSS17-6f" transform="translate(69.024255 0) scale(0.996264)"/>
      <use xlink:href="#CMSS17-53" transform="translate(115.867879 0) scale(0.996264)"/>
      <use xlink:href="#CMSS17-5b" transform="translate(199.145508 0) scale(0.996264)"/>
      <use xlink:href="#CMSS17-63" transform="translate(226.330946 0) scale(0.996264)"/>
      <use xlink:href="#CMSS17-6f" transform="translate(267.969769 0) scale(0.996264)"/>
      <use xlink:href="#CMSS17-6c" transform="translate(314.813392 0) scale(0.996264)"/>
      <use xlink:href="#CMSS17-6c" transform="translate(336.994115 0) scale(0.996264)"/>
      <use xlink:href="#CMSS17-65" transform="translate(359.174838 0) scale(0.996264)"/>
      <use xlink:href="#CMSS17-63" transform="translate(400.81366 0) scale(0.996264)"/>
      <use xlink:href="#CMSS17-74" transform="translate(442.452482 0) scale(0.996264)"/>
      <use xlink:href="#CMSS17-69" transform="translate(476.284049 0) scale(0.996264)"/>
      <use xlink:href="#CMSS17-76" transform="translate(498.464772 0) scale(0.996264)"/>
      <use xlink:href="#CMSS17-65" transform="translate(541.464914 0) scale(0.996264)"/>
      <use xlink:href="#CMSS17-5d" transform="translate(583.103736 0) scale(0.996264)"/>
     </g>
    </g>
    <g id="line2d_31">
     <path d="M 484.6533 298.663543 
L 499.1533 298.663543 
L 513.6533 298.663543 
" style="fill: none; stroke-dasharray: 5.55,2.4; stroke-dashoffset: 0; stroke: #140e36; stroke-width: 1.5"/>
    </g>
    <g id="text_26">
     <!-- Load driver (right) -->
     <g transform="translate(525.2533 303.738543) scale(0.145 -0.145)">
      <defs>
       <path id="CMSS17-4c" d="M 1670 414 
C 1594 414 1517 414 1440 414 
L 1101 414 
L 1101 4416 
L 563 4416 
L 563 0 
L 3002 0 
L 3002 414 
L 1670 414 
z
" transform="scale(0.015625)"/>
       <path id="CMSS17-72" d="M 954 1363 
C 954 1965 1395 2368 1958 2368 
L 1958 2789 
C 1549 2789 1165 2585 934 2253 
L 934 2758 
L 480 2758 
L 480 0 
L 954 0 
L 954 1363 
z
" transform="scale(0.015625)"/>
       <path id="CMSS17-67" d="M 2848 2808 
C 2483 2808 2170 2738 1914 2617 
C 1702 2777 1485 2808 1338 2808 
C 781 2808 358 2349 358 1814 
C 358 1468 550 1207 563 1195 
C 448 1035 384 863 384 672 
C 384 448 474 289 544 200 
C 211 -3 166 -314 166 -435 
C 166 -898 749 -1280 1498 -1280 
C 2253 -1280 2835 -898 2835 -428 
C 2835 448 1856 448 1587 448 
L 1069 448 
C 973 448 717 448 717 791 
C 717 921 774 1004 781 1010 
C 877 940 1075 832 1338 832 
C 1869 832 2310 1278 2310 1827 
C 2310 2132 2170 2355 2112 2432 
L 2131 2432 
C 2150 2432 2419 2432 2515 2432 
C 2720 2432 2739 2429 2918 2419 
L 2848 2808 
z
M 1338 1182 
C 1120 1182 813 1315 813 1823 
C 813 2375 1165 2464 1331 2464 
C 1549 2464 1856 2331 1856 1823 
C 1856 1271 1504 1182 1338 1182 
z
M 1581 -10 
C 1734 -10 2381 -10 2381 -442 
C 2381 -714 1984 -929 1504 -929 
C 1018 -929 621 -720 621 -435 
C 621 -403 621 -10 1062 -10 
L 1581 -10 
z
" transform="scale(0.015625)"/>
       <path id="CMSS17-68" d="M 2618 1891 
C 2618 2292 2522 2820 1798 2820 
C 1395 2820 1133 2623 947 2407 
L 947 4448 
L 474 4448 
L 474 32 
L 960 32 
L 960 1573 
C 960 1973 1114 2432 1549 2432 
C 2112 2432 2131 2056 2131 1839 
L 2131 32 
L 2618 32 
L 2618 1891 
z
" transform="scale(0.015625)"/>
      </defs>
      <use xlink:href="#CMSS17-4c" transform="scale(0.996264)"/>
      <use xlink:href="#CMSS17-6f" transform="translate(50.687105 0) scale(0.996264)"/>
      <use xlink:href="#CMSS17-61" transform="translate(97.530729 0) scale(0.996264)"/>
      <use xlink:href="#CMSS17-64" transform="translate(142.452649 0) scale(0.996264)"/>
      <use xlink:href="#CMSS17-64" transform="translate(221.886705 0) scale(0.996264)"/>
      <use xlink:href="#CMSS17-72" transform="translate(270.091649 0) scale(0.996264)"/>
      <use xlink:href="#CMSS17-69" transform="translate(302.001421 0) scale(0.996264)"/>
      <use xlink:href="#CMSS17-76" transform="translate(324.182144 0) scale(0.996264)"/>
      <use xlink:href="#CMSS17-65" transform="translate(367.182286 0) scale(0.996264)"/>
      <use xlink:href="#CMSS17-72" transform="translate(408.821108 0) scale(0.996264)"/>
      <use xlink:href="#CMSS17-28" transform="translate(471.959993 0) scale(0.996264)"/>
      <use xlink:href="#CMSS17-72" transform="translate(508.393907 0) scale(0.996264)"/>
      <use xlink:href="#CMSS17-69" transform="translate(540.30368 0) scale(0.996264)"/>
      <use xlink:href="#CMSS17-67" transform="translate(562.484403 0) scale(0.996264)"/>
      <use xlink:href="#CMSS17-68" transform="translate(609.328026 0) scale(0.996264)"/>
      <use xlink:href="#CMSS17-74" transform="translate(657.53297 0) scale(0.996264)"/>
      <use xlink:href="#CMSS17-29" transform="translate(691.364536 0) scale(0.996264)"/>
     </g>
    </g>
   </g>
  </g>
 </g>
 <defs>
  <clipPath id="pa71d210fd3">
   <rect x="90" y="43.2" width="558" height="277.2"/>
  </clipPath>
 </defs>
</svg>
