<?xml version="1.0" encoding="utf-8" standalone="no"?>
<!DOCTYPE svg PUBLIC "-//W3C//DTD SVG 1.1//EN"
  "http://www.w3.org/Graphics/SVG/1.1/DTD/svg11.dtd">
<svg xmlns:xlink="http://www.w3.org/1999/xlink" width="576pt" height="360pt" viewBox="0 0 576 360" xmlns="http://www.w3.org/2000/svg" version="1.1">
 <metadata>
  <rdf:RDF xmlns:dc="http://purl.org/dc/elements/1.1/" xmlns:cc="http://creativecommons.org/ns#" xmlns:rdf="http://www.w3.org/1999/02/22-rdf-syntax-ns#">
   <cc:Work>
    <dc:type rdf:resource="http://purl.org/dc/dcmitype/StillImage"/>
    <dc:date>2023-12-15T16:06:06.676311</dc:date>
    <dc:format>image/svg+xml</dc:format>
    <dc:creator>
     <cc:Agent>
      <dc:title>Matplotlib v3.8.0, https://matplotlib.org/</dc:title>
     </cc:Agent>
    </dc:creator>
   </cc:Work>
  </rdf:RDF>
 </metadata>
 <defs>
  <style type="text/css">*{stroke-linejoin: round; stroke-linecap: butt}</style>
 </defs>
 <g id="figure_1">
  <g id="patch_1">
   <path d="M 0 360 
L 576 360 
L 576 0 
L 0 0 
z
" style="fill: #ffffff"/>
  </g>
  <g id="axes_1">
   <g id="patch_2">
    <path d="M 72 320.4 
L 518.4 320.4 
L 518.4 43.2 
L 72 43.2 
z
" style="fill: #ffffff"/>
   </g>
   <g id="PolyCollection_1">
    <defs>
     <path id="mdfec430f5a" d="M 92.290909 -49.924401 
L 92.290909 -51.284962 
L 93.421322 -51.284962 
L 94.551735 -51.284962 
L 95.682147 -51.284962 
L 96.81256 -51.284962 
L 97.942973 -51.284962 
L 99.073386 -51.284962 
L 100.203798 -51.284962 
L 101.334211 -51.284962 
L 102.464624 -51.284962 
L 103.595037 -51.284962 
L 104.725449 -51.284962 
L 105.855862 -51.284962 
L 106.986275 -51.284962 
L 108.116688 -51.297462 
L 109.247101 -51.297462 
L 110.377513 -51.297462 
L 111.507926 -51.297462 
L 112.638339 -51.297462 
L 113.768752 -51.297462 
L 114.899164 -51.300875 
L 116.029577 -51.300875 
L 117.15999 -51.300875 
L 118.290403 -51.300875 
L 119.420815 -51.300875 
L 120.551228 -51.284962 
L 121.681641 -51.284962 
L 122.812054 -51.284962 
L 123.942466 -51.284962 
L 125.072879 -51.284962 
L 126.203292 -51.284962 
L 127.333705 -51.284962 
L 128.464117 -51.284962 
L 129.59453 -51.284962 
L 130.724943 -51.284962 
L 131.855356 -51.284962 
L 132.985769 -51.284962 
L 134.116181 -51.284962 
L 135.246594 -51.284962 
L 136.377007 -51.284962 
L 137.50742 -51.284962 
L 138.637832 -51.284962 
L 139.768245 -51.284962 
L 140.898658 -51.284962 
L 142.029071 -51.284962 
L 143.159483 -51.284962 
L 144.289896 -51.284962 
L 145.420309 -74.678545 
L 146.550722 -74.678545 
L 147.681134 -74.678545 
L 148.811547 -74.678545 
L 149.94196 -74.678545 
L 151.072373 -82.892344 
L 152.202786 -82.892344 
L 153.333198 -82.892344 
L 154.463611 -82.892344 
L 155.594024 -82.892344 
L 156.724437 -82.892344 
L 157.854849 -82.932204 
L 158.985262 -82.932204 
L 160.115675 -82.932204 
L 161.246088 -82.932204 
L 162.3765 -82.932204 
L 163.506913 -82.932204 
L 164.637326 -82.932204 
L 165.767739 -82.932204 
L 166.898151 -82.932204 
L 168.028564 -82.932204 
L 169.158977 -82.936924 
L 170.28939 -82.936924 
L 171.419802 -82.936924 
L 172.550215 -82.936924 
L 173.680628 -82.936924 
L 174.811041 -82.936924 
L 175.941454 -82.935988 
L 177.071866 -82.935988 
L 178.202279 -82.935988 
L 179.332692 -82.935988 
L 180.463105 -82.935988 
L 181.593517 -82.935988 
L 182.72393 -82.935988 
L 183.854343 -82.935988 
L 184.984756 -82.935988 
L 186.115168 -82.935988 
L 187.245581 -82.935988 
L 188.375994 -82.935988 
L 189.506407 -82.935988 
L 190.636819 -82.935988 
L 191.767232 -82.935988 
L 192.897645 -82.935988 
L 194.028058 -82.935988 
L 195.15847 -82.935988 
L 196.288883 -82.935988 
L 197.419296 -82.935988 
L 198.549709 -82.935988 
L 199.680122 -82.935988 
L 200.810534 -82.935988 
L 201.940947 -82.935988 
L 203.07136 -82.935988 
L 204.201773 -82.935988 
L 205.332185 -82.935988 
L 206.462598 -82.924871 
L 207.593011 -82.924871 
L 208.723424 -82.924871 
L 209.853836 -82.924871 
L 210.984249 -82.924871 
L 212.114662 -82.924871 
L 213.245075 -82.924871 
L 214.375487 -82.924871 
L 215.5059 -82.924871 
L 216.636313 -82.924871 
L 217.766726 -82.924871 
L 218.897139 -82.924871 
L 220.027551 -82.924871 
L 221.157964 -82.924871 
L 222.288377 -82.924871 
L 223.41879 -82.924871 
L 224.549202 -82.902683 
L 225.679615 -82.902683 
L 226.810028 -82.902683 
L 227.940441 -82.902683 
L 229.070853 -82.902683 
L 230.201266 -82.902683 
L 231.331679 -81.574258 
L 232.462092 -81.574258 
L 233.592504 -81.574258 
L 234.722917 -81.574258 
L 235.85333 -81.574258 
L 236.983743 -66.811683 
L 238.114155 -66.811683 
L 239.244568 -66.811683 
L 240.374981 -66.811683 
L 241.505394 -66.811683 
L 242.635807 -66.811683 
L 243.766219 -66.589123 
L 244.896632 -66.589123 
L 246.027045 -66.589123 
L 247.157458 -66.589123 
L 248.28787 -66.589123 
L 249.418283 -66.605719 
L 250.548696 -66.605719 
L 251.679109 -66.605719 
L 252.809521 -66.605719 
L 253.939934 -66.605719 
L 255.070347 -66.605719 
L 256.20076 -66.605719 
L 257.331172 -66.605719 
L 258.461585 -66.605719 
L 259.591998 -66.605719 
L 260.722411 -66.605719 
L 261.852823 -66.605719 
L 262.983236 -66.605719 
L 264.113649 -66.605719 
L 265.244062 -66.605719 
L 266.374475 -66.605719 
L 267.504887 -66.605719 
L 268.6353 -66.605719 
L 269.765713 -66.605719 
L 270.896126 -66.605719 
L 272.026538 -66.605719 
L 273.156951 -66.605719 
L 274.287364 -66.605719 
L 275.417777 -66.605719 
L 276.548189 -66.605719 
L 277.678602 -66.605719 
L 278.809015 -66.605719 
L 279.939428 -66.605719 
L 281.06984 -66.605719 
L 282.200253 -66.605719 
L 283.330666 -66.605719 
L 284.461079 -66.605719 
L 285.591492 -66.605719 
L 286.721904 -66.605719 
L 287.852317 -66.605719 
L 288.98273 -66.605719 
L 290.113143 -66.605719 
L 291.243555 -66.605719 
L 292.373968 -66.605719 
L 293.504381 -66.605719 
L 294.634794 -66.605719 
L 295.765206 -66.605719 
L 296.895619 -66.605719 
L 298.026032 -66.605719 
L 299.156445 -66.605719 
L 300.286857 -66.605719 
L 301.41727 -66.605719 
L 302.547683 -66.605719 
L 303.678096 -66.605719 
L 304.808508 -66.605719 
L 305.938921 -66.605719 
L 307.069334 -66.605719 
L 308.199747 -66.605719 
L 309.33016 -66.605719 
L 310.460572 -66.605719 
L 311.590985 -66.605719 
L 312.721398 -66.605719 
L 313.851811 -66.605719 
L 314.982223 -66.605719 
L 316.112636 -66.605719 
L 317.243049 -66.605719 
L 318.373462 -66.605719 
L 319.503874 -66.605719 
L 320.634287 -66.605719 
L 321.7647 -66.605719 
L 322.895113 -93.506424 
L 324.025525 -93.506424 
L 325.155938 -93.506424 
L 326.286351 -93.506424 
L 327.416764 -93.506424 
L 328.547177 -93.506424 
L 329.677589 -97.86282 
L 330.808002 -97.86282 
L 331.938415 -97.86282 
L 333.068828 -97.86282 
L 334.19924 -97.86282 
L 335.329653 -97.86282 
L 336.460066 -97.86282 
L 337.590479 -97.86282 
L 338.720891 -97.86282 
L 339.851304 -97.86282 
L 340.981717 -97.86282 
L 342.11213 -97.86282 
L 343.242542 -97.86282 
L 344.372955 -97.86282 
L 345.503368 -97.86282 
L 346.633781 -97.86282 
L 347.764193 -97.86282 
L 348.894606 -97.86282 
L 350.025019 -97.86282 
L 351.155432 -97.86282 
L 352.285845 -97.86282 
L 353.416257 -97.86282 
L 354.54667 -97.86282 
L 355.677083 -97.86282 
L 356.807496 -97.86282 
L 357.937908 -97.86282 
L 359.068321 -97.86282 
L 360.198734 -97.86282 
L 361.329147 -97.86282 
L 362.459559 -97.86282 
L 363.589972 -97.86282 
L 364.720385 -97.86282 
L 365.850798 -97.86282 
L 366.98121 -97.86282 
L 368.111623 -97.86282 
L 369.242036 -97.86282 
L 370.372449 -97.86282 
L 371.502861 -97.86282 
L 372.633274 -97.876342 
L 373.763687 -97.876342 
L 374.8941 -97.876342 
L 376.024513 -97.876342 
L 377.154925 -97.876342 
L 378.285338 -97.869248 
L 379.415751 -97.869248 
L 380.546164 -97.869248 
L 381.676576 -97.869248 
L 382.806989 -97.869248 
L 383.937402 -97.869248 
L 385.067815 -97.876342 
L 386.198227 -97.876342 
L 387.32864 -97.876342 
L 388.459053 -97.876342 
L 389.589466 -97.876342 
L 390.719878 -97.876342 
L 391.850291 -97.876342 
L 392.980704 -97.876342 
L 394.111117 -97.876342 
L 395.24153 -97.876342 
L 396.371942 -97.876342 
L 397.502355 -97.950585 
L 398.632768 -97.950585 
L 399.763181 -97.950585 
L 400.893593 -97.950585 
L 402.024006 -97.950585 
L 403.154419 -97.876342 
L 404.284832 -97.876342 
L 405.415244 -97.876342 
L 406.545657 -97.876342 
L 407.67607 -97.876342 
L 408.806483 -97.876342 
L 409.936895 -95.299185 
L 411.067308 -95.299185 
L 412.197721 -95.299185 
L 413.328134 -95.299185 
L 414.458546 -95.299185 
L 415.588959 -90.506346 
L 416.719372 -90.506346 
L 417.849785 -90.506346 
L 418.980198 -90.506346 
L 420.11061 -90.506346 
L 421.241023 -90.506346 
L 422.371436 -90.446713 
L 423.501849 -90.446713 
L 424.632261 -90.446713 
L 425.762674 -90.446713 
L 426.893087 -90.446713 
L 428.0235 -90.466196 
L 429.153912 -90.466196 
L 430.284325 -90.466196 
L 431.414738 -90.466196 
L 432.545151 -90.466196 
L 433.675563 -90.446713 
L 434.805976 -90.446713 
L 435.936389 -90.446713 
L 437.066802 -90.446713 
L 438.197214 -90.446713 
L 439.327627 -90.446713 
L 440.45804 -90.446713 
L 441.588453 -90.446713 
L 442.718866 -90.446713 
L 443.849278 -90.446713 
L 444.979691 -90.446713 
L 446.110104 -90.446713 
L 447.240517 -90.446713 
L 448.370929 -90.446713 
L 449.501342 -90.446713 
L 450.631755 -90.446713 
L 451.762168 -90.446713 
L 452.89258 -90.446713 
L 454.022993 -90.446713 
L 455.153406 -90.446713 
L 456.283819 -90.446713 
L 457.414231 -90.446713 
L 458.544644 -90.446713 
L 459.675057 -90.446713 
L 460.80547 -90.446713 
L 461.935883 -90.446713 
L 463.066295 -90.446713 
L 464.196708 -90.446713 
L 465.327121 -90.446713 
L 466.457534 -90.446713 
L 467.587946 -90.446713 
L 468.718359 -90.446713 
L 469.848772 -90.446713 
L 470.979185 -90.446713 
L 472.109597 -90.446713 
L 473.24001 -90.446713 
L 474.370423 -90.446713 
L 475.500836 -90.446713 
L 476.631248 -90.451091 
L 477.761661 -90.451091 
L 478.892074 -90.451091 
L 480.022487 -90.451091 
L 481.152899 -90.451091 
L 482.283312 -90.451091 
L 483.413725 -90.446713 
L 484.544138 -90.446713 
L 485.674551 -90.446713 
L 486.804963 -90.446713 
L 487.935376 -90.446713 
L 489.065789 -90.446713 
L 490.196202 -90.446713 
L 491.326614 -90.446713 
L 492.457027 -90.446713 
L 493.58744 -90.446713 
L 494.717853 -90.446713 
L 495.848265 -90.446713 
L 496.978678 -90.446713 
L 498.109091 -90.446713 
L 498.109091 -86.461799 
L 498.109091 -86.461799 
L 496.978678 -86.461799 
L 495.848265 -86.461799 
L 494.717853 -86.461799 
L 493.58744 -86.461799 
L 492.457027 -86.461799 
L 491.326614 -86.461799 
L 490.196202 -86.461799 
L 489.065789 -86.461799 
L 487.935376 -86.461799 
L 486.804963 -86.461799 
L 485.674551 -86.461799 
L 484.544138 -86.461799 
L 483.413725 -86.461799 
L 482.283312 -86.401981 
L 481.152899 -86.401981 
L 480.022487 -86.401981 
L 478.892074 -86.401981 
L 477.761661 -86.401981 
L 476.631248 -86.401981 
L 475.500836 -86.461799 
L 474.370423 -86.461799 
L 473.24001 -86.461799 
L 472.109597 -86.461799 
L 470.979185 -86.461799 
L 469.848772 -86.461799 
L 468.718359 -86.461799 
L 467.587946 -86.461799 
L 466.457534 -86.461799 
L 465.327121 -86.461799 
L 464.196708 -86.461799 
L 463.066295 -86.461799 
L 461.935883 -86.461799 
L 460.80547 -86.461799 
L 459.675057 -86.461799 
L 458.544644 -86.461799 
L 457.414231 -86.461799 
L 456.283819 -86.461799 
L 455.153406 -86.461799 
L 454.022993 -86.461799 
L 452.89258 -86.461799 
L 451.762168 -86.461799 
L 450.631755 -86.461799 
L 449.501342 -86.461799 
L 448.370929 -86.461799 
L 447.240517 -86.461799 
L 446.110104 -86.461799 
L 444.979691 -86.461799 
L 443.849278 -86.461799 
L 442.718866 -86.461799 
L 441.588453 -86.461799 
L 440.45804 -86.461799 
L 439.327627 -86.461799 
L 438.197214 -86.461799 
L 437.066802 -86.461799 
L 435.936389 -86.461799 
L 434.805976 -86.461799 
L 433.675563 -86.461799 
L 432.545151 -86.497756 
L 431.414738 -86.497756 
L 430.284325 -86.497756 
L 429.153912 -86.497756 
L 428.0235 -86.497756 
L 426.893087 -86.461799 
L 425.762674 -86.461799 
L 424.632261 -86.461799 
L 423.501849 -86.461799 
L 422.371436 -86.461799 
L 421.241023 -86.513046 
L 420.11061 -86.513046 
L 418.980198 -86.513046 
L 417.849785 -86.513046 
L 416.719372 -86.513046 
L 415.588959 -86.513046 
L 414.458546 -90.556287 
L 413.328134 -90.556287 
L 412.197721 -90.556287 
L 411.067308 -90.556287 
L 409.936895 -90.556287 
L 408.806483 -93.593354 
L 407.67607 -93.593354 
L 406.545657 -93.593354 
L 405.415244 -93.593354 
L 404.284832 -93.593354 
L 403.154419 -93.593354 
L 402.024006 -93.574551 
L 400.893593 -93.574551 
L 399.763181 -93.574551 
L 398.632768 -93.574551 
L 397.502355 -93.574551 
L 396.371942 -93.593354 
L 395.24153 -93.593354 
L 394.111117 -93.593354 
L 392.980704 -93.593354 
L 391.850291 -93.593354 
L 390.719878 -93.593354 
L 389.589466 -93.593354 
L 388.459053 -93.593354 
L 387.32864 -93.593354 
L 386.198227 -93.593354 
L 385.067815 -93.593354 
L 383.937402 -93.54448 
L 382.806989 -93.54448 
L 381.676576 -93.54448 
L 380.546164 -93.54448 
L 379.415751 -93.54448 
L 378.285338 -93.54448 
L 377.154925 -93.593354 
L 376.024513 -93.593354 
L 374.8941 -93.593354 
L 373.763687 -93.593354 
L 372.633274 -93.593354 
L 371.502861 -93.662316 
L 370.372449 -93.662316 
L 369.242036 -93.662316 
L 368.111623 -93.662316 
L 366.98121 -93.662316 
L 365.850798 -93.662316 
L 364.720385 -93.662316 
L 363.589972 -93.662316 
L 362.459559 -93.662316 
L 361.329147 -93.662316 
L 360.198734 -93.662316 
L 359.068321 -93.662316 
L 357.937908 -93.662316 
L 356.807496 -93.662316 
L 355.677083 -93.662316 
L 354.54667 -93.662316 
L 353.416257 -93.662316 
L 352.285845 -93.662316 
L 351.155432 -93.662316 
L 350.025019 -93.662316 
L 348.894606 -93.662316 
L 347.764193 -93.662316 
L 346.633781 -93.662316 
L 345.503368 -93.662316 
L 344.372955 -93.662316 
L 343.242542 -93.662316 
L 342.11213 -93.662316 
L 340.981717 -93.662316 
L 339.851304 -93.662316 
L 338.720891 -93.662316 
L 337.590479 -93.662316 
L 336.460066 -93.662316 
L 335.329653 -93.662316 
L 334.19924 -93.662316 
L 333.068828 -93.662316 
L 331.938415 -93.662316 
L 330.808002 -93.662316 
L 329.677589 -93.662316 
L 328.547177 -89.681064 
L 327.416764 -89.681064 
L 326.286351 -89.681064 
L 325.155938 -89.681064 
L 324.025525 -89.681064 
L 322.895113 -89.681064 
L 321.7647 -64.060342 
L 320.634287 -64.060342 
L 319.503874 -64.060342 
L 318.373462 -64.060342 
L 317.243049 -64.060342 
L 316.112636 -64.060342 
L 314.982223 -64.060342 
L 313.851811 -64.060342 
L 312.721398 -64.060342 
L 311.590985 -64.060342 
L 310.460572 -64.060342 
L 309.33016 -64.060342 
L 308.199747 -64.060342 
L 307.069334 -64.060342 
L 305.938921 -64.060342 
L 304.808508 -64.060342 
L 303.678096 -64.060342 
L 302.547683 -64.060342 
L 301.41727 -64.060342 
L 300.286857 -64.060342 
L 299.156445 -64.060342 
L 298.026032 -64.060342 
L 296.895619 -64.060342 
L 295.765206 -64.060342 
L 294.634794 -64.060342 
L 293.504381 -64.060342 
L 292.373968 -64.060342 
L 291.243555 -64.060342 
L 290.113143 -64.060342 
L 288.98273 -64.060342 
L 287.852317 -64.060342 
L 286.721904 -64.060342 
L 285.591492 -64.060342 
L 284.461079 -64.060342 
L 283.330666 -64.060342 
L 282.200253 -64.060342 
L 281.06984 -64.060342 
L 279.939428 -64.060342 
L 278.809015 -64.060342 
L 277.678602 -64.060342 
L 276.548189 -64.060342 
L 275.417777 -64.060342 
L 274.287364 -64.060342 
L 273.156951 -64.060342 
L 272.026538 -64.060342 
L 270.896126 -64.060342 
L 269.765713 -64.060342 
L 268.6353 -64.060342 
L 267.504887 -64.060342 
L 266.374475 -64.060342 
L 265.244062 -64.060342 
L 264.113649 -64.060342 
L 262.983236 -64.060342 
L 261.852823 -64.060342 
L 260.722411 -64.060342 
L 259.591998 -64.060342 
L 258.461585 -64.060342 
L 257.331172 -64.060342 
L 256.20076 -64.060342 
L 255.070347 -64.060342 
L 253.939934 -64.060342 
L 252.809521 -64.060342 
L 251.679109 -64.060342 
L 250.548696 -64.060342 
L 249.418283 -64.060342 
L 248.28787 -64.021392 
L 247.157458 -64.021392 
L 246.027045 -64.021392 
L 244.896632 -64.021392 
L 243.766219 -64.021392 
L 242.635807 -64.354922 
L 241.505394 -64.354922 
L 240.374981 -64.354922 
L 239.244568 -64.354922 
L 238.114155 -64.354922 
L 236.983743 -64.354922 
L 235.85333 -77.381726 
L 234.722917 -77.381726 
L 233.592504 -77.381726 
L 232.462092 -77.381726 
L 231.331679 -77.381726 
L 230.201266 -79.109893 
L 229.070853 -79.109893 
L 227.940441 -79.109893 
L 226.810028 -79.109893 
L 225.679615 -79.109893 
L 224.549202 -79.109893 
L 223.41879 -79.088233 
L 222.288377 -79.088233 
L 221.157964 -79.088233 
L 220.027551 -79.088233 
L 218.897139 -79.088233 
L 217.766726 -79.088233 
L 216.636313 -79.088233 
L 215.5059 -79.088233 
L 214.375487 -79.088233 
L 213.245075 -79.088233 
L 212.114662 -79.088233 
L 210.984249 -79.088233 
L 209.853836 -79.088233 
L 208.723424 -79.088233 
L 207.593011 -79.088233 
L 206.462598 -79.088233 
L 205.332185 -79.132556 
L 204.201773 -79.132556 
L 203.07136 -79.132556 
L 201.940947 -79.132556 
L 200.810534 -79.132556 
L 199.680122 -79.132556 
L 198.549709 -79.132556 
L 197.419296 -79.132556 
L 196.288883 -79.132556 
L 195.15847 -79.132556 
L 194.028058 -79.132556 
L 192.897645 -79.132556 
L 191.767232 -79.132556 
L 190.636819 -79.132556 
L 189.506407 -79.132556 
L 188.375994 -79.132556 
L 187.245581 -79.132556 
L 186.115168 -79.132556 
L 184.984756 -79.132556 
L 183.854343 -79.132556 
L 182.72393 -79.132556 
L 181.593517 -79.132556 
L 180.463105 -79.132556 
L 179.332692 -79.132556 
L 178.202279 -79.132556 
L 177.071866 -79.132556 
L 175.941454 -79.132556 
L 174.811041 -79.353908 
L 173.680628 -79.353908 
L 172.550215 -79.353908 
L 171.419802 -79.353908 
L 170.28939 -79.353908 
L 169.158977 -79.353908 
L 168.028564 -79.303188 
L 166.898151 -79.303188 
L 165.767739 -79.303188 
L 164.637326 -79.303188 
L 163.506913 -79.303188 
L 162.3765 -79.303188 
L 161.246088 -79.303188 
L 160.115675 -79.303188 
L 158.985262 -79.303188 
L 157.854849 -79.303188 
L 156.724437 -79.287608 
L 155.594024 -79.287608 
L 154.463611 -79.287608 
L 153.333198 -79.287608 
L 152.202786 -79.287608 
L 151.072373 -79.287608 
L 149.94196 -70.493999 
L 148.811547 -70.493999 
L 147.681134 -70.493999 
L 146.550722 -70.493999 
L 145.420309 -70.493999 
L 144.289896 -49.924401 
L 143.159483 -49.924401 
L 142.029071 -49.924401 
L 140.898658 -49.924401 
L 139.768245 -49.924401 
L 138.637832 -49.924401 
L 137.50742 -49.924401 
L 136.377007 -49.924401 
L 135.246594 -49.924401 
L 134.116181 -49.924401 
L 132.985769 -49.924401 
L 131.855356 -49.924401 
L 130.724943 -49.924401 
L 129.59453 -49.924401 
L 128.464117 -49.924401 
L 127.333705 -49.924401 
L 126.203292 -49.924401 
L 125.072879 -49.924401 
L 123.942466 -49.924401 
L 122.812054 -49.924401 
L 121.681641 -49.924401 
L 120.551228 -49.924401 
L 119.420815 -49.964086 
L 118.290403 -49.964086 
L 117.15999 -49.964086 
L 116.029577 -49.964086 
L 114.899164 -49.964086 
L 113.768752 -49.856303 
L 112.638339 -49.856303 
L 111.507926 -49.856303 
L 110.377513 -49.856303 
L 109.247101 -49.856303 
L 108.116688 -49.856303 
L 106.986275 -49.924401 
L 105.855862 -49.924401 
L 104.725449 -49.924401 
L 103.595037 -49.924401 
L 102.464624 -49.924401 
L 101.334211 -49.924401 
L 100.203798 -49.924401 
L 99.073386 -49.924401 
L 97.942973 -49.924401 
L 96.81256 -49.924401 
L 95.682147 -49.924401 
L 94.551735 -49.924401 
L 93.421322 -49.924401 
L 92.290909 -49.924401 
z
" style="stroke: #482475; stroke-opacity: 0.2"/>
    </defs>
    <g clip-path="url(#p6cd33fb109)">
     <use xlink:href="#mdfec430f5a" x="0" y="360" style="fill: #482475; fill-opacity: 0.2; stroke: #482475; stroke-opacity: 0.2"/>
    </g>
   </g>
   <g id="PolyCollection_2">
    <defs>
     <path id="m6b3304718f" d="M 92.290909 -59.031066 
L 92.290909 -61.130488 
L 93.421322 -61.130488 
L 94.551735 -61.130488 
L 95.682147 -61.095978 
L 96.81256 -61.095978 
L 97.942973 -61.095978 
L 99.073386 -61.095978 
L 100.203798 -61.095978 
L 101.334211 -61.095978 
L 102.464624 -61.130488 
L 103.595037 -61.130488 
L 104.725449 -61.130488 
L 105.855862 -61.130488 
L 106.986275 -61.130488 
L 108.116688 -61.130488 
L 109.247101 -61.130488 
L 110.377513 -61.130488 
L 111.507926 -61.130488 
L 112.638339 -61.130488 
L 113.768752 -61.130488 
L 114.899164 -61.130488 
L 116.029577 -61.130488 
L 117.15999 -61.130488 
L 118.290403 -61.130488 
L 119.420815 -61.130488 
L 120.551228 -61.130488 
L 121.681641 -61.130488 
L 122.812054 -61.130488 
L 123.942466 -61.130488 
L 125.072879 -61.130488 
L 126.203292 -61.097056 
L 127.333705 -61.097056 
L 128.464117 -61.097056 
L 129.59453 -61.097056 
L 130.724943 -61.097056 
L 131.855356 -61.097056 
L 132.985769 -61.130488 
L 134.116181 -61.130488 
L 135.246594 -61.130488 
L 136.377007 -61.130488 
L 137.50742 -61.130488 
L 138.637832 -61.130488 
L 139.768245 -61.130488 
L 140.898658 -61.130488 
L 142.029071 -61.130488 
L 143.159483 -61.130488 
L 144.289896 -61.130488 
L 145.420309 -96.611416 
L 146.550722 -96.611416 
L 147.681134 -96.611416 
L 148.811547 -96.611416 
L 149.94196 -96.611416 
L 151.072373 -114.142335 
L 152.202786 -114.142335 
L 153.333198 -114.142335 
L 154.463611 -114.142335 
L 155.594024 -114.142335 
L 156.724437 -114.142335 
L 157.854849 -116.185804 
L 158.985262 -116.185804 
L 160.115675 -116.185804 
L 161.246088 -116.185804 
L 162.3765 -116.185804 
L 163.506913 -116.208547 
L 164.637326 -116.208547 
L 165.767739 -116.208547 
L 166.898151 -116.208547 
L 168.028564 -116.208547 
L 169.158977 -116.100101 
L 170.28939 -116.100101 
L 171.419802 -116.100101 
L 172.550215 -116.100101 
L 173.680628 -116.100101 
L 174.811041 -116.100101 
L 175.941454 -116.202664 
L 177.071866 -116.202664 
L 178.202279 -116.202664 
L 179.332692 -116.202664 
L 180.463105 -116.202664 
L 181.593517 -116.185804 
L 182.72393 -116.185804 
L 183.854343 -116.185804 
L 184.984756 -116.185804 
L 186.115168 -116.185804 
L 187.245581 -116.185804 
L 188.375994 -116.185804 
L 189.506407 -116.185804 
L 190.636819 -116.185804 
L 191.767232 -116.185804 
L 192.897645 -116.185804 
L 194.028058 -116.185804 
L 195.15847 -116.185804 
L 196.288883 -116.185804 
L 197.419296 -116.185804 
L 198.549709 -116.185804 
L 199.680122 -116.185804 
L 200.810534 -116.185804 
L 201.940947 -116.185804 
L 203.07136 -116.185804 
L 204.201773 -116.185804 
L 205.332185 -116.185804 
L 206.462598 -116.185804 
L 207.593011 -116.185804 
L 208.723424 -116.185804 
L 209.853836 -116.185804 
L 210.984249 -116.185804 
L 212.114662 -116.185804 
L 213.245075 -116.185804 
L 214.375487 -116.185804 
L 215.5059 -116.185804 
L 216.636313 -116.185804 
L 217.766726 -116.185804 
L 218.897139 -116.144863 
L 220.027551 -116.144863 
L 221.157964 -116.144863 
L 222.288377 -116.144863 
L 223.41879 -116.144863 
L 224.549202 -116.208954 
L 225.679615 -116.208954 
L 226.810028 -116.208954 
L 227.940441 -116.208954 
L 229.070853 -116.208954 
L 230.201266 -116.208954 
L 231.331679 -111.115574 
L 232.462092 -111.115574 
L 233.592504 -111.115574 
L 234.722917 -111.115574 
L 235.85333 -111.115574 
L 236.983743 -75.4282 
L 238.114155 -75.4282 
L 239.244568 -75.4282 
L 240.374981 -75.4282 
L 241.505394 -75.4282 
L 242.635807 -75.4282 
L 243.766219 -86.784652 
L 244.896632 -86.784652 
L 246.027045 -86.784652 
L 247.157458 -86.784652 
L 248.28787 -86.784652 
L 249.418283 -88.854082 
L 250.548696 -88.854082 
L 251.679109 -88.854082 
L 252.809521 -88.854082 
L 253.939934 -88.854082 
L 255.070347 -88.854082 
L 256.20076 -88.857286 
L 257.331172 -88.857286 
L 258.461585 -88.857286 
L 259.591998 -88.857286 
L 260.722411 -88.857286 
L 261.852823 -88.857286 
L 262.983236 -88.857286 
L 264.113649 -88.857286 
L 265.244062 -88.857286 
L 266.374475 -88.857286 
L 267.504887 -88.857286 
L 268.6353 -88.857286 
L 269.765713 -88.857286 
L 270.896126 -88.857286 
L 272.026538 -88.857286 
L 273.156951 -88.857286 
L 274.287364 -88.857286 
L 275.417777 -88.857286 
L 276.548189 -88.857286 
L 277.678602 -88.857286 
L 278.809015 -88.857286 
L 279.939428 -88.857286 
L 281.06984 -88.857286 
L 282.200253 -88.857286 
L 283.330666 -88.857286 
L 284.461079 -88.857286 
L 285.591492 -88.857286 
L 286.721904 -88.872233 
L 287.852317 -88.872233 
L 288.98273 -88.872233 
L 290.113143 -88.872233 
L 291.243555 -88.872233 
L 292.373968 -88.857286 
L 293.504381 -88.857286 
L 294.634794 -88.857286 
L 295.765206 -88.857286 
L 296.895619 -88.857286 
L 298.026032 -88.857286 
L 299.156445 -88.857286 
L 300.286857 -88.857286 
L 301.41727 -88.857286 
L 302.547683 -88.857286 
L 303.678096 -88.857286 
L 304.808508 -88.857286 
L 305.938921 -88.857286 
L 307.069334 -88.857286 
L 308.199747 -88.857286 
L 309.33016 -88.857286 
L 310.460572 -88.857286 
L 311.590985 -88.857286 
L 312.721398 -88.857286 
L 313.851811 -88.857286 
L 314.982223 -88.857286 
L 316.112636 -88.857286 
L 317.243049 -88.898271 
L 318.373462 -88.898271 
L 319.503874 -88.898271 
L 320.634287 -88.898271 
L 321.7647 -88.898271 
L 322.895113 -126.043575 
L 324.025525 -126.043575 
L 325.155938 -126.043575 
L 326.286351 -126.043575 
L 327.416764 -126.043575 
L 328.547177 -126.043575 
L 329.677589 -141.662586 
L 330.808002 -141.662586 
L 331.938415 -141.662586 
L 333.068828 -141.662586 
L 334.19924 -141.662586 
L 335.329653 -142.259509 
L 336.460066 -142.259509 
L 337.590479 -142.259509 
L 338.720891 -142.259509 
L 339.851304 -142.259509 
L 340.981717 -142.259509 
L 342.11213 -142.330854 
L 343.242542 -142.330854 
L 344.372955 -142.330854 
L 345.503368 -142.330854 
L 346.633781 -142.330854 
L 347.764193 -142.382683 
L 348.894606 -142.382683 
L 350.025019 -142.382683 
L 351.155432 -142.382683 
L 352.285845 -142.382683 
L 353.416257 -142.382683 
L 354.54667 -142.325802 
L 355.677083 -142.325802 
L 356.807496 -142.325802 
L 357.937908 -142.325802 
L 359.068321 -142.325802 
L 360.198734 -142.330854 
L 361.329147 -142.330854 
L 362.459559 -142.330854 
L 363.589972 -142.330854 
L 364.720385 -142.330854 
L 365.850798 -142.330854 
L 366.98121 -142.330854 
L 368.111623 -142.330854 
L 369.242036 -142.330854 
L 370.372449 -142.330854 
L 371.502861 -142.330854 
L 372.633274 -142.330854 
L 373.763687 -142.330854 
L 374.8941 -142.330854 
L 376.024513 -142.330854 
L 377.154925 -142.330854 
L 378.285338 -142.300395 
L 379.415751 -142.300395 
L 380.546164 -142.300395 
L 381.676576 -142.300395 
L 382.806989 -142.300395 
L 383.937402 -142.300395 
L 385.067815 -142.330854 
L 386.198227 -142.330854 
L 387.32864 -142.330854 
L 388.459053 -142.330854 
L 389.589466 -142.330854 
L 390.719878 -142.330854 
L 391.850291 -142.330854 
L 392.980704 -142.330854 
L 394.111117 -142.330854 
L 395.24153 -142.330854 
L 396.371942 -142.330854 
L 397.502355 -142.25118 
L 398.632768 -142.25118 
L 399.763181 -142.25118 
L 400.893593 -142.25118 
L 402.024006 -142.25118 
L 403.154419 -142.365065 
L 404.284832 -142.365065 
L 405.415244 -142.365065 
L 406.545657 -142.365065 
L 407.67607 -142.365065 
L 408.806483 -142.365065 
L 409.936895 -117.721914 
L 411.067308 -117.721914 
L 412.197721 -117.721914 
L 413.328134 -117.721914 
L 414.458546 -117.721914 
L 415.588959 -123.094297 
L 416.719372 -123.094297 
L 417.849785 -123.094297 
L 418.980198 -123.094297 
L 420.11061 -123.094297 
L 421.241023 -123.094297 
L 422.371436 -129.184635 
L 423.501849 -129.184635 
L 424.632261 -129.184635 
L 425.762674 -129.184635 
L 426.893087 -129.184635 
L 428.0235 -129.484255 
L 429.153912 -129.484255 
L 430.284325 -129.484255 
L 431.414738 -129.484255 
L 432.545151 -129.484255 
L 433.675563 -129.484255 
L 434.805976 -129.484255 
L 435.936389 -129.484255 
L 437.066802 -129.484255 
L 438.197214 -129.484255 
L 439.327627 -129.484255 
L 440.45804 -129.484255 
L 441.588453 -129.484255 
L 442.718866 -129.484255 
L 443.849278 -129.484255 
L 444.979691 -129.484255 
L 446.110104 -129.484255 
L 447.240517 -129.484255 
L 448.370929 -129.484255 
L 449.501342 -129.484255 
L 450.631755 -129.484255 
L 451.762168 -129.484255 
L 452.89258 -129.484255 
L 454.022993 -129.484255 
L 455.153406 -129.484255 
L 456.283819 -129.484255 
L 457.414231 -129.484255 
L 458.544644 -129.484255 
L 459.675057 -129.484255 
L 460.80547 -129.484255 
L 461.935883 -129.484255 
L 463.066295 -129.484255 
L 464.196708 -129.484255 
L 465.327121 -129.484255 
L 466.457534 -129.484255 
L 467.587946 -129.484255 
L 468.718359 -129.484255 
L 469.848772 -129.484255 
L 470.979185 -129.484255 
L 472.109597 -129.484255 
L 473.24001 -129.484255 
L 474.370423 -129.484255 
L 475.500836 -129.484255 
L 476.631248 -129.505405 
L 477.761661 -129.505405 
L 478.892074 -129.505405 
L 480.022487 -129.505405 
L 481.152899 -129.505405 
L 482.283312 -129.505405 
L 483.413725 -129.484255 
L 484.544138 -129.484255 
L 485.674551 -129.484255 
L 486.804963 -129.484255 
L 487.935376 -129.484255 
L 489.065789 -129.484255 
L 490.196202 -129.484255 
L 491.326614 -129.484255 
L 492.457027 -129.484255 
L 493.58744 -129.484255 
L 494.717853 -129.484255 
L 495.848265 -129.484255 
L 496.978678 -129.484255 
L 498.109091 -129.484255 
L 498.109091 -126.401441 
L 498.109091 -126.401441 
L 496.978678 -126.401441 
L 495.848265 -126.401441 
L 494.717853 -126.401441 
L 493.58744 -126.401441 
L 492.457027 -126.401441 
L 491.326614 -126.401441 
L 490.196202 -126.401441 
L 489.065789 -126.401441 
L 487.935376 -126.401441 
L 486.804963 -126.401441 
L 485.674551 -126.401441 
L 484.544138 -126.401441 
L 483.413725 -126.401441 
L 482.283312 -126.435731 
L 481.152899 -126.435731 
L 480.022487 -126.435731 
L 478.892074 -126.435731 
L 477.761661 -126.435731 
L 476.631248 -126.435731 
L 475.500836 -126.401441 
L 474.370423 -126.401441 
L 473.24001 -126.401441 
L 472.109597 -126.401441 
L 470.979185 -126.401441 
L 469.848772 -126.401441 
L 468.718359 -126.401441 
L 467.587946 -126.401441 
L 466.457534 -126.401441 
L 465.327121 -126.401441 
L 464.196708 -126.401441 
L 463.066295 -126.401441 
L 461.935883 -126.401441 
L 460.80547 -126.401441 
L 459.675057 -126.401441 
L 458.544644 -126.401441 
L 457.414231 -126.401441 
L 456.283819 -126.401441 
L 455.153406 -126.401441 
L 454.022993 -126.401441 
L 452.89258 -126.401441 
L 451.762168 -126.401441 
L 450.631755 -126.401441 
L 449.501342 -126.401441 
L 448.370929 -126.401441 
L 447.240517 -126.401441 
L 446.110104 -126.401441 
L 444.979691 -126.401441 
L 443.849278 -126.401441 
L 442.718866 -126.401441 
L 441.588453 -126.401441 
L 440.45804 -126.401441 
L 439.327627 -126.401441 
L 438.197214 -126.401441 
L 437.066802 -126.401441 
L 435.936389 -126.401441 
L 434.805976 -126.401441 
L 433.675563 -126.401441 
L 432.545151 -126.401441 
L 431.414738 -126.401441 
L 430.284325 -126.401441 
L 429.153912 -126.401441 
L 428.0235 -126.401441 
L 426.893087 -126.089637 
L 425.762674 -126.089637 
L 424.632261 -126.089637 
L 423.501849 -126.089637 
L 422.371436 -126.089637 
L 421.241023 -117.173159 
L 420.11061 -117.173159 
L 418.980198 -117.173159 
L 417.849785 -117.173159 
L 416.719372 -117.173159 
L 415.588959 -117.173159 
L 414.458546 -113.26383 
L 413.328134 -113.26383 
L 412.197721 -113.26383 
L 411.067308 -113.26383 
L 409.936895 -113.26383 
L 408.806483 -138.420583 
L 407.67607 -138.420583 
L 406.545657 -138.420583 
L 405.415244 -138.420583 
L 404.284832 -138.420583 
L 403.154419 -138.420583 
L 402.024006 -138.479028 
L 400.893593 -138.479028 
L 399.763181 -138.479028 
L 398.632768 -138.479028 
L 397.502355 -138.479028 
L 396.371942 -138.510234 
L 395.24153 -138.510234 
L 394.111117 -138.510234 
L 392.980704 -138.510234 
L 391.850291 -138.510234 
L 390.719878 -138.510234 
L 389.589466 -138.510234 
L 388.459053 -138.510234 
L 387.32864 -138.510234 
L 386.198227 -138.510234 
L 385.067815 -138.510234 
L 383.937402 -138.485253 
L 382.806989 -138.485253 
L 381.676576 -138.485253 
L 380.546164 -138.485253 
L 379.415751 -138.485253 
L 378.285338 -138.485253 
L 377.154925 -138.510234 
L 376.024513 -138.510234 
L 374.8941 -138.510234 
L 373.763687 -138.510234 
L 372.633274 -138.510234 
L 371.502861 -138.510234 
L 370.372449 -138.510234 
L 369.242036 -138.510234 
L 368.111623 -138.510234 
L 366.98121 -138.510234 
L 365.850798 -138.510234 
L 364.720385 -138.510234 
L 363.589972 -138.510234 
L 362.459559 -138.510234 
L 361.329147 -138.510234 
L 360.198734 -138.510234 
L 359.068321 -138.459846 
L 357.937908 -138.459846 
L 356.807496 -138.459846 
L 355.677083 -138.459846 
L 354.54667 -138.459846 
L 353.416257 -138.513845 
L 352.285845 -138.513845 
L 351.155432 -138.513845 
L 350.025019 -138.513845 
L 348.894606 -138.513845 
L 347.764193 -138.513845 
L 346.633781 -138.510234 
L 345.503368 -138.510234 
L 344.372955 -138.510234 
L 343.242542 -138.510234 
L 342.11213 -138.510234 
L 340.981717 -138.525611 
L 339.851304 -138.525611 
L 338.720891 -138.525611 
L 337.590479 -138.525611 
L 336.460066 -138.525611 
L 335.329653 -138.525611 
L 334.19924 -137.177382 
L 333.068828 -137.177382 
L 331.938415 -137.177382 
L 330.808002 -137.177382 
L 329.677589 -137.177382 
L 328.547177 -116.003241 
L 327.416764 -116.003241 
L 326.286351 -116.003241 
L 325.155938 -116.003241 
L 324.025525 -116.003241 
L 322.895113 -116.003241 
L 321.7647 -86.730897 
L 320.634287 -86.730897 
L 319.503874 -86.730897 
L 318.373462 -86.730897 
L 317.243049 -86.730897 
L 316.112636 -86.716442 
L 314.982223 -86.716442 
L 313.851811 -86.716442 
L 312.721398 -86.716442 
L 311.590985 -86.716442 
L 310.460572 -86.716442 
L 309.33016 -86.716442 
L 308.199747 -86.716442 
L 307.069334 -86.716442 
L 305.938921 -86.716442 
L 304.808508 -86.716442 
L 303.678096 -86.716442 
L 302.547683 -86.716442 
L 301.41727 -86.716442 
L 300.286857 -86.716442 
L 299.156445 -86.716442 
L 298.026032 -86.716442 
L 296.895619 -86.716442 
L 295.765206 -86.716442 
L 294.634794 -86.716442 
L 293.504381 -86.716442 
L 292.373968 -86.716442 
L 291.243555 -86.756935 
L 290.113143 -86.756935 
L 288.98273 -86.756935 
L 287.852317 -86.756935 
L 286.721904 -86.756935 
L 285.591492 -86.716442 
L 284.461079 -86.716442 
L 283.330666 -86.716442 
L 282.200253 -86.716442 
L 281.06984 -86.716442 
L 279.939428 -86.716442 
L 278.809015 -86.716442 
L 277.678602 -86.716442 
L 276.548189 -86.716442 
L 275.417777 -86.716442 
L 274.287364 -86.716442 
L 273.156951 -86.716442 
L 272.026538 -86.716442 
L 270.896126 -86.716442 
L 269.765713 -86.716442 
L 268.6353 -86.716442 
L 267.504887 -86.716442 
L 266.374475 -86.716442 
L 265.244062 -86.716442 
L 264.113649 -86.716442 
L 262.983236 -86.716442 
L 261.852823 -86.716442 
L 260.722411 -86.716442 
L 259.591998 -86.716442 
L 258.461585 -86.716442 
L 257.331172 -86.716442 
L 256.20076 -86.716442 
L 255.070347 -86.663678 
L 253.939934 -86.663678 
L 252.809521 -86.663678 
L 251.679109 -86.663678 
L 250.548696 -86.663678 
L 249.418283 -86.663678 
L 248.28787 -83.120468 
L 247.157458 -83.120468 
L 246.027045 -83.120468 
L 244.896632 -83.120468 
L 243.766219 -83.120468 
L 242.635807 -71.133512 
L 241.505394 -71.133512 
L 240.374981 -71.133512 
L 239.244568 -71.133512 
L 238.114155 -71.133512 
L 236.983743 -71.133512 
L 235.85333 -106.919386 
L 234.722917 -106.919386 
L 233.592504 -106.919386 
L 232.462092 -106.919386 
L 231.331679 -106.919386 
L 230.201266 -113.777286 
L 229.070853 -113.777286 
L 227.940441 -113.777286 
L 226.810028 -113.777286 
L 225.679615 -113.777286 
L 224.549202 -113.777286 
L 223.41879 -113.785937 
L 222.288377 -113.785937 
L 221.157964 -113.785937 
L 220.027551 -113.785937 
L 218.897139 -113.785937 
L 217.766726 -113.800436 
L 216.636313 -113.800436 
L 215.5059 -113.800436 
L 214.375487 -113.800436 
L 213.245075 -113.800436 
L 212.114662 -113.800436 
L 210.984249 -113.800436 
L 209.853836 -113.800436 
L 208.723424 -113.800436 
L 207.593011 -113.800436 
L 206.462598 -113.800436 
L 205.332185 -113.800436 
L 204.201773 -113.800436 
L 203.07136 -113.800436 
L 201.940947 -113.800436 
L 200.810534 -113.800436 
L 199.680122 -113.800436 
L 198.549709 -113.800436 
L 197.419296 -113.800436 
L 196.288883 -113.800436 
L 195.15847 -113.800436 
L 194.028058 -113.800436 
L 192.897645 -113.800436 
L 191.767232 -113.800436 
L 190.636819 -113.800436 
L 189.506407 -113.800436 
L 188.375994 -113.800436 
L 187.245581 -113.800436 
L 186.115168 -113.800436 
L 184.984756 -113.800436 
L 183.854343 -113.800436 
L 182.72393 -113.800436 
L 181.593517 -113.800436 
L 180.463105 -113.839016 
L 179.332692 -113.839016 
L 178.202279 -113.839016 
L 177.071866 -113.839016 
L 175.941454 -113.839016 
L 174.811041 -113.663851 
L 173.680628 -113.663851 
L 172.550215 -113.663851 
L 171.419802 -113.663851 
L 170.28939 -113.663851 
L 169.158977 -113.663851 
L 168.028564 -113.833133 
L 166.898151 -113.833133 
L 165.767739 -113.833133 
L 164.637326 -113.833133 
L 163.506913 -113.833133 
L 162.3765 -113.800436 
L 161.246088 -113.800436 
L 160.115675 -113.800436 
L 158.985262 -113.800436 
L 157.854849 -113.800436 
L 156.724437 -111.007953 
L 155.594024 -111.007953 
L 154.463611 -111.007953 
L 153.333198 -111.007953 
L 152.202786 -111.007953 
L 151.072373 -111.007953 
L 149.94196 -92.301176 
L 148.811547 -92.301176 
L 147.681134 -92.301176 
L 146.550722 -92.301176 
L 145.420309 -92.301176 
L 144.289896 -59.031066 
L 143.159483 -59.031066 
L 142.029071 -59.031066 
L 140.898658 -59.031066 
L 139.768245 -59.031066 
L 138.637832 -59.031066 
L 137.50742 -59.031066 
L 136.377007 -59.031066 
L 135.246594 -59.031066 
L 134.116181 -59.031066 
L 132.985769 -59.031066 
L 131.855356 -59.008952 
L 130.724943 -59.008952 
L 129.59453 -59.008952 
L 128.464117 -59.008952 
L 127.333705 -59.008952 
L 126.203292 -59.008952 
L 125.072879 -59.031066 
L 123.942466 -59.031066 
L 122.812054 -59.031066 
L 121.681641 -59.031066 
L 120.551228 -59.031066 
L 119.420815 -59.031066 
L 118.290403 -59.031066 
L 117.15999 -59.031066 
L 116.029577 -59.031066 
L 114.899164 -59.031066 
L 113.768752 -59.031066 
L 112.638339 -59.031066 
L 111.507926 -59.031066 
L 110.377513 -59.031066 
L 109.247101 -59.031066 
L 108.116688 -59.031066 
L 106.986275 -59.031066 
L 105.855862 -59.031066 
L 104.725449 -59.031066 
L 103.595037 -59.031066 
L 102.464624 -59.031066 
L 101.334211 -58.954484 
L 100.203798 -58.954484 
L 99.073386 -58.954484 
L 97.942973 -58.954484 
L 96.81256 -58.954484 
L 95.682147 -58.954484 
L 94.551735 -59.031066 
L 93.421322 -59.031066 
L 92.290909 -59.031066 
z
" style="stroke: #bddf26; stroke-opacity: 0.2"/>
    </defs>
    <g clip-path="url(#p6cd33fb109)">
     <use xlink:href="#m6b3304718f" x="0" y="360" style="fill: #bddf26; fill-opacity: 0.2; stroke: #bddf26; stroke-opacity: 0.2"/>
    </g>
   </g>
   <g id="matplotlib.axis_1">
    <g id="xtick_1">
     <g id="line2d_1">
      <defs>
       <path id="m96c139dfb9" d="M 0 0 
L 0 3.5 
" style="stroke: #000000; stroke-width: 0.8"/>
      </defs>
      <g>
       <use xlink:href="#m96c139dfb9" x="116.88595" y="320.4" style="stroke: #000000; stroke-width: 0.8"/>
      </g>
     </g>
     <g id="text_1">
      <!-- $\mathdefault{100}$ -->
      <g transform="translate(106.277417 337.431808) scale(0.145 -0.145)">
       <defs>
        <path id="CMR17-31" d="M 1702 4058 
C 1702 4192 1696 4192 1606 4192 
C 1357 3916 979 3827 621 3827 
C 602 3827 570 3827 563 3808 
C 557 3795 557 3782 557 3648 
C 755 3648 1088 3686 1344 3839 
L 1344 461 
C 1344 236 1331 160 781 160 
L 589 160 
L 589 0 
C 896 0 1216 0 1523 0 
C 1830 0 2150 0 2458 0 
L 2458 160 
L 2266 160 
C 1715 160 1702 230 1702 458 
L 1702 4058 
z
" transform="scale(0.015625)"/>
        <path id="CMR17-30" d="M 2688 2025 
C 2688 2416 2682 3080 2413 3591 
C 2176 4039 1798 4198 1466 4198 
C 1158 4198 768 4058 525 3597 
C 269 3118 243 2524 243 2025 
C 243 1661 250 1106 448 619 
C 723 -39 1216 -128 1466 -128 
C 1760 -128 2208 -7 2470 600 
C 2662 1042 2688 1559 2688 2025 
z
M 1466 -26 
C 1056 -26 813 325 723 812 
C 653 1188 653 1738 653 2096 
C 653 2588 653 2997 736 3387 
C 858 3929 1216 4096 1466 4096 
C 1728 4096 2067 3923 2189 3400 
C 2272 3036 2278 2607 2278 2096 
C 2278 1680 2278 1169 2202 792 
C 2067 95 1690 -26 1466 -26 
z
" transform="scale(0.015625)"/>
       </defs>
       <use xlink:href="#CMR17-31" transform="scale(0.996264)"/>
       <use xlink:href="#CMR17-30" transform="translate(45.690477 0) scale(0.996264)"/>
       <use xlink:href="#CMR17-30" transform="translate(91.380954 0) scale(0.996264)"/>
      </g>
     </g>
    </g>
    <g id="xtick_2">
     <g id="line2d_2">
      <g>
       <use xlink:href="#m96c139dfb9" x="178.373554" y="320.4" style="stroke: #000000; stroke-width: 0.8"/>
      </g>
     </g>
     <g id="text_2">
      <!-- $\mathdefault{200}$ -->
      <g transform="translate(167.76502 337.431808) scale(0.145 -0.145)">
       <defs>
        <path id="CMR17-32" d="M 2669 989 
L 2554 989 
C 2490 536 2438 459 2413 420 
C 2381 369 1920 369 1830 369 
L 602 369 
C 832 619 1280 1072 1824 1597 
C 2214 1967 2669 2402 2669 3035 
C 2669 3790 2067 4224 1395 4224 
C 691 4224 262 3604 262 3030 
C 262 2780 448 2748 525 2748 
C 589 2748 781 2787 781 3010 
C 781 3207 614 3264 525 3264 
C 486 3264 448 3258 422 3245 
C 544 3790 915 4058 1306 4058 
C 1862 4058 2227 3617 2227 3035 
C 2227 2479 1901 2000 1536 1584 
L 262 146 
L 262 0 
L 2515 0 
L 2669 989 
z
" transform="scale(0.015625)"/>
       </defs>
       <use xlink:href="#CMR17-32" transform="scale(0.996264)"/>
       <use xlink:href="#CMR17-30" transform="translate(45.690477 0) scale(0.996264)"/>
       <use xlink:href="#CMR17-30" transform="translate(91.380954 0) scale(0.996264)"/>
      </g>
     </g>
    </g>
    <g id="xtick_3">
     <g id="line2d_3">
      <g>
       <use xlink:href="#m96c139dfb9" x="239.861157" y="320.4" style="stroke: #000000; stroke-width: 0.8"/>
      </g>
     </g>
     <g id="text_3">
      <!-- $\mathdefault{300}$ -->
      <g transform="translate(229.252624 337.431808) scale(0.145 -0.145)">
       <defs>
        <path id="CMR17-33" d="M 1414 2157 
C 1984 2157 2234 1662 2234 1090 
C 2234 320 1824 25 1453 25 
C 1114 25 563 194 390 693 
C 422 680 454 680 486 680 
C 640 680 755 782 755 948 
C 755 1133 614 1216 486 1216 
C 378 1216 211 1165 211 926 
C 211 335 787 -128 1466 -128 
C 2176 -128 2720 430 2720 1085 
C 2720 1707 2208 2157 1600 2227 
C 2086 2328 2554 2756 2554 3329 
C 2554 3820 2048 4179 1472 4179 
C 890 4179 378 3829 378 3329 
C 378 3110 544 3072 627 3072 
C 762 3072 877 3155 877 3321 
C 877 3486 762 3569 627 3569 
C 602 3569 570 3569 544 3557 
C 730 3959 1235 4032 1459 4032 
C 1683 4032 2106 3925 2106 3320 
C 2106 3143 2080 2828 1862 2550 
C 1670 2304 1453 2304 1242 2284 
C 1210 2284 1062 2269 1037 2269 
C 992 2263 966 2257 966 2208 
C 966 2163 973 2157 1101 2157 
L 1414 2157 
z
" transform="scale(0.015625)"/>
       </defs>
       <use xlink:href="#CMR17-33" transform="scale(0.996264)"/>
       <use xlink:href="#CMR17-30" transform="translate(45.690477 0) scale(0.996264)"/>
       <use xlink:href="#CMR17-30" transform="translate(91.380954 0) scale(0.996264)"/>
      </g>
     </g>
    </g>
    <g id="xtick_4">
     <g id="line2d_4">
      <g>
       <use xlink:href="#m96c139dfb9" x="301.34876" y="320.4" style="stroke: #000000; stroke-width: 0.8"/>
      </g>
     </g>
     <g id="text_4">
      <!-- $\mathdefault{400}$ -->
      <g transform="translate(290.740227 337.431808) scale(0.145 -0.145)">
       <defs>
        <path id="CMR17-34" d="M 2150 4122 
C 2150 4256 2144 4256 2029 4256 
L 128 1254 
L 128 1088 
L 1779 1088 
L 1779 457 
C 1779 224 1766 160 1318 160 
L 1197 160 
L 1197 0 
C 1402 0 1747 0 1965 0 
C 2182 0 2528 0 2733 0 
L 2733 160 
L 2611 160 
C 2163 160 2150 224 2150 457 
L 2150 1088 
L 2803 1088 
L 2803 1254 
L 2150 1254 
L 2150 4122 
z
M 1798 3703 
L 1798 1254 
L 256 1254 
L 1798 3703 
z
" transform="scale(0.015625)"/>
       </defs>
       <use xlink:href="#CMR17-34" transform="scale(0.996264)"/>
       <use xlink:href="#CMR17-30" transform="translate(45.690477 0) scale(0.996264)"/>
       <use xlink:href="#CMR17-30" transform="translate(91.380954 0) scale(0.996264)"/>
      </g>
     </g>
    </g>
    <g id="xtick_5">
     <g id="line2d_5">
      <g>
       <use xlink:href="#m96c139dfb9" x="362.836364" y="320.4" style="stroke: #000000; stroke-width: 0.8"/>
      </g>
     </g>
     <g id="text_5">
      <!-- $\mathdefault{500}$ -->
      <g transform="translate(352.22783 337.431808) scale(0.145 -0.145)">
       <defs>
        <path id="CMR17-35" d="M 730 3692 
C 794 3666 1056 3584 1325 3584 
C 1920 3584 2246 3911 2432 4100 
C 2432 4157 2432 4192 2394 4192 
C 2387 4192 2374 4192 2323 4163 
C 2099 4058 1837 3973 1517 3973 
C 1325 3973 1037 3999 723 4139 
C 653 4171 640 4171 634 4171 
C 602 4171 595 4164 595 4037 
L 595 2203 
C 595 2089 595 2057 659 2057 
C 691 2057 704 2070 736 2114 
C 941 2401 1222 2522 1542 2522 
C 1766 2522 2246 2382 2246 1289 
C 2246 1085 2246 715 2054 421 
C 1894 159 1645 25 1370 25 
C 947 25 518 320 403 814 
C 429 807 480 795 506 795 
C 589 795 749 840 749 1038 
C 749 1210 627 1280 506 1280 
C 358 1280 262 1190 262 1011 
C 262 454 704 -128 1382 -128 
C 2042 -128 2669 440 2669 1264 
C 2669 2030 2170 2624 1549 2624 
C 1222 2624 947 2503 730 2274 
L 730 3692 
z
" transform="scale(0.015625)"/>
       </defs>
       <use xlink:href="#CMR17-35" transform="scale(0.996264)"/>
       <use xlink:href="#CMR17-30" transform="translate(45.690477 0) scale(0.996264)"/>
       <use xlink:href="#CMR17-30" transform="translate(91.380954 0) scale(0.996264)"/>
      </g>
     </g>
    </g>
    <g id="xtick_6">
     <g id="line2d_6">
      <g>
       <use xlink:href="#m96c139dfb9" x="424.323967" y="320.4" style="stroke: #000000; stroke-width: 0.8"/>
      </g>
     </g>
     <g id="text_6">
      <!-- $\mathdefault{600}$ -->
      <g transform="translate(413.715434 337.431808) scale(0.145 -0.145)">
       <defs>
        <path id="CMR17-36" d="M 678 2176 
C 678 3690 1395 4032 1811 4032 
C 1946 4032 2272 4009 2400 3776 
C 2298 3776 2106 3776 2106 3553 
C 2106 3381 2246 3323 2336 3323 
C 2394 3323 2566 3348 2566 3560 
C 2566 3954 2246 4179 1805 4179 
C 1043 4179 243 3390 243 1984 
C 243 253 966 -128 1478 -128 
C 2099 -128 2688 427 2688 1283 
C 2688 2081 2170 2662 1517 2662 
C 1126 2662 838 2407 678 1960 
L 678 2176 
z
M 1478 25 
C 691 25 691 1200 691 1436 
C 691 1896 909 2560 1504 2560 
C 1613 2560 1926 2560 2138 2120 
C 2253 1870 2253 1609 2253 1289 
C 2253 944 2253 690 2118 434 
C 1978 171 1773 25 1478 25 
z
" transform="scale(0.015625)"/>
       </defs>
       <use xlink:href="#CMR17-36" transform="scale(0.996264)"/>
       <use xlink:href="#CMR17-30" transform="translate(45.690477 0) scale(0.996264)"/>
       <use xlink:href="#CMR17-30" transform="translate(91.380954 0) scale(0.996264)"/>
      </g>
     </g>
    </g>
    <g id="xtick_7">
     <g id="line2d_7">
      <g>
       <use xlink:href="#m96c139dfb9" x="485.81157" y="320.4" style="stroke: #000000; stroke-width: 0.8"/>
      </g>
     </g>
     <g id="text_7">
      <!-- $\mathdefault{700}$ -->
      <g transform="translate(475.203037 337.431808) scale(0.145 -0.145)">
       <defs>
        <path id="CMR17-37" d="M 2886 3941 
L 2886 4081 
L 1382 4081 
C 634 4081 621 4165 595 4288 
L 480 4288 
L 294 3094 
L 410 3094 
C 429 3215 474 3540 550 3661 
C 589 3712 1062 3712 1171 3712 
L 2579 3712 
L 1869 2661 
C 1395 1954 1069 999 1069 165 
C 1069 89 1069 -128 1299 -128 
C 1530 -128 1530 89 1530 171 
L 1530 465 
C 1530 1508 1709 2196 2003 2636 
L 2886 3941 
z
" transform="scale(0.015625)"/>
       </defs>
       <use xlink:href="#CMR17-37" transform="scale(0.996264)"/>
       <use xlink:href="#CMR17-30" transform="translate(45.690477 0) scale(0.996264)"/>
       <use xlink:href="#CMR17-30" transform="translate(91.380954 0) scale(0.996264)"/>
      </g>
     </g>
    </g>
    <g id="text_8">
     <!-- time (s) -->
     <g transform="translate(271.677317 355.075073) scale(0.145 -0.145)">
      <defs>
       <path id="CMSS17-74" d="M 1069 2368 
L 1901 2368 
L 1901 2737 
L 1069 2737 
L 1069 3520 
L 614 3520 
L 614 2737 
L 109 2737 
L 109 2368 
L 602 2368 
L 602 749 
C 602 384 685 -64 1107 -64 
C 1427 -64 1722 25 2003 172 
L 1901 548 
C 1747 414 1562 337 1363 337 
C 1082 337 1069 696 1069 856 
L 1069 2368 
z
" transform="scale(0.015625)"/>
       <path id="CMSS17-69" d="M 979 4183 
L 442 4183 
L 442 3648 
L 979 3648 
L 979 4183 
z
M 947 2739 
L 474 2739 
L 474 0 
L 947 0 
L 947 2739 
z
" transform="scale(0.015625)"/>
       <path id="CMSS17-6d" d="M 4288 1877 
C 4288 2308 4179 2816 3462 2816 
C 2982 2816 2694 2516 2566 2331 
C 2451 2670 2182 2816 1798 2816 
C 1363 2816 1088 2568 941 2389 
L 941 2758 
L 474 2758 
L 474 0 
L 960 0 
L 960 1559 
C 960 1939 1101 2428 1555 2428 
C 2138 2428 2138 2016 2138 1829 
L 2138 0 
L 2624 0 
L 2624 1559 
C 2624 1939 2765 2428 3219 2428 
C 3802 2428 3802 2016 3802 1829 
L 3802 0 
L 4288 0 
L 4288 1877 
z
" transform="scale(0.015625)"/>
       <path id="CMSS17-65" d="M 2502 1377 
C 2502 1590 2490 2003 2285 2345 
C 2061 2713 1696 2816 1421 2816 
C 755 2816 192 2188 192 1375 
C 192 582 774 -64 1510 -64 
C 1798 -64 2150 19 2470 248 
C 2470 274 2458 414 2451 420 
C 2451 433 2432 630 2432 656 
C 2125 407 1773 325 1517 325 
C 1107 325 666 667 646 1377 
L 2502 1377 
z
M 698 1728 
C 781 2084 1062 2421 1421 2421 
C 1517 2421 1965 2421 2080 1728 
L 698 1728 
z
" transform="scale(0.015625)"/>
       <path id="CMSS17-28" d="M 1613 4768 
C 1267 4417 474 3601 474 1588 
C 474 -433 1267 -1243 1613 -1600 
L 2003 -1600 
C 1216 -784 960 357 960 1581 
C 960 2798 1203 3946 2003 4768 
L 1613 4768 
z
" transform="scale(0.015625)"/>
       <path id="CMSS17-73" d="M 2061 2627 
C 1683 2807 1389 2807 1197 2807 
C 742 2807 198 2648 198 2003 
C 198 1359 902 1218 1094 1179 
C 1389 1122 1715 1058 1715 740 
C 1715 337 1254 337 1171 337 
C 915 337 563 407 243 638 
L 166 210 
C 531 0 883 -64 1178 -64 
C 1965 -64 2163 416 2163 781 
C 2163 1094 1984 1305 1862 1401 
C 1651 1568 1574 1587 1050 1696 
C 960 1709 646 1779 646 2066 
C 646 2432 1050 2432 1139 2432 
C 1555 2432 1811 2303 1984 2208 
L 2061 2627 
z
" transform="scale(0.015625)"/>
       <path id="CMSS17-29" d="M 723 -1600 
C 1069 -1249 1862 -433 1862 1581 
C 1862 3601 1069 4411 723 4768 
L 333 4768 
C 1120 3952 1376 2811 1376 1588 
C 1376 370 1133 -778 333 -1600 
L 723 -1600 
z
" transform="scale(0.015625)"/>
      </defs>
      <use xlink:href="#CMSS17-74" transform="scale(0.996264)"/>
      <use xlink:href="#CMSS17-69" transform="translate(33.831567 0) scale(0.996264)"/>
      <use xlink:href="#CMSS17-6d" transform="translate(56.01229 0) scale(0.996264)"/>
      <use xlink:href="#CMSS17-65" transform="translate(130.241544 0) scale(0.996264)"/>
      <use xlink:href="#CMSS17-28" transform="translate(203.109479 0) scale(0.996264)"/>
      <use xlink:href="#CMSS17-73" transform="translate(239.543393 0) scale(0.996264)"/>
      <use xlink:href="#CMSS17-29" transform="translate(275.456935 0) scale(0.996264)"/>
     </g>
    </g>
   </g>
   <g id="matplotlib.axis_2">
    <g id="ytick_1">
     <g id="line2d_8">
      <path d="M 72 320.4 
L 518.4 320.4 
" clip-path="url(#p6cd33fb109)" style="fill: none; stroke-dasharray: 1.85,0.8; stroke-dashoffset: 0; stroke: #808080; stroke-width: 0.5"/>
     </g>
     <g id="line2d_9">
      <defs>
       <path id="mb6d29df954" d="M 0 0 
L -3.5 0 
" style="stroke: #000000; stroke-width: 0.8"/>
      </defs>
      <g>
       <use xlink:href="#mb6d29df954" x="72" y="320.4" style="stroke: #000000; stroke-width: 0.8"/>
      </g>
     </g>
     <g id="text_9">
      <!-- $\mathdefault{0.0}$ -->
      <g transform="translate(46.926206 325.415904) scale(0.145 -0.145)">
       <defs>
        <path id="CMMI12-3a" d="M 1178 307 
C 1178 492 1024 619 870 619 
C 685 619 557 466 557 313 
C 557 128 710 0 864 0 
C 1050 0 1178 153 1178 307 
z
" transform="scale(0.015625)"/>
       </defs>
       <use xlink:href="#CMR17-30" transform="scale(0.996264)"/>
       <use xlink:href="#CMMI12-3a" transform="translate(45.690477 0) scale(0.996264)"/>
       <use xlink:href="#CMR17-30" transform="translate(72.787654 0) scale(0.996264)"/>
      </g>
     </g>
    </g>
    <g id="ytick_2">
     <g id="line2d_10">
      <path d="M 72 267.6 
L 518.4 267.6 
" clip-path="url(#p6cd33fb109)" style="fill: none; stroke-dasharray: 1.85,0.8; stroke-dashoffset: 0; stroke: #808080; stroke-width: 0.5"/>
     </g>
     <g id="line2d_11">
      <g>
       <use xlink:href="#mb6d29df954" x="72" y="267.6" style="stroke: #000000; stroke-width: 0.8"/>
      </g>
     </g>
     <g id="text_10">
      <!-- $\mathdefault{0.2}$ -->
      <g transform="translate(46.926206 272.615904) scale(0.145 -0.145)">
       <use xlink:href="#CMR17-30" transform="scale(0.996264)"/>
       <use xlink:href="#CMMI12-3a" transform="translate(45.690477 0) scale(0.996264)"/>
       <use xlink:href="#CMR17-32" transform="translate(72.787654 0) scale(0.996264)"/>
      </g>
     </g>
    </g>
    <g id="ytick_3">
     <g id="line2d_12">
      <path d="M 72 214.8 
L 518.4 214.8 
" clip-path="url(#p6cd33fb109)" style="fill: none; stroke-dasharray: 1.85,0.8; stroke-dashoffset: 0; stroke: #808080; stroke-width: 0.5"/>
     </g>
     <g id="line2d_13">
      <g>
       <use xlink:href="#mb6d29df954" x="72" y="214.8" style="stroke: #000000; stroke-width: 0.8"/>
      </g>
     </g>
     <g id="text_11">
      <!-- $\mathdefault{0.4}$ -->
      <g transform="translate(46.926206 219.815904) scale(0.145 -0.145)">
       <use xlink:href="#CMR17-30" transform="scale(0.996264)"/>
       <use xlink:href="#CMMI12-3a" transform="translate(45.690477 0) scale(0.996264)"/>
       <use xlink:href="#CMR17-34" transform="translate(72.787654 0) scale(0.996264)"/>
      </g>
     </g>
    </g>
    <g id="ytick_4">
     <g id="line2d_14">
      <path d="M 72 162 
L 518.4 162 
" clip-path="url(#p6cd33fb109)" style="fill: none; stroke-dasharray: 1.85,0.8; stroke-dashoffset: 0; stroke: #808080; stroke-width: 0.5"/>
     </g>
     <g id="line2d_15">
      <g>
       <use xlink:href="#mb6d29df954" x="72" y="162" style="stroke: #000000; stroke-width: 0.8"/>
      </g>
     </g>
     <g id="text_12">
      <!-- $\mathdefault{0.6}$ -->
      <g transform="translate(46.926206 167.015904) scale(0.145 -0.145)">
       <use xlink:href="#CMR17-30" transform="scale(0.996264)"/>
       <use xlink:href="#CMMI12-3a" transform="translate(45.690477 0) scale(0.996264)"/>
       <use xlink:href="#CMR17-36" transform="translate(72.787654 0) scale(0.996264)"/>
      </g>
     </g>
    </g>
    <g id="ytick_5">
     <g id="line2d_16">
      <path d="M 72 109.2 
L 518.4 109.2 
" clip-path="url(#p6cd33fb109)" style="fill: none; stroke-dasharray: 1.85,0.8; stroke-dashoffset: 0; stroke: #808080; stroke-width: 0.5"/>
     </g>
     <g id="line2d_17">
      <g>
       <use xlink:href="#mb6d29df954" x="72" y="109.2" style="stroke: #000000; stroke-width: 0.8"/>
      </g>
     </g>
     <g id="text_13">
      <!-- $\mathdefault{0.8}$ -->
      <g transform="translate(46.926206 114.215904) scale(0.145 -0.145)">
       <defs>
        <path id="CMR17-38" d="M 1741 2264 
C 2144 2467 2554 2773 2554 3263 
C 2554 3841 1990 4179 1472 4179 
C 890 4179 378 3759 378 3180 
C 378 3021 416 2747 666 2505 
C 730 2442 998 2251 1171 2130 
C 883 1983 211 1634 211 934 
C 211 279 838 -128 1459 -128 
C 2144 -128 2720 362 2720 1010 
C 2720 1590 2330 1857 2074 2029 
L 1741 2264 
z
M 902 2822 
C 851 2854 595 3051 595 3351 
C 595 3739 998 4032 1459 4032 
C 1965 4032 2336 3676 2336 3262 
C 2336 2669 1670 2331 1638 2331 
C 1632 2331 1626 2331 1574 2370 
L 902 2822 
z
M 2080 1519 
C 2176 1449 2483 1240 2483 851 
C 2483 381 2010 25 1472 25 
C 890 25 448 438 448 940 
C 448 1443 838 1862 1280 2060 
L 2080 1519 
z
" transform="scale(0.015625)"/>
       </defs>
       <use xlink:href="#CMR17-30" transform="scale(0.996264)"/>
       <use xlink:href="#CMMI12-3a" transform="translate(45.690477 0) scale(0.996264)"/>
       <use xlink:href="#CMR17-38" transform="translate(72.787654 0) scale(0.996264)"/>
      </g>
     </g>
    </g>
    <g id="ytick_6">
     <g id="line2d_18">
      <path d="M 72 56.4 
L 518.4 56.4 
" clip-path="url(#p6cd33fb109)" style="fill: none; stroke-dasharray: 1.85,0.8; stroke-dashoffset: 0; stroke: #808080; stroke-width: 0.5"/>
     </g>
     <g id="line2d_19">
      <g>
       <use xlink:href="#mb6d29df954" x="72" y="56.4" style="stroke: #000000; stroke-width: 0.8"/>
      </g>
     </g>
     <g id="text_14">
      <!-- $\mathdefault{1.0}$ -->
      <g transform="translate(46.926206 61.415904) scale(0.145 -0.145)">
       <use xlink:href="#CMR17-31" transform="scale(0.996264)"/>
       <use xlink:href="#CMMI12-3a" transform="translate(45.690477 0) scale(0.996264)"/>
       <use xlink:href="#CMR17-30" transform="translate(72.787654 0) scale(0.996264)"/>
      </g>
     </g>
    </g>
    <g id="text_15">
     <!-- QoS -->
     <g transform="translate(40.117312 194.481753) rotate(-90) scale(0.145 -0.145)">
      <defs>
       <path id="CMSS17-51" d="M 3200 202 
C 3981 833 4096 1689 4096 2174 
C 4096 3501 3219 4497 2214 4497 
C 1210 4497 333 3497 333 2178 
C 333 847 1222 -128 2214 -128 
C 2438 -128 2630 -77 2765 -26 
L 3302 -832 
L 3930 -832 
L 3200 202 
z
M 2528 324 
C 2438 293 2330 273 2214 273 
C 1523 273 858 993 858 2178 
C 858 3357 1517 4096 2214 4096 
C 2918 4096 3571 3350 3571 2178 
C 3571 1771 3507 1089 2950 566 
L 2490 1210 
L 1939 1210 
L 2528 324 
z
" transform="scale(0.015625)"/>
       <path id="CMSS17-6f" d="M 2829 1356 
C 2829 2176 2221 2816 1504 2816 
C 768 2816 173 2157 173 1356 
C 173 544 787 -64 1498 -64 
C 2227 -64 2829 563 2829 1356 
z
M 1504 337 
C 1050 337 659 709 659 1408 
C 659 2151 1114 2427 1498 2427 
C 1914 2427 2342 2126 2342 1408 
C 2342 683 1926 337 1504 337 
z
" transform="scale(0.015625)"/>
       <path id="CMSS17-53" d="M 2797 4169 
C 2515 4334 2208 4480 1690 4480 
C 864 4480 333 3879 333 3266 
C 333 3025 403 2753 653 2475 
C 902 2196 1184 2121 1542 2033 
C 1690 1994 1939 1924 1984 1906 
C 2342 1767 2515 1444 2515 1140 
C 2515 742 2202 318 1645 318 
C 1453 318 890 318 358 819 
L 269 318 
C 794 -64 1363 -128 1651 -128 
C 2438 -128 3002 488 3002 1186 
C 3002 1440 2925 1763 2656 2061 
C 2394 2347 2163 2410 1638 2549 
C 1338 2626 1146 2677 986 2873 
C 877 3013 819 3146 819 3317 
C 819 3673 1126 4060 1690 4060 
C 1971 4060 2336 4002 2707 3660 
L 2797 4169 
z
" transform="scale(0.015625)"/>
      </defs>
      <use xlink:href="#CMSS17-51" transform="scale(0.996264)"/>
      <use xlink:href="#CMSS17-6f" transform="translate(69.024255 0) scale(0.996264)"/>
      <use xlink:href="#CMSS17-53" transform="translate(115.867879 0) scale(0.996264)"/>
     </g>
    </g>
   </g>
   <g id="line2d_20">
    <path d="M 92.290909 309.395318 
L 144.289896 309.395318 
L 145.420309 287.413728 
L 149.94196 287.413728 
L 151.072373 278.910024 
L 230.201266 278.993712 
L 231.331679 280.522008 
L 235.85333 280.522008 
L 236.983743 294.416698 
L 242.635807 294.416698 
L 243.766219 294.694742 
L 321.7647 294.66697 
L 322.895113 268.406256 
L 328.547177 268.406256 
L 329.677589 264.237432 
L 408.806483 264.265152 
L 409.936895 267.072264 
L 414.458546 267.072264 
L 415.588959 271.490304 
L 498.109091 271.545744 
L 498.109091 271.545744 
" clip-path="url(#p6cd33fb109)" style="fill: none; stroke: #482475; stroke-width: 2.5; stroke-linecap: square"/>
   </g>
   <g id="line2d_21">
    <path d="M 92.290909 299.919223 
L 144.289896 299.919223 
L 145.420309 265.543704 
L 149.94196 265.543704 
L 151.072373 247.424856 
L 156.724437 247.424856 
L 157.854849 245.00688 
L 168.028564 244.97916 
L 169.158977 245.118024 
L 174.811041 245.118024 
L 175.941454 244.97916 
L 230.201266 245.00688 
L 231.331679 250.98252 
L 235.85333 250.98252 
L 236.983743 286.719144 
L 242.635807 286.719144 
L 243.766219 275.04744 
L 248.28787 275.04744 
L 249.418283 272.24112 
L 321.7647 272.185416 
L 322.895113 238.976592 
L 328.547177 238.976592 
L 329.677589 220.580016 
L 334.19924 220.580016 
L 335.329653 219.60744 
L 408.806483 219.607176 
L 409.936895 244.507128 
L 414.458546 244.507128 
L 415.588959 239.866272 
L 421.241023 239.866272 
L 422.371436 232.362864 
L 426.893087 232.362864 
L 428.0235 232.057152 
L 498.109091 232.057152 
L 498.109091 232.057152 
" clip-path="url(#p6cd33fb109)" style="fill: none; stroke: #bddf26; stroke-width: 2.5; stroke-linecap: square"/>
   </g>
   <g id="patch_3">
    <path d="M 72 320.4 
L 72 43.2 
" style="fill: none; stroke: #000000; stroke-width: 0.8; stroke-linejoin: miter; stroke-linecap: square"/>
   </g>
   <g id="patch_4">
    <path d="M 518.4 320.4 
L 518.4 43.2 
" style="fill: none; stroke: #000000; stroke-width: 0.8; stroke-linejoin: miter; stroke-linecap: square"/>
   </g>
   <g id="patch_5">
    <path d="M 72 320.4 
L 518.4 320.4 
" style="fill: none; stroke: #000000; stroke-width: 0.8; stroke-linejoin: miter; stroke-linecap: square"/>
   </g>
   <g id="text_16">
    <!-- $nt=Barabsi$ $d=1000$ $oc=10\%$ $l=dynamic$ -->
    <g transform="translate(120.775175 37.2) scale(0.18 -0.18)">
     <defs>
      <path id="CMMI12-6e" d="M 1318 1871 
C 1331 1910 1491 2229 1728 2433 
C 1894 2586 2112 2689 2362 2689 
C 2618 2689 2707 2497 2707 2242 
C 2707 1878 2445 1150 2317 805 
C 2259 651 2227 568 2227 453 
C 2227 166 2426 -64 2733 -64 
C 3328 -64 3552 875 3552 913 
C 3552 945 3526 971 3488 971 
C 3430 971 3424 952 3392 843 
C 3245 319 3002 64 2752 64 
C 2688 64 2586 64 2586 269 
C 2586 429 2656 621 2694 710 
C 2822 1063 3091 1780 3091 2145 
C 3091 2528 2867 2816 2381 2816 
C 1811 2816 1510 2415 1395 2255 
C 1376 2618 1114 2816 832 2816 
C 627 2816 486 2695 378 2478 
C 262 2248 173 1865 173 1839 
C 173 1814 198 1782 243 1782 
C 294 1782 301 1788 339 1935 
C 442 2325 557 2689 813 2689 
C 960 2689 1011 2586 1011 2395 
C 1011 2254 947 2005 902 1807 
L 723 1118 
C 698 996 627 709 595 594 
C 550 428 480 128 480 96 
C 480 6 550 -64 646 -64 
C 723 -64 813 -26 864 70 
C 877 102 934 326 966 453 
L 1107 1028 
L 1318 1871 
z
" transform="scale(0.015625)"/>
      <path id="CMMI12-74" d="M 1286 2566 
L 1875 2566 
C 1997 2566 2061 2566 2061 2681 
C 2061 2752 2022 2752 1894 2752 
L 1331 2752 
L 1568 3692 
C 1594 3781 1594 3794 1594 3840 
C 1594 3943 1510 4000 1427 4000 
C 1376 4000 1229 3981 1178 3775 
L 928 2752 
L 326 2752 
C 198 2752 141 2752 141 2630 
C 141 2566 186 2566 307 2566 
L 877 2566 
L 454 881 
C 403 658 384 594 384 511 
C 384 211 595 -64 954 -64 
C 1600 -64 1946 868 1946 912 
C 1946 951 1920 970 1882 970 
C 1869 970 1843 970 1830 944 
C 1824 938 1818 931 1773 829 
C 1638 511 1344 64 973 64 
C 781 64 768 224 768 364 
C 768 370 768 492 787 568 
L 1286 2566 
z
" transform="scale(0.015625)"/>
      <path id="CMR17-3d" d="M 4115 2017 
C 4211 2017 4307 2017 4307 2125 
C 4307 2240 4198 2240 4090 2240 
L 512 2240 
C 403 2240 294 2240 294 2125 
C 294 2017 390 2017 486 2017 
L 4115 2017 
z
M 4090 896 
C 4198 896 4307 896 4307 1011 
C 4307 1119 4211 1119 4115 1119 
L 486 1119 
C 390 1119 294 1119 294 1011 
C 294 896 403 896 512 896 
L 4090 896 
z
" transform="scale(0.015625)"/>
      <path id="CMMI12-42" d="M 2342 3921 
C 2400 4160 2426 4160 2675 4160 
L 3507 4160 
C 4230 4160 4230 3544 4230 3485 
C 4230 2966 3712 2304 2867 2304 
L 1946 2304 
L 2342 3921 
z
M 3424 2275 
C 4122 2402 4755 2886 4755 3473 
C 4755 3970 4314 4352 3590 4352 
L 1536 4352 
C 1414 4352 1357 4352 1357 4226 
C 1357 4160 1414 4160 1510 4160 
C 1901 4160 1901 4112 1901 4044 
C 1901 4032 1901 3993 1875 3897 
L 1011 472 
C 954 249 941 185 493 185 
C 371 185 307 185 307 70 
C 307 0 346 0 474 0 
L 2669 0 
C 3648 0 4403 739 4403 1383 
C 4403 1906 3942 2224 3424 2275 
z
M 2515 185 
L 1651 185 
C 1562 185 1549 185 1510 192 
C 1440 198 1434 211 1434 261 
C 1434 305 1446 343 1459 399 
L 1907 2176 
L 3110 2176 
C 3866 2176 3866 1483 3866 1433 
C 3866 828 3309 185 2515 185 
z
" transform="scale(0.015625)"/>
      <path id="CMMI12-61" d="M 1926 760 
C 1894 651 1894 639 1805 517 
C 1664 338 1382 64 1082 64 
C 819 64 672 300 672 677 
C 672 1028 870 1743 992 2012 
C 1210 2459 1510 2689 1760 2689 
C 2182 2689 2266 2165 2266 2114 
C 2266 2108 2246 2024 2240 2012 
L 1926 760 
z
M 2336 2395 
C 2266 2561 2093 2816 1760 2816 
C 1037 2816 256 1884 256 939 
C 256 307 627 -64 1062 -64 
C 1414 -64 1715 211 1894 422 
C 1958 45 2259 -64 2451 -64 
C 2643 -64 2797 51 2912 281 
C 3014 498 3104 888 3104 913 
C 3104 945 3078 971 3040 971 
C 2982 971 2976 939 2950 843 
C 2854 466 2733 64 2470 64 
C 2285 64 2272 230 2272 358 
C 2272 505 2291 575 2349 824 
C 2394 984 2426 1124 2477 1309 
C 2714 2267 2771 2497 2771 2535 
C 2771 2625 2701 2695 2605 2695 
C 2400 2695 2349 2472 2336 2395 
z
" transform="scale(0.015625)"/>
      <path id="CMMI12-72" d="M 2490 2612 
C 2291 2574 2189 2433 2189 2293 
C 2189 2139 2310 2088 2400 2088 
C 2579 2088 2726 2242 2726 2433 
C 2726 2638 2528 2816 2208 2816 
C 1952 2816 1658 2701 1389 2312 
C 1344 2650 1088 2816 832 2816 
C 582 2816 454 2625 378 2484 
C 269 2254 173 1871 173 1839 
C 173 1814 198 1782 243 1782 
C 294 1782 301 1788 339 1935 
C 435 2318 557 2689 813 2689 
C 966 2689 1011 2580 1011 2395 
C 1011 2254 947 2005 902 1807 
L 723 1118 
C 698 996 627 709 595 594 
C 550 428 480 128 480 96 
C 480 6 550 -64 646 -64 
C 717 -64 838 -19 877 109 
C 896 160 1133 1124 1171 1271 
C 1203 1411 1242 1546 1274 1686 
C 1299 1775 1325 1878 1344 1961 
C 1363 2018 1536 2331 1696 2472 
C 1773 2542 1939 2689 2202 2689 
C 2304 2689 2406 2670 2490 2612 
z
" transform="scale(0.015625)"/>
      <path id="CMMI12-62" d="M 1478 4257 
C 1485 4283 1498 4321 1498 4352 
C 1498 4416 1434 4416 1421 4416 
C 1414 4416 1184 4393 1069 4377 
C 960 4377 864 4358 749 4358 
C 595 4345 550 4339 550 4224 
C 550 4160 614 4160 678 4160 
C 1005 4160 1005 4103 1005 4040 
C 1005 3996 954 3811 928 3696 
L 774 3085 
C 710 2831 346 1387 320 1272 
C 288 1114 288 1005 288 922 
C 288 274 653 -64 1069 -64 
C 1811 -64 2579 888 2579 1814 
C 2579 2401 2246 2816 1766 2816 
C 1434 2816 1133 2542 1011 2414 
L 1478 4257 
z
M 1075 64 
C 870 64 646 217 646 715 
C 646 926 666 1047 781 1494 
C 800 1577 902 1986 928 2069 
C 941 2120 1318 2689 1754 2689 
C 2035 2689 2163 2408 2163 2076 
C 2163 1769 1984 1047 1824 715 
C 1664 370 1370 64 1075 64 
z
" transform="scale(0.015625)"/>
      <path id="CMMI12-73" d="M 1459 1280 
C 1568 1261 1741 1223 1779 1216 
C 1862 1192 2150 1090 2150 783 
C 2150 586 1971 70 1229 70 
C 1094 70 614 70 486 436 
C 742 404 870 603 870 745 
C 870 880 781 950 653 950 
C 512 950 326 841 326 552 
C 326 173 710 -64 1222 -64 
C 2195 -64 2483 651 2483 984 
C 2483 1079 2483 1258 2278 1462 
C 2118 1616 1965 1648 1619 1718 
C 1446 1756 1171 1814 1171 2101 
C 1171 2229 1286 2689 1894 2689 
C 2163 2689 2426 2589 2490 2368 
C 2208 2368 2195 2125 2195 2119 
C 2195 1984 2317 1946 2374 1946 
C 2464 1946 2643 2015 2643 2281 
C 2643 2545 2400 2816 1901 2816 
C 1062 2816 838 2160 838 1899 
C 838 1414 1312 1312 1459 1280 
z
" transform="scale(0.015625)"/>
      <path id="CMMI12-69" d="M 1811 913 
C 1811 945 1786 971 1747 971 
C 1690 971 1683 952 1651 843 
C 1485 262 1222 64 1011 64 
C 934 64 845 83 845 275 
C 845 447 922 639 992 830 
L 1440 2018 
C 1459 2069 1504 2184 1504 2305 
C 1504 2574 1312 2816 998 2816 
C 410 2816 173 1890 173 1839 
C 173 1814 198 1782 243 1782 
C 301 1782 307 1807 333 1896 
C 486 2428 730 2682 979 2682 
C 1037 2682 1146 2682 1146 2478 
C 1146 2312 1062 2101 1011 1961 
L 563 773 
C 525 671 486 568 486 453 
C 486 166 685 -64 992 -64 
C 1581 -64 1811 869 1811 913 
z
M 1760 4013 
C 1760 4109 1683 4224 1542 4224 
C 1395 4224 1229 4083 1229 3917 
C 1229 3758 1363 3707 1440 3707 
C 1613 3707 1760 3873 1760 4013 
z
" transform="scale(0.015625)"/>
      <path id="CMMI12-64" d="M 3219 4257 
C 3226 4282 3238 4320 3238 4352 
C 3238 4416 3174 4416 3162 4416 
C 3155 4416 2842 4388 2810 4380 
C 2701 4373 2605 4358 2490 4358 
C 2330 4345 2285 4339 2285 4224 
C 2285 4160 2336 4160 2426 4160 
C 2739 4160 2746 4103 2746 4040 
C 2746 4002 2733 3952 2726 3933 
L 2336 2395 
C 2266 2561 2093 2816 1760 2816 
C 1037 2816 256 1884 256 939 
C 256 307 627 -64 1062 -64 
C 1414 -64 1715 211 1894 422 
C 1958 45 2259 -64 2451 -64 
C 2643 -64 2797 51 2912 281 
C 3014 498 3104 888 3104 913 
C 3104 945 3078 971 3040 971 
C 2982 971 2976 939 2950 843 
C 2854 466 2733 64 2470 64 
C 2285 64 2272 229 2272 357 
C 2272 382 2272 515 2317 694 
L 3219 4257 
z
M 1926 760 
C 1894 651 1894 639 1805 517 
C 1664 338 1382 64 1082 64 
C 819 64 672 300 672 677 
C 672 1028 870 1743 992 2012 
C 1210 2459 1510 2689 1760 2689 
C 2182 2689 2266 2165 2266 2114 
C 2266 2108 2246 2024 2240 2012 
L 1926 760 
z
" transform="scale(0.015625)"/>
      <path id="CMMI12-6f" d="M 2918 1756 
C 2918 2363 2522 2816 1939 2816 
C 1094 2816 262 1897 262 996 
C 262 390 659 -64 1242 -64 
C 2093 -64 2918 856 2918 1756 
z
M 1248 64 
C 928 64 691 319 691 766 
C 691 1060 845 1712 1024 2031 
C 1312 2523 1670 2689 1933 2689 
C 2246 2689 2490 2433 2490 1986 
C 2490 1731 2355 1047 2112 658 
C 1850 230 1498 64 1248 64 
z
" transform="scale(0.015625)"/>
      <path id="CMMI12-63" d="M 2502 2431 
C 2381 2431 2323 2431 2234 2355 
C 2195 2323 2125 2227 2125 2125 
C 2125 1997 2221 1920 2342 1920 
C 2496 1920 2669 2044 2669 2292 
C 2669 2588 2374 2816 1933 2816 
C 1094 2816 256 1903 256 996 
C 256 441 602 -64 1254 -64 
C 2125 -64 2675 622 2675 706 
C 2675 744 2637 776 2611 776 
C 2592 776 2586 770 2528 713 
C 2118 162 1510 64 1267 64 
C 826 64 685 446 685 764 
C 685 988 794 1605 1024 2039 
C 1190 2338 1536 2682 1939 2682 
C 2022 2682 2374 2682 2502 2431 
z
" transform="scale(0.015625)"/>
      <path id="CMR17-25" d="M 4640 959 
C 4640 1698 4275 2240 3846 2240 
C 3411 2240 2970 1736 2970 959 
C 2970 183 3405 -320 3846 -320 
C 4275 -320 4640 215 4640 959 
z
M 3853 -218 
C 3686 -218 3270 -66 3270 959 
C 3270 1991 3686 2138 3853 2138 
C 4205 2138 4525 1634 4525 959 
C 4525 285 4205 -218 3853 -218 
z
M 4083 4577 
C 4128 4647 4134 4653 4134 4685 
C 4134 4761 4077 4800 4026 4800 
C 3962 4800 3936 4756 3891 4706 
C 3520 4190 3008 4134 2746 4134 
C 2106 4134 1715 4494 1594 4607 
C 1510 4682 1389 4800 1171 4800 
C 736 4800 294 4296 294 3519 
C 294 2743 730 2240 1171 2240 
C 1600 2240 1965 2778 1965 3527 
C 1965 3969 1830 4270 1811 4308 
C 2202 4064 2586 4032 2752 4032 
C 3162 4032 3456 4183 3616 4289 
L 3622 4283 
L 858 -84 
C 800 -174 800 -187 800 -206 
C 800 -276 858 -320 915 -320 
C 973 -320 992 -289 1037 -218 
L 4083 4577 
z
M 1178 2342 
C 1011 2342 595 2494 595 3519 
C 595 4551 1011 4698 1178 4698 
C 1530 4698 1850 4194 1850 3519 
C 1850 2845 1530 2342 1178 2342 
z
" transform="scale(0.015625)"/>
      <path id="CMMI12-6c" d="M 1626 4257 
C 1632 4282 1645 4320 1645 4352 
C 1645 4416 1581 4416 1568 4416 
C 1562 4416 1331 4393 1216 4377 
C 1107 4377 1011 4358 896 4358 
C 742 4345 698 4339 698 4224 
C 698 4160 762 4160 826 4160 
C 1152 4160 1152 4102 1152 4039 
C 1152 4014 1152 4001 1120 3887 
L 326 731 
C 307 661 294 610 294 509 
C 294 191 531 -64 858 -64 
C 1069 -64 1210 76 1312 274 
C 1421 483 1510 884 1510 909 
C 1510 941 1485 967 1446 967 
C 1389 967 1382 935 1357 840 
C 1242 401 1126 64 870 64 
C 678 64 678 267 678 357 
C 678 382 678 515 723 694 
L 1626 4257 
z
" transform="scale(0.015625)"/>
      <path id="CMMI12-79" d="M 1683 -700 
C 1510 -939 1261 -1152 947 -1152 
C 870 -1152 563 -1152 467 -889 
C 486 -895 518 -895 531 -895 
C 723 -895 851 -729 851 -582 
C 851 -435 730 -384 634 -384 
C 531 -384 307 -458 307 -759 
C 307 -1071 582 -1286 947 -1286 
C 1587 -1286 2234 -700 2413 6 
L 3040 2485 
C 3046 2517 3059 2556 3059 2594 
C 3059 2689 2982 2753 2886 2753 
C 2829 2753 2694 2727 2643 2535 
L 2170 658 
C 2138 543 2138 530 2086 460 
C 1958 281 1747 64 1440 64 
C 1082 64 1050 415 1050 588 
C 1050 952 1222 1443 1395 1903 
C 1466 2088 1504 2178 1504 2305 
C 1504 2574 1312 2816 998 2816 
C 410 2816 173 1890 173 1839 
C 173 1814 198 1782 243 1782 
C 301 1782 307 1807 333 1897 
C 486 2433 730 2689 979 2689 
C 1037 2689 1146 2689 1146 2478 
C 1146 2312 1075 2127 979 1884 
C 666 1047 666 837 666 683 
C 666 77 1101 -64 1421 -64 
C 1606 -64 1837 -6 2061 230 
L 2067 224 
C 1971 -147 1907 -392 1683 -700 
z
" transform="scale(0.015625)"/>
      <path id="CMMI12-6d" d="M 1318 1871 
C 1331 1910 1491 2229 1728 2433 
C 1894 2586 2112 2689 2362 2689 
C 2618 2689 2707 2497 2707 2242 
C 2707 2203 2707 2076 2630 1775 
L 2470 1118 
C 2419 926 2298 453 2285 383 
C 2259 287 2221 121 2221 96 
C 2221 6 2291 -64 2387 -64 
C 2579 -64 2611 83 2669 313 
L 3053 1839 
C 3066 1890 3398 2689 4102 2689 
C 4358 2689 4448 2497 4448 2242 
C 4448 1884 4198 1188 4058 805 
C 4000 651 3968 568 3968 453 
C 3968 166 4166 -64 4474 -64 
C 5069 -64 5293 875 5293 913 
C 5293 945 5267 971 5229 971 
C 5171 971 5165 952 5133 843 
C 4986 332 4749 64 4493 64 
C 4429 64 4326 64 4326 269 
C 4326 436 4403 640 4429 710 
C 4544 1018 4832 1773 4832 2145 
C 4832 2528 4608 2816 4122 2816 
C 3693 2816 3347 2574 3091 2197 
C 3072 2542 2861 2816 2381 2816 
C 1811 2816 1510 2415 1395 2255 
C 1376 2618 1114 2816 832 2816 
C 646 2816 499 2727 378 2484 
C 262 2254 173 1865 173 1839 
C 173 1814 198 1782 243 1782 
C 294 1782 301 1788 339 1935 
C 435 2312 557 2689 813 2689 
C 960 2689 1011 2586 1011 2395 
C 1011 2254 947 2005 902 1807 
L 723 1118 
C 698 996 627 709 595 594 
C 550 428 480 128 480 96 
C 480 6 550 -64 646 -64 
C 723 -64 813 -26 864 70 
C 877 102 934 326 966 453 
L 1107 1028 
L 1318 1871 
z
" transform="scale(0.015625)"/>
     </defs>
     <use xlink:href="#CMMI12-6e" transform="scale(0.996264)"/>
     <use xlink:href="#CMMI12-74" transform="translate(58.230047 0) scale(0.996264)"/>
     <use xlink:href="#CMR17-3d" transform="translate(121.130386 0) scale(0.996264)"/>
     <use xlink:href="#CMMI12-42" transform="translate(220.519183 0) scale(0.996264)"/>
     <use xlink:href="#CMMI12-61" transform="translate(299.654707 0) scale(0.996264)"/>
     <use xlink:href="#CMMI12-72" transform="translate(350.862564 0) scale(0.996264)"/>
     <use xlink:href="#CMMI12-61" transform="translate(397.533176 0) scale(0.996264)"/>
     <use xlink:href="#CMMI12-62" transform="translate(448.741034 0) scale(0.996264)"/>
     <use xlink:href="#CMMI12-73" transform="translate(490.216908 0) scale(0.996264)"/>
     <use xlink:href="#CMMI12-69" transform="translate(536.166956 0) scale(0.996264)"/>
     <use xlink:href="#CMMI12-64" transform="translate(600.67467 0) scale(0.996264)"/>
     <use xlink:href="#CMR17-3d" transform="translate(679.037776 0) scale(0.996264)"/>
     <use xlink:href="#CMR17-31" transform="translate(778.426573 0) scale(0.996264)"/>
     <use xlink:href="#CMR17-30" transform="translate(824.11705 0) scale(0.996264)"/>
     <use xlink:href="#CMR17-30" transform="translate(869.807527 0) scale(0.996264)"/>
     <use xlink:href="#CMR17-30" transform="translate(915.498004 0) scale(0.996264)"/>
     <use xlink:href="#CMMI12-6f" transform="translate(992.417594 0) scale(0.996264)"/>
     <use xlink:href="#CMMI12-63" transform="translate(1039.312904 0) scale(0.996264)"/>
     <use xlink:href="#CMR17-3d" transform="translate(1108.970146 0) scale(0.996264)"/>
     <use xlink:href="#CMR17-31" transform="translate(1208.358943 0) scale(0.996264)"/>
     <use xlink:href="#CMR17-30" transform="translate(1254.04942 0) scale(0.996264)"/>
     <use xlink:href="#CMR17-25" transform="translate(1299.739898 0) scale(0.996264)"/>
     <use xlink:href="#CMMI12-6c" transform="translate(1407.8886 0) scale(0.996264)"/>
     <use xlink:href="#CMR17-3d" transform="translate(1466.811013 0) scale(0.996264)"/>
     <use xlink:href="#CMMI12-64" transform="translate(1566.19981 0) scale(0.996264)"/>
     <use xlink:href="#CMMI12-79" transform="translate(1616.888907 0) scale(0.996264)"/>
     <use xlink:href="#CMMI12-6e" transform="translate(1668.027687 0) scale(0.996264)"/>
     <use xlink:href="#CMMI12-61" transform="translate(1726.257735 0) scale(0.996264)"/>
     <use xlink:href="#CMMI12-6d" transform="translate(1777.465592 0) scale(0.996264)"/>
     <use xlink:href="#CMMI12-69" transform="translate(1862.792817 0) scale(0.996264)"/>
     <use xlink:href="#CMMI12-63" transform="translate(1896.071419 0) scale(0.996264)"/>
    </g>
   </g>
  </g>
  <g id="axes_2">
   <g id="matplotlib.axis_3">
    <g id="ytick_7">
     <g id="line2d_22">
      <defs>
       <path id="mcc58311d5e" d="M 0 0 
L 3.5 0 
" style="stroke: #000000; stroke-width: 0.8"/>
      </defs>
      <g>
       <use xlink:href="#mcc58311d5e" x="518.4" y="320.4" style="stroke: #000000; stroke-width: 0.8"/>
      </g>
     </g>
     <g id="text_17">
      <!-- $\mathdefault{0}$ -->
      <g transform="translate(525.4 325.415904) scale(0.145 -0.145)">
       <use xlink:href="#CMR17-30" transform="scale(0.996264)"/>
      </g>
     </g>
    </g>
    <g id="ytick_8">
     <g id="line2d_23">
      <g>
       <use xlink:href="#mcc58311d5e" x="518.4" y="264.987706" style="stroke: #000000; stroke-width: 0.8"/>
      </g>
     </g>
     <g id="text_18">
      <!-- $\mathdefault{20}$ -->
      <g transform="translate(525.4 270.00361) scale(0.145 -0.145)">
       <use xlink:href="#CMR17-32" transform="scale(0.996264)"/>
       <use xlink:href="#CMR17-30" transform="translate(45.690477 0) scale(0.996264)"/>
      </g>
     </g>
    </g>
    <g id="ytick_9">
     <g id="line2d_24">
      <g>
       <use xlink:href="#mcc58311d5e" x="518.4" y="209.575412" style="stroke: #000000; stroke-width: 0.8"/>
      </g>
     </g>
     <g id="text_19">
      <!-- $\mathdefault{40}$ -->
      <g transform="translate(525.4 214.591316) scale(0.145 -0.145)">
       <use xlink:href="#CMR17-34" transform="scale(0.996264)"/>
       <use xlink:href="#CMR17-30" transform="translate(45.690477 0) scale(0.996264)"/>
      </g>
     </g>
    </g>
    <g id="ytick_10">
     <g id="line2d_25">
      <g>
       <use xlink:href="#mcc58311d5e" x="518.4" y="154.163118" style="stroke: #000000; stroke-width: 0.8"/>
      </g>
     </g>
     <g id="text_20">
      <!-- $\mathdefault{60}$ -->
      <g transform="translate(525.4 159.179023) scale(0.145 -0.145)">
       <use xlink:href="#CMR17-36" transform="scale(0.996264)"/>
       <use xlink:href="#CMR17-30" transform="translate(45.690477 0) scale(0.996264)"/>
      </g>
     </g>
    </g>
    <g id="ytick_11">
     <g id="line2d_26">
      <g>
       <use xlink:href="#mcc58311d5e" x="518.4" y="98.750825" style="stroke: #000000; stroke-width: 0.8"/>
      </g>
     </g>
     <g id="text_21">
      <!-- $\mathdefault{80}$ -->
      <g transform="translate(525.4 103.766729) scale(0.145 -0.145)">
       <use xlink:href="#CMR17-38" transform="scale(0.996264)"/>
       <use xlink:href="#CMR17-30" transform="translate(45.690477 0) scale(0.996264)"/>
      </g>
     </g>
    </g>
    <g id="ytick_12">
     <g id="line2d_27">
      <g>
       <use xlink:href="#mcc58311d5e" x="518.4" y="43.338531" style="stroke: #000000; stroke-width: 0.8"/>
      </g>
     </g>
     <g id="text_22">
      <!-- $\mathdefault{100}$ -->
      <g transform="translate(525.4 48.354435) scale(0.145 -0.145)">
       <use xlink:href="#CMR17-31" transform="scale(0.996264)"/>
       <use xlink:href="#CMR17-30" transform="translate(45.690477 0) scale(0.996264)"/>
       <use xlink:href="#CMR17-30" transform="translate(91.380954 0) scale(0.996264)"/>
      </g>
     </g>
    </g>
    <g id="text_23">
     <!-- CPU load in \% -->
     <g transform="translate(560.648875 226.102524) rotate(-90) scale(0.145 -0.145)">
      <defs>
       <path id="CMSS17-43" d="M 3501 714 
C 3072 427 2874 344 2355 344 
C 1459 344 934 1303 934 2179 
C 934 3112 1472 4032 2381 4032 
C 2790 4032 3059 3918 3386 3715 
L 3475 4217 
C 3168 4370 2778 4440 2387 4440 
C 1158 4440 397 3316 397 2179 
C 397 927 1299 -64 2323 -64 
C 2874 -64 3066 -19 3539 280 
L 3501 714 
z
" transform="scale(0.015625)"/>
       <path id="CMSS17-50" d="M 2106 1856 
C 2874 1856 3501 2453 3501 3158 
C 3501 3850 2899 4453 2067 4453 
L 570 4453 
L 570 0 
L 1107 0 
L 1107 1856 
L 2106 1856 
z
M 1926 4096 
C 2669 4096 2995 3627 2995 3157 
C 2995 2720 2694 2226 1926 2226 
L 1094 2226 
L 1094 4096 
L 1926 4096 
z
" transform="scale(0.015625)"/>
       <path id="CMSS17-55" d="M 3552 4384 
L 3066 4384 
L 3066 1449 
C 3066 604 2547 229 2074 229 
C 1587 229 1101 623 1101 1443 
L 1101 4384 
L 563 4384 
L 563 1454 
C 563 539 1274 -128 2067 -128 
C 2861 -128 3552 539 3552 1454 
L 3552 4384 
z
" transform="scale(0.015625)"/>
       <path id="CMSS17-6c" d="M 947 4416 
L 474 4416 
L 474 0 
L 947 0 
L 947 4416 
z
" transform="scale(0.015625)"/>
       <path id="CMSS17-61" d="M 2406 1791 
C 2406 2392 1978 2808 1402 2808 
C 1120 2808 813 2757 461 2553 
L 499 2135 
C 659 2248 934 2432 1395 2432 
C 1722 2432 1920 2180 1920 1782 
L 1920 1536 
C 896 1536 256 1238 256 726 
C 256 461 416 -64 947 -64 
C 1043 -64 1562 -64 1933 217 
L 1933 -19 
L 2406 -19 
L 2406 1791 
z
M 1920 816 
C 1920 701 1920 548 1728 434 
C 1562 325 1350 325 1261 325 
C 941 325 723 511 723 744 
C 723 1211 1722 1211 1920 1211 
L 1920 816 
z
" transform="scale(0.015625)"/>
       <path id="CMSS17-64" d="M 2611 4416 
L 2138 4416 
L 2138 2438 
C 1939 2603 1613 2756 1254 2756 
C 672 2756 211 2131 211 1347 
C 211 562 666 -64 1235 -64 
C 1677 -64 1971 172 2125 306 
L 2125 -13 
L 2611 -13 
L 2611 4416 
z
M 2125 836 
C 2125 747 2125 653 1926 482 
C 1798 375 1645 325 1498 325 
C 1152 325 698 576 698 1340 
C 698 2134 1210 2368 1562 2368 
C 1798 2368 1990 2254 2125 2065 
L 2125 836 
z
" transform="scale(0.015625)"/>
       <path id="CMSS17-6e" d="M 2618 1877 
C 2618 2283 2522 2816 1798 2816 
C 1389 2816 1120 2606 941 2389 
L 941 2758 
L 474 2758 
L 474 0 
L 960 0 
L 960 1559 
C 960 1964 1114 2428 1549 2428 
C 2112 2428 2131 2048 2131 1829 
L 2131 0 
L 2618 0 
L 2618 1877 
z
" transform="scale(0.015625)"/>
       <path id="CMSS17-25" d="M 3923 4583 
C 3962 4647 3962 4679 3962 4685 
C 3962 4755 3904 4800 3853 4800 
C 3782 4800 3750 4749 3718 4685 
L 1101 -104 
C 1088 -129 1062 -167 1062 -206 
C 1062 -276 1120 -320 1178 -320 
C 1235 -320 1248 -295 1299 -206 
L 3923 4583 
z
M 4678 959 
C 4678 1698 4282 2240 3846 2240 
C 3418 2240 3008 1711 3008 959 
C 3008 208 3418 -320 3846 -320 
C 4288 -320 4678 221 4678 959 
z
M 3846 68 
C 3712 68 3494 189 3494 959 
C 3494 1724 3712 1851 3846 1851 
C 4083 1851 4211 1386 4211 959 
C 4211 533 4083 68 3846 68 
z
M 2003 3519 
C 2003 4258 1606 4800 1171 4800 
C 742 4800 333 4271 333 3519 
C 333 2768 742 2240 1171 2240 
C 1613 2240 2003 2781 2003 3519 
z
M 1171 2628 
C 1037 2628 819 2749 819 3519 
C 819 4284 1037 4411 1171 4411 
C 1408 4411 1536 3946 1536 3519 
C 1536 3093 1408 2628 1171 2628 
z
" transform="scale(0.015625)"/>
      </defs>
      <use xlink:href="#CMSS17-43" transform="scale(0.996264)"/>
      <use xlink:href="#CMSS17-50" transform="translate(59.855772 0) scale(0.996264)"/>
      <use xlink:href="#CMSS17-55" transform="translate(119.591358 0) scale(0.996264)"/>
      <use xlink:href="#CMSS17-6c" transform="translate(214.960211 0) scale(0.996264)"/>
      <use xlink:href="#CMSS17-6f" transform="translate(237.140934 0) scale(0.996264)"/>
      <use xlink:href="#CMSS17-61" transform="translate(283.984557 0) scale(0.996264)"/>
      <use xlink:href="#CMSS17-64" transform="translate(328.906478 0) scale(0.996264)"/>
      <use xlink:href="#CMSS17-69" transform="translate(408.340534 0) scale(0.996264)"/>
      <use xlink:href="#CMSS17-6e" transform="translate(430.521257 0) scale(0.996264)"/>
      <use xlink:href="#CMSS17-25" transform="translate(509.955313 0) scale(0.996264)"/>
     </g>
    </g>
   </g>
   <g id="line2d_28">
    <path d="M 92.290909 98.051322 
L 144.289896 98.051322 
L 145.420309 208.774293 
L 149.94196 208.774293 
L 151.072373 209.225661 
L 230.201266 209.225661 
L 231.331679 161.71589 
L 235.85333 161.71589 
L 236.983743 153.638492 
L 321.7647 153.638492 
L 322.895113 264.812831 
L 408.806483 264.812831 
L 409.936895 237.628936 
L 414.458546 237.628936 
L 415.588959 237.019246 
L 498.109091 237.019246 
L 498.109091 237.019246 
" clip-path="url(#p6cd33fb109)" style="fill: none; stroke-dasharray: 5.55,2.4; stroke-dashoffset: 0; stroke: #140e36; stroke-width: 1.5"/>
   </g>
   <g id="line2d_29">
    <path d="M 92.290909 57.101637 
L 144.289896 57.101637 
L 145.420309 57.706909 
L 230.201266 57.783862 
L 231.331679 57.564845 
L 235.85333 57.564845 
L 236.983743 57.331925 
L 321.7647 57.331925 
L 322.895113 59.019863 
L 408.806483 59.011571 
L 409.936895 58.302061 
L 498.109091 58.259186 
L 498.109091 58.259186 
" clip-path="url(#p6cd33fb109)" style="fill: none; stroke-dasharray: 5.55,2.4; stroke-dashoffset: 0; stroke: #fecf92; stroke-width: 1.5"/>
   </g>
   <g id="patch_6">
    <path d="M 72 320.4 
L 72 43.2 
" style="fill: none; stroke: #000000; stroke-width: 0.8; stroke-linejoin: miter; stroke-linecap: square"/>
   </g>
   <g id="patch_7">
    <path d="M 518.4 320.4 
L 518.4 43.2 
" style="fill: none; stroke: #000000; stroke-width: 0.8; stroke-linejoin: miter; stroke-linecap: square"/>
   </g>
   <g id="patch_8">
    <path d="M 72 320.4 
L 518.4 320.4 
" style="fill: none; stroke: #000000; stroke-width: 0.8; stroke-linejoin: miter; stroke-linecap: square"/>
   </g>
   <g id="patch_9">
    <path d="M 72 43.2 
L 518.4 43.2 
" style="fill: none; stroke: #000000; stroke-width: 0.8; stroke-linejoin: miter; stroke-linecap: square"/>
   </g>
   <g id="legend_1">
    <g id="patch_10">
     <path d="M 347.090605 313.15 
L 508.25 313.15 
Q 511.15 313.15 511.15 310.25 
L 511.15 224.916687 
Q 511.15 222.016687 508.25 222.016687 
L 347.090605 222.016687 
Q 344.190605 222.016687 344.190605 224.916687 
L 344.190605 310.25 
Q 344.190605 313.15 347.090605 313.15 
z
" style="fill: #ffffff; opacity: 0.7; stroke: #cccccc; stroke-linejoin: miter"/>
    </g>
    <g id="line2d_30">
     <path d="M 349.990605 233.576059 
L 364.490605 233.576059 
L 378.990605 233.576059 
" style="fill: none; stroke: #482475; stroke-width: 2.5; stroke-linecap: square"/>
    </g>
    <g id="text_24">
     <!-- QoS [static] -->
     <g transform="translate(390.590605 238.651059) scale(0.145 -0.145)">
      <defs>
       <path id="CMSS17-5b" d="M 1613 -1600 
L 1613 -1212 
L 1062 -1212 
L 1062 4352 
L 1613 4352 
L 1613 4741 
L 595 4741 
L 595 -1600 
L 1613 -1600 
z
" transform="scale(0.015625)"/>
       <path id="CMSS17-63" d="M 2464 2541 
C 2464 2585 2170 2714 2093 2739 
C 1882 2816 1613 2816 1542 2816 
C 710 2816 211 2093 211 1363 
C 211 595 768 -64 1517 -64 
C 1946 -64 2253 76 2502 242 
L 2464 664 
C 2189 453 1869 337 1523 337 
C 1024 337 698 774 698 1369 
C 698 1831 909 2414 1549 2414 
C 1901 2414 2099 2343 2394 2145 
L 2464 2541 
z
" transform="scale(0.015625)"/>
       <path id="CMSS17-5d" d="M 1146 4741 
L 128 4741 
L 128 4352 
L 678 4352 
L 678 -1212 
L 128 -1212 
L 128 -1600 
L 1146 -1600 
L 1146 4741 
z
" transform="scale(0.015625)"/>
      </defs>
      <use xlink:href="#CMSS17-51" transform="scale(0.996264)"/>
      <use xlink:href="#CMSS17-6f" transform="translate(69.024255 0) scale(0.996264)"/>
      <use xlink:href="#CMSS17-53" transform="translate(115.867879 0) scale(0.996264)"/>
      <use xlink:href="#CMSS17-5b" transform="translate(199.145508 0) scale(0.996264)"/>
      <use xlink:href="#CMSS17-73" transform="translate(226.330946 0) scale(0.996264)"/>
      <use xlink:href="#CMSS17-74" transform="translate(262.244488 0) scale(0.996264)"/>
      <use xlink:href="#CMSS17-61" transform="translate(296.076055 0) scale(0.996264)"/>
      <use xlink:href="#CMSS17-74" transform="translate(340.997976 0) scale(0.996264)"/>
      <use xlink:href="#CMSS17-69" transform="translate(374.829542 0) scale(0.996264)"/>
      <use xlink:href="#CMSS17-63" transform="translate(397.010265 0) scale(0.996264)"/>
      <use xlink:href="#CMSS17-5d" transform="translate(438.649088 0) scale(0.996264)"/>
     </g>
    </g>
    <g id="line2d_31">
     <path d="M 349.990605 255.271887 
L 364.490605 255.271887 
L 378.990605 255.271887 
" style="fill: none; stroke: #bddf26; stroke-width: 2.5; stroke-linecap: square"/>
    </g>
    <g id="text_25">
     <!-- QoS [dynamic] -->
     <g transform="translate(390.590605 260.346887) scale(0.145 -0.145)">
      <defs>
       <path id="CMSS17-79" d="M 2675 2752 
L 2176 2752 
C 1632 1294 1446 702 1434 383 
L 1427 383 
C 1408 696 1126 1460 902 2007 
L 602 2752 
L 83 2752 
L 1216 13 
C 1146 -178 1043 -465 1011 -529 
C 870 -885 774 -885 672 -885 
C 646 -885 442 -885 211 -809 
L 250 -1229 
C 410 -1261 570 -1280 685 -1280 
C 845 -1280 1165 -1280 1459 -497 
L 2675 2752 
z
" transform="scale(0.015625)"/>
      </defs>
      <use xlink:href="#CMSS17-51" transform="scale(0.996264)"/>
      <use xlink:href="#CMSS17-6f" transform="translate(69.024255 0) scale(0.996264)"/>
      <use xlink:href="#CMSS17-53" transform="translate(115.867879 0) scale(0.996264)"/>
      <use xlink:href="#CMSS17-5b" transform="translate(199.145508 0) scale(0.996264)"/>
      <use xlink:href="#CMSS17-64" transform="translate(226.330946 0) scale(0.996264)"/>
      <use xlink:href="#CMSS17-79" transform="translate(274.53589 0) scale(0.996264)"/>
      <use xlink:href="#CMSS17-6e" transform="translate(317.536031 0) scale(0.996264)"/>
      <use xlink:href="#CMSS17-61" transform="translate(365.740974 0) scale(0.996264)"/>
      <use xlink:href="#CMSS17-6d" transform="translate(410.662895 0) scale(0.996264)"/>
      <use xlink:href="#CMSS17-69" transform="translate(484.892149 0) scale(0.996264)"/>
      <use xlink:href="#CMSS17-63" transform="translate(507.072872 0) scale(0.996264)"/>
      <use xlink:href="#CMSS17-5d" transform="translate(548.711695 0) scale(0.996264)"/>
     </g>
    </g>
    <g id="line2d_32">
     <path d="M 349.990605 276.967715 
L 364.490605 276.967715 
L 378.990605 276.967715 
" style="fill: none; stroke-dasharray: 5.55,2.4; stroke-dashoffset: 0; stroke: #140e36; stroke-width: 1.5"/>
    </g>
    <g id="text_26">
     <!-- Load driver (right) -->
     <g transform="translate(390.590605 282.042715) scale(0.145 -0.145)">
      <defs>
       <path id="CMSS17-4c" d="M 1670 414 
C 1594 414 1517 414 1440 414 
L 1101 414 
L 1101 4416 
L 563 4416 
L 563 0 
L 3002 0 
L 3002 414 
L 1670 414 
z
" transform="scale(0.015625)"/>
       <path id="CMSS17-72" d="M 954 1363 
C 954 1965 1395 2368 1958 2368 
L 1958 2789 
C 1549 2789 1165 2585 934 2253 
L 934 2758 
L 480 2758 
L 480 0 
L 954 0 
L 954 1363 
z
" transform="scale(0.015625)"/>
       <path id="CMSS17-76" d="M 2675 2752 
L 2176 2752 
L 1747 1556 
C 1613 1165 1421 627 1389 352 
L 1382 352 
C 1370 468 1318 634 1286 749 
C 1248 890 1197 1056 1158 1172 
L 595 2752 
L 83 2752 
L 1094 0 
L 1664 0 
L 2675 2752 
z
" transform="scale(0.015625)"/>
       <path id="CMSS17-67" d="M 2848 2808 
C 2483 2808 2170 2738 1914 2617 
C 1702 2777 1485 2808 1338 2808 
C 781 2808 358 2349 358 1814 
C 358 1468 550 1207 563 1195 
C 448 1035 384 863 384 672 
C 384 448 474 289 544 200 
C 211 -3 166 -314 166 -435 
C 166 -898 749 -1280 1498 -1280 
C 2253 -1280 2835 -898 2835 -428 
C 2835 448 1856 448 1587 448 
L 1069 448 
C 973 448 717 448 717 791 
C 717 921 774 1004 781 1010 
C 877 940 1075 832 1338 832 
C 1869 832 2310 1278 2310 1827 
C 2310 2132 2170 2355 2112 2432 
L 2131 2432 
C 2150 2432 2419 2432 2515 2432 
C 2720 2432 2739 2429 2918 2419 
L 2848 2808 
z
M 1338 1182 
C 1120 1182 813 1315 813 1823 
C 813 2375 1165 2464 1331 2464 
C 1549 2464 1856 2331 1856 1823 
C 1856 1271 1504 1182 1338 1182 
z
M 1581 -10 
C 1734 -10 2381 -10 2381 -442 
C 2381 -714 1984 -929 1504 -929 
C 1018 -929 621 -720 621 -435 
C 621 -403 621 -10 1062 -10 
L 1581 -10 
z
" transform="scale(0.015625)"/>
       <path id="CMSS17-68" d="M 2618 1891 
C 2618 2292 2522 2820 1798 2820 
C 1395 2820 1133 2623 947 2407 
L 947 4448 
L 474 4448 
L 474 32 
L 960 32 
L 960 1573 
C 960 1973 1114 2432 1549 2432 
C 2112 2432 2131 2056 2131 1839 
L 2131 32 
L 2618 32 
L 2618 1891 
z
" transform="scale(0.015625)"/>
      </defs>
      <use xlink:href="#CMSS17-4c" transform="scale(0.996264)"/>
      <use xlink:href="#CMSS17-6f" transform="translate(50.687105 0) scale(0.996264)"/>
      <use xlink:href="#CMSS17-61" transform="translate(97.530729 0) scale(0.996264)"/>
      <use xlink:href="#CMSS17-64" transform="translate(142.452649 0) scale(0.996264)"/>
      <use xlink:href="#CMSS17-64" transform="translate(221.886705 0) scale(0.996264)"/>
      <use xlink:href="#CMSS17-72" transform="translate(270.091649 0) scale(0.996264)"/>
      <use xlink:href="#CMSS17-69" transform="translate(302.001421 0) scale(0.996264)"/>
      <use xlink:href="#CMSS17-76" transform="translate(324.182144 0) scale(0.996264)"/>
      <use xlink:href="#CMSS17-65" transform="translate(367.182286 0) scale(0.996264)"/>
      <use xlink:href="#CMSS17-72" transform="translate(408.821108 0) scale(0.996264)"/>
      <use xlink:href="#CMSS17-28" transform="translate(471.959993 0) scale(0.996264)"/>
      <use xlink:href="#CMSS17-72" transform="translate(508.393907 0) scale(0.996264)"/>
      <use xlink:href="#CMSS17-69" transform="translate(540.30368 0) scale(0.996264)"/>
      <use xlink:href="#CMSS17-67" transform="translate(562.484403 0) scale(0.996264)"/>
      <use xlink:href="#CMSS17-68" transform="translate(609.328026 0) scale(0.996264)"/>
      <use xlink:href="#CMSS17-74" transform="translate(657.53297 0) scale(0.996264)"/>
      <use xlink:href="#CMSS17-29" transform="translate(691.364536 0) scale(0.996264)"/>
     </g>
    </g>
    <g id="line2d_33">
     <path d="M 349.990605 298.663543 
L 364.490605 298.663543 
L 378.990605 298.663543 
" style="fill: none; stroke-dasharray: 5.55,2.4; stroke-dashoffset: 0; stroke: #fecf92; stroke-width: 1.5"/>
    </g>
    <g id="text_27">
     <!-- System load (right) -->
     <g transform="translate(390.590605 303.738543) scale(0.145 -0.145)">
      <use xlink:href="#CMSS17-53" transform="scale(0.996264)"/>
      <use xlink:href="#CMSS17-79" transform="translate(52.048516 0) scale(0.996264)"/>
      <use xlink:href="#CMSS17-73" transform="translate(95.048658 0) scale(0.996264)"/>
      <use xlink:href="#CMSS17-74" transform="translate(130.9622 0) scale(0.996264)"/>
      <use xlink:href="#CMSS17-65" transform="translate(164.793767 0) scale(0.996264)"/>
      <use xlink:href="#CMSS17-6d" transform="translate(206.432589 0) scale(0.996264)"/>
      <use xlink:href="#CMSS17-6c" transform="translate(311.890956 0) scale(0.996264)"/>
      <use xlink:href="#CMSS17-6f" transform="translate(334.071679 0) scale(0.996264)"/>
      <use xlink:href="#CMSS17-61" transform="translate(380.915302 0) scale(0.996264)"/>
      <use xlink:href="#CMSS17-64" transform="translate(425.837223 0) scale(0.996264)"/>
      <use xlink:href="#CMSS17-28" transform="translate(505.271279 0) scale(0.996264)"/>
      <use xlink:href="#CMSS17-72" transform="translate(541.705193 0) scale(0.996264)"/>
      <use xlink:href="#CMSS17-69" transform="translate(573.614966 0) scale(0.996264)"/>
      <use xlink:href="#CMSS17-67" transform="translate(595.795689 0) scale(0.996264)"/>
      <use xlink:href="#CMSS17-68" transform="translate(642.639312 0) scale(0.996264)"/>
      <use xlink:href="#CMSS17-74" transform="translate(690.844255 0) scale(0.996264)"/>
      <use xlink:href="#CMSS17-29" transform="translate(724.675822 0) scale(0.996264)"/>
     </g>
    </g>
   </g>
  </g>
 </g>
 <defs>
  <clipPath id="p6cd33fb109">
   <rect x="72" y="43.2" width="446.4" height="277.2"/>
  </clipPath>
 </defs>
</svg>
