<?xml version="1.0" encoding="utf-8" standalone="no"?>
<!DOCTYPE svg PUBLIC "-//W3C//DTD SVG 1.1//EN"
  "http://www.w3.org/Graphics/SVG/1.1/DTD/svg11.dtd">
<svg xmlns:xlink="http://www.w3.org/1999/xlink" width="720pt" height="360pt" viewBox="0 0 720 360" xmlns="http://www.w3.org/2000/svg" version="1.1">
 <metadata>
  <rdf:RDF xmlns:dc="http://purl.org/dc/elements/1.1/" xmlns:cc="http://creativecommons.org/ns#" xmlns:rdf="http://www.w3.org/1999/02/22-rdf-syntax-ns#">
   <cc:Work>
    <dc:type rdf:resource="http://purl.org/dc/dcmitype/StillImage"/>
    <dc:date>2024-03-20T17:20:34.160476</dc:date>
    <dc:format>image/svg+xml</dc:format>
    <dc:creator>
     <cc:Agent>
      <dc:title>Matplotlib v3.8.0, https://matplotlib.org/</dc:title>
     </cc:Agent>
    </dc:creator>
   </cc:Work>
  </rdf:RDF>
 </metadata>
 <defs>
  <style type="text/css">*{stroke-linejoin: round; stroke-linecap: butt}</style>
 </defs>
 <g id="figure_1">
  <g id="patch_1">
   <path d="M 0 360 
L 720 360 
L 720 0 
L 0 0 
z
" style="fill: #ffffff"/>
  </g>
  <g id="axes_1">
   <g id="patch_2">
    <path d="M 90 320.4 
L 648 320.4 
L 648 43.2 
L 90 43.2 
z
" style="fill: #ffffff"/>
   </g>
   <g id="PolyCollection_1">
    <defs>
     <path id="madca2ff07b" d="M 115.363636 -176.429007 
L 115.363636 -216.236145 
L 116.776652 -216.236145 
L 118.189668 -216.236145 
L 119.602684 -216.236145 
L 121.0157 -216.236145 
L 122.428716 -216.236145 
L 123.841732 -216.236145 
L 125.254748 -216.236145 
L 126.667764 -216.236145 
L 128.08078 -216.236145 
L 129.493796 -216.236145 
L 130.906812 -216.236145 
L 132.319828 -216.236145 
L 133.732844 -216.236145 
L 135.14586 -216.236145 
L 136.558876 -216.236145 
L 137.971892 -216.236145 
L 139.384908 -216.236145 
L 140.797924 -216.236145 
L 142.210939 -216.236145 
L 143.623955 -216.231163 
L 145.036971 -216.231163 
L 146.449987 -216.231163 
L 147.863003 -216.231163 
L 149.276019 -216.231163 
L 150.689035 -216.236145 
L 152.102051 -216.236145 
L 153.515067 -216.236145 
L 154.928083 -216.236145 
L 156.341099 -216.236145 
L 157.754115 -216.236145 
L 159.167131 -216.236145 
L 160.580147 -216.236145 
L 161.993163 -216.236145 
L 163.406179 -216.236145 
L 164.819195 -216.236145 
L 166.232211 -216.236145 
L 167.645227 -216.236145 
L 169.058243 -216.236145 
L 170.471259 -216.236145 
L 171.884274 -216.236145 
L 173.29729 -216.236145 
L 174.710306 -216.236145 
L 176.123322 -216.236145 
L 177.536338 -216.236145 
L 178.949354 -216.236145 
L 180.36237 -216.236145 
L 181.775386 -291.502634 
L 183.188402 -291.502634 
L 184.601418 -291.502634 
L 186.014434 -291.502634 
L 187.42745 -291.502634 
L 188.840466 -306.472314 
L 190.253482 -306.472314 
L 191.666498 -306.472314 
L 193.079514 -306.472314 
L 194.49253 -306.472314 
L 195.905546 -306.472314 
L 197.318562 -306.472314 
L 198.731578 -306.472314 
L 200.144594 -306.472314 
L 201.55761 -306.472314 
L 202.970625 -306.472314 
L 204.383641 -306.472314 
L 205.796657 -306.472314 
L 207.209673 -306.472314 
L 208.622689 -306.472314 
L 210.035705 -306.472314 
L 211.448721 -306.472314 
L 212.861737 -306.472314 
L 214.274753 -306.472314 
L 215.687769 -306.472314 
L 217.100785 -306.472314 
L 218.513801 -306.472314 
L 219.926817 -306.203 
L 221.339833 -306.203 
L 222.752849 -306.203 
L 224.165865 -306.203 
L 225.578881 -306.203 
L 226.991897 -306.472314 
L 228.404913 -306.472314 
L 229.817929 -306.472314 
L 231.230945 -306.472314 
L 232.64396 -306.472314 
L 234.056976 -306.472314 
L 235.469992 -306.472314 
L 236.883008 -306.472314 
L 238.296024 -306.472314 
L 239.70904 -306.472314 
L 241.122056 -306.472314 
L 242.535072 -306.203 
L 243.948088 -306.203 
L 245.361104 -306.203 
L 246.77412 -306.203 
L 248.187136 -306.203 
L 249.600152 -306.203 
L 251.013168 -306.472314 
L 252.426184 -306.472314 
L 253.8392 -306.472314 
L 255.252216 -306.472314 
L 256.665232 -306.472314 
L 258.078248 -306.472314 
L 259.491264 -306.472314 
L 260.90428 -306.472314 
L 262.317296 -306.472314 
L 263.730311 -306.472314 
L 265.143327 -306.472314 
L 266.556343 -306.472314 
L 267.969359 -306.472314 
L 269.382375 -306.472314 
L 270.795391 -306.472314 
L 272.208407 -306.472314 
L 273.621423 -306.472314 
L 275.034439 -306.472314 
L 276.447455 -306.472314 
L 277.860471 -306.472314 
L 279.273487 -306.472314 
L 280.686503 -306.472314 
L 282.099519 -306.472314 
L 283.512535 -306.472314 
L 284.925551 -306.472314 
L 286.338567 -306.472314 
L 287.751583 -306.472314 
L 289.164599 -306.712958 
L 290.577615 -306.712958 
L 291.990631 -306.712958 
L 293.403646 -306.712958 
L 294.816662 -306.712958 
L 296.229678 -292.852248 
L 297.642694 -292.852248 
L 299.05571 -292.852248 
L 300.468726 -292.852248 
L 301.881742 -292.852248 
L 303.294758 -292.852248 
L 304.707774 -292.815452 
L 306.12079 -292.815452 
L 307.533806 -292.815452 
L 308.946822 -292.815452 
L 310.359838 -292.815452 
L 311.772854 -292.815452 
L 313.18587 -292.815452 
L 314.598886 -292.815452 
L 316.011902 -292.815452 
L 317.424918 -292.815452 
L 318.837934 -292.815452 
L 320.25095 -292.815452 
L 321.663966 -292.815452 
L 323.076982 -292.815452 
L 324.489997 -292.815452 
L 325.903013 -292.815452 
L 327.316029 -292.815452 
L 328.729045 -292.815452 
L 330.142061 -292.815452 
L 331.555077 -292.815452 
L 332.968093 -292.815452 
L 334.381109 -292.815452 
L 335.794125 -292.815452 
L 337.207141 -292.815452 
L 338.620157 -292.815452 
L 340.033173 -292.815452 
L 341.446189 -292.815452 
L 342.859205 -292.815452 
L 344.272221 -292.815452 
L 345.685237 -292.815452 
L 347.098253 -292.815452 
L 348.511269 -292.815452 
L 349.924285 -292.815452 
L 351.337301 -292.815452 
L 352.750317 -292.815452 
L 354.163332 -292.815452 
L 355.576348 -292.815452 
L 356.989364 -292.815452 
L 358.40238 -292.815452 
L 359.815396 -292.815452 
L 361.228412 -292.815452 
L 362.641428 -292.815452 
L 364.054444 -292.815452 
L 365.46746 -292.815452 
L 366.880476 -292.815452 
L 368.293492 -292.815452 
L 369.706508 -292.815452 
L 371.119524 -292.815452 
L 372.53254 -292.815452 
L 373.945556 -292.815452 
L 375.358572 -292.815452 
L 376.771588 -292.815452 
L 378.184604 -292.815452 
L 379.59762 -292.815452 
L 381.010636 -292.201829 
L 382.423652 -292.201829 
L 383.836668 -292.201829 
L 385.249683 -292.201829 
L 386.662699 -292.201829 
L 388.075715 -292.201829 
L 389.488731 -292.201829 
L 390.901747 -292.201829 
L 392.314763 -292.201829 
L 393.727779 -292.201829 
L 395.140795 -292.201829 
L 396.553811 -292.201829 
L 397.966827 -292.201829 
L 399.379843 -292.201829 
L 400.792859 -292.201829 
L 402.205875 -292.201829 
L 403.618891 -305.762655 
L 405.031907 -305.762655 
L 406.444923 -305.762655 
L 407.857939 -305.762655 
L 409.270955 -305.762655 
L 410.683971 -305.762655 
L 412.096987 -306.684576 
L 413.510003 -306.684576 
L 414.923018 -306.684576 
L 416.336034 -306.684576 
L 417.74905 -306.684576 
L 419.162066 -306.684576 
L 420.575082 -306.684576 
L 421.988098 -306.684576 
L 423.401114 -306.684576 
L 424.81413 -306.684576 
L 426.227146 -306.684576 
L 427.640162 -306.684576 
L 429.053178 -306.684576 
L 430.466194 -306.684576 
L 431.87921 -306.684576 
L 433.292226 -306.684576 
L 434.705242 -306.684576 
L 436.118258 -306.684576 
L 437.531274 -306.684576 
L 438.94429 -306.684576 
L 440.357306 -306.684576 
L 441.770322 -306.684576 
L 443.183338 -306.684576 
L 444.596354 -306.684576 
L 446.009369 -306.684576 
L 447.422385 -306.684576 
L 448.835401 -306.684576 
L 450.248417 -306.684576 
L 451.661433 -306.684576 
L 453.074449 -306.684576 
L 454.487465 -306.684576 
L 455.900481 -306.684576 
L 457.313497 -306.684576 
L 458.726513 -306.684576 
L 460.139529 -306.684576 
L 461.552545 -306.684576 
L 462.965561 -306.684576 
L 464.378577 -306.684576 
L 465.791593 -306.684576 
L 467.204609 -306.684576 
L 468.617625 -306.684576 
L 470.030641 -306.684576 
L 471.443657 -306.684576 
L 472.856673 -306.684576 
L 474.269689 -306.684576 
L 475.682704 -306.684576 
L 477.09572 -306.684576 
L 478.508736 -306.684576 
L 479.921752 -306.684576 
L 481.334768 -306.684576 
L 482.747784 -306.684576 
L 484.1608 -306.684576 
L 485.573816 -306.684576 
L 486.986832 -306.684576 
L 488.399848 -306.684576 
L 489.812864 -306.684576 
L 491.22588 -306.684576 
L 492.638896 -306.684576 
L 494.051912 -306.684576 
L 495.464928 -306.684576 
L 496.877944 -306.684576 
L 498.29096 -306.684576 
L 499.703976 -306.684576 
L 501.116992 -306.684576 
L 502.530008 -306.684576 
L 503.943024 -306.684576 
L 505.35604 -306.684576 
L 506.769055 -306.684576 
L 508.182071 -306.684576 
L 509.595087 -306.684576 
L 511.008103 -306.684576 
L 512.421119 -305.614418 
L 513.834135 -305.614418 
L 515.247151 -305.614418 
L 516.660167 -305.614418 
L 518.073183 -305.614418 
L 519.486199 -306.136359 
L 520.899215 -306.136359 
L 522.312231 -306.136359 
L 523.725247 -306.136359 
L 525.138263 -306.136359 
L 526.551279 -306.136359 
L 527.964295 -306.136359 
L 529.377311 -306.136359 
L 530.790327 -306.136359 
L 532.203343 -306.136359 
L 533.616359 -306.136359 
L 535.029375 -306.136359 
L 536.44239 -306.136359 
L 537.855406 -306.136359 
L 539.268422 -306.136359 
L 540.681438 -306.136359 
L 542.094454 -306.136359 
L 543.50747 -306.136359 
L 544.920486 -306.136359 
L 546.333502 -306.136359 
L 547.746518 -306.136359 
L 549.159534 -306.136359 
L 550.57255 -306.136359 
L 551.985566 -306.136359 
L 553.398582 -306.136359 
L 554.811598 -306.136359 
L 556.224614 -306.136359 
L 557.63763 -306.136359 
L 559.050646 -306.136359 
L 560.463662 -306.136359 
L 561.876678 -306.136359 
L 563.289694 -306.136359 
L 564.70271 -306.136359 
L 566.115726 -306.136359 
L 567.528741 -306.136359 
L 568.941757 -306.136359 
L 570.354773 -306.136359 
L 571.767789 -306.136359 
L 573.180805 -306.136359 
L 574.593821 -306.136359 
L 576.006837 -306.136359 
L 577.419853 -306.136359 
L 578.832869 -306.136359 
L 580.245885 -306.136359 
L 581.658901 -306.136359 
L 583.071917 -306.136359 
L 584.484933 -306.136359 
L 585.897949 -306.136359 
L 587.310965 -306.136359 
L 588.723981 -306.136359 
L 590.136997 -306.136359 
L 591.550013 -306.136359 
L 592.963029 -306.136359 
L 594.376045 -306.136359 
L 595.789061 -306.136359 
L 597.202076 -306.136359 
L 598.615092 -306.136359 
L 600.028108 -306.136359 
L 601.441124 -306.136359 
L 602.85414 -306.136359 
L 604.267156 -306.136359 
L 605.680172 -306.136359 
L 607.093188 -306.136359 
L 608.506204 -306.136359 
L 609.91922 -306.136359 
L 611.332236 -306.136359 
L 612.745252 -306.136359 
L 614.158268 -306.136359 
L 615.571284 -306.136359 
L 616.9843 -306.136359 
L 618.397316 -306.136359 
L 619.810332 -306.136359 
L 621.223348 -306.136359 
L 622.636364 -306.136359 
L 622.636364 -289.948185 
L 622.636364 -289.948185 
L 621.223348 -289.948185 
L 619.810332 -289.948185 
L 618.397316 -289.948185 
L 616.9843 -289.948185 
L 615.571284 -289.948185 
L 614.158268 -289.948185 
L 612.745252 -289.948185 
L 611.332236 -289.948185 
L 609.91922 -289.948185 
L 608.506204 -289.948185 
L 607.093188 -289.948185 
L 605.680172 -289.948185 
L 604.267156 -289.948185 
L 602.85414 -289.948185 
L 601.441124 -289.948185 
L 600.028108 -289.948185 
L 598.615092 -289.948185 
L 597.202076 -289.948185 
L 595.789061 -289.948185 
L 594.376045 -289.948185 
L 592.963029 -289.948185 
L 591.550013 -289.948185 
L 590.136997 -289.948185 
L 588.723981 -289.948185 
L 587.310965 -289.948185 
L 585.897949 -289.948185 
L 584.484933 -289.948185 
L 583.071917 -289.948185 
L 581.658901 -289.948185 
L 580.245885 -289.948185 
L 578.832869 -289.948185 
L 577.419853 -289.948185 
L 576.006837 -289.948185 
L 574.593821 -289.948185 
L 573.180805 -289.948185 
L 571.767789 -289.948185 
L 570.354773 -289.948185 
L 568.941757 -289.948185 
L 567.528741 -289.948185 
L 566.115726 -289.948185 
L 564.70271 -289.948185 
L 563.289694 -289.948185 
L 561.876678 -289.948185 
L 560.463662 -289.948185 
L 559.050646 -289.948185 
L 557.63763 -289.948185 
L 556.224614 -289.948185 
L 554.811598 -289.948185 
L 553.398582 -289.948185 
L 551.985566 -289.948185 
L 550.57255 -289.948185 
L 549.159534 -289.948185 
L 547.746518 -289.948185 
L 546.333502 -289.948185 
L 544.920486 -289.948185 
L 543.50747 -289.948185 
L 542.094454 -289.948185 
L 540.681438 -289.948185 
L 539.268422 -289.948185 
L 537.855406 -289.948185 
L 536.44239 -289.948185 
L 535.029375 -289.948185 
L 533.616359 -289.948185 
L 532.203343 -289.948185 
L 530.790327 -289.948185 
L 529.377311 -289.948185 
L 527.964295 -289.948185 
L 526.551279 -289.948185 
L 525.138263 -289.948185 
L 523.725247 -289.948185 
L 522.312231 -289.948185 
L 520.899215 -289.948185 
L 519.486199 -289.948185 
L 518.073183 -295.47187 
L 516.660167 -295.47187 
L 515.247151 -295.47187 
L 513.834135 -295.47187 
L 512.421119 -295.47187 
L 511.008103 -297.180576 
L 509.595087 -297.180576 
L 508.182071 -297.180576 
L 506.769055 -297.180576 
L 505.35604 -297.180576 
L 503.943024 -297.180576 
L 502.530008 -297.180576 
L 501.116992 -297.180576 
L 499.703976 -297.180576 
L 498.29096 -297.180576 
L 496.877944 -297.180576 
L 495.464928 -297.180576 
L 494.051912 -297.180576 
L 492.638896 -297.180576 
L 491.22588 -297.180576 
L 489.812864 -297.180576 
L 488.399848 -297.180576 
L 486.986832 -297.180576 
L 485.573816 -297.180576 
L 484.1608 -297.180576 
L 482.747784 -297.180576 
L 481.334768 -297.180576 
L 479.921752 -297.180576 
L 478.508736 -297.180576 
L 477.09572 -297.180576 
L 475.682704 -297.180576 
L 474.269689 -297.180576 
L 472.856673 -297.180576 
L 471.443657 -297.180576 
L 470.030641 -297.180576 
L 468.617625 -297.180576 
L 467.204609 -297.180576 
L 465.791593 -297.180576 
L 464.378577 -297.180576 
L 462.965561 -297.180576 
L 461.552545 -297.180576 
L 460.139529 -297.180576 
L 458.726513 -297.180576 
L 457.313497 -297.180576 
L 455.900481 -297.180576 
L 454.487465 -297.180576 
L 453.074449 -297.180576 
L 451.661433 -297.180576 
L 450.248417 -297.180576 
L 448.835401 -297.180576 
L 447.422385 -297.180576 
L 446.009369 -297.180576 
L 444.596354 -297.180576 
L 443.183338 -297.180576 
L 441.770322 -297.180576 
L 440.357306 -297.180576 
L 438.94429 -297.180576 
L 437.531274 -297.180576 
L 436.118258 -297.180576 
L 434.705242 -297.180576 
L 433.292226 -297.180576 
L 431.87921 -297.180576 
L 430.466194 -297.180576 
L 429.053178 -297.180576 
L 427.640162 -297.180576 
L 426.227146 -297.180576 
L 424.81413 -297.180576 
L 423.401114 -297.180576 
L 421.988098 -297.180576 
L 420.575082 -297.180576 
L 419.162066 -297.180576 
L 417.74905 -297.180576 
L 416.336034 -297.180576 
L 414.923018 -297.180576 
L 413.510003 -297.180576 
L 412.096987 -297.180576 
L 410.683971 -281.428785 
L 409.270955 -281.428785 
L 407.857939 -281.428785 
L 406.444923 -281.428785 
L 405.031907 -281.428785 
L 403.618891 -281.428785 
L 402.205875 -251.082187 
L 400.792859 -251.082187 
L 399.379843 -251.082187 
L 397.966827 -251.082187 
L 396.553811 -251.082187 
L 395.140795 -251.082187 
L 393.727779 -251.082187 
L 392.314763 -251.082187 
L 390.901747 -251.082187 
L 389.488731 -251.082187 
L 388.075715 -251.082187 
L 386.662699 -251.082187 
L 385.249683 -251.082187 
L 383.836668 -251.082187 
L 382.423652 -251.082187 
L 381.010636 -251.082187 
L 379.59762 -252.13546 
L 378.184604 -252.13546 
L 376.771588 -252.13546 
L 375.358572 -252.13546 
L 373.945556 -252.13546 
L 372.53254 -252.13546 
L 371.119524 -252.13546 
L 369.706508 -252.13546 
L 368.293492 -252.13546 
L 366.880476 -252.13546 
L 365.46746 -252.13546 
L 364.054444 -252.13546 
L 362.641428 -252.13546 
L 361.228412 -252.13546 
L 359.815396 -252.13546 
L 358.40238 -252.13546 
L 356.989364 -252.13546 
L 355.576348 -252.13546 
L 354.163332 -252.13546 
L 352.750317 -252.13546 
L 351.337301 -252.13546 
L 349.924285 -252.13546 
L 348.511269 -252.13546 
L 347.098253 -252.13546 
L 345.685237 -252.13546 
L 344.272221 -252.13546 
L 342.859205 -252.13546 
L 341.446189 -252.13546 
L 340.033173 -252.13546 
L 338.620157 -252.13546 
L 337.207141 -252.13546 
L 335.794125 -252.13546 
L 334.381109 -252.13546 
L 332.968093 -252.13546 
L 331.555077 -252.13546 
L 330.142061 -252.13546 
L 328.729045 -252.13546 
L 327.316029 -252.13546 
L 325.903013 -252.13546 
L 324.489997 -252.13546 
L 323.076982 -252.13546 
L 321.663966 -252.13546 
L 320.25095 -252.13546 
L 318.837934 -252.13546 
L 317.424918 -252.13546 
L 316.011902 -252.13546 
L 314.598886 -252.13546 
L 313.18587 -252.13546 
L 311.772854 -252.13546 
L 310.359838 -252.13546 
L 308.946822 -252.13546 
L 307.533806 -252.13546 
L 306.12079 -252.13546 
L 304.707774 -252.13546 
L 303.294758 -251.543208 
L 301.881742 -251.543208 
L 300.468726 -251.543208 
L 299.05571 -251.543208 
L 297.642694 -251.543208 
L 296.229678 -251.543208 
L 294.816662 -281.589922 
L 293.403646 -281.589922 
L 291.990631 -281.589922 
L 290.577615 -281.589922 
L 289.164599 -281.589922 
L 287.751583 -282.386022 
L 286.338567 -282.386022 
L 284.925551 -282.386022 
L 283.512535 -282.386022 
L 282.099519 -282.386022 
L 280.686503 -282.386022 
L 279.273487 -282.386022 
L 277.860471 -282.386022 
L 276.447455 -282.386022 
L 275.034439 -282.386022 
L 273.621423 -282.386022 
L 272.208407 -282.386022 
L 270.795391 -282.386022 
L 269.382375 -282.386022 
L 267.969359 -282.386022 
L 266.556343 -282.386022 
L 265.143327 -282.386022 
L 263.730311 -282.386022 
L 262.317296 -282.386022 
L 260.90428 -282.386022 
L 259.491264 -282.386022 
L 258.078248 -282.386022 
L 256.665232 -282.386022 
L 255.252216 -282.386022 
L 253.8392 -282.386022 
L 252.426184 -282.386022 
L 251.013168 -282.386022 
L 249.600152 -282.099352 
L 248.187136 -282.099352 
L 246.77412 -282.099352 
L 245.361104 -282.099352 
L 243.948088 -282.099352 
L 242.535072 -282.099352 
L 241.122056 -282.386022 
L 239.70904 -282.386022 
L 238.296024 -282.386022 
L 236.883008 -282.386022 
L 235.469992 -282.386022 
L 234.056976 -282.386022 
L 232.64396 -282.386022 
L 231.230945 -282.386022 
L 229.817929 -282.386022 
L 228.404913 -282.386022 
L 226.991897 -282.386022 
L 225.578881 -282.099352 
L 224.165865 -282.099352 
L 222.752849 -282.099352 
L 221.339833 -282.099352 
L 219.926817 -282.099352 
L 218.513801 -282.386022 
L 217.100785 -282.386022 
L 215.687769 -282.386022 
L 214.274753 -282.386022 
L 212.861737 -282.386022 
L 211.448721 -282.386022 
L 210.035705 -282.386022 
L 208.622689 -282.386022 
L 207.209673 -282.386022 
L 205.796657 -282.386022 
L 204.383641 -282.386022 
L 202.970625 -282.386022 
L 201.55761 -282.386022 
L 200.144594 -282.386022 
L 198.731578 -282.386022 
L 197.318562 -282.386022 
L 195.905546 -282.386022 
L 194.49253 -282.386022 
L 193.079514 -282.386022 
L 191.666498 -282.386022 
L 190.253482 -282.386022 
L 188.840466 -282.386022 
L 187.42745 -260.674486 
L 186.014434 -260.674486 
L 184.601418 -260.674486 
L 183.188402 -260.674486 
L 181.775386 -260.674486 
L 180.36237 -176.429007 
L 178.949354 -176.429007 
L 177.536338 -176.429007 
L 176.123322 -176.429007 
L 174.710306 -176.429007 
L 173.29729 -176.429007 
L 171.884274 -176.429007 
L 170.471259 -176.429007 
L 169.058243 -176.429007 
L 167.645227 -176.429007 
L 166.232211 -176.429007 
L 164.819195 -176.429007 
L 163.406179 -176.429007 
L 161.993163 -176.429007 
L 160.580147 -176.429007 
L 159.167131 -176.429007 
L 157.754115 -176.429007 
L 156.341099 -176.429007 
L 154.928083 -176.429007 
L 153.515067 -176.429007 
L 152.102051 -176.429007 
L 150.689035 -176.429007 
L 149.276019 -175.878005 
L 147.863003 -175.878005 
L 146.449987 -175.878005 
L 145.036971 -175.878005 
L 143.623955 -175.878005 
L 142.210939 -176.429007 
L 140.797924 -176.429007 
L 139.384908 -176.429007 
L 137.971892 -176.429007 
L 136.558876 -176.429007 
L 135.14586 -176.429007 
L 133.732844 -176.429007 
L 132.319828 -176.429007 
L 130.906812 -176.429007 
L 129.493796 -176.429007 
L 128.08078 -176.429007 
L 126.667764 -176.429007 
L 125.254748 -176.429007 
L 123.841732 -176.429007 
L 122.428716 -176.429007 
L 121.0157 -176.429007 
L 119.602684 -176.429007 
L 118.189668 -176.429007 
L 116.776652 -176.429007 
L 115.363636 -176.429007 
z
" style="stroke: #482475; stroke-opacity: 0.2"/>
    </defs>
    <g clip-path="url(#p4a5d7776fd)">
     <use xlink:href="#madca2ff07b" x="0" y="360" style="fill: #482475; fill-opacity: 0.2; stroke: #482475; stroke-opacity: 0.2"/>
    </g>
   </g>
   <g id="PolyCollection_2">
    <defs>
     <path id="ma7c48f4896" d="M 115.363636 -69.443052 
L 115.363636 -130.918217 
L 116.776652 -130.918217 
L 118.189668 -130.918217 
L 119.602684 -145.332467 
L 121.0157 -145.332467 
L 122.428716 -145.332467 
L 123.841732 -145.332467 
L 125.254748 -145.332467 
L 126.667764 -145.332467 
L 128.08078 -146.027129 
L 129.493796 -146.027129 
L 130.906812 -146.027129 
L 132.319828 -146.027129 
L 133.732844 -146.027129 
L 135.14586 -146.014586 
L 136.558876 -146.014586 
L 137.971892 -146.014586 
L 139.384908 -146.014586 
L 140.797924 -146.014586 
L 142.210939 -146.014586 
L 143.623955 -146.014586 
L 145.036971 -146.014586 
L 146.449987 -146.014586 
L 147.863003 -146.014586 
L 149.276019 -146.014586 
L 150.689035 -146.110873 
L 152.102051 -146.110873 
L 153.515067 -146.110873 
L 154.928083 -146.110873 
L 156.341099 -146.110873 
L 157.754115 -146.110873 
L 159.167131 -146.110873 
L 160.580147 -146.110873 
L 161.993163 -146.110873 
L 163.406179 -146.110873 
L 164.819195 -146.110873 
L 166.232211 -146.31617 
L 167.645227 -146.31617 
L 169.058243 -146.31617 
L 170.471259 -146.31617 
L 171.884274 -146.31617 
L 173.29729 -150.305315 
L 174.710306 -150.305315 
L 176.123322 -150.305315 
L 177.536338 -150.305315 
L 178.949354 -150.305315 
L 180.36237 -150.305315 
L 181.775386 -222.491993 
L 183.188402 -222.491993 
L 184.601418 -222.491993 
L 186.014434 -222.491993 
L 187.42745 -222.491993 
L 188.840466 -298.069649 
L 190.253482 -298.069649 
L 191.666498 -298.069649 
L 193.079514 -298.069649 
L 194.49253 -298.069649 
L 195.905546 -298.069649 
L 197.318562 -295.957245 
L 198.731578 -295.957245 
L 200.144594 -295.957245 
L 201.55761 -295.957245 
L 202.970625 -295.957245 
L 204.383641 -291.79392 
L 205.796657 -291.79392 
L 207.209673 -291.79392 
L 208.622689 -291.79392 
L 210.035705 -291.79392 
L 211.448721 -291.907769 
L 212.861737 -291.907769 
L 214.274753 -291.907769 
L 215.687769 -291.907769 
L 217.100785 -291.907769 
L 218.513801 -291.907769 
L 219.926817 -291.93291 
L 221.339833 -291.93291 
L 222.752849 -291.93291 
L 224.165865 -291.93291 
L 225.578881 -291.93291 
L 226.991897 -291.907769 
L 228.404913 -291.907769 
L 229.817929 -291.907769 
L 231.230945 -291.907769 
L 232.64396 -291.907769 
L 234.056976 -291.907769 
L 235.469992 -291.907769 
L 236.883008 -291.907769 
L 238.296024 -291.907769 
L 239.70904 -291.907769 
L 241.122056 -291.907769 
L 242.535072 -291.903204 
L 243.948088 -291.903204 
L 245.361104 -291.903204 
L 246.77412 -291.903204 
L 248.187136 -291.903204 
L 249.600152 -291.903204 
L 251.013168 -291.907769 
L 252.426184 -291.907769 
L 253.8392 -291.907769 
L 255.252216 -291.907769 
L 256.665232 -291.907769 
L 258.078248 -291.907769 
L 259.491264 -291.907769 
L 260.90428 -291.907769 
L 262.317296 -291.907769 
L 263.730311 -291.907769 
L 265.143327 -291.907769 
L 266.556343 -291.907769 
L 267.969359 -291.907769 
L 269.382375 -291.907769 
L 270.795391 -291.907769 
L 272.208407 -291.907769 
L 273.621423 -291.907769 
L 275.034439 -291.907769 
L 276.447455 -291.907769 
L 277.860471 -291.907769 
L 279.273487 -291.907769 
L 280.686503 -291.907769 
L 282.099519 -291.907769 
L 283.512535 -291.907769 
L 284.925551 -291.907769 
L 286.338567 -291.907769 
L 287.751583 -291.907769 
L 289.164599 -284.072742 
L 290.577615 -284.072742 
L 291.990631 -284.072742 
L 293.403646 -284.072742 
L 294.816662 -284.072742 
L 296.229678 -238.669866 
L 297.642694 -238.669866 
L 299.05571 -238.669866 
L 300.468726 -238.669866 
L 301.881742 -238.669866 
L 303.294758 -238.669866 
L 304.707774 -238.752903 
L 306.12079 -238.752903 
L 307.533806 -238.752903 
L 308.946822 -238.752903 
L 310.359838 -238.752903 
L 311.772854 -229.565858 
L 313.18587 -229.565858 
L 314.598886 -229.565858 
L 316.011902 -229.565858 
L 317.424918 -229.565858 
L 318.837934 -229.565858 
L 320.25095 -204.028471 
L 321.663966 -204.028471 
L 323.076982 -204.028471 
L 324.489997 -204.028471 
L 325.903013 -204.028471 
L 327.316029 -184.248612 
L 328.729045 -184.248612 
L 330.142061 -184.248612 
L 331.555077 -184.248612 
L 332.968093 -184.248612 
L 334.381109 -184.248612 
L 335.794125 -139.614986 
L 337.207141 -139.614986 
L 338.620157 -139.614986 
L 340.033173 -139.614986 
L 341.446189 -139.614986 
L 342.859205 -102.724317 
L 344.272221 -102.724317 
L 345.685237 -102.724317 
L 347.098253 -102.724317 
L 348.511269 -102.724317 
L 349.924285 -132.62722 
L 351.337301 -132.62722 
L 352.750317 -132.62722 
L 354.163332 -132.62722 
L 355.576348 -132.62722 
L 356.989364 -132.62722 
L 358.40238 -205.810718 
L 359.815396 -205.810718 
L 361.228412 -205.810718 
L 362.641428 -205.810718 
L 364.054444 -205.810718 
L 365.46746 -210.009196 
L 366.880476 -210.009196 
L 368.293492 -210.009196 
L 369.706508 -210.009196 
L 371.119524 -210.009196 
L 372.53254 -210.009196 
L 373.945556 -211.491122 
L 375.358572 -211.491122 
L 376.771588 -211.491122 
L 378.184604 -211.491122 
L 379.59762 -211.491122 
L 381.010636 -212.86878 
L 382.423652 -212.86878 
L 383.836668 -212.86878 
L 385.249683 -212.86878 
L 386.662699 -212.86878 
L 388.075715 -212.86878 
L 389.488731 -212.86878 
L 390.901747 -212.86878 
L 392.314763 -212.86878 
L 393.727779 -212.86878 
L 395.140795 -212.86878 
L 396.553811 -212.86878 
L 397.966827 -212.86878 
L 399.379843 -212.86878 
L 400.792859 -212.86878 
L 402.205875 -212.86878 
L 403.618891 -262.309139 
L 405.031907 -262.309139 
L 406.444923 -262.309139 
L 407.857939 -262.309139 
L 409.270955 -262.309139 
L 410.683971 -262.309139 
L 412.096987 -305.572969 
L 413.510003 -305.572969 
L 414.923018 -305.572969 
L 416.336034 -305.572969 
L 417.74905 -305.572969 
L 419.162066 -305.100576 
L 420.575082 -305.100576 
L 421.988098 -305.100576 
L 423.401114 -305.100576 
L 424.81413 -305.100576 
L 426.227146 -305.100576 
L 427.640162 -303.6 
L 429.053178 -303.6 
L 430.466194 -303.6 
L 431.87921 -303.6 
L 433.292226 -303.6 
L 434.705242 -303.6 
L 436.118258 -303.6 
L 437.531274 -303.6 
L 438.94429 -303.6 
L 440.357306 -303.6 
L 441.770322 -303.6 
L 443.183338 -303.6 
L 444.596354 -303.6 
L 446.009369 -303.6 
L 447.422385 -303.6 
L 448.835401 -303.6 
L 450.248417 -304.114008 
L 451.661433 -304.114008 
L 453.074449 -304.114008 
L 454.487465 -304.114008 
L 455.900481 -304.114008 
L 457.313497 -304.114008 
L 458.726513 -303.6 
L 460.139529 -303.6 
L 461.552545 -303.6 
L 462.965561 -303.6 
L 464.378577 -303.6 
L 465.791593 -303.6 
L 467.204609 -303.6 
L 468.617625 -303.6 
L 470.030641 -303.6 
L 471.443657 -303.6 
L 472.856673 -304.114008 
L 474.269689 -304.114008 
L 475.682704 -304.114008 
L 477.09572 -304.114008 
L 478.508736 -304.114008 
L 479.921752 -304.114008 
L 481.334768 -303.6 
L 482.747784 -303.6 
L 484.1608 -303.6 
L 485.573816 -303.6 
L 486.986832 -303.6 
L 488.399848 -303.6 
L 489.812864 -303.6 
L 491.22588 -303.6 
L 492.638896 -303.6 
L 494.051912 -303.6 
L 495.464928 -303.6 
L 496.877944 -303.6 
L 498.29096 -303.6 
L 499.703976 -303.6 
L 501.116992 -303.6 
L 502.530008 -303.6 
L 503.943024 -303.6 
L 505.35604 -303.6 
L 506.769055 -303.6 
L 508.182071 -303.6 
L 509.595087 -303.6 
L 511.008103 -303.6 
L 512.421119 -297.850034 
L 513.834135 -297.850034 
L 515.247151 -297.850034 
L 516.660167 -297.850034 
L 518.073183 -297.850034 
L 519.486199 -245.644146 
L 520.899215 -245.644146 
L 522.312231 -245.644146 
L 523.725247 -245.644146 
L 525.138263 -245.644146 
L 526.551279 -245.644146 
L 527.964295 -240.507528 
L 529.377311 -240.507528 
L 530.790327 -240.507528 
L 532.203343 -240.507528 
L 533.616359 -240.507528 
L 535.029375 -225.771999 
L 536.44239 -225.771999 
L 537.855406 -225.771999 
L 539.268422 -225.771999 
L 540.681438 -225.771999 
L 542.094454 -225.707355 
L 543.50747 -225.707355 
L 544.920486 -225.707355 
L 546.333502 -225.707355 
L 547.746518 -225.707355 
L 549.159534 -225.707355 
L 550.57255 -291.222246 
L 551.985566 -291.222246 
L 553.398582 -291.222246 
L 554.811598 -291.222246 
L 556.224614 -291.222246 
L 557.63763 -303.812132 
L 559.050646 -303.812132 
L 560.463662 -303.812132 
L 561.876678 -303.812132 
L 563.289694 -303.812132 
L 564.70271 -303.812132 
L 566.115726 -307.684756 
L 567.528741 -307.684756 
L 568.941757 -307.684756 
L 570.354773 -307.684756 
L 571.767789 -307.684756 
L 573.180805 -308.106562 
L 574.593821 -308.106562 
L 576.006837 -308.106562 
L 577.419853 -308.106562 
L 578.832869 -308.106562 
L 580.245885 -308.106562 
L 581.658901 -308.106562 
L 583.071917 -308.106562 
L 584.484933 -308.106562 
L 585.897949 -308.106562 
L 587.310965 -308.106562 
L 588.723981 -308.106562 
L 590.136997 -308.106562 
L 591.550013 -308.106562 
L 592.963029 -308.106562 
L 594.376045 -308.106562 
L 595.789061 -308.106562 
L 597.202076 -308.106562 
L 598.615092 -308.106562 
L 600.028108 -308.106562 
L 601.441124 -308.106562 
L 602.85414 -308.106562 
L 604.267156 -308.106562 
L 605.680172 -308.106562 
L 607.093188 -308.106562 
L 608.506204 -308.106562 
L 609.91922 -308.106562 
L 611.332236 -308.106562 
L 612.745252 -308.106562 
L 614.158268 -308.106562 
L 615.571284 -308.106562 
L 616.9843 -308.106562 
L 618.397316 -308.106562 
L 619.810332 -308.106562 
L 621.223348 -308.106562 
L 622.636364 -308.106562 
L 622.636364 -281.308286 
L 622.636364 -281.308286 
L 621.223348 -281.308286 
L 619.810332 -281.308286 
L 618.397316 -281.308286 
L 616.9843 -281.308286 
L 615.571284 -281.308286 
L 614.158268 -281.308286 
L 612.745252 -281.308286 
L 611.332236 -281.308286 
L 609.91922 -281.308286 
L 608.506204 -281.308286 
L 607.093188 -281.308286 
L 605.680172 -281.308286 
L 604.267156 -281.308286 
L 602.85414 -281.308286 
L 601.441124 -281.308286 
L 600.028108 -281.308286 
L 598.615092 -281.308286 
L 597.202076 -281.308286 
L 595.789061 -281.308286 
L 594.376045 -281.308286 
L 592.963029 -281.308286 
L 591.550013 -281.308286 
L 590.136997 -281.308286 
L 588.723981 -281.308286 
L 587.310965 -281.308286 
L 585.897949 -281.308286 
L 584.484933 -281.308286 
L 583.071917 -281.308286 
L 581.658901 -281.308286 
L 580.245885 -281.308286 
L 578.832869 -281.308286 
L 577.419853 -281.308286 
L 576.006837 -281.308286 
L 574.593821 -281.308286 
L 573.180805 -281.308286 
L 571.767789 -281.174108 
L 570.354773 -281.174108 
L 568.941757 -281.174108 
L 567.528741 -281.174108 
L 566.115726 -281.174108 
L 564.70271 -275.042188 
L 563.289694 -275.042188 
L 561.876678 -275.042188 
L 560.463662 -275.042188 
L 559.050646 -275.042188 
L 557.63763 -275.042188 
L 556.224614 -199.817226 
L 554.811598 -199.817226 
L 553.398582 -199.817226 
L 551.985566 -199.817226 
L 550.57255 -199.817226 
L 549.159534 -150.841125 
L 547.746518 -150.841125 
L 546.333502 -150.841125 
L 544.920486 -150.841125 
L 543.50747 -150.841125 
L 542.094454 -150.841125 
L 540.681438 -154.666257 
L 539.268422 -154.666257 
L 537.855406 -154.666257 
L 536.44239 -154.666257 
L 535.029375 -154.666257 
L 533.616359 -170.498232 
L 532.203343 -170.498232 
L 530.790327 -170.498232 
L 529.377311 -170.498232 
L 527.964295 -170.498232 
L 526.551279 -174.254718 
L 525.138263 -174.254718 
L 523.725247 -174.254718 
L 522.312231 -174.254718 
L 520.899215 -174.254718 
L 519.486199 -174.254718 
L 518.073183 -242.099134 
L 516.660167 -242.099134 
L 515.247151 -242.099134 
L 513.834135 -242.099134 
L 512.421119 -242.099134 
L 511.008103 -303.6 
L 509.595087 -303.6 
L 508.182071 -303.6 
L 506.769055 -303.6 
L 505.35604 -303.6 
L 503.943024 -303.6 
L 502.530008 -303.6 
L 501.116992 -303.6 
L 499.703976 -303.6 
L 498.29096 -303.6 
L 496.877944 -303.6 
L 495.464928 -303.6 
L 494.051912 -303.6 
L 492.638896 -303.6 
L 491.22588 -303.6 
L 489.812864 -303.6 
L 488.399848 -303.6 
L 486.986832 -303.6 
L 485.573816 -303.6 
L 484.1608 -303.6 
L 482.747784 -303.6 
L 481.334768 -303.6 
L 479.921752 -302.530008 
L 478.508736 -302.530008 
L 477.09572 -302.530008 
L 475.682704 -302.530008 
L 474.269689 -302.530008 
L 472.856673 -302.530008 
L 471.443657 -303.6 
L 470.030641 -303.6 
L 468.617625 -303.6 
L 467.204609 -303.6 
L 465.791593 -303.6 
L 464.378577 -303.6 
L 462.965561 -303.6 
L 461.552545 -303.6 
L 460.139529 -303.6 
L 458.726513 -303.6 
L 457.313497 -302.530008 
L 455.900481 -302.530008 
L 454.487465 -302.530008 
L 453.074449 -302.530008 
L 451.661433 -302.530008 
L 450.248417 -302.530008 
L 448.835401 -303.6 
L 447.422385 -303.6 
L 446.009369 -303.6 
L 444.596354 -303.6 
L 443.183338 -303.6 
L 441.770322 -303.6 
L 440.357306 -303.6 
L 438.94429 -303.6 
L 437.531274 -303.6 
L 436.118258 -303.6 
L 434.705242 -303.6 
L 433.292226 -303.6 
L 431.87921 -303.6 
L 430.466194 -303.6 
L 429.053178 -303.6 
L 427.640162 -303.6 
L 426.227146 -298.764576 
L 424.81413 -298.764576 
L 423.401114 -298.764576 
L 421.988098 -298.764576 
L 420.575082 -298.764576 
L 419.162066 -298.764576 
L 417.74905 -269.390519 
L 416.336034 -269.390519 
L 414.923018 -269.390519 
L 413.510003 -269.390519 
L 412.096987 -269.390519 
L 410.683971 -200.940637 
L 409.270955 -200.940637 
L 407.857939 -200.940637 
L 406.444923 -200.940637 
L 405.031907 -200.940637 
L 403.618891 -200.940637 
L 402.205875 -178.128948 
L 400.792859 -178.128948 
L 399.379843 -178.128948 
L 397.966827 -178.128948 
L 396.553811 -178.128948 
L 395.140795 -178.128948 
L 393.727779 -178.128948 
L 392.314763 -178.128948 
L 390.901747 -178.128948 
L 389.488731 -178.128948 
L 388.075715 -178.128948 
L 386.662699 -178.128948 
L 385.249683 -178.128948 
L 383.836668 -178.128948 
L 382.423652 -178.128948 
L 381.010636 -178.128948 
L 379.59762 -178.395166 
L 378.184604 -178.395166 
L 376.771588 -178.395166 
L 375.358572 -178.395166 
L 373.945556 -178.395166 
L 372.53254 -174.319364 
L 371.119524 -174.319364 
L 369.706508 -174.319364 
L 368.293492 -174.319364 
L 366.880476 -174.319364 
L 365.46746 -174.319364 
L 364.054444 -147.393298 
L 362.641428 -147.393298 
L 361.228412 -147.393298 
L 359.815396 -147.393298 
L 358.40238 -147.393298 
L 356.989364 -85.519676 
L 355.576348 -85.519676 
L 354.163332 -85.519676 
L 352.750317 -85.519676 
L 351.337301 -85.519676 
L 349.924285 -85.519676 
L 348.511269 -65.957163 
L 347.098253 -65.957163 
L 345.685237 -65.957163 
L 344.272221 -65.957163 
L 342.859205 -65.957163 
L 341.446189 -69.639546 
L 340.033173 -69.639546 
L 338.620157 -69.639546 
L 337.207141 -69.639546 
L 335.794125 -69.639546 
L 334.381109 -80.029116 
L 332.968093 -80.029116 
L 331.555077 -80.029116 
L 330.142061 -80.029116 
L 328.729045 -80.029116 
L 327.316029 -80.029116 
L 325.903013 -113.604713 
L 324.489997 -113.604713 
L 323.076982 -113.604713 
L 321.663966 -113.604713 
L 320.25095 -113.604713 
L 318.837934 -184.219294 
L 317.424918 -184.219294 
L 316.011902 -184.219294 
L 314.598886 -184.219294 
L 313.18587 -184.219294 
L 311.772854 -184.219294 
L 310.359838 -213.381417 
L 308.946822 -213.381417 
L 307.533806 -213.381417 
L 306.12079 -213.381417 
L 304.707774 -213.381417 
L 303.294758 -216.243846 
L 301.881742 -216.243846 
L 300.468726 -216.243846 
L 299.05571 -216.243846 
L 297.642694 -216.243846 
L 296.229678 -216.243846 
L 294.816662 -236.42385 
L 293.403646 -236.42385 
L 291.990631 -236.42385 
L 290.577615 -236.42385 
L 289.164599 -236.42385 
L 287.751583 -238.592839 
L 286.338567 -238.592839 
L 284.925551 -238.592839 
L 283.512535 -238.592839 
L 282.099519 -238.592839 
L 280.686503 -238.592839 
L 279.273487 -238.592839 
L 277.860471 -238.592839 
L 276.447455 -238.592839 
L 275.034439 -238.592839 
L 273.621423 -238.592839 
L 272.208407 -238.592839 
L 270.795391 -238.592839 
L 269.382375 -238.592839 
L 267.969359 -238.592839 
L 266.556343 -238.592839 
L 265.143327 -238.592839 
L 263.730311 -238.592839 
L 262.317296 -238.592839 
L 260.90428 -238.592839 
L 259.491264 -238.592839 
L 258.078248 -238.592839 
L 256.665232 -238.592839 
L 255.252216 -238.592839 
L 253.8392 -238.592839 
L 252.426184 -238.592839 
L 251.013168 -238.592839 
L 249.600152 -239.153388 
L 248.187136 -239.153388 
L 246.77412 -239.153388 
L 245.361104 -239.153388 
L 243.948088 -239.153388 
L 242.535072 -239.153388 
L 241.122056 -238.592839 
L 239.70904 -238.592839 
L 238.296024 -238.592839 
L 236.883008 -238.592839 
L 235.469992 -238.592839 
L 234.056976 -238.592839 
L 232.64396 -238.592839 
L 231.230945 -238.592839 
L 229.817929 -238.592839 
L 228.404913 -238.592839 
L 226.991897 -238.592839 
L 225.578881 -238.012242 
L 224.165865 -238.012242 
L 222.752849 -238.012242 
L 221.339833 -238.012242 
L 219.926817 -238.012242 
L 218.513801 -238.592839 
L 217.100785 -238.592839 
L 215.687769 -238.592839 
L 214.274753 -238.592839 
L 212.861737 -238.592839 
L 211.448721 -238.592839 
L 210.035705 -234.816384 
L 208.622689 -234.816384 
L 207.209673 -234.816384 
L 205.796657 -234.816384 
L 204.383641 -234.816384 
L 202.970625 -212.312979 
L 201.55761 -212.312979 
L 200.144594 -212.312979 
L 198.731578 -212.312979 
L 197.318562 -212.312979 
L 195.905546 -172.405649 
L 194.49253 -172.405649 
L 193.079514 -172.405649 
L 191.666498 -172.405649 
L 190.253482 -172.405649 
L 188.840466 -172.405649 
L 187.42745 -123.486713 
L 186.014434 -123.486713 
L 184.601418 -123.486713 
L 183.188402 -123.486713 
L 181.775386 -123.486713 
L 180.36237 -81.736429 
L 178.949354 -81.736429 
L 177.536338 -81.736429 
L 176.123322 -81.736429 
L 174.710306 -81.736429 
L 173.29729 -81.736429 
L 171.884274 -76.277014 
L 170.471259 -76.277014 
L 169.058243 -76.277014 
L 167.645227 -76.277014 
L 166.232211 -76.277014 
L 164.819195 -73.147463 
L 163.406179 -73.147463 
L 161.993163 -73.147463 
L 160.580147 -73.147463 
L 159.167131 -73.147463 
L 157.754115 -73.147463 
L 156.341099 -73.147463 
L 154.928083 -73.147463 
L 153.515067 -73.147463 
L 152.102051 -73.147463 
L 150.689035 -73.147463 
L 149.276019 -72.13231 
L 147.863003 -72.13231 
L 146.449987 -72.13231 
L 145.036971 -72.13231 
L 143.623955 -72.13231 
L 142.210939 -72.13231 
L 140.797924 -72.13231 
L 139.384908 -72.13231 
L 137.971892 -72.13231 
L 136.558876 -72.13231 
L 135.14586 -72.13231 
L 133.732844 -71.564152 
L 132.319828 -71.564152 
L 130.906812 -71.564152 
L 129.493796 -71.564152 
L 128.08078 -71.564152 
L 126.667764 -71.147058 
L 125.254748 -71.147058 
L 123.841732 -71.147058 
L 122.428716 -71.147058 
L 121.0157 -71.147058 
L 119.602684 -71.147058 
L 118.189668 -69.443052 
L 116.776652 -69.443052 
L 115.363636 -69.443052 
z
" style="stroke: #bddf26; stroke-opacity: 0.2"/>
    </defs>
    <g clip-path="url(#p4a5d7776fd)">
     <use xlink:href="#ma7c48f4896" x="0" y="360" style="fill: #bddf26; fill-opacity: 0.2; stroke: #bddf26; stroke-opacity: 0.2"/>
    </g>
   </g>
   <g id="matplotlib.axis_1">
    <g id="xtick_1">
     <g id="line2d_1">
      <defs>
       <path id="me3d9ea5860" d="M 0 0 
L 0 3.5 
" style="stroke: #000000; stroke-width: 0.8"/>
      </defs>
      <g>
       <use xlink:href="#me3d9ea5860" x="146.107438" y="320.4" style="stroke: #000000; stroke-width: 0.8"/>
      </g>
     </g>
     <g id="text_1">
      <!-- $\mathdefault{100}$ -->
      <g transform="translate(135.498905 337.431808) scale(0.145 -0.145)">
       <defs>
        <path id="CMR17-31" d="M 1702 4058 
C 1702 4192 1696 4192 1606 4192 
C 1357 3916 979 3827 621 3827 
C 602 3827 570 3827 563 3808 
C 557 3795 557 3782 557 3648 
C 755 3648 1088 3686 1344 3839 
L 1344 461 
C 1344 236 1331 160 781 160 
L 589 160 
L 589 0 
C 896 0 1216 0 1523 0 
C 1830 0 2150 0 2458 0 
L 2458 160 
L 2266 160 
C 1715 160 1702 230 1702 458 
L 1702 4058 
z
" transform="scale(0.015625)"/>
        <path id="CMR17-30" d="M 2688 2025 
C 2688 2416 2682 3080 2413 3591 
C 2176 4039 1798 4198 1466 4198 
C 1158 4198 768 4058 525 3597 
C 269 3118 243 2524 243 2025 
C 243 1661 250 1106 448 619 
C 723 -39 1216 -128 1466 -128 
C 1760 -128 2208 -7 2470 600 
C 2662 1042 2688 1559 2688 2025 
z
M 1466 -26 
C 1056 -26 813 325 723 812 
C 653 1188 653 1738 653 2096 
C 653 2588 653 2997 736 3387 
C 858 3929 1216 4096 1466 4096 
C 1728 4096 2067 3923 2189 3400 
C 2272 3036 2278 2607 2278 2096 
C 2278 1680 2278 1169 2202 792 
C 2067 95 1690 -26 1466 -26 
z
" transform="scale(0.015625)"/>
       </defs>
       <use xlink:href="#CMR17-31" transform="scale(0.996264)"/>
       <use xlink:href="#CMR17-30" transform="translate(45.690477 0) scale(0.996264)"/>
       <use xlink:href="#CMR17-30" transform="translate(91.380954 0) scale(0.996264)"/>
      </g>
     </g>
    </g>
    <g id="xtick_2">
     <g id="line2d_2">
      <g>
       <use xlink:href="#me3d9ea5860" x="222.966942" y="320.4" style="stroke: #000000; stroke-width: 0.8"/>
      </g>
     </g>
     <g id="text_2">
      <!-- $\mathdefault{200}$ -->
      <g transform="translate(212.358409 337.431808) scale(0.145 -0.145)">
       <defs>
        <path id="CMR17-32" d="M 2669 989 
L 2554 989 
C 2490 536 2438 459 2413 420 
C 2381 369 1920 369 1830 369 
L 602 369 
C 832 619 1280 1072 1824 1597 
C 2214 1967 2669 2402 2669 3035 
C 2669 3790 2067 4224 1395 4224 
C 691 4224 262 3604 262 3030 
C 262 2780 448 2748 525 2748 
C 589 2748 781 2787 781 3010 
C 781 3207 614 3264 525 3264 
C 486 3264 448 3258 422 3245 
C 544 3790 915 4058 1306 4058 
C 1862 4058 2227 3617 2227 3035 
C 2227 2479 1901 2000 1536 1584 
L 262 146 
L 262 0 
L 2515 0 
L 2669 989 
z
" transform="scale(0.015625)"/>
       </defs>
       <use xlink:href="#CMR17-32" transform="scale(0.996264)"/>
       <use xlink:href="#CMR17-30" transform="translate(45.690477 0) scale(0.996264)"/>
       <use xlink:href="#CMR17-30" transform="translate(91.380954 0) scale(0.996264)"/>
      </g>
     </g>
    </g>
    <g id="xtick_3">
     <g id="line2d_3">
      <g>
       <use xlink:href="#me3d9ea5860" x="299.826446" y="320.4" style="stroke: #000000; stroke-width: 0.8"/>
      </g>
     </g>
     <g id="text_3">
      <!-- $\mathdefault{300}$ -->
      <g transform="translate(289.217913 337.431808) scale(0.145 -0.145)">
       <defs>
        <path id="CMR17-33" d="M 1414 2157 
C 1984 2157 2234 1662 2234 1090 
C 2234 320 1824 25 1453 25 
C 1114 25 563 194 390 693 
C 422 680 454 680 486 680 
C 640 680 755 782 755 948 
C 755 1133 614 1216 486 1216 
C 378 1216 211 1165 211 926 
C 211 335 787 -128 1466 -128 
C 2176 -128 2720 430 2720 1085 
C 2720 1707 2208 2157 1600 2227 
C 2086 2328 2554 2756 2554 3329 
C 2554 3820 2048 4179 1472 4179 
C 890 4179 378 3829 378 3329 
C 378 3110 544 3072 627 3072 
C 762 3072 877 3155 877 3321 
C 877 3486 762 3569 627 3569 
C 602 3569 570 3569 544 3557 
C 730 3959 1235 4032 1459 4032 
C 1683 4032 2106 3925 2106 3320 
C 2106 3143 2080 2828 1862 2550 
C 1670 2304 1453 2304 1242 2284 
C 1210 2284 1062 2269 1037 2269 
C 992 2263 966 2257 966 2208 
C 966 2163 973 2157 1101 2157 
L 1414 2157 
z
" transform="scale(0.015625)"/>
       </defs>
       <use xlink:href="#CMR17-33" transform="scale(0.996264)"/>
       <use xlink:href="#CMR17-30" transform="translate(45.690477 0) scale(0.996264)"/>
       <use xlink:href="#CMR17-30" transform="translate(91.380954 0) scale(0.996264)"/>
      </g>
     </g>
    </g>
    <g id="xtick_4">
     <g id="line2d_4">
      <g>
       <use xlink:href="#me3d9ea5860" x="376.68595" y="320.4" style="stroke: #000000; stroke-width: 0.8"/>
      </g>
     </g>
     <g id="text_4">
      <!-- $\mathdefault{400}$ -->
      <g transform="translate(366.077417 337.431808) scale(0.145 -0.145)">
       <defs>
        <path id="CMR17-34" d="M 2150 4122 
C 2150 4256 2144 4256 2029 4256 
L 128 1254 
L 128 1088 
L 1779 1088 
L 1779 457 
C 1779 224 1766 160 1318 160 
L 1197 160 
L 1197 0 
C 1402 0 1747 0 1965 0 
C 2182 0 2528 0 2733 0 
L 2733 160 
L 2611 160 
C 2163 160 2150 224 2150 457 
L 2150 1088 
L 2803 1088 
L 2803 1254 
L 2150 1254 
L 2150 4122 
z
M 1798 3703 
L 1798 1254 
L 256 1254 
L 1798 3703 
z
" transform="scale(0.015625)"/>
       </defs>
       <use xlink:href="#CMR17-34" transform="scale(0.996264)"/>
       <use xlink:href="#CMR17-30" transform="translate(45.690477 0) scale(0.996264)"/>
       <use xlink:href="#CMR17-30" transform="translate(91.380954 0) scale(0.996264)"/>
      </g>
     </g>
    </g>
    <g id="xtick_5">
     <g id="line2d_5">
      <g>
       <use xlink:href="#me3d9ea5860" x="453.545455" y="320.4" style="stroke: #000000; stroke-width: 0.8"/>
      </g>
     </g>
     <g id="text_5">
      <!-- $\mathdefault{500}$ -->
      <g transform="translate(442.936921 337.431808) scale(0.145 -0.145)">
       <defs>
        <path id="CMR17-35" d="M 730 3692 
C 794 3666 1056 3584 1325 3584 
C 1920 3584 2246 3911 2432 4100 
C 2432 4157 2432 4192 2394 4192 
C 2387 4192 2374 4192 2323 4163 
C 2099 4058 1837 3973 1517 3973 
C 1325 3973 1037 3999 723 4139 
C 653 4171 640 4171 634 4171 
C 602 4171 595 4164 595 4037 
L 595 2203 
C 595 2089 595 2057 659 2057 
C 691 2057 704 2070 736 2114 
C 941 2401 1222 2522 1542 2522 
C 1766 2522 2246 2382 2246 1289 
C 2246 1085 2246 715 2054 421 
C 1894 159 1645 25 1370 25 
C 947 25 518 320 403 814 
C 429 807 480 795 506 795 
C 589 795 749 840 749 1038 
C 749 1210 627 1280 506 1280 
C 358 1280 262 1190 262 1011 
C 262 454 704 -128 1382 -128 
C 2042 -128 2669 440 2669 1264 
C 2669 2030 2170 2624 1549 2624 
C 1222 2624 947 2503 730 2274 
L 730 3692 
z
" transform="scale(0.015625)"/>
       </defs>
       <use xlink:href="#CMR17-35" transform="scale(0.996264)"/>
       <use xlink:href="#CMR17-30" transform="translate(45.690477 0) scale(0.996264)"/>
       <use xlink:href="#CMR17-30" transform="translate(91.380954 0) scale(0.996264)"/>
      </g>
     </g>
    </g>
    <g id="xtick_6">
     <g id="line2d_6">
      <g>
       <use xlink:href="#me3d9ea5860" x="530.404959" y="320.4" style="stroke: #000000; stroke-width: 0.8"/>
      </g>
     </g>
     <g id="text_6">
      <!-- $\mathdefault{600}$ -->
      <g transform="translate(519.796425 337.431808) scale(0.145 -0.145)">
       <defs>
        <path id="CMR17-36" d="M 678 2176 
C 678 3690 1395 4032 1811 4032 
C 1946 4032 2272 4009 2400 3776 
C 2298 3776 2106 3776 2106 3553 
C 2106 3381 2246 3323 2336 3323 
C 2394 3323 2566 3348 2566 3560 
C 2566 3954 2246 4179 1805 4179 
C 1043 4179 243 3390 243 1984 
C 243 253 966 -128 1478 -128 
C 2099 -128 2688 427 2688 1283 
C 2688 2081 2170 2662 1517 2662 
C 1126 2662 838 2407 678 1960 
L 678 2176 
z
M 1478 25 
C 691 25 691 1200 691 1436 
C 691 1896 909 2560 1504 2560 
C 1613 2560 1926 2560 2138 2120 
C 2253 1870 2253 1609 2253 1289 
C 2253 944 2253 690 2118 434 
C 1978 171 1773 25 1478 25 
z
" transform="scale(0.015625)"/>
       </defs>
       <use xlink:href="#CMR17-36" transform="scale(0.996264)"/>
       <use xlink:href="#CMR17-30" transform="translate(45.690477 0) scale(0.996264)"/>
       <use xlink:href="#CMR17-30" transform="translate(91.380954 0) scale(0.996264)"/>
      </g>
     </g>
    </g>
    <g id="xtick_7">
     <g id="line2d_7">
      <g>
       <use xlink:href="#me3d9ea5860" x="607.264463" y="320.4" style="stroke: #000000; stroke-width: 0.8"/>
      </g>
     </g>
     <g id="text_7">
      <!-- $\mathdefault{700}$ -->
      <g transform="translate(596.655929 337.431808) scale(0.145 -0.145)">
       <defs>
        <path id="CMR17-37" d="M 2886 3941 
L 2886 4081 
L 1382 4081 
C 634 4081 621 4165 595 4288 
L 480 4288 
L 294 3094 
L 410 3094 
C 429 3215 474 3540 550 3661 
C 589 3712 1062 3712 1171 3712 
L 2579 3712 
L 1869 2661 
C 1395 1954 1069 999 1069 165 
C 1069 89 1069 -128 1299 -128 
C 1530 -128 1530 89 1530 171 
L 1530 465 
C 1530 1508 1709 2196 2003 2636 
L 2886 3941 
z
" transform="scale(0.015625)"/>
       </defs>
       <use xlink:href="#CMR17-37" transform="scale(0.996264)"/>
       <use xlink:href="#CMR17-30" transform="translate(45.690477 0) scale(0.996264)"/>
       <use xlink:href="#CMR17-30" transform="translate(91.380954 0) scale(0.996264)"/>
      </g>
     </g>
    </g>
    <g id="text_8">
     <!-- time (s) -->
     <g transform="translate(345.477317 355.075073) scale(0.145 -0.145)">
      <defs>
       <path id="CMSS17-74" d="M 1069 2368 
L 1901 2368 
L 1901 2737 
L 1069 2737 
L 1069 3520 
L 614 3520 
L 614 2737 
L 109 2737 
L 109 2368 
L 602 2368 
L 602 749 
C 602 384 685 -64 1107 -64 
C 1427 -64 1722 25 2003 172 
L 1901 548 
C 1747 414 1562 337 1363 337 
C 1082 337 1069 696 1069 856 
L 1069 2368 
z
" transform="scale(0.015625)"/>
       <path id="CMSS17-69" d="M 979 4183 
L 442 4183 
L 442 3648 
L 979 3648 
L 979 4183 
z
M 947 2739 
L 474 2739 
L 474 0 
L 947 0 
L 947 2739 
z
" transform="scale(0.015625)"/>
       <path id="CMSS17-6d" d="M 4288 1877 
C 4288 2308 4179 2816 3462 2816 
C 2982 2816 2694 2516 2566 2331 
C 2451 2670 2182 2816 1798 2816 
C 1363 2816 1088 2568 941 2389 
L 941 2758 
L 474 2758 
L 474 0 
L 960 0 
L 960 1559 
C 960 1939 1101 2428 1555 2428 
C 2138 2428 2138 2016 2138 1829 
L 2138 0 
L 2624 0 
L 2624 1559 
C 2624 1939 2765 2428 3219 2428 
C 3802 2428 3802 2016 3802 1829 
L 3802 0 
L 4288 0 
L 4288 1877 
z
" transform="scale(0.015625)"/>
       <path id="CMSS17-65" d="M 2502 1377 
C 2502 1590 2490 2003 2285 2345 
C 2061 2713 1696 2816 1421 2816 
C 755 2816 192 2188 192 1375 
C 192 582 774 -64 1510 -64 
C 1798 -64 2150 19 2470 248 
C 2470 274 2458 414 2451 420 
C 2451 433 2432 630 2432 656 
C 2125 407 1773 325 1517 325 
C 1107 325 666 667 646 1377 
L 2502 1377 
z
M 698 1728 
C 781 2084 1062 2421 1421 2421 
C 1517 2421 1965 2421 2080 1728 
L 698 1728 
z
" transform="scale(0.015625)"/>
       <path id="CMSS17-28" d="M 1613 4768 
C 1267 4417 474 3601 474 1588 
C 474 -433 1267 -1243 1613 -1600 
L 2003 -1600 
C 1216 -784 960 357 960 1581 
C 960 2798 1203 3946 2003 4768 
L 1613 4768 
z
" transform="scale(0.015625)"/>
       <path id="CMSS17-73" d="M 2061 2627 
C 1683 2807 1389 2807 1197 2807 
C 742 2807 198 2648 198 2003 
C 198 1359 902 1218 1094 1179 
C 1389 1122 1715 1058 1715 740 
C 1715 337 1254 337 1171 337 
C 915 337 563 407 243 638 
L 166 210 
C 531 0 883 -64 1178 -64 
C 1965 -64 2163 416 2163 781 
C 2163 1094 1984 1305 1862 1401 
C 1651 1568 1574 1587 1050 1696 
C 960 1709 646 1779 646 2066 
C 646 2432 1050 2432 1139 2432 
C 1555 2432 1811 2303 1984 2208 
L 2061 2627 
z
" transform="scale(0.015625)"/>
       <path id="CMSS17-29" d="M 723 -1600 
C 1069 -1249 1862 -433 1862 1581 
C 1862 3601 1069 4411 723 4768 
L 333 4768 
C 1120 3952 1376 2811 1376 1588 
C 1376 370 1133 -778 333 -1600 
L 723 -1600 
z
" transform="scale(0.015625)"/>
      </defs>
      <use xlink:href="#CMSS17-74" transform="scale(0.996264)"/>
      <use xlink:href="#CMSS17-69" transform="translate(33.831567 0) scale(0.996264)"/>
      <use xlink:href="#CMSS17-6d" transform="translate(56.01229 0) scale(0.996264)"/>
      <use xlink:href="#CMSS17-65" transform="translate(130.241544 0) scale(0.996264)"/>
      <use xlink:href="#CMSS17-28" transform="translate(203.109479 0) scale(0.996264)"/>
      <use xlink:href="#CMSS17-73" transform="translate(239.543393 0) scale(0.996264)"/>
      <use xlink:href="#CMSS17-29" transform="translate(275.456935 0) scale(0.996264)"/>
     </g>
    </g>
   </g>
   <g id="matplotlib.axis_2">
    <g id="ytick_1">
     <g id="line2d_8">
      <path d="M 90 320.4 
L 648 320.4 
" clip-path="url(#p4a5d7776fd)" style="fill: none; stroke-dasharray: 1.85,0.8; stroke-dashoffset: 0; stroke: #808080; stroke-width: 0.5"/>
     </g>
     <g id="line2d_9">
      <defs>
       <path id="m640cb94637" d="M 0 0 
L -3.5 0 
" style="stroke: #000000; stroke-width: 0.8"/>
      </defs>
      <g>
       <use xlink:href="#m640cb94637" x="90" y="320.4" style="stroke: #000000; stroke-width: 0.8"/>
      </g>
     </g>
     <g id="text_9">
      <!-- $\mathdefault{0.0}$ -->
      <g transform="translate(64.926206 325.415904) scale(0.145 -0.145)">
       <defs>
        <path id="CMMI12-3a" d="M 1178 307 
C 1178 492 1024 619 870 619 
C 685 619 557 466 557 313 
C 557 128 710 0 864 0 
C 1050 0 1178 153 1178 307 
z
" transform="scale(0.015625)"/>
       </defs>
       <use xlink:href="#CMR17-30" transform="scale(0.996264)"/>
       <use xlink:href="#CMMI12-3a" transform="translate(45.690477 0) scale(0.996264)"/>
       <use xlink:href="#CMR17-30" transform="translate(72.787654 0) scale(0.996264)"/>
      </g>
     </g>
    </g>
    <g id="ytick_2">
     <g id="line2d_10">
      <path d="M 90 267.6 
L 648 267.6 
" clip-path="url(#p4a5d7776fd)" style="fill: none; stroke-dasharray: 1.85,0.8; stroke-dashoffset: 0; stroke: #808080; stroke-width: 0.5"/>
     </g>
     <g id="line2d_11">
      <g>
       <use xlink:href="#m640cb94637" x="90" y="267.6" style="stroke: #000000; stroke-width: 0.8"/>
      </g>
     </g>
     <g id="text_10">
      <!-- $\mathdefault{0.2}$ -->
      <g transform="translate(64.926206 272.615904) scale(0.145 -0.145)">
       <use xlink:href="#CMR17-30" transform="scale(0.996264)"/>
       <use xlink:href="#CMMI12-3a" transform="translate(45.690477 0) scale(0.996264)"/>
       <use xlink:href="#CMR17-32" transform="translate(72.787654 0) scale(0.996264)"/>
      </g>
     </g>
    </g>
    <g id="ytick_3">
     <g id="line2d_12">
      <path d="M 90 214.8 
L 648 214.8 
" clip-path="url(#p4a5d7776fd)" style="fill: none; stroke-dasharray: 1.85,0.8; stroke-dashoffset: 0; stroke: #808080; stroke-width: 0.5"/>
     </g>
     <g id="line2d_13">
      <g>
       <use xlink:href="#m640cb94637" x="90" y="214.8" style="stroke: #000000; stroke-width: 0.8"/>
      </g>
     </g>
     <g id="text_11">
      <!-- $\mathdefault{0.4}$ -->
      <g transform="translate(64.926206 219.815904) scale(0.145 -0.145)">
       <use xlink:href="#CMR17-30" transform="scale(0.996264)"/>
       <use xlink:href="#CMMI12-3a" transform="translate(45.690477 0) scale(0.996264)"/>
       <use xlink:href="#CMR17-34" transform="translate(72.787654 0) scale(0.996264)"/>
      </g>
     </g>
    </g>
    <g id="ytick_4">
     <g id="line2d_14">
      <path d="M 90 162 
L 648 162 
" clip-path="url(#p4a5d7776fd)" style="fill: none; stroke-dasharray: 1.85,0.8; stroke-dashoffset: 0; stroke: #808080; stroke-width: 0.5"/>
     </g>
     <g id="line2d_15">
      <g>
       <use xlink:href="#m640cb94637" x="90" y="162" style="stroke: #000000; stroke-width: 0.8"/>
      </g>
     </g>
     <g id="text_12">
      <!-- $\mathdefault{0.6}$ -->
      <g transform="translate(64.926206 167.015904) scale(0.145 -0.145)">
       <use xlink:href="#CMR17-30" transform="scale(0.996264)"/>
       <use xlink:href="#CMMI12-3a" transform="translate(45.690477 0) scale(0.996264)"/>
       <use xlink:href="#CMR17-36" transform="translate(72.787654 0) scale(0.996264)"/>
      </g>
     </g>
    </g>
    <g id="ytick_5">
     <g id="line2d_16">
      <path d="M 90 109.2 
L 648 109.2 
" clip-path="url(#p4a5d7776fd)" style="fill: none; stroke-dasharray: 1.85,0.8; stroke-dashoffset: 0; stroke: #808080; stroke-width: 0.5"/>
     </g>
     <g id="line2d_17">
      <g>
       <use xlink:href="#m640cb94637" x="90" y="109.2" style="stroke: #000000; stroke-width: 0.8"/>
      </g>
     </g>
     <g id="text_13">
      <!-- $\mathdefault{0.8}$ -->
      <g transform="translate(64.926206 114.215904) scale(0.145 -0.145)">
       <defs>
        <path id="CMR17-38" d="M 1741 2264 
C 2144 2467 2554 2773 2554 3263 
C 2554 3841 1990 4179 1472 4179 
C 890 4179 378 3759 378 3180 
C 378 3021 416 2747 666 2505 
C 730 2442 998 2251 1171 2130 
C 883 1983 211 1634 211 934 
C 211 279 838 -128 1459 -128 
C 2144 -128 2720 362 2720 1010 
C 2720 1590 2330 1857 2074 2029 
L 1741 2264 
z
M 902 2822 
C 851 2854 595 3051 595 3351 
C 595 3739 998 4032 1459 4032 
C 1965 4032 2336 3676 2336 3262 
C 2336 2669 1670 2331 1638 2331 
C 1632 2331 1626 2331 1574 2370 
L 902 2822 
z
M 2080 1519 
C 2176 1449 2483 1240 2483 851 
C 2483 381 2010 25 1472 25 
C 890 25 448 438 448 940 
C 448 1443 838 1862 1280 2060 
L 2080 1519 
z
" transform="scale(0.015625)"/>
       </defs>
       <use xlink:href="#CMR17-30" transform="scale(0.996264)"/>
       <use xlink:href="#CMMI12-3a" transform="translate(45.690477 0) scale(0.996264)"/>
       <use xlink:href="#CMR17-38" transform="translate(72.787654 0) scale(0.996264)"/>
      </g>
     </g>
    </g>
    <g id="ytick_6">
     <g id="line2d_18">
      <path d="M 90 56.4 
L 648 56.4 
" clip-path="url(#p4a5d7776fd)" style="fill: none; stroke-dasharray: 1.85,0.8; stroke-dashoffset: 0; stroke: #808080; stroke-width: 0.5"/>
     </g>
     <g id="line2d_19">
      <g>
       <use xlink:href="#m640cb94637" x="90" y="56.4" style="stroke: #000000; stroke-width: 0.8"/>
      </g>
     </g>
     <g id="text_14">
      <!-- $\mathdefault{1.0}$ -->
      <g transform="translate(64.926206 61.415904) scale(0.145 -0.145)">
       <use xlink:href="#CMR17-31" transform="scale(0.996264)"/>
       <use xlink:href="#CMMI12-3a" transform="translate(45.690477 0) scale(0.996264)"/>
       <use xlink:href="#CMR17-30" transform="translate(72.787654 0) scale(0.996264)"/>
      </g>
     </g>
    </g>
    <g id="text_15">
     <!-- QoS -->
     <g transform="translate(58.117312 194.481753) rotate(-90) scale(0.145 -0.145)">
      <defs>
       <path id="CMSS17-51" d="M 3200 202 
C 3981 833 4096 1689 4096 2174 
C 4096 3501 3219 4497 2214 4497 
C 1210 4497 333 3497 333 2178 
C 333 847 1222 -128 2214 -128 
C 2438 -128 2630 -77 2765 -26 
L 3302 -832 
L 3930 -832 
L 3200 202 
z
M 2528 324 
C 2438 293 2330 273 2214 273 
C 1523 273 858 993 858 2178 
C 858 3357 1517 4096 2214 4096 
C 2918 4096 3571 3350 3571 2178 
C 3571 1771 3507 1089 2950 566 
L 2490 1210 
L 1939 1210 
L 2528 324 
z
" transform="scale(0.015625)"/>
       <path id="CMSS17-6f" d="M 2829 1356 
C 2829 2176 2221 2816 1504 2816 
C 768 2816 173 2157 173 1356 
C 173 544 787 -64 1498 -64 
C 2227 -64 2829 563 2829 1356 
z
M 1504 337 
C 1050 337 659 709 659 1408 
C 659 2151 1114 2427 1498 2427 
C 1914 2427 2342 2126 2342 1408 
C 2342 683 1926 337 1504 337 
z
" transform="scale(0.015625)"/>
       <path id="CMSS17-53" d="M 2797 4169 
C 2515 4334 2208 4480 1690 4480 
C 864 4480 333 3879 333 3266 
C 333 3025 403 2753 653 2475 
C 902 2196 1184 2121 1542 2033 
C 1690 1994 1939 1924 1984 1906 
C 2342 1767 2515 1444 2515 1140 
C 2515 742 2202 318 1645 318 
C 1453 318 890 318 358 819 
L 269 318 
C 794 -64 1363 -128 1651 -128 
C 2438 -128 3002 488 3002 1186 
C 3002 1440 2925 1763 2656 2061 
C 2394 2347 2163 2410 1638 2549 
C 1338 2626 1146 2677 986 2873 
C 877 3013 819 3146 819 3317 
C 819 3673 1126 4060 1690 4060 
C 1971 4060 2336 4002 2707 3660 
L 2797 4169 
z
" transform="scale(0.015625)"/>
      </defs>
      <use xlink:href="#CMSS17-51" transform="scale(0.996264)"/>
      <use xlink:href="#CMSS17-6f" transform="translate(69.024255 0) scale(0.996264)"/>
      <use xlink:href="#CMSS17-53" transform="translate(115.867879 0) scale(0.996264)"/>
     </g>
    </g>
   </g>
   <g id="line2d_20">
    <path d="M 115.363636 163.667424 
L 142.210939 163.667424 
L 143.623955 163.945416 
L 149.276019 163.945416 
L 150.689035 163.667424 
L 180.36237 163.667424 
L 181.775386 83.91144 
L 187.42745 83.91144 
L 188.840466 65.570832 
L 218.513801 65.570832 
L 219.926817 65.848824 
L 225.578881 65.848824 
L 226.991897 65.570832 
L 241.122056 65.570832 
L 242.535072 65.848824 
L 249.600152 65.848824 
L 251.013168 65.570832 
L 287.751583 65.570832 
L 289.164599 65.84856 
L 294.816662 65.84856 
L 296.229678 87.802272 
L 303.294758 87.802272 
L 304.707774 87.524544 
L 379.59762 87.524544 
L 381.010636 88.357992 
L 402.205875 88.357992 
L 403.618891 66.40428 
L 410.683971 66.40428 
L 412.096987 58.067424 
L 511.008103 58.067424 
L 512.421119 59.456856 
L 518.073183 59.456856 
L 519.486199 61.957728 
L 622.636364 61.957728 
L 622.636364 61.957728 
" clip-path="url(#p4a5d7776fd)" style="fill: none; stroke: #482475; stroke-width: 2.5; stroke-linecap: square"/>
   </g>
   <g id="line2d_21">
    <path d="M 115.363636 259.819366 
L 118.189668 259.819366 
L 119.602684 251.760238 
L 126.667764 251.760238 
L 128.08078 251.204359 
L 133.732844 251.204359 
L 135.14586 250.926552 
L 149.276019 250.926552 
L 150.689035 250.370832 
L 164.819195 250.370832 
L 166.232211 248.703408 
L 171.884274 248.703408 
L 173.29729 243.979128 
L 180.36237 243.979128 
L 181.775386 187.010647 
L 187.42745 187.010647 
L 188.840466 124.762351 
L 195.905546 124.762351 
L 197.318562 105.864888 
L 202.970625 105.864888 
L 204.383641 96.694848 
L 210.035705 96.694848 
L 211.448721 94.749696 
L 218.513801 94.749696 
L 219.926817 95.027424 
L 225.578881 95.027424 
L 226.991897 94.749696 
L 241.122056 94.749696 
L 242.535072 94.471704 
L 249.600152 94.471704 
L 251.013168 94.749696 
L 287.751583 94.749696 
L 289.164599 99.751704 
L 294.816662 99.751704 
L 296.229678 132.543144 
L 303.294758 132.543144 
L 304.707774 133.93284 
L 310.359838 133.93284 
L 311.772854 153.107424 
L 318.837934 153.107424 
L 320.25095 201.183408 
L 325.903013 201.183408 
L 327.316029 227.861136 
L 334.381109 227.861136 
L 335.794125 255.372734 
L 341.446189 255.372734 
L 342.859205 275.65926 
L 348.511269 275.65926 
L 349.924285 250.926552 
L 356.989364 250.926552 
L 358.40238 183.397992 
L 364.054444 183.397992 
L 365.46746 167.83572 
L 372.53254 167.83572 
L 373.945556 165.056856 
L 379.59762 165.056856 
L 381.010636 164.501136 
L 402.205875 164.501136 
L 403.618891 128.375112 
L 410.683971 128.375112 
L 412.096987 72.518256 
L 417.74905 72.518256 
L 419.162066 58.067424 
L 426.227146 58.067424 
L 427.640162 56.4 
L 448.835401 56.4 
L 450.248417 56.677992 
L 457.313497 56.677992 
L 458.726513 56.4 
L 471.443657 56.4 
L 472.856673 56.677992 
L 479.921752 56.677992 
L 481.334768 56.4 
L 511.008103 56.4 
L 512.421119 90.025416 
L 518.073183 90.025416 
L 519.486199 150.050568 
L 526.551279 150.050568 
L 527.964295 154.49712 
L 533.616359 154.49712 
L 535.029375 169.780872 
L 540.681438 169.780872 
L 542.094454 171.72576 
L 549.159534 171.72576 
L 550.57255 114.480264 
L 556.224614 114.480264 
L 557.63763 70.57284 
L 564.70271 70.57284 
L 566.115726 65.570568 
L 571.767789 65.570568 
L 573.180805 65.292576 
L 622.636364 65.292576 
L 622.636364 65.292576 
" clip-path="url(#p4a5d7776fd)" style="fill: none; stroke: #bddf26; stroke-width: 2.5; stroke-linecap: square"/>
   </g>
   <g id="patch_3">
    <path d="M 90 320.4 
L 90 43.2 
" style="fill: none; stroke: #000000; stroke-width: 0.8; stroke-linejoin: miter; stroke-linecap: square"/>
   </g>
   <g id="patch_4">
    <path d="M 648 320.4 
L 648 43.2 
" style="fill: none; stroke: #000000; stroke-width: 0.8; stroke-linejoin: miter; stroke-linecap: square"/>
   </g>
   <g id="patch_5">
    <path d="M 90 320.4 
L 648 320.4 
" style="fill: none; stroke: #000000; stroke-width: 0.8; stroke-linejoin: miter; stroke-linecap: square"/>
   </g>
   <g id="text_16">
    <!-- $nt=Barabsi$ $d=100$ $oc=1\%$ $l=dynamic$ -->
    <g transform="translate(202.799461 37.2) scale(0.18 -0.18)">
     <defs>
      <path id="CMMI12-6e" d="M 1318 1871 
C 1331 1910 1491 2229 1728 2433 
C 1894 2586 2112 2689 2362 2689 
C 2618 2689 2707 2497 2707 2242 
C 2707 1878 2445 1150 2317 805 
C 2259 651 2227 568 2227 453 
C 2227 166 2426 -64 2733 -64 
C 3328 -64 3552 875 3552 913 
C 3552 945 3526 971 3488 971 
C 3430 971 3424 952 3392 843 
C 3245 319 3002 64 2752 64 
C 2688 64 2586 64 2586 269 
C 2586 429 2656 621 2694 710 
C 2822 1063 3091 1780 3091 2145 
C 3091 2528 2867 2816 2381 2816 
C 1811 2816 1510 2415 1395 2255 
C 1376 2618 1114 2816 832 2816 
C 627 2816 486 2695 378 2478 
C 262 2248 173 1865 173 1839 
C 173 1814 198 1782 243 1782 
C 294 1782 301 1788 339 1935 
C 442 2325 557 2689 813 2689 
C 960 2689 1011 2586 1011 2395 
C 1011 2254 947 2005 902 1807 
L 723 1118 
C 698 996 627 709 595 594 
C 550 428 480 128 480 96 
C 480 6 550 -64 646 -64 
C 723 -64 813 -26 864 70 
C 877 102 934 326 966 453 
L 1107 1028 
L 1318 1871 
z
" transform="scale(0.015625)"/>
      <path id="CMMI12-74" d="M 1286 2566 
L 1875 2566 
C 1997 2566 2061 2566 2061 2681 
C 2061 2752 2022 2752 1894 2752 
L 1331 2752 
L 1568 3692 
C 1594 3781 1594 3794 1594 3840 
C 1594 3943 1510 4000 1427 4000 
C 1376 4000 1229 3981 1178 3775 
L 928 2752 
L 326 2752 
C 198 2752 141 2752 141 2630 
C 141 2566 186 2566 307 2566 
L 877 2566 
L 454 881 
C 403 658 384 594 384 511 
C 384 211 595 -64 954 -64 
C 1600 -64 1946 868 1946 912 
C 1946 951 1920 970 1882 970 
C 1869 970 1843 970 1830 944 
C 1824 938 1818 931 1773 829 
C 1638 511 1344 64 973 64 
C 781 64 768 224 768 364 
C 768 370 768 492 787 568 
L 1286 2566 
z
" transform="scale(0.015625)"/>
      <path id="CMR17-3d" d="M 4115 2017 
C 4211 2017 4307 2017 4307 2125 
C 4307 2240 4198 2240 4090 2240 
L 512 2240 
C 403 2240 294 2240 294 2125 
C 294 2017 390 2017 486 2017 
L 4115 2017 
z
M 4090 896 
C 4198 896 4307 896 4307 1011 
C 4307 1119 4211 1119 4115 1119 
L 486 1119 
C 390 1119 294 1119 294 1011 
C 294 896 403 896 512 896 
L 4090 896 
z
" transform="scale(0.015625)"/>
      <path id="CMMI12-42" d="M 2342 3921 
C 2400 4160 2426 4160 2675 4160 
L 3507 4160 
C 4230 4160 4230 3544 4230 3485 
C 4230 2966 3712 2304 2867 2304 
L 1946 2304 
L 2342 3921 
z
M 3424 2275 
C 4122 2402 4755 2886 4755 3473 
C 4755 3970 4314 4352 3590 4352 
L 1536 4352 
C 1414 4352 1357 4352 1357 4226 
C 1357 4160 1414 4160 1510 4160 
C 1901 4160 1901 4112 1901 4044 
C 1901 4032 1901 3993 1875 3897 
L 1011 472 
C 954 249 941 185 493 185 
C 371 185 307 185 307 70 
C 307 0 346 0 474 0 
L 2669 0 
C 3648 0 4403 739 4403 1383 
C 4403 1906 3942 2224 3424 2275 
z
M 2515 185 
L 1651 185 
C 1562 185 1549 185 1510 192 
C 1440 198 1434 211 1434 261 
C 1434 305 1446 343 1459 399 
L 1907 2176 
L 3110 2176 
C 3866 2176 3866 1483 3866 1433 
C 3866 828 3309 185 2515 185 
z
" transform="scale(0.015625)"/>
      <path id="CMMI12-61" d="M 1926 760 
C 1894 651 1894 639 1805 517 
C 1664 338 1382 64 1082 64 
C 819 64 672 300 672 677 
C 672 1028 870 1743 992 2012 
C 1210 2459 1510 2689 1760 2689 
C 2182 2689 2266 2165 2266 2114 
C 2266 2108 2246 2024 2240 2012 
L 1926 760 
z
M 2336 2395 
C 2266 2561 2093 2816 1760 2816 
C 1037 2816 256 1884 256 939 
C 256 307 627 -64 1062 -64 
C 1414 -64 1715 211 1894 422 
C 1958 45 2259 -64 2451 -64 
C 2643 -64 2797 51 2912 281 
C 3014 498 3104 888 3104 913 
C 3104 945 3078 971 3040 971 
C 2982 971 2976 939 2950 843 
C 2854 466 2733 64 2470 64 
C 2285 64 2272 230 2272 358 
C 2272 505 2291 575 2349 824 
C 2394 984 2426 1124 2477 1309 
C 2714 2267 2771 2497 2771 2535 
C 2771 2625 2701 2695 2605 2695 
C 2400 2695 2349 2472 2336 2395 
z
" transform="scale(0.015625)"/>
      <path id="CMMI12-72" d="M 2490 2612 
C 2291 2574 2189 2433 2189 2293 
C 2189 2139 2310 2088 2400 2088 
C 2579 2088 2726 2242 2726 2433 
C 2726 2638 2528 2816 2208 2816 
C 1952 2816 1658 2701 1389 2312 
C 1344 2650 1088 2816 832 2816 
C 582 2816 454 2625 378 2484 
C 269 2254 173 1871 173 1839 
C 173 1814 198 1782 243 1782 
C 294 1782 301 1788 339 1935 
C 435 2318 557 2689 813 2689 
C 966 2689 1011 2580 1011 2395 
C 1011 2254 947 2005 902 1807 
L 723 1118 
C 698 996 627 709 595 594 
C 550 428 480 128 480 96 
C 480 6 550 -64 646 -64 
C 717 -64 838 -19 877 109 
C 896 160 1133 1124 1171 1271 
C 1203 1411 1242 1546 1274 1686 
C 1299 1775 1325 1878 1344 1961 
C 1363 2018 1536 2331 1696 2472 
C 1773 2542 1939 2689 2202 2689 
C 2304 2689 2406 2670 2490 2612 
z
" transform="scale(0.015625)"/>
      <path id="CMMI12-62" d="M 1478 4257 
C 1485 4283 1498 4321 1498 4352 
C 1498 4416 1434 4416 1421 4416 
C 1414 4416 1184 4393 1069 4377 
C 960 4377 864 4358 749 4358 
C 595 4345 550 4339 550 4224 
C 550 4160 614 4160 678 4160 
C 1005 4160 1005 4103 1005 4040 
C 1005 3996 954 3811 928 3696 
L 774 3085 
C 710 2831 346 1387 320 1272 
C 288 1114 288 1005 288 922 
C 288 274 653 -64 1069 -64 
C 1811 -64 2579 888 2579 1814 
C 2579 2401 2246 2816 1766 2816 
C 1434 2816 1133 2542 1011 2414 
L 1478 4257 
z
M 1075 64 
C 870 64 646 217 646 715 
C 646 926 666 1047 781 1494 
C 800 1577 902 1986 928 2069 
C 941 2120 1318 2689 1754 2689 
C 2035 2689 2163 2408 2163 2076 
C 2163 1769 1984 1047 1824 715 
C 1664 370 1370 64 1075 64 
z
" transform="scale(0.015625)"/>
      <path id="CMMI12-73" d="M 1459 1280 
C 1568 1261 1741 1223 1779 1216 
C 1862 1192 2150 1090 2150 783 
C 2150 586 1971 70 1229 70 
C 1094 70 614 70 486 436 
C 742 404 870 603 870 745 
C 870 880 781 950 653 950 
C 512 950 326 841 326 552 
C 326 173 710 -64 1222 -64 
C 2195 -64 2483 651 2483 984 
C 2483 1079 2483 1258 2278 1462 
C 2118 1616 1965 1648 1619 1718 
C 1446 1756 1171 1814 1171 2101 
C 1171 2229 1286 2689 1894 2689 
C 2163 2689 2426 2589 2490 2368 
C 2208 2368 2195 2125 2195 2119 
C 2195 1984 2317 1946 2374 1946 
C 2464 1946 2643 2015 2643 2281 
C 2643 2545 2400 2816 1901 2816 
C 1062 2816 838 2160 838 1899 
C 838 1414 1312 1312 1459 1280 
z
" transform="scale(0.015625)"/>
      <path id="CMMI12-69" d="M 1811 913 
C 1811 945 1786 971 1747 971 
C 1690 971 1683 952 1651 843 
C 1485 262 1222 64 1011 64 
C 934 64 845 83 845 275 
C 845 447 922 639 992 830 
L 1440 2018 
C 1459 2069 1504 2184 1504 2305 
C 1504 2574 1312 2816 998 2816 
C 410 2816 173 1890 173 1839 
C 173 1814 198 1782 243 1782 
C 301 1782 307 1807 333 1896 
C 486 2428 730 2682 979 2682 
C 1037 2682 1146 2682 1146 2478 
C 1146 2312 1062 2101 1011 1961 
L 563 773 
C 525 671 486 568 486 453 
C 486 166 685 -64 992 -64 
C 1581 -64 1811 869 1811 913 
z
M 1760 4013 
C 1760 4109 1683 4224 1542 4224 
C 1395 4224 1229 4083 1229 3917 
C 1229 3758 1363 3707 1440 3707 
C 1613 3707 1760 3873 1760 4013 
z
" transform="scale(0.015625)"/>
      <path id="CMMI12-64" d="M 3219 4257 
C 3226 4282 3238 4320 3238 4352 
C 3238 4416 3174 4416 3162 4416 
C 3155 4416 2842 4388 2810 4380 
C 2701 4373 2605 4358 2490 4358 
C 2330 4345 2285 4339 2285 4224 
C 2285 4160 2336 4160 2426 4160 
C 2739 4160 2746 4103 2746 4040 
C 2746 4002 2733 3952 2726 3933 
L 2336 2395 
C 2266 2561 2093 2816 1760 2816 
C 1037 2816 256 1884 256 939 
C 256 307 627 -64 1062 -64 
C 1414 -64 1715 211 1894 422 
C 1958 45 2259 -64 2451 -64 
C 2643 -64 2797 51 2912 281 
C 3014 498 3104 888 3104 913 
C 3104 945 3078 971 3040 971 
C 2982 971 2976 939 2950 843 
C 2854 466 2733 64 2470 64 
C 2285 64 2272 229 2272 357 
C 2272 382 2272 515 2317 694 
L 3219 4257 
z
M 1926 760 
C 1894 651 1894 639 1805 517 
C 1664 338 1382 64 1082 64 
C 819 64 672 300 672 677 
C 672 1028 870 1743 992 2012 
C 1210 2459 1510 2689 1760 2689 
C 2182 2689 2266 2165 2266 2114 
C 2266 2108 2246 2024 2240 2012 
L 1926 760 
z
" transform="scale(0.015625)"/>
      <path id="CMMI12-6f" d="M 2918 1756 
C 2918 2363 2522 2816 1939 2816 
C 1094 2816 262 1897 262 996 
C 262 390 659 -64 1242 -64 
C 2093 -64 2918 856 2918 1756 
z
M 1248 64 
C 928 64 691 319 691 766 
C 691 1060 845 1712 1024 2031 
C 1312 2523 1670 2689 1933 2689 
C 2246 2689 2490 2433 2490 1986 
C 2490 1731 2355 1047 2112 658 
C 1850 230 1498 64 1248 64 
z
" transform="scale(0.015625)"/>
      <path id="CMMI12-63" d="M 2502 2431 
C 2381 2431 2323 2431 2234 2355 
C 2195 2323 2125 2227 2125 2125 
C 2125 1997 2221 1920 2342 1920 
C 2496 1920 2669 2044 2669 2292 
C 2669 2588 2374 2816 1933 2816 
C 1094 2816 256 1903 256 996 
C 256 441 602 -64 1254 -64 
C 2125 -64 2675 622 2675 706 
C 2675 744 2637 776 2611 776 
C 2592 776 2586 770 2528 713 
C 2118 162 1510 64 1267 64 
C 826 64 685 446 685 764 
C 685 988 794 1605 1024 2039 
C 1190 2338 1536 2682 1939 2682 
C 2022 2682 2374 2682 2502 2431 
z
" transform="scale(0.015625)"/>
      <path id="CMR17-25" d="M 4640 959 
C 4640 1698 4275 2240 3846 2240 
C 3411 2240 2970 1736 2970 959 
C 2970 183 3405 -320 3846 -320 
C 4275 -320 4640 215 4640 959 
z
M 3853 -218 
C 3686 -218 3270 -66 3270 959 
C 3270 1991 3686 2138 3853 2138 
C 4205 2138 4525 1634 4525 959 
C 4525 285 4205 -218 3853 -218 
z
M 4083 4577 
C 4128 4647 4134 4653 4134 4685 
C 4134 4761 4077 4800 4026 4800 
C 3962 4800 3936 4756 3891 4706 
C 3520 4190 3008 4134 2746 4134 
C 2106 4134 1715 4494 1594 4607 
C 1510 4682 1389 4800 1171 4800 
C 736 4800 294 4296 294 3519 
C 294 2743 730 2240 1171 2240 
C 1600 2240 1965 2778 1965 3527 
C 1965 3969 1830 4270 1811 4308 
C 2202 4064 2586 4032 2752 4032 
C 3162 4032 3456 4183 3616 4289 
L 3622 4283 
L 858 -84 
C 800 -174 800 -187 800 -206 
C 800 -276 858 -320 915 -320 
C 973 -320 992 -289 1037 -218 
L 4083 4577 
z
M 1178 2342 
C 1011 2342 595 2494 595 3519 
C 595 4551 1011 4698 1178 4698 
C 1530 4698 1850 4194 1850 3519 
C 1850 2845 1530 2342 1178 2342 
z
" transform="scale(0.015625)"/>
      <path id="CMMI12-6c" d="M 1626 4257 
C 1632 4282 1645 4320 1645 4352 
C 1645 4416 1581 4416 1568 4416 
C 1562 4416 1331 4393 1216 4377 
C 1107 4377 1011 4358 896 4358 
C 742 4345 698 4339 698 4224 
C 698 4160 762 4160 826 4160 
C 1152 4160 1152 4102 1152 4039 
C 1152 4014 1152 4001 1120 3887 
L 326 731 
C 307 661 294 610 294 509 
C 294 191 531 -64 858 -64 
C 1069 -64 1210 76 1312 274 
C 1421 483 1510 884 1510 909 
C 1510 941 1485 967 1446 967 
C 1389 967 1382 935 1357 840 
C 1242 401 1126 64 870 64 
C 678 64 678 267 678 357 
C 678 382 678 515 723 694 
L 1626 4257 
z
" transform="scale(0.015625)"/>
      <path id="CMMI12-79" d="M 1683 -700 
C 1510 -939 1261 -1152 947 -1152 
C 870 -1152 563 -1152 467 -889 
C 486 -895 518 -895 531 -895 
C 723 -895 851 -729 851 -582 
C 851 -435 730 -384 634 -384 
C 531 -384 307 -458 307 -759 
C 307 -1071 582 -1286 947 -1286 
C 1587 -1286 2234 -700 2413 6 
L 3040 2485 
C 3046 2517 3059 2556 3059 2594 
C 3059 2689 2982 2753 2886 2753 
C 2829 2753 2694 2727 2643 2535 
L 2170 658 
C 2138 543 2138 530 2086 460 
C 1958 281 1747 64 1440 64 
C 1082 64 1050 415 1050 588 
C 1050 952 1222 1443 1395 1903 
C 1466 2088 1504 2178 1504 2305 
C 1504 2574 1312 2816 998 2816 
C 410 2816 173 1890 173 1839 
C 173 1814 198 1782 243 1782 
C 301 1782 307 1807 333 1897 
C 486 2433 730 2689 979 2689 
C 1037 2689 1146 2689 1146 2478 
C 1146 2312 1075 2127 979 1884 
C 666 1047 666 837 666 683 
C 666 77 1101 -64 1421 -64 
C 1606 -64 1837 -6 2061 230 
L 2067 224 
C 1971 -147 1907 -392 1683 -700 
z
" transform="scale(0.015625)"/>
      <path id="CMMI12-6d" d="M 1318 1871 
C 1331 1910 1491 2229 1728 2433 
C 1894 2586 2112 2689 2362 2689 
C 2618 2689 2707 2497 2707 2242 
C 2707 2203 2707 2076 2630 1775 
L 2470 1118 
C 2419 926 2298 453 2285 383 
C 2259 287 2221 121 2221 96 
C 2221 6 2291 -64 2387 -64 
C 2579 -64 2611 83 2669 313 
L 3053 1839 
C 3066 1890 3398 2689 4102 2689 
C 4358 2689 4448 2497 4448 2242 
C 4448 1884 4198 1188 4058 805 
C 4000 651 3968 568 3968 453 
C 3968 166 4166 -64 4474 -64 
C 5069 -64 5293 875 5293 913 
C 5293 945 5267 971 5229 971 
C 5171 971 5165 952 5133 843 
C 4986 332 4749 64 4493 64 
C 4429 64 4326 64 4326 269 
C 4326 436 4403 640 4429 710 
C 4544 1018 4832 1773 4832 2145 
C 4832 2528 4608 2816 4122 2816 
C 3693 2816 3347 2574 3091 2197 
C 3072 2542 2861 2816 2381 2816 
C 1811 2816 1510 2415 1395 2255 
C 1376 2618 1114 2816 832 2816 
C 646 2816 499 2727 378 2484 
C 262 2254 173 1865 173 1839 
C 173 1814 198 1782 243 1782 
C 294 1782 301 1788 339 1935 
C 435 2312 557 2689 813 2689 
C 960 2689 1011 2586 1011 2395 
C 1011 2254 947 2005 902 1807 
L 723 1118 
C 698 996 627 709 595 594 
C 550 428 480 128 480 96 
C 480 6 550 -64 646 -64 
C 723 -64 813 -26 864 70 
C 877 102 934 326 966 453 
L 1107 1028 
L 1318 1871 
z
" transform="scale(0.015625)"/>
     </defs>
     <use xlink:href="#CMMI12-6e" transform="scale(0.996264)"/>
     <use xlink:href="#CMMI12-74" transform="translate(58.230047 0) scale(0.996264)"/>
     <use xlink:href="#CMR17-3d" transform="translate(121.130386 0) scale(0.996264)"/>
     <use xlink:href="#CMMI12-42" transform="translate(220.519183 0) scale(0.996264)"/>
     <use xlink:href="#CMMI12-61" transform="translate(299.654707 0) scale(0.996264)"/>
     <use xlink:href="#CMMI12-72" transform="translate(350.862564 0) scale(0.996264)"/>
     <use xlink:href="#CMMI12-61" transform="translate(397.533176 0) scale(0.996264)"/>
     <use xlink:href="#CMMI12-62" transform="translate(448.741034 0) scale(0.996264)"/>
     <use xlink:href="#CMMI12-73" transform="translate(490.216908 0) scale(0.996264)"/>
     <use xlink:href="#CMMI12-69" transform="translate(536.166956 0) scale(0.996264)"/>
     <use xlink:href="#CMMI12-64" transform="translate(600.67467 0) scale(0.996264)"/>
     <use xlink:href="#CMR17-3d" transform="translate(679.037776 0) scale(0.996264)"/>
     <use xlink:href="#CMR17-31" transform="translate(778.426573 0) scale(0.996264)"/>
     <use xlink:href="#CMR17-30" transform="translate(824.11705 0) scale(0.996264)"/>
     <use xlink:href="#CMR17-30" transform="translate(869.807527 0) scale(0.996264)"/>
     <use xlink:href="#CMMI12-6f" transform="translate(946.727117 0) scale(0.996264)"/>
     <use xlink:href="#CMMI12-63" transform="translate(993.622427 0) scale(0.996264)"/>
     <use xlink:href="#CMR17-3d" transform="translate(1063.279669 0) scale(0.996264)"/>
     <use xlink:href="#CMR17-31" transform="translate(1162.668466 0) scale(0.996264)"/>
     <use xlink:href="#CMR17-25" transform="translate(1208.358943 0) scale(0.996264)"/>
     <use xlink:href="#CMMI12-6c" transform="translate(1316.507646 0) scale(0.996264)"/>
     <use xlink:href="#CMR17-3d" transform="translate(1375.430058 0) scale(0.996264)"/>
     <use xlink:href="#CMMI12-64" transform="translate(1474.818856 0) scale(0.996264)"/>
     <use xlink:href="#CMMI12-79" transform="translate(1525.507952 0) scale(0.996264)"/>
     <use xlink:href="#CMMI12-6e" transform="translate(1576.646733 0) scale(0.996264)"/>
     <use xlink:href="#CMMI12-61" transform="translate(1634.87678 0) scale(0.996264)"/>
     <use xlink:href="#CMMI12-6d" transform="translate(1686.084638 0) scale(0.996264)"/>
     <use xlink:href="#CMMI12-69" transform="translate(1771.411862 0) scale(0.996264)"/>
     <use xlink:href="#CMMI12-63" transform="translate(1804.690464 0) scale(0.996264)"/>
    </g>
   </g>
  </g>
  <g id="axes_2">
   <g id="matplotlib.axis_3">
    <g id="ytick_7">
     <g id="line2d_22">
      <defs>
       <path id="mc7b1c9d980" d="M 0 0 
L 3.5 0 
" style="stroke: #000000; stroke-width: 0.8"/>
      </defs>
      <g>
       <use xlink:href="#mc7b1c9d980" x="648" y="320.4" style="stroke: #000000; stroke-width: 0.8"/>
      </g>
     </g>
     <g id="text_17">
      <!-- $\mathdefault{0}$ -->
      <g transform="translate(655 325.415904) scale(0.145 -0.145)">
       <use xlink:href="#CMR17-30" transform="scale(0.996264)"/>
      </g>
     </g>
    </g>
    <g id="ytick_8">
     <g id="line2d_23">
      <g>
       <use xlink:href="#mc7b1c9d980" x="648" y="264.987706" style="stroke: #000000; stroke-width: 0.8"/>
      </g>
     </g>
     <g id="text_18">
      <!-- $\mathdefault{20}$ -->
      <g transform="translate(655 270.00361) scale(0.145 -0.145)">
       <use xlink:href="#CMR17-32" transform="scale(0.996264)"/>
       <use xlink:href="#CMR17-30" transform="translate(45.690477 0) scale(0.996264)"/>
      </g>
     </g>
    </g>
    <g id="ytick_9">
     <g id="line2d_24">
      <g>
       <use xlink:href="#mc7b1c9d980" x="648" y="209.575412" style="stroke: #000000; stroke-width: 0.8"/>
      </g>
     </g>
     <g id="text_19">
      <!-- $\mathdefault{40}$ -->
      <g transform="translate(655 214.591316) scale(0.145 -0.145)">
       <use xlink:href="#CMR17-34" transform="scale(0.996264)"/>
       <use xlink:href="#CMR17-30" transform="translate(45.690477 0) scale(0.996264)"/>
      </g>
     </g>
    </g>
    <g id="ytick_10">
     <g id="line2d_25">
      <g>
       <use xlink:href="#mc7b1c9d980" x="648" y="154.163118" style="stroke: #000000; stroke-width: 0.8"/>
      </g>
     </g>
     <g id="text_20">
      <!-- $\mathdefault{60}$ -->
      <g transform="translate(655 159.179023) scale(0.145 -0.145)">
       <use xlink:href="#CMR17-36" transform="scale(0.996264)"/>
       <use xlink:href="#CMR17-30" transform="translate(45.690477 0) scale(0.996264)"/>
      </g>
     </g>
    </g>
    <g id="ytick_11">
     <g id="line2d_26">
      <g>
       <use xlink:href="#mc7b1c9d980" x="648" y="98.750825" style="stroke: #000000; stroke-width: 0.8"/>
      </g>
     </g>
     <g id="text_21">
      <!-- $\mathdefault{80}$ -->
      <g transform="translate(655 103.766729) scale(0.145 -0.145)">
       <use xlink:href="#CMR17-38" transform="scale(0.996264)"/>
       <use xlink:href="#CMR17-30" transform="translate(45.690477 0) scale(0.996264)"/>
      </g>
     </g>
    </g>
    <g id="ytick_12">
     <g id="line2d_27">
      <g>
       <use xlink:href="#mc7b1c9d980" x="648" y="43.338531" style="stroke: #000000; stroke-width: 0.8"/>
      </g>
     </g>
     <g id="text_22">
      <!-- $\mathdefault{100}$ -->
      <g transform="translate(655 48.354435) scale(0.145 -0.145)">
       <use xlink:href="#CMR17-31" transform="scale(0.996264)"/>
       <use xlink:href="#CMR17-30" transform="translate(45.690477 0) scale(0.996264)"/>
       <use xlink:href="#CMR17-30" transform="translate(91.380954 0) scale(0.996264)"/>
      </g>
     </g>
    </g>
    <g id="text_23">
     <!-- CPU load in \% -->
     <g transform="translate(690.248875 226.102524) rotate(-90) scale(0.145 -0.145)">
      <defs>
       <path id="CMSS17-43" d="M 3501 714 
C 3072 427 2874 344 2355 344 
C 1459 344 934 1303 934 2179 
C 934 3112 1472 4032 2381 4032 
C 2790 4032 3059 3918 3386 3715 
L 3475 4217 
C 3168 4370 2778 4440 2387 4440 
C 1158 4440 397 3316 397 2179 
C 397 927 1299 -64 2323 -64 
C 2874 -64 3066 -19 3539 280 
L 3501 714 
z
" transform="scale(0.015625)"/>
       <path id="CMSS17-50" d="M 2106 1856 
C 2874 1856 3501 2453 3501 3158 
C 3501 3850 2899 4453 2067 4453 
L 570 4453 
L 570 0 
L 1107 0 
L 1107 1856 
L 2106 1856 
z
M 1926 4096 
C 2669 4096 2995 3627 2995 3157 
C 2995 2720 2694 2226 1926 2226 
L 1094 2226 
L 1094 4096 
L 1926 4096 
z
" transform="scale(0.015625)"/>
       <path id="CMSS17-55" d="M 3552 4384 
L 3066 4384 
L 3066 1449 
C 3066 604 2547 229 2074 229 
C 1587 229 1101 623 1101 1443 
L 1101 4384 
L 563 4384 
L 563 1454 
C 563 539 1274 -128 2067 -128 
C 2861 -128 3552 539 3552 1454 
L 3552 4384 
z
" transform="scale(0.015625)"/>
       <path id="CMSS17-6c" d="M 947 4416 
L 474 4416 
L 474 0 
L 947 0 
L 947 4416 
z
" transform="scale(0.015625)"/>
       <path id="CMSS17-61" d="M 2406 1791 
C 2406 2392 1978 2808 1402 2808 
C 1120 2808 813 2757 461 2553 
L 499 2135 
C 659 2248 934 2432 1395 2432 
C 1722 2432 1920 2180 1920 1782 
L 1920 1536 
C 896 1536 256 1238 256 726 
C 256 461 416 -64 947 -64 
C 1043 -64 1562 -64 1933 217 
L 1933 -19 
L 2406 -19 
L 2406 1791 
z
M 1920 816 
C 1920 701 1920 548 1728 434 
C 1562 325 1350 325 1261 325 
C 941 325 723 511 723 744 
C 723 1211 1722 1211 1920 1211 
L 1920 816 
z
" transform="scale(0.015625)"/>
       <path id="CMSS17-64" d="M 2611 4416 
L 2138 4416 
L 2138 2438 
C 1939 2603 1613 2756 1254 2756 
C 672 2756 211 2131 211 1347 
C 211 562 666 -64 1235 -64 
C 1677 -64 1971 172 2125 306 
L 2125 -13 
L 2611 -13 
L 2611 4416 
z
M 2125 836 
C 2125 747 2125 653 1926 482 
C 1798 375 1645 325 1498 325 
C 1152 325 698 576 698 1340 
C 698 2134 1210 2368 1562 2368 
C 1798 2368 1990 2254 2125 2065 
L 2125 836 
z
" transform="scale(0.015625)"/>
       <path id="CMSS17-6e" d="M 2618 1877 
C 2618 2283 2522 2816 1798 2816 
C 1389 2816 1120 2606 941 2389 
L 941 2758 
L 474 2758 
L 474 0 
L 960 0 
L 960 1559 
C 960 1964 1114 2428 1549 2428 
C 2112 2428 2131 2048 2131 1829 
L 2131 0 
L 2618 0 
L 2618 1877 
z
" transform="scale(0.015625)"/>
       <path id="CMSS17-25" d="M 3923 4583 
C 3962 4647 3962 4679 3962 4685 
C 3962 4755 3904 4800 3853 4800 
C 3782 4800 3750 4749 3718 4685 
L 1101 -104 
C 1088 -129 1062 -167 1062 -206 
C 1062 -276 1120 -320 1178 -320 
C 1235 -320 1248 -295 1299 -206 
L 3923 4583 
z
M 4678 959 
C 4678 1698 4282 2240 3846 2240 
C 3418 2240 3008 1711 3008 959 
C 3008 208 3418 -320 3846 -320 
C 4288 -320 4678 221 4678 959 
z
M 3846 68 
C 3712 68 3494 189 3494 959 
C 3494 1724 3712 1851 3846 1851 
C 4083 1851 4211 1386 4211 959 
C 4211 533 4083 68 3846 68 
z
M 2003 3519 
C 2003 4258 1606 4800 1171 4800 
C 742 4800 333 4271 333 3519 
C 333 2768 742 2240 1171 2240 
C 1613 2240 2003 2781 2003 3519 
z
M 1171 2628 
C 1037 2628 819 2749 819 3519 
C 819 4284 1037 4411 1171 4411 
C 1408 4411 1536 3946 1536 3519 
C 1536 3093 1408 2628 1171 2628 
z
" transform="scale(0.015625)"/>
      </defs>
      <use xlink:href="#CMSS17-43" transform="scale(0.996264)"/>
      <use xlink:href="#CMSS17-50" transform="translate(59.855772 0) scale(0.996264)"/>
      <use xlink:href="#CMSS17-55" transform="translate(119.591358 0) scale(0.996264)"/>
      <use xlink:href="#CMSS17-6c" transform="translate(214.960211 0) scale(0.996264)"/>
      <use xlink:href="#CMSS17-6f" transform="translate(237.140934 0) scale(0.996264)"/>
      <use xlink:href="#CMSS17-61" transform="translate(283.984557 0) scale(0.996264)"/>
      <use xlink:href="#CMSS17-64" transform="translate(328.906478 0) scale(0.996264)"/>
      <use xlink:href="#CMSS17-69" transform="translate(408.340534 0) scale(0.996264)"/>
      <use xlink:href="#CMSS17-6e" transform="translate(430.521257 0) scale(0.996264)"/>
      <use xlink:href="#CMSS17-25" transform="translate(509.955313 0) scale(0.996264)"/>
     </g>
    </g>
   </g>
   <g id="line2d_28">
    <path d="M 115.363636 99.308316 
L 180.36237 99.308316 
L 181.775386 209.854158 
L 287.751583 209.854158 
L 289.164599 161.394333 
L 294.816662 161.394333 
L 296.229678 154.581237 
L 402.205875 154.581237 
L 403.618891 265.127079 
L 511.008103 265.127079 
L 512.421119 239.575247 
L 518.073183 239.575247 
L 519.486199 237.490618 
L 622.636364 237.490618 
L 622.636364 237.490618 
" clip-path="url(#p4a5d7776fd)" style="fill: none; stroke-dasharray: 5.55,2.4; stroke-dashoffset: 0; stroke: #140e36; stroke-width: 1.5"/>
   </g>
   <g id="patch_6">
    <path d="M 90 320.4 
L 90 43.2 
" style="fill: none; stroke: #000000; stroke-width: 0.8; stroke-linejoin: miter; stroke-linecap: square"/>
   </g>
   <g id="patch_7">
    <path d="M 648 320.4 
L 648 43.2 
" style="fill: none; stroke: #000000; stroke-width: 0.8; stroke-linejoin: miter; stroke-linecap: square"/>
   </g>
   <g id="patch_8">
    <path d="M 90 320.4 
L 648 320.4 
" style="fill: none; stroke: #000000; stroke-width: 0.8; stroke-linejoin: miter; stroke-linecap: square"/>
   </g>
   <g id="patch_9">
    <path d="M 90 43.2 
L 648 43.2 
" style="fill: none; stroke: #000000; stroke-width: 0.8; stroke-linejoin: miter; stroke-linecap: square"/>
   </g>
   <g id="legend_1">
    <g id="patch_10">
     <path d="M 481.7533 313.15 
L 637.85 313.15 
Q 640.75 313.15 640.75 310.25 
L 640.75 246.612516 
Q 640.75 243.712516 637.85 243.712516 
L 481.7533 243.712516 
Q 478.8533 243.712516 478.8533 246.612516 
L 478.8533 310.25 
Q 478.8533 313.15 481.7533 313.15 
z
" style="fill: #ffffff; opacity: 0.7; stroke: #cccccc; stroke-linejoin: miter"/>
    </g>
    <g id="line2d_29">
     <path d="M 484.6533 255.271887 
L 499.1533 255.271887 
L 513.6533 255.271887 
" style="fill: none; stroke: #482475; stroke-width: 2.5; stroke-linecap: square"/>
    </g>
    <g id="text_24">
     <!-- QoS [static] -->
     <g transform="translate(525.2533 260.346887) scale(0.145 -0.145)">
      <defs>
       <path id="CMSS17-5b" d="M 1613 -1600 
L 1613 -1212 
L 1062 -1212 
L 1062 4352 
L 1613 4352 
L 1613 4741 
L 595 4741 
L 595 -1600 
L 1613 -1600 
z
" transform="scale(0.015625)"/>
       <path id="CMSS17-63" d="M 2464 2541 
C 2464 2585 2170 2714 2093 2739 
C 1882 2816 1613 2816 1542 2816 
C 710 2816 211 2093 211 1363 
C 211 595 768 -64 1517 -64 
C 1946 -64 2253 76 2502 242 
L 2464 664 
C 2189 453 1869 337 1523 337 
C 1024 337 698 774 698 1369 
C 698 1831 909 2414 1549 2414 
C 1901 2414 2099 2343 2394 2145 
L 2464 2541 
z
" transform="scale(0.015625)"/>
       <path id="CMSS17-5d" d="M 1146 4741 
L 128 4741 
L 128 4352 
L 678 4352 
L 678 -1212 
L 128 -1212 
L 128 -1600 
L 1146 -1600 
L 1146 4741 
z
" transform="scale(0.015625)"/>
      </defs>
      <use xlink:href="#CMSS17-51" transform="scale(0.996264)"/>
      <use xlink:href="#CMSS17-6f" transform="translate(69.024255 0) scale(0.996264)"/>
      <use xlink:href="#CMSS17-53" transform="translate(115.867879 0) scale(0.996264)"/>
      <use xlink:href="#CMSS17-5b" transform="translate(199.145508 0) scale(0.996264)"/>
      <use xlink:href="#CMSS17-73" transform="translate(226.330946 0) scale(0.996264)"/>
      <use xlink:href="#CMSS17-74" transform="translate(262.244488 0) scale(0.996264)"/>
      <use xlink:href="#CMSS17-61" transform="translate(296.076055 0) scale(0.996264)"/>
      <use xlink:href="#CMSS17-74" transform="translate(340.997976 0) scale(0.996264)"/>
      <use xlink:href="#CMSS17-69" transform="translate(374.829542 0) scale(0.996264)"/>
      <use xlink:href="#CMSS17-63" transform="translate(397.010265 0) scale(0.996264)"/>
      <use xlink:href="#CMSS17-5d" transform="translate(438.649088 0) scale(0.996264)"/>
     </g>
    </g>
    <g id="line2d_30">
     <path d="M 484.6533 276.967715 
L 499.1533 276.967715 
L 513.6533 276.967715 
" style="fill: none; stroke: #bddf26; stroke-width: 2.5; stroke-linecap: square"/>
    </g>
    <g id="text_25">
     <!-- QoS [dynamic] -->
     <g transform="translate(525.2533 282.042715) scale(0.145 -0.145)">
      <defs>
       <path id="CMSS17-79" d="M 2675 2752 
L 2176 2752 
C 1632 1294 1446 702 1434 383 
L 1427 383 
C 1408 696 1126 1460 902 2007 
L 602 2752 
L 83 2752 
L 1216 13 
C 1146 -178 1043 -465 1011 -529 
C 870 -885 774 -885 672 -885 
C 646 -885 442 -885 211 -809 
L 250 -1229 
C 410 -1261 570 -1280 685 -1280 
C 845 -1280 1165 -1280 1459 -497 
L 2675 2752 
z
" transform="scale(0.015625)"/>
      </defs>
      <use xlink:href="#CMSS17-51" transform="scale(0.996264)"/>
      <use xlink:href="#CMSS17-6f" transform="translate(69.024255 0) scale(0.996264)"/>
      <use xlink:href="#CMSS17-53" transform="translate(115.867879 0) scale(0.996264)"/>
      <use xlink:href="#CMSS17-5b" transform="translate(199.145508 0) scale(0.996264)"/>
      <use xlink:href="#CMSS17-64" transform="translate(226.330946 0) scale(0.996264)"/>
      <use xlink:href="#CMSS17-79" transform="translate(274.53589 0) scale(0.996264)"/>
      <use xlink:href="#CMSS17-6e" transform="translate(317.536031 0) scale(0.996264)"/>
      <use xlink:href="#CMSS17-61" transform="translate(365.740974 0) scale(0.996264)"/>
      <use xlink:href="#CMSS17-6d" transform="translate(410.662895 0) scale(0.996264)"/>
      <use xlink:href="#CMSS17-69" transform="translate(484.892149 0) scale(0.996264)"/>
      <use xlink:href="#CMSS17-63" transform="translate(507.072872 0) scale(0.996264)"/>
      <use xlink:href="#CMSS17-5d" transform="translate(548.711695 0) scale(0.996264)"/>
     </g>
    </g>
    <g id="line2d_31">
     <path d="M 484.6533 298.663543 
L 499.1533 298.663543 
L 513.6533 298.663543 
" style="fill: none; stroke-dasharray: 5.55,2.4; stroke-dashoffset: 0; stroke: #140e36; stroke-width: 1.5"/>
    </g>
    <g id="text_26">
     <!-- Load driver (right) -->
     <g transform="translate(525.2533 303.738543) scale(0.145 -0.145)">
      <defs>
       <path id="CMSS17-4c" d="M 1670 414 
C 1594 414 1517 414 1440 414 
L 1101 414 
L 1101 4416 
L 563 4416 
L 563 0 
L 3002 0 
L 3002 414 
L 1670 414 
z
" transform="scale(0.015625)"/>
       <path id="CMSS17-72" d="M 954 1363 
C 954 1965 1395 2368 1958 2368 
L 1958 2789 
C 1549 2789 1165 2585 934 2253 
L 934 2758 
L 480 2758 
L 480 0 
L 954 0 
L 954 1363 
z
" transform="scale(0.015625)"/>
       <path id="CMSS17-76" d="M 2675 2752 
L 2176 2752 
L 1747 1556 
C 1613 1165 1421 627 1389 352 
L 1382 352 
C 1370 468 1318 634 1286 749 
C 1248 890 1197 1056 1158 1172 
L 595 2752 
L 83 2752 
L 1094 0 
L 1664 0 
L 2675 2752 
z
" transform="scale(0.015625)"/>
       <path id="CMSS17-67" d="M 2848 2808 
C 2483 2808 2170 2738 1914 2617 
C 1702 2777 1485 2808 1338 2808 
C 781 2808 358 2349 358 1814 
C 358 1468 550 1207 563 1195 
C 448 1035 384 863 384 672 
C 384 448 474 289 544 200 
C 211 -3 166 -314 166 -435 
C 166 -898 749 -1280 1498 -1280 
C 2253 -1280 2835 -898 2835 -428 
C 2835 448 1856 448 1587 448 
L 1069 448 
C 973 448 717 448 717 791 
C 717 921 774 1004 781 1010 
C 877 940 1075 832 1338 832 
C 1869 832 2310 1278 2310 1827 
C 2310 2132 2170 2355 2112 2432 
L 2131 2432 
C 2150 2432 2419 2432 2515 2432 
C 2720 2432 2739 2429 2918 2419 
L 2848 2808 
z
M 1338 1182 
C 1120 1182 813 1315 813 1823 
C 813 2375 1165 2464 1331 2464 
C 1549 2464 1856 2331 1856 1823 
C 1856 1271 1504 1182 1338 1182 
z
M 1581 -10 
C 1734 -10 2381 -10 2381 -442 
C 2381 -714 1984 -929 1504 -929 
C 1018 -929 621 -720 621 -435 
C 621 -403 621 -10 1062 -10 
L 1581 -10 
z
" transform="scale(0.015625)"/>
       <path id="CMSS17-68" d="M 2618 1891 
C 2618 2292 2522 2820 1798 2820 
C 1395 2820 1133 2623 947 2407 
L 947 4448 
L 474 4448 
L 474 32 
L 960 32 
L 960 1573 
C 960 1973 1114 2432 1549 2432 
C 2112 2432 2131 2056 2131 1839 
L 2131 32 
L 2618 32 
L 2618 1891 
z
" transform="scale(0.015625)"/>
      </defs>
      <use xlink:href="#CMSS17-4c" transform="scale(0.996264)"/>
      <use xlink:href="#CMSS17-6f" transform="translate(50.687105 0) scale(0.996264)"/>
      <use xlink:href="#CMSS17-61" transform="translate(97.530729 0) scale(0.996264)"/>
      <use xlink:href="#CMSS17-64" transform="translate(142.452649 0) scale(0.996264)"/>
      <use xlink:href="#CMSS17-64" transform="translate(221.886705 0) scale(0.996264)"/>
      <use xlink:href="#CMSS17-72" transform="translate(270.091649 0) scale(0.996264)"/>
      <use xlink:href="#CMSS17-69" transform="translate(302.001421 0) scale(0.996264)"/>
      <use xlink:href="#CMSS17-76" transform="translate(324.182144 0) scale(0.996264)"/>
      <use xlink:href="#CMSS17-65" transform="translate(367.182286 0) scale(0.996264)"/>
      <use xlink:href="#CMSS17-72" transform="translate(408.821108 0) scale(0.996264)"/>
      <use xlink:href="#CMSS17-28" transform="translate(471.959993 0) scale(0.996264)"/>
      <use xlink:href="#CMSS17-72" transform="translate(508.393907 0) scale(0.996264)"/>
      <use xlink:href="#CMSS17-69" transform="translate(540.30368 0) scale(0.996264)"/>
      <use xlink:href="#CMSS17-67" transform="translate(562.484403 0) scale(0.996264)"/>
      <use xlink:href="#CMSS17-68" transform="translate(609.328026 0) scale(0.996264)"/>
      <use xlink:href="#CMSS17-74" transform="translate(657.53297 0) scale(0.996264)"/>
      <use xlink:href="#CMSS17-29" transform="translate(691.364536 0) scale(0.996264)"/>
     </g>
    </g>
   </g>
  </g>
 </g>
 <defs>
  <clipPath id="p4a5d7776fd">
   <rect x="90" y="43.2" width="558" height="277.2"/>
  </clipPath>
 </defs>
</svg>
