<?xml version="1.0" encoding="utf-8" standalone="no"?>
<!DOCTYPE svg PUBLIC "-//W3C//DTD SVG 1.1//EN"
  "http://www.w3.org/Graphics/SVG/1.1/DTD/svg11.dtd">
<svg xmlns:xlink="http://www.w3.org/1999/xlink" width="576pt" height="360pt" viewBox="0 0 576 360" xmlns="http://www.w3.org/2000/svg" version="1.1">
 <metadata>
  <rdf:RDF xmlns:dc="http://purl.org/dc/elements/1.1/" xmlns:cc="http://creativecommons.org/ns#" xmlns:rdf="http://www.w3.org/1999/02/22-rdf-syntax-ns#">
   <cc:Work>
    <dc:type rdf:resource="http://purl.org/dc/dcmitype/StillImage"/>
    <dc:date>2023-12-15T16:06:05.684958</dc:date>
    <dc:format>image/svg+xml</dc:format>
    <dc:creator>
     <cc:Agent>
      <dc:title>Matplotlib v3.8.0, https://matplotlib.org/</dc:title>
     </cc:Agent>
    </dc:creator>
   </cc:Work>
  </rdf:RDF>
 </metadata>
 <defs>
  <style type="text/css">*{stroke-linejoin: round; stroke-linecap: butt}</style>
 </defs>
 <g id="figure_1">
  <g id="patch_1">
   <path d="M 0 360 
L 576 360 
L 576 0 
L 0 0 
z
" style="fill: #ffffff"/>
  </g>
  <g id="axes_1">
   <g id="patch_2">
    <path d="M 72 320.4 
L 518.4 320.4 
L 518.4 43.2 
L 72 43.2 
z
" style="fill: #ffffff"/>
   </g>
   <g id="PolyCollection_1">
    <defs>
     <path id="m348e5c3556" d="M 92.290909 -51.697207 
L 92.290909 -59.182899 
L 93.421322 -59.182899 
L 94.551735 -59.182899 
L 95.682147 -59.182899 
L 96.81256 -59.182899 
L 97.942973 -59.182899 
L 99.073386 -59.182899 
L 100.203798 -59.182899 
L 101.334211 -59.182899 
L 102.464624 -59.182899 
L 103.595037 -59.182899 
L 104.725449 -59.182899 
L 105.855862 -59.182899 
L 106.986275 -59.182899 
L 108.116688 -59.182899 
L 109.247101 -59.182899 
L 110.377513 -59.182899 
L 111.507926 -59.182899 
L 112.638339 -59.182899 
L 113.768752 -59.182899 
L 114.899164 -59.182899 
L 116.029577 -59.182899 
L 117.15999 -59.182899 
L 118.290403 -59.182899 
L 119.420815 -59.182899 
L 120.551228 -54.899269 
L 121.681641 -54.899269 
L 122.812054 -54.899269 
L 123.942466 -54.899269 
L 125.072879 -54.899269 
L 126.203292 -54.568931 
L 127.333705 -54.568931 
L 128.464117 -54.568931 
L 129.59453 -54.568931 
L 130.724943 -54.568931 
L 131.855356 -54.568931 
L 132.985769 -54.568931 
L 134.116181 -54.568931 
L 135.246594 -54.568931 
L 136.377007 -54.568931 
L 137.50742 -54.568931 
L 138.637832 -54.568931 
L 139.768245 -54.568931 
L 140.898658 -54.568931 
L 142.029071 -54.568931 
L 143.159483 -54.568931 
L 144.289896 -54.568931 
L 145.420309 -54.568931 
L 146.550722 -54.568931 
L 147.681134 -54.568931 
L 148.811547 -54.568931 
L 149.94196 -54.568931 
L 151.072373 -54.568931 
L 152.202786 -54.568931 
L 153.333198 -54.568931 
L 154.463611 -54.568931 
L 155.594024 -54.568931 
L 156.724437 -54.568931 
L 157.854849 -54.568931 
L 158.985262 -54.568931 
L 160.115675 -54.568931 
L 161.246088 -54.568931 
L 162.3765 -54.568931 
L 163.506913 -54.568931 
L 164.637326 -54.568931 
L 165.767739 -54.568931 
L 166.898151 -54.568931 
L 168.028564 -54.568931 
L 169.158977 -54.568931 
L 170.28939 -54.568931 
L 171.419802 -54.568931 
L 172.550215 -54.568931 
L 173.680628 -54.568931 
L 174.811041 -54.568931 
L 175.941454 -54.568931 
L 177.071866 -54.568931 
L 178.202279 -54.568931 
L 179.332692 -54.568931 
L 180.463105 -54.568931 
L 181.593517 -52.535307 
L 182.72393 -52.535307 
L 183.854343 -52.535307 
L 184.984756 -52.535307 
L 186.115168 -52.535307 
L 187.245581 -52.535307 
L 188.375994 -52.544007 
L 189.506407 -52.544007 
L 190.636819 -52.544007 
L 191.767232 -52.544007 
L 192.897645 -52.544007 
L 194.028058 -52.544007 
L 195.15847 -52.544007 
L 196.288883 -52.544007 
L 197.419296 -52.544007 
L 198.549709 -52.544007 
L 199.680122 -52.544007 
L 200.810534 -52.544007 
L 201.940947 -52.544007 
L 203.07136 -52.544007 
L 204.201773 -52.544007 
L 205.332185 -52.544007 
L 206.462598 -52.544007 
L 207.593011 -52.544007 
L 208.723424 -52.544007 
L 209.853836 -52.544007 
L 210.984249 -52.544007 
L 212.114662 -52.544007 
L 213.245075 -52.544007 
L 214.375487 -52.544007 
L 215.5059 -52.544007 
L 216.636313 -52.544007 
L 217.766726 -52.544007 
L 218.897139 -52.544007 
L 220.027551 -52.544007 
L 221.157964 -52.544007 
L 222.288377 -52.544007 
L 223.41879 -52.544007 
L 224.549202 -52.544007 
L 225.679615 -52.544007 
L 226.810028 -52.544007 
L 227.940441 -52.544007 
L 229.070853 -52.544007 
L 230.201266 -52.544007 
L 231.331679 -52.544007 
L 232.462092 -52.544007 
L 233.592504 -52.544007 
L 234.722917 -52.544007 
L 235.85333 -52.544007 
L 236.983743 -52.544007 
L 238.114155 -52.544007 
L 239.244568 -52.544007 
L 240.374981 -52.544007 
L 241.505394 -52.544007 
L 242.635807 -52.544007 
L 243.766219 -52.031509 
L 244.896632 -52.031509 
L 246.027045 -52.031509 
L 247.157458 -52.031509 
L 248.28787 -52.031509 
L 249.418283 -50.657433 
L 250.548696 -50.657433 
L 251.679109 -50.657433 
L 252.809521 -50.657433 
L 253.939934 -50.657433 
L 255.070347 -50.657433 
L 256.20076 -49.682582 
L 257.331172 -49.682582 
L 258.461585 -49.682582 
L 259.591998 -49.682582 
L 260.722411 -49.682582 
L 261.852823 -49.682582 
L 262.983236 -49.682582 
L 264.113649 -49.682582 
L 265.244062 -49.682582 
L 266.374475 -49.682582 
L 267.504887 -49.682582 
L 268.6353 -49.682582 
L 269.765713 -49.682582 
L 270.896126 -49.682582 
L 272.026538 -49.682582 
L 273.156951 -49.682582 
L 274.287364 -49.682582 
L 275.417777 -49.682582 
L 276.548189 -49.682582 
L 277.678602 -49.682582 
L 278.809015 -49.682582 
L 279.939428 -49.682582 
L 281.06984 -49.682582 
L 282.200253 -49.682582 
L 283.330666 -49.682582 
L 284.461079 -49.682582 
L 285.591492 -49.682582 
L 286.721904 -49.682582 
L 287.852317 -49.682582 
L 288.98273 -49.682582 
L 290.113143 -49.682582 
L 291.243555 -49.682582 
L 292.373968 -49.682582 
L 293.504381 -49.682582 
L 294.634794 -49.682582 
L 295.765206 -49.682582 
L 296.895619 -49.682582 
L 298.026032 -49.682582 
L 299.156445 -49.682582 
L 300.286857 -49.682582 
L 301.41727 -49.682582 
L 302.547683 -49.682582 
L 303.678096 -49.682582 
L 304.808508 -49.682582 
L 305.938921 -49.682582 
L 307.069334 -49.682582 
L 308.199747 -49.682582 
L 309.33016 -49.682582 
L 310.460572 -49.682582 
L 311.590985 -49.606539 
L 312.721398 -49.606539 
L 313.851811 -49.606539 
L 314.982223 -49.606539 
L 316.112636 -49.606539 
L 317.243049 -51.160428 
L 318.373462 -51.160428 
L 319.503874 -51.160428 
L 320.634287 -51.160428 
L 321.7647 -51.160428 
L 322.895113 -51.160428 
L 324.025525 -51.160428 
L 325.155938 -51.160428 
L 326.286351 -51.160428 
L 327.416764 -51.160428 
L 328.547177 -51.160428 
L 329.677589 -51.160428 
L 330.808002 -51.160428 
L 331.938415 -51.160428 
L 333.068828 -51.160428 
L 334.19924 -51.160428 
L 335.329653 -51.160428 
L 336.460066 -51.160428 
L 337.590479 -51.160428 
L 338.720891 -51.160428 
L 339.851304 -51.160428 
L 340.981717 -51.160428 
L 342.11213 -51.160428 
L 343.242542 -51.160428 
L 344.372955 -51.160428 
L 345.503368 -51.160428 
L 346.633781 -51.160428 
L 347.764193 -51.160428 
L 348.894606 -51.160428 
L 350.025019 -51.160428 
L 351.155432 -51.160428 
L 352.285845 -51.160428 
L 353.416257 -51.160428 
L 354.54667 -51.160428 
L 355.677083 -51.160428 
L 356.807496 -51.160428 
L 357.937908 -51.160428 
L 359.068321 -51.160428 
L 360.198734 -51.160428 
L 361.329147 -51.160428 
L 362.459559 -51.160428 
L 363.589972 -51.160428 
L 364.720385 -51.160428 
L 365.850798 -51.160428 
L 366.98121 -51.160428 
L 368.111623 -51.160428 
L 369.242036 -51.160428 
L 370.372449 -51.160428 
L 371.502861 -51.160428 
L 372.633274 -53.869939 
L 373.763687 -53.869939 
L 374.8941 -53.869939 
L 376.024513 -53.869939 
L 377.154925 -53.869939 
L 378.285338 -53.856 
L 379.415751 -53.856 
L 380.546164 -53.856 
L 381.676576 -53.856 
L 382.806989 -53.856 
L 383.937402 -53.856 
L 385.067815 -54.216243 
L 386.198227 -54.216243 
L 387.32864 -54.216243 
L 388.459053 -54.216243 
L 389.589466 -54.216243 
L 390.719878 -54.216243 
L 391.850291 -54.216243 
L 392.980704 -54.216243 
L 394.111117 -54.216243 
L 395.24153 -54.216243 
L 396.371942 -54.216243 
L 397.502355 -54.216243 
L 398.632768 -54.216243 
L 399.763181 -54.216243 
L 400.893593 -54.216243 
L 402.024006 -54.216243 
L 403.154419 -54.216243 
L 404.284832 -54.216243 
L 405.415244 -54.216243 
L 406.545657 -54.216243 
L 407.67607 -54.216243 
L 408.806483 -54.216243 
L 409.936895 -54.216243 
L 411.067308 -54.216243 
L 412.197721 -54.216243 
L 413.328134 -54.216243 
L 414.458546 -54.216243 
L 415.588959 -54.216243 
L 416.719372 -54.216243 
L 417.849785 -54.216243 
L 418.980198 -54.216243 
L 420.11061 -54.216243 
L 421.241023 -54.216243 
L 422.371436 -54.216243 
L 423.501849 -54.216243 
L 424.632261 -54.216243 
L 425.762674 -54.216243 
L 426.893087 -54.216243 
L 428.0235 -54.216243 
L 429.153912 -54.216243 
L 430.284325 -54.216243 
L 431.414738 -54.216243 
L 432.545151 -54.216243 
L 433.675563 -54.899322 
L 434.805976 -54.899322 
L 435.936389 -54.899322 
L 437.066802 -54.899322 
L 438.197214 -54.899322 
L 439.327627 -54.899322 
L 440.45804 -56.403876 
L 441.588453 -56.403876 
L 442.718866 -56.403876 
L 443.849278 -56.403876 
L 444.979691 -56.403876 
L 446.110104 -56.441273 
L 447.240517 -56.441273 
L 448.370929 -56.441273 
L 449.501342 -56.441273 
L 450.631755 -56.441273 
L 451.762168 -56.441273 
L 452.89258 -56.441273 
L 454.022993 -56.441273 
L 455.153406 -56.441273 
L 456.283819 -56.441273 
L 457.414231 -56.441273 
L 458.544644 -56.441273 
L 459.675057 -56.441273 
L 460.80547 -56.441273 
L 461.935883 -56.441273 
L 463.066295 -56.441273 
L 464.196708 -56.441273 
L 465.327121 -56.441273 
L 466.457534 -56.441273 
L 467.587946 -56.441273 
L 468.718359 -56.441273 
L 469.848772 -56.441273 
L 470.979185 -56.441273 
L 472.109597 -56.441273 
L 473.24001 -56.441273 
L 474.370423 -56.441273 
L 475.500836 -56.441273 
L 476.631248 -56.441273 
L 477.761661 -56.441273 
L 478.892074 -56.441273 
L 480.022487 -56.441273 
L 481.152899 -56.441273 
L 482.283312 -56.441273 
L 483.413725 -56.441273 
L 484.544138 -56.441273 
L 485.674551 -56.441273 
L 486.804963 -56.441273 
L 487.935376 -56.441273 
L 489.065789 -56.441273 
L 490.196202 -56.441273 
L 491.326614 -56.441273 
L 492.457027 -56.441273 
L 493.58744 -56.441273 
L 494.717853 -56.441273 
L 495.848265 -56.441273 
L 496.978678 -56.441273 
L 498.109091 -56.441273 
L 498.109091 -49.436561 
L 498.109091 -49.436561 
L 496.978678 -49.436561 
L 495.848265 -49.436561 
L 494.717853 -49.436561 
L 493.58744 -49.436561 
L 492.457027 -49.436561 
L 491.326614 -49.436561 
L 490.196202 -49.436561 
L 489.065789 -49.436561 
L 487.935376 -49.436561 
L 486.804963 -49.436561 
L 485.674551 -49.436561 
L 484.544138 -49.436561 
L 483.413725 -49.436561 
L 482.283312 -49.436561 
L 481.152899 -49.436561 
L 480.022487 -49.436561 
L 478.892074 -49.436561 
L 477.761661 -49.436561 
L 476.631248 -49.436561 
L 475.500836 -49.436561 
L 474.370423 -49.436561 
L 473.24001 -49.436561 
L 472.109597 -49.436561 
L 470.979185 -49.436561 
L 469.848772 -49.436561 
L 468.718359 -49.436561 
L 467.587946 -49.436561 
L 466.457534 -49.436561 
L 465.327121 -49.436561 
L 464.196708 -49.436561 
L 463.066295 -49.436561 
L 461.935883 -49.436561 
L 460.80547 -49.436561 
L 459.675057 -49.436561 
L 458.544644 -49.436561 
L 457.414231 -49.436561 
L 456.283819 -49.436561 
L 455.153406 -49.436561 
L 454.022993 -49.436561 
L 452.89258 -49.436561 
L 451.762168 -49.436561 
L 450.631755 -49.436561 
L 449.501342 -49.436561 
L 448.370929 -49.436561 
L 447.240517 -49.436561 
L 446.110104 -49.436561 
L 444.979691 -48.918184 
L 443.849278 -48.918184 
L 442.718866 -48.918184 
L 441.588453 -48.918184 
L 440.45804 -48.918184 
L 439.327627 -48.199753 
L 438.197214 -48.199753 
L 437.066802 -48.199753 
L 435.936389 -48.199753 
L 434.805976 -48.199753 
L 433.675563 -48.199753 
L 432.545151 -47.771181 
L 431.414738 -47.771181 
L 430.284325 -47.771181 
L 429.153912 -47.771181 
L 428.0235 -47.771181 
L 426.893087 -47.771181 
L 425.762674 -47.771181 
L 424.632261 -47.771181 
L 423.501849 -47.771181 
L 422.371436 -47.771181 
L 421.241023 -47.771181 
L 420.11061 -47.771181 
L 418.980198 -47.771181 
L 417.849785 -47.771181 
L 416.719372 -47.771181 
L 415.588959 -47.771181 
L 414.458546 -47.771181 
L 413.328134 -47.771181 
L 412.197721 -47.771181 
L 411.067308 -47.771181 
L 409.936895 -47.771181 
L 408.806483 -47.771181 
L 407.67607 -47.771181 
L 406.545657 -47.771181 
L 405.415244 -47.771181 
L 404.284832 -47.771181 
L 403.154419 -47.771181 
L 402.024006 -47.771181 
L 400.893593 -47.771181 
L 399.763181 -47.771181 
L 398.632768 -47.771181 
L 397.502355 -47.771181 
L 396.371942 -47.771181 
L 395.24153 -47.771181 
L 394.111117 -47.771181 
L 392.980704 -47.771181 
L 391.850291 -47.771181 
L 390.719878 -47.771181 
L 389.589466 -47.771181 
L 388.459053 -47.771181 
L 387.32864 -47.771181 
L 386.198227 -47.771181 
L 385.067815 -47.771181 
L 383.937402 -46.464 
L 382.806989 -46.464 
L 381.676576 -46.464 
L 380.546164 -46.464 
L 379.415751 -46.464 
L 378.285338 -46.464 
L 377.154925 -47.005939 
L 376.024513 -47.005939 
L 374.8941 -47.005939 
L 373.763687 -47.005939 
L 372.633274 -47.005939 
L 371.502861 -46.936428 
L 370.372449 -46.936428 
L 369.242036 -46.936428 
L 368.111623 -46.936428 
L 366.98121 -46.936428 
L 365.850798 -46.936428 
L 364.720385 -46.936428 
L 363.589972 -46.936428 
L 362.459559 -46.936428 
L 361.329147 -46.936428 
L 360.198734 -46.936428 
L 359.068321 -46.936428 
L 357.937908 -46.936428 
L 356.807496 -46.936428 
L 355.677083 -46.936428 
L 354.54667 -46.936428 
L 353.416257 -46.936428 
L 352.285845 -46.936428 
L 351.155432 -46.936428 
L 350.025019 -46.936428 
L 348.894606 -46.936428 
L 347.764193 -46.936428 
L 346.633781 -46.936428 
L 345.503368 -46.936428 
L 344.372955 -46.936428 
L 343.242542 -46.936428 
L 342.11213 -46.936428 
L 340.981717 -46.936428 
L 339.851304 -46.936428 
L 338.720891 -46.936428 
L 337.590479 -46.936428 
L 336.460066 -46.936428 
L 335.329653 -46.936428 
L 334.19924 -46.936428 
L 333.068828 -46.936428 
L 331.938415 -46.936428 
L 330.808002 -46.936428 
L 329.677589 -46.936428 
L 328.547177 -46.936428 
L 327.416764 -46.936428 
L 326.286351 -46.936428 
L 325.155938 -46.936428 
L 324.025525 -46.936428 
L 322.895113 -46.936428 
L 321.7647 -46.936428 
L 320.634287 -46.936428 
L 319.503874 -46.936428 
L 318.373462 -46.936428 
L 317.243049 -46.936428 
L 316.112636 -46.267173 
L 314.982223 -46.267173 
L 313.851811 -46.267173 
L 312.721398 -46.267173 
L 311.590985 -46.267173 
L 310.460572 -45.079585 
L 309.33016 -45.079585 
L 308.199747 -45.079585 
L 307.069334 -45.079585 
L 305.938921 -45.079585 
L 304.808508 -45.079585 
L 303.678096 -45.079585 
L 302.547683 -45.079585 
L 301.41727 -45.079585 
L 300.286857 -45.079585 
L 299.156445 -45.079585 
L 298.026032 -45.079585 
L 296.895619 -45.079585 
L 295.765206 -45.079585 
L 294.634794 -45.079585 
L 293.504381 -45.079585 
L 292.373968 -45.079585 
L 291.243555 -45.079585 
L 290.113143 -45.079585 
L 288.98273 -45.079585 
L 287.852317 -45.079585 
L 286.721904 -45.079585 
L 285.591492 -45.079585 
L 284.461079 -45.079585 
L 283.330666 -45.079585 
L 282.200253 -45.079585 
L 281.06984 -45.079585 
L 279.939428 -45.079585 
L 278.809015 -45.079585 
L 277.678602 -45.079585 
L 276.548189 -45.079585 
L 275.417777 -45.079585 
L 274.287364 -45.079585 
L 273.156951 -45.079585 
L 272.026538 -45.079585 
L 270.896126 -45.079585 
L 269.765713 -45.079585 
L 268.6353 -45.079585 
L 267.504887 -45.079585 
L 266.374475 -45.079585 
L 265.244062 -45.079585 
L 264.113649 -45.079585 
L 262.983236 -45.079585 
L 261.852823 -45.079585 
L 260.722411 -45.079585 
L 259.591998 -45.079585 
L 258.461585 -45.079585 
L 257.331172 -45.079585 
L 256.20076 -45.079585 
L 255.070347 -44.660506 
L 253.939934 -44.660506 
L 252.809521 -44.660506 
L 251.679109 -44.660506 
L 250.548696 -44.660506 
L 249.418283 -44.660506 
L 248.28787 -46.621119 
L 247.157458 -46.621119 
L 246.027045 -46.621119 
L 244.896632 -46.621119 
L 243.766219 -46.621119 
L 242.635807 -46.664448 
L 241.505394 -46.664448 
L 240.374981 -46.664448 
L 239.244568 -46.664448 
L 238.114155 -46.664448 
L 236.983743 -46.664448 
L 235.85333 -46.664448 
L 234.722917 -46.664448 
L 233.592504 -46.664448 
L 232.462092 -46.664448 
L 231.331679 -46.664448 
L 230.201266 -46.664448 
L 229.070853 -46.664448 
L 227.940441 -46.664448 
L 226.810028 -46.664448 
L 225.679615 -46.664448 
L 224.549202 -46.664448 
L 223.41879 -46.664448 
L 222.288377 -46.664448 
L 221.157964 -46.664448 
L 220.027551 -46.664448 
L 218.897139 -46.664448 
L 217.766726 -46.664448 
L 216.636313 -46.664448 
L 215.5059 -46.664448 
L 214.375487 -46.664448 
L 213.245075 -46.664448 
L 212.114662 -46.664448 
L 210.984249 -46.664448 
L 209.853836 -46.664448 
L 208.723424 -46.664448 
L 207.593011 -46.664448 
L 206.462598 -46.664448 
L 205.332185 -46.664448 
L 204.201773 -46.664448 
L 203.07136 -46.664448 
L 201.940947 -46.664448 
L 200.810534 -46.664448 
L 199.680122 -46.664448 
L 198.549709 -46.664448 
L 197.419296 -46.664448 
L 196.288883 -46.664448 
L 195.15847 -46.664448 
L 194.028058 -46.664448 
L 192.897645 -46.664448 
L 191.767232 -46.664448 
L 190.636819 -46.664448 
L 189.506407 -46.664448 
L 188.375994 -46.664448 
L 187.245581 -47.228973 
L 186.115168 -47.228973 
L 184.984756 -47.228973 
L 183.854343 -47.228973 
L 182.72393 -47.228973 
L 181.593517 -47.228973 
L 180.463105 -47.974213 
L 179.332692 -47.974213 
L 178.202279 -47.974213 
L 177.071866 -47.974213 
L 175.941454 -47.974213 
L 174.811041 -47.974213 
L 173.680628 -47.974213 
L 172.550215 -47.974213 
L 171.419802 -47.974213 
L 170.28939 -47.974213 
L 169.158977 -47.974213 
L 168.028564 -47.974213 
L 166.898151 -47.974213 
L 165.767739 -47.974213 
L 164.637326 -47.974213 
L 163.506913 -47.974213 
L 162.3765 -47.974213 
L 161.246088 -47.974213 
L 160.115675 -47.974213 
L 158.985262 -47.974213 
L 157.854849 -47.974213 
L 156.724437 -47.974213 
L 155.594024 -47.974213 
L 154.463611 -47.974213 
L 153.333198 -47.974213 
L 152.202786 -47.974213 
L 151.072373 -47.974213 
L 149.94196 -47.974213 
L 148.811547 -47.974213 
L 147.681134 -47.974213 
L 146.550722 -47.974213 
L 145.420309 -47.974213 
L 144.289896 -47.974213 
L 143.159483 -47.974213 
L 142.029071 -47.974213 
L 140.898658 -47.974213 
L 139.768245 -47.974213 
L 138.637832 -47.974213 
L 137.50742 -47.974213 
L 136.377007 -47.974213 
L 135.246594 -47.974213 
L 134.116181 -47.974213 
L 132.985769 -47.974213 
L 131.855356 -47.974213 
L 130.724943 -47.974213 
L 129.59453 -47.974213 
L 128.464117 -47.974213 
L 127.333705 -47.974213 
L 126.203292 -47.974213 
L 125.072879 -48.1997 
L 123.942466 -48.1997 
L 122.812054 -48.1997 
L 121.681641 -48.1997 
L 120.551228 -48.1997 
L 119.420815 -51.697207 
L 118.290403 -51.697207 
L 117.15999 -51.697207 
L 116.029577 -51.697207 
L 114.899164 -51.697207 
L 113.768752 -51.697207 
L 112.638339 -51.697207 
L 111.507926 -51.697207 
L 110.377513 -51.697207 
L 109.247101 -51.697207 
L 108.116688 -51.697207 
L 106.986275 -51.697207 
L 105.855862 -51.697207 
L 104.725449 -51.697207 
L 103.595037 -51.697207 
L 102.464624 -51.697207 
L 101.334211 -51.697207 
L 100.203798 -51.697207 
L 99.073386 -51.697207 
L 97.942973 -51.697207 
L 96.81256 -51.697207 
L 95.682147 -51.697207 
L 94.551735 -51.697207 
L 93.421322 -51.697207 
L 92.290909 -51.697207 
z
" style="stroke: #482475; stroke-opacity: 0.2"/>
    </defs>
    <g clip-path="url(#p35fd8a8f16)">
     <use xlink:href="#m348e5c3556" x="0" y="360" style="fill: #482475; fill-opacity: 0.2; stroke: #482475; stroke-opacity: 0.2"/>
    </g>
   </g>
   <g id="PolyCollection_2">
    <defs>
     <path id="m3180e4cd41" d="M 92.290909 -60.289231 
L 92.290909 -65.041231 
L 93.421322 -65.041231 
L 94.551735 -65.041231 
L 95.682147 -65.041231 
L 96.81256 -65.041231 
L 97.942973 -65.041231 
L 99.073386 -65.041231 
L 100.203798 -65.041231 
L 101.334211 -65.041231 
L 102.464624 -65.041231 
L 103.595037 -65.041231 
L 104.725449 -65.041231 
L 105.855862 -65.041231 
L 106.986275 -65.041231 
L 108.116688 -65.041231 
L 109.247101 -65.041231 
L 110.377513 -65.041231 
L 111.507926 -65.041231 
L 112.638339 -65.041231 
L 113.768752 -65.041231 
L 114.899164 -65.041231 
L 116.029577 -65.041231 
L 117.15999 -65.041231 
L 118.290403 -65.041231 
L 119.420815 -65.041231 
L 120.551228 -62.786205 
L 121.681641 -62.786205 
L 122.812054 -62.786205 
L 123.942466 -62.786205 
L 125.072879 -62.786205 
L 126.203292 -61.109136 
L 127.333705 -61.109136 
L 128.464117 -61.109136 
L 129.59453 -61.109136 
L 130.724943 -61.109136 
L 131.855356 -61.109136 
L 132.985769 -61.109136 
L 134.116181 -61.109136 
L 135.246594 -61.109136 
L 136.377007 -61.109136 
L 137.50742 -61.109136 
L 138.637832 -60.614833 
L 139.768245 -60.614833 
L 140.898658 -60.614833 
L 142.029071 -60.614833 
L 143.159483 -60.614833 
L 144.289896 -60.614833 
L 145.420309 -60.614833 
L 146.550722 -60.614833 
L 147.681134 -60.614833 
L 148.811547 -60.614833 
L 149.94196 -60.614833 
L 151.072373 -60.614833 
L 152.202786 -60.614833 
L 153.333198 -60.614833 
L 154.463611 -60.614833 
L 155.594024 -60.614833 
L 156.724437 -60.614833 
L 157.854849 -60.614833 
L 158.985262 -60.614833 
L 160.115675 -60.614833 
L 161.246088 -60.614833 
L 162.3765 -60.614833 
L 163.506913 -60.614833 
L 164.637326 -60.614833 
L 165.767739 -60.614833 
L 166.898151 -60.614833 
L 168.028564 -60.614833 
L 169.158977 -60.614833 
L 170.28939 -60.614833 
L 171.419802 -60.614833 
L 172.550215 -60.614833 
L 173.680628 -60.614833 
L 174.811041 -60.614833 
L 175.941454 -60.614833 
L 177.071866 -60.614833 
L 178.202279 -60.614833 
L 179.332692 -60.614833 
L 180.463105 -60.614833 
L 181.593517 -57.298623 
L 182.72393 -57.298623 
L 183.854343 -57.298623 
L 184.984756 -57.298623 
L 186.115168 -57.298623 
L 187.245581 -57.298623 
L 188.375994 -56.357545 
L 189.506407 -56.357545 
L 190.636819 -56.357545 
L 191.767232 -56.357545 
L 192.897645 -56.357545 
L 194.028058 -56.357545 
L 195.15847 -56.357545 
L 196.288883 -56.357545 
L 197.419296 -56.357545 
L 198.549709 -56.357545 
L 199.680122 -56.357545 
L 200.810534 -56.357545 
L 201.940947 -56.357545 
L 203.07136 -56.357545 
L 204.201773 -56.357545 
L 205.332185 -56.357545 
L 206.462598 -56.357545 
L 207.593011 -56.357545 
L 208.723424 -56.357545 
L 209.853836 -56.357545 
L 210.984249 -56.357545 
L 212.114662 -56.357545 
L 213.245075 -56.357545 
L 214.375487 -56.357545 
L 215.5059 -56.357545 
L 216.636313 -56.357545 
L 217.766726 -56.357545 
L 218.897139 -56.357545 
L 220.027551 -56.357545 
L 221.157964 -56.357545 
L 222.288377 -56.357545 
L 223.41879 -56.357545 
L 224.549202 -56.357545 
L 225.679615 -56.357545 
L 226.810028 -56.357545 
L 227.940441 -56.357545 
L 229.070853 -56.357545 
L 230.201266 -56.357545 
L 231.331679 -56.357545 
L 232.462092 -56.357545 
L 233.592504 -56.357545 
L 234.722917 -56.357545 
L 235.85333 -56.357545 
L 236.983743 -56.357545 
L 238.114155 -56.357545 
L 239.244568 -56.357545 
L 240.374981 -56.357545 
L 241.505394 -56.357545 
L 242.635807 -56.357545 
L 243.766219 -55.965604 
L 244.896632 -55.965604 
L 246.027045 -55.965604 
L 247.157458 -55.965604 
L 248.28787 -55.965604 
L 249.418283 -50.897505 
L 250.548696 -50.897505 
L 251.679109 -50.897505 
L 252.809521 -50.897505 
L 253.939934 -50.897505 
L 255.070347 -50.897505 
L 256.20076 -51.215947 
L 257.331172 -51.215947 
L 258.461585 -51.215947 
L 259.591998 -51.215947 
L 260.722411 -51.215947 
L 261.852823 -51.215947 
L 262.983236 -51.215947 
L 264.113649 -51.215947 
L 265.244062 -51.215947 
L 266.374475 -51.215947 
L 267.504887 -51.215947 
L 268.6353 -51.215947 
L 269.765713 -51.215947 
L 270.896126 -51.215947 
L 272.026538 -51.215947 
L 273.156951 -51.215947 
L 274.287364 -51.215947 
L 275.417777 -51.215947 
L 276.548189 -51.215947 
L 277.678602 -51.215947 
L 278.809015 -51.215947 
L 279.939428 -51.215947 
L 281.06984 -51.215947 
L 282.200253 -51.215947 
L 283.330666 -51.215947 
L 284.461079 -51.215947 
L 285.591492 -51.215947 
L 286.721904 -51.215947 
L 287.852317 -51.215947 
L 288.98273 -51.215947 
L 290.113143 -51.215947 
L 291.243555 -51.215947 
L 292.373968 -51.215947 
L 293.504381 -51.215947 
L 294.634794 -51.215947 
L 295.765206 -51.215947 
L 296.895619 -51.215947 
L 298.026032 -51.215947 
L 299.156445 -51.215947 
L 300.286857 -51.215947 
L 301.41727 -51.215947 
L 302.547683 -51.215947 
L 303.678096 -51.215947 
L 304.808508 -51.215947 
L 305.938921 -51.215947 
L 307.069334 -51.215947 
L 308.199747 -51.215947 
L 309.33016 -51.215947 
L 310.460572 -51.215947 
L 311.590985 -55.194392 
L 312.721398 -55.194392 
L 313.851811 -55.194392 
L 314.982223 -55.194392 
L 316.112636 -55.194392 
L 317.243049 -56.018906 
L 318.373462 -56.018906 
L 319.503874 -56.018906 
L 320.634287 -56.018906 
L 321.7647 -56.018906 
L 322.895113 -56.357545 
L 324.025525 -56.357545 
L 325.155938 -56.357545 
L 326.286351 -56.357545 
L 327.416764 -56.357545 
L 328.547177 -56.357545 
L 329.677589 -56.357545 
L 330.808002 -56.357545 
L 331.938415 -56.357545 
L 333.068828 -56.357545 
L 334.19924 -56.357545 
L 335.329653 -56.357545 
L 336.460066 -56.357545 
L 337.590479 -56.357545 
L 338.720891 -56.357545 
L 339.851304 -56.357545 
L 340.981717 -56.357545 
L 342.11213 -56.357545 
L 343.242542 -56.357545 
L 344.372955 -56.357545 
L 345.503368 -56.357545 
L 346.633781 -56.357545 
L 347.764193 -56.357545 
L 348.894606 -56.357545 
L 350.025019 -56.357545 
L 351.155432 -56.357545 
L 352.285845 -56.357545 
L 353.416257 -56.357545 
L 354.54667 -56.357545 
L 355.677083 -56.357545 
L 356.807496 -56.357545 
L 357.937908 -56.357545 
L 359.068321 -56.357545 
L 360.198734 -56.357545 
L 361.329147 -56.357545 
L 362.459559 -56.357545 
L 363.589972 -56.357545 
L 364.720385 -56.357545 
L 365.850798 -56.357545 
L 366.98121 -56.357545 
L 368.111623 -56.357545 
L 369.242036 -56.357545 
L 370.372449 -56.357545 
L 371.502861 -56.357545 
L 372.633274 -61.215409 
L 373.763687 -61.215409 
L 374.8941 -61.215409 
L 376.024513 -61.215409 
L 377.154925 -61.215409 
L 378.285338 -60.633392 
L 379.415751 -60.633392 
L 380.546164 -60.633392 
L 381.676576 -60.633392 
L 382.806989 -60.633392 
L 383.937402 -60.633392 
L 385.067815 -60.614833 
L 386.198227 -60.614833 
L 387.32864 -60.614833 
L 388.459053 -60.614833 
L 389.589466 -60.614833 
L 390.719878 -60.614833 
L 391.850291 -60.614833 
L 392.980704 -60.614833 
L 394.111117 -60.614833 
L 395.24153 -60.614833 
L 396.371942 -60.614833 
L 397.502355 -60.614833 
L 398.632768 -60.614833 
L 399.763181 -60.614833 
L 400.893593 -60.614833 
L 402.024006 -60.614833 
L 403.154419 -60.614833 
L 404.284832 -60.614833 
L 405.415244 -60.614833 
L 406.545657 -60.614833 
L 407.67607 -60.614833 
L 408.806483 -60.614833 
L 409.936895 -60.614833 
L 411.067308 -60.614833 
L 412.197721 -60.614833 
L 413.328134 -60.614833 
L 414.458546 -60.614833 
L 415.588959 -60.614833 
L 416.719372 -60.614833 
L 417.849785 -60.614833 
L 418.980198 -60.614833 
L 420.11061 -60.614833 
L 421.241023 -60.614833 
L 422.371436 -60.614833 
L 423.501849 -60.614833 
L 424.632261 -60.614833 
L 425.762674 -60.614833 
L 426.893087 -60.614833 
L 428.0235 -60.614833 
L 429.153912 -60.614833 
L 430.284325 -60.614833 
L 431.414738 -60.614833 
L 432.545151 -60.614833 
L 433.675563 -61.892194 
L 434.805976 -61.892194 
L 435.936389 -61.892194 
L 437.066802 -61.892194 
L 438.197214 -61.892194 
L 439.327627 -61.892194 
L 440.45804 -64.97398 
L 441.588453 -64.97398 
L 442.718866 -64.97398 
L 443.849278 -64.97398 
L 444.979691 -64.97398 
L 446.110104 -65.041231 
L 447.240517 -65.041231 
L 448.370929 -65.041231 
L 449.501342 -65.041231 
L 450.631755 -65.041231 
L 451.762168 -65.041231 
L 452.89258 -64.688843 
L 454.022993 -64.688843 
L 455.153406 -64.688843 
L 456.283819 -64.688843 
L 457.414231 -64.688843 
L 458.544644 -65.041231 
L 459.675057 -65.041231 
L 460.80547 -65.041231 
L 461.935883 -65.041231 
L 463.066295 -65.041231 
L 464.196708 -65.041231 
L 465.327121 -65.041231 
L 466.457534 -65.041231 
L 467.587946 -65.041231 
L 468.718359 -65.041231 
L 469.848772 -65.041231 
L 470.979185 -65.041231 
L 472.109597 -65.041231 
L 473.24001 -65.041231 
L 474.370423 -65.041231 
L 475.500836 -65.041231 
L 476.631248 -65.041231 
L 477.761661 -65.041231 
L 478.892074 -65.041231 
L 480.022487 -65.041231 
L 481.152899 -65.041231 
L 482.283312 -65.041231 
L 483.413725 -65.041231 
L 484.544138 -65.041231 
L 485.674551 -65.041231 
L 486.804963 -65.041231 
L 487.935376 -65.041231 
L 489.065789 -65.041231 
L 490.196202 -65.041231 
L 491.326614 -65.041231 
L 492.457027 -65.041231 
L 493.58744 -65.041231 
L 494.717853 -65.041231 
L 495.848265 -65.041231 
L 496.978678 -65.041231 
L 498.109091 -65.041231 
L 498.109091 -60.289231 
L 498.109091 -60.289231 
L 496.978678 -60.289231 
L 495.848265 -60.289231 
L 494.717853 -60.289231 
L 493.58744 -60.289231 
L 492.457027 -60.289231 
L 491.326614 -60.289231 
L 490.196202 -60.289231 
L 489.065789 -60.289231 
L 487.935376 -60.289231 
L 486.804963 -60.289231 
L 485.674551 -60.289231 
L 484.544138 -60.289231 
L 483.413725 -60.289231 
L 482.283312 -60.289231 
L 481.152899 -60.289231 
L 480.022487 -60.289231 
L 478.892074 -60.289231 
L 477.761661 -60.289231 
L 476.631248 -60.289231 
L 475.500836 -60.289231 
L 474.370423 -60.289231 
L 473.24001 -60.289231 
L 472.109597 -60.289231 
L 470.979185 -60.289231 
L 469.848772 -60.289231 
L 468.718359 -60.289231 
L 467.587946 -60.289231 
L 466.457534 -60.289231 
L 465.327121 -60.289231 
L 464.196708 -60.289231 
L 463.066295 -60.289231 
L 461.935883 -60.289231 
L 460.80547 -60.289231 
L 459.675057 -60.289231 
L 458.544644 -60.289231 
L 457.414231 -60.085846 
L 456.283819 -60.085846 
L 455.153406 -60.085846 
L 454.022993 -60.085846 
L 452.89258 -60.085846 
L 451.762168 -60.289231 
L 450.631755 -60.289231 
L 449.501342 -60.289231 
L 448.370929 -60.289231 
L 447.240517 -60.289231 
L 446.110104 -60.289231 
L 444.979691 -59.800657 
L 443.849278 -59.800657 
L 442.718866 -59.800657 
L 441.588453 -59.800657 
L 440.45804 -59.800657 
L 439.327627 -53.989814 
L 438.197214 -53.989814 
L 437.066802 -53.989814 
L 435.936389 -53.989814 
L 434.805976 -53.989814 
L 433.675563 -53.989814 
L 432.545151 -54.711613 
L 431.414738 -54.711613 
L 430.284325 -54.711613 
L 429.153912 -54.711613 
L 428.0235 -54.711613 
L 426.893087 -54.711613 
L 425.762674 -54.711613 
L 424.632261 -54.711613 
L 423.501849 -54.711613 
L 422.371436 -54.711613 
L 421.241023 -54.711613 
L 420.11061 -54.711613 
L 418.980198 -54.711613 
L 417.849785 -54.711613 
L 416.719372 -54.711613 
L 415.588959 -54.711613 
L 414.458546 -54.711613 
L 413.328134 -54.711613 
L 412.197721 -54.711613 
L 411.067308 -54.711613 
L 409.936895 -54.711613 
L 408.806483 -54.711613 
L 407.67607 -54.711613 
L 406.545657 -54.711613 
L 405.415244 -54.711613 
L 404.284832 -54.711613 
L 403.154419 -54.711613 
L 402.024006 -54.711613 
L 400.893593 -54.711613 
L 399.763181 -54.711613 
L 398.632768 -54.711613 
L 397.502355 -54.711613 
L 396.371942 -54.711613 
L 395.24153 -54.711613 
L 394.111117 -54.711613 
L 392.980704 -54.711613 
L 391.850291 -54.711613 
L 390.719878 -54.711613 
L 389.589466 -54.711613 
L 388.459053 -54.711613 
L 387.32864 -54.711613 
L 386.198227 -54.711613 
L 385.067815 -54.711613 
L 383.937402 -55.248827 
L 382.806989 -55.248827 
L 381.676576 -55.248827 
L 380.546164 -55.248827 
L 379.415751 -55.248827 
L 378.285338 -55.248827 
L 377.154925 -52.443614 
L 376.024513 -52.443614 
L 374.8941 -52.443614 
L 373.763687 -52.443614 
L 372.633274 -52.443614 
L 371.502861 -52.855189 
L 370.372449 -52.855189 
L 369.242036 -52.855189 
L 368.111623 -52.855189 
L 366.98121 -52.855189 
L 365.850798 -52.855189 
L 364.720385 -52.855189 
L 363.589972 -52.855189 
L 362.459559 -52.855189 
L 361.329147 -52.855189 
L 360.198734 -52.855189 
L 359.068321 -52.855189 
L 357.937908 -52.855189 
L 356.807496 -52.855189 
L 355.677083 -52.855189 
L 354.54667 -52.855189 
L 353.416257 -52.855189 
L 352.285845 -52.855189 
L 351.155432 -52.855189 
L 350.025019 -52.855189 
L 348.894606 -52.855189 
L 347.764193 -52.855189 
L 346.633781 -52.855189 
L 345.503368 -52.855189 
L 344.372955 -52.855189 
L 343.242542 -52.855189 
L 342.11213 -52.855189 
L 340.981717 -52.855189 
L 339.851304 -52.855189 
L 338.720891 -52.855189 
L 337.590479 -52.855189 
L 336.460066 -52.855189 
L 335.329653 -52.855189 
L 334.19924 -52.855189 
L 333.068828 -52.855189 
L 331.938415 -52.855189 
L 330.808002 -52.855189 
L 329.677589 -52.855189 
L 328.547177 -52.855189 
L 327.416764 -52.855189 
L 326.286351 -52.855189 
L 325.155938 -52.855189 
L 324.025525 -52.855189 
L 322.895113 -52.855189 
L 321.7647 -52.638056 
L 320.634287 -52.638056 
L 319.503874 -52.638056 
L 318.373462 -52.638056 
L 317.243049 -52.638056 
L 316.112636 -52.351024 
L 314.982223 -52.351024 
L 313.851811 -52.351024 
L 312.721398 -52.351024 
L 311.590985 -52.351024 
L 310.460572 -49.103947 
L 309.33016 -49.103947 
L 308.199747 -49.103947 
L 307.069334 -49.103947 
L 305.938921 -49.103947 
L 304.808508 -49.103947 
L 303.678096 -49.103947 
L 302.547683 -49.103947 
L 301.41727 -49.103947 
L 300.286857 -49.103947 
L 299.156445 -49.103947 
L 298.026032 -49.103947 
L 296.895619 -49.103947 
L 295.765206 -49.103947 
L 294.634794 -49.103947 
L 293.504381 -49.103947 
L 292.373968 -49.103947 
L 291.243555 -49.103947 
L 290.113143 -49.103947 
L 288.98273 -49.103947 
L 287.852317 -49.103947 
L 286.721904 -49.103947 
L 285.591492 -49.103947 
L 284.461079 -49.103947 
L 283.330666 -49.103947 
L 282.200253 -49.103947 
L 281.06984 -49.103947 
L 279.939428 -49.103947 
L 278.809015 -49.103947 
L 277.678602 -49.103947 
L 276.548189 -49.103947 
L 275.417777 -49.103947 
L 274.287364 -49.103947 
L 273.156951 -49.103947 
L 272.026538 -49.103947 
L 270.896126 -49.103947 
L 269.765713 -49.103947 
L 268.6353 -49.103947 
L 267.504887 -49.103947 
L 266.374475 -49.103947 
L 265.244062 -49.103947 
L 264.113649 -49.103947 
L 262.983236 -49.103947 
L 261.852823 -49.103947 
L 260.722411 -49.103947 
L 259.591998 -49.103947 
L 258.461585 -49.103947 
L 257.331172 -49.103947 
L 256.20076 -49.103947 
L 255.070347 -48.310844 
L 253.939934 -48.310844 
L 252.809521 -48.310844 
L 251.679109 -48.310844 
L 250.548696 -48.310844 
L 249.418283 -48.310844 
L 248.28787 -51.579707 
L 247.157458 -51.579707 
L 246.027045 -51.579707 
L 244.896632 -51.579707 
L 243.766219 -51.579707 
L 242.635807 -52.855189 
L 241.505394 -52.855189 
L 240.374981 -52.855189 
L 239.244568 -52.855189 
L 238.114155 -52.855189 
L 236.983743 -52.855189 
L 235.85333 -52.855189 
L 234.722917 -52.855189 
L 233.592504 -52.855189 
L 232.462092 -52.855189 
L 231.331679 -52.855189 
L 230.201266 -52.855189 
L 229.070853 -52.855189 
L 227.940441 -52.855189 
L 226.810028 -52.855189 
L 225.679615 -52.855189 
L 224.549202 -52.855189 
L 223.41879 -52.855189 
L 222.288377 -52.855189 
L 221.157964 -52.855189 
L 220.027551 -52.855189 
L 218.897139 -52.855189 
L 217.766726 -52.855189 
L 216.636313 -52.855189 
L 215.5059 -52.855189 
L 214.375487 -52.855189 
L 213.245075 -52.855189 
L 212.114662 -52.855189 
L 210.984249 -52.855189 
L 209.853836 -52.855189 
L 208.723424 -52.855189 
L 207.593011 -52.855189 
L 206.462598 -52.855189 
L 205.332185 -52.855189 
L 204.201773 -52.855189 
L 203.07136 -52.855189 
L 201.940947 -52.855189 
L 200.810534 -52.855189 
L 199.680122 -52.855189 
L 198.549709 -52.855189 
L 197.419296 -52.855189 
L 196.288883 -52.855189 
L 195.15847 -52.855189 
L 194.028058 -52.855189 
L 192.897645 -52.855189 
L 191.767232 -52.855189 
L 190.636819 -52.855189 
L 189.506407 -52.855189 
L 188.375994 -52.855189 
L 187.245581 -51.914058 
L 186.115168 -51.914058 
L 184.984756 -51.914058 
L 183.854343 -51.914058 
L 182.72393 -51.914058 
L 181.593517 -51.914058 
L 180.463105 -54.711613 
L 179.332692 -54.711613 
L 178.202279 -54.711613 
L 177.071866 -54.711613 
L 175.941454 -54.711613 
L 174.811041 -54.711613 
L 173.680628 -54.711613 
L 172.550215 -54.711613 
L 171.419802 -54.711613 
L 170.28939 -54.711613 
L 169.158977 -54.711613 
L 168.028564 -54.711613 
L 166.898151 -54.711613 
L 165.767739 -54.711613 
L 164.637326 -54.711613 
L 163.506913 -54.711613 
L 162.3765 -54.711613 
L 161.246088 -54.711613 
L 160.115675 -54.711613 
L 158.985262 -54.711613 
L 157.854849 -54.711613 
L 156.724437 -54.711613 
L 155.594024 -54.711613 
L 154.463611 -54.711613 
L 153.333198 -54.711613 
L 152.202786 -54.711613 
L 151.072373 -54.711613 
L 149.94196 -54.711613 
L 148.811547 -54.711613 
L 147.681134 -54.711613 
L 146.550722 -54.711613 
L 145.420309 -54.711613 
L 144.289896 -54.711613 
L 143.159483 -54.711613 
L 142.029071 -54.711613 
L 140.898658 -54.711613 
L 139.768245 -54.711613 
L 138.637832 -54.711613 
L 137.50742 -54.773136 
L 136.377007 -54.773136 
L 135.246594 -54.773136 
L 134.116181 -54.773136 
L 132.985769 -54.773136 
L 131.855356 -54.773136 
L 130.724943 -54.773136 
L 129.59453 -54.773136 
L 128.464117 -54.773136 
L 127.333705 -54.773136 
L 126.203292 -54.773136 
L 125.072879 -55.319158 
L 123.942466 -55.319158 
L 122.812054 -55.319158 
L 121.681641 -55.319158 
L 120.551228 -55.319158 
L 119.420815 -60.289231 
L 118.290403 -60.289231 
L 117.15999 -60.289231 
L 116.029577 -60.289231 
L 114.899164 -60.289231 
L 113.768752 -60.289231 
L 112.638339 -60.289231 
L 111.507926 -60.289231 
L 110.377513 -60.289231 
L 109.247101 -60.289231 
L 108.116688 -60.289231 
L 106.986275 -60.289231 
L 105.855862 -60.289231 
L 104.725449 -60.289231 
L 103.595037 -60.289231 
L 102.464624 -60.289231 
L 101.334211 -60.289231 
L 100.203798 -60.289231 
L 99.073386 -60.289231 
L 97.942973 -60.289231 
L 96.81256 -60.289231 
L 95.682147 -60.289231 
L 94.551735 -60.289231 
L 93.421322 -60.289231 
L 92.290909 -60.289231 
z
" style="stroke: #bddf26; stroke-opacity: 0.2"/>
    </defs>
    <g clip-path="url(#p35fd8a8f16)">
     <use xlink:href="#m3180e4cd41" x="0" y="360" style="fill: #bddf26; fill-opacity: 0.2; stroke: #bddf26; stroke-opacity: 0.2"/>
    </g>
   </g>
   <g id="matplotlib.axis_1">
    <g id="xtick_1">
     <g id="line2d_1">
      <defs>
       <path id="m1367098246" d="M 0 0 
L 0 3.5 
" style="stroke: #000000; stroke-width: 0.8"/>
      </defs>
      <g>
       <use xlink:href="#m1367098246" x="116.88595" y="320.4" style="stroke: #000000; stroke-width: 0.8"/>
      </g>
     </g>
     <g id="text_1">
      <!-- $\mathdefault{100}$ -->
      <g transform="translate(106.277417 337.431808) scale(0.145 -0.145)">
       <defs>
        <path id="CMR17-31" d="M 1702 4058 
C 1702 4192 1696 4192 1606 4192 
C 1357 3916 979 3827 621 3827 
C 602 3827 570 3827 563 3808 
C 557 3795 557 3782 557 3648 
C 755 3648 1088 3686 1344 3839 
L 1344 461 
C 1344 236 1331 160 781 160 
L 589 160 
L 589 0 
C 896 0 1216 0 1523 0 
C 1830 0 2150 0 2458 0 
L 2458 160 
L 2266 160 
C 1715 160 1702 230 1702 458 
L 1702 4058 
z
" transform="scale(0.015625)"/>
        <path id="CMR17-30" d="M 2688 2025 
C 2688 2416 2682 3080 2413 3591 
C 2176 4039 1798 4198 1466 4198 
C 1158 4198 768 4058 525 3597 
C 269 3118 243 2524 243 2025 
C 243 1661 250 1106 448 619 
C 723 -39 1216 -128 1466 -128 
C 1760 -128 2208 -7 2470 600 
C 2662 1042 2688 1559 2688 2025 
z
M 1466 -26 
C 1056 -26 813 325 723 812 
C 653 1188 653 1738 653 2096 
C 653 2588 653 2997 736 3387 
C 858 3929 1216 4096 1466 4096 
C 1728 4096 2067 3923 2189 3400 
C 2272 3036 2278 2607 2278 2096 
C 2278 1680 2278 1169 2202 792 
C 2067 95 1690 -26 1466 -26 
z
" transform="scale(0.015625)"/>
       </defs>
       <use xlink:href="#CMR17-31" transform="scale(0.996264)"/>
       <use xlink:href="#CMR17-30" transform="translate(45.690477 0) scale(0.996264)"/>
       <use xlink:href="#CMR17-30" transform="translate(91.380954 0) scale(0.996264)"/>
      </g>
     </g>
    </g>
    <g id="xtick_2">
     <g id="line2d_2">
      <g>
       <use xlink:href="#m1367098246" x="178.373554" y="320.4" style="stroke: #000000; stroke-width: 0.8"/>
      </g>
     </g>
     <g id="text_2">
      <!-- $\mathdefault{200}$ -->
      <g transform="translate(167.76502 337.431808) scale(0.145 -0.145)">
       <defs>
        <path id="CMR17-32" d="M 2669 989 
L 2554 989 
C 2490 536 2438 459 2413 420 
C 2381 369 1920 369 1830 369 
L 602 369 
C 832 619 1280 1072 1824 1597 
C 2214 1967 2669 2402 2669 3035 
C 2669 3790 2067 4224 1395 4224 
C 691 4224 262 3604 262 3030 
C 262 2780 448 2748 525 2748 
C 589 2748 781 2787 781 3010 
C 781 3207 614 3264 525 3264 
C 486 3264 448 3258 422 3245 
C 544 3790 915 4058 1306 4058 
C 1862 4058 2227 3617 2227 3035 
C 2227 2479 1901 2000 1536 1584 
L 262 146 
L 262 0 
L 2515 0 
L 2669 989 
z
" transform="scale(0.015625)"/>
       </defs>
       <use xlink:href="#CMR17-32" transform="scale(0.996264)"/>
       <use xlink:href="#CMR17-30" transform="translate(45.690477 0) scale(0.996264)"/>
       <use xlink:href="#CMR17-30" transform="translate(91.380954 0) scale(0.996264)"/>
      </g>
     </g>
    </g>
    <g id="xtick_3">
     <g id="line2d_3">
      <g>
       <use xlink:href="#m1367098246" x="239.861157" y="320.4" style="stroke: #000000; stroke-width: 0.8"/>
      </g>
     </g>
     <g id="text_3">
      <!-- $\mathdefault{300}$ -->
      <g transform="translate(229.252624 337.431808) scale(0.145 -0.145)">
       <defs>
        <path id="CMR17-33" d="M 1414 2157 
C 1984 2157 2234 1662 2234 1090 
C 2234 320 1824 25 1453 25 
C 1114 25 563 194 390 693 
C 422 680 454 680 486 680 
C 640 680 755 782 755 948 
C 755 1133 614 1216 486 1216 
C 378 1216 211 1165 211 926 
C 211 335 787 -128 1466 -128 
C 2176 -128 2720 430 2720 1085 
C 2720 1707 2208 2157 1600 2227 
C 2086 2328 2554 2756 2554 3329 
C 2554 3820 2048 4179 1472 4179 
C 890 4179 378 3829 378 3329 
C 378 3110 544 3072 627 3072 
C 762 3072 877 3155 877 3321 
C 877 3486 762 3569 627 3569 
C 602 3569 570 3569 544 3557 
C 730 3959 1235 4032 1459 4032 
C 1683 4032 2106 3925 2106 3320 
C 2106 3143 2080 2828 1862 2550 
C 1670 2304 1453 2304 1242 2284 
C 1210 2284 1062 2269 1037 2269 
C 992 2263 966 2257 966 2208 
C 966 2163 973 2157 1101 2157 
L 1414 2157 
z
" transform="scale(0.015625)"/>
       </defs>
       <use xlink:href="#CMR17-33" transform="scale(0.996264)"/>
       <use xlink:href="#CMR17-30" transform="translate(45.690477 0) scale(0.996264)"/>
       <use xlink:href="#CMR17-30" transform="translate(91.380954 0) scale(0.996264)"/>
      </g>
     </g>
    </g>
    <g id="xtick_4">
     <g id="line2d_4">
      <g>
       <use xlink:href="#m1367098246" x="301.34876" y="320.4" style="stroke: #000000; stroke-width: 0.8"/>
      </g>
     </g>
     <g id="text_4">
      <!-- $\mathdefault{400}$ -->
      <g transform="translate(290.740227 337.431808) scale(0.145 -0.145)">
       <defs>
        <path id="CMR17-34" d="M 2150 4122 
C 2150 4256 2144 4256 2029 4256 
L 128 1254 
L 128 1088 
L 1779 1088 
L 1779 457 
C 1779 224 1766 160 1318 160 
L 1197 160 
L 1197 0 
C 1402 0 1747 0 1965 0 
C 2182 0 2528 0 2733 0 
L 2733 160 
L 2611 160 
C 2163 160 2150 224 2150 457 
L 2150 1088 
L 2803 1088 
L 2803 1254 
L 2150 1254 
L 2150 4122 
z
M 1798 3703 
L 1798 1254 
L 256 1254 
L 1798 3703 
z
" transform="scale(0.015625)"/>
       </defs>
       <use xlink:href="#CMR17-34" transform="scale(0.996264)"/>
       <use xlink:href="#CMR17-30" transform="translate(45.690477 0) scale(0.996264)"/>
       <use xlink:href="#CMR17-30" transform="translate(91.380954 0) scale(0.996264)"/>
      </g>
     </g>
    </g>
    <g id="xtick_5">
     <g id="line2d_5">
      <g>
       <use xlink:href="#m1367098246" x="362.836364" y="320.4" style="stroke: #000000; stroke-width: 0.8"/>
      </g>
     </g>
     <g id="text_5">
      <!-- $\mathdefault{500}$ -->
      <g transform="translate(352.22783 337.431808) scale(0.145 -0.145)">
       <defs>
        <path id="CMR17-35" d="M 730 3692 
C 794 3666 1056 3584 1325 3584 
C 1920 3584 2246 3911 2432 4100 
C 2432 4157 2432 4192 2394 4192 
C 2387 4192 2374 4192 2323 4163 
C 2099 4058 1837 3973 1517 3973 
C 1325 3973 1037 3999 723 4139 
C 653 4171 640 4171 634 4171 
C 602 4171 595 4164 595 4037 
L 595 2203 
C 595 2089 595 2057 659 2057 
C 691 2057 704 2070 736 2114 
C 941 2401 1222 2522 1542 2522 
C 1766 2522 2246 2382 2246 1289 
C 2246 1085 2246 715 2054 421 
C 1894 159 1645 25 1370 25 
C 947 25 518 320 403 814 
C 429 807 480 795 506 795 
C 589 795 749 840 749 1038 
C 749 1210 627 1280 506 1280 
C 358 1280 262 1190 262 1011 
C 262 454 704 -128 1382 -128 
C 2042 -128 2669 440 2669 1264 
C 2669 2030 2170 2624 1549 2624 
C 1222 2624 947 2503 730 2274 
L 730 3692 
z
" transform="scale(0.015625)"/>
       </defs>
       <use xlink:href="#CMR17-35" transform="scale(0.996264)"/>
       <use xlink:href="#CMR17-30" transform="translate(45.690477 0) scale(0.996264)"/>
       <use xlink:href="#CMR17-30" transform="translate(91.380954 0) scale(0.996264)"/>
      </g>
     </g>
    </g>
    <g id="xtick_6">
     <g id="line2d_6">
      <g>
       <use xlink:href="#m1367098246" x="424.323967" y="320.4" style="stroke: #000000; stroke-width: 0.8"/>
      </g>
     </g>
     <g id="text_6">
      <!-- $\mathdefault{600}$ -->
      <g transform="translate(413.715434 337.431808) scale(0.145 -0.145)">
       <defs>
        <path id="CMR17-36" d="M 678 2176 
C 678 3690 1395 4032 1811 4032 
C 1946 4032 2272 4009 2400 3776 
C 2298 3776 2106 3776 2106 3553 
C 2106 3381 2246 3323 2336 3323 
C 2394 3323 2566 3348 2566 3560 
C 2566 3954 2246 4179 1805 4179 
C 1043 4179 243 3390 243 1984 
C 243 253 966 -128 1478 -128 
C 2099 -128 2688 427 2688 1283 
C 2688 2081 2170 2662 1517 2662 
C 1126 2662 838 2407 678 1960 
L 678 2176 
z
M 1478 25 
C 691 25 691 1200 691 1436 
C 691 1896 909 2560 1504 2560 
C 1613 2560 1926 2560 2138 2120 
C 2253 1870 2253 1609 2253 1289 
C 2253 944 2253 690 2118 434 
C 1978 171 1773 25 1478 25 
z
" transform="scale(0.015625)"/>
       </defs>
       <use xlink:href="#CMR17-36" transform="scale(0.996264)"/>
       <use xlink:href="#CMR17-30" transform="translate(45.690477 0) scale(0.996264)"/>
       <use xlink:href="#CMR17-30" transform="translate(91.380954 0) scale(0.996264)"/>
      </g>
     </g>
    </g>
    <g id="xtick_7">
     <g id="line2d_7">
      <g>
       <use xlink:href="#m1367098246" x="485.81157" y="320.4" style="stroke: #000000; stroke-width: 0.8"/>
      </g>
     </g>
     <g id="text_7">
      <!-- $\mathdefault{700}$ -->
      <g transform="translate(475.203037 337.431808) scale(0.145 -0.145)">
       <defs>
        <path id="CMR17-37" d="M 2886 3941 
L 2886 4081 
L 1382 4081 
C 634 4081 621 4165 595 4288 
L 480 4288 
L 294 3094 
L 410 3094 
C 429 3215 474 3540 550 3661 
C 589 3712 1062 3712 1171 3712 
L 2579 3712 
L 1869 2661 
C 1395 1954 1069 999 1069 165 
C 1069 89 1069 -128 1299 -128 
C 1530 -128 1530 89 1530 171 
L 1530 465 
C 1530 1508 1709 2196 2003 2636 
L 2886 3941 
z
" transform="scale(0.015625)"/>
       </defs>
       <use xlink:href="#CMR17-37" transform="scale(0.996264)"/>
       <use xlink:href="#CMR17-30" transform="translate(45.690477 0) scale(0.996264)"/>
       <use xlink:href="#CMR17-30" transform="translate(91.380954 0) scale(0.996264)"/>
      </g>
     </g>
    </g>
    <g id="text_8">
     <!-- time (s) -->
     <g transform="translate(271.677317 355.075073) scale(0.145 -0.145)">
      <defs>
       <path id="CMSS17-74" d="M 1069 2368 
L 1901 2368 
L 1901 2737 
L 1069 2737 
L 1069 3520 
L 614 3520 
L 614 2737 
L 109 2737 
L 109 2368 
L 602 2368 
L 602 749 
C 602 384 685 -64 1107 -64 
C 1427 -64 1722 25 2003 172 
L 1901 548 
C 1747 414 1562 337 1363 337 
C 1082 337 1069 696 1069 856 
L 1069 2368 
z
" transform="scale(0.015625)"/>
       <path id="CMSS17-69" d="M 979 4183 
L 442 4183 
L 442 3648 
L 979 3648 
L 979 4183 
z
M 947 2739 
L 474 2739 
L 474 0 
L 947 0 
L 947 2739 
z
" transform="scale(0.015625)"/>
       <path id="CMSS17-6d" d="M 4288 1877 
C 4288 2308 4179 2816 3462 2816 
C 2982 2816 2694 2516 2566 2331 
C 2451 2670 2182 2816 1798 2816 
C 1363 2816 1088 2568 941 2389 
L 941 2758 
L 474 2758 
L 474 0 
L 960 0 
L 960 1559 
C 960 1939 1101 2428 1555 2428 
C 2138 2428 2138 2016 2138 1829 
L 2138 0 
L 2624 0 
L 2624 1559 
C 2624 1939 2765 2428 3219 2428 
C 3802 2428 3802 2016 3802 1829 
L 3802 0 
L 4288 0 
L 4288 1877 
z
" transform="scale(0.015625)"/>
       <path id="CMSS17-65" d="M 2502 1377 
C 2502 1590 2490 2003 2285 2345 
C 2061 2713 1696 2816 1421 2816 
C 755 2816 192 2188 192 1375 
C 192 582 774 -64 1510 -64 
C 1798 -64 2150 19 2470 248 
C 2470 274 2458 414 2451 420 
C 2451 433 2432 630 2432 656 
C 2125 407 1773 325 1517 325 
C 1107 325 666 667 646 1377 
L 2502 1377 
z
M 698 1728 
C 781 2084 1062 2421 1421 2421 
C 1517 2421 1965 2421 2080 1728 
L 698 1728 
z
" transform="scale(0.015625)"/>
       <path id="CMSS17-28" d="M 1613 4768 
C 1267 4417 474 3601 474 1588 
C 474 -433 1267 -1243 1613 -1600 
L 2003 -1600 
C 1216 -784 960 357 960 1581 
C 960 2798 1203 3946 2003 4768 
L 1613 4768 
z
" transform="scale(0.015625)"/>
       <path id="CMSS17-73" d="M 2061 2627 
C 1683 2807 1389 2807 1197 2807 
C 742 2807 198 2648 198 2003 
C 198 1359 902 1218 1094 1179 
C 1389 1122 1715 1058 1715 740 
C 1715 337 1254 337 1171 337 
C 915 337 563 407 243 638 
L 166 210 
C 531 0 883 -64 1178 -64 
C 1965 -64 2163 416 2163 781 
C 2163 1094 1984 1305 1862 1401 
C 1651 1568 1574 1587 1050 1696 
C 960 1709 646 1779 646 2066 
C 646 2432 1050 2432 1139 2432 
C 1555 2432 1811 2303 1984 2208 
L 2061 2627 
z
" transform="scale(0.015625)"/>
       <path id="CMSS17-29" d="M 723 -1600 
C 1069 -1249 1862 -433 1862 1581 
C 1862 3601 1069 4411 723 4768 
L 333 4768 
C 1120 3952 1376 2811 1376 1588 
C 1376 370 1133 -778 333 -1600 
L 723 -1600 
z
" transform="scale(0.015625)"/>
      </defs>
      <use xlink:href="#CMSS17-74" transform="scale(0.996264)"/>
      <use xlink:href="#CMSS17-69" transform="translate(33.831567 0) scale(0.996264)"/>
      <use xlink:href="#CMSS17-6d" transform="translate(56.01229 0) scale(0.996264)"/>
      <use xlink:href="#CMSS17-65" transform="translate(130.241544 0) scale(0.996264)"/>
      <use xlink:href="#CMSS17-28" transform="translate(203.109479 0) scale(0.996264)"/>
      <use xlink:href="#CMSS17-73" transform="translate(239.543393 0) scale(0.996264)"/>
      <use xlink:href="#CMSS17-29" transform="translate(275.456935 0) scale(0.996264)"/>
     </g>
    </g>
   </g>
   <g id="matplotlib.axis_2">
    <g id="ytick_1">
     <g id="line2d_8">
      <path d="M 72 320.4 
L 518.4 320.4 
" clip-path="url(#p35fd8a8f16)" style="fill: none; stroke-dasharray: 1.85,0.8; stroke-dashoffset: 0; stroke: #808080; stroke-width: 0.5"/>
     </g>
     <g id="line2d_9">
      <defs>
       <path id="m70cf35d3b0" d="M 0 0 
L -3.5 0 
" style="stroke: #000000; stroke-width: 0.8"/>
      </defs>
      <g>
       <use xlink:href="#m70cf35d3b0" x="72" y="320.4" style="stroke: #000000; stroke-width: 0.8"/>
      </g>
     </g>
     <g id="text_9">
      <!-- $\mathdefault{0.0}$ -->
      <g transform="translate(46.926206 325.415904) scale(0.145 -0.145)">
       <defs>
        <path id="CMMI12-3a" d="M 1178 307 
C 1178 492 1024 619 870 619 
C 685 619 557 466 557 313 
C 557 128 710 0 864 0 
C 1050 0 1178 153 1178 307 
z
" transform="scale(0.015625)"/>
       </defs>
       <use xlink:href="#CMR17-30" transform="scale(0.996264)"/>
       <use xlink:href="#CMMI12-3a" transform="translate(45.690477 0) scale(0.996264)"/>
       <use xlink:href="#CMR17-30" transform="translate(72.787654 0) scale(0.996264)"/>
      </g>
     </g>
    </g>
    <g id="ytick_2">
     <g id="line2d_10">
      <path d="M 72 267.6 
L 518.4 267.6 
" clip-path="url(#p35fd8a8f16)" style="fill: none; stroke-dasharray: 1.85,0.8; stroke-dashoffset: 0; stroke: #808080; stroke-width: 0.5"/>
     </g>
     <g id="line2d_11">
      <g>
       <use xlink:href="#m70cf35d3b0" x="72" y="267.6" style="stroke: #000000; stroke-width: 0.8"/>
      </g>
     </g>
     <g id="text_10">
      <!-- $\mathdefault{0.2}$ -->
      <g transform="translate(46.926206 272.615904) scale(0.145 -0.145)">
       <use xlink:href="#CMR17-30" transform="scale(0.996264)"/>
       <use xlink:href="#CMMI12-3a" transform="translate(45.690477 0) scale(0.996264)"/>
       <use xlink:href="#CMR17-32" transform="translate(72.787654 0) scale(0.996264)"/>
      </g>
     </g>
    </g>
    <g id="ytick_3">
     <g id="line2d_12">
      <path d="M 72 214.8 
L 518.4 214.8 
" clip-path="url(#p35fd8a8f16)" style="fill: none; stroke-dasharray: 1.85,0.8; stroke-dashoffset: 0; stroke: #808080; stroke-width: 0.5"/>
     </g>
     <g id="line2d_13">
      <g>
       <use xlink:href="#m70cf35d3b0" x="72" y="214.8" style="stroke: #000000; stroke-width: 0.8"/>
      </g>
     </g>
     <g id="text_11">
      <!-- $\mathdefault{0.4}$ -->
      <g transform="translate(46.926206 219.815904) scale(0.145 -0.145)">
       <use xlink:href="#CMR17-30" transform="scale(0.996264)"/>
       <use xlink:href="#CMMI12-3a" transform="translate(45.690477 0) scale(0.996264)"/>
       <use xlink:href="#CMR17-34" transform="translate(72.787654 0) scale(0.996264)"/>
      </g>
     </g>
    </g>
    <g id="ytick_4">
     <g id="line2d_14">
      <path d="M 72 162 
L 518.4 162 
" clip-path="url(#p35fd8a8f16)" style="fill: none; stroke-dasharray: 1.85,0.8; stroke-dashoffset: 0; stroke: #808080; stroke-width: 0.5"/>
     </g>
     <g id="line2d_15">
      <g>
       <use xlink:href="#m70cf35d3b0" x="72" y="162" style="stroke: #000000; stroke-width: 0.8"/>
      </g>
     </g>
     <g id="text_12">
      <!-- $\mathdefault{0.6}$ -->
      <g transform="translate(46.926206 167.015904) scale(0.145 -0.145)">
       <use xlink:href="#CMR17-30" transform="scale(0.996264)"/>
       <use xlink:href="#CMMI12-3a" transform="translate(45.690477 0) scale(0.996264)"/>
       <use xlink:href="#CMR17-36" transform="translate(72.787654 0) scale(0.996264)"/>
      </g>
     </g>
    </g>
    <g id="ytick_5">
     <g id="line2d_16">
      <path d="M 72 109.2 
L 518.4 109.2 
" clip-path="url(#p35fd8a8f16)" style="fill: none; stroke-dasharray: 1.85,0.8; stroke-dashoffset: 0; stroke: #808080; stroke-width: 0.5"/>
     </g>
     <g id="line2d_17">
      <g>
       <use xlink:href="#m70cf35d3b0" x="72" y="109.2" style="stroke: #000000; stroke-width: 0.8"/>
      </g>
     </g>
     <g id="text_13">
      <!-- $\mathdefault{0.8}$ -->
      <g transform="translate(46.926206 114.215904) scale(0.145 -0.145)">
       <defs>
        <path id="CMR17-38" d="M 1741 2264 
C 2144 2467 2554 2773 2554 3263 
C 2554 3841 1990 4179 1472 4179 
C 890 4179 378 3759 378 3180 
C 378 3021 416 2747 666 2505 
C 730 2442 998 2251 1171 2130 
C 883 1983 211 1634 211 934 
C 211 279 838 -128 1459 -128 
C 2144 -128 2720 362 2720 1010 
C 2720 1590 2330 1857 2074 2029 
L 1741 2264 
z
M 902 2822 
C 851 2854 595 3051 595 3351 
C 595 3739 998 4032 1459 4032 
C 1965 4032 2336 3676 2336 3262 
C 2336 2669 1670 2331 1638 2331 
C 1632 2331 1626 2331 1574 2370 
L 902 2822 
z
M 2080 1519 
C 2176 1449 2483 1240 2483 851 
C 2483 381 2010 25 1472 25 
C 890 25 448 438 448 940 
C 448 1443 838 1862 1280 2060 
L 2080 1519 
z
" transform="scale(0.015625)"/>
       </defs>
       <use xlink:href="#CMR17-30" transform="scale(0.996264)"/>
       <use xlink:href="#CMMI12-3a" transform="translate(45.690477 0) scale(0.996264)"/>
       <use xlink:href="#CMR17-38" transform="translate(72.787654 0) scale(0.996264)"/>
      </g>
     </g>
    </g>
    <g id="ytick_6">
     <g id="line2d_18">
      <path d="M 72 56.4 
L 518.4 56.4 
" clip-path="url(#p35fd8a8f16)" style="fill: none; stroke-dasharray: 1.85,0.8; stroke-dashoffset: 0; stroke: #808080; stroke-width: 0.5"/>
     </g>
     <g id="line2d_19">
      <g>
       <use xlink:href="#m70cf35d3b0" x="72" y="56.4" style="stroke: #000000; stroke-width: 0.8"/>
      </g>
     </g>
     <g id="text_14">
      <!-- $\mathdefault{1.0}$ -->
      <g transform="translate(46.926206 61.415904) scale(0.145 -0.145)">
       <use xlink:href="#CMR17-31" transform="scale(0.996264)"/>
       <use xlink:href="#CMMI12-3a" transform="translate(45.690477 0) scale(0.996264)"/>
       <use xlink:href="#CMR17-30" transform="translate(72.787654 0) scale(0.996264)"/>
      </g>
     </g>
    </g>
    <g id="text_15">
     <!-- QoS -->
     <g transform="translate(40.117312 194.481753) rotate(-90) scale(0.145 -0.145)">
      <defs>
       <path id="CMSS17-51" d="M 3200 202 
C 3981 833 4096 1689 4096 2174 
C 4096 3501 3219 4497 2214 4497 
C 1210 4497 333 3497 333 2178 
C 333 847 1222 -128 2214 -128 
C 2438 -128 2630 -77 2765 -26 
L 3302 -832 
L 3930 -832 
L 3200 202 
z
M 2528 324 
C 2438 293 2330 273 2214 273 
C 1523 273 858 993 858 2178 
C 858 3357 1517 4096 2214 4096 
C 2918 4096 3571 3350 3571 2178 
C 3571 1771 3507 1089 2950 566 
L 2490 1210 
L 1939 1210 
L 2528 324 
z
" transform="scale(0.015625)"/>
       <path id="CMSS17-6f" d="M 2829 1356 
C 2829 2176 2221 2816 1504 2816 
C 768 2816 173 2157 173 1356 
C 173 544 787 -64 1498 -64 
C 2227 -64 2829 563 2829 1356 
z
M 1504 337 
C 1050 337 659 709 659 1408 
C 659 2151 1114 2427 1498 2427 
C 1914 2427 2342 2126 2342 1408 
C 2342 683 1926 337 1504 337 
z
" transform="scale(0.015625)"/>
       <path id="CMSS17-53" d="M 2797 4169 
C 2515 4334 2208 4480 1690 4480 
C 864 4480 333 3879 333 3266 
C 333 3025 403 2753 653 2475 
C 902 2196 1184 2121 1542 2033 
C 1690 1994 1939 1924 1984 1906 
C 2342 1767 2515 1444 2515 1140 
C 2515 742 2202 318 1645 318 
C 1453 318 890 318 358 819 
L 269 318 
C 794 -64 1363 -128 1651 -128 
C 2438 -128 3002 488 3002 1186 
C 3002 1440 2925 1763 2656 2061 
C 2394 2347 2163 2410 1638 2549 
C 1338 2626 1146 2677 986 2873 
C 877 3013 819 3146 819 3317 
C 819 3673 1126 4060 1690 4060 
C 1971 4060 2336 4002 2707 3660 
L 2797 4169 
z
" transform="scale(0.015625)"/>
      </defs>
      <use xlink:href="#CMSS17-51" transform="scale(0.996264)"/>
      <use xlink:href="#CMSS17-6f" transform="translate(69.024255 0) scale(0.996264)"/>
      <use xlink:href="#CMSS17-53" transform="translate(115.867879 0) scale(0.996264)"/>
     </g>
    </g>
   </g>
   <g id="line2d_20">
    <path d="M 92.290909 304.559947 
L 119.420815 304.559947 
L 120.551228 308.450515 
L 125.072879 308.450515 
L 126.203292 308.728428 
L 180.463105 308.728428 
L 181.593517 310.11786 
L 187.245581 310.11786 
L 188.375994 310.395773 
L 242.635807 310.395773 
L 243.766219 310.673686 
L 248.28787 310.673686 
L 249.418283 312.34103 
L 255.070347 312.34103 
L 256.20076 312.618917 
L 310.460572 312.618917 
L 311.590985 312.063144 
L 316.112636 312.063144 
L 317.243049 310.951572 
L 371.502861 310.951572 
L 372.633274 309.562061 
L 377.154925 309.562061 
L 378.285338 309.84 
L 383.937402 309.84 
L 385.067815 309.006288 
L 432.545151 309.006288 
L 433.675563 308.450462 
L 439.327627 308.450462 
L 440.45804 307.33897 
L 444.979691 307.33897 
L 446.110104 307.061083 
L 498.109091 307.061083 
L 498.109091 307.061083 
" clip-path="url(#p35fd8a8f16)" style="fill: none; stroke: #482475; stroke-width: 2.5; stroke-linecap: square"/>
   </g>
   <g id="line2d_21">
    <path d="M 92.290909 297.334769 
L 119.420815 297.334769 
L 120.551228 300.947318 
L 125.072879 300.947318 
L 126.203292 302.058864 
L 137.50742 302.058864 
L 138.637832 302.336777 
L 180.463105 302.336777 
L 181.593517 305.393659 
L 242.635807 305.393633 
L 243.766219 306.227345 
L 248.28787 306.227345 
L 249.418283 310.395826 
L 255.070347 310.395826 
L 256.20076 309.840053 
L 310.460572 309.840053 
L 311.590985 306.227292 
L 316.112636 306.227292 
L 317.243049 305.671519 
L 321.7647 305.671519 
L 322.895113 305.393633 
L 371.502861 305.393633 
L 372.633274 303.170489 
L 377.154925 303.170489 
L 378.285338 302.05889 
L 383.937402 302.05889 
L 385.067815 302.336777 
L 432.545151 302.336777 
L 433.675563 302.058996 
L 439.327627 302.058996 
L 440.45804 297.612682 
L 444.979691 297.612682 
L 446.110104 297.334769 
L 451.762168 297.334769 
L 452.89258 297.612655 
L 457.414231 297.612655 
L 458.544644 297.334769 
L 498.109091 297.334769 
L 498.109091 297.334769 
" clip-path="url(#p35fd8a8f16)" style="fill: none; stroke: #bddf26; stroke-width: 2.5; stroke-linecap: square"/>
   </g>
   <g id="patch_3">
    <path d="M 72 320.4 
L 72 43.2 
" style="fill: none; stroke: #000000; stroke-width: 0.8; stroke-linejoin: miter; stroke-linecap: square"/>
   </g>
   <g id="patch_4">
    <path d="M 518.4 320.4 
L 518.4 43.2 
" style="fill: none; stroke: #000000; stroke-width: 0.8; stroke-linejoin: miter; stroke-linecap: square"/>
   </g>
   <g id="patch_5">
    <path d="M 72 320.4 
L 518.4 320.4 
" style="fill: none; stroke: #000000; stroke-width: 0.8; stroke-linejoin: miter; stroke-linecap: square"/>
   </g>
   <g id="text_16">
    <!-- $nt=Barabsi$ $d=100$ $oc=10\%$ $l=costant$ -->
    <g transform="translate(130.029518 37.2) scale(0.18 -0.18)">
     <defs>
      <path id="CMMI12-6e" d="M 1318 1871 
C 1331 1910 1491 2229 1728 2433 
C 1894 2586 2112 2689 2362 2689 
C 2618 2689 2707 2497 2707 2242 
C 2707 1878 2445 1150 2317 805 
C 2259 651 2227 568 2227 453 
C 2227 166 2426 -64 2733 -64 
C 3328 -64 3552 875 3552 913 
C 3552 945 3526 971 3488 971 
C 3430 971 3424 952 3392 843 
C 3245 319 3002 64 2752 64 
C 2688 64 2586 64 2586 269 
C 2586 429 2656 621 2694 710 
C 2822 1063 3091 1780 3091 2145 
C 3091 2528 2867 2816 2381 2816 
C 1811 2816 1510 2415 1395 2255 
C 1376 2618 1114 2816 832 2816 
C 627 2816 486 2695 378 2478 
C 262 2248 173 1865 173 1839 
C 173 1814 198 1782 243 1782 
C 294 1782 301 1788 339 1935 
C 442 2325 557 2689 813 2689 
C 960 2689 1011 2586 1011 2395 
C 1011 2254 947 2005 902 1807 
L 723 1118 
C 698 996 627 709 595 594 
C 550 428 480 128 480 96 
C 480 6 550 -64 646 -64 
C 723 -64 813 -26 864 70 
C 877 102 934 326 966 453 
L 1107 1028 
L 1318 1871 
z
" transform="scale(0.015625)"/>
      <path id="CMMI12-74" d="M 1286 2566 
L 1875 2566 
C 1997 2566 2061 2566 2061 2681 
C 2061 2752 2022 2752 1894 2752 
L 1331 2752 
L 1568 3692 
C 1594 3781 1594 3794 1594 3840 
C 1594 3943 1510 4000 1427 4000 
C 1376 4000 1229 3981 1178 3775 
L 928 2752 
L 326 2752 
C 198 2752 141 2752 141 2630 
C 141 2566 186 2566 307 2566 
L 877 2566 
L 454 881 
C 403 658 384 594 384 511 
C 384 211 595 -64 954 -64 
C 1600 -64 1946 868 1946 912 
C 1946 951 1920 970 1882 970 
C 1869 970 1843 970 1830 944 
C 1824 938 1818 931 1773 829 
C 1638 511 1344 64 973 64 
C 781 64 768 224 768 364 
C 768 370 768 492 787 568 
L 1286 2566 
z
" transform="scale(0.015625)"/>
      <path id="CMR17-3d" d="M 4115 2017 
C 4211 2017 4307 2017 4307 2125 
C 4307 2240 4198 2240 4090 2240 
L 512 2240 
C 403 2240 294 2240 294 2125 
C 294 2017 390 2017 486 2017 
L 4115 2017 
z
M 4090 896 
C 4198 896 4307 896 4307 1011 
C 4307 1119 4211 1119 4115 1119 
L 486 1119 
C 390 1119 294 1119 294 1011 
C 294 896 403 896 512 896 
L 4090 896 
z
" transform="scale(0.015625)"/>
      <path id="CMMI12-42" d="M 2342 3921 
C 2400 4160 2426 4160 2675 4160 
L 3507 4160 
C 4230 4160 4230 3544 4230 3485 
C 4230 2966 3712 2304 2867 2304 
L 1946 2304 
L 2342 3921 
z
M 3424 2275 
C 4122 2402 4755 2886 4755 3473 
C 4755 3970 4314 4352 3590 4352 
L 1536 4352 
C 1414 4352 1357 4352 1357 4226 
C 1357 4160 1414 4160 1510 4160 
C 1901 4160 1901 4112 1901 4044 
C 1901 4032 1901 3993 1875 3897 
L 1011 472 
C 954 249 941 185 493 185 
C 371 185 307 185 307 70 
C 307 0 346 0 474 0 
L 2669 0 
C 3648 0 4403 739 4403 1383 
C 4403 1906 3942 2224 3424 2275 
z
M 2515 185 
L 1651 185 
C 1562 185 1549 185 1510 192 
C 1440 198 1434 211 1434 261 
C 1434 305 1446 343 1459 399 
L 1907 2176 
L 3110 2176 
C 3866 2176 3866 1483 3866 1433 
C 3866 828 3309 185 2515 185 
z
" transform="scale(0.015625)"/>
      <path id="CMMI12-61" d="M 1926 760 
C 1894 651 1894 639 1805 517 
C 1664 338 1382 64 1082 64 
C 819 64 672 300 672 677 
C 672 1028 870 1743 992 2012 
C 1210 2459 1510 2689 1760 2689 
C 2182 2689 2266 2165 2266 2114 
C 2266 2108 2246 2024 2240 2012 
L 1926 760 
z
M 2336 2395 
C 2266 2561 2093 2816 1760 2816 
C 1037 2816 256 1884 256 939 
C 256 307 627 -64 1062 -64 
C 1414 -64 1715 211 1894 422 
C 1958 45 2259 -64 2451 -64 
C 2643 -64 2797 51 2912 281 
C 3014 498 3104 888 3104 913 
C 3104 945 3078 971 3040 971 
C 2982 971 2976 939 2950 843 
C 2854 466 2733 64 2470 64 
C 2285 64 2272 230 2272 358 
C 2272 505 2291 575 2349 824 
C 2394 984 2426 1124 2477 1309 
C 2714 2267 2771 2497 2771 2535 
C 2771 2625 2701 2695 2605 2695 
C 2400 2695 2349 2472 2336 2395 
z
" transform="scale(0.015625)"/>
      <path id="CMMI12-72" d="M 2490 2612 
C 2291 2574 2189 2433 2189 2293 
C 2189 2139 2310 2088 2400 2088 
C 2579 2088 2726 2242 2726 2433 
C 2726 2638 2528 2816 2208 2816 
C 1952 2816 1658 2701 1389 2312 
C 1344 2650 1088 2816 832 2816 
C 582 2816 454 2625 378 2484 
C 269 2254 173 1871 173 1839 
C 173 1814 198 1782 243 1782 
C 294 1782 301 1788 339 1935 
C 435 2318 557 2689 813 2689 
C 966 2689 1011 2580 1011 2395 
C 1011 2254 947 2005 902 1807 
L 723 1118 
C 698 996 627 709 595 594 
C 550 428 480 128 480 96 
C 480 6 550 -64 646 -64 
C 717 -64 838 -19 877 109 
C 896 160 1133 1124 1171 1271 
C 1203 1411 1242 1546 1274 1686 
C 1299 1775 1325 1878 1344 1961 
C 1363 2018 1536 2331 1696 2472 
C 1773 2542 1939 2689 2202 2689 
C 2304 2689 2406 2670 2490 2612 
z
" transform="scale(0.015625)"/>
      <path id="CMMI12-62" d="M 1478 4257 
C 1485 4283 1498 4321 1498 4352 
C 1498 4416 1434 4416 1421 4416 
C 1414 4416 1184 4393 1069 4377 
C 960 4377 864 4358 749 4358 
C 595 4345 550 4339 550 4224 
C 550 4160 614 4160 678 4160 
C 1005 4160 1005 4103 1005 4040 
C 1005 3996 954 3811 928 3696 
L 774 3085 
C 710 2831 346 1387 320 1272 
C 288 1114 288 1005 288 922 
C 288 274 653 -64 1069 -64 
C 1811 -64 2579 888 2579 1814 
C 2579 2401 2246 2816 1766 2816 
C 1434 2816 1133 2542 1011 2414 
L 1478 4257 
z
M 1075 64 
C 870 64 646 217 646 715 
C 646 926 666 1047 781 1494 
C 800 1577 902 1986 928 2069 
C 941 2120 1318 2689 1754 2689 
C 2035 2689 2163 2408 2163 2076 
C 2163 1769 1984 1047 1824 715 
C 1664 370 1370 64 1075 64 
z
" transform="scale(0.015625)"/>
      <path id="CMMI12-73" d="M 1459 1280 
C 1568 1261 1741 1223 1779 1216 
C 1862 1192 2150 1090 2150 783 
C 2150 586 1971 70 1229 70 
C 1094 70 614 70 486 436 
C 742 404 870 603 870 745 
C 870 880 781 950 653 950 
C 512 950 326 841 326 552 
C 326 173 710 -64 1222 -64 
C 2195 -64 2483 651 2483 984 
C 2483 1079 2483 1258 2278 1462 
C 2118 1616 1965 1648 1619 1718 
C 1446 1756 1171 1814 1171 2101 
C 1171 2229 1286 2689 1894 2689 
C 2163 2689 2426 2589 2490 2368 
C 2208 2368 2195 2125 2195 2119 
C 2195 1984 2317 1946 2374 1946 
C 2464 1946 2643 2015 2643 2281 
C 2643 2545 2400 2816 1901 2816 
C 1062 2816 838 2160 838 1899 
C 838 1414 1312 1312 1459 1280 
z
" transform="scale(0.015625)"/>
      <path id="CMMI12-69" d="M 1811 913 
C 1811 945 1786 971 1747 971 
C 1690 971 1683 952 1651 843 
C 1485 262 1222 64 1011 64 
C 934 64 845 83 845 275 
C 845 447 922 639 992 830 
L 1440 2018 
C 1459 2069 1504 2184 1504 2305 
C 1504 2574 1312 2816 998 2816 
C 410 2816 173 1890 173 1839 
C 173 1814 198 1782 243 1782 
C 301 1782 307 1807 333 1896 
C 486 2428 730 2682 979 2682 
C 1037 2682 1146 2682 1146 2478 
C 1146 2312 1062 2101 1011 1961 
L 563 773 
C 525 671 486 568 486 453 
C 486 166 685 -64 992 -64 
C 1581 -64 1811 869 1811 913 
z
M 1760 4013 
C 1760 4109 1683 4224 1542 4224 
C 1395 4224 1229 4083 1229 3917 
C 1229 3758 1363 3707 1440 3707 
C 1613 3707 1760 3873 1760 4013 
z
" transform="scale(0.015625)"/>
      <path id="CMMI12-64" d="M 3219 4257 
C 3226 4282 3238 4320 3238 4352 
C 3238 4416 3174 4416 3162 4416 
C 3155 4416 2842 4388 2810 4380 
C 2701 4373 2605 4358 2490 4358 
C 2330 4345 2285 4339 2285 4224 
C 2285 4160 2336 4160 2426 4160 
C 2739 4160 2746 4103 2746 4040 
C 2746 4002 2733 3952 2726 3933 
L 2336 2395 
C 2266 2561 2093 2816 1760 2816 
C 1037 2816 256 1884 256 939 
C 256 307 627 -64 1062 -64 
C 1414 -64 1715 211 1894 422 
C 1958 45 2259 -64 2451 -64 
C 2643 -64 2797 51 2912 281 
C 3014 498 3104 888 3104 913 
C 3104 945 3078 971 3040 971 
C 2982 971 2976 939 2950 843 
C 2854 466 2733 64 2470 64 
C 2285 64 2272 229 2272 357 
C 2272 382 2272 515 2317 694 
L 3219 4257 
z
M 1926 760 
C 1894 651 1894 639 1805 517 
C 1664 338 1382 64 1082 64 
C 819 64 672 300 672 677 
C 672 1028 870 1743 992 2012 
C 1210 2459 1510 2689 1760 2689 
C 2182 2689 2266 2165 2266 2114 
C 2266 2108 2246 2024 2240 2012 
L 1926 760 
z
" transform="scale(0.015625)"/>
      <path id="CMMI12-6f" d="M 2918 1756 
C 2918 2363 2522 2816 1939 2816 
C 1094 2816 262 1897 262 996 
C 262 390 659 -64 1242 -64 
C 2093 -64 2918 856 2918 1756 
z
M 1248 64 
C 928 64 691 319 691 766 
C 691 1060 845 1712 1024 2031 
C 1312 2523 1670 2689 1933 2689 
C 2246 2689 2490 2433 2490 1986 
C 2490 1731 2355 1047 2112 658 
C 1850 230 1498 64 1248 64 
z
" transform="scale(0.015625)"/>
      <path id="CMMI12-63" d="M 2502 2431 
C 2381 2431 2323 2431 2234 2355 
C 2195 2323 2125 2227 2125 2125 
C 2125 1997 2221 1920 2342 1920 
C 2496 1920 2669 2044 2669 2292 
C 2669 2588 2374 2816 1933 2816 
C 1094 2816 256 1903 256 996 
C 256 441 602 -64 1254 -64 
C 2125 -64 2675 622 2675 706 
C 2675 744 2637 776 2611 776 
C 2592 776 2586 770 2528 713 
C 2118 162 1510 64 1267 64 
C 826 64 685 446 685 764 
C 685 988 794 1605 1024 2039 
C 1190 2338 1536 2682 1939 2682 
C 2022 2682 2374 2682 2502 2431 
z
" transform="scale(0.015625)"/>
      <path id="CMR17-25" d="M 4640 959 
C 4640 1698 4275 2240 3846 2240 
C 3411 2240 2970 1736 2970 959 
C 2970 183 3405 -320 3846 -320 
C 4275 -320 4640 215 4640 959 
z
M 3853 -218 
C 3686 -218 3270 -66 3270 959 
C 3270 1991 3686 2138 3853 2138 
C 4205 2138 4525 1634 4525 959 
C 4525 285 4205 -218 3853 -218 
z
M 4083 4577 
C 4128 4647 4134 4653 4134 4685 
C 4134 4761 4077 4800 4026 4800 
C 3962 4800 3936 4756 3891 4706 
C 3520 4190 3008 4134 2746 4134 
C 2106 4134 1715 4494 1594 4607 
C 1510 4682 1389 4800 1171 4800 
C 736 4800 294 4296 294 3519 
C 294 2743 730 2240 1171 2240 
C 1600 2240 1965 2778 1965 3527 
C 1965 3969 1830 4270 1811 4308 
C 2202 4064 2586 4032 2752 4032 
C 3162 4032 3456 4183 3616 4289 
L 3622 4283 
L 858 -84 
C 800 -174 800 -187 800 -206 
C 800 -276 858 -320 915 -320 
C 973 -320 992 -289 1037 -218 
L 4083 4577 
z
M 1178 2342 
C 1011 2342 595 2494 595 3519 
C 595 4551 1011 4698 1178 4698 
C 1530 4698 1850 4194 1850 3519 
C 1850 2845 1530 2342 1178 2342 
z
" transform="scale(0.015625)"/>
      <path id="CMMI12-6c" d="M 1626 4257 
C 1632 4282 1645 4320 1645 4352 
C 1645 4416 1581 4416 1568 4416 
C 1562 4416 1331 4393 1216 4377 
C 1107 4377 1011 4358 896 4358 
C 742 4345 698 4339 698 4224 
C 698 4160 762 4160 826 4160 
C 1152 4160 1152 4102 1152 4039 
C 1152 4014 1152 4001 1120 3887 
L 326 731 
C 307 661 294 610 294 509 
C 294 191 531 -64 858 -64 
C 1069 -64 1210 76 1312 274 
C 1421 483 1510 884 1510 909 
C 1510 941 1485 967 1446 967 
C 1389 967 1382 935 1357 840 
C 1242 401 1126 64 870 64 
C 678 64 678 267 678 357 
C 678 382 678 515 723 694 
L 1626 4257 
z
" transform="scale(0.015625)"/>
     </defs>
     <use xlink:href="#CMMI12-6e" transform="scale(0.996264)"/>
     <use xlink:href="#CMMI12-74" transform="translate(58.230047 0) scale(0.996264)"/>
     <use xlink:href="#CMR17-3d" transform="translate(121.130386 0) scale(0.996264)"/>
     <use xlink:href="#CMMI12-42" transform="translate(220.519183 0) scale(0.996264)"/>
     <use xlink:href="#CMMI12-61" transform="translate(299.654707 0) scale(0.996264)"/>
     <use xlink:href="#CMMI12-72" transform="translate(350.862564 0) scale(0.996264)"/>
     <use xlink:href="#CMMI12-61" transform="translate(397.533176 0) scale(0.996264)"/>
     <use xlink:href="#CMMI12-62" transform="translate(448.741034 0) scale(0.996264)"/>
     <use xlink:href="#CMMI12-73" transform="translate(490.216908 0) scale(0.996264)"/>
     <use xlink:href="#CMMI12-69" transform="translate(536.166956 0) scale(0.996264)"/>
     <use xlink:href="#CMMI12-64" transform="translate(600.67467 0) scale(0.996264)"/>
     <use xlink:href="#CMR17-3d" transform="translate(679.037776 0) scale(0.996264)"/>
     <use xlink:href="#CMR17-31" transform="translate(778.426573 0) scale(0.996264)"/>
     <use xlink:href="#CMR17-30" transform="translate(824.11705 0) scale(0.996264)"/>
     <use xlink:href="#CMR17-30" transform="translate(869.807527 0) scale(0.996264)"/>
     <use xlink:href="#CMMI12-6f" transform="translate(946.727117 0) scale(0.996264)"/>
     <use xlink:href="#CMMI12-63" transform="translate(993.622427 0) scale(0.996264)"/>
     <use xlink:href="#CMR17-3d" transform="translate(1063.279669 0) scale(0.996264)"/>
     <use xlink:href="#CMR17-31" transform="translate(1162.668466 0) scale(0.996264)"/>
     <use xlink:href="#CMR17-30" transform="translate(1208.358943 0) scale(0.996264)"/>
     <use xlink:href="#CMR17-25" transform="translate(1254.04942 0) scale(0.996264)"/>
     <use xlink:href="#CMMI12-6c" transform="translate(1362.198123 0) scale(0.996264)"/>
     <use xlink:href="#CMR17-3d" transform="translate(1421.120536 0) scale(0.996264)"/>
     <use xlink:href="#CMMI12-63" transform="translate(1520.509333 0) scale(0.996264)"/>
     <use xlink:href="#CMMI12-6f" transform="translate(1562.492566 0) scale(0.996264)"/>
     <use xlink:href="#CMMI12-73" transform="translate(1609.387876 0) scale(0.996264)"/>
     <use xlink:href="#CMMI12-74" transform="translate(1655.337923 0) scale(0.996264)"/>
     <use xlink:href="#CMMI12-61" transform="translate(1690.564254 0) scale(0.996264)"/>
     <use xlink:href="#CMMI12-6e" transform="translate(1741.772111 0) scale(0.996264)"/>
     <use xlink:href="#CMMI12-74" transform="translate(1800.002159 0) scale(0.996264)"/>
    </g>
   </g>
  </g>
  <g id="axes_2">
   <g id="matplotlib.axis_3">
    <g id="ytick_7">
     <g id="line2d_22">
      <defs>
       <path id="mf19a57af1a" d="M 0 0 
L 3.5 0 
" style="stroke: #000000; stroke-width: 0.8"/>
      </defs>
      <g>
       <use xlink:href="#mf19a57af1a" x="518.4" y="320.4" style="stroke: #000000; stroke-width: 0.8"/>
      </g>
     </g>
     <g id="text_17">
      <!-- $\mathdefault{0}$ -->
      <g transform="translate(525.4 325.415904) scale(0.145 -0.145)">
       <use xlink:href="#CMR17-30" transform="scale(0.996264)"/>
      </g>
     </g>
    </g>
    <g id="ytick_8">
     <g id="line2d_23">
      <g>
       <use xlink:href="#mf19a57af1a" x="518.4" y="264.987706" style="stroke: #000000; stroke-width: 0.8"/>
      </g>
     </g>
     <g id="text_18">
      <!-- $\mathdefault{20}$ -->
      <g transform="translate(525.4 270.00361) scale(0.145 -0.145)">
       <use xlink:href="#CMR17-32" transform="scale(0.996264)"/>
       <use xlink:href="#CMR17-30" transform="translate(45.690477 0) scale(0.996264)"/>
      </g>
     </g>
    </g>
    <g id="ytick_9">
     <g id="line2d_24">
      <g>
       <use xlink:href="#mf19a57af1a" x="518.4" y="209.575412" style="stroke: #000000; stroke-width: 0.8"/>
      </g>
     </g>
     <g id="text_19">
      <!-- $\mathdefault{40}$ -->
      <g transform="translate(525.4 214.591316) scale(0.145 -0.145)">
       <use xlink:href="#CMR17-34" transform="scale(0.996264)"/>
       <use xlink:href="#CMR17-30" transform="translate(45.690477 0) scale(0.996264)"/>
      </g>
     </g>
    </g>
    <g id="ytick_10">
     <g id="line2d_25">
      <g>
       <use xlink:href="#mf19a57af1a" x="518.4" y="154.163118" style="stroke: #000000; stroke-width: 0.8"/>
      </g>
     </g>
     <g id="text_20">
      <!-- $\mathdefault{60}$ -->
      <g transform="translate(525.4 159.179023) scale(0.145 -0.145)">
       <use xlink:href="#CMR17-36" transform="scale(0.996264)"/>
       <use xlink:href="#CMR17-30" transform="translate(45.690477 0) scale(0.996264)"/>
      </g>
     </g>
    </g>
    <g id="ytick_11">
     <g id="line2d_26">
      <g>
       <use xlink:href="#mf19a57af1a" x="518.4" y="98.750825" style="stroke: #000000; stroke-width: 0.8"/>
      </g>
     </g>
     <g id="text_21">
      <!-- $\mathdefault{80}$ -->
      <g transform="translate(525.4 103.766729) scale(0.145 -0.145)">
       <use xlink:href="#CMR17-38" transform="scale(0.996264)"/>
       <use xlink:href="#CMR17-30" transform="translate(45.690477 0) scale(0.996264)"/>
      </g>
     </g>
    </g>
    <g id="ytick_12">
     <g id="line2d_27">
      <g>
       <use xlink:href="#mf19a57af1a" x="518.4" y="43.338531" style="stroke: #000000; stroke-width: 0.8"/>
      </g>
     </g>
     <g id="text_22">
      <!-- $\mathdefault{100}$ -->
      <g transform="translate(525.4 48.354435) scale(0.145 -0.145)">
       <use xlink:href="#CMR17-31" transform="scale(0.996264)"/>
       <use xlink:href="#CMR17-30" transform="translate(45.690477 0) scale(0.996264)"/>
       <use xlink:href="#CMR17-30" transform="translate(91.380954 0) scale(0.996264)"/>
      </g>
     </g>
    </g>
    <g id="text_23">
     <!-- CPU load in \% -->
     <g transform="translate(560.648875 226.102524) rotate(-90) scale(0.145 -0.145)">
      <defs>
       <path id="CMSS17-43" d="M 3501 714 
C 3072 427 2874 344 2355 344 
C 1459 344 934 1303 934 2179 
C 934 3112 1472 4032 2381 4032 
C 2790 4032 3059 3918 3386 3715 
L 3475 4217 
C 3168 4370 2778 4440 2387 4440 
C 1158 4440 397 3316 397 2179 
C 397 927 1299 -64 2323 -64 
C 2874 -64 3066 -19 3539 280 
L 3501 714 
z
" transform="scale(0.015625)"/>
       <path id="CMSS17-50" d="M 2106 1856 
C 2874 1856 3501 2453 3501 3158 
C 3501 3850 2899 4453 2067 4453 
L 570 4453 
L 570 0 
L 1107 0 
L 1107 1856 
L 2106 1856 
z
M 1926 4096 
C 2669 4096 2995 3627 2995 3157 
C 2995 2720 2694 2226 1926 2226 
L 1094 2226 
L 1094 4096 
L 1926 4096 
z
" transform="scale(0.015625)"/>
       <path id="CMSS17-55" d="M 3552 4384 
L 3066 4384 
L 3066 1449 
C 3066 604 2547 229 2074 229 
C 1587 229 1101 623 1101 1443 
L 1101 4384 
L 563 4384 
L 563 1454 
C 563 539 1274 -128 2067 -128 
C 2861 -128 3552 539 3552 1454 
L 3552 4384 
z
" transform="scale(0.015625)"/>
       <path id="CMSS17-6c" d="M 947 4416 
L 474 4416 
L 474 0 
L 947 0 
L 947 4416 
z
" transform="scale(0.015625)"/>
       <path id="CMSS17-61" d="M 2406 1791 
C 2406 2392 1978 2808 1402 2808 
C 1120 2808 813 2757 461 2553 
L 499 2135 
C 659 2248 934 2432 1395 2432 
C 1722 2432 1920 2180 1920 1782 
L 1920 1536 
C 896 1536 256 1238 256 726 
C 256 461 416 -64 947 -64 
C 1043 -64 1562 -64 1933 217 
L 1933 -19 
L 2406 -19 
L 2406 1791 
z
M 1920 816 
C 1920 701 1920 548 1728 434 
C 1562 325 1350 325 1261 325 
C 941 325 723 511 723 744 
C 723 1211 1722 1211 1920 1211 
L 1920 816 
z
" transform="scale(0.015625)"/>
       <path id="CMSS17-64" d="M 2611 4416 
L 2138 4416 
L 2138 2438 
C 1939 2603 1613 2756 1254 2756 
C 672 2756 211 2131 211 1347 
C 211 562 666 -64 1235 -64 
C 1677 -64 1971 172 2125 306 
L 2125 -13 
L 2611 -13 
L 2611 4416 
z
M 2125 836 
C 2125 747 2125 653 1926 482 
C 1798 375 1645 325 1498 325 
C 1152 325 698 576 698 1340 
C 698 2134 1210 2368 1562 2368 
C 1798 2368 1990 2254 2125 2065 
L 2125 836 
z
" transform="scale(0.015625)"/>
       <path id="CMSS17-6e" d="M 2618 1877 
C 2618 2283 2522 2816 1798 2816 
C 1389 2816 1120 2606 941 2389 
L 941 2758 
L 474 2758 
L 474 0 
L 960 0 
L 960 1559 
C 960 1964 1114 2428 1549 2428 
C 2112 2428 2131 2048 2131 1829 
L 2131 0 
L 2618 0 
L 2618 1877 
z
" transform="scale(0.015625)"/>
       <path id="CMSS17-25" d="M 3923 4583 
C 3962 4647 3962 4679 3962 4685 
C 3962 4755 3904 4800 3853 4800 
C 3782 4800 3750 4749 3718 4685 
L 1101 -104 
C 1088 -129 1062 -167 1062 -206 
C 1062 -276 1120 -320 1178 -320 
C 1235 -320 1248 -295 1299 -206 
L 3923 4583 
z
M 4678 959 
C 4678 1698 4282 2240 3846 2240 
C 3418 2240 3008 1711 3008 959 
C 3008 208 3418 -320 3846 -320 
C 4288 -320 4678 221 4678 959 
z
M 3846 68 
C 3712 68 3494 189 3494 959 
C 3494 1724 3712 1851 3846 1851 
C 4083 1851 4211 1386 4211 959 
C 4211 533 4083 68 3846 68 
z
M 2003 3519 
C 2003 4258 1606 4800 1171 4800 
C 742 4800 333 4271 333 3519 
C 333 2768 742 2240 1171 2240 
C 1613 2240 2003 2781 2003 3519 
z
M 1171 2628 
C 1037 2628 819 2749 819 3519 
C 819 4284 1037 4411 1171 4411 
C 1408 4411 1536 3946 1536 3519 
C 1536 3093 1408 2628 1171 2628 
z
" transform="scale(0.015625)"/>
      </defs>
      <use xlink:href="#CMSS17-43" transform="scale(0.996264)"/>
      <use xlink:href="#CMSS17-50" transform="translate(59.855772 0) scale(0.996264)"/>
      <use xlink:href="#CMSS17-55" transform="translate(119.591358 0) scale(0.996264)"/>
      <use xlink:href="#CMSS17-6c" transform="translate(214.960211 0) scale(0.996264)"/>
      <use xlink:href="#CMSS17-6f" transform="translate(237.140934 0) scale(0.996264)"/>
      <use xlink:href="#CMSS17-61" transform="translate(283.984557 0) scale(0.996264)"/>
      <use xlink:href="#CMSS17-64" transform="translate(328.906478 0) scale(0.996264)"/>
      <use xlink:href="#CMSS17-69" transform="translate(408.340534 0) scale(0.996264)"/>
      <use xlink:href="#CMSS17-6e" transform="translate(430.521257 0) scale(0.996264)"/>
      <use xlink:href="#CMSS17-25" transform="translate(509.955313 0) scale(0.996264)"/>
     </g>
    </g>
   </g>
   <g id="line2d_28">
    <path d="M 92.290909 112.603898 
L 498.109091 112.603898 
L 498.109091 112.603898 
" clip-path="url(#p35fd8a8f16)" style="fill: none; stroke-dasharray: 5.55,2.4; stroke-dashoffset: 0; stroke: #140e36; stroke-width: 1.5"/>
   </g>
   <g id="line2d_29">
    <path d="M 92.290909 57.191604 
L 432.545151 57.191604 
L 433.675563 59.408096 
L 439.327627 59.408096 
L 440.45804 57.191604 
L 498.109091 57.191604 
L 498.109091 57.191604 
" clip-path="url(#p35fd8a8f16)" style="fill: none; stroke-dasharray: 5.55,2.4; stroke-dashoffset: 0; stroke: #fecf92; stroke-width: 1.5"/>
   </g>
   <g id="patch_6">
    <path d="M 72 320.4 
L 72 43.2 
" style="fill: none; stroke: #000000; stroke-width: 0.8; stroke-linejoin: miter; stroke-linecap: square"/>
   </g>
   <g id="patch_7">
    <path d="M 518.4 320.4 
L 518.4 43.2 
" style="fill: none; stroke: #000000; stroke-width: 0.8; stroke-linejoin: miter; stroke-linecap: square"/>
   </g>
   <g id="patch_8">
    <path d="M 72 320.4 
L 518.4 320.4 
" style="fill: none; stroke: #000000; stroke-width: 0.8; stroke-linejoin: miter; stroke-linecap: square"/>
   </g>
   <g id="patch_9">
    <path d="M 72 43.2 
L 518.4 43.2 
" style="fill: none; stroke: #000000; stroke-width: 0.8; stroke-linejoin: miter; stroke-linecap: square"/>
   </g>
   <g id="legend_1">
    <g id="patch_10">
     <path d="M 347.090605 313.15 
L 508.25 313.15 
Q 511.15 313.15 511.15 310.25 
L 511.15 224.916687 
Q 511.15 222.016687 508.25 222.016687 
L 347.090605 222.016687 
Q 344.190605 222.016687 344.190605 224.916687 
L 344.190605 310.25 
Q 344.190605 313.15 347.090605 313.15 
z
" style="fill: #ffffff; opacity: 0.7; stroke: #cccccc; stroke-linejoin: miter"/>
    </g>
    <g id="line2d_30">
     <path d="M 349.990605 233.576059 
L 364.490605 233.576059 
L 378.990605 233.576059 
" style="fill: none; stroke: #482475; stroke-width: 2.5; stroke-linecap: square"/>
    </g>
    <g id="text_24">
     <!-- QoS [static] -->
     <g transform="translate(390.590605 238.651059) scale(0.145 -0.145)">
      <defs>
       <path id="CMSS17-5b" d="M 1613 -1600 
L 1613 -1212 
L 1062 -1212 
L 1062 4352 
L 1613 4352 
L 1613 4741 
L 595 4741 
L 595 -1600 
L 1613 -1600 
z
" transform="scale(0.015625)"/>
       <path id="CMSS17-63" d="M 2464 2541 
C 2464 2585 2170 2714 2093 2739 
C 1882 2816 1613 2816 1542 2816 
C 710 2816 211 2093 211 1363 
C 211 595 768 -64 1517 -64 
C 1946 -64 2253 76 2502 242 
L 2464 664 
C 2189 453 1869 337 1523 337 
C 1024 337 698 774 698 1369 
C 698 1831 909 2414 1549 2414 
C 1901 2414 2099 2343 2394 2145 
L 2464 2541 
z
" transform="scale(0.015625)"/>
       <path id="CMSS17-5d" d="M 1146 4741 
L 128 4741 
L 128 4352 
L 678 4352 
L 678 -1212 
L 128 -1212 
L 128 -1600 
L 1146 -1600 
L 1146 4741 
z
" transform="scale(0.015625)"/>
      </defs>
      <use xlink:href="#CMSS17-51" transform="scale(0.996264)"/>
      <use xlink:href="#CMSS17-6f" transform="translate(69.024255 0) scale(0.996264)"/>
      <use xlink:href="#CMSS17-53" transform="translate(115.867879 0) scale(0.996264)"/>
      <use xlink:href="#CMSS17-5b" transform="translate(199.145508 0) scale(0.996264)"/>
      <use xlink:href="#CMSS17-73" transform="translate(226.330946 0) scale(0.996264)"/>
      <use xlink:href="#CMSS17-74" transform="translate(262.244488 0) scale(0.996264)"/>
      <use xlink:href="#CMSS17-61" transform="translate(296.076055 0) scale(0.996264)"/>
      <use xlink:href="#CMSS17-74" transform="translate(340.997976 0) scale(0.996264)"/>
      <use xlink:href="#CMSS17-69" transform="translate(374.829542 0) scale(0.996264)"/>
      <use xlink:href="#CMSS17-63" transform="translate(397.010265 0) scale(0.996264)"/>
      <use xlink:href="#CMSS17-5d" transform="translate(438.649088 0) scale(0.996264)"/>
     </g>
    </g>
    <g id="line2d_31">
     <path d="M 349.990605 255.271887 
L 364.490605 255.271887 
L 378.990605 255.271887 
" style="fill: none; stroke: #bddf26; stroke-width: 2.5; stroke-linecap: square"/>
    </g>
    <g id="text_25">
     <!-- QoS [dynamic] -->
     <g transform="translate(390.590605 260.346887) scale(0.145 -0.145)">
      <defs>
       <path id="CMSS17-79" d="M 2675 2752 
L 2176 2752 
C 1632 1294 1446 702 1434 383 
L 1427 383 
C 1408 696 1126 1460 902 2007 
L 602 2752 
L 83 2752 
L 1216 13 
C 1146 -178 1043 -465 1011 -529 
C 870 -885 774 -885 672 -885 
C 646 -885 442 -885 211 -809 
L 250 -1229 
C 410 -1261 570 -1280 685 -1280 
C 845 -1280 1165 -1280 1459 -497 
L 2675 2752 
z
" transform="scale(0.015625)"/>
      </defs>
      <use xlink:href="#CMSS17-51" transform="scale(0.996264)"/>
      <use xlink:href="#CMSS17-6f" transform="translate(69.024255 0) scale(0.996264)"/>
      <use xlink:href="#CMSS17-53" transform="translate(115.867879 0) scale(0.996264)"/>
      <use xlink:href="#CMSS17-5b" transform="translate(199.145508 0) scale(0.996264)"/>
      <use xlink:href="#CMSS17-64" transform="translate(226.330946 0) scale(0.996264)"/>
      <use xlink:href="#CMSS17-79" transform="translate(274.53589 0) scale(0.996264)"/>
      <use xlink:href="#CMSS17-6e" transform="translate(317.536031 0) scale(0.996264)"/>
      <use xlink:href="#CMSS17-61" transform="translate(365.740974 0) scale(0.996264)"/>
      <use xlink:href="#CMSS17-6d" transform="translate(410.662895 0) scale(0.996264)"/>
      <use xlink:href="#CMSS17-69" transform="translate(484.892149 0) scale(0.996264)"/>
      <use xlink:href="#CMSS17-63" transform="translate(507.072872 0) scale(0.996264)"/>
      <use xlink:href="#CMSS17-5d" transform="translate(548.711695 0) scale(0.996264)"/>
     </g>
    </g>
    <g id="line2d_32">
     <path d="M 349.990605 276.967715 
L 364.490605 276.967715 
L 378.990605 276.967715 
" style="fill: none; stroke-dasharray: 5.55,2.4; stroke-dashoffset: 0; stroke: #140e36; stroke-width: 1.5"/>
    </g>
    <g id="text_26">
     <!-- Load driver (right) -->
     <g transform="translate(390.590605 282.042715) scale(0.145 -0.145)">
      <defs>
       <path id="CMSS17-4c" d="M 1670 414 
C 1594 414 1517 414 1440 414 
L 1101 414 
L 1101 4416 
L 563 4416 
L 563 0 
L 3002 0 
L 3002 414 
L 1670 414 
z
" transform="scale(0.015625)"/>
       <path id="CMSS17-72" d="M 954 1363 
C 954 1965 1395 2368 1958 2368 
L 1958 2789 
C 1549 2789 1165 2585 934 2253 
L 934 2758 
L 480 2758 
L 480 0 
L 954 0 
L 954 1363 
z
" transform="scale(0.015625)"/>
       <path id="CMSS17-76" d="M 2675 2752 
L 2176 2752 
L 1747 1556 
C 1613 1165 1421 627 1389 352 
L 1382 352 
C 1370 468 1318 634 1286 749 
C 1248 890 1197 1056 1158 1172 
L 595 2752 
L 83 2752 
L 1094 0 
L 1664 0 
L 2675 2752 
z
" transform="scale(0.015625)"/>
       <path id="CMSS17-67" d="M 2848 2808 
C 2483 2808 2170 2738 1914 2617 
C 1702 2777 1485 2808 1338 2808 
C 781 2808 358 2349 358 1814 
C 358 1468 550 1207 563 1195 
C 448 1035 384 863 384 672 
C 384 448 474 289 544 200 
C 211 -3 166 -314 166 -435 
C 166 -898 749 -1280 1498 -1280 
C 2253 -1280 2835 -898 2835 -428 
C 2835 448 1856 448 1587 448 
L 1069 448 
C 973 448 717 448 717 791 
C 717 921 774 1004 781 1010 
C 877 940 1075 832 1338 832 
C 1869 832 2310 1278 2310 1827 
C 2310 2132 2170 2355 2112 2432 
L 2131 2432 
C 2150 2432 2419 2432 2515 2432 
C 2720 2432 2739 2429 2918 2419 
L 2848 2808 
z
M 1338 1182 
C 1120 1182 813 1315 813 1823 
C 813 2375 1165 2464 1331 2464 
C 1549 2464 1856 2331 1856 1823 
C 1856 1271 1504 1182 1338 1182 
z
M 1581 -10 
C 1734 -10 2381 -10 2381 -442 
C 2381 -714 1984 -929 1504 -929 
C 1018 -929 621 -720 621 -435 
C 621 -403 621 -10 1062 -10 
L 1581 -10 
z
" transform="scale(0.015625)"/>
       <path id="CMSS17-68" d="M 2618 1891 
C 2618 2292 2522 2820 1798 2820 
C 1395 2820 1133 2623 947 2407 
L 947 4448 
L 474 4448 
L 474 32 
L 960 32 
L 960 1573 
C 960 1973 1114 2432 1549 2432 
C 2112 2432 2131 2056 2131 1839 
L 2131 32 
L 2618 32 
L 2618 1891 
z
" transform="scale(0.015625)"/>
      </defs>
      <use xlink:href="#CMSS17-4c" transform="scale(0.996264)"/>
      <use xlink:href="#CMSS17-6f" transform="translate(50.687105 0) scale(0.996264)"/>
      <use xlink:href="#CMSS17-61" transform="translate(97.530729 0) scale(0.996264)"/>
      <use xlink:href="#CMSS17-64" transform="translate(142.452649 0) scale(0.996264)"/>
      <use xlink:href="#CMSS17-64" transform="translate(221.886705 0) scale(0.996264)"/>
      <use xlink:href="#CMSS17-72" transform="translate(270.091649 0) scale(0.996264)"/>
      <use xlink:href="#CMSS17-69" transform="translate(302.001421 0) scale(0.996264)"/>
      <use xlink:href="#CMSS17-76" transform="translate(324.182144 0) scale(0.996264)"/>
      <use xlink:href="#CMSS17-65" transform="translate(367.182286 0) scale(0.996264)"/>
      <use xlink:href="#CMSS17-72" transform="translate(408.821108 0) scale(0.996264)"/>
      <use xlink:href="#CMSS17-28" transform="translate(471.959993 0) scale(0.996264)"/>
      <use xlink:href="#CMSS17-72" transform="translate(508.393907 0) scale(0.996264)"/>
      <use xlink:href="#CMSS17-69" transform="translate(540.30368 0) scale(0.996264)"/>
      <use xlink:href="#CMSS17-67" transform="translate(562.484403 0) scale(0.996264)"/>
      <use xlink:href="#CMSS17-68" transform="translate(609.328026 0) scale(0.996264)"/>
      <use xlink:href="#CMSS17-74" transform="translate(657.53297 0) scale(0.996264)"/>
      <use xlink:href="#CMSS17-29" transform="translate(691.364536 0) scale(0.996264)"/>
     </g>
    </g>
    <g id="line2d_33">
     <path d="M 349.990605 298.663543 
L 364.490605 298.663543 
L 378.990605 298.663543 
" style="fill: none; stroke-dasharray: 5.55,2.4; stroke-dashoffset: 0; stroke: #fecf92; stroke-width: 1.5"/>
    </g>
    <g id="text_27">
     <!-- System load (right) -->
     <g transform="translate(390.590605 303.738543) scale(0.145 -0.145)">
      <use xlink:href="#CMSS17-53" transform="scale(0.996264)"/>
      <use xlink:href="#CMSS17-79" transform="translate(52.048516 0) scale(0.996264)"/>
      <use xlink:href="#CMSS17-73" transform="translate(95.048658 0) scale(0.996264)"/>
      <use xlink:href="#CMSS17-74" transform="translate(130.9622 0) scale(0.996264)"/>
      <use xlink:href="#CMSS17-65" transform="translate(164.793767 0) scale(0.996264)"/>
      <use xlink:href="#CMSS17-6d" transform="translate(206.432589 0) scale(0.996264)"/>
      <use xlink:href="#CMSS17-6c" transform="translate(311.890956 0) scale(0.996264)"/>
      <use xlink:href="#CMSS17-6f" transform="translate(334.071679 0) scale(0.996264)"/>
      <use xlink:href="#CMSS17-61" transform="translate(380.915302 0) scale(0.996264)"/>
      <use xlink:href="#CMSS17-64" transform="translate(425.837223 0) scale(0.996264)"/>
      <use xlink:href="#CMSS17-28" transform="translate(505.271279 0) scale(0.996264)"/>
      <use xlink:href="#CMSS17-72" transform="translate(541.705193 0) scale(0.996264)"/>
      <use xlink:href="#CMSS17-69" transform="translate(573.614966 0) scale(0.996264)"/>
      <use xlink:href="#CMSS17-67" transform="translate(595.795689 0) scale(0.996264)"/>
      <use xlink:href="#CMSS17-68" transform="translate(642.639312 0) scale(0.996264)"/>
      <use xlink:href="#CMSS17-74" transform="translate(690.844255 0) scale(0.996264)"/>
      <use xlink:href="#CMSS17-29" transform="translate(724.675822 0) scale(0.996264)"/>
     </g>
    </g>
   </g>
  </g>
 </g>
 <defs>
  <clipPath id="p35fd8a8f16">
   <rect x="72" y="43.2" width="446.4" height="277.2"/>
  </clipPath>
 </defs>
</svg>
