<?xml version="1.0" encoding="utf-8" standalone="no"?>
<!DOCTYPE svg PUBLIC "-//W3C//DTD SVG 1.1//EN"
  "http://www.w3.org/Graphics/SVG/1.1/DTD/svg11.dtd">
<svg xmlns:xlink="http://www.w3.org/1999/xlink" width="720pt" height="360pt" viewBox="0 0 720 360" xmlns="http://www.w3.org/2000/svg" version="1.1">
 <metadata>
  <rdf:RDF xmlns:dc="http://purl.org/dc/elements/1.1/" xmlns:cc="http://creativecommons.org/ns#" xmlns:rdf="http://www.w3.org/1999/02/22-rdf-syntax-ns#">
   <cc:Work>
    <dc:type rdf:resource="http://purl.org/dc/dcmitype/StillImage"/>
    <dc:date>2024-03-20T17:20:34.468520</dc:date>
    <dc:format>image/svg+xml</dc:format>
    <dc:creator>
     <cc:Agent>
      <dc:title>Matplotlib v3.8.0, https://matplotlib.org/</dc:title>
     </cc:Agent>
    </dc:creator>
   </cc:Work>
  </rdf:RDF>
 </metadata>
 <defs>
  <style type="text/css">*{stroke-linejoin: round; stroke-linecap: butt}</style>
 </defs>
 <g id="figure_1">
  <g id="patch_1">
   <path d="M 0 360 
L 720 360 
L 720 0 
L 0 0 
z
" style="fill: #ffffff"/>
  </g>
  <g id="axes_1">
   <g id="patch_2">
    <path d="M 90 320.4 
L 648 320.4 
L 648 43.2 
L 90 43.2 
z
" style="fill: #ffffff"/>
   </g>
   <g id="PolyCollection_1">
    <defs>
     <path id="ma5c27eeda8" d="M 115.363636 -193.538451 
L 115.363636 -199.404957 
L 116.776652 -199.404957 
L 118.189668 -199.404957 
L 119.602684 -199.44678 
L 121.0157 -199.44678 
L 122.428716 -199.44678 
L 123.841732 -199.44678 
L 125.254748 -199.44678 
L 126.667764 -199.44678 
L 128.08078 -199.44678 
L 129.493796 -199.44678 
L 130.906812 -199.44678 
L 132.319828 -199.44678 
L 133.732844 -199.44678 
L 135.14586 -199.500197 
L 136.558876 -199.500197 
L 137.971892 -199.500197 
L 139.384908 -199.500197 
L 140.797924 -199.500197 
L 142.210939 -199.500197 
L 143.623955 -199.44678 
L 145.036971 -199.44678 
L 146.449987 -199.44678 
L 147.863003 -199.44678 
L 149.276019 -199.44678 
L 150.689035 -172.643443 
L 152.102051 -172.643443 
L 153.515067 -172.643443 
L 154.928083 -172.643443 
L 156.341099 -172.643443 
L 157.754115 -167.669042 
L 159.167131 -167.669042 
L 160.580147 -167.669042 
L 161.993163 -167.669042 
L 163.406179 -167.669042 
L 164.819195 -167.669042 
L 166.232211 -168.260568 
L 167.645227 -168.260568 
L 169.058243 -168.260568 
L 170.471259 -168.260568 
L 171.884274 -168.260568 
L 173.29729 -168.253056 
L 174.710306 -168.253056 
L 176.123322 -168.253056 
L 177.536338 -168.253056 
L 178.949354 -168.253056 
L 180.36237 -168.253056 
L 181.775386 -168.23394 
L 183.188402 -168.23394 
L 184.601418 -168.23394 
L 186.014434 -168.23394 
L 187.42745 -168.23394 
L 188.840466 -168.23394 
L 190.253482 -168.23394 
L 191.666498 -168.23394 
L 193.079514 -168.23394 
L 194.49253 -168.23394 
L 195.905546 -168.23394 
L 197.318562 -168.23394 
L 198.731578 -168.23394 
L 200.144594 -168.23394 
L 201.55761 -168.23394 
L 202.970625 -168.23394 
L 204.383641 -168.122891 
L 205.796657 -168.122891 
L 207.209673 -168.122891 
L 208.622689 -168.122891 
L 210.035705 -168.122891 
L 211.448721 -168.158096 
L 212.861737 -168.158096 
L 214.274753 -168.158096 
L 215.687769 -168.158096 
L 217.100785 -168.158096 
L 218.513801 -168.158096 
L 219.926817 -168.065505 
L 221.339833 -168.065505 
L 222.752849 -168.065505 
L 224.165865 -168.065505 
L 225.578881 -168.065505 
L 226.991897 -147.236698 
L 228.404913 -147.236698 
L 229.817929 -147.236698 
L 231.230945 -147.236698 
L 232.64396 -147.236698 
L 234.056976 -147.236698 
L 235.469992 -133.885412 
L 236.883008 -133.885412 
L 238.296024 -133.885412 
L 239.70904 -133.885412 
L 241.122056 -133.885412 
L 242.535072 -134.495233 
L 243.948088 -134.495233 
L 245.361104 -134.495233 
L 246.77412 -134.495233 
L 248.187136 -134.495233 
L 249.600152 -134.495233 
L 251.013168 -134.585836 
L 252.426184 -134.585836 
L 253.8392 -134.585836 
L 255.252216 -134.585836 
L 256.665232 -134.585836 
L 258.078248 -134.476457 
L 259.491264 -134.476457 
L 260.90428 -134.476457 
L 262.317296 -134.476457 
L 263.730311 -134.476457 
L 265.143327 -134.476457 
L 266.556343 -134.494574 
L 267.969359 -134.494574 
L 269.382375 -134.494574 
L 270.795391 -134.494574 
L 272.208407 -134.494574 
L 273.621423 -134.494574 
L 275.034439 -134.494574 
L 276.447455 -134.494574 
L 277.860471 -134.494574 
L 279.273487 -134.494574 
L 280.686503 -134.494574 
L 282.099519 -134.494574 
L 283.512535 -134.494574 
L 284.925551 -134.494574 
L 286.338567 -134.494574 
L 287.751583 -134.494574 
L 289.164599 -134.494574 
L 290.577615 -134.494574 
L 291.990631 -134.494574 
L 293.403646 -134.494574 
L 294.816662 -134.494574 
L 296.229678 -134.4542 
L 297.642694 -134.4542 
L 299.05571 -134.4542 
L 300.468726 -134.4542 
L 301.881742 -134.4542 
L 303.294758 -134.4542 
L 304.707774 -128.399923 
L 306.12079 -128.399923 
L 307.533806 -128.399923 
L 308.946822 -128.399923 
L 310.359838 -128.399923 
L 311.772854 -98.441024 
L 313.18587 -98.441024 
L 314.598886 -98.441024 
L 316.011902 -98.441024 
L 317.424918 -98.441024 
L 318.837934 -98.441024 
L 320.25095 -95.734695 
L 321.663966 -95.734695 
L 323.076982 -95.734695 
L 324.489997 -95.734695 
L 325.903013 -95.734695 
L 327.316029 -95.524191 
L 328.729045 -95.524191 
L 330.142061 -95.524191 
L 331.555077 -95.524191 
L 332.968093 -95.524191 
L 334.381109 -95.524191 
L 335.794125 -95.643902 
L 337.207141 -95.643902 
L 338.620157 -95.643902 
L 340.033173 -95.643902 
L 341.446189 -95.643902 
L 342.859205 -95.687362 
L 344.272221 -95.687362 
L 345.685237 -95.687362 
L 347.098253 -95.687362 
L 348.511269 -95.687362 
L 349.924285 -95.687362 
L 351.337301 -95.687362 
L 352.750317 -95.687362 
L 354.163332 -95.687362 
L 355.576348 -95.687362 
L 356.989364 -95.687362 
L 358.40238 -95.687362 
L 359.815396 -95.687362 
L 361.228412 -95.687362 
L 362.641428 -95.687362 
L 364.054444 -95.687362 
L 365.46746 -95.39523 
L 366.880476 -95.39523 
L 368.293492 -95.39523 
L 369.706508 -95.39523 
L 371.119524 -95.39523 
L 372.53254 -95.39523 
L 373.945556 -95.687362 
L 375.358572 -95.687362 
L 376.771588 -95.687362 
L 378.184604 -95.687362 
L 379.59762 -95.687362 
L 381.010636 -95.687362 
L 382.423652 -95.687362 
L 383.836668 -95.687362 
L 385.249683 -95.687362 
L 386.662699 -95.687362 
L 388.075715 -95.687362 
L 389.488731 -119.460488 
L 390.901747 -119.460488 
L 392.314763 -119.460488 
L 393.727779 -119.460488 
L 395.140795 -119.460488 
L 396.553811 -127.129269 
L 397.966827 -127.129269 
L 399.379843 -127.129269 
L 400.792859 -127.129269 
L 402.205875 -127.129269 
L 403.618891 -128.153672 
L 405.031907 -128.153672 
L 406.444923 -128.153672 
L 407.857939 -128.153672 
L 409.270955 -128.153672 
L 410.683971 -128.153672 
L 412.096987 -128.572975 
L 413.510003 -128.572975 
L 414.923018 -128.572975 
L 416.336034 -128.572975 
L 417.74905 -128.572975 
L 419.162066 -128.572975 
L 420.575082 -128.572975 
L 421.988098 -128.572975 
L 423.401114 -128.572975 
L 424.81413 -128.572975 
L 426.227146 -128.572975 
L 427.640162 -128.183259 
L 429.053178 -128.183259 
L 430.466194 -128.183259 
L 431.87921 -128.183259 
L 433.292226 -128.183259 
L 434.705242 -128.513899 
L 436.118258 -128.513899 
L 437.531274 -128.513899 
L 438.94429 -128.513899 
L 440.357306 -128.513899 
L 441.770322 -128.513899 
L 443.183338 -128.513899 
L 444.596354 -128.513899 
L 446.009369 -128.513899 
L 447.422385 -128.513899 
L 448.835401 -128.513899 
L 450.248417 -128.282812 
L 451.661433 -128.282812 
L 453.074449 -128.282812 
L 454.487465 -128.282812 
L 455.900481 -128.282812 
L 457.313497 -128.282812 
L 458.726513 -128.398949 
L 460.139529 -128.398949 
L 461.552545 -128.398949 
L 462.965561 -128.398949 
L 464.378577 -128.398949 
L 465.791593 -139.298873 
L 467.204609 -139.298873 
L 468.617625 -139.298873 
L 470.030641 -139.298873 
L 471.443657 -139.298873 
L 472.856673 -155.021133 
L 474.269689 -155.021133 
L 475.682704 -155.021133 
L 477.09572 -155.021133 
L 478.508736 -155.021133 
L 479.921752 -155.021133 
L 481.334768 -156.515709 
L 482.747784 -156.515709 
L 484.1608 -156.515709 
L 485.573816 -156.515709 
L 486.986832 -156.515709 
L 488.399848 -156.507567 
L 489.812864 -156.507567 
L 491.22588 -156.507567 
L 492.638896 -156.507567 
L 494.051912 -156.507567 
L 495.464928 -156.507567 
L 496.877944 -156.507567 
L 498.29096 -156.507567 
L 499.703976 -156.507567 
L 501.116992 -156.507567 
L 502.530008 -156.507567 
L 503.943024 -156.493937 
L 505.35604 -156.493937 
L 506.769055 -156.493937 
L 508.182071 -156.493937 
L 509.595087 -156.493937 
L 511.008103 -156.493937 
L 512.421119 -156.494969 
L 513.834135 -156.494969 
L 515.247151 -156.494969 
L 516.660167 -156.494969 
L 518.073183 -156.494969 
L 519.486199 -156.568547 
L 520.899215 -156.568547 
L 522.312231 -156.568547 
L 523.725247 -156.568547 
L 525.138263 -156.568547 
L 526.551279 -156.568547 
L 527.964295 -156.507567 
L 529.377311 -156.507567 
L 530.790327 -156.507567 
L 532.203343 -156.507567 
L 533.616359 -156.507567 
L 535.029375 -156.469783 
L 536.44239 -156.469783 
L 537.855406 -156.469783 
L 539.268422 -156.469783 
L 540.681438 -156.469783 
L 542.094454 -154.135209 
L 543.50747 -154.135209 
L 544.920486 -154.135209 
L 546.333502 -154.135209 
L 547.746518 -154.135209 
L 549.159534 -154.135209 
L 550.57255 -174.392666 
L 551.985566 -174.392666 
L 553.398582 -174.392666 
L 554.811598 -174.392666 
L 556.224614 -174.392666 
L 557.63763 -176.310516 
L 559.050646 -176.310516 
L 560.463662 -176.310516 
L 561.876678 -176.310516 
L 563.289694 -176.310516 
L 564.70271 -176.310516 
L 566.115726 -176.733361 
L 567.528741 -176.733361 
L 568.941757 -176.733361 
L 570.354773 -176.733361 
L 571.767789 -176.733361 
L 573.180805 -176.601938 
L 574.593821 -176.601938 
L 576.006837 -176.601938 
L 577.419853 -176.601938 
L 578.832869 -176.601938 
L 580.245885 -176.601938 
L 581.658901 -176.644591 
L 583.071917 -176.644591 
L 584.484933 -176.644591 
L 585.897949 -176.644591 
L 587.310965 -176.644591 
L 588.723981 -176.688403 
L 590.136997 -176.688403 
L 591.550013 -176.688403 
L 592.963029 -176.688403 
L 594.376045 -176.688403 
L 595.789061 -176.688403 
L 597.202076 -176.688403 
L 598.615092 -176.688403 
L 600.028108 -176.688403 
L 601.441124 -176.688403 
L 602.85414 -176.688403 
L 604.267156 -176.697629 
L 605.680172 -176.697629 
L 607.093188 -176.697629 
L 608.506204 -176.697629 
L 609.91922 -176.697629 
L 611.332236 -176.361925 
L 612.745252 -176.361925 
L 614.158268 -176.361925 
L 615.571284 -176.361925 
L 616.9843 -176.361925 
L 618.397316 -176.361925 
L 619.810332 -176.542006 
L 621.223348 -176.542006 
L 622.636364 -176.542006 
L 622.636364 -166.101482 
L 622.636364 -166.101482 
L 621.223348 -166.101482 
L 619.810332 -166.101482 
L 618.397316 -166.003835 
L 616.9843 -166.003835 
L 615.571284 -166.003835 
L 614.158268 -166.003835 
L 612.745252 -166.003835 
L 611.332236 -166.003835 
L 609.91922 -166.113763 
L 608.506204 -166.113763 
L 607.093188 -166.113763 
L 605.680172 -166.113763 
L 604.267156 -166.113763 
L 602.85414 -166.233869 
L 601.441124 -166.233869 
L 600.028108 -166.233869 
L 598.615092 -166.233869 
L 597.202076 -166.233869 
L 595.789061 -166.233869 
L 594.376045 -166.233869 
L 592.963029 -166.233869 
L 591.550013 -166.233869 
L 590.136997 -166.233869 
L 588.723981 -166.233869 
L 587.310965 -166.222241 
L 585.897949 -166.222241 
L 584.484933 -166.222241 
L 583.071917 -166.222241 
L 581.658901 -166.222241 
L 580.245885 -166.209454 
L 578.832869 -166.209454 
L 577.419853 -166.209454 
L 576.006837 -166.209454 
L 574.593821 -166.209454 
L 573.180805 -166.209454 
L 571.767789 -166.244351 
L 570.354773 -166.244351 
L 568.941757 -166.244351 
L 567.528741 -166.244351 
L 566.115726 -166.244351 
L 564.70271 -165.944892 
L 563.289694 -165.944892 
L 561.876678 -165.944892 
L 560.463662 -165.944892 
L 559.050646 -165.944892 
L 557.63763 -165.944892 
L 556.224614 -163.694182 
L 554.811598 -163.694182 
L 553.398582 -163.694182 
L 551.985566 -163.694182 
L 550.57255 -163.694182 
L 549.159534 -143.435031 
L 547.746518 -143.435031 
L 546.333502 -143.435031 
L 544.920486 -143.435031 
L 543.50747 -143.435031 
L 542.094454 -143.435031 
L 540.681438 -145.658153 
L 539.268422 -145.658153 
L 537.855406 -145.658153 
L 536.44239 -145.658153 
L 535.029375 -145.658153 
L 533.616359 -145.787217 
L 532.203343 -145.787217 
L 530.790327 -145.787217 
L 529.377311 -145.787217 
L 527.964295 -145.787217 
L 526.551279 -145.948525 
L 525.138263 -145.948525 
L 523.725247 -145.948525 
L 522.312231 -145.948525 
L 520.899215 -145.948525 
L 519.486199 -145.948525 
L 518.073183 -145.743847 
L 516.660167 -145.743847 
L 515.247151 -145.743847 
L 513.834135 -145.743847 
L 512.421119 -145.743847 
L 511.008103 -145.745407 
L 509.595087 -145.745407 
L 508.182071 -145.745407 
L 506.769055 -145.745407 
L 505.35604 -145.745407 
L 503.943024 -145.745407 
L 502.530008 -145.787217 
L 501.116992 -145.787217 
L 499.703976 -145.787217 
L 498.29096 -145.787217 
L 496.877944 -145.787217 
L 495.464928 -145.787217 
L 494.051912 -145.787217 
L 492.638896 -145.787217 
L 491.22588 -145.787217 
L 489.812864 -145.787217 
L 488.399848 -145.787217 
L 486.986832 -145.667139 
L 485.573816 -145.667139 
L 484.1608 -145.667139 
L 482.747784 -145.667139 
L 481.334768 -145.667139 
L 479.921752 -143.882835 
L 478.508736 -143.882835 
L 477.09572 -143.882835 
L 475.682704 -143.882835 
L 474.269689 -143.882835 
L 472.856673 -143.882835 
L 471.443657 -127.869655 
L 470.030641 -127.869655 
L 468.617625 -127.869655 
L 467.204609 -127.869655 
L 465.791593 -127.869655 
L 464.378577 -118.148539 
L 462.965561 -118.148539 
L 461.552545 -118.148539 
L 460.139529 -118.148539 
L 458.726513 -118.148539 
L 457.313497 -117.986948 
L 455.900481 -117.986948 
L 454.487465 -117.986948 
L 453.074449 -117.986948 
L 451.661433 -117.986948 
L 450.248417 -117.986948 
L 448.835401 -118.255877 
L 447.422385 -118.255877 
L 446.009369 -118.255877 
L 444.596354 -118.255877 
L 443.183338 -118.255877 
L 441.770322 -118.255877 
L 440.357306 -118.255877 
L 438.94429 -118.255877 
L 437.531274 -118.255877 
L 436.118258 -118.255877 
L 434.705242 -118.255877 
L 433.292226 -118.253349 
L 431.87921 -118.253349 
L 430.466194 -118.253349 
L 429.053178 -118.253349 
L 427.640162 -118.253349 
L 426.227146 -118.252769 
L 424.81413 -118.252769 
L 423.401114 -118.252769 
L 421.988098 -118.252769 
L 420.575082 -118.252769 
L 419.162066 -118.252769 
L 417.74905 -118.252769 
L 416.336034 -118.252769 
L 414.923018 -118.252769 
L 413.510003 -118.252769 
L 412.096987 -118.252769 
L 410.683971 -118.11556 
L 409.270955 -118.11556 
L 407.857939 -118.11556 
L 406.444923 -118.11556 
L 405.031907 -118.11556 
L 403.618891 -118.11556 
L 402.205875 -117.974139 
L 400.792859 -117.974139 
L 399.379843 -117.974139 
L 397.966827 -117.974139 
L 396.553811 -117.974139 
L 395.140795 -110.580664 
L 393.727779 -110.580664 
L 392.314763 -110.580664 
L 390.901747 -110.580664 
L 389.488731 -110.580664 
L 388.075715 -87.83435 
L 386.662699 -87.83435 
L 385.249683 -87.83435 
L 383.836668 -87.83435 
L 382.423652 -87.83435 
L 381.010636 -87.83435 
L 379.59762 -87.83435 
L 378.184604 -87.83435 
L 376.771588 -87.83435 
L 375.358572 -87.83435 
L 373.945556 -87.83435 
L 372.53254 -87.793314 
L 371.119524 -87.793314 
L 369.706508 -87.793314 
L 368.293492 -87.793314 
L 366.880476 -87.793314 
L 365.46746 -87.793314 
L 364.054444 -87.83435 
L 362.641428 -87.83435 
L 361.228412 -87.83435 
L 359.815396 -87.83435 
L 358.40238 -87.83435 
L 356.989364 -87.83435 
L 355.576348 -87.83435 
L 354.163332 -87.83435 
L 352.750317 -87.83435 
L 351.337301 -87.83435 
L 349.924285 -87.83435 
L 348.511269 -87.83435 
L 347.098253 -87.83435 
L 345.685237 -87.83435 
L 344.272221 -87.83435 
L 342.859205 -87.83435 
L 341.446189 -87.82237 
L 340.033173 -87.82237 
L 338.620157 -87.82237 
L 337.207141 -87.82237 
L 335.794125 -87.82237 
L 334.381109 -87.941553 
L 332.968093 -87.941553 
L 331.555077 -87.941553 
L 330.142061 -87.941553 
L 328.729045 -87.941553 
L 327.316029 -87.941553 
L 325.903013 -88.620201 
L 324.489997 -88.620201 
L 323.076982 -88.620201 
L 321.663966 -88.620201 
L 320.25095 -88.620201 
L 318.837934 -90.082432 
L 317.424918 -90.082432 
L 316.011902 -90.082432 
L 314.598886 -90.082432 
L 313.18587 -90.082432 
L 311.772854 -90.082432 
L 310.359838 -119.482349 
L 308.946822 -119.482349 
L 307.533806 -119.482349 
L 306.12079 -119.482349 
L 304.707774 -119.482349 
L 303.294758 -125.599528 
L 301.881742 -125.599528 
L 300.468726 -125.599528 
L 299.05571 -125.599528 
L 297.642694 -125.599528 
L 296.229678 -125.599528 
L 294.816662 -125.614594 
L 293.403646 -125.614594 
L 291.990631 -125.614594 
L 290.577615 -125.614594 
L 289.164599 -125.614594 
L 287.751583 -125.614594 
L 286.338567 -125.614594 
L 284.925551 -125.614594 
L 283.512535 -125.614594 
L 282.099519 -125.614594 
L 280.686503 -125.614594 
L 279.273487 -125.614594 
L 277.860471 -125.614594 
L 276.447455 -125.614594 
L 275.034439 -125.614594 
L 273.621423 -125.614594 
L 272.208407 -125.614594 
L 270.795391 -125.614594 
L 269.382375 -125.614594 
L 267.969359 -125.614594 
L 266.556343 -125.614594 
L 265.143327 -125.688151 
L 263.730311 -125.688151 
L 262.317296 -125.688151 
L 260.90428 -125.688151 
L 259.491264 -125.688151 
L 258.078248 -125.688151 
L 256.665232 -125.078756 
L 255.252216 -125.078756 
L 253.8392 -125.078756 
L 252.426184 -125.078756 
L 251.013168 -125.078756 
L 249.600152 -126.169391 
L 248.187136 -126.169391 
L 246.77412 -126.169391 
L 245.361104 -126.169391 
L 243.948088 -126.169391 
L 242.535072 -126.169391 
L 241.122056 -125.556892 
L 239.70904 -125.556892 
L 238.296024 -125.556892 
L 236.883008 -125.556892 
L 235.469992 -125.556892 
L 234.056976 -140.940422 
L 232.64396 -140.940422 
L 231.230945 -140.940422 
L 229.817929 -140.940422 
L 228.404913 -140.940422 
L 226.991897 -140.940422 
L 225.578881 -160.906479 
L 224.165865 -160.906479 
L 222.752849 -160.906479 
L 221.339833 -160.906479 
L 219.926817 -160.906479 
L 218.513801 -160.980208 
L 217.100785 -160.980208 
L 215.687769 -160.980208 
L 214.274753 -160.980208 
L 212.861737 -160.980208 
L 211.448721 -160.980208 
L 210.035705 -160.959973 
L 208.622689 -160.959973 
L 207.209673 -160.959973 
L 205.796657 -160.959973 
L 204.383641 -160.959973 
L 202.970625 -161.015772 
L 201.55761 -161.015772 
L 200.144594 -161.015772 
L 198.731578 -161.015772 
L 197.318562 -161.015772 
L 195.905546 -161.015772 
L 194.49253 -161.015772 
L 193.079514 -161.015772 
L 191.666498 -161.015772 
L 190.253482 -161.015772 
L 188.840466 -161.015772 
L 187.42745 -161.015772 
L 186.014434 -161.015772 
L 184.601418 -161.015772 
L 183.188402 -161.015772 
L 181.775386 -161.015772 
L 180.36237 -161.052096 
L 178.949354 -161.052096 
L 177.536338 -161.052096 
L 176.123322 -161.052096 
L 174.710306 -161.052096 
L 173.29729 -161.052096 
L 171.884274 -161.32284 
L 170.471259 -161.32284 
L 169.058243 -161.32284 
L 167.645227 -161.32284 
L 166.232211 -161.32284 
L 164.819195 -160.692046 
L 163.406179 -160.692046 
L 161.993163 -160.692046 
L 160.580147 -160.692046 
L 159.167131 -160.692046 
L 157.754115 -160.692046 
L 156.341099 -166.166237 
L 154.928083 -166.166237 
L 153.515067 -166.166237 
L 152.102051 -166.166237 
L 150.689035 -166.166237 
L 149.276019 -193.552068 
L 147.863003 -193.552068 
L 146.449987 -193.552068 
L 145.036971 -193.552068 
L 143.623955 -193.552068 
L 142.210939 -193.387243 
L 140.797924 -193.387243 
L 139.384908 -193.387243 
L 137.971892 -193.387243 
L 136.558876 -193.387243 
L 135.14586 -193.387243 
L 133.732844 -193.552068 
L 132.319828 -193.552068 
L 130.906812 -193.552068 
L 129.493796 -193.552068 
L 128.08078 -193.552068 
L 126.667764 -193.552068 
L 125.254748 -193.552068 
L 123.841732 -193.552068 
L 122.428716 -193.552068 
L 121.0157 -193.552068 
L 119.602684 -193.552068 
L 118.189668 -193.538451 
L 116.776652 -193.538451 
L 115.363636 -193.538451 
z
" style="stroke: #482475; stroke-opacity: 0.2"/>
    </defs>
    <g clip-path="url(#p713c1072d6)">
     <use xlink:href="#ma5c27eeda8" x="0" y="360" style="fill: #482475; fill-opacity: 0.2; stroke: #482475; stroke-opacity: 0.2"/>
    </g>
   </g>
   <g id="PolyCollection_2">
    <defs>
     <path id="m2832e39055" d="M 115.363636 -72.695112 
L 115.363636 -78.92484 
L 116.776652 -78.92484 
L 118.189668 -78.92484 
L 119.602684 -78.658313 
L 121.0157 -78.658313 
L 122.428716 -78.658313 
L 123.841732 -78.658313 
L 125.254748 -78.658313 
L 126.667764 -78.658313 
L 128.08078 -78.650191 
L 129.493796 -78.650191 
L 130.906812 -78.650191 
L 132.319828 -78.650191 
L 133.732844 -78.650191 
L 135.14586 -78.653588 
L 136.558876 -78.653588 
L 137.971892 -78.653588 
L 139.384908 -78.653588 
L 140.797924 -78.653588 
L 142.210939 -78.653588 
L 143.623955 -78.674164 
L 145.036971 -78.674164 
L 146.449987 -78.674164 
L 147.863003 -78.674164 
L 149.276019 -78.674164 
L 150.689035 -75.818088 
L 152.102051 -75.818088 
L 153.515067 -75.818088 
L 154.928083 -75.818088 
L 156.341099 -75.818088 
L 157.754115 -76.360681 
L 159.167131 -76.360681 
L 160.580147 -76.360681 
L 161.993163 -76.360681 
L 163.406179 -76.360681 
L 164.819195 -76.360681 
L 166.232211 -76.207502 
L 167.645227 -76.207502 
L 169.058243 -76.207502 
L 170.471259 -76.207502 
L 171.884274 -76.207502 
L 173.29729 -76.073525 
L 174.710306 -76.073525 
L 176.123322 -76.073525 
L 177.536338 -76.073525 
L 178.949354 -76.073525 
L 180.36237 -76.073525 
L 181.775386 -76.116751 
L 183.188402 -76.116751 
L 184.601418 -76.116751 
L 186.014434 -76.116751 
L 187.42745 -76.116751 
L 188.840466 -76.117399 
L 190.253482 -76.117399 
L 191.666498 -76.117399 
L 193.079514 -76.117399 
L 194.49253 -76.117399 
L 195.905546 -76.117399 
L 197.318562 -76.174927 
L 198.731578 -76.174927 
L 200.144594 -76.174927 
L 201.55761 -76.174927 
L 202.970625 -76.174927 
L 204.383641 -76.270227 
L 205.796657 -76.270227 
L 207.209673 -76.270227 
L 208.622689 -76.270227 
L 210.035705 -76.270227 
L 211.448721 -76.398841 
L 212.861737 -76.398841 
L 214.274753 -76.398841 
L 215.687769 -76.398841 
L 217.100785 -76.398841 
L 218.513801 -76.398841 
L 219.926817 -76.398841 
L 221.339833 -76.398841 
L 222.752849 -76.398841 
L 224.165865 -76.398841 
L 225.578881 -76.398841 
L 226.991897 -71.207385 
L 228.404913 -71.207385 
L 229.817929 -71.207385 
L 231.230945 -71.207385 
L 232.64396 -71.207385 
L 234.056976 -71.207385 
L 235.469992 -71.824703 
L 236.883008 -71.824703 
L 238.296024 -71.824703 
L 239.70904 -71.824703 
L 241.122056 -71.824703 
L 242.535072 -82.106582 
L 243.948088 -82.106582 
L 245.361104 -82.106582 
L 246.77412 -82.106582 
L 248.187136 -82.106582 
L 249.600152 -82.106582 
L 251.013168 -92.953103 
L 252.426184 -92.953103 
L 253.8392 -92.953103 
L 255.252216 -92.953103 
L 256.665232 -92.953103 
L 258.078248 -99.198356 
L 259.491264 -99.198356 
L 260.90428 -99.198356 
L 262.317296 -99.198356 
L 263.730311 -99.198356 
L 265.143327 -99.198356 
L 266.556343 -99.541918 
L 267.969359 -99.541918 
L 269.382375 -99.541918 
L 270.795391 -99.541918 
L 272.208407 -99.541918 
L 273.621423 -104.980892 
L 275.034439 -104.980892 
L 276.447455 -104.980892 
L 277.860471 -104.980892 
L 279.273487 -104.980892 
L 280.686503 -121.849526 
L 282.099519 -121.849526 
L 283.512535 -121.849526 
L 284.925551 -121.849526 
L 286.338567 -121.849526 
L 287.751583 -121.849526 
L 289.164599 -133.379257 
L 290.577615 -133.379257 
L 291.990631 -133.379257 
L 293.403646 -133.379257 
L 294.816662 -133.379257 
L 296.229678 -150.297881 
L 297.642694 -150.297881 
L 299.05571 -150.297881 
L 300.468726 -150.297881 
L 301.881742 -150.297881 
L 303.294758 -150.297881 
L 304.707774 -145.326387 
L 306.12079 -145.326387 
L 307.533806 -145.326387 
L 308.946822 -145.326387 
L 310.359838 -145.326387 
L 311.772854 -113.393865 
L 313.18587 -113.393865 
L 314.598886 -113.393865 
L 316.011902 -113.393865 
L 317.424918 -113.393865 
L 318.837934 -113.393865 
L 320.25095 -114.122923 
L 321.663966 -114.122923 
L 323.076982 -114.122923 
L 324.489997 -114.122923 
L 325.903013 -114.122923 
L 327.316029 -111.318922 
L 328.729045 -111.318922 
L 330.142061 -111.318922 
L 331.555077 -111.318922 
L 332.968093 -111.318922 
L 334.381109 -111.318922 
L 335.794125 -111.064234 
L 337.207141 -111.064234 
L 338.620157 -111.064234 
L 340.033173 -111.064234 
L 341.446189 -111.064234 
L 342.859205 -110.99639 
L 344.272221 -110.99639 
L 345.685237 -110.99639 
L 347.098253 -110.99639 
L 348.511269 -110.99639 
L 349.924285 -111.017551 
L 351.337301 -111.017551 
L 352.750317 -111.017551 
L 354.163332 -111.017551 
L 355.576348 -111.017551 
L 356.989364 -111.017551 
L 358.40238 -111.01165 
L 359.815396 -111.01165 
L 361.228412 -111.01165 
L 362.641428 -111.01165 
L 364.054444 -111.01165 
L 365.46746 -110.940952 
L 366.880476 -110.940952 
L 368.293492 -110.940952 
L 369.706508 -110.940952 
L 371.119524 -110.940952 
L 372.53254 -110.940952 
L 373.945556 -111.038181 
L 375.358572 -111.038181 
L 376.771588 -111.038181 
L 378.184604 -111.038181 
L 379.59762 -111.038181 
L 381.010636 -111.002107 
L 382.423652 -111.002107 
L 383.836668 -111.002107 
L 385.249683 -111.002107 
L 386.662699 -111.002107 
L 388.075715 -111.002107 
L 389.488731 -142.367753 
L 390.901747 -142.367753 
L 392.314763 -142.367753 
L 393.727779 -142.367753 
L 395.140795 -142.367753 
L 396.553811 -155.139375 
L 397.966827 -155.139375 
L 399.379843 -155.139375 
L 400.792859 -155.139375 
L 402.205875 -155.139375 
L 403.618891 -155.718029 
L 405.031907 -155.718029 
L 406.444923 -155.718029 
L 407.857939 -155.718029 
L 409.270955 -155.718029 
L 410.683971 -155.718029 
L 412.096987 -155.718029 
L 413.510003 -155.718029 
L 414.923018 -155.718029 
L 416.336034 -155.718029 
L 417.74905 -155.718029 
L 419.162066 -155.718029 
L 420.575082 -155.718029 
L 421.988098 -155.718029 
L 423.401114 -155.718029 
L 424.81413 -155.718029 
L 426.227146 -155.718029 
L 427.640162 -155.832451 
L 429.053178 -155.832451 
L 430.466194 -155.832451 
L 431.87921 -155.832451 
L 433.292226 -155.832451 
L 434.705242 -155.718029 
L 436.118258 -155.718029 
L 437.531274 -155.718029 
L 438.94429 -155.718029 
L 440.357306 -155.718029 
L 441.770322 -155.718029 
L 443.183338 -155.718029 
L 444.596354 -155.718029 
L 446.009369 -155.718029 
L 447.422385 -155.718029 
L 448.835401 -155.718029 
L 450.248417 -155.498242 
L 451.661433 -155.498242 
L 453.074449 -155.498242 
L 454.487465 -155.498242 
L 455.900481 -155.498242 
L 457.313497 -155.498242 
L 458.726513 -155.598624 
L 460.139529 -155.598624 
L 461.552545 -155.598624 
L 462.965561 -155.598624 
L 464.378577 -155.598624 
L 465.791593 -162.381715 
L 467.204609 -162.381715 
L 468.617625 -162.381715 
L 470.030641 -162.381715 
L 471.443657 -162.381715 
L 472.856673 -178.958054 
L 474.269689 -178.958054 
L 475.682704 -178.958054 
L 477.09572 -178.958054 
L 478.508736 -178.958054 
L 479.921752 -178.958054 
L 481.334768 -180.155612 
L 482.747784 -180.155612 
L 484.1608 -180.155612 
L 485.573816 -180.155612 
L 486.986832 -180.155612 
L 488.399848 -180.177289 
L 489.812864 -180.177289 
L 491.22588 -180.177289 
L 492.638896 -180.177289 
L 494.051912 -180.177289 
L 495.464928 -180.177289 
L 496.877944 -180.140189 
L 498.29096 -180.140189 
L 499.703976 -180.140189 
L 501.116992 -180.140189 
L 502.530008 -180.140189 
L 503.943024 -179.986783 
L 505.35604 -179.986783 
L 506.769055 -179.986783 
L 508.182071 -179.986783 
L 509.595087 -179.986783 
L 511.008103 -179.986783 
L 512.421119 -180.125917 
L 513.834135 -180.125917 
L 515.247151 -180.125917 
L 516.660167 -180.125917 
L 518.073183 -180.125917 
L 519.486199 -180.112292 
L 520.899215 -180.112292 
L 522.312231 -180.112292 
L 523.725247 -180.112292 
L 525.138263 -180.112292 
L 526.551279 -180.112292 
L 527.964295 -180.140189 
L 529.377311 -180.140189 
L 530.790327 -180.140189 
L 532.203343 -180.140189 
L 533.616359 -180.140189 
L 535.029375 -179.856882 
L 536.44239 -179.856882 
L 537.855406 -179.856882 
L 539.268422 -179.856882 
L 540.681438 -179.856882 
L 542.094454 -174.749697 
L 543.50747 -174.749697 
L 544.920486 -174.749697 
L 546.333502 -174.749697 
L 547.746518 -174.749697 
L 549.159534 -174.749697 
L 550.57255 -190.834582 
L 551.985566 -190.834582 
L 553.398582 -190.834582 
L 554.811598 -190.834582 
L 556.224614 -190.834582 
L 557.63763 -191.726496 
L 559.050646 -191.726496 
L 560.463662 -191.726496 
L 561.876678 -191.726496 
L 563.289694 -191.726496 
L 564.70271 -191.726496 
L 566.115726 -191.726496 
L 567.528741 -191.726496 
L 568.941757 -191.726496 
L 570.354773 -191.726496 
L 571.767789 -191.726496 
L 573.180805 -191.694028 
L 574.593821 -191.694028 
L 576.006837 -191.694028 
L 577.419853 -191.694028 
L 578.832869 -191.694028 
L 580.245885 -191.694028 
L 581.658901 -191.691426 
L 583.071917 -191.691426 
L 584.484933 -191.691426 
L 585.897949 -191.691426 
L 587.310965 -191.691426 
L 588.723981 -191.704793 
L 590.136997 -191.704793 
L 591.550013 -191.704793 
L 592.963029 -191.704793 
L 594.376045 -191.704793 
L 595.789061 -191.704793 
L 597.202076 -191.704793 
L 598.615092 -191.704793 
L 600.028108 -191.704793 
L 601.441124 -191.704793 
L 602.85414 -191.704793 
L 604.267156 -191.608302 
L 605.680172 -191.608302 
L 607.093188 -191.608302 
L 608.506204 -191.608302 
L 609.91922 -191.608302 
L 611.332236 -191.644183 
L 612.745252 -191.644183 
L 614.158268 -191.644183 
L 615.571284 -191.644183 
L 616.9843 -191.644183 
L 618.397316 -191.644183 
L 619.810332 -191.691426 
L 621.223348 -191.691426 
L 622.636364 -191.691426 
L 622.636364 -182.076606 
L 622.636364 -182.076606 
L 621.223348 -182.076606 
L 619.810332 -182.076606 
L 618.397316 -181.957001 
L 616.9843 -181.957001 
L 615.571284 -181.957001 
L 614.158268 -181.957001 
L 612.745252 -181.957001 
L 611.332236 -181.957001 
L 609.91922 -181.93797 
L 608.506204 -181.93797 
L 607.093188 -181.93797 
L 605.680172 -181.93797 
L 604.267156 -181.93797 
L 602.85414 -181.952359 
L 601.441124 -181.952359 
L 600.028108 -181.952359 
L 598.615092 -181.952359 
L 597.202076 -181.952359 
L 595.789061 -181.952359 
L 594.376045 -181.952359 
L 592.963029 -181.952359 
L 591.550013 -181.952359 
L 590.136997 -181.952359 
L 588.723981 -181.952359 
L 587.310965 -182.076606 
L 585.897949 -182.076606 
L 584.484933 -182.076606 
L 583.071917 -182.076606 
L 581.658901 -182.076606 
L 580.245885 -181.852244 
L 578.832869 -181.852244 
L 577.419853 -181.852244 
L 576.006837 -181.852244 
L 574.593821 -181.852244 
L 573.180805 -181.852244 
L 571.767789 -181.819776 
L 570.354773 -181.819776 
L 568.941757 -181.819776 
L 567.528741 -181.819776 
L 566.115726 -181.819776 
L 564.70271 -181.819776 
L 563.289694 -181.819776 
L 561.876678 -181.819776 
L 560.463662 -181.819776 
L 559.050646 -181.819776 
L 557.63763 -181.819776 
L 556.224614 -180.65513 
L 554.811598 -180.65513 
L 553.398582 -180.65513 
L 551.985566 -180.65513 
L 550.57255 -180.65513 
L 549.159534 -167.338863 
L 547.746518 -167.338863 
L 546.333502 -167.338863 
L 544.920486 -167.338863 
L 543.50747 -167.338863 
L 542.094454 -167.338863 
L 540.681438 -169.957902 
L 539.268422 -169.957902 
L 537.855406 -169.957902 
L 536.44239 -169.957902 
L 535.029375 -169.957902 
L 533.616359 -170.119171 
L 532.203343 -170.119171 
L 530.790327 -170.119171 
L 529.377311 -170.119171 
L 527.964295 -170.119171 
L 526.551279 -170.258476 
L 525.138263 -170.258476 
L 523.725247 -170.258476 
L 522.312231 -170.258476 
L 520.899215 -170.258476 
L 519.486199 -170.258476 
L 518.073183 -170.189411 
L 516.660167 -170.189411 
L 515.247151 -170.189411 
L 513.834135 -170.189411 
L 512.421119 -170.189411 
L 511.008103 -169.994321 
L 509.595087 -169.994321 
L 508.182071 -169.994321 
L 506.769055 -169.994321 
L 505.35604 -169.994321 
L 503.943024 -169.994321 
L 502.530008 -170.119171 
L 501.116992 -170.119171 
L 499.703976 -170.119171 
L 498.29096 -170.119171 
L 496.877944 -170.119171 
L 495.464928 -170.137511 
L 494.051912 -170.137511 
L 492.638896 -170.137511 
L 491.22588 -170.137511 
L 489.812864 -170.137511 
L 488.399848 -170.137511 
L 486.986832 -170.048308 
L 485.573816 -170.048308 
L 484.1608 -170.048308 
L 482.747784 -170.048308 
L 481.334768 -170.048308 
L 479.921752 -169.41001 
L 478.508736 -169.41001 
L 477.09572 -169.41001 
L 475.682704 -169.41001 
L 474.269689 -169.41001 
L 472.856673 -169.41001 
L 471.443657 -149.971469 
L 470.030641 -149.971469 
L 468.617625 -149.971469 
L 467.204609 -149.971469 
L 465.791593 -149.971469 
L 464.378577 -143.693424 
L 462.965561 -143.693424 
L 461.552545 -143.693424 
L 460.139529 -143.693424 
L 458.726513 -143.693424 
L 457.313497 -143.571518 
L 455.900481 -143.571518 
L 454.487465 -143.571518 
L 453.074449 -143.571518 
L 451.661433 -143.571518 
L 450.248417 -143.571518 
L 448.835401 -143.740339 
L 447.422385 -143.740339 
L 446.009369 -143.740339 
L 444.596354 -143.740339 
L 443.183338 -143.740339 
L 441.770322 -143.740339 
L 440.357306 -143.740339 
L 438.94429 -143.740339 
L 437.531274 -143.740339 
L 436.118258 -143.740339 
L 434.705242 -143.740339 
L 433.292226 -143.070461 
L 431.87921 -143.070461 
L 430.466194 -143.070461 
L 429.053178 -143.070461 
L 427.640162 -143.070461 
L 426.227146 -143.740339 
L 424.81413 -143.740339 
L 423.401114 -143.740339 
L 421.988098 -143.740339 
L 420.575082 -143.740339 
L 419.162066 -143.740339 
L 417.74905 -143.740339 
L 416.336034 -143.740339 
L 414.923018 -143.740339 
L 413.510003 -143.740339 
L 412.096987 -143.740339 
L 410.683971 -143.740339 
L 409.270955 -143.740339 
L 407.857939 -143.740339 
L 406.444923 -143.740339 
L 405.031907 -143.740339 
L 403.618891 -143.740339 
L 402.205875 -143.320545 
L 400.792859 -143.320545 
L 399.379843 -143.320545 
L 397.966827 -143.320545 
L 396.553811 -143.320545 
L 395.140795 -131.691703 
L 393.727779 -131.691703 
L 392.314763 -131.691703 
L 390.901747 -131.691703 
L 389.488731 -131.691703 
L 388.075715 -108.090437 
L 386.662699 -108.090437 
L 385.249683 -108.090437 
L 383.836668 -108.090437 
L 382.423652 -108.090437 
L 381.010636 -108.090437 
L 379.59762 -108.109803 
L 378.184604 -108.109803 
L 376.771588 -108.109803 
L 375.358572 -108.109803 
L 373.945556 -108.109803 
L 372.53254 -108.095624 
L 371.119524 -108.095624 
L 369.706508 -108.095624 
L 368.293492 -108.095624 
L 366.880476 -108.095624 
L 365.46746 -108.095624 
L 364.054444 -108.080894 
L 362.641428 -108.080894 
L 361.228412 -108.080894 
L 359.815396 -108.080894 
L 358.40238 -108.080894 
L 356.989364 -108.019553 
L 355.576348 -108.019553 
L 354.163332 -108.019553 
L 352.750317 -108.019553 
L 351.337301 -108.019553 
L 349.924285 -108.019553 
L 348.511269 -108.263002 
L 347.098253 -108.263002 
L 345.685237 -108.263002 
L 344.272221 -108.263002 
L 342.859205 -108.263002 
L 341.446189 -108.13919 
L 340.033173 -108.13919 
L 338.620157 -108.13919 
L 337.207141 -108.13919 
L 335.794125 -108.13919 
L 334.381109 -108.10679 
L 332.968093 -108.10679 
L 331.555077 -108.10679 
L 330.142061 -108.10679 
L 328.729045 -108.10679 
L 327.316029 -108.10679 
L 325.903013 -100.633685 
L 324.489997 -100.633685 
L 323.076982 -100.633685 
L 321.663966 -100.633685 
L 320.25095 -100.633685 
L 318.837934 -89.579895 
L 317.424918 -89.579895 
L 316.011902 -89.579895 
L 314.598886 -89.579895 
L 313.18587 -89.579895 
L 311.772854 -89.579895 
L 310.359838 -88.549788 
L 308.946822 -88.549788 
L 307.533806 -88.549788 
L 306.12079 -88.549788 
L 304.707774 -88.549788 
L 303.294758 -81.57749 
L 301.881742 -81.57749 
L 300.468726 -81.57749 
L 299.05571 -81.57749 
L 297.642694 -81.57749 
L 296.229678 -81.57749 
L 294.816662 -71.929742 
L 293.403646 -71.929742 
L 291.990631 -71.929742 
L 290.577615 -71.929742 
L 289.164599 -71.929742 
L 287.751583 -60.893967 
L 286.338567 -60.893967 
L 284.925551 -60.893967 
L 283.512535 -60.893967 
L 282.099519 -60.893967 
L 280.686503 -60.893967 
L 279.273487 -57.587193 
L 277.860471 -57.587193 
L 276.447455 -57.587193 
L 275.034439 -57.587193 
L 273.621423 -57.587193 
L 272.208407 -53.022151 
L 270.795391 -53.022151 
L 269.382375 -53.022151 
L 267.969359 -53.022151 
L 266.556343 -53.022151 
L 265.143327 -53.088354 
L 263.730311 -53.088354 
L 262.317296 -53.088354 
L 260.90428 -53.088354 
L 259.491264 -53.088354 
L 258.078248 -53.088354 
L 256.665232 -55.887616 
L 255.252216 -55.887616 
L 253.8392 -55.887616 
L 252.426184 -55.887616 
L 251.013168 -55.887616 
L 249.600152 -62.00954 
L 248.187136 -62.00954 
L 246.77412 -62.00954 
L 245.361104 -62.00954 
L 243.948088 -62.00954 
L 242.535072 -62.00954 
L 241.122056 -66.455434 
L 239.70904 -66.455434 
L 238.296024 -66.455434 
L 236.883008 -66.455434 
L 235.469992 -66.455434 
L 234.056976 -66.573001 
L 232.64396 -66.573001 
L 231.230945 -66.573001 
L 229.817929 -66.573001 
L 228.404913 -66.573001 
L 226.991897 -66.573001 
L 225.578881 -70.496567 
L 224.165865 -70.496567 
L 222.752849 -70.496567 
L 221.339833 -70.496567 
L 219.926817 -70.496567 
L 218.513801 -70.496567 
L 217.100785 -70.496567 
L 215.687769 -70.496567 
L 214.274753 -70.496567 
L 212.861737 -70.496567 
L 211.448721 -70.496567 
L 210.035705 -70.514301 
L 208.622689 -70.514301 
L 207.209673 -70.514301 
L 205.796657 -70.514301 
L 204.383641 -70.514301 
L 202.970625 -70.276433 
L 201.55761 -70.276433 
L 200.144594 -70.276433 
L 198.731578 -70.276433 
L 197.318562 -70.276433 
L 195.905546 -70.278521 
L 194.49253 -70.278521 
L 193.079514 -70.278521 
L 191.666498 -70.278521 
L 190.253482 -70.278521 
L 188.840466 -70.278521 
L 187.42745 -69.945473 
L 186.014434 -69.945473 
L 184.601418 -69.945473 
L 183.188402 -69.945473 
L 181.775386 -69.945473 
L 180.36237 -69.766411 
L 178.949354 -69.766411 
L 177.536338 -69.766411 
L 176.123322 -69.766411 
L 174.710306 -69.766411 
L 173.29729 -69.766411 
L 171.884274 -70.132978 
L 170.471259 -70.132978 
L 169.058243 -70.132978 
L 167.645227 -70.132978 
L 166.232211 -70.132978 
L 164.819195 -70.311911 
L 163.406179 -70.311911 
L 161.993163 -70.311911 
L 160.580147 -70.311911 
L 159.167131 -70.311911 
L 157.754115 -70.311911 
L 156.341099 -69.909912 
L 154.928083 -69.909912 
L 153.515067 -69.909912 
L 152.102051 -69.909912 
L 150.689035 -69.909912 
L 149.276019 -72.556652 
L 147.863003 -72.556652 
L 146.449987 -72.556652 
L 145.036971 -72.556652 
L 143.623955 -72.556652 
L 142.210939 -72.577228 
L 140.797924 -72.577228 
L 139.384908 -72.577228 
L 137.971892 -72.577228 
L 136.558876 -72.577228 
L 135.14586 -72.577228 
L 133.732844 -72.691505 
L 132.319828 -72.691505 
L 130.906812 -72.691505 
L 129.493796 -72.691505 
L 128.08078 -72.691505 
L 126.667764 -72.738823 
L 125.254748 -72.738823 
L 123.841732 -72.738823 
L 122.428716 -72.738823 
L 121.0157 -72.738823 
L 119.602684 -72.738823 
L 118.189668 -72.695112 
L 116.776652 -72.695112 
L 115.363636 -72.695112 
z
" style="stroke: #bddf26; stroke-opacity: 0.2"/>
    </defs>
    <g clip-path="url(#p713c1072d6)">
     <use xlink:href="#m2832e39055" x="0" y="360" style="fill: #bddf26; fill-opacity: 0.2; stroke: #bddf26; stroke-opacity: 0.2"/>
    </g>
   </g>
   <g id="matplotlib.axis_1">
    <g id="xtick_1">
     <g id="line2d_1">
      <defs>
       <path id="ma7e0636eb5" d="M 0 0 
L 0 3.5 
" style="stroke: #000000; stroke-width: 0.8"/>
      </defs>
      <g>
       <use xlink:href="#ma7e0636eb5" x="146.107438" y="320.4" style="stroke: #000000; stroke-width: 0.8"/>
      </g>
     </g>
     <g id="text_1">
      <!-- $\mathdefault{100}$ -->
      <g transform="translate(135.498905 337.431808) scale(0.145 -0.145)">
       <defs>
        <path id="CMR17-31" d="M 1702 4058 
C 1702 4192 1696 4192 1606 4192 
C 1357 3916 979 3827 621 3827 
C 602 3827 570 3827 563 3808 
C 557 3795 557 3782 557 3648 
C 755 3648 1088 3686 1344 3839 
L 1344 461 
C 1344 236 1331 160 781 160 
L 589 160 
L 589 0 
C 896 0 1216 0 1523 0 
C 1830 0 2150 0 2458 0 
L 2458 160 
L 2266 160 
C 1715 160 1702 230 1702 458 
L 1702 4058 
z
" transform="scale(0.015625)"/>
        <path id="CMR17-30" d="M 2688 2025 
C 2688 2416 2682 3080 2413 3591 
C 2176 4039 1798 4198 1466 4198 
C 1158 4198 768 4058 525 3597 
C 269 3118 243 2524 243 2025 
C 243 1661 250 1106 448 619 
C 723 -39 1216 -128 1466 -128 
C 1760 -128 2208 -7 2470 600 
C 2662 1042 2688 1559 2688 2025 
z
M 1466 -26 
C 1056 -26 813 325 723 812 
C 653 1188 653 1738 653 2096 
C 653 2588 653 2997 736 3387 
C 858 3929 1216 4096 1466 4096 
C 1728 4096 2067 3923 2189 3400 
C 2272 3036 2278 2607 2278 2096 
C 2278 1680 2278 1169 2202 792 
C 2067 95 1690 -26 1466 -26 
z
" transform="scale(0.015625)"/>
       </defs>
       <use xlink:href="#CMR17-31" transform="scale(0.996264)"/>
       <use xlink:href="#CMR17-30" transform="translate(45.690477 0) scale(0.996264)"/>
       <use xlink:href="#CMR17-30" transform="translate(91.380954 0) scale(0.996264)"/>
      </g>
     </g>
    </g>
    <g id="xtick_2">
     <g id="line2d_2">
      <g>
       <use xlink:href="#ma7e0636eb5" x="222.966942" y="320.4" style="stroke: #000000; stroke-width: 0.8"/>
      </g>
     </g>
     <g id="text_2">
      <!-- $\mathdefault{200}$ -->
      <g transform="translate(212.358409 337.431808) scale(0.145 -0.145)">
       <defs>
        <path id="CMR17-32" d="M 2669 989 
L 2554 989 
C 2490 536 2438 459 2413 420 
C 2381 369 1920 369 1830 369 
L 602 369 
C 832 619 1280 1072 1824 1597 
C 2214 1967 2669 2402 2669 3035 
C 2669 3790 2067 4224 1395 4224 
C 691 4224 262 3604 262 3030 
C 262 2780 448 2748 525 2748 
C 589 2748 781 2787 781 3010 
C 781 3207 614 3264 525 3264 
C 486 3264 448 3258 422 3245 
C 544 3790 915 4058 1306 4058 
C 1862 4058 2227 3617 2227 3035 
C 2227 2479 1901 2000 1536 1584 
L 262 146 
L 262 0 
L 2515 0 
L 2669 989 
z
" transform="scale(0.015625)"/>
       </defs>
       <use xlink:href="#CMR17-32" transform="scale(0.996264)"/>
       <use xlink:href="#CMR17-30" transform="translate(45.690477 0) scale(0.996264)"/>
       <use xlink:href="#CMR17-30" transform="translate(91.380954 0) scale(0.996264)"/>
      </g>
     </g>
    </g>
    <g id="xtick_3">
     <g id="line2d_3">
      <g>
       <use xlink:href="#ma7e0636eb5" x="299.826446" y="320.4" style="stroke: #000000; stroke-width: 0.8"/>
      </g>
     </g>
     <g id="text_3">
      <!-- $\mathdefault{300}$ -->
      <g transform="translate(289.217913 337.431808) scale(0.145 -0.145)">
       <defs>
        <path id="CMR17-33" d="M 1414 2157 
C 1984 2157 2234 1662 2234 1090 
C 2234 320 1824 25 1453 25 
C 1114 25 563 194 390 693 
C 422 680 454 680 486 680 
C 640 680 755 782 755 948 
C 755 1133 614 1216 486 1216 
C 378 1216 211 1165 211 926 
C 211 335 787 -128 1466 -128 
C 2176 -128 2720 430 2720 1085 
C 2720 1707 2208 2157 1600 2227 
C 2086 2328 2554 2756 2554 3329 
C 2554 3820 2048 4179 1472 4179 
C 890 4179 378 3829 378 3329 
C 378 3110 544 3072 627 3072 
C 762 3072 877 3155 877 3321 
C 877 3486 762 3569 627 3569 
C 602 3569 570 3569 544 3557 
C 730 3959 1235 4032 1459 4032 
C 1683 4032 2106 3925 2106 3320 
C 2106 3143 2080 2828 1862 2550 
C 1670 2304 1453 2304 1242 2284 
C 1210 2284 1062 2269 1037 2269 
C 992 2263 966 2257 966 2208 
C 966 2163 973 2157 1101 2157 
L 1414 2157 
z
" transform="scale(0.015625)"/>
       </defs>
       <use xlink:href="#CMR17-33" transform="scale(0.996264)"/>
       <use xlink:href="#CMR17-30" transform="translate(45.690477 0) scale(0.996264)"/>
       <use xlink:href="#CMR17-30" transform="translate(91.380954 0) scale(0.996264)"/>
      </g>
     </g>
    </g>
    <g id="xtick_4">
     <g id="line2d_4">
      <g>
       <use xlink:href="#ma7e0636eb5" x="376.68595" y="320.4" style="stroke: #000000; stroke-width: 0.8"/>
      </g>
     </g>
     <g id="text_4">
      <!-- $\mathdefault{400}$ -->
      <g transform="translate(366.077417 337.431808) scale(0.145 -0.145)">
       <defs>
        <path id="CMR17-34" d="M 2150 4122 
C 2150 4256 2144 4256 2029 4256 
L 128 1254 
L 128 1088 
L 1779 1088 
L 1779 457 
C 1779 224 1766 160 1318 160 
L 1197 160 
L 1197 0 
C 1402 0 1747 0 1965 0 
C 2182 0 2528 0 2733 0 
L 2733 160 
L 2611 160 
C 2163 160 2150 224 2150 457 
L 2150 1088 
L 2803 1088 
L 2803 1254 
L 2150 1254 
L 2150 4122 
z
M 1798 3703 
L 1798 1254 
L 256 1254 
L 1798 3703 
z
" transform="scale(0.015625)"/>
       </defs>
       <use xlink:href="#CMR17-34" transform="scale(0.996264)"/>
       <use xlink:href="#CMR17-30" transform="translate(45.690477 0) scale(0.996264)"/>
       <use xlink:href="#CMR17-30" transform="translate(91.380954 0) scale(0.996264)"/>
      </g>
     </g>
    </g>
    <g id="xtick_5">
     <g id="line2d_5">
      <g>
       <use xlink:href="#ma7e0636eb5" x="453.545455" y="320.4" style="stroke: #000000; stroke-width: 0.8"/>
      </g>
     </g>
     <g id="text_5">
      <!-- $\mathdefault{500}$ -->
      <g transform="translate(442.936921 337.431808) scale(0.145 -0.145)">
       <defs>
        <path id="CMR17-35" d="M 730 3692 
C 794 3666 1056 3584 1325 3584 
C 1920 3584 2246 3911 2432 4100 
C 2432 4157 2432 4192 2394 4192 
C 2387 4192 2374 4192 2323 4163 
C 2099 4058 1837 3973 1517 3973 
C 1325 3973 1037 3999 723 4139 
C 653 4171 640 4171 634 4171 
C 602 4171 595 4164 595 4037 
L 595 2203 
C 595 2089 595 2057 659 2057 
C 691 2057 704 2070 736 2114 
C 941 2401 1222 2522 1542 2522 
C 1766 2522 2246 2382 2246 1289 
C 2246 1085 2246 715 2054 421 
C 1894 159 1645 25 1370 25 
C 947 25 518 320 403 814 
C 429 807 480 795 506 795 
C 589 795 749 840 749 1038 
C 749 1210 627 1280 506 1280 
C 358 1280 262 1190 262 1011 
C 262 454 704 -128 1382 -128 
C 2042 -128 2669 440 2669 1264 
C 2669 2030 2170 2624 1549 2624 
C 1222 2624 947 2503 730 2274 
L 730 3692 
z
" transform="scale(0.015625)"/>
       </defs>
       <use xlink:href="#CMR17-35" transform="scale(0.996264)"/>
       <use xlink:href="#CMR17-30" transform="translate(45.690477 0) scale(0.996264)"/>
       <use xlink:href="#CMR17-30" transform="translate(91.380954 0) scale(0.996264)"/>
      </g>
     </g>
    </g>
    <g id="xtick_6">
     <g id="line2d_6">
      <g>
       <use xlink:href="#ma7e0636eb5" x="530.404959" y="320.4" style="stroke: #000000; stroke-width: 0.8"/>
      </g>
     </g>
     <g id="text_6">
      <!-- $\mathdefault{600}$ -->
      <g transform="translate(519.796425 337.431808) scale(0.145 -0.145)">
       <defs>
        <path id="CMR17-36" d="M 678 2176 
C 678 3690 1395 4032 1811 4032 
C 1946 4032 2272 4009 2400 3776 
C 2298 3776 2106 3776 2106 3553 
C 2106 3381 2246 3323 2336 3323 
C 2394 3323 2566 3348 2566 3560 
C 2566 3954 2246 4179 1805 4179 
C 1043 4179 243 3390 243 1984 
C 243 253 966 -128 1478 -128 
C 2099 -128 2688 427 2688 1283 
C 2688 2081 2170 2662 1517 2662 
C 1126 2662 838 2407 678 1960 
L 678 2176 
z
M 1478 25 
C 691 25 691 1200 691 1436 
C 691 1896 909 2560 1504 2560 
C 1613 2560 1926 2560 2138 2120 
C 2253 1870 2253 1609 2253 1289 
C 2253 944 2253 690 2118 434 
C 1978 171 1773 25 1478 25 
z
" transform="scale(0.015625)"/>
       </defs>
       <use xlink:href="#CMR17-36" transform="scale(0.996264)"/>
       <use xlink:href="#CMR17-30" transform="translate(45.690477 0) scale(0.996264)"/>
       <use xlink:href="#CMR17-30" transform="translate(91.380954 0) scale(0.996264)"/>
      </g>
     </g>
    </g>
    <g id="xtick_7">
     <g id="line2d_7">
      <g>
       <use xlink:href="#ma7e0636eb5" x="607.264463" y="320.4" style="stroke: #000000; stroke-width: 0.8"/>
      </g>
     </g>
     <g id="text_7">
      <!-- $\mathdefault{700}$ -->
      <g transform="translate(596.655929 337.431808) scale(0.145 -0.145)">
       <defs>
        <path id="CMR17-37" d="M 2886 3941 
L 2886 4081 
L 1382 4081 
C 634 4081 621 4165 595 4288 
L 480 4288 
L 294 3094 
L 410 3094 
C 429 3215 474 3540 550 3661 
C 589 3712 1062 3712 1171 3712 
L 2579 3712 
L 1869 2661 
C 1395 1954 1069 999 1069 165 
C 1069 89 1069 -128 1299 -128 
C 1530 -128 1530 89 1530 171 
L 1530 465 
C 1530 1508 1709 2196 2003 2636 
L 2886 3941 
z
" transform="scale(0.015625)"/>
       </defs>
       <use xlink:href="#CMR17-37" transform="scale(0.996264)"/>
       <use xlink:href="#CMR17-30" transform="translate(45.690477 0) scale(0.996264)"/>
       <use xlink:href="#CMR17-30" transform="translate(91.380954 0) scale(0.996264)"/>
      </g>
     </g>
    </g>
    <g id="text_8">
     <!-- time (s) -->
     <g transform="translate(345.477317 355.075073) scale(0.145 -0.145)">
      <defs>
       <path id="CMSS17-74" d="M 1069 2368 
L 1901 2368 
L 1901 2737 
L 1069 2737 
L 1069 3520 
L 614 3520 
L 614 2737 
L 109 2737 
L 109 2368 
L 602 2368 
L 602 749 
C 602 384 685 -64 1107 -64 
C 1427 -64 1722 25 2003 172 
L 1901 548 
C 1747 414 1562 337 1363 337 
C 1082 337 1069 696 1069 856 
L 1069 2368 
z
" transform="scale(0.015625)"/>
       <path id="CMSS17-69" d="M 979 4183 
L 442 4183 
L 442 3648 
L 979 3648 
L 979 4183 
z
M 947 2739 
L 474 2739 
L 474 0 
L 947 0 
L 947 2739 
z
" transform="scale(0.015625)"/>
       <path id="CMSS17-6d" d="M 4288 1877 
C 4288 2308 4179 2816 3462 2816 
C 2982 2816 2694 2516 2566 2331 
C 2451 2670 2182 2816 1798 2816 
C 1363 2816 1088 2568 941 2389 
L 941 2758 
L 474 2758 
L 474 0 
L 960 0 
L 960 1559 
C 960 1939 1101 2428 1555 2428 
C 2138 2428 2138 2016 2138 1829 
L 2138 0 
L 2624 0 
L 2624 1559 
C 2624 1939 2765 2428 3219 2428 
C 3802 2428 3802 2016 3802 1829 
L 3802 0 
L 4288 0 
L 4288 1877 
z
" transform="scale(0.015625)"/>
       <path id="CMSS17-65" d="M 2502 1377 
C 2502 1590 2490 2003 2285 2345 
C 2061 2713 1696 2816 1421 2816 
C 755 2816 192 2188 192 1375 
C 192 582 774 -64 1510 -64 
C 1798 -64 2150 19 2470 248 
C 2470 274 2458 414 2451 420 
C 2451 433 2432 630 2432 656 
C 2125 407 1773 325 1517 325 
C 1107 325 666 667 646 1377 
L 2502 1377 
z
M 698 1728 
C 781 2084 1062 2421 1421 2421 
C 1517 2421 1965 2421 2080 1728 
L 698 1728 
z
" transform="scale(0.015625)"/>
       <path id="CMSS17-28" d="M 1613 4768 
C 1267 4417 474 3601 474 1588 
C 474 -433 1267 -1243 1613 -1600 
L 2003 -1600 
C 1216 -784 960 357 960 1581 
C 960 2798 1203 3946 2003 4768 
L 1613 4768 
z
" transform="scale(0.015625)"/>
       <path id="CMSS17-73" d="M 2061 2627 
C 1683 2807 1389 2807 1197 2807 
C 742 2807 198 2648 198 2003 
C 198 1359 902 1218 1094 1179 
C 1389 1122 1715 1058 1715 740 
C 1715 337 1254 337 1171 337 
C 915 337 563 407 243 638 
L 166 210 
C 531 0 883 -64 1178 -64 
C 1965 -64 2163 416 2163 781 
C 2163 1094 1984 1305 1862 1401 
C 1651 1568 1574 1587 1050 1696 
C 960 1709 646 1779 646 2066 
C 646 2432 1050 2432 1139 2432 
C 1555 2432 1811 2303 1984 2208 
L 2061 2627 
z
" transform="scale(0.015625)"/>
       <path id="CMSS17-29" d="M 723 -1600 
C 1069 -1249 1862 -433 1862 1581 
C 1862 3601 1069 4411 723 4768 
L 333 4768 
C 1120 3952 1376 2811 1376 1588 
C 1376 370 1133 -778 333 -1600 
L 723 -1600 
z
" transform="scale(0.015625)"/>
      </defs>
      <use xlink:href="#CMSS17-74" transform="scale(0.996264)"/>
      <use xlink:href="#CMSS17-69" transform="translate(33.831567 0) scale(0.996264)"/>
      <use xlink:href="#CMSS17-6d" transform="translate(56.01229 0) scale(0.996264)"/>
      <use xlink:href="#CMSS17-65" transform="translate(130.241544 0) scale(0.996264)"/>
      <use xlink:href="#CMSS17-28" transform="translate(203.109479 0) scale(0.996264)"/>
      <use xlink:href="#CMSS17-73" transform="translate(239.543393 0) scale(0.996264)"/>
      <use xlink:href="#CMSS17-29" transform="translate(275.456935 0) scale(0.996264)"/>
     </g>
    </g>
   </g>
   <g id="matplotlib.axis_2">
    <g id="ytick_1">
     <g id="line2d_8">
      <path d="M 90 320.4 
L 648 320.4 
" clip-path="url(#p713c1072d6)" style="fill: none; stroke-dasharray: 1.85,0.8; stroke-dashoffset: 0; stroke: #808080; stroke-width: 0.5"/>
     </g>
     <g id="line2d_9">
      <defs>
       <path id="m8c92479297" d="M 0 0 
L -3.5 0 
" style="stroke: #000000; stroke-width: 0.8"/>
      </defs>
      <g>
       <use xlink:href="#m8c92479297" x="90" y="320.4" style="stroke: #000000; stroke-width: 0.8"/>
      </g>
     </g>
     <g id="text_9">
      <!-- $\mathdefault{0.0}$ -->
      <g transform="translate(64.926206 325.415904) scale(0.145 -0.145)">
       <defs>
        <path id="CMMI12-3a" d="M 1178 307 
C 1178 492 1024 619 870 619 
C 685 619 557 466 557 313 
C 557 128 710 0 864 0 
C 1050 0 1178 153 1178 307 
z
" transform="scale(0.015625)"/>
       </defs>
       <use xlink:href="#CMR17-30" transform="scale(0.996264)"/>
       <use xlink:href="#CMMI12-3a" transform="translate(45.690477 0) scale(0.996264)"/>
       <use xlink:href="#CMR17-30" transform="translate(72.787654 0) scale(0.996264)"/>
      </g>
     </g>
    </g>
    <g id="ytick_2">
     <g id="line2d_10">
      <path d="M 90 267.6 
L 648 267.6 
" clip-path="url(#p713c1072d6)" style="fill: none; stroke-dasharray: 1.85,0.8; stroke-dashoffset: 0; stroke: #808080; stroke-width: 0.5"/>
     </g>
     <g id="line2d_11">
      <g>
       <use xlink:href="#m8c92479297" x="90" y="267.6" style="stroke: #000000; stroke-width: 0.8"/>
      </g>
     </g>
     <g id="text_10">
      <!-- $\mathdefault{0.2}$ -->
      <g transform="translate(64.926206 272.615904) scale(0.145 -0.145)">
       <use xlink:href="#CMR17-30" transform="scale(0.996264)"/>
       <use xlink:href="#CMMI12-3a" transform="translate(45.690477 0) scale(0.996264)"/>
       <use xlink:href="#CMR17-32" transform="translate(72.787654 0) scale(0.996264)"/>
      </g>
     </g>
    </g>
    <g id="ytick_3">
     <g id="line2d_12">
      <path d="M 90 214.8 
L 648 214.8 
" clip-path="url(#p713c1072d6)" style="fill: none; stroke-dasharray: 1.85,0.8; stroke-dashoffset: 0; stroke: #808080; stroke-width: 0.5"/>
     </g>
     <g id="line2d_13">
      <g>
       <use xlink:href="#m8c92479297" x="90" y="214.8" style="stroke: #000000; stroke-width: 0.8"/>
      </g>
     </g>
     <g id="text_11">
      <!-- $\mathdefault{0.4}$ -->
      <g transform="translate(64.926206 219.815904) scale(0.145 -0.145)">
       <use xlink:href="#CMR17-30" transform="scale(0.996264)"/>
       <use xlink:href="#CMMI12-3a" transform="translate(45.690477 0) scale(0.996264)"/>
       <use xlink:href="#CMR17-34" transform="translate(72.787654 0) scale(0.996264)"/>
      </g>
     </g>
    </g>
    <g id="ytick_4">
     <g id="line2d_14">
      <path d="M 90 162 
L 648 162 
" clip-path="url(#p713c1072d6)" style="fill: none; stroke-dasharray: 1.85,0.8; stroke-dashoffset: 0; stroke: #808080; stroke-width: 0.5"/>
     </g>
     <g id="line2d_15">
      <g>
       <use xlink:href="#m8c92479297" x="90" y="162" style="stroke: #000000; stroke-width: 0.8"/>
      </g>
     </g>
     <g id="text_12">
      <!-- $\mathdefault{0.6}$ -->
      <g transform="translate(64.926206 167.015904) scale(0.145 -0.145)">
       <use xlink:href="#CMR17-30" transform="scale(0.996264)"/>
       <use xlink:href="#CMMI12-3a" transform="translate(45.690477 0) scale(0.996264)"/>
       <use xlink:href="#CMR17-36" transform="translate(72.787654 0) scale(0.996264)"/>
      </g>
     </g>
    </g>
    <g id="ytick_5">
     <g id="line2d_16">
      <path d="M 90 109.2 
L 648 109.2 
" clip-path="url(#p713c1072d6)" style="fill: none; stroke-dasharray: 1.85,0.8; stroke-dashoffset: 0; stroke: #808080; stroke-width: 0.5"/>
     </g>
     <g id="line2d_17">
      <g>
       <use xlink:href="#m8c92479297" x="90" y="109.2" style="stroke: #000000; stroke-width: 0.8"/>
      </g>
     </g>
     <g id="text_13">
      <!-- $\mathdefault{0.8}$ -->
      <g transform="translate(64.926206 114.215904) scale(0.145 -0.145)">
       <defs>
        <path id="CMR17-38" d="M 1741 2264 
C 2144 2467 2554 2773 2554 3263 
C 2554 3841 1990 4179 1472 4179 
C 890 4179 378 3759 378 3180 
C 378 3021 416 2747 666 2505 
C 730 2442 998 2251 1171 2130 
C 883 1983 211 1634 211 934 
C 211 279 838 -128 1459 -128 
C 2144 -128 2720 362 2720 1010 
C 2720 1590 2330 1857 2074 2029 
L 1741 2264 
z
M 902 2822 
C 851 2854 595 3051 595 3351 
C 595 3739 998 4032 1459 4032 
C 1965 4032 2336 3676 2336 3262 
C 2336 2669 1670 2331 1638 2331 
C 1632 2331 1626 2331 1574 2370 
L 902 2822 
z
M 2080 1519 
C 2176 1449 2483 1240 2483 851 
C 2483 381 2010 25 1472 25 
C 890 25 448 438 448 940 
C 448 1443 838 1862 1280 2060 
L 2080 1519 
z
" transform="scale(0.015625)"/>
       </defs>
       <use xlink:href="#CMR17-30" transform="scale(0.996264)"/>
       <use xlink:href="#CMMI12-3a" transform="translate(45.690477 0) scale(0.996264)"/>
       <use xlink:href="#CMR17-38" transform="translate(72.787654 0) scale(0.996264)"/>
      </g>
     </g>
    </g>
    <g id="ytick_6">
     <g id="line2d_18">
      <path d="M 90 56.4 
L 648 56.4 
" clip-path="url(#p713c1072d6)" style="fill: none; stroke-dasharray: 1.85,0.8; stroke-dashoffset: 0; stroke: #808080; stroke-width: 0.5"/>
     </g>
     <g id="line2d_19">
      <g>
       <use xlink:href="#m8c92479297" x="90" y="56.4" style="stroke: #000000; stroke-width: 0.8"/>
      </g>
     </g>
     <g id="text_14">
      <!-- $\mathdefault{1.0}$ -->
      <g transform="translate(64.926206 61.415904) scale(0.145 -0.145)">
       <use xlink:href="#CMR17-31" transform="scale(0.996264)"/>
       <use xlink:href="#CMMI12-3a" transform="translate(45.690477 0) scale(0.996264)"/>
       <use xlink:href="#CMR17-30" transform="translate(72.787654 0) scale(0.996264)"/>
      </g>
     </g>
    </g>
    <g id="text_15">
     <!-- QoS -->
     <g transform="translate(58.117312 194.481753) rotate(-90) scale(0.145 -0.145)">
      <defs>
       <path id="CMSS17-51" d="M 3200 202 
C 3981 833 4096 1689 4096 2174 
C 4096 3501 3219 4497 2214 4497 
C 1210 4497 333 3497 333 2178 
C 333 847 1222 -128 2214 -128 
C 2438 -128 2630 -77 2765 -26 
L 3302 -832 
L 3930 -832 
L 3200 202 
z
M 2528 324 
C 2438 293 2330 273 2214 273 
C 1523 273 858 993 858 2178 
C 858 3357 1517 4096 2214 4096 
C 2918 4096 3571 3350 3571 2178 
C 3571 1771 3507 1089 2950 566 
L 2490 1210 
L 1939 1210 
L 2528 324 
z
" transform="scale(0.015625)"/>
       <path id="CMSS17-6f" d="M 2829 1356 
C 2829 2176 2221 2816 1504 2816 
C 768 2816 173 2157 173 1356 
C 173 544 787 -64 1498 -64 
C 2227 -64 2829 563 2829 1356 
z
M 1504 337 
C 1050 337 659 709 659 1408 
C 659 2151 1114 2427 1498 2427 
C 1914 2427 2342 2126 2342 1408 
C 2342 683 1926 337 1504 337 
z
" transform="scale(0.015625)"/>
       <path id="CMSS17-53" d="M 2797 4169 
C 2515 4334 2208 4480 1690 4480 
C 864 4480 333 3879 333 3266 
C 333 3025 403 2753 653 2475 
C 902 2196 1184 2121 1542 2033 
C 1690 1994 1939 1924 1984 1906 
C 2342 1767 2515 1444 2515 1140 
C 2515 742 2202 318 1645 318 
C 1453 318 890 318 358 819 
L 269 318 
C 794 -64 1363 -128 1651 -128 
C 2438 -128 3002 488 3002 1186 
C 3002 1440 2925 1763 2656 2061 
C 2394 2347 2163 2410 1638 2549 
C 1338 2626 1146 2677 986 2873 
C 877 3013 819 3146 819 3317 
C 819 3673 1126 4060 1690 4060 
C 1971 4060 2336 4002 2707 3660 
L 2797 4169 
z
" transform="scale(0.015625)"/>
      </defs>
      <use xlink:href="#CMSS17-51" transform="scale(0.996264)"/>
      <use xlink:href="#CMSS17-6f" transform="translate(69.024255 0) scale(0.996264)"/>
      <use xlink:href="#CMSS17-53" transform="translate(115.867879 0) scale(0.996264)"/>
     </g>
    </g>
   </g>
   <g id="line2d_20">
    <path d="M 115.363636 163.528296 
L 149.276019 163.500576 
L 150.689035 190.59516 
L 156.341099 190.59516 
L 157.754115 195.819456 
L 164.819195 195.819456 
L 166.232211 195.208296 
L 171.884274 195.208296 
L 173.29729 195.347424 
L 202.970625 195.375144 
L 205.796657 195.458568 
L 225.578881 195.514008 
L 226.991897 215.91144 
L 234.056976 215.91144 
L 235.469992 230.278848 
L 241.122056 230.278848 
L 242.535072 229.667688 
L 249.600152 229.667688 
L 251.013168 230.167704 
L 256.665232 230.167704 
L 258.078248 229.917696 
L 303.294758 229.973136 
L 304.707774 236.058864 
L 310.359838 236.058864 
L 311.772854 265.738272 
L 318.837934 265.738272 
L 320.25095 267.822552 
L 325.903013 267.822552 
L 327.316029 268.267128 
L 364.054444 268.239144 
L 365.46746 268.405728 
L 372.53254 268.405728 
L 373.945556 268.239144 
L 388.075715 268.239144 
L 389.488731 244.979424 
L 395.140795 244.979424 
L 396.553811 237.448296 
L 402.205875 237.448296 
L 403.618891 236.865384 
L 410.683971 236.865384 
L 412.096987 236.587128 
L 426.227146 236.587128 
L 427.640162 236.781696 
L 433.292226 236.781696 
L 434.705242 236.615112 
L 448.835401 236.615112 
L 450.248417 236.86512 
L 457.313497 236.86512 
L 458.726513 236.726256 
L 464.378577 236.726256 
L 465.791593 226.415736 
L 471.443657 226.415736 
L 472.856673 210.548016 
L 479.921752 210.548016 
L 481.334768 208.908576 
L 518.073183 208.880592 
L 519.486199 208.741464 
L 526.551279 208.741464 
L 529.377311 208.852608 
L 540.681438 208.936032 
L 542.094454 211.21488 
L 549.159534 211.21488 
L 550.57255 190.956576 
L 556.224614 190.956576 
L 557.63763 188.872296 
L 564.70271 188.872296 
L 566.115726 188.511144 
L 609.91922 188.594304 
L 611.332236 188.81712 
L 618.397316 188.81712 
L 619.810332 188.678256 
L 622.636364 188.678256 
L 622.636364 188.678256 
" clip-path="url(#p713c1072d6)" style="fill: none; stroke: #482475; stroke-width: 2.5; stroke-linecap: square"/>
   </g>
   <g id="line2d_21">
    <path d="M 115.363636 284.190024 
L 118.189668 284.190024 
L 121.0157 284.301432 
L 149.276019 284.384592 
L 150.689035 287.136 
L 156.341099 287.136 
L 157.754115 286.663704 
L 164.819195 286.663704 
L 166.232211 286.82976 
L 171.884274 286.82976 
L 173.29729 287.080032 
L 180.36237 287.080032 
L 183.188402 286.968888 
L 187.42745 286.968888 
L 188.840466 286.80204 
L 202.970625 286.77432 
L 204.383641 286.607736 
L 225.578881 286.552296 
L 226.991897 291.109807 
L 234.056976 291.109807 
L 235.469992 290.859931 
L 241.122056 290.859931 
L 242.535072 287.941939 
L 249.600152 287.941939 
L 251.013168 285.579641 
L 256.665232 285.579641 
L 258.078248 283.856645 
L 265.143327 283.856645 
L 266.556343 283.717966 
L 272.208407 283.717966 
L 273.621423 278.715958 
L 279.273487 278.715958 
L 280.686503 268.628254 
L 287.751583 268.628254 
L 289.164599 257.345501 
L 294.816662 257.345501 
L 296.229678 244.062314 
L 303.294758 244.062314 
L 304.707774 243.061913 
L 310.359838 243.061913 
L 311.772854 258.51312 
L 318.837934 258.51312 
L 320.25095 252.621696 
L 325.903013 252.621696 
L 327.316029 250.287144 
L 334.381109 250.287144 
L 337.207141 250.398288 
L 388.075715 250.453728 
L 389.488731 222.970272 
L 395.140795 222.970272 
L 396.553811 210.77004 
L 402.205875 210.77004 
L 403.618891 210.270816 
L 426.227146 210.270816 
L 427.640162 210.548544 
L 433.292226 210.548544 
L 434.705242 210.270816 
L 448.835401 210.270816 
L 450.248417 210.46512 
L 457.313497 210.46512 
L 460.139529 210.353976 
L 464.378577 210.353976 
L 465.791593 203.823408 
L 471.443657 203.823408 
L 472.856673 185.815968 
L 479.921752 185.815968 
L 481.334768 184.89804 
L 502.530008 184.87032 
L 503.943024 185.009448 
L 511.008103 185.009448 
L 512.421119 184.842336 
L 533.616359 184.87032 
L 535.029375 185.092608 
L 540.681438 185.092608 
L 542.094454 188.95572 
L 549.159534 188.95572 
L 550.57255 174.255144 
L 556.224614 174.255144 
L 557.63763 173.226864 
L 622.636364 173.115984 
L 622.636364 173.115984 
" clip-path="url(#p713c1072d6)" style="fill: none; stroke: #bddf26; stroke-width: 2.5; stroke-linecap: square"/>
   </g>
   <g id="patch_3">
    <path d="M 90 320.4 
L 90 43.2 
" style="fill: none; stroke: #000000; stroke-width: 0.8; stroke-linejoin: miter; stroke-linecap: square"/>
   </g>
   <g id="patch_4">
    <path d="M 648 320.4 
L 648 43.2 
" style="fill: none; stroke: #000000; stroke-width: 0.8; stroke-linejoin: miter; stroke-linecap: square"/>
   </g>
   <g id="patch_5">
    <path d="M 90 320.4 
L 648 320.4 
" style="fill: none; stroke: #000000; stroke-width: 0.8; stroke-linejoin: miter; stroke-linecap: square"/>
   </g>
   <g id="text_16">
    <!-- $nt=Barabsi$ $d=1000$ $oc=1\%$ $l=costant$ -->
    <g transform="translate(203.829518 37.2) scale(0.18 -0.18)">
     <defs>
      <path id="CMMI12-6e" d="M 1318 1871 
C 1331 1910 1491 2229 1728 2433 
C 1894 2586 2112 2689 2362 2689 
C 2618 2689 2707 2497 2707 2242 
C 2707 1878 2445 1150 2317 805 
C 2259 651 2227 568 2227 453 
C 2227 166 2426 -64 2733 -64 
C 3328 -64 3552 875 3552 913 
C 3552 945 3526 971 3488 971 
C 3430 971 3424 952 3392 843 
C 3245 319 3002 64 2752 64 
C 2688 64 2586 64 2586 269 
C 2586 429 2656 621 2694 710 
C 2822 1063 3091 1780 3091 2145 
C 3091 2528 2867 2816 2381 2816 
C 1811 2816 1510 2415 1395 2255 
C 1376 2618 1114 2816 832 2816 
C 627 2816 486 2695 378 2478 
C 262 2248 173 1865 173 1839 
C 173 1814 198 1782 243 1782 
C 294 1782 301 1788 339 1935 
C 442 2325 557 2689 813 2689 
C 960 2689 1011 2586 1011 2395 
C 1011 2254 947 2005 902 1807 
L 723 1118 
C 698 996 627 709 595 594 
C 550 428 480 128 480 96 
C 480 6 550 -64 646 -64 
C 723 -64 813 -26 864 70 
C 877 102 934 326 966 453 
L 1107 1028 
L 1318 1871 
z
" transform="scale(0.015625)"/>
      <path id="CMMI12-74" d="M 1286 2566 
L 1875 2566 
C 1997 2566 2061 2566 2061 2681 
C 2061 2752 2022 2752 1894 2752 
L 1331 2752 
L 1568 3692 
C 1594 3781 1594 3794 1594 3840 
C 1594 3943 1510 4000 1427 4000 
C 1376 4000 1229 3981 1178 3775 
L 928 2752 
L 326 2752 
C 198 2752 141 2752 141 2630 
C 141 2566 186 2566 307 2566 
L 877 2566 
L 454 881 
C 403 658 384 594 384 511 
C 384 211 595 -64 954 -64 
C 1600 -64 1946 868 1946 912 
C 1946 951 1920 970 1882 970 
C 1869 970 1843 970 1830 944 
C 1824 938 1818 931 1773 829 
C 1638 511 1344 64 973 64 
C 781 64 768 224 768 364 
C 768 370 768 492 787 568 
L 1286 2566 
z
" transform="scale(0.015625)"/>
      <path id="CMR17-3d" d="M 4115 2017 
C 4211 2017 4307 2017 4307 2125 
C 4307 2240 4198 2240 4090 2240 
L 512 2240 
C 403 2240 294 2240 294 2125 
C 294 2017 390 2017 486 2017 
L 4115 2017 
z
M 4090 896 
C 4198 896 4307 896 4307 1011 
C 4307 1119 4211 1119 4115 1119 
L 486 1119 
C 390 1119 294 1119 294 1011 
C 294 896 403 896 512 896 
L 4090 896 
z
" transform="scale(0.015625)"/>
      <path id="CMMI12-42" d="M 2342 3921 
C 2400 4160 2426 4160 2675 4160 
L 3507 4160 
C 4230 4160 4230 3544 4230 3485 
C 4230 2966 3712 2304 2867 2304 
L 1946 2304 
L 2342 3921 
z
M 3424 2275 
C 4122 2402 4755 2886 4755 3473 
C 4755 3970 4314 4352 3590 4352 
L 1536 4352 
C 1414 4352 1357 4352 1357 4226 
C 1357 4160 1414 4160 1510 4160 
C 1901 4160 1901 4112 1901 4044 
C 1901 4032 1901 3993 1875 3897 
L 1011 472 
C 954 249 941 185 493 185 
C 371 185 307 185 307 70 
C 307 0 346 0 474 0 
L 2669 0 
C 3648 0 4403 739 4403 1383 
C 4403 1906 3942 2224 3424 2275 
z
M 2515 185 
L 1651 185 
C 1562 185 1549 185 1510 192 
C 1440 198 1434 211 1434 261 
C 1434 305 1446 343 1459 399 
L 1907 2176 
L 3110 2176 
C 3866 2176 3866 1483 3866 1433 
C 3866 828 3309 185 2515 185 
z
" transform="scale(0.015625)"/>
      <path id="CMMI12-61" d="M 1926 760 
C 1894 651 1894 639 1805 517 
C 1664 338 1382 64 1082 64 
C 819 64 672 300 672 677 
C 672 1028 870 1743 992 2012 
C 1210 2459 1510 2689 1760 2689 
C 2182 2689 2266 2165 2266 2114 
C 2266 2108 2246 2024 2240 2012 
L 1926 760 
z
M 2336 2395 
C 2266 2561 2093 2816 1760 2816 
C 1037 2816 256 1884 256 939 
C 256 307 627 -64 1062 -64 
C 1414 -64 1715 211 1894 422 
C 1958 45 2259 -64 2451 -64 
C 2643 -64 2797 51 2912 281 
C 3014 498 3104 888 3104 913 
C 3104 945 3078 971 3040 971 
C 2982 971 2976 939 2950 843 
C 2854 466 2733 64 2470 64 
C 2285 64 2272 230 2272 358 
C 2272 505 2291 575 2349 824 
C 2394 984 2426 1124 2477 1309 
C 2714 2267 2771 2497 2771 2535 
C 2771 2625 2701 2695 2605 2695 
C 2400 2695 2349 2472 2336 2395 
z
" transform="scale(0.015625)"/>
      <path id="CMMI12-72" d="M 2490 2612 
C 2291 2574 2189 2433 2189 2293 
C 2189 2139 2310 2088 2400 2088 
C 2579 2088 2726 2242 2726 2433 
C 2726 2638 2528 2816 2208 2816 
C 1952 2816 1658 2701 1389 2312 
C 1344 2650 1088 2816 832 2816 
C 582 2816 454 2625 378 2484 
C 269 2254 173 1871 173 1839 
C 173 1814 198 1782 243 1782 
C 294 1782 301 1788 339 1935 
C 435 2318 557 2689 813 2689 
C 966 2689 1011 2580 1011 2395 
C 1011 2254 947 2005 902 1807 
L 723 1118 
C 698 996 627 709 595 594 
C 550 428 480 128 480 96 
C 480 6 550 -64 646 -64 
C 717 -64 838 -19 877 109 
C 896 160 1133 1124 1171 1271 
C 1203 1411 1242 1546 1274 1686 
C 1299 1775 1325 1878 1344 1961 
C 1363 2018 1536 2331 1696 2472 
C 1773 2542 1939 2689 2202 2689 
C 2304 2689 2406 2670 2490 2612 
z
" transform="scale(0.015625)"/>
      <path id="CMMI12-62" d="M 1478 4257 
C 1485 4283 1498 4321 1498 4352 
C 1498 4416 1434 4416 1421 4416 
C 1414 4416 1184 4393 1069 4377 
C 960 4377 864 4358 749 4358 
C 595 4345 550 4339 550 4224 
C 550 4160 614 4160 678 4160 
C 1005 4160 1005 4103 1005 4040 
C 1005 3996 954 3811 928 3696 
L 774 3085 
C 710 2831 346 1387 320 1272 
C 288 1114 288 1005 288 922 
C 288 274 653 -64 1069 -64 
C 1811 -64 2579 888 2579 1814 
C 2579 2401 2246 2816 1766 2816 
C 1434 2816 1133 2542 1011 2414 
L 1478 4257 
z
M 1075 64 
C 870 64 646 217 646 715 
C 646 926 666 1047 781 1494 
C 800 1577 902 1986 928 2069 
C 941 2120 1318 2689 1754 2689 
C 2035 2689 2163 2408 2163 2076 
C 2163 1769 1984 1047 1824 715 
C 1664 370 1370 64 1075 64 
z
" transform="scale(0.015625)"/>
      <path id="CMMI12-73" d="M 1459 1280 
C 1568 1261 1741 1223 1779 1216 
C 1862 1192 2150 1090 2150 783 
C 2150 586 1971 70 1229 70 
C 1094 70 614 70 486 436 
C 742 404 870 603 870 745 
C 870 880 781 950 653 950 
C 512 950 326 841 326 552 
C 326 173 710 -64 1222 -64 
C 2195 -64 2483 651 2483 984 
C 2483 1079 2483 1258 2278 1462 
C 2118 1616 1965 1648 1619 1718 
C 1446 1756 1171 1814 1171 2101 
C 1171 2229 1286 2689 1894 2689 
C 2163 2689 2426 2589 2490 2368 
C 2208 2368 2195 2125 2195 2119 
C 2195 1984 2317 1946 2374 1946 
C 2464 1946 2643 2015 2643 2281 
C 2643 2545 2400 2816 1901 2816 
C 1062 2816 838 2160 838 1899 
C 838 1414 1312 1312 1459 1280 
z
" transform="scale(0.015625)"/>
      <path id="CMMI12-69" d="M 1811 913 
C 1811 945 1786 971 1747 971 
C 1690 971 1683 952 1651 843 
C 1485 262 1222 64 1011 64 
C 934 64 845 83 845 275 
C 845 447 922 639 992 830 
L 1440 2018 
C 1459 2069 1504 2184 1504 2305 
C 1504 2574 1312 2816 998 2816 
C 410 2816 173 1890 173 1839 
C 173 1814 198 1782 243 1782 
C 301 1782 307 1807 333 1896 
C 486 2428 730 2682 979 2682 
C 1037 2682 1146 2682 1146 2478 
C 1146 2312 1062 2101 1011 1961 
L 563 773 
C 525 671 486 568 486 453 
C 486 166 685 -64 992 -64 
C 1581 -64 1811 869 1811 913 
z
M 1760 4013 
C 1760 4109 1683 4224 1542 4224 
C 1395 4224 1229 4083 1229 3917 
C 1229 3758 1363 3707 1440 3707 
C 1613 3707 1760 3873 1760 4013 
z
" transform="scale(0.015625)"/>
      <path id="CMMI12-64" d="M 3219 4257 
C 3226 4282 3238 4320 3238 4352 
C 3238 4416 3174 4416 3162 4416 
C 3155 4416 2842 4388 2810 4380 
C 2701 4373 2605 4358 2490 4358 
C 2330 4345 2285 4339 2285 4224 
C 2285 4160 2336 4160 2426 4160 
C 2739 4160 2746 4103 2746 4040 
C 2746 4002 2733 3952 2726 3933 
L 2336 2395 
C 2266 2561 2093 2816 1760 2816 
C 1037 2816 256 1884 256 939 
C 256 307 627 -64 1062 -64 
C 1414 -64 1715 211 1894 422 
C 1958 45 2259 -64 2451 -64 
C 2643 -64 2797 51 2912 281 
C 3014 498 3104 888 3104 913 
C 3104 945 3078 971 3040 971 
C 2982 971 2976 939 2950 843 
C 2854 466 2733 64 2470 64 
C 2285 64 2272 229 2272 357 
C 2272 382 2272 515 2317 694 
L 3219 4257 
z
M 1926 760 
C 1894 651 1894 639 1805 517 
C 1664 338 1382 64 1082 64 
C 819 64 672 300 672 677 
C 672 1028 870 1743 992 2012 
C 1210 2459 1510 2689 1760 2689 
C 2182 2689 2266 2165 2266 2114 
C 2266 2108 2246 2024 2240 2012 
L 1926 760 
z
" transform="scale(0.015625)"/>
      <path id="CMMI12-6f" d="M 2918 1756 
C 2918 2363 2522 2816 1939 2816 
C 1094 2816 262 1897 262 996 
C 262 390 659 -64 1242 -64 
C 2093 -64 2918 856 2918 1756 
z
M 1248 64 
C 928 64 691 319 691 766 
C 691 1060 845 1712 1024 2031 
C 1312 2523 1670 2689 1933 2689 
C 2246 2689 2490 2433 2490 1986 
C 2490 1731 2355 1047 2112 658 
C 1850 230 1498 64 1248 64 
z
" transform="scale(0.015625)"/>
      <path id="CMMI12-63" d="M 2502 2431 
C 2381 2431 2323 2431 2234 2355 
C 2195 2323 2125 2227 2125 2125 
C 2125 1997 2221 1920 2342 1920 
C 2496 1920 2669 2044 2669 2292 
C 2669 2588 2374 2816 1933 2816 
C 1094 2816 256 1903 256 996 
C 256 441 602 -64 1254 -64 
C 2125 -64 2675 622 2675 706 
C 2675 744 2637 776 2611 776 
C 2592 776 2586 770 2528 713 
C 2118 162 1510 64 1267 64 
C 826 64 685 446 685 764 
C 685 988 794 1605 1024 2039 
C 1190 2338 1536 2682 1939 2682 
C 2022 2682 2374 2682 2502 2431 
z
" transform="scale(0.015625)"/>
      <path id="CMR17-25" d="M 4640 959 
C 4640 1698 4275 2240 3846 2240 
C 3411 2240 2970 1736 2970 959 
C 2970 183 3405 -320 3846 -320 
C 4275 -320 4640 215 4640 959 
z
M 3853 -218 
C 3686 -218 3270 -66 3270 959 
C 3270 1991 3686 2138 3853 2138 
C 4205 2138 4525 1634 4525 959 
C 4525 285 4205 -218 3853 -218 
z
M 4083 4577 
C 4128 4647 4134 4653 4134 4685 
C 4134 4761 4077 4800 4026 4800 
C 3962 4800 3936 4756 3891 4706 
C 3520 4190 3008 4134 2746 4134 
C 2106 4134 1715 4494 1594 4607 
C 1510 4682 1389 4800 1171 4800 
C 736 4800 294 4296 294 3519 
C 294 2743 730 2240 1171 2240 
C 1600 2240 1965 2778 1965 3527 
C 1965 3969 1830 4270 1811 4308 
C 2202 4064 2586 4032 2752 4032 
C 3162 4032 3456 4183 3616 4289 
L 3622 4283 
L 858 -84 
C 800 -174 800 -187 800 -206 
C 800 -276 858 -320 915 -320 
C 973 -320 992 -289 1037 -218 
L 4083 4577 
z
M 1178 2342 
C 1011 2342 595 2494 595 3519 
C 595 4551 1011 4698 1178 4698 
C 1530 4698 1850 4194 1850 3519 
C 1850 2845 1530 2342 1178 2342 
z
" transform="scale(0.015625)"/>
      <path id="CMMI12-6c" d="M 1626 4257 
C 1632 4282 1645 4320 1645 4352 
C 1645 4416 1581 4416 1568 4416 
C 1562 4416 1331 4393 1216 4377 
C 1107 4377 1011 4358 896 4358 
C 742 4345 698 4339 698 4224 
C 698 4160 762 4160 826 4160 
C 1152 4160 1152 4102 1152 4039 
C 1152 4014 1152 4001 1120 3887 
L 326 731 
C 307 661 294 610 294 509 
C 294 191 531 -64 858 -64 
C 1069 -64 1210 76 1312 274 
C 1421 483 1510 884 1510 909 
C 1510 941 1485 967 1446 967 
C 1389 967 1382 935 1357 840 
C 1242 401 1126 64 870 64 
C 678 64 678 267 678 357 
C 678 382 678 515 723 694 
L 1626 4257 
z
" transform="scale(0.015625)"/>
     </defs>
     <use xlink:href="#CMMI12-6e" transform="scale(0.996264)"/>
     <use xlink:href="#CMMI12-74" transform="translate(58.230047 0) scale(0.996264)"/>
     <use xlink:href="#CMR17-3d" transform="translate(121.130386 0) scale(0.996264)"/>
     <use xlink:href="#CMMI12-42" transform="translate(220.519183 0) scale(0.996264)"/>
     <use xlink:href="#CMMI12-61" transform="translate(299.654707 0) scale(0.996264)"/>
     <use xlink:href="#CMMI12-72" transform="translate(350.862564 0) scale(0.996264)"/>
     <use xlink:href="#CMMI12-61" transform="translate(397.533176 0) scale(0.996264)"/>
     <use xlink:href="#CMMI12-62" transform="translate(448.741034 0) scale(0.996264)"/>
     <use xlink:href="#CMMI12-73" transform="translate(490.216908 0) scale(0.996264)"/>
     <use xlink:href="#CMMI12-69" transform="translate(536.166956 0) scale(0.996264)"/>
     <use xlink:href="#CMMI12-64" transform="translate(600.67467 0) scale(0.996264)"/>
     <use xlink:href="#CMR17-3d" transform="translate(679.037776 0) scale(0.996264)"/>
     <use xlink:href="#CMR17-31" transform="translate(778.426573 0) scale(0.996264)"/>
     <use xlink:href="#CMR17-30" transform="translate(824.11705 0) scale(0.996264)"/>
     <use xlink:href="#CMR17-30" transform="translate(869.807527 0) scale(0.996264)"/>
     <use xlink:href="#CMR17-30" transform="translate(915.498004 0) scale(0.996264)"/>
     <use xlink:href="#CMMI12-6f" transform="translate(992.417594 0) scale(0.996264)"/>
     <use xlink:href="#CMMI12-63" transform="translate(1039.312904 0) scale(0.996264)"/>
     <use xlink:href="#CMR17-3d" transform="translate(1108.970146 0) scale(0.996264)"/>
     <use xlink:href="#CMR17-31" transform="translate(1208.358943 0) scale(0.996264)"/>
     <use xlink:href="#CMR17-25" transform="translate(1254.04942 0) scale(0.996264)"/>
     <use xlink:href="#CMMI12-6c" transform="translate(1362.198123 0) scale(0.996264)"/>
     <use xlink:href="#CMR17-3d" transform="translate(1421.120536 0) scale(0.996264)"/>
     <use xlink:href="#CMMI12-63" transform="translate(1520.509333 0) scale(0.996264)"/>
     <use xlink:href="#CMMI12-6f" transform="translate(1562.492566 0) scale(0.996264)"/>
     <use xlink:href="#CMMI12-73" transform="translate(1609.387876 0) scale(0.996264)"/>
     <use xlink:href="#CMMI12-74" transform="translate(1655.337923 0) scale(0.996264)"/>
     <use xlink:href="#CMMI12-61" transform="translate(1690.564254 0) scale(0.996264)"/>
     <use xlink:href="#CMMI12-6e" transform="translate(1741.772111 0) scale(0.996264)"/>
     <use xlink:href="#CMMI12-74" transform="translate(1800.002159 0) scale(0.996264)"/>
    </g>
   </g>
  </g>
  <g id="axes_2">
   <g id="matplotlib.axis_3">
    <g id="ytick_7">
     <g id="line2d_22">
      <defs>
       <path id="mf11631c1ec" d="M 0 0 
L 3.5 0 
" style="stroke: #000000; stroke-width: 0.8"/>
      </defs>
      <g>
       <use xlink:href="#mf11631c1ec" x="648" y="320.4" style="stroke: #000000; stroke-width: 0.8"/>
      </g>
     </g>
     <g id="text_17">
      <!-- $\mathdefault{0}$ -->
      <g transform="translate(655 325.415904) scale(0.145 -0.145)">
       <use xlink:href="#CMR17-30" transform="scale(0.996264)"/>
      </g>
     </g>
    </g>
    <g id="ytick_8">
     <g id="line2d_23">
      <g>
       <use xlink:href="#mf11631c1ec" x="648" y="264.987706" style="stroke: #000000; stroke-width: 0.8"/>
      </g>
     </g>
     <g id="text_18">
      <!-- $\mathdefault{20}$ -->
      <g transform="translate(655 270.00361) scale(0.145 -0.145)">
       <use xlink:href="#CMR17-32" transform="scale(0.996264)"/>
       <use xlink:href="#CMR17-30" transform="translate(45.690477 0) scale(0.996264)"/>
      </g>
     </g>
    </g>
    <g id="ytick_9">
     <g id="line2d_24">
      <g>
       <use xlink:href="#mf11631c1ec" x="648" y="209.575412" style="stroke: #000000; stroke-width: 0.8"/>
      </g>
     </g>
     <g id="text_19">
      <!-- $\mathdefault{40}$ -->
      <g transform="translate(655 214.591316) scale(0.145 -0.145)">
       <use xlink:href="#CMR17-34" transform="scale(0.996264)"/>
       <use xlink:href="#CMR17-30" transform="translate(45.690477 0) scale(0.996264)"/>
      </g>
     </g>
    </g>
    <g id="ytick_10">
     <g id="line2d_25">
      <g>
       <use xlink:href="#mf11631c1ec" x="648" y="154.163118" style="stroke: #000000; stroke-width: 0.8"/>
      </g>
     </g>
     <g id="text_20">
      <!-- $\mathdefault{60}$ -->
      <g transform="translate(655 159.179023) scale(0.145 -0.145)">
       <use xlink:href="#CMR17-36" transform="scale(0.996264)"/>
       <use xlink:href="#CMR17-30" transform="translate(45.690477 0) scale(0.996264)"/>
      </g>
     </g>
    </g>
    <g id="ytick_11">
     <g id="line2d_26">
      <g>
       <use xlink:href="#mf11631c1ec" x="648" y="98.750825" style="stroke: #000000; stroke-width: 0.8"/>
      </g>
     </g>
     <g id="text_21">
      <!-- $\mathdefault{80}$ -->
      <g transform="translate(655 103.766729) scale(0.145 -0.145)">
       <use xlink:href="#CMR17-38" transform="scale(0.996264)"/>
       <use xlink:href="#CMR17-30" transform="translate(45.690477 0) scale(0.996264)"/>
      </g>
     </g>
    </g>
    <g id="ytick_12">
     <g id="line2d_27">
      <g>
       <use xlink:href="#mf11631c1ec" x="648" y="43.338531" style="stroke: #000000; stroke-width: 0.8"/>
      </g>
     </g>
     <g id="text_22">
      <!-- $\mathdefault{100}$ -->
      <g transform="translate(655 48.354435) scale(0.145 -0.145)">
       <use xlink:href="#CMR17-31" transform="scale(0.996264)"/>
       <use xlink:href="#CMR17-30" transform="translate(45.690477 0) scale(0.996264)"/>
       <use xlink:href="#CMR17-30" transform="translate(91.380954 0) scale(0.996264)"/>
      </g>
     </g>
    </g>
    <g id="text_23">
     <!-- CPU load in \% -->
     <g transform="translate(690.248875 226.102524) rotate(-90) scale(0.145 -0.145)">
      <defs>
       <path id="CMSS17-43" d="M 3501 714 
C 3072 427 2874 344 2355 344 
C 1459 344 934 1303 934 2179 
C 934 3112 1472 4032 2381 4032 
C 2790 4032 3059 3918 3386 3715 
L 3475 4217 
C 3168 4370 2778 4440 2387 4440 
C 1158 4440 397 3316 397 2179 
C 397 927 1299 -64 2323 -64 
C 2874 -64 3066 -19 3539 280 
L 3501 714 
z
" transform="scale(0.015625)"/>
       <path id="CMSS17-50" d="M 2106 1856 
C 2874 1856 3501 2453 3501 3158 
C 3501 3850 2899 4453 2067 4453 
L 570 4453 
L 570 0 
L 1107 0 
L 1107 1856 
L 2106 1856 
z
M 1926 4096 
C 2669 4096 2995 3627 2995 3157 
C 2995 2720 2694 2226 1926 2226 
L 1094 2226 
L 1094 4096 
L 1926 4096 
z
" transform="scale(0.015625)"/>
       <path id="CMSS17-55" d="M 3552 4384 
L 3066 4384 
L 3066 1449 
C 3066 604 2547 229 2074 229 
C 1587 229 1101 623 1101 1443 
L 1101 4384 
L 563 4384 
L 563 1454 
C 563 539 1274 -128 2067 -128 
C 2861 -128 3552 539 3552 1454 
L 3552 4384 
z
" transform="scale(0.015625)"/>
       <path id="CMSS17-6c" d="M 947 4416 
L 474 4416 
L 474 0 
L 947 0 
L 947 4416 
z
" transform="scale(0.015625)"/>
       <path id="CMSS17-61" d="M 2406 1791 
C 2406 2392 1978 2808 1402 2808 
C 1120 2808 813 2757 461 2553 
L 499 2135 
C 659 2248 934 2432 1395 2432 
C 1722 2432 1920 2180 1920 1782 
L 1920 1536 
C 896 1536 256 1238 256 726 
C 256 461 416 -64 947 -64 
C 1043 -64 1562 -64 1933 217 
L 1933 -19 
L 2406 -19 
L 2406 1791 
z
M 1920 816 
C 1920 701 1920 548 1728 434 
C 1562 325 1350 325 1261 325 
C 941 325 723 511 723 744 
C 723 1211 1722 1211 1920 1211 
L 1920 816 
z
" transform="scale(0.015625)"/>
       <path id="CMSS17-64" d="M 2611 4416 
L 2138 4416 
L 2138 2438 
C 1939 2603 1613 2756 1254 2756 
C 672 2756 211 2131 211 1347 
C 211 562 666 -64 1235 -64 
C 1677 -64 1971 172 2125 306 
L 2125 -13 
L 2611 -13 
L 2611 4416 
z
M 2125 836 
C 2125 747 2125 653 1926 482 
C 1798 375 1645 325 1498 325 
C 1152 325 698 576 698 1340 
C 698 2134 1210 2368 1562 2368 
C 1798 2368 1990 2254 2125 2065 
L 2125 836 
z
" transform="scale(0.015625)"/>
       <path id="CMSS17-6e" d="M 2618 1877 
C 2618 2283 2522 2816 1798 2816 
C 1389 2816 1120 2606 941 2389 
L 941 2758 
L 474 2758 
L 474 0 
L 960 0 
L 960 1559 
C 960 1964 1114 2428 1549 2428 
C 2112 2428 2131 2048 2131 1829 
L 2131 0 
L 2618 0 
L 2618 1877 
z
" transform="scale(0.015625)"/>
       <path id="CMSS17-25" d="M 3923 4583 
C 3962 4647 3962 4679 3962 4685 
C 3962 4755 3904 4800 3853 4800 
C 3782 4800 3750 4749 3718 4685 
L 1101 -104 
C 1088 -129 1062 -167 1062 -206 
C 1062 -276 1120 -320 1178 -320 
C 1235 -320 1248 -295 1299 -206 
L 3923 4583 
z
M 4678 959 
C 4678 1698 4282 2240 3846 2240 
C 3418 2240 3008 1711 3008 959 
C 3008 208 3418 -320 3846 -320 
C 4288 -320 4678 221 4678 959 
z
M 3846 68 
C 3712 68 3494 189 3494 959 
C 3494 1724 3712 1851 3846 1851 
C 4083 1851 4211 1386 4211 959 
C 4211 533 4083 68 3846 68 
z
M 2003 3519 
C 2003 4258 1606 4800 1171 4800 
C 742 4800 333 4271 333 3519 
C 333 2768 742 2240 1171 2240 
C 1613 2240 2003 2781 2003 3519 
z
M 1171 2628 
C 1037 2628 819 2749 819 3519 
C 819 4284 1037 4411 1171 4411 
C 1408 4411 1536 3946 1536 3519 
C 1536 3093 1408 2628 1171 2628 
z
" transform="scale(0.015625)"/>
      </defs>
      <use xlink:href="#CMSS17-43" transform="scale(0.996264)"/>
      <use xlink:href="#CMSS17-50" transform="translate(59.855772 0) scale(0.996264)"/>
      <use xlink:href="#CMSS17-55" transform="translate(119.591358 0) scale(0.996264)"/>
      <use xlink:href="#CMSS17-6c" transform="translate(214.960211 0) scale(0.996264)"/>
      <use xlink:href="#CMSS17-6f" transform="translate(237.140934 0) scale(0.996264)"/>
      <use xlink:href="#CMSS17-61" transform="translate(283.984557 0) scale(0.996264)"/>
      <use xlink:href="#CMSS17-64" transform="translate(328.906478 0) scale(0.996264)"/>
      <use xlink:href="#CMSS17-69" transform="translate(408.340534 0) scale(0.996264)"/>
      <use xlink:href="#CMSS17-6e" transform="translate(430.521257 0) scale(0.996264)"/>
      <use xlink:href="#CMSS17-25" transform="translate(509.955313 0) scale(0.996264)"/>
     </g>
    </g>
   </g>
   <g id="line2d_28">
    <path d="M 115.363636 112.603898 
L 622.636364 112.603898 
L 622.636364 112.603898 
" clip-path="url(#p713c1072d6)" style="fill: none; stroke-dasharray: 5.55,2.4; stroke-dashoffset: 0; stroke: #140e36; stroke-width: 1.5"/>
   </g>
   <g id="patch_6">
    <path d="M 90 320.4 
L 90 43.2 
" style="fill: none; stroke: #000000; stroke-width: 0.8; stroke-linejoin: miter; stroke-linecap: square"/>
   </g>
   <g id="patch_7">
    <path d="M 648 320.4 
L 648 43.2 
" style="fill: none; stroke: #000000; stroke-width: 0.8; stroke-linejoin: miter; stroke-linecap: square"/>
   </g>
   <g id="patch_8">
    <path d="M 90 320.4 
L 648 320.4 
" style="fill: none; stroke: #000000; stroke-width: 0.8; stroke-linejoin: miter; stroke-linecap: square"/>
   </g>
   <g id="patch_9">
    <path d="M 90 43.2 
L 648 43.2 
" style="fill: none; stroke: #000000; stroke-width: 0.8; stroke-linejoin: miter; stroke-linecap: square"/>
   </g>
   <g id="legend_1">
    <g id="patch_10">
     <path d="M 481.7533 313.15 
L 637.85 313.15 
Q 640.75 313.15 640.75 310.25 
L 640.75 246.612516 
Q 640.75 243.712516 637.85 243.712516 
L 481.7533 243.712516 
Q 478.8533 243.712516 478.8533 246.612516 
L 478.8533 310.25 
Q 478.8533 313.15 481.7533 313.15 
z
" style="fill: #ffffff; opacity: 0.7; stroke: #cccccc; stroke-linejoin: miter"/>
    </g>
    <g id="line2d_29">
     <path d="M 484.6533 255.271887 
L 499.1533 255.271887 
L 513.6533 255.271887 
" style="fill: none; stroke: #482475; stroke-width: 2.5; stroke-linecap: square"/>
    </g>
    <g id="text_24">
     <!-- QoS [static] -->
     <g transform="translate(525.2533 260.346887) scale(0.145 -0.145)">
      <defs>
       <path id="CMSS17-5b" d="M 1613 -1600 
L 1613 -1212 
L 1062 -1212 
L 1062 4352 
L 1613 4352 
L 1613 4741 
L 595 4741 
L 595 -1600 
L 1613 -1600 
z
" transform="scale(0.015625)"/>
       <path id="CMSS17-63" d="M 2464 2541 
C 2464 2585 2170 2714 2093 2739 
C 1882 2816 1613 2816 1542 2816 
C 710 2816 211 2093 211 1363 
C 211 595 768 -64 1517 -64 
C 1946 -64 2253 76 2502 242 
L 2464 664 
C 2189 453 1869 337 1523 337 
C 1024 337 698 774 698 1369 
C 698 1831 909 2414 1549 2414 
C 1901 2414 2099 2343 2394 2145 
L 2464 2541 
z
" transform="scale(0.015625)"/>
       <path id="CMSS17-5d" d="M 1146 4741 
L 128 4741 
L 128 4352 
L 678 4352 
L 678 -1212 
L 128 -1212 
L 128 -1600 
L 1146 -1600 
L 1146 4741 
z
" transform="scale(0.015625)"/>
      </defs>
      <use xlink:href="#CMSS17-51" transform="scale(0.996264)"/>
      <use xlink:href="#CMSS17-6f" transform="translate(69.024255 0) scale(0.996264)"/>
      <use xlink:href="#CMSS17-53" transform="translate(115.867879 0) scale(0.996264)"/>
      <use xlink:href="#CMSS17-5b" transform="translate(199.145508 0) scale(0.996264)"/>
      <use xlink:href="#CMSS17-73" transform="translate(226.330946 0) scale(0.996264)"/>
      <use xlink:href="#CMSS17-74" transform="translate(262.244488 0) scale(0.996264)"/>
      <use xlink:href="#CMSS17-61" transform="translate(296.076055 0) scale(0.996264)"/>
      <use xlink:href="#CMSS17-74" transform="translate(340.997976 0) scale(0.996264)"/>
      <use xlink:href="#CMSS17-69" transform="translate(374.829542 0) scale(0.996264)"/>
      <use xlink:href="#CMSS17-63" transform="translate(397.010265 0) scale(0.996264)"/>
      <use xlink:href="#CMSS17-5d" transform="translate(438.649088 0) scale(0.996264)"/>
     </g>
    </g>
    <g id="line2d_30">
     <path d="M 484.6533 276.967715 
L 499.1533 276.967715 
L 513.6533 276.967715 
" style="fill: none; stroke: #bddf26; stroke-width: 2.5; stroke-linecap: square"/>
    </g>
    <g id="text_25">
     <!-- QoS [dynamic] -->
     <g transform="translate(525.2533 282.042715) scale(0.145 -0.145)">
      <defs>
       <path id="CMSS17-79" d="M 2675 2752 
L 2176 2752 
C 1632 1294 1446 702 1434 383 
L 1427 383 
C 1408 696 1126 1460 902 2007 
L 602 2752 
L 83 2752 
L 1216 13 
C 1146 -178 1043 -465 1011 -529 
C 870 -885 774 -885 672 -885 
C 646 -885 442 -885 211 -809 
L 250 -1229 
C 410 -1261 570 -1280 685 -1280 
C 845 -1280 1165 -1280 1459 -497 
L 2675 2752 
z
" transform="scale(0.015625)"/>
      </defs>
      <use xlink:href="#CMSS17-51" transform="scale(0.996264)"/>
      <use xlink:href="#CMSS17-6f" transform="translate(69.024255 0) scale(0.996264)"/>
      <use xlink:href="#CMSS17-53" transform="translate(115.867879 0) scale(0.996264)"/>
      <use xlink:href="#CMSS17-5b" transform="translate(199.145508 0) scale(0.996264)"/>
      <use xlink:href="#CMSS17-64" transform="translate(226.330946 0) scale(0.996264)"/>
      <use xlink:href="#CMSS17-79" transform="translate(274.53589 0) scale(0.996264)"/>
      <use xlink:href="#CMSS17-6e" transform="translate(317.536031 0) scale(0.996264)"/>
      <use xlink:href="#CMSS17-61" transform="translate(365.740974 0) scale(0.996264)"/>
      <use xlink:href="#CMSS17-6d" transform="translate(410.662895 0) scale(0.996264)"/>
      <use xlink:href="#CMSS17-69" transform="translate(484.892149 0) scale(0.996264)"/>
      <use xlink:href="#CMSS17-63" transform="translate(507.072872 0) scale(0.996264)"/>
      <use xlink:href="#CMSS17-5d" transform="translate(548.711695 0) scale(0.996264)"/>
     </g>
    </g>
    <g id="line2d_31">
     <path d="M 484.6533 298.663543 
L 499.1533 298.663543 
L 513.6533 298.663543 
" style="fill: none; stroke-dasharray: 5.55,2.4; stroke-dashoffset: 0; stroke: #140e36; stroke-width: 1.5"/>
    </g>
    <g id="text_26">
     <!-- Load driver (right) -->
     <g transform="translate(525.2533 303.738543) scale(0.145 -0.145)">
      <defs>
       <path id="CMSS17-4c" d="M 1670 414 
C 1594 414 1517 414 1440 414 
L 1101 414 
L 1101 4416 
L 563 4416 
L 563 0 
L 3002 0 
L 3002 414 
L 1670 414 
z
" transform="scale(0.015625)"/>
       <path id="CMSS17-72" d="M 954 1363 
C 954 1965 1395 2368 1958 2368 
L 1958 2789 
C 1549 2789 1165 2585 934 2253 
L 934 2758 
L 480 2758 
L 480 0 
L 954 0 
L 954 1363 
z
" transform="scale(0.015625)"/>
       <path id="CMSS17-76" d="M 2675 2752 
L 2176 2752 
L 1747 1556 
C 1613 1165 1421 627 1389 352 
L 1382 352 
C 1370 468 1318 634 1286 749 
C 1248 890 1197 1056 1158 1172 
L 595 2752 
L 83 2752 
L 1094 0 
L 1664 0 
L 2675 2752 
z
" transform="scale(0.015625)"/>
       <path id="CMSS17-67" d="M 2848 2808 
C 2483 2808 2170 2738 1914 2617 
C 1702 2777 1485 2808 1338 2808 
C 781 2808 358 2349 358 1814 
C 358 1468 550 1207 563 1195 
C 448 1035 384 863 384 672 
C 384 448 474 289 544 200 
C 211 -3 166 -314 166 -435 
C 166 -898 749 -1280 1498 -1280 
C 2253 -1280 2835 -898 2835 -428 
C 2835 448 1856 448 1587 448 
L 1069 448 
C 973 448 717 448 717 791 
C 717 921 774 1004 781 1010 
C 877 940 1075 832 1338 832 
C 1869 832 2310 1278 2310 1827 
C 2310 2132 2170 2355 2112 2432 
L 2131 2432 
C 2150 2432 2419 2432 2515 2432 
C 2720 2432 2739 2429 2918 2419 
L 2848 2808 
z
M 1338 1182 
C 1120 1182 813 1315 813 1823 
C 813 2375 1165 2464 1331 2464 
C 1549 2464 1856 2331 1856 1823 
C 1856 1271 1504 1182 1338 1182 
z
M 1581 -10 
C 1734 -10 2381 -10 2381 -442 
C 2381 -714 1984 -929 1504 -929 
C 1018 -929 621 -720 621 -435 
C 621 -403 621 -10 1062 -10 
L 1581 -10 
z
" transform="scale(0.015625)"/>
       <path id="CMSS17-68" d="M 2618 1891 
C 2618 2292 2522 2820 1798 2820 
C 1395 2820 1133 2623 947 2407 
L 947 4448 
L 474 4448 
L 474 32 
L 960 32 
L 960 1573 
C 960 1973 1114 2432 1549 2432 
C 2112 2432 2131 2056 2131 1839 
L 2131 32 
L 2618 32 
L 2618 1891 
z
" transform="scale(0.015625)"/>
      </defs>
      <use xlink:href="#CMSS17-4c" transform="scale(0.996264)"/>
      <use xlink:href="#CMSS17-6f" transform="translate(50.687105 0) scale(0.996264)"/>
      <use xlink:href="#CMSS17-61" transform="translate(97.530729 0) scale(0.996264)"/>
      <use xlink:href="#CMSS17-64" transform="translate(142.452649 0) scale(0.996264)"/>
      <use xlink:href="#CMSS17-64" transform="translate(221.886705 0) scale(0.996264)"/>
      <use xlink:href="#CMSS17-72" transform="translate(270.091649 0) scale(0.996264)"/>
      <use xlink:href="#CMSS17-69" transform="translate(302.001421 0) scale(0.996264)"/>
      <use xlink:href="#CMSS17-76" transform="translate(324.182144 0) scale(0.996264)"/>
      <use xlink:href="#CMSS17-65" transform="translate(367.182286 0) scale(0.996264)"/>
      <use xlink:href="#CMSS17-72" transform="translate(408.821108 0) scale(0.996264)"/>
      <use xlink:href="#CMSS17-28" transform="translate(471.959993 0) scale(0.996264)"/>
      <use xlink:href="#CMSS17-72" transform="translate(508.393907 0) scale(0.996264)"/>
      <use xlink:href="#CMSS17-69" transform="translate(540.30368 0) scale(0.996264)"/>
      <use xlink:href="#CMSS17-67" transform="translate(562.484403 0) scale(0.996264)"/>
      <use xlink:href="#CMSS17-68" transform="translate(609.328026 0) scale(0.996264)"/>
      <use xlink:href="#CMSS17-74" transform="translate(657.53297 0) scale(0.996264)"/>
      <use xlink:href="#CMSS17-29" transform="translate(691.364536 0) scale(0.996264)"/>
     </g>
    </g>
   </g>
  </g>
 </g>
 <defs>
  <clipPath id="p713c1072d6">
   <rect x="90" y="43.2" width="558" height="277.2"/>
  </clipPath>
 </defs>
</svg>
