<?xml version="1.0" encoding="utf-8" standalone="no"?>
<!DOCTYPE svg PUBLIC "-//W3C//DTD SVG 1.1//EN"
  "http://www.w3.org/Graphics/SVG/1.1/DTD/svg11.dtd">
<svg xmlns:xlink="http://www.w3.org/1999/xlink" width="720pt" height="360pt" viewBox="0 0 720 360" xmlns="http://www.w3.org/2000/svg" version="1.1">
 <metadata>
  <rdf:RDF xmlns:dc="http://purl.org/dc/elements/1.1/" xmlns:cc="http://creativecommons.org/ns#" xmlns:rdf="http://www.w3.org/1999/02/22-rdf-syntax-ns#">
   <cc:Work>
    <dc:type rdf:resource="http://purl.org/dc/dcmitype/StillImage"/>
    <dc:date>2024-03-20T17:20:34.725746</dc:date>
    <dc:format>image/svg+xml</dc:format>
    <dc:creator>
     <cc:Agent>
      <dc:title>Matplotlib v3.8.0, https://matplotlib.org/</dc:title>
     </cc:Agent>
    </dc:creator>
   </cc:Work>
  </rdf:RDF>
 </metadata>
 <defs>
  <style type="text/css">*{stroke-linejoin: round; stroke-linecap: butt}</style>
 </defs>
 <g id="figure_1">
  <g id="patch_1">
   <path d="M 0 360 
L 720 360 
L 720 0 
L 0 0 
z
" style="fill: #ffffff"/>
  </g>
  <g id="axes_1">
   <g id="patch_2">
    <path d="M 90 320.4 
L 648 320.4 
L 648 43.2 
L 90 43.2 
z
" style="fill: #ffffff"/>
   </g>
   <g id="PolyCollection_1">
    <defs>
     <path id="m95a6a18e6b" d="M 115.363636 -83.16631 
L 115.363636 -86.96057 
L 116.776652 -86.96057 
L 118.189668 -86.96057 
L 119.602684 -86.99141 
L 121.0157 -86.99141 
L 122.428716 -86.99141 
L 123.841732 -86.99141 
L 125.254748 -86.99141 
L 126.667764 -86.99141 
L 128.08078 -86.96057 
L 129.493796 -86.96057 
L 130.906812 -86.96057 
L 132.319828 -86.96057 
L 133.732844 -86.96057 
L 135.14586 -86.969275 
L 136.558876 -86.969275 
L 137.971892 -86.969275 
L 139.384908 -86.969275 
L 140.797924 -86.969275 
L 142.210939 -86.969275 
L 143.623955 -86.96057 
L 145.036971 -86.96057 
L 146.449987 -86.96057 
L 147.863003 -86.96057 
L 149.276019 -86.96057 
L 150.689035 -86.96057 
L 152.102051 -86.96057 
L 153.515067 -86.96057 
L 154.928083 -86.96057 
L 156.341099 -86.96057 
L 157.754115 -86.96057 
L 159.167131 -86.96057 
L 160.580147 -86.96057 
L 161.993163 -86.96057 
L 163.406179 -86.96057 
L 164.819195 -86.96057 
L 166.232211 -86.96057 
L 167.645227 -86.96057 
L 169.058243 -86.96057 
L 170.471259 -86.96057 
L 171.884274 -86.96057 
L 173.29729 -86.962197 
L 174.710306 -86.962197 
L 176.123322 -86.962197 
L 177.536338 -86.962197 
L 178.949354 -86.962197 
L 180.36237 -86.962197 
L 181.775386 -148.709623 
L 183.188402 -148.709623 
L 184.601418 -148.709623 
L 186.014434 -148.709623 
L 187.42745 -148.709623 
L 188.840466 -172.859876 
L 190.253482 -172.859876 
L 191.666498 -172.859876 
L 193.079514 -172.859876 
L 194.49253 -172.859876 
L 195.905546 -172.859876 
L 197.318562 -172.875759 
L 198.731578 -172.875759 
L 200.144594 -172.875759 
L 201.55761 -172.875759 
L 202.970625 -172.875759 
L 204.383641 -172.875759 
L 205.796657 -172.875759 
L 207.209673 -172.875759 
L 208.622689 -172.875759 
L 210.035705 -172.875759 
L 211.448721 -172.954432 
L 212.861737 -172.954432 
L 214.274753 -172.954432 
L 215.687769 -172.954432 
L 217.100785 -172.954432 
L 218.513801 -172.954432 
L 219.926817 -173.143679 
L 221.339833 -173.143679 
L 222.752849 -173.143679 
L 224.165865 -173.143679 
L 225.578881 -173.143679 
L 226.991897 -173.042902 
L 228.404913 -173.042902 
L 229.817929 -173.042902 
L 231.230945 -173.042902 
L 232.64396 -173.042902 
L 234.056976 -173.042902 
L 235.469992 -173.042902 
L 236.883008 -173.042902 
L 238.296024 -173.042902 
L 239.70904 -173.042902 
L 241.122056 -173.042902 
L 242.535072 -173.042902 
L 243.948088 -173.042902 
L 245.361104 -173.042902 
L 246.77412 -173.042902 
L 248.187136 -173.042902 
L 249.600152 -173.042902 
L 251.013168 -173.025791 
L 252.426184 -173.025791 
L 253.8392 -173.025791 
L 255.252216 -173.025791 
L 256.665232 -173.025791 
L 258.078248 -172.996618 
L 259.491264 -172.996618 
L 260.90428 -172.996618 
L 262.317296 -172.996618 
L 263.730311 -172.996618 
L 265.143327 -172.996618 
L 266.556343 -173.010193 
L 267.969359 -173.010193 
L 269.382375 -173.010193 
L 270.795391 -173.010193 
L 272.208407 -173.010193 
L 273.621423 -173.010193 
L 275.034439 -173.010193 
L 276.447455 -173.010193 
L 277.860471 -173.010193 
L 279.273487 -173.010193 
L 280.686503 -173.229719 
L 282.099519 -173.229719 
L 283.512535 -173.229719 
L 284.925551 -173.229719 
L 286.338567 -173.229719 
L 287.751583 -173.229719 
L 289.164599 -169.011737 
L 290.577615 -169.011737 
L 291.990631 -169.011737 
L 293.403646 -169.011737 
L 294.816662 -169.011737 
L 296.229678 -134.965866 
L 297.642694 -134.965866 
L 299.05571 -134.965866 
L 300.468726 -134.965866 
L 301.881742 -134.965866 
L 303.294758 -134.965866 
L 304.707774 -134.0099 
L 306.12079 -134.0099 
L 307.533806 -134.0099 
L 308.946822 -134.0099 
L 310.359838 -134.0099 
L 311.772854 -134.052367 
L 313.18587 -134.052367 
L 314.598886 -134.052367 
L 316.011902 -134.052367 
L 317.424918 -134.052367 
L 318.837934 -134.052367 
L 320.25095 -134.052367 
L 321.663966 -134.052367 
L 323.076982 -134.052367 
L 324.489997 -134.052367 
L 325.903013 -134.052367 
L 327.316029 -134.075419 
L 328.729045 -134.075419 
L 330.142061 -134.075419 
L 331.555077 -134.075419 
L 332.968093 -134.075419 
L 334.381109 -134.075419 
L 335.794125 -134.052367 
L 337.207141 -134.052367 
L 338.620157 -134.052367 
L 340.033173 -134.052367 
L 341.446189 -134.052367 
L 342.859205 -134.052367 
L 344.272221 -134.052367 
L 345.685237 -134.052367 
L 347.098253 -134.052367 
L 348.511269 -134.052367 
L 349.924285 -134.052367 
L 351.337301 -134.052367 
L 352.750317 -134.052367 
L 354.163332 -134.052367 
L 355.576348 -134.052367 
L 356.989364 -134.052367 
L 358.40238 -134.052367 
L 359.815396 -134.052367 
L 361.228412 -134.052367 
L 362.641428 -134.052367 
L 364.054444 -134.052367 
L 365.46746 -134.052367 
L 366.880476 -134.052367 
L 368.293492 -134.052367 
L 369.706508 -134.052367 
L 371.119524 -134.052367 
L 372.53254 -134.052367 
L 373.945556 -134.052367 
L 375.358572 -134.052367 
L 376.771588 -134.052367 
L 378.184604 -134.052367 
L 379.59762 -134.052367 
L 381.010636 -134.052367 
L 382.423652 -134.052367 
L 383.836668 -134.052367 
L 385.249683 -134.052367 
L 386.662699 -134.052367 
L 388.075715 -134.052367 
L 389.488731 -134.052367 
L 390.901747 -134.052367 
L 392.314763 -134.052367 
L 393.727779 -134.052367 
L 395.140795 -134.052367 
L 396.553811 -134.052367 
L 397.966827 -134.052367 
L 399.379843 -134.052367 
L 400.792859 -134.052367 
L 402.205875 -134.052367 
L 403.618891 -194.037207 
L 405.031907 -194.037207 
L 406.444923 -194.037207 
L 407.857939 -194.037207 
L 409.270955 -194.037207 
L 410.683971 -194.037207 
L 412.096987 -203.883 
L 413.510003 -203.883 
L 414.923018 -203.883 
L 416.336034 -203.883 
L 417.74905 -203.883 
L 419.162066 -203.883 
L 420.575082 -203.883 
L 421.988098 -203.883 
L 423.401114 -203.883 
L 424.81413 -203.883 
L 426.227146 -203.883 
L 427.640162 -203.883 
L 429.053178 -203.883 
L 430.466194 -203.883 
L 431.87921 -203.883 
L 433.292226 -203.883 
L 434.705242 -203.883 
L 436.118258 -203.883 
L 437.531274 -203.883 
L 438.94429 -203.883 
L 440.357306 -203.883 
L 441.770322 -203.883 
L 443.183338 -203.883 
L 444.596354 -203.883 
L 446.009369 -203.883 
L 447.422385 -203.883 
L 448.835401 -203.883 
L 450.248417 -203.862485 
L 451.661433 -203.862485 
L 453.074449 -203.862485 
L 454.487465 -203.862485 
L 455.900481 -203.862485 
L 457.313497 -203.862485 
L 458.726513 -203.88324 
L 460.139529 -203.88324 
L 461.552545 -203.88324 
L 462.965561 -203.88324 
L 464.378577 -203.88324 
L 465.791593 -203.861353 
L 467.204609 -203.861353 
L 468.617625 -203.861353 
L 470.030641 -203.861353 
L 471.443657 -203.861353 
L 472.856673 -203.912438 
L 474.269689 -203.912438 
L 475.682704 -203.912438 
L 477.09572 -203.912438 
L 478.508736 -203.912438 
L 479.921752 -203.912438 
L 481.334768 -203.955015 
L 482.747784 -203.955015 
L 484.1608 -203.955015 
L 485.573816 -203.955015 
L 486.986832 -203.955015 
L 488.399848 -203.955015 
L 489.812864 -203.955015 
L 491.22588 -203.955015 
L 492.638896 -203.955015 
L 494.051912 -203.955015 
L 495.464928 -203.955015 
L 496.877944 -203.91455 
L 498.29096 -203.91455 
L 499.703976 -203.91455 
L 501.116992 -203.91455 
L 502.530008 -203.91455 
L 503.943024 -203.91455 
L 505.35604 -203.91455 
L 506.769055 -203.91455 
L 508.182071 -203.91455 
L 509.595087 -203.91455 
L 511.008103 -203.91455 
L 512.421119 -197.610109 
L 513.834135 -197.610109 
L 515.247151 -197.610109 
L 516.660167 -197.610109 
L 518.073183 -197.610109 
L 519.486199 -189.578248 
L 520.899215 -189.578248 
L 522.312231 -189.578248 
L 523.725247 -189.578248 
L 525.138263 -189.578248 
L 526.551279 -189.578248 
L 527.964295 -189.443559 
L 529.377311 -189.443559 
L 530.790327 -189.443559 
L 532.203343 -189.443559 
L 533.616359 -189.443559 
L 535.029375 -189.443559 
L 536.44239 -189.443559 
L 537.855406 -189.443559 
L 539.268422 -189.443559 
L 540.681438 -189.443559 
L 542.094454 -189.436862 
L 543.50747 -189.436862 
L 544.920486 -189.436862 
L 546.333502 -189.436862 
L 547.746518 -189.436862 
L 549.159534 -189.436862 
L 550.57255 -189.443559 
L 551.985566 -189.443559 
L 553.398582 -189.443559 
L 554.811598 -189.443559 
L 556.224614 -189.443559 
L 557.63763 -189.443559 
L 559.050646 -189.443559 
L 560.463662 -189.443559 
L 561.876678 -189.443559 
L 563.289694 -189.443559 
L 564.70271 -189.443559 
L 566.115726 -189.501061 
L 567.528741 -189.501061 
L 568.941757 -189.501061 
L 570.354773 -189.501061 
L 571.767789 -189.501061 
L 573.180805 -189.44787 
L 574.593821 -189.44787 
L 576.006837 -189.44787 
L 577.419853 -189.44787 
L 578.832869 -189.44787 
L 580.245885 -189.44787 
L 581.658901 -189.443559 
L 583.071917 -189.443559 
L 584.484933 -189.443559 
L 585.897949 -189.443559 
L 587.310965 -189.443559 
L 588.723981 -189.443559 
L 590.136997 -189.443559 
L 591.550013 -189.443559 
L 592.963029 -189.443559 
L 594.376045 -189.443559 
L 595.789061 -189.404308 
L 597.202076 -189.404308 
L 598.615092 -189.404308 
L 600.028108 -189.404308 
L 601.441124 -189.404308 
L 602.85414 -189.404308 
L 604.267156 -189.443559 
L 605.680172 -189.443559 
L 607.093188 -189.443559 
L 608.506204 -189.443559 
L 609.91922 -189.443559 
L 611.332236 -189.443559 
L 612.745252 -189.443559 
L 614.158268 -189.443559 
L 615.571284 -189.443559 
L 616.9843 -189.443559 
L 618.397316 -189.443559 
L 619.810332 -189.443559 
L 621.223348 -189.443559 
L 622.636364 -189.443559 
L 622.636364 -182.602137 
L 622.636364 -182.602137 
L 621.223348 -182.602137 
L 619.810332 -182.602137 
L 618.397316 -182.602137 
L 616.9843 -182.602137 
L 615.571284 -182.602137 
L 614.158268 -182.602137 
L 612.745252 -182.602137 
L 611.332236 -182.602137 
L 609.91922 -182.602137 
L 608.506204 -182.602137 
L 607.093188 -182.602137 
L 605.680172 -182.602137 
L 604.267156 -182.602137 
L 602.85414 -182.585948 
L 601.441124 -182.585948 
L 600.028108 -182.585948 
L 598.615092 -182.585948 
L 597.202076 -182.585948 
L 595.789061 -182.585948 
L 594.376045 -182.602137 
L 592.963029 -182.602137 
L 591.550013 -182.602137 
L 590.136997 -182.602137 
L 588.723981 -182.602137 
L 587.310965 -182.602137 
L 585.897949 -182.602137 
L 584.484933 -182.602137 
L 583.071917 -182.602137 
L 581.658901 -182.602137 
L 580.245885 -182.653266 
L 578.832869 -182.653266 
L 577.419853 -182.653266 
L 576.006837 -182.653266 
L 574.593821 -182.653266 
L 573.180805 -182.653266 
L 571.767789 -182.600603 
L 570.354773 -182.600603 
L 568.941757 -182.600603 
L 567.528741 -182.600603 
L 566.115726 -182.600603 
L 564.70271 -182.602137 
L 563.289694 -182.602137 
L 561.876678 -182.602137 
L 560.463662 -182.602137 
L 559.050646 -182.602137 
L 557.63763 -182.602137 
L 556.224614 -182.602137 
L 554.811598 -182.602137 
L 553.398582 -182.602137 
L 551.985566 -182.602137 
L 550.57255 -182.602137 
L 549.159534 -182.553394 
L 547.746518 -182.553394 
L 546.333502 -182.553394 
L 544.920486 -182.553394 
L 543.50747 -182.553394 
L 542.094454 -182.553394 
L 540.681438 -182.602137 
L 539.268422 -182.602137 
L 537.855406 -182.602137 
L 536.44239 -182.602137 
L 535.029375 -182.602137 
L 533.616359 -182.602137 
L 532.203343 -182.602137 
L 530.790327 -182.602137 
L 529.377311 -182.602137 
L 527.964295 -182.602137 
L 526.551279 -182.634296 
L 525.138263 -182.634296 
L 523.725247 -182.634296 
L 522.312231 -182.634296 
L 520.899215 -182.634296 
L 519.486199 -182.634296 
L 518.073183 -191.552819 
L 516.660167 -191.552819 
L 515.247151 -191.552819 
L 513.834135 -191.552819 
L 512.421119 -191.552819 
L 511.008103 -197.310538 
L 509.595087 -197.310538 
L 508.182071 -197.310538 
L 506.769055 -197.310538 
L 505.35604 -197.310538 
L 503.943024 -197.310538 
L 502.530008 -197.310538 
L 501.116992 -197.310538 
L 499.703976 -197.310538 
L 498.29096 -197.310538 
L 496.877944 -197.310538 
L 495.464928 -197.325513 
L 494.051912 -197.325513 
L 492.638896 -197.325513 
L 491.22588 -197.325513 
L 489.812864 -197.325513 
L 488.399848 -197.325513 
L 486.986832 -197.325513 
L 485.573816 -197.325513 
L 484.1608 -197.325513 
L 482.747784 -197.325513 
L 481.334768 -197.325513 
L 479.921752 -197.31265 
L 478.508736 -197.31265 
L 477.09572 -197.31265 
L 475.682704 -197.31265 
L 474.269689 -197.31265 
L 472.856673 -197.31265 
L 471.443657 -197.363735 
L 470.030641 -197.363735 
L 468.617625 -197.363735 
L 467.204609 -197.363735 
L 465.791593 -197.363735 
L 464.378577 -197.23044 
L 462.965561 -197.23044 
L 461.552545 -197.23044 
L 460.139529 -197.23044 
L 458.726513 -197.23044 
L 457.313497 -197.251723 
L 455.900481 -197.251723 
L 454.487465 -197.251723 
L 453.074449 -197.251723 
L 451.661433 -197.251723 
L 450.248417 -197.251723 
L 448.835401 -197.342616 
L 447.422385 -197.342616 
L 446.009369 -197.342616 
L 444.596354 -197.342616 
L 443.183338 -197.342616 
L 441.770322 -197.342616 
L 440.357306 -197.342616 
L 438.94429 -197.342616 
L 437.531274 -197.342616 
L 436.118258 -197.342616 
L 434.705242 -197.342616 
L 433.292226 -197.342616 
L 431.87921 -197.342616 
L 430.466194 -197.342616 
L 429.053178 -197.342616 
L 427.640162 -197.342616 
L 426.227146 -197.342616 
L 424.81413 -197.342616 
L 423.401114 -197.342616 
L 421.988098 -197.342616 
L 420.575082 -197.342616 
L 419.162066 -197.342616 
L 417.74905 -197.342616 
L 416.336034 -197.342616 
L 414.923018 -197.342616 
L 413.510003 -197.342616 
L 412.096987 -197.342616 
L 410.683971 -186.511401 
L 409.270955 -186.511401 
L 407.857939 -186.511401 
L 406.444923 -186.511401 
L 405.031907 -186.511401 
L 403.618891 -186.511401 
L 402.205875 -128.224241 
L 400.792859 -128.224241 
L 399.379843 -128.224241 
L 397.966827 -128.224241 
L 396.553811 -128.224241 
L 395.140795 -128.224241 
L 393.727779 -128.224241 
L 392.314763 -128.224241 
L 390.901747 -128.224241 
L 389.488731 -128.224241 
L 388.075715 -128.224241 
L 386.662699 -128.224241 
L 385.249683 -128.224241 
L 383.836668 -128.224241 
L 382.423652 -128.224241 
L 381.010636 -128.224241 
L 379.59762 -128.224241 
L 378.184604 -128.224241 
L 376.771588 -128.224241 
L 375.358572 -128.224241 
L 373.945556 -128.224241 
L 372.53254 -128.224241 
L 371.119524 -128.224241 
L 369.706508 -128.224241 
L 368.293492 -128.224241 
L 366.880476 -128.224241 
L 365.46746 -128.224241 
L 364.054444 -128.224241 
L 362.641428 -128.224241 
L 361.228412 -128.224241 
L 359.815396 -128.224241 
L 358.40238 -128.224241 
L 356.989364 -128.224241 
L 355.576348 -128.224241 
L 354.163332 -128.224241 
L 352.750317 -128.224241 
L 351.337301 -128.224241 
L 349.924285 -128.224241 
L 348.511269 -128.224241 
L 347.098253 -128.224241 
L 345.685237 -128.224241 
L 344.272221 -128.224241 
L 342.859205 -128.224241 
L 341.446189 -128.224241 
L 340.033173 -128.224241 
L 338.620157 -128.224241 
L 337.207141 -128.224241 
L 335.794125 -128.224241 
L 334.381109 -128.256629 
L 332.968093 -128.256629 
L 331.555077 -128.256629 
L 330.142061 -128.256629 
L 328.729045 -128.256629 
L 327.316029 -128.256629 
L 325.903013 -128.224241 
L 324.489997 -128.224241 
L 323.076982 -128.224241 
L 321.663966 -128.224241 
L 320.25095 -128.224241 
L 318.837934 -128.224241 
L 317.424918 -128.224241 
L 316.011902 -128.224241 
L 314.598886 -128.224241 
L 313.18587 -128.224241 
L 311.772854 -128.224241 
L 310.359838 -128.211268 
L 308.946822 -128.211268 
L 307.533806 -128.211268 
L 306.12079 -128.211268 
L 304.707774 -128.211268 
L 303.294758 -129.090102 
L 301.881742 -129.090102 
L 300.468726 -129.090102 
L 299.05571 -129.090102 
L 297.642694 -129.090102 
L 296.229678 -129.090102 
L 294.816662 -163.017367 
L 293.403646 -163.017367 
L 291.990631 -163.017367 
L 290.577615 -163.017367 
L 289.164599 -163.017367 
L 287.751583 -165.245737 
L 286.338567 -165.245737 
L 284.925551 -165.245737 
L 283.512535 -165.245737 
L 282.099519 -165.245737 
L 280.686503 -165.245737 
L 279.273487 -166.076687 
L 277.860471 -166.076687 
L 276.447455 -166.076687 
L 275.034439 -166.076687 
L 273.621423 -166.076687 
L 272.208407 -166.076687 
L 270.795391 -166.076687 
L 269.382375 -166.076687 
L 267.969359 -166.076687 
L 266.556343 -166.076687 
L 265.143327 -166.034822 
L 263.730311 -166.034822 
L 262.317296 -166.034822 
L 260.90428 -166.034822 
L 259.491264 -166.034822 
L 258.078248 -166.034822 
L 256.665232 -166.117057 
L 255.252216 -166.117057 
L 253.8392 -166.117057 
L 252.426184 -166.117057 
L 251.013168 -166.117057 
L 249.600152 -166.155386 
L 248.187136 -166.155386 
L 246.77412 -166.155386 
L 245.361104 -166.155386 
L 243.948088 -166.155386 
L 242.535072 -166.155386 
L 241.122056 -166.155386 
L 239.70904 -166.155386 
L 238.296024 -166.155386 
L 236.883008 -166.155386 
L 235.469992 -166.155386 
L 234.056976 -166.155386 
L 232.64396 -166.155386 
L 231.230945 -166.155386 
L 229.817929 -166.155386 
L 228.404913 -166.155386 
L 226.991897 -166.155386 
L 225.578881 -165.887761 
L 224.165865 -165.887761 
L 222.752849 -165.887761 
L 221.339833 -165.887761 
L 219.926817 -165.887761 
L 218.513801 -166.57808 
L 217.100785 -166.57808 
L 215.687769 -166.57808 
L 214.274753 -166.57808 
L 212.861737 -166.57808 
L 211.448721 -166.57808 
L 210.035705 -166.823073 
L 208.622689 -166.823073 
L 207.209673 -166.823073 
L 205.796657 -166.823073 
L 204.383641 -166.823073 
L 202.970625 -166.823073 
L 201.55761 -166.823073 
L 200.144594 -166.823073 
L 198.731578 -166.823073 
L 197.318562 -166.823073 
L 195.905546 -166.783516 
L 194.49253 -166.783516 
L 193.079514 -166.783516 
L 191.666498 -166.783516 
L 190.253482 -166.783516 
L 188.840466 -166.783516 
L 187.42745 -141.078425 
L 186.014434 -141.078425 
L 184.601418 -141.078425 
L 183.188402 -141.078425 
L 181.775386 -141.078425 
L 180.36237 -83.109243 
L 178.949354 -83.109243 
L 177.536338 -83.109243 
L 176.123322 -83.109243 
L 174.710306 -83.109243 
L 173.29729 -83.109243 
L 171.884274 -83.16631 
L 170.471259 -83.16631 
L 169.058243 -83.16631 
L 167.645227 -83.16631 
L 166.232211 -83.16631 
L 164.819195 -83.16631 
L 163.406179 -83.16631 
L 161.993163 -83.16631 
L 160.580147 -83.16631 
L 159.167131 -83.16631 
L 157.754115 -83.16631 
L 156.341099 -83.16631 
L 154.928083 -83.16631 
L 153.515067 -83.16631 
L 152.102051 -83.16631 
L 150.689035 -83.16631 
L 149.276019 -83.16631 
L 147.863003 -83.16631 
L 146.449987 -83.16631 
L 145.036971 -83.16631 
L 143.623955 -83.16631 
L 142.210939 -83.213045 
L 140.797924 -83.213045 
L 139.384908 -83.213045 
L 137.971892 -83.213045 
L 136.558876 -83.213045 
L 135.14586 -83.213045 
L 133.732844 -83.16631 
L 132.319828 -83.16631 
L 130.906812 -83.16631 
L 129.493796 -83.16631 
L 128.08078 -83.16631 
L 126.667764 -83.19091 
L 125.254748 -83.19091 
L 123.841732 -83.19091 
L 122.428716 -83.19091 
L 121.0157 -83.19091 
L 119.602684 -83.19091 
L 118.189668 -83.16631 
L 116.776652 -83.16631 
L 115.363636 -83.16631 
z
" style="stroke: #482475; stroke-opacity: 0.2"/>
    </defs>
    <g clip-path="url(#p37eb0dc2af)">
     <use xlink:href="#m95a6a18e6b" x="0" y="360" style="fill: #482475; fill-opacity: 0.2; stroke: #482475; stroke-opacity: 0.2"/>
    </g>
   </g>
   <g id="PolyCollection_2">
    <defs>
     <path id="me5cb741837" d="M 115.363636 -77.141746 
L 115.363636 -83.203406 
L 116.776652 -83.203406 
L 118.189668 -83.203406 
L 119.602684 -83.741058 
L 121.0157 -83.741058 
L 122.428716 -83.741058 
L 123.841732 -83.741058 
L 125.254748 -83.741058 
L 126.667764 -83.741058 
L 128.08078 -84.68049 
L 129.493796 -84.68049 
L 130.906812 -84.68049 
L 132.319828 -84.68049 
L 133.732844 -84.68049 
L 135.14586 -92.467739 
L 136.558876 -92.467739 
L 137.971892 -92.467739 
L 139.384908 -92.467739 
L 140.797924 -92.467739 
L 142.210939 -92.467739 
L 143.623955 -101.332855 
L 145.036971 -101.332855 
L 146.449987 -101.332855 
L 147.863003 -101.332855 
L 149.276019 -101.332855 
L 150.689035 -108.153373 
L 152.102051 -108.153373 
L 153.515067 -108.153373 
L 154.928083 -108.153373 
L 156.341099 -108.153373 
L 157.754115 -110.105457 
L 159.167131 -110.105457 
L 160.580147 -110.105457 
L 161.993163 -110.105457 
L 163.406179 -110.105457 
L 164.819195 -110.105457 
L 166.232211 -111.035377 
L 167.645227 -111.035377 
L 169.058243 -111.035377 
L 170.471259 -111.035377 
L 171.884274 -111.035377 
L 173.29729 -111.376543 
L 174.710306 -111.376543 
L 176.123322 -111.376543 
L 177.536338 -111.376543 
L 178.949354 -111.376543 
L 180.36237 -111.376543 
L 181.775386 -149.813295 
L 183.188402 -149.813295 
L 184.601418 -149.813295 
L 186.014434 -149.813295 
L 187.42745 -149.813295 
L 188.840466 -207.919385 
L 190.253482 -207.919385 
L 191.666498 -207.919385 
L 193.079514 -207.919385 
L 194.49253 -207.919385 
L 195.905546 -207.919385 
L 197.318562 -215.151353 
L 198.731578 -215.151353 
L 200.144594 -215.151353 
L 201.55761 -215.151353 
L 202.970625 -215.151353 
L 204.383641 -215.450594 
L 205.796657 -215.450594 
L 207.209673 -215.450594 
L 208.622689 -215.450594 
L 210.035705 -215.450594 
L 211.448721 -215.161507 
L 212.861737 -215.161507 
L 214.274753 -215.161507 
L 215.687769 -215.161507 
L 217.100785 -215.161507 
L 218.513801 -215.161507 
L 219.926817 -215.33426 
L 221.339833 -215.33426 
L 222.752849 -215.33426 
L 224.165865 -215.33426 
L 225.578881 -215.33426 
L 226.991897 -215.450594 
L 228.404913 -215.450594 
L 229.817929 -215.450594 
L 231.230945 -215.450594 
L 232.64396 -215.450594 
L 234.056976 -215.450594 
L 235.469992 -215.450594 
L 236.883008 -215.450594 
L 238.296024 -215.450594 
L 239.70904 -215.450594 
L 241.122056 -215.450594 
L 242.535072 -215.450594 
L 243.948088 -215.450594 
L 245.361104 -215.450594 
L 246.77412 -215.450594 
L 248.187136 -215.450594 
L 249.600152 -215.450594 
L 251.013168 -215.454157 
L 252.426184 -215.454157 
L 253.8392 -215.454157 
L 255.252216 -215.454157 
L 256.665232 -215.454157 
L 258.078248 -215.397997 
L 259.491264 -215.397997 
L 260.90428 -215.397997 
L 262.317296 -215.397997 
L 263.730311 -215.397997 
L 265.143327 -215.397997 
L 266.556343 -215.342177 
L 267.969359 -215.342177 
L 269.382375 -215.342177 
L 270.795391 -215.342177 
L 272.208407 -215.342177 
L 273.621423 -215.450161 
L 275.034439 -215.450161 
L 276.447455 -215.450161 
L 277.860471 -215.450161 
L 279.273487 -215.450161 
L 280.686503 -215.353883 
L 282.099519 -215.353883 
L 283.512535 -215.353883 
L 284.925551 -215.353883 
L 286.338567 -215.353883 
L 287.751583 -215.353883 
L 289.164599 -205.136185 
L 290.577615 -205.136185 
L 291.990631 -205.136185 
L 293.403646 -205.136185 
L 294.816662 -205.136185 
L 296.229678 -107.18669 
L 297.642694 -107.18669 
L 299.05571 -107.18669 
L 300.468726 -107.18669 
L 301.881742 -107.18669 
L 303.294758 -107.18669 
L 304.707774 -100.699653 
L 306.12079 -100.699653 
L 307.533806 -100.699653 
L 308.946822 -100.699653 
L 310.359838 -100.699653 
L 311.772854 -118.350468 
L 313.18587 -118.350468 
L 314.598886 -118.350468 
L 316.011902 -118.350468 
L 317.424918 -118.350468 
L 318.837934 -118.350468 
L 320.25095 -147.6151 
L 321.663966 -147.6151 
L 323.076982 -147.6151 
L 324.489997 -147.6151 
L 325.903013 -147.6151 
L 327.316029 -161.418747 
L 328.729045 -161.418747 
L 330.142061 -161.418747 
L 331.555077 -161.418747 
L 332.968093 -161.418747 
L 334.381109 -161.418747 
L 335.794125 -162.870212 
L 337.207141 -162.870212 
L 338.620157 -162.870212 
L 340.033173 -162.870212 
L 341.446189 -162.870212 
L 342.859205 -162.870902 
L 344.272221 -162.870902 
L 345.685237 -162.870902 
L 347.098253 -162.870902 
L 348.511269 -162.870902 
L 349.924285 -162.870212 
L 351.337301 -162.870212 
L 352.750317 -162.870212 
L 354.163332 -162.870212 
L 355.576348 -162.870212 
L 356.989364 -162.870212 
L 358.40238 -162.870212 
L 359.815396 -162.870212 
L 361.228412 -162.870212 
L 362.641428 -162.870212 
L 364.054444 -162.870212 
L 365.46746 -162.870212 
L 366.880476 -162.870212 
L 368.293492 -162.870212 
L 369.706508 -162.870212 
L 371.119524 -162.870212 
L 372.53254 -162.870212 
L 373.945556 -162.870212 
L 375.358572 -162.870212 
L 376.771588 -162.870212 
L 378.184604 -162.870212 
L 379.59762 -162.870212 
L 381.010636 -162.870212 
L 382.423652 -162.870212 
L 383.836668 -162.870212 
L 385.249683 -162.870212 
L 386.662699 -162.870212 
L 388.075715 -162.870212 
L 389.488731 -162.870212 
L 390.901747 -162.870212 
L 392.314763 -162.870212 
L 393.727779 -162.870212 
L 395.140795 -162.870212 
L 396.553811 -162.899645 
L 397.966827 -162.899645 
L 399.379843 -162.899645 
L 400.792859 -162.899645 
L 402.205875 -162.899645 
L 403.618891 -210.929713 
L 405.031907 -210.929713 
L 406.444923 -210.929713 
L 407.857939 -210.929713 
L 409.270955 -210.929713 
L 410.683971 -210.929713 
L 412.096987 -261.258312 
L 413.510003 -261.258312 
L 414.923018 -261.258312 
L 416.336034 -261.258312 
L 417.74905 -261.258312 
L 419.162066 -264.702996 
L 420.575082 -264.702996 
L 421.988098 -264.702996 
L 423.401114 -264.702996 
L 424.81413 -264.702996 
L 426.227146 -264.702996 
L 427.640162 -264.641851 
L 429.053178 -264.641851 
L 430.466194 -264.641851 
L 431.87921 -264.641851 
L 433.292226 -264.641851 
L 434.705242 -264.641851 
L 436.118258 -264.641851 
L 437.531274 -264.641851 
L 438.94429 -264.641851 
L 440.357306 -264.641851 
L 441.770322 -264.641851 
L 443.183338 -264.581388 
L 444.596354 -264.581388 
L 446.009369 -264.581388 
L 447.422385 -264.581388 
L 448.835401 -264.581388 
L 450.248417 -264.649074 
L 451.661433 -264.649074 
L 453.074449 -264.649074 
L 454.487465 -264.649074 
L 455.900481 -264.649074 
L 457.313497 -264.649074 
L 458.726513 -264.641851 
L 460.139529 -264.641851 
L 461.552545 -264.641851 
L 462.965561 -264.641851 
L 464.378577 -264.641851 
L 465.791593 -264.641851 
L 467.204609 -264.641851 
L 468.617625 -264.641851 
L 470.030641 -264.641851 
L 471.443657 -264.641851 
L 472.856673 -264.491888 
L 474.269689 -264.491888 
L 475.682704 -264.491888 
L 477.09572 -264.491888 
L 478.508736 -264.491888 
L 479.921752 -264.491888 
L 481.334768 -264.641851 
L 482.747784 -264.641851 
L 484.1608 -264.641851 
L 485.573816 -264.641851 
L 486.986832 -264.641851 
L 488.399848 -264.641851 
L 489.812864 -264.641851 
L 491.22588 -264.641851 
L 492.638896 -264.641851 
L 494.051912 -264.641851 
L 495.464928 -264.641851 
L 496.877944 -264.645667 
L 498.29096 -264.645667 
L 499.703976 -264.645667 
L 501.116992 -264.645667 
L 502.530008 -264.645667 
L 503.943024 -264.570857 
L 505.35604 -264.570857 
L 506.769055 -264.570857 
L 508.182071 -264.570857 
L 509.595087 -264.570857 
L 511.008103 -264.570857 
L 512.421119 -193.477499 
L 513.834135 -193.477499 
L 515.247151 -193.477499 
L 516.660167 -193.477499 
L 518.073183 -193.477499 
L 519.486199 -128.917601 
L 520.899215 -128.917601 
L 522.312231 -128.917601 
L 523.725247 -128.917601 
L 525.138263 -128.917601 
L 526.551279 -128.917601 
L 527.964295 -206.523553 
L 529.377311 -206.523553 
L 530.790327 -206.523553 
L 532.203343 -206.523553 
L 533.616359 -206.523553 
L 535.029375 -240.309188 
L 536.44239 -240.309188 
L 537.855406 -240.309188 
L 539.268422 -240.309188 
L 540.681438 -240.309188 
L 542.094454 -242.011988 
L 543.50747 -242.011988 
L 544.920486 -242.011988 
L 546.333502 -242.011988 
L 547.746518 -242.011988 
L 549.159534 -242.011988 
L 550.57255 -242.140135 
L 551.985566 -242.140135 
L 553.398582 -242.140135 
L 554.811598 -242.140135 
L 556.224614 -242.140135 
L 557.63763 -242.140135 
L 559.050646 -242.140135 
L 560.463662 -242.140135 
L 561.876678 -242.140135 
L 563.289694 -242.140135 
L 564.70271 -242.140135 
L 566.115726 -242.140135 
L 567.528741 -242.140135 
L 568.941757 -242.140135 
L 570.354773 -242.140135 
L 571.767789 -242.140135 
L 573.180805 -242.140135 
L 574.593821 -242.140135 
L 576.006837 -242.140135 
L 577.419853 -242.140135 
L 578.832869 -242.140135 
L 580.245885 -242.140135 
L 581.658901 -242.111303 
L 583.071917 -242.111303 
L 584.484933 -242.111303 
L 585.897949 -242.111303 
L 587.310965 -242.111303 
L 588.723981 -242.15335 
L 590.136997 -242.15335 
L 591.550013 -242.15335 
L 592.963029 -242.15335 
L 594.376045 -242.15335 
L 595.789061 -242.140135 
L 597.202076 -242.140135 
L 598.615092 -242.140135 
L 600.028108 -242.140135 
L 601.441124 -242.140135 
L 602.85414 -242.140135 
L 604.267156 -242.140135 
L 605.680172 -242.140135 
L 607.093188 -242.140135 
L 608.506204 -242.140135 
L 609.91922 -242.140135 
L 611.332236 -241.984656 
L 612.745252 -241.984656 
L 614.158268 -241.984656 
L 615.571284 -241.984656 
L 616.9843 -241.984656 
L 618.397316 -241.984656 
L 619.810332 -242.140135 
L 621.223348 -242.140135 
L 622.636364 -242.140135 
L 622.636364 -228.168473 
L 622.636364 -228.168473 
L 621.223348 -228.168473 
L 619.810332 -228.168473 
L 618.397316 -228.157104 
L 616.9843 -228.157104 
L 615.571284 -228.157104 
L 614.158268 -228.157104 
L 612.745252 -228.157104 
L 611.332236 -228.157104 
L 609.91922 -228.168473 
L 608.506204 -228.168473 
L 607.093188 -228.168473 
L 605.680172 -228.168473 
L 604.267156 -228.168473 
L 602.85414 -228.168473 
L 601.441124 -228.168473 
L 600.028108 -228.168473 
L 598.615092 -228.168473 
L 597.202076 -228.168473 
L 595.789061 -228.168473 
L 594.376045 -228.099818 
L 592.963029 -228.099818 
L 591.550013 -228.099818 
L 590.136997 -228.099818 
L 588.723981 -228.099818 
L 587.310965 -228.141337 
L 585.897949 -228.141337 
L 584.484933 -228.141337 
L 583.071917 -228.141337 
L 581.658901 -228.141337 
L 580.245885 -228.168473 
L 578.832869 -228.168473 
L 577.419853 -228.168473 
L 576.006837 -228.168473 
L 574.593821 -228.168473 
L 573.180805 -228.168473 
L 571.767789 -228.168473 
L 570.354773 -228.168473 
L 568.941757 -228.168473 
L 567.528741 -228.168473 
L 566.115726 -228.168473 
L 564.70271 -228.168473 
L 563.289694 -228.168473 
L 561.876678 -228.168473 
L 560.463662 -228.168473 
L 559.050646 -228.168473 
L 557.63763 -228.168473 
L 556.224614 -228.168473 
L 554.811598 -228.168473 
L 553.398582 -228.168473 
L 551.985566 -228.168473 
L 550.57255 -228.168473 
L 549.159534 -228.018892 
L 547.746518 -228.018892 
L 546.333502 -228.018892 
L 544.920486 -228.018892 
L 543.50747 -228.018892 
L 542.094454 -228.018892 
L 540.681438 -225.66454 
L 539.268422 -225.66454 
L 537.855406 -225.66454 
L 536.44239 -225.66454 
L 535.029375 -225.66454 
L 533.616359 -186.252479 
L 532.203343 -186.252479 
L 530.790327 -186.252479 
L 529.377311 -186.252479 
L 527.964295 -186.252479 
L 526.551279 -117.741823 
L 525.138263 -117.741823 
L 523.725247 -117.741823 
L 522.312231 -117.741823 
L 520.899215 -117.741823 
L 519.486199 -117.741823 
L 518.073183 -179.290501 
L 516.660167 -179.290501 
L 515.247151 -179.290501 
L 513.834135 -179.290501 
L 512.421119 -179.290501 
L 511.008103 -253.646359 
L 509.595087 -253.646359 
L 508.182071 -253.646359 
L 506.769055 -253.646359 
L 505.35604 -253.646359 
L 503.943024 -253.646359 
L 502.530008 -253.682957 
L 501.116992 -253.682957 
L 499.703976 -253.682957 
L 498.29096 -253.682957 
L 496.877944 -253.682957 
L 495.464928 -253.686773 
L 494.051912 -253.686773 
L 492.638896 -253.686773 
L 491.22588 -253.686773 
L 489.812864 -253.686773 
L 488.399848 -253.686773 
L 486.986832 -253.686773 
L 485.573816 -253.686773 
L 484.1608 -253.686773 
L 482.747784 -253.686773 
L 481.334768 -253.686773 
L 479.921752 -253.614448 
L 478.508736 -253.614448 
L 477.09572 -253.614448 
L 475.682704 -253.614448 
L 474.269689 -253.614448 
L 472.856673 -253.614448 
L 471.443657 -253.686773 
L 470.030641 -253.686773 
L 468.617625 -253.686773 
L 467.204609 -253.686773 
L 465.791593 -253.686773 
L 464.378577 -253.686773 
L 462.965561 -253.686773 
L 461.552545 -253.686773 
L 460.139529 -253.686773 
L 458.726513 -253.686773 
L 457.313497 -253.62411 
L 455.900481 -253.62411 
L 454.487465 -253.62411 
L 453.074449 -253.62411 
L 451.661433 -253.62411 
L 450.248417 -253.62411 
L 448.835401 -253.691268 
L 447.422385 -253.691268 
L 446.009369 -253.691268 
L 444.596354 -253.691268 
L 443.183338 -253.691268 
L 441.770322 -253.686773 
L 440.357306 -253.686773 
L 438.94429 -253.686773 
L 437.531274 -253.686773 
L 436.118258 -253.686773 
L 434.705242 -253.686773 
L 433.292226 -253.686773 
L 431.87921 -253.686773 
L 430.466194 -253.686773 
L 429.053178 -253.686773 
L 427.640162 -253.686773 
L 426.227146 -253.681068 
L 424.81413 -253.681068 
L 423.401114 -253.681068 
L 421.988098 -253.681068 
L 420.575082 -253.681068 
L 419.162066 -253.681068 
L 417.74905 -250.345176 
L 416.336034 -250.345176 
L 414.923018 -250.345176 
L 413.510003 -250.345176 
L 412.096987 -250.345176 
L 410.683971 -192.240527 
L 409.270955 -192.240527 
L 407.857939 -192.240527 
L 406.444923 -192.240527 
L 405.031907 -192.240527 
L 403.618891 -192.240527 
L 402.205875 -152.844883 
L 400.792859 -152.844883 
L 399.379843 -152.844883 
L 397.966827 -152.844883 
L 396.553811 -152.844883 
L 395.140795 -152.762908 
L 393.727779 -152.762908 
L 392.314763 -152.762908 
L 390.901747 -152.762908 
L 389.488731 -152.762908 
L 388.075715 -152.762908 
L 386.662699 -152.762908 
L 385.249683 -152.762908 
L 383.836668 -152.762908 
L 382.423652 -152.762908 
L 381.010636 -152.762908 
L 379.59762 -152.762908 
L 378.184604 -152.762908 
L 376.771588 -152.762908 
L 375.358572 -152.762908 
L 373.945556 -152.762908 
L 372.53254 -152.762908 
L 371.119524 -152.762908 
L 369.706508 -152.762908 
L 368.293492 -152.762908 
L 366.880476 -152.762908 
L 365.46746 -152.762908 
L 364.054444 -152.762908 
L 362.641428 -152.762908 
L 361.228412 -152.762908 
L 359.815396 -152.762908 
L 358.40238 -152.762908 
L 356.989364 -152.762908 
L 355.576348 -152.762908 
L 354.163332 -152.762908 
L 352.750317 -152.762908 
L 351.337301 -152.762908 
L 349.924285 -152.762908 
L 348.511269 -152.70625 
L 347.098253 -152.70625 
L 345.685237 -152.70625 
L 344.272221 -152.70625 
L 342.859205 -152.70625 
L 341.446189 -152.762908 
L 340.033173 -152.762908 
L 338.620157 -152.762908 
L 337.207141 -152.762908 
L 335.794125 -152.762908 
L 334.381109 -152.046933 
L 332.968093 -152.046933 
L 331.555077 -152.046933 
L 330.142061 -152.046933 
L 328.729045 -152.046933 
L 327.316029 -152.046933 
L 325.903013 -137.5049 
L 324.489997 -137.5049 
L 323.076982 -137.5049 
L 321.663966 -137.5049 
L 320.25095 -137.5049 
L 318.837934 -108.356892 
L 317.424918 -108.356892 
L 316.011902 -108.356892 
L 314.598886 -108.356892 
L 313.18587 -108.356892 
L 311.772854 -108.356892 
L 310.359838 -91.380939 
L 308.946822 -91.380939 
L 307.533806 -91.380939 
L 306.12079 -91.380939 
L 304.707774 -91.380939 
L 303.294758 -97.733278 
L 301.881742 -97.733278 
L 300.468726 -97.733278 
L 299.05571 -97.733278 
L 297.642694 -97.733278 
L 296.229678 -97.733278 
L 294.816662 -190.418711 
L 293.403646 -190.418711 
L 291.990631 -190.418711 
L 290.577615 -190.418711 
L 289.164599 -190.418711 
L 287.751583 -201.431893 
L 286.338567 -201.431893 
L 284.925551 -201.431893 
L 283.512535 -201.431893 
L 282.099519 -201.431893 
L 280.686503 -201.431893 
L 279.273487 -201.502463 
L 277.860471 -201.502463 
L 276.447455 -201.502463 
L 275.034439 -201.502463 
L 273.621423 -201.502463 
L 272.208407 -201.555007 
L 270.795391 -201.555007 
L 269.382375 -201.555007 
L 267.969359 -201.555007 
L 266.556343 -201.555007 
L 265.143327 -201.554627 
L 263.730311 -201.554627 
L 262.317296 -201.554627 
L 260.90428 -201.554627 
L 259.491264 -201.554627 
L 258.078248 -201.554627 
L 256.665232 -201.498467 
L 255.252216 -201.498467 
L 253.8392 -201.498467 
L 252.426184 -201.498467 
L 251.013168 -201.498467 
L 249.600152 -201.55747 
L 248.187136 -201.55747 
L 246.77412 -201.55747 
L 245.361104 -201.55747 
L 243.948088 -201.55747 
L 242.535072 -201.55747 
L 241.122056 -201.55747 
L 239.70904 -201.55747 
L 238.296024 -201.55747 
L 236.883008 -201.55747 
L 235.469992 -201.55747 
L 234.056976 -201.55747 
L 232.64396 -201.55747 
L 231.230945 -201.55747 
L 229.817929 -201.55747 
L 228.404913 -201.55747 
L 226.991897 -201.55747 
L 225.578881 -201.341164 
L 224.165865 -201.341164 
L 222.752849 -201.341164 
L 221.339833 -201.341164 
L 219.926817 -201.341164 
L 218.513801 -201.013373 
L 217.100785 -201.013373 
L 215.687769 -201.013373 
L 214.274753 -201.013373 
L 212.861737 -201.013373 
L 211.448721 -201.013373 
L 210.035705 -201.55747 
L 208.622689 -201.55747 
L 207.209673 -201.55747 
L 205.796657 -201.55747 
L 204.383641 -201.55747 
L 202.970625 -201.135463 
L 201.55761 -201.135463 
L 200.144594 -201.135463 
L 198.731578 -201.135463 
L 197.318562 -201.135463 
L 195.905546 -193.305703 
L 194.49253 -193.305703 
L 193.079514 -193.305703 
L 191.666498 -193.305703 
L 190.253482 -193.305703 
L 188.840466 -193.305703 
L 187.42745 -139.474737 
L 186.014434 -139.474737 
L 184.601418 -139.474737 
L 183.188402 -139.474737 
L 181.775386 -139.474737 
L 180.36237 -104.714321 
L 178.949354 -104.714321 
L 177.536338 -104.714321 
L 176.123322 -104.714321 
L 174.710306 -104.714321 
L 173.29729 -104.714321 
L 171.884274 -104.554943 
L 170.471259 -104.554943 
L 169.058243 -104.554943 
L 167.645227 -104.554943 
L 166.232211 -104.554943 
L 164.819195 -102.039663 
L 163.406179 -102.039663 
L 161.993163 -102.039663 
L 160.580147 -102.039663 
L 159.167131 -102.039663 
L 157.754115 -102.039663 
L 156.341099 -93.486659 
L 154.928083 -93.486659 
L 153.515067 -93.486659 
L 152.102051 -93.486659 
L 150.689035 -93.486659 
L 149.276019 -82.855193 
L 147.863003 -82.855193 
L 146.449987 -82.855193 
L 145.036971 -82.855193 
L 143.623955 -82.855193 
L 142.210939 -80.216773 
L 140.797924 -80.216773 
L 139.384908 -80.216773 
L 137.971892 -80.216773 
L 136.558876 -80.216773 
L 135.14586 -80.216773 
L 133.732844 -77.998422 
L 132.319828 -77.998422 
L 130.906812 -77.998422 
L 129.493796 -77.998422 
L 128.08078 -77.998422 
L 126.667764 -77.270958 
L 125.254748 -77.270958 
L 123.841732 -77.270958 
L 122.428716 -77.270958 
L 121.0157 -77.270958 
L 119.602684 -77.270958 
L 118.189668 -77.141746 
L 116.776652 -77.141746 
L 115.363636 -77.141746 
z
" style="stroke: #bddf26; stroke-opacity: 0.2"/>
    </defs>
    <g clip-path="url(#p37eb0dc2af)">
     <use xlink:href="#me5cb741837" x="0" y="360" style="fill: #bddf26; fill-opacity: 0.2; stroke: #bddf26; stroke-opacity: 0.2"/>
    </g>
   </g>
   <g id="matplotlib.axis_1">
    <g id="xtick_1">
     <g id="line2d_1">
      <defs>
       <path id="m3e37068c7d" d="M 0 0 
L 0 3.5 
" style="stroke: #000000; stroke-width: 0.8"/>
      </defs>
      <g>
       <use xlink:href="#m3e37068c7d" x="146.107438" y="320.4" style="stroke: #000000; stroke-width: 0.8"/>
      </g>
     </g>
     <g id="text_1">
      <!-- $\mathdefault{100}$ -->
      <g transform="translate(135.498905 337.431808) scale(0.145 -0.145)">
       <defs>
        <path id="CMR17-31" d="M 1702 4058 
C 1702 4192 1696 4192 1606 4192 
C 1357 3916 979 3827 621 3827 
C 602 3827 570 3827 563 3808 
C 557 3795 557 3782 557 3648 
C 755 3648 1088 3686 1344 3839 
L 1344 461 
C 1344 236 1331 160 781 160 
L 589 160 
L 589 0 
C 896 0 1216 0 1523 0 
C 1830 0 2150 0 2458 0 
L 2458 160 
L 2266 160 
C 1715 160 1702 230 1702 458 
L 1702 4058 
z
" transform="scale(0.015625)"/>
        <path id="CMR17-30" d="M 2688 2025 
C 2688 2416 2682 3080 2413 3591 
C 2176 4039 1798 4198 1466 4198 
C 1158 4198 768 4058 525 3597 
C 269 3118 243 2524 243 2025 
C 243 1661 250 1106 448 619 
C 723 -39 1216 -128 1466 -128 
C 1760 -128 2208 -7 2470 600 
C 2662 1042 2688 1559 2688 2025 
z
M 1466 -26 
C 1056 -26 813 325 723 812 
C 653 1188 653 1738 653 2096 
C 653 2588 653 2997 736 3387 
C 858 3929 1216 4096 1466 4096 
C 1728 4096 2067 3923 2189 3400 
C 2272 3036 2278 2607 2278 2096 
C 2278 1680 2278 1169 2202 792 
C 2067 95 1690 -26 1466 -26 
z
" transform="scale(0.015625)"/>
       </defs>
       <use xlink:href="#CMR17-31" transform="scale(0.996264)"/>
       <use xlink:href="#CMR17-30" transform="translate(45.690477 0) scale(0.996264)"/>
       <use xlink:href="#CMR17-30" transform="translate(91.380954 0) scale(0.996264)"/>
      </g>
     </g>
    </g>
    <g id="xtick_2">
     <g id="line2d_2">
      <g>
       <use xlink:href="#m3e37068c7d" x="222.966942" y="320.4" style="stroke: #000000; stroke-width: 0.8"/>
      </g>
     </g>
     <g id="text_2">
      <!-- $\mathdefault{200}$ -->
      <g transform="translate(212.358409 337.431808) scale(0.145 -0.145)">
       <defs>
        <path id="CMR17-32" d="M 2669 989 
L 2554 989 
C 2490 536 2438 459 2413 420 
C 2381 369 1920 369 1830 369 
L 602 369 
C 832 619 1280 1072 1824 1597 
C 2214 1967 2669 2402 2669 3035 
C 2669 3790 2067 4224 1395 4224 
C 691 4224 262 3604 262 3030 
C 262 2780 448 2748 525 2748 
C 589 2748 781 2787 781 3010 
C 781 3207 614 3264 525 3264 
C 486 3264 448 3258 422 3245 
C 544 3790 915 4058 1306 4058 
C 1862 4058 2227 3617 2227 3035 
C 2227 2479 1901 2000 1536 1584 
L 262 146 
L 262 0 
L 2515 0 
L 2669 989 
z
" transform="scale(0.015625)"/>
       </defs>
       <use xlink:href="#CMR17-32" transform="scale(0.996264)"/>
       <use xlink:href="#CMR17-30" transform="translate(45.690477 0) scale(0.996264)"/>
       <use xlink:href="#CMR17-30" transform="translate(91.380954 0) scale(0.996264)"/>
      </g>
     </g>
    </g>
    <g id="xtick_3">
     <g id="line2d_3">
      <g>
       <use xlink:href="#m3e37068c7d" x="299.826446" y="320.4" style="stroke: #000000; stroke-width: 0.8"/>
      </g>
     </g>
     <g id="text_3">
      <!-- $\mathdefault{300}$ -->
      <g transform="translate(289.217913 337.431808) scale(0.145 -0.145)">
       <defs>
        <path id="CMR17-33" d="M 1414 2157 
C 1984 2157 2234 1662 2234 1090 
C 2234 320 1824 25 1453 25 
C 1114 25 563 194 390 693 
C 422 680 454 680 486 680 
C 640 680 755 782 755 948 
C 755 1133 614 1216 486 1216 
C 378 1216 211 1165 211 926 
C 211 335 787 -128 1466 -128 
C 2176 -128 2720 430 2720 1085 
C 2720 1707 2208 2157 1600 2227 
C 2086 2328 2554 2756 2554 3329 
C 2554 3820 2048 4179 1472 4179 
C 890 4179 378 3829 378 3329 
C 378 3110 544 3072 627 3072 
C 762 3072 877 3155 877 3321 
C 877 3486 762 3569 627 3569 
C 602 3569 570 3569 544 3557 
C 730 3959 1235 4032 1459 4032 
C 1683 4032 2106 3925 2106 3320 
C 2106 3143 2080 2828 1862 2550 
C 1670 2304 1453 2304 1242 2284 
C 1210 2284 1062 2269 1037 2269 
C 992 2263 966 2257 966 2208 
C 966 2163 973 2157 1101 2157 
L 1414 2157 
z
" transform="scale(0.015625)"/>
       </defs>
       <use xlink:href="#CMR17-33" transform="scale(0.996264)"/>
       <use xlink:href="#CMR17-30" transform="translate(45.690477 0) scale(0.996264)"/>
       <use xlink:href="#CMR17-30" transform="translate(91.380954 0) scale(0.996264)"/>
      </g>
     </g>
    </g>
    <g id="xtick_4">
     <g id="line2d_4">
      <g>
       <use xlink:href="#m3e37068c7d" x="376.68595" y="320.4" style="stroke: #000000; stroke-width: 0.8"/>
      </g>
     </g>
     <g id="text_4">
      <!-- $\mathdefault{400}$ -->
      <g transform="translate(366.077417 337.431808) scale(0.145 -0.145)">
       <defs>
        <path id="CMR17-34" d="M 2150 4122 
C 2150 4256 2144 4256 2029 4256 
L 128 1254 
L 128 1088 
L 1779 1088 
L 1779 457 
C 1779 224 1766 160 1318 160 
L 1197 160 
L 1197 0 
C 1402 0 1747 0 1965 0 
C 2182 0 2528 0 2733 0 
L 2733 160 
L 2611 160 
C 2163 160 2150 224 2150 457 
L 2150 1088 
L 2803 1088 
L 2803 1254 
L 2150 1254 
L 2150 4122 
z
M 1798 3703 
L 1798 1254 
L 256 1254 
L 1798 3703 
z
" transform="scale(0.015625)"/>
       </defs>
       <use xlink:href="#CMR17-34" transform="scale(0.996264)"/>
       <use xlink:href="#CMR17-30" transform="translate(45.690477 0) scale(0.996264)"/>
       <use xlink:href="#CMR17-30" transform="translate(91.380954 0) scale(0.996264)"/>
      </g>
     </g>
    </g>
    <g id="xtick_5">
     <g id="line2d_5">
      <g>
       <use xlink:href="#m3e37068c7d" x="453.545455" y="320.4" style="stroke: #000000; stroke-width: 0.8"/>
      </g>
     </g>
     <g id="text_5">
      <!-- $\mathdefault{500}$ -->
      <g transform="translate(442.936921 337.431808) scale(0.145 -0.145)">
       <defs>
        <path id="CMR17-35" d="M 730 3692 
C 794 3666 1056 3584 1325 3584 
C 1920 3584 2246 3911 2432 4100 
C 2432 4157 2432 4192 2394 4192 
C 2387 4192 2374 4192 2323 4163 
C 2099 4058 1837 3973 1517 3973 
C 1325 3973 1037 3999 723 4139 
C 653 4171 640 4171 634 4171 
C 602 4171 595 4164 595 4037 
L 595 2203 
C 595 2089 595 2057 659 2057 
C 691 2057 704 2070 736 2114 
C 941 2401 1222 2522 1542 2522 
C 1766 2522 2246 2382 2246 1289 
C 2246 1085 2246 715 2054 421 
C 1894 159 1645 25 1370 25 
C 947 25 518 320 403 814 
C 429 807 480 795 506 795 
C 589 795 749 840 749 1038 
C 749 1210 627 1280 506 1280 
C 358 1280 262 1190 262 1011 
C 262 454 704 -128 1382 -128 
C 2042 -128 2669 440 2669 1264 
C 2669 2030 2170 2624 1549 2624 
C 1222 2624 947 2503 730 2274 
L 730 3692 
z
" transform="scale(0.015625)"/>
       </defs>
       <use xlink:href="#CMR17-35" transform="scale(0.996264)"/>
       <use xlink:href="#CMR17-30" transform="translate(45.690477 0) scale(0.996264)"/>
       <use xlink:href="#CMR17-30" transform="translate(91.380954 0) scale(0.996264)"/>
      </g>
     </g>
    </g>
    <g id="xtick_6">
     <g id="line2d_6">
      <g>
       <use xlink:href="#m3e37068c7d" x="530.404959" y="320.4" style="stroke: #000000; stroke-width: 0.8"/>
      </g>
     </g>
     <g id="text_6">
      <!-- $\mathdefault{600}$ -->
      <g transform="translate(519.796425 337.431808) scale(0.145 -0.145)">
       <defs>
        <path id="CMR17-36" d="M 678 2176 
C 678 3690 1395 4032 1811 4032 
C 1946 4032 2272 4009 2400 3776 
C 2298 3776 2106 3776 2106 3553 
C 2106 3381 2246 3323 2336 3323 
C 2394 3323 2566 3348 2566 3560 
C 2566 3954 2246 4179 1805 4179 
C 1043 4179 243 3390 243 1984 
C 243 253 966 -128 1478 -128 
C 2099 -128 2688 427 2688 1283 
C 2688 2081 2170 2662 1517 2662 
C 1126 2662 838 2407 678 1960 
L 678 2176 
z
M 1478 25 
C 691 25 691 1200 691 1436 
C 691 1896 909 2560 1504 2560 
C 1613 2560 1926 2560 2138 2120 
C 2253 1870 2253 1609 2253 1289 
C 2253 944 2253 690 2118 434 
C 1978 171 1773 25 1478 25 
z
" transform="scale(0.015625)"/>
       </defs>
       <use xlink:href="#CMR17-36" transform="scale(0.996264)"/>
       <use xlink:href="#CMR17-30" transform="translate(45.690477 0) scale(0.996264)"/>
       <use xlink:href="#CMR17-30" transform="translate(91.380954 0) scale(0.996264)"/>
      </g>
     </g>
    </g>
    <g id="xtick_7">
     <g id="line2d_7">
      <g>
       <use xlink:href="#m3e37068c7d" x="607.264463" y="320.4" style="stroke: #000000; stroke-width: 0.8"/>
      </g>
     </g>
     <g id="text_7">
      <!-- $\mathdefault{700}$ -->
      <g transform="translate(596.655929 337.431808) scale(0.145 -0.145)">
       <defs>
        <path id="CMR17-37" d="M 2886 3941 
L 2886 4081 
L 1382 4081 
C 634 4081 621 4165 595 4288 
L 480 4288 
L 294 3094 
L 410 3094 
C 429 3215 474 3540 550 3661 
C 589 3712 1062 3712 1171 3712 
L 2579 3712 
L 1869 2661 
C 1395 1954 1069 999 1069 165 
C 1069 89 1069 -128 1299 -128 
C 1530 -128 1530 89 1530 171 
L 1530 465 
C 1530 1508 1709 2196 2003 2636 
L 2886 3941 
z
" transform="scale(0.015625)"/>
       </defs>
       <use xlink:href="#CMR17-37" transform="scale(0.996264)"/>
       <use xlink:href="#CMR17-30" transform="translate(45.690477 0) scale(0.996264)"/>
       <use xlink:href="#CMR17-30" transform="translate(91.380954 0) scale(0.996264)"/>
      </g>
     </g>
    </g>
    <g id="text_8">
     <!-- time (s) -->
     <g transform="translate(345.477317 355.075073) scale(0.145 -0.145)">
      <defs>
       <path id="CMSS17-74" d="M 1069 2368 
L 1901 2368 
L 1901 2737 
L 1069 2737 
L 1069 3520 
L 614 3520 
L 614 2737 
L 109 2737 
L 109 2368 
L 602 2368 
L 602 749 
C 602 384 685 -64 1107 -64 
C 1427 -64 1722 25 2003 172 
L 1901 548 
C 1747 414 1562 337 1363 337 
C 1082 337 1069 696 1069 856 
L 1069 2368 
z
" transform="scale(0.015625)"/>
       <path id="CMSS17-69" d="M 979 4183 
L 442 4183 
L 442 3648 
L 979 3648 
L 979 4183 
z
M 947 2739 
L 474 2739 
L 474 0 
L 947 0 
L 947 2739 
z
" transform="scale(0.015625)"/>
       <path id="CMSS17-6d" d="M 4288 1877 
C 4288 2308 4179 2816 3462 2816 
C 2982 2816 2694 2516 2566 2331 
C 2451 2670 2182 2816 1798 2816 
C 1363 2816 1088 2568 941 2389 
L 941 2758 
L 474 2758 
L 474 0 
L 960 0 
L 960 1559 
C 960 1939 1101 2428 1555 2428 
C 2138 2428 2138 2016 2138 1829 
L 2138 0 
L 2624 0 
L 2624 1559 
C 2624 1939 2765 2428 3219 2428 
C 3802 2428 3802 2016 3802 1829 
L 3802 0 
L 4288 0 
L 4288 1877 
z
" transform="scale(0.015625)"/>
       <path id="CMSS17-65" d="M 2502 1377 
C 2502 1590 2490 2003 2285 2345 
C 2061 2713 1696 2816 1421 2816 
C 755 2816 192 2188 192 1375 
C 192 582 774 -64 1510 -64 
C 1798 -64 2150 19 2470 248 
C 2470 274 2458 414 2451 420 
C 2451 433 2432 630 2432 656 
C 2125 407 1773 325 1517 325 
C 1107 325 666 667 646 1377 
L 2502 1377 
z
M 698 1728 
C 781 2084 1062 2421 1421 2421 
C 1517 2421 1965 2421 2080 1728 
L 698 1728 
z
" transform="scale(0.015625)"/>
       <path id="CMSS17-28" d="M 1613 4768 
C 1267 4417 474 3601 474 1588 
C 474 -433 1267 -1243 1613 -1600 
L 2003 -1600 
C 1216 -784 960 357 960 1581 
C 960 2798 1203 3946 2003 4768 
L 1613 4768 
z
" transform="scale(0.015625)"/>
       <path id="CMSS17-73" d="M 2061 2627 
C 1683 2807 1389 2807 1197 2807 
C 742 2807 198 2648 198 2003 
C 198 1359 902 1218 1094 1179 
C 1389 1122 1715 1058 1715 740 
C 1715 337 1254 337 1171 337 
C 915 337 563 407 243 638 
L 166 210 
C 531 0 883 -64 1178 -64 
C 1965 -64 2163 416 2163 781 
C 2163 1094 1984 1305 1862 1401 
C 1651 1568 1574 1587 1050 1696 
C 960 1709 646 1779 646 2066 
C 646 2432 1050 2432 1139 2432 
C 1555 2432 1811 2303 1984 2208 
L 2061 2627 
z
" transform="scale(0.015625)"/>
       <path id="CMSS17-29" d="M 723 -1600 
C 1069 -1249 1862 -433 1862 1581 
C 1862 3601 1069 4411 723 4768 
L 333 4768 
C 1120 3952 1376 2811 1376 1588 
C 1376 370 1133 -778 333 -1600 
L 723 -1600 
z
" transform="scale(0.015625)"/>
      </defs>
      <use xlink:href="#CMSS17-74" transform="scale(0.996264)"/>
      <use xlink:href="#CMSS17-69" transform="translate(33.831567 0) scale(0.996264)"/>
      <use xlink:href="#CMSS17-6d" transform="translate(56.01229 0) scale(0.996264)"/>
      <use xlink:href="#CMSS17-65" transform="translate(130.241544 0) scale(0.996264)"/>
      <use xlink:href="#CMSS17-28" transform="translate(203.109479 0) scale(0.996264)"/>
      <use xlink:href="#CMSS17-73" transform="translate(239.543393 0) scale(0.996264)"/>
      <use xlink:href="#CMSS17-29" transform="translate(275.456935 0) scale(0.996264)"/>
     </g>
    </g>
   </g>
   <g id="matplotlib.axis_2">
    <g id="ytick_1">
     <g id="line2d_8">
      <path d="M 90 320.4 
L 648 320.4 
" clip-path="url(#p37eb0dc2af)" style="fill: none; stroke-dasharray: 1.85,0.8; stroke-dashoffset: 0; stroke: #808080; stroke-width: 0.5"/>
     </g>
     <g id="line2d_9">
      <defs>
       <path id="m5f4f832ae9" d="M 0 0 
L -3.5 0 
" style="stroke: #000000; stroke-width: 0.8"/>
      </defs>
      <g>
       <use xlink:href="#m5f4f832ae9" x="90" y="320.4" style="stroke: #000000; stroke-width: 0.8"/>
      </g>
     </g>
     <g id="text_9">
      <!-- $\mathdefault{0.0}$ -->
      <g transform="translate(64.926206 325.415904) scale(0.145 -0.145)">
       <defs>
        <path id="CMMI12-3a" d="M 1178 307 
C 1178 492 1024 619 870 619 
C 685 619 557 466 557 313 
C 557 128 710 0 864 0 
C 1050 0 1178 153 1178 307 
z
" transform="scale(0.015625)"/>
       </defs>
       <use xlink:href="#CMR17-30" transform="scale(0.996264)"/>
       <use xlink:href="#CMMI12-3a" transform="translate(45.690477 0) scale(0.996264)"/>
       <use xlink:href="#CMR17-30" transform="translate(72.787654 0) scale(0.996264)"/>
      </g>
     </g>
    </g>
    <g id="ytick_2">
     <g id="line2d_10">
      <path d="M 90 267.6 
L 648 267.6 
" clip-path="url(#p37eb0dc2af)" style="fill: none; stroke-dasharray: 1.85,0.8; stroke-dashoffset: 0; stroke: #808080; stroke-width: 0.5"/>
     </g>
     <g id="line2d_11">
      <g>
       <use xlink:href="#m5f4f832ae9" x="90" y="267.6" style="stroke: #000000; stroke-width: 0.8"/>
      </g>
     </g>
     <g id="text_10">
      <!-- $\mathdefault{0.2}$ -->
      <g transform="translate(64.926206 272.615904) scale(0.145 -0.145)">
       <use xlink:href="#CMR17-30" transform="scale(0.996264)"/>
       <use xlink:href="#CMMI12-3a" transform="translate(45.690477 0) scale(0.996264)"/>
       <use xlink:href="#CMR17-32" transform="translate(72.787654 0) scale(0.996264)"/>
      </g>
     </g>
    </g>
    <g id="ytick_3">
     <g id="line2d_12">
      <path d="M 90 214.8 
L 648 214.8 
" clip-path="url(#p37eb0dc2af)" style="fill: none; stroke-dasharray: 1.85,0.8; stroke-dashoffset: 0; stroke: #808080; stroke-width: 0.5"/>
     </g>
     <g id="line2d_13">
      <g>
       <use xlink:href="#m5f4f832ae9" x="90" y="214.8" style="stroke: #000000; stroke-width: 0.8"/>
      </g>
     </g>
     <g id="text_11">
      <!-- $\mathdefault{0.4}$ -->
      <g transform="translate(64.926206 219.815904) scale(0.145 -0.145)">
       <use xlink:href="#CMR17-30" transform="scale(0.996264)"/>
       <use xlink:href="#CMMI12-3a" transform="translate(45.690477 0) scale(0.996264)"/>
       <use xlink:href="#CMR17-34" transform="translate(72.787654 0) scale(0.996264)"/>
      </g>
     </g>
    </g>
    <g id="ytick_4">
     <g id="line2d_14">
      <path d="M 90 162 
L 648 162 
" clip-path="url(#p37eb0dc2af)" style="fill: none; stroke-dasharray: 1.85,0.8; stroke-dashoffset: 0; stroke: #808080; stroke-width: 0.5"/>
     </g>
     <g id="line2d_15">
      <g>
       <use xlink:href="#m5f4f832ae9" x="90" y="162" style="stroke: #000000; stroke-width: 0.8"/>
      </g>
     </g>
     <g id="text_12">
      <!-- $\mathdefault{0.6}$ -->
      <g transform="translate(64.926206 167.015904) scale(0.145 -0.145)">
       <use xlink:href="#CMR17-30" transform="scale(0.996264)"/>
       <use xlink:href="#CMMI12-3a" transform="translate(45.690477 0) scale(0.996264)"/>
       <use xlink:href="#CMR17-36" transform="translate(72.787654 0) scale(0.996264)"/>
      </g>
     </g>
    </g>
    <g id="ytick_5">
     <g id="line2d_16">
      <path d="M 90 109.2 
L 648 109.2 
" clip-path="url(#p37eb0dc2af)" style="fill: none; stroke-dasharray: 1.85,0.8; stroke-dashoffset: 0; stroke: #808080; stroke-width: 0.5"/>
     </g>
     <g id="line2d_17">
      <g>
       <use xlink:href="#m5f4f832ae9" x="90" y="109.2" style="stroke: #000000; stroke-width: 0.8"/>
      </g>
     </g>
     <g id="text_13">
      <!-- $\mathdefault{0.8}$ -->
      <g transform="translate(64.926206 114.215904) scale(0.145 -0.145)">
       <defs>
        <path id="CMR17-38" d="M 1741 2264 
C 2144 2467 2554 2773 2554 3263 
C 2554 3841 1990 4179 1472 4179 
C 890 4179 378 3759 378 3180 
C 378 3021 416 2747 666 2505 
C 730 2442 998 2251 1171 2130 
C 883 1983 211 1634 211 934 
C 211 279 838 -128 1459 -128 
C 2144 -128 2720 362 2720 1010 
C 2720 1590 2330 1857 2074 2029 
L 1741 2264 
z
M 902 2822 
C 851 2854 595 3051 595 3351 
C 595 3739 998 4032 1459 4032 
C 1965 4032 2336 3676 2336 3262 
C 2336 2669 1670 2331 1638 2331 
C 1632 2331 1626 2331 1574 2370 
L 902 2822 
z
M 2080 1519 
C 2176 1449 2483 1240 2483 851 
C 2483 381 2010 25 1472 25 
C 890 25 448 438 448 940 
C 448 1443 838 1862 1280 2060 
L 2080 1519 
z
" transform="scale(0.015625)"/>
       </defs>
       <use xlink:href="#CMR17-30" transform="scale(0.996264)"/>
       <use xlink:href="#CMMI12-3a" transform="translate(45.690477 0) scale(0.996264)"/>
       <use xlink:href="#CMR17-38" transform="translate(72.787654 0) scale(0.996264)"/>
      </g>
     </g>
    </g>
    <g id="ytick_6">
     <g id="line2d_18">
      <path d="M 90 56.4 
L 648 56.4 
" clip-path="url(#p37eb0dc2af)" style="fill: none; stroke-dasharray: 1.85,0.8; stroke-dashoffset: 0; stroke: #808080; stroke-width: 0.5"/>
     </g>
     <g id="line2d_19">
      <g>
       <use xlink:href="#m5f4f832ae9" x="90" y="56.4" style="stroke: #000000; stroke-width: 0.8"/>
      </g>
     </g>
     <g id="text_14">
      <!-- $\mathdefault{1.0}$ -->
      <g transform="translate(64.926206 61.415904) scale(0.145 -0.145)">
       <use xlink:href="#CMR17-31" transform="scale(0.996264)"/>
       <use xlink:href="#CMMI12-3a" transform="translate(45.690477 0) scale(0.996264)"/>
       <use xlink:href="#CMR17-30" transform="translate(72.787654 0) scale(0.996264)"/>
      </g>
     </g>
    </g>
    <g id="text_15">
     <!-- QoS -->
     <g transform="translate(58.117312 194.481753) rotate(-90) scale(0.145 -0.145)">
      <defs>
       <path id="CMSS17-51" d="M 3200 202 
C 3981 833 4096 1689 4096 2174 
C 4096 3501 3219 4497 2214 4497 
C 1210 4497 333 3497 333 2178 
C 333 847 1222 -128 2214 -128 
C 2438 -128 2630 -77 2765 -26 
L 3302 -832 
L 3930 -832 
L 3200 202 
z
M 2528 324 
C 2438 293 2330 273 2214 273 
C 1523 273 858 993 858 2178 
C 858 3357 1517 4096 2214 4096 
C 2918 4096 3571 3350 3571 2178 
C 3571 1771 3507 1089 2950 566 
L 2490 1210 
L 1939 1210 
L 2528 324 
z
" transform="scale(0.015625)"/>
       <path id="CMSS17-6f" d="M 2829 1356 
C 2829 2176 2221 2816 1504 2816 
C 768 2816 173 2157 173 1356 
C 173 544 787 -64 1498 -64 
C 2227 -64 2829 563 2829 1356 
z
M 1504 337 
C 1050 337 659 709 659 1408 
C 659 2151 1114 2427 1498 2427 
C 1914 2427 2342 2126 2342 1408 
C 2342 683 1926 337 1504 337 
z
" transform="scale(0.015625)"/>
       <path id="CMSS17-53" d="M 2797 4169 
C 2515 4334 2208 4480 1690 4480 
C 864 4480 333 3879 333 3266 
C 333 3025 403 2753 653 2475 
C 902 2196 1184 2121 1542 2033 
C 1690 1994 1939 1924 1984 1906 
C 2342 1767 2515 1444 2515 1140 
C 2515 742 2202 318 1645 318 
C 1453 318 890 318 358 819 
L 269 318 
C 794 -64 1363 -128 1651 -128 
C 2438 -128 3002 488 3002 1186 
C 3002 1440 2925 1763 2656 2061 
C 2394 2347 2163 2410 1638 2549 
C 1338 2626 1146 2677 986 2873 
C 877 3013 819 3146 819 3317 
C 819 3673 1126 4060 1690 4060 
C 1971 4060 2336 4002 2707 3660 
L 2797 4169 
z
" transform="scale(0.015625)"/>
      </defs>
      <use xlink:href="#CMSS17-51" transform="scale(0.996264)"/>
      <use xlink:href="#CMSS17-6f" transform="translate(69.024255 0) scale(0.996264)"/>
      <use xlink:href="#CMSS17-53" transform="translate(115.867879 0) scale(0.996264)"/>
     </g>
    </g>
   </g>
   <g id="line2d_20">
    <path d="M 115.363636 274.93656 
L 180.36237 274.96428 
L 181.775386 215.105976 
L 187.42745 215.105976 
L 188.840466 190.178304 
L 218.513801 190.233744 
L 219.926817 190.48428 
L 279.273487 190.45656 
L 280.686503 190.762272 
L 287.751583 190.762272 
L 289.164599 193.985448 
L 294.816662 193.985448 
L 296.229678 227.972016 
L 303.294758 227.972016 
L 304.707774 228.889416 
L 402.205875 228.861696 
L 403.618891 169.725696 
L 410.683971 169.725696 
L 412.096987 159.387192 
L 511.008103 159.387456 
L 512.421119 165.418536 
L 518.073183 165.418536 
L 519.486199 173.893728 
L 540.681438 173.977152 
L 547.746518 174.004872 
L 622.636364 173.977152 
L 622.636364 173.977152 
" clip-path="url(#p37eb0dc2af)" style="fill: none; stroke: #482475; stroke-width: 2.5; stroke-linecap: square"/>
   </g>
   <g id="line2d_21">
    <path d="M 115.363636 279.827424 
L 118.189668 279.827424 
L 119.602684 279.493992 
L 126.667764 279.493992 
L 128.08078 278.660544 
L 133.732844 278.660544 
L 135.14586 273.657744 
L 142.210939 273.657744 
L 143.623955 267.905976 
L 149.276019 267.905976 
L 150.689035 259.179984 
L 156.341099 259.179984 
L 157.754115 253.92744 
L 164.819195 253.92744 
L 166.232211 252.20484 
L 171.884274 252.20484 
L 173.29729 251.954568 
L 180.36237 251.954568 
L 181.775386 215.355984 
L 187.42745 215.355984 
L 188.840466 159.387456 
L 195.905546 159.387456 
L 197.318562 151.856592 
L 202.970625 151.856592 
L 204.383641 151.495968 
L 210.035705 151.495968 
L 211.448721 151.91256 
L 218.513801 151.91256 
L 219.926817 151.662288 
L 225.578881 151.662288 
L 226.991897 151.495968 
L 279.273487 151.523688 
L 282.099519 151.607112 
L 287.751583 151.607112 
L 289.164599 162.222552 
L 294.816662 162.222552 
L 296.229678 257.540016 
L 303.294758 257.540016 
L 304.707774 263.959704 
L 310.359838 263.959704 
L 311.772854 246.64632 
L 318.837934 246.64632 
L 320.25095 217.44 
L 325.903013 217.44 
L 327.316029 203.26716 
L 334.381109 203.26716 
L 335.794125 202.18344 
L 402.205875 202.127736 
L 403.618891 158.41488 
L 410.683971 158.41488 
L 412.096987 104.198256 
L 417.74905 104.198256 
L 419.162066 100.807968 
L 471.443657 100.835688 
L 474.269689 100.946832 
L 479.921752 100.946832 
L 482.747784 100.835688 
L 511.008103 100.891392 
L 512.421119 173.616 
L 518.073183 173.616 
L 519.486199 236.670288 
L 526.551279 236.670288 
L 527.964295 163.611984 
L 533.616359 163.611984 
L 535.029375 127.013136 
L 540.681438 127.013136 
L 542.094454 124.98456 
L 549.159534 124.98456 
L 550.57255 124.845696 
L 622.636364 124.845696 
L 622.636364 124.845696 
" clip-path="url(#p37eb0dc2af)" style="fill: none; stroke: #bddf26; stroke-width: 2.5; stroke-linecap: square"/>
   </g>
   <g id="patch_3">
    <path d="M 90 320.4 
L 90 43.2 
" style="fill: none; stroke: #000000; stroke-width: 0.8; stroke-linejoin: miter; stroke-linecap: square"/>
   </g>
   <g id="patch_4">
    <path d="M 648 320.4 
L 648 43.2 
" style="fill: none; stroke: #000000; stroke-width: 0.8; stroke-linejoin: miter; stroke-linecap: square"/>
   </g>
   <g id="patch_5">
    <path d="M 90 320.4 
L 648 320.4 
" style="fill: none; stroke: #000000; stroke-width: 0.8; stroke-linejoin: miter; stroke-linecap: square"/>
   </g>
   <g id="text_16">
    <!-- $nt=Barabsi$ $d=1000$ $oc=3\%$ $l=dynamic$ -->
    <g transform="translate(198.687318 37.2) scale(0.18 -0.18)">
     <defs>
      <path id="CMMI12-6e" d="M 1318 1871 
C 1331 1910 1491 2229 1728 2433 
C 1894 2586 2112 2689 2362 2689 
C 2618 2689 2707 2497 2707 2242 
C 2707 1878 2445 1150 2317 805 
C 2259 651 2227 568 2227 453 
C 2227 166 2426 -64 2733 -64 
C 3328 -64 3552 875 3552 913 
C 3552 945 3526 971 3488 971 
C 3430 971 3424 952 3392 843 
C 3245 319 3002 64 2752 64 
C 2688 64 2586 64 2586 269 
C 2586 429 2656 621 2694 710 
C 2822 1063 3091 1780 3091 2145 
C 3091 2528 2867 2816 2381 2816 
C 1811 2816 1510 2415 1395 2255 
C 1376 2618 1114 2816 832 2816 
C 627 2816 486 2695 378 2478 
C 262 2248 173 1865 173 1839 
C 173 1814 198 1782 243 1782 
C 294 1782 301 1788 339 1935 
C 442 2325 557 2689 813 2689 
C 960 2689 1011 2586 1011 2395 
C 1011 2254 947 2005 902 1807 
L 723 1118 
C 698 996 627 709 595 594 
C 550 428 480 128 480 96 
C 480 6 550 -64 646 -64 
C 723 -64 813 -26 864 70 
C 877 102 934 326 966 453 
L 1107 1028 
L 1318 1871 
z
" transform="scale(0.015625)"/>
      <path id="CMMI12-74" d="M 1286 2566 
L 1875 2566 
C 1997 2566 2061 2566 2061 2681 
C 2061 2752 2022 2752 1894 2752 
L 1331 2752 
L 1568 3692 
C 1594 3781 1594 3794 1594 3840 
C 1594 3943 1510 4000 1427 4000 
C 1376 4000 1229 3981 1178 3775 
L 928 2752 
L 326 2752 
C 198 2752 141 2752 141 2630 
C 141 2566 186 2566 307 2566 
L 877 2566 
L 454 881 
C 403 658 384 594 384 511 
C 384 211 595 -64 954 -64 
C 1600 -64 1946 868 1946 912 
C 1946 951 1920 970 1882 970 
C 1869 970 1843 970 1830 944 
C 1824 938 1818 931 1773 829 
C 1638 511 1344 64 973 64 
C 781 64 768 224 768 364 
C 768 370 768 492 787 568 
L 1286 2566 
z
" transform="scale(0.015625)"/>
      <path id="CMR17-3d" d="M 4115 2017 
C 4211 2017 4307 2017 4307 2125 
C 4307 2240 4198 2240 4090 2240 
L 512 2240 
C 403 2240 294 2240 294 2125 
C 294 2017 390 2017 486 2017 
L 4115 2017 
z
M 4090 896 
C 4198 896 4307 896 4307 1011 
C 4307 1119 4211 1119 4115 1119 
L 486 1119 
C 390 1119 294 1119 294 1011 
C 294 896 403 896 512 896 
L 4090 896 
z
" transform="scale(0.015625)"/>
      <path id="CMMI12-42" d="M 2342 3921 
C 2400 4160 2426 4160 2675 4160 
L 3507 4160 
C 4230 4160 4230 3544 4230 3485 
C 4230 2966 3712 2304 2867 2304 
L 1946 2304 
L 2342 3921 
z
M 3424 2275 
C 4122 2402 4755 2886 4755 3473 
C 4755 3970 4314 4352 3590 4352 
L 1536 4352 
C 1414 4352 1357 4352 1357 4226 
C 1357 4160 1414 4160 1510 4160 
C 1901 4160 1901 4112 1901 4044 
C 1901 4032 1901 3993 1875 3897 
L 1011 472 
C 954 249 941 185 493 185 
C 371 185 307 185 307 70 
C 307 0 346 0 474 0 
L 2669 0 
C 3648 0 4403 739 4403 1383 
C 4403 1906 3942 2224 3424 2275 
z
M 2515 185 
L 1651 185 
C 1562 185 1549 185 1510 192 
C 1440 198 1434 211 1434 261 
C 1434 305 1446 343 1459 399 
L 1907 2176 
L 3110 2176 
C 3866 2176 3866 1483 3866 1433 
C 3866 828 3309 185 2515 185 
z
" transform="scale(0.015625)"/>
      <path id="CMMI12-61" d="M 1926 760 
C 1894 651 1894 639 1805 517 
C 1664 338 1382 64 1082 64 
C 819 64 672 300 672 677 
C 672 1028 870 1743 992 2012 
C 1210 2459 1510 2689 1760 2689 
C 2182 2689 2266 2165 2266 2114 
C 2266 2108 2246 2024 2240 2012 
L 1926 760 
z
M 2336 2395 
C 2266 2561 2093 2816 1760 2816 
C 1037 2816 256 1884 256 939 
C 256 307 627 -64 1062 -64 
C 1414 -64 1715 211 1894 422 
C 1958 45 2259 -64 2451 -64 
C 2643 -64 2797 51 2912 281 
C 3014 498 3104 888 3104 913 
C 3104 945 3078 971 3040 971 
C 2982 971 2976 939 2950 843 
C 2854 466 2733 64 2470 64 
C 2285 64 2272 230 2272 358 
C 2272 505 2291 575 2349 824 
C 2394 984 2426 1124 2477 1309 
C 2714 2267 2771 2497 2771 2535 
C 2771 2625 2701 2695 2605 2695 
C 2400 2695 2349 2472 2336 2395 
z
" transform="scale(0.015625)"/>
      <path id="CMMI12-72" d="M 2490 2612 
C 2291 2574 2189 2433 2189 2293 
C 2189 2139 2310 2088 2400 2088 
C 2579 2088 2726 2242 2726 2433 
C 2726 2638 2528 2816 2208 2816 
C 1952 2816 1658 2701 1389 2312 
C 1344 2650 1088 2816 832 2816 
C 582 2816 454 2625 378 2484 
C 269 2254 173 1871 173 1839 
C 173 1814 198 1782 243 1782 
C 294 1782 301 1788 339 1935 
C 435 2318 557 2689 813 2689 
C 966 2689 1011 2580 1011 2395 
C 1011 2254 947 2005 902 1807 
L 723 1118 
C 698 996 627 709 595 594 
C 550 428 480 128 480 96 
C 480 6 550 -64 646 -64 
C 717 -64 838 -19 877 109 
C 896 160 1133 1124 1171 1271 
C 1203 1411 1242 1546 1274 1686 
C 1299 1775 1325 1878 1344 1961 
C 1363 2018 1536 2331 1696 2472 
C 1773 2542 1939 2689 2202 2689 
C 2304 2689 2406 2670 2490 2612 
z
" transform="scale(0.015625)"/>
      <path id="CMMI12-62" d="M 1478 4257 
C 1485 4283 1498 4321 1498 4352 
C 1498 4416 1434 4416 1421 4416 
C 1414 4416 1184 4393 1069 4377 
C 960 4377 864 4358 749 4358 
C 595 4345 550 4339 550 4224 
C 550 4160 614 4160 678 4160 
C 1005 4160 1005 4103 1005 4040 
C 1005 3996 954 3811 928 3696 
L 774 3085 
C 710 2831 346 1387 320 1272 
C 288 1114 288 1005 288 922 
C 288 274 653 -64 1069 -64 
C 1811 -64 2579 888 2579 1814 
C 2579 2401 2246 2816 1766 2816 
C 1434 2816 1133 2542 1011 2414 
L 1478 4257 
z
M 1075 64 
C 870 64 646 217 646 715 
C 646 926 666 1047 781 1494 
C 800 1577 902 1986 928 2069 
C 941 2120 1318 2689 1754 2689 
C 2035 2689 2163 2408 2163 2076 
C 2163 1769 1984 1047 1824 715 
C 1664 370 1370 64 1075 64 
z
" transform="scale(0.015625)"/>
      <path id="CMMI12-73" d="M 1459 1280 
C 1568 1261 1741 1223 1779 1216 
C 1862 1192 2150 1090 2150 783 
C 2150 586 1971 70 1229 70 
C 1094 70 614 70 486 436 
C 742 404 870 603 870 745 
C 870 880 781 950 653 950 
C 512 950 326 841 326 552 
C 326 173 710 -64 1222 -64 
C 2195 -64 2483 651 2483 984 
C 2483 1079 2483 1258 2278 1462 
C 2118 1616 1965 1648 1619 1718 
C 1446 1756 1171 1814 1171 2101 
C 1171 2229 1286 2689 1894 2689 
C 2163 2689 2426 2589 2490 2368 
C 2208 2368 2195 2125 2195 2119 
C 2195 1984 2317 1946 2374 1946 
C 2464 1946 2643 2015 2643 2281 
C 2643 2545 2400 2816 1901 2816 
C 1062 2816 838 2160 838 1899 
C 838 1414 1312 1312 1459 1280 
z
" transform="scale(0.015625)"/>
      <path id="CMMI12-69" d="M 1811 913 
C 1811 945 1786 971 1747 971 
C 1690 971 1683 952 1651 843 
C 1485 262 1222 64 1011 64 
C 934 64 845 83 845 275 
C 845 447 922 639 992 830 
L 1440 2018 
C 1459 2069 1504 2184 1504 2305 
C 1504 2574 1312 2816 998 2816 
C 410 2816 173 1890 173 1839 
C 173 1814 198 1782 243 1782 
C 301 1782 307 1807 333 1896 
C 486 2428 730 2682 979 2682 
C 1037 2682 1146 2682 1146 2478 
C 1146 2312 1062 2101 1011 1961 
L 563 773 
C 525 671 486 568 486 453 
C 486 166 685 -64 992 -64 
C 1581 -64 1811 869 1811 913 
z
M 1760 4013 
C 1760 4109 1683 4224 1542 4224 
C 1395 4224 1229 4083 1229 3917 
C 1229 3758 1363 3707 1440 3707 
C 1613 3707 1760 3873 1760 4013 
z
" transform="scale(0.015625)"/>
      <path id="CMMI12-64" d="M 3219 4257 
C 3226 4282 3238 4320 3238 4352 
C 3238 4416 3174 4416 3162 4416 
C 3155 4416 2842 4388 2810 4380 
C 2701 4373 2605 4358 2490 4358 
C 2330 4345 2285 4339 2285 4224 
C 2285 4160 2336 4160 2426 4160 
C 2739 4160 2746 4103 2746 4040 
C 2746 4002 2733 3952 2726 3933 
L 2336 2395 
C 2266 2561 2093 2816 1760 2816 
C 1037 2816 256 1884 256 939 
C 256 307 627 -64 1062 -64 
C 1414 -64 1715 211 1894 422 
C 1958 45 2259 -64 2451 -64 
C 2643 -64 2797 51 2912 281 
C 3014 498 3104 888 3104 913 
C 3104 945 3078 971 3040 971 
C 2982 971 2976 939 2950 843 
C 2854 466 2733 64 2470 64 
C 2285 64 2272 229 2272 357 
C 2272 382 2272 515 2317 694 
L 3219 4257 
z
M 1926 760 
C 1894 651 1894 639 1805 517 
C 1664 338 1382 64 1082 64 
C 819 64 672 300 672 677 
C 672 1028 870 1743 992 2012 
C 1210 2459 1510 2689 1760 2689 
C 2182 2689 2266 2165 2266 2114 
C 2266 2108 2246 2024 2240 2012 
L 1926 760 
z
" transform="scale(0.015625)"/>
      <path id="CMMI12-6f" d="M 2918 1756 
C 2918 2363 2522 2816 1939 2816 
C 1094 2816 262 1897 262 996 
C 262 390 659 -64 1242 -64 
C 2093 -64 2918 856 2918 1756 
z
M 1248 64 
C 928 64 691 319 691 766 
C 691 1060 845 1712 1024 2031 
C 1312 2523 1670 2689 1933 2689 
C 2246 2689 2490 2433 2490 1986 
C 2490 1731 2355 1047 2112 658 
C 1850 230 1498 64 1248 64 
z
" transform="scale(0.015625)"/>
      <path id="CMMI12-63" d="M 2502 2431 
C 2381 2431 2323 2431 2234 2355 
C 2195 2323 2125 2227 2125 2125 
C 2125 1997 2221 1920 2342 1920 
C 2496 1920 2669 2044 2669 2292 
C 2669 2588 2374 2816 1933 2816 
C 1094 2816 256 1903 256 996 
C 256 441 602 -64 1254 -64 
C 2125 -64 2675 622 2675 706 
C 2675 744 2637 776 2611 776 
C 2592 776 2586 770 2528 713 
C 2118 162 1510 64 1267 64 
C 826 64 685 446 685 764 
C 685 988 794 1605 1024 2039 
C 1190 2338 1536 2682 1939 2682 
C 2022 2682 2374 2682 2502 2431 
z
" transform="scale(0.015625)"/>
      <path id="CMR17-25" d="M 4640 959 
C 4640 1698 4275 2240 3846 2240 
C 3411 2240 2970 1736 2970 959 
C 2970 183 3405 -320 3846 -320 
C 4275 -320 4640 215 4640 959 
z
M 3853 -218 
C 3686 -218 3270 -66 3270 959 
C 3270 1991 3686 2138 3853 2138 
C 4205 2138 4525 1634 4525 959 
C 4525 285 4205 -218 3853 -218 
z
M 4083 4577 
C 4128 4647 4134 4653 4134 4685 
C 4134 4761 4077 4800 4026 4800 
C 3962 4800 3936 4756 3891 4706 
C 3520 4190 3008 4134 2746 4134 
C 2106 4134 1715 4494 1594 4607 
C 1510 4682 1389 4800 1171 4800 
C 736 4800 294 4296 294 3519 
C 294 2743 730 2240 1171 2240 
C 1600 2240 1965 2778 1965 3527 
C 1965 3969 1830 4270 1811 4308 
C 2202 4064 2586 4032 2752 4032 
C 3162 4032 3456 4183 3616 4289 
L 3622 4283 
L 858 -84 
C 800 -174 800 -187 800 -206 
C 800 -276 858 -320 915 -320 
C 973 -320 992 -289 1037 -218 
L 4083 4577 
z
M 1178 2342 
C 1011 2342 595 2494 595 3519 
C 595 4551 1011 4698 1178 4698 
C 1530 4698 1850 4194 1850 3519 
C 1850 2845 1530 2342 1178 2342 
z
" transform="scale(0.015625)"/>
      <path id="CMMI12-6c" d="M 1626 4257 
C 1632 4282 1645 4320 1645 4352 
C 1645 4416 1581 4416 1568 4416 
C 1562 4416 1331 4393 1216 4377 
C 1107 4377 1011 4358 896 4358 
C 742 4345 698 4339 698 4224 
C 698 4160 762 4160 826 4160 
C 1152 4160 1152 4102 1152 4039 
C 1152 4014 1152 4001 1120 3887 
L 326 731 
C 307 661 294 610 294 509 
C 294 191 531 -64 858 -64 
C 1069 -64 1210 76 1312 274 
C 1421 483 1510 884 1510 909 
C 1510 941 1485 967 1446 967 
C 1389 967 1382 935 1357 840 
C 1242 401 1126 64 870 64 
C 678 64 678 267 678 357 
C 678 382 678 515 723 694 
L 1626 4257 
z
" transform="scale(0.015625)"/>
      <path id="CMMI12-79" d="M 1683 -700 
C 1510 -939 1261 -1152 947 -1152 
C 870 -1152 563 -1152 467 -889 
C 486 -895 518 -895 531 -895 
C 723 -895 851 -729 851 -582 
C 851 -435 730 -384 634 -384 
C 531 -384 307 -458 307 -759 
C 307 -1071 582 -1286 947 -1286 
C 1587 -1286 2234 -700 2413 6 
L 3040 2485 
C 3046 2517 3059 2556 3059 2594 
C 3059 2689 2982 2753 2886 2753 
C 2829 2753 2694 2727 2643 2535 
L 2170 658 
C 2138 543 2138 530 2086 460 
C 1958 281 1747 64 1440 64 
C 1082 64 1050 415 1050 588 
C 1050 952 1222 1443 1395 1903 
C 1466 2088 1504 2178 1504 2305 
C 1504 2574 1312 2816 998 2816 
C 410 2816 173 1890 173 1839 
C 173 1814 198 1782 243 1782 
C 301 1782 307 1807 333 1897 
C 486 2433 730 2689 979 2689 
C 1037 2689 1146 2689 1146 2478 
C 1146 2312 1075 2127 979 1884 
C 666 1047 666 837 666 683 
C 666 77 1101 -64 1421 -64 
C 1606 -64 1837 -6 2061 230 
L 2067 224 
C 1971 -147 1907 -392 1683 -700 
z
" transform="scale(0.015625)"/>
      <path id="CMMI12-6d" d="M 1318 1871 
C 1331 1910 1491 2229 1728 2433 
C 1894 2586 2112 2689 2362 2689 
C 2618 2689 2707 2497 2707 2242 
C 2707 2203 2707 2076 2630 1775 
L 2470 1118 
C 2419 926 2298 453 2285 383 
C 2259 287 2221 121 2221 96 
C 2221 6 2291 -64 2387 -64 
C 2579 -64 2611 83 2669 313 
L 3053 1839 
C 3066 1890 3398 2689 4102 2689 
C 4358 2689 4448 2497 4448 2242 
C 4448 1884 4198 1188 4058 805 
C 4000 651 3968 568 3968 453 
C 3968 166 4166 -64 4474 -64 
C 5069 -64 5293 875 5293 913 
C 5293 945 5267 971 5229 971 
C 5171 971 5165 952 5133 843 
C 4986 332 4749 64 4493 64 
C 4429 64 4326 64 4326 269 
C 4326 436 4403 640 4429 710 
C 4544 1018 4832 1773 4832 2145 
C 4832 2528 4608 2816 4122 2816 
C 3693 2816 3347 2574 3091 2197 
C 3072 2542 2861 2816 2381 2816 
C 1811 2816 1510 2415 1395 2255 
C 1376 2618 1114 2816 832 2816 
C 646 2816 499 2727 378 2484 
C 262 2254 173 1865 173 1839 
C 173 1814 198 1782 243 1782 
C 294 1782 301 1788 339 1935 
C 435 2312 557 2689 813 2689 
C 960 2689 1011 2586 1011 2395 
C 1011 2254 947 2005 902 1807 
L 723 1118 
C 698 996 627 709 595 594 
C 550 428 480 128 480 96 
C 480 6 550 -64 646 -64 
C 723 -64 813 -26 864 70 
C 877 102 934 326 966 453 
L 1107 1028 
L 1318 1871 
z
" transform="scale(0.015625)"/>
     </defs>
     <use xlink:href="#CMMI12-6e" transform="scale(0.996264)"/>
     <use xlink:href="#CMMI12-74" transform="translate(58.230047 0) scale(0.996264)"/>
     <use xlink:href="#CMR17-3d" transform="translate(121.130386 0) scale(0.996264)"/>
     <use xlink:href="#CMMI12-42" transform="translate(220.519183 0) scale(0.996264)"/>
     <use xlink:href="#CMMI12-61" transform="translate(299.654707 0) scale(0.996264)"/>
     <use xlink:href="#CMMI12-72" transform="translate(350.862564 0) scale(0.996264)"/>
     <use xlink:href="#CMMI12-61" transform="translate(397.533176 0) scale(0.996264)"/>
     <use xlink:href="#CMMI12-62" transform="translate(448.741034 0) scale(0.996264)"/>
     <use xlink:href="#CMMI12-73" transform="translate(490.216908 0) scale(0.996264)"/>
     <use xlink:href="#CMMI12-69" transform="translate(536.166956 0) scale(0.996264)"/>
     <use xlink:href="#CMMI12-64" transform="translate(600.67467 0) scale(0.996264)"/>
     <use xlink:href="#CMR17-3d" transform="translate(679.037776 0) scale(0.996264)"/>
     <use xlink:href="#CMR17-31" transform="translate(778.426573 0) scale(0.996264)"/>
     <use xlink:href="#CMR17-30" transform="translate(824.11705 0) scale(0.996264)"/>
     <use xlink:href="#CMR17-30" transform="translate(869.807527 0) scale(0.996264)"/>
     <use xlink:href="#CMR17-30" transform="translate(915.498004 0) scale(0.996264)"/>
     <use xlink:href="#CMMI12-6f" transform="translate(992.417594 0) scale(0.996264)"/>
     <use xlink:href="#CMMI12-63" transform="translate(1039.312904 0) scale(0.996264)"/>
     <use xlink:href="#CMR17-3d" transform="translate(1108.970146 0) scale(0.996264)"/>
     <use xlink:href="#CMR17-33" transform="translate(1208.358943 0) scale(0.996264)"/>
     <use xlink:href="#CMR17-25" transform="translate(1254.04942 0) scale(0.996264)"/>
     <use xlink:href="#CMMI12-6c" transform="translate(1362.198123 0) scale(0.996264)"/>
     <use xlink:href="#CMR17-3d" transform="translate(1421.120536 0) scale(0.996264)"/>
     <use xlink:href="#CMMI12-64" transform="translate(1520.509333 0) scale(0.996264)"/>
     <use xlink:href="#CMMI12-79" transform="translate(1571.198429 0) scale(0.996264)"/>
     <use xlink:href="#CMMI12-6e" transform="translate(1622.33721 0) scale(0.996264)"/>
     <use xlink:href="#CMMI12-61" transform="translate(1680.567258 0) scale(0.996264)"/>
     <use xlink:href="#CMMI12-6d" transform="translate(1731.775115 0) scale(0.996264)"/>
     <use xlink:href="#CMMI12-69" transform="translate(1817.10234 0) scale(0.996264)"/>
     <use xlink:href="#CMMI12-63" transform="translate(1850.380941 0) scale(0.996264)"/>
    </g>
   </g>
  </g>
  <g id="axes_2">
   <g id="matplotlib.axis_3">
    <g id="ytick_7">
     <g id="line2d_22">
      <defs>
       <path id="m0a781f184c" d="M 0 0 
L 3.5 0 
" style="stroke: #000000; stroke-width: 0.8"/>
      </defs>
      <g>
       <use xlink:href="#m0a781f184c" x="648" y="320.4" style="stroke: #000000; stroke-width: 0.8"/>
      </g>
     </g>
     <g id="text_17">
      <!-- $\mathdefault{0}$ -->
      <g transform="translate(655 325.415904) scale(0.145 -0.145)">
       <use xlink:href="#CMR17-30" transform="scale(0.996264)"/>
      </g>
     </g>
    </g>
    <g id="ytick_8">
     <g id="line2d_23">
      <g>
       <use xlink:href="#m0a781f184c" x="648" y="264.987706" style="stroke: #000000; stroke-width: 0.8"/>
      </g>
     </g>
     <g id="text_18">
      <!-- $\mathdefault{20}$ -->
      <g transform="translate(655 270.00361) scale(0.145 -0.145)">
       <use xlink:href="#CMR17-32" transform="scale(0.996264)"/>
       <use xlink:href="#CMR17-30" transform="translate(45.690477 0) scale(0.996264)"/>
      </g>
     </g>
    </g>
    <g id="ytick_9">
     <g id="line2d_24">
      <g>
       <use xlink:href="#m0a781f184c" x="648" y="209.575412" style="stroke: #000000; stroke-width: 0.8"/>
      </g>
     </g>
     <g id="text_19">
      <!-- $\mathdefault{40}$ -->
      <g transform="translate(655 214.591316) scale(0.145 -0.145)">
       <use xlink:href="#CMR17-34" transform="scale(0.996264)"/>
       <use xlink:href="#CMR17-30" transform="translate(45.690477 0) scale(0.996264)"/>
      </g>
     </g>
    </g>
    <g id="ytick_10">
     <g id="line2d_25">
      <g>
       <use xlink:href="#m0a781f184c" x="648" y="154.163118" style="stroke: #000000; stroke-width: 0.8"/>
      </g>
     </g>
     <g id="text_20">
      <!-- $\mathdefault{60}$ -->
      <g transform="translate(655 159.179023) scale(0.145 -0.145)">
       <use xlink:href="#CMR17-36" transform="scale(0.996264)"/>
       <use xlink:href="#CMR17-30" transform="translate(45.690477 0) scale(0.996264)"/>
      </g>
     </g>
    </g>
    <g id="ytick_11">
     <g id="line2d_26">
      <g>
       <use xlink:href="#m0a781f184c" x="648" y="98.750825" style="stroke: #000000; stroke-width: 0.8"/>
      </g>
     </g>
     <g id="text_21">
      <!-- $\mathdefault{80}$ -->
      <g transform="translate(655 103.766729) scale(0.145 -0.145)">
       <use xlink:href="#CMR17-38" transform="scale(0.996264)"/>
       <use xlink:href="#CMR17-30" transform="translate(45.690477 0) scale(0.996264)"/>
      </g>
     </g>
    </g>
    <g id="ytick_12">
     <g id="line2d_27">
      <g>
       <use xlink:href="#m0a781f184c" x="648" y="43.338531" style="stroke: #000000; stroke-width: 0.8"/>
      </g>
     </g>
     <g id="text_22">
      <!-- $\mathdefault{100}$ -->
      <g transform="translate(655 48.354435) scale(0.145 -0.145)">
       <use xlink:href="#CMR17-31" transform="scale(0.996264)"/>
       <use xlink:href="#CMR17-30" transform="translate(45.690477 0) scale(0.996264)"/>
       <use xlink:href="#CMR17-30" transform="translate(91.380954 0) scale(0.996264)"/>
      </g>
     </g>
    </g>
    <g id="text_23">
     <!-- CPU load in \% -->
     <g transform="translate(690.248875 226.102524) rotate(-90) scale(0.145 -0.145)">
      <defs>
       <path id="CMSS17-43" d="M 3501 714 
C 3072 427 2874 344 2355 344 
C 1459 344 934 1303 934 2179 
C 934 3112 1472 4032 2381 4032 
C 2790 4032 3059 3918 3386 3715 
L 3475 4217 
C 3168 4370 2778 4440 2387 4440 
C 1158 4440 397 3316 397 2179 
C 397 927 1299 -64 2323 -64 
C 2874 -64 3066 -19 3539 280 
L 3501 714 
z
" transform="scale(0.015625)"/>
       <path id="CMSS17-50" d="M 2106 1856 
C 2874 1856 3501 2453 3501 3158 
C 3501 3850 2899 4453 2067 4453 
L 570 4453 
L 570 0 
L 1107 0 
L 1107 1856 
L 2106 1856 
z
M 1926 4096 
C 2669 4096 2995 3627 2995 3157 
C 2995 2720 2694 2226 1926 2226 
L 1094 2226 
L 1094 4096 
L 1926 4096 
z
" transform="scale(0.015625)"/>
       <path id="CMSS17-55" d="M 3552 4384 
L 3066 4384 
L 3066 1449 
C 3066 604 2547 229 2074 229 
C 1587 229 1101 623 1101 1443 
L 1101 4384 
L 563 4384 
L 563 1454 
C 563 539 1274 -128 2067 -128 
C 2861 -128 3552 539 3552 1454 
L 3552 4384 
z
" transform="scale(0.015625)"/>
       <path id="CMSS17-6c" d="M 947 4416 
L 474 4416 
L 474 0 
L 947 0 
L 947 4416 
z
" transform="scale(0.015625)"/>
       <path id="CMSS17-61" d="M 2406 1791 
C 2406 2392 1978 2808 1402 2808 
C 1120 2808 813 2757 461 2553 
L 499 2135 
C 659 2248 934 2432 1395 2432 
C 1722 2432 1920 2180 1920 1782 
L 1920 1536 
C 896 1536 256 1238 256 726 
C 256 461 416 -64 947 -64 
C 1043 -64 1562 -64 1933 217 
L 1933 -19 
L 2406 -19 
L 2406 1791 
z
M 1920 816 
C 1920 701 1920 548 1728 434 
C 1562 325 1350 325 1261 325 
C 941 325 723 511 723 744 
C 723 1211 1722 1211 1920 1211 
L 1920 816 
z
" transform="scale(0.015625)"/>
       <path id="CMSS17-64" d="M 2611 4416 
L 2138 4416 
L 2138 2438 
C 1939 2603 1613 2756 1254 2756 
C 672 2756 211 2131 211 1347 
C 211 562 666 -64 1235 -64 
C 1677 -64 1971 172 2125 306 
L 2125 -13 
L 2611 -13 
L 2611 4416 
z
M 2125 836 
C 2125 747 2125 653 1926 482 
C 1798 375 1645 325 1498 325 
C 1152 325 698 576 698 1340 
C 698 2134 1210 2368 1562 2368 
C 1798 2368 1990 2254 2125 2065 
L 2125 836 
z
" transform="scale(0.015625)"/>
       <path id="CMSS17-6e" d="M 2618 1877 
C 2618 2283 2522 2816 1798 2816 
C 1389 2816 1120 2606 941 2389 
L 941 2758 
L 474 2758 
L 474 0 
L 960 0 
L 960 1559 
C 960 1964 1114 2428 1549 2428 
C 2112 2428 2131 2048 2131 1829 
L 2131 0 
L 2618 0 
L 2618 1877 
z
" transform="scale(0.015625)"/>
       <path id="CMSS17-25" d="M 3923 4583 
C 3962 4647 3962 4679 3962 4685 
C 3962 4755 3904 4800 3853 4800 
C 3782 4800 3750 4749 3718 4685 
L 1101 -104 
C 1088 -129 1062 -167 1062 -206 
C 1062 -276 1120 -320 1178 -320 
C 1235 -320 1248 -295 1299 -206 
L 3923 4583 
z
M 4678 959 
C 4678 1698 4282 2240 3846 2240 
C 3418 2240 3008 1711 3008 959 
C 3008 208 3418 -320 3846 -320 
C 4288 -320 4678 221 4678 959 
z
M 3846 68 
C 3712 68 3494 189 3494 959 
C 3494 1724 3712 1851 3846 1851 
C 4083 1851 4211 1386 4211 959 
C 4211 533 4083 68 3846 68 
z
M 2003 3519 
C 2003 4258 1606 4800 1171 4800 
C 742 4800 333 4271 333 3519 
C 333 2768 742 2240 1171 2240 
C 1613 2240 2003 2781 2003 3519 
z
M 1171 2628 
C 1037 2628 819 2749 819 3519 
C 819 4284 1037 4411 1171 4411 
C 1408 4411 1536 3946 1536 3519 
C 1536 3093 1408 2628 1171 2628 
z
" transform="scale(0.015625)"/>
      </defs>
      <use xlink:href="#CMSS17-43" transform="scale(0.996264)"/>
      <use xlink:href="#CMSS17-50" transform="translate(59.855772 0) scale(0.996264)"/>
      <use xlink:href="#CMSS17-55" transform="translate(119.591358 0) scale(0.996264)"/>
      <use xlink:href="#CMSS17-6c" transform="translate(214.960211 0) scale(0.996264)"/>
      <use xlink:href="#CMSS17-6f" transform="translate(237.140934 0) scale(0.996264)"/>
      <use xlink:href="#CMSS17-61" transform="translate(283.984557 0) scale(0.996264)"/>
      <use xlink:href="#CMSS17-64" transform="translate(328.906478 0) scale(0.996264)"/>
      <use xlink:href="#CMSS17-69" transform="translate(408.340534 0) scale(0.996264)"/>
      <use xlink:href="#CMSS17-6e" transform="translate(430.521257 0) scale(0.996264)"/>
      <use xlink:href="#CMSS17-25" transform="translate(509.955313 0) scale(0.996264)"/>
     </g>
    </g>
   </g>
   <g id="line2d_28">
    <path d="M 115.363636 98.051322 
L 180.36237 98.051322 
L 181.775386 208.774293 
L 187.42745 208.774293 
L 188.840466 209.225661 
L 287.751583 209.225661 
L 289.164599 161.71589 
L 294.816662 161.71589 
L 296.229678 153.638492 
L 402.205875 153.638492 
L 403.618891 264.812831 
L 511.008103 264.812831 
L 512.421119 237.628936 
L 518.073183 237.628936 
L 519.486199 237.019246 
L 622.636364 237.019246 
L 622.636364 237.019246 
" clip-path="url(#p37eb0dc2af)" style="fill: none; stroke-dasharray: 5.55,2.4; stroke-dashoffset: 0; stroke: #140e36; stroke-width: 1.5"/>
   </g>
   <g id="patch_6">
    <path d="M 90 320.4 
L 90 43.2 
" style="fill: none; stroke: #000000; stroke-width: 0.8; stroke-linejoin: miter; stroke-linecap: square"/>
   </g>
   <g id="patch_7">
    <path d="M 648 320.4 
L 648 43.2 
" style="fill: none; stroke: #000000; stroke-width: 0.8; stroke-linejoin: miter; stroke-linecap: square"/>
   </g>
   <g id="patch_8">
    <path d="M 90 320.4 
L 648 320.4 
" style="fill: none; stroke: #000000; stroke-width: 0.8; stroke-linejoin: miter; stroke-linecap: square"/>
   </g>
   <g id="patch_9">
    <path d="M 90 43.2 
L 648 43.2 
" style="fill: none; stroke: #000000; stroke-width: 0.8; stroke-linejoin: miter; stroke-linecap: square"/>
   </g>
   <g id="legend_1">
    <g id="patch_10">
     <path d="M 481.7533 313.15 
L 637.85 313.15 
Q 640.75 313.15 640.75 310.25 
L 640.75 246.612516 
Q 640.75 243.712516 637.85 243.712516 
L 481.7533 243.712516 
Q 478.8533 243.712516 478.8533 246.612516 
L 478.8533 310.25 
Q 478.8533 313.15 481.7533 313.15 
z
" style="fill: #ffffff; opacity: 0.7; stroke: #cccccc; stroke-linejoin: miter"/>
    </g>
    <g id="line2d_29">
     <path d="M 484.6533 255.271887 
L 499.1533 255.271887 
L 513.6533 255.271887 
" style="fill: none; stroke: #482475; stroke-width: 2.5; stroke-linecap: square"/>
    </g>
    <g id="text_24">
     <!-- QoS [static] -->
     <g transform="translate(525.2533 260.346887) scale(0.145 -0.145)">
      <defs>
       <path id="CMSS17-5b" d="M 1613 -1600 
L 1613 -1212 
L 1062 -1212 
L 1062 4352 
L 1613 4352 
L 1613 4741 
L 595 4741 
L 595 -1600 
L 1613 -1600 
z
" transform="scale(0.015625)"/>
       <path id="CMSS17-63" d="M 2464 2541 
C 2464 2585 2170 2714 2093 2739 
C 1882 2816 1613 2816 1542 2816 
C 710 2816 211 2093 211 1363 
C 211 595 768 -64 1517 -64 
C 1946 -64 2253 76 2502 242 
L 2464 664 
C 2189 453 1869 337 1523 337 
C 1024 337 698 774 698 1369 
C 698 1831 909 2414 1549 2414 
C 1901 2414 2099 2343 2394 2145 
L 2464 2541 
z
" transform="scale(0.015625)"/>
       <path id="CMSS17-5d" d="M 1146 4741 
L 128 4741 
L 128 4352 
L 678 4352 
L 678 -1212 
L 128 -1212 
L 128 -1600 
L 1146 -1600 
L 1146 4741 
z
" transform="scale(0.015625)"/>
      </defs>
      <use xlink:href="#CMSS17-51" transform="scale(0.996264)"/>
      <use xlink:href="#CMSS17-6f" transform="translate(69.024255 0) scale(0.996264)"/>
      <use xlink:href="#CMSS17-53" transform="translate(115.867879 0) scale(0.996264)"/>
      <use xlink:href="#CMSS17-5b" transform="translate(199.145508 0) scale(0.996264)"/>
      <use xlink:href="#CMSS17-73" transform="translate(226.330946 0) scale(0.996264)"/>
      <use xlink:href="#CMSS17-74" transform="translate(262.244488 0) scale(0.996264)"/>
      <use xlink:href="#CMSS17-61" transform="translate(296.076055 0) scale(0.996264)"/>
      <use xlink:href="#CMSS17-74" transform="translate(340.997976 0) scale(0.996264)"/>
      <use xlink:href="#CMSS17-69" transform="translate(374.829542 0) scale(0.996264)"/>
      <use xlink:href="#CMSS17-63" transform="translate(397.010265 0) scale(0.996264)"/>
      <use xlink:href="#CMSS17-5d" transform="translate(438.649088 0) scale(0.996264)"/>
     </g>
    </g>
    <g id="line2d_30">
     <path d="M 484.6533 276.967715 
L 499.1533 276.967715 
L 513.6533 276.967715 
" style="fill: none; stroke: #bddf26; stroke-width: 2.5; stroke-linecap: square"/>
    </g>
    <g id="text_25">
     <!-- QoS [dynamic] -->
     <g transform="translate(525.2533 282.042715) scale(0.145 -0.145)">
      <defs>
       <path id="CMSS17-79" d="M 2675 2752 
L 2176 2752 
C 1632 1294 1446 702 1434 383 
L 1427 383 
C 1408 696 1126 1460 902 2007 
L 602 2752 
L 83 2752 
L 1216 13 
C 1146 -178 1043 -465 1011 -529 
C 870 -885 774 -885 672 -885 
C 646 -885 442 -885 211 -809 
L 250 -1229 
C 410 -1261 570 -1280 685 -1280 
C 845 -1280 1165 -1280 1459 -497 
L 2675 2752 
z
" transform="scale(0.015625)"/>
      </defs>
      <use xlink:href="#CMSS17-51" transform="scale(0.996264)"/>
      <use xlink:href="#CMSS17-6f" transform="translate(69.024255 0) scale(0.996264)"/>
      <use xlink:href="#CMSS17-53" transform="translate(115.867879 0) scale(0.996264)"/>
      <use xlink:href="#CMSS17-5b" transform="translate(199.145508 0) scale(0.996264)"/>
      <use xlink:href="#CMSS17-64" transform="translate(226.330946 0) scale(0.996264)"/>
      <use xlink:href="#CMSS17-79" transform="translate(274.53589 0) scale(0.996264)"/>
      <use xlink:href="#CMSS17-6e" transform="translate(317.536031 0) scale(0.996264)"/>
      <use xlink:href="#CMSS17-61" transform="translate(365.740974 0) scale(0.996264)"/>
      <use xlink:href="#CMSS17-6d" transform="translate(410.662895 0) scale(0.996264)"/>
      <use xlink:href="#CMSS17-69" transform="translate(484.892149 0) scale(0.996264)"/>
      <use xlink:href="#CMSS17-63" transform="translate(507.072872 0) scale(0.996264)"/>
      <use xlink:href="#CMSS17-5d" transform="translate(548.711695 0) scale(0.996264)"/>
     </g>
    </g>
    <g id="line2d_31">
     <path d="M 484.6533 298.663543 
L 499.1533 298.663543 
L 513.6533 298.663543 
" style="fill: none; stroke-dasharray: 5.55,2.4; stroke-dashoffset: 0; stroke: #140e36; stroke-width: 1.5"/>
    </g>
    <g id="text_26">
     <!-- Load driver (right) -->
     <g transform="translate(525.2533 303.738543) scale(0.145 -0.145)">
      <defs>
       <path id="CMSS17-4c" d="M 1670 414 
C 1594 414 1517 414 1440 414 
L 1101 414 
L 1101 4416 
L 563 4416 
L 563 0 
L 3002 0 
L 3002 414 
L 1670 414 
z
" transform="scale(0.015625)"/>
       <path id="CMSS17-72" d="M 954 1363 
C 954 1965 1395 2368 1958 2368 
L 1958 2789 
C 1549 2789 1165 2585 934 2253 
L 934 2758 
L 480 2758 
L 480 0 
L 954 0 
L 954 1363 
z
" transform="scale(0.015625)"/>
       <path id="CMSS17-76" d="M 2675 2752 
L 2176 2752 
L 1747 1556 
C 1613 1165 1421 627 1389 352 
L 1382 352 
C 1370 468 1318 634 1286 749 
C 1248 890 1197 1056 1158 1172 
L 595 2752 
L 83 2752 
L 1094 0 
L 1664 0 
L 2675 2752 
z
" transform="scale(0.015625)"/>
       <path id="CMSS17-67" d="M 2848 2808 
C 2483 2808 2170 2738 1914 2617 
C 1702 2777 1485 2808 1338 2808 
C 781 2808 358 2349 358 1814 
C 358 1468 550 1207 563 1195 
C 448 1035 384 863 384 672 
C 384 448 474 289 544 200 
C 211 -3 166 -314 166 -435 
C 166 -898 749 -1280 1498 -1280 
C 2253 -1280 2835 -898 2835 -428 
C 2835 448 1856 448 1587 448 
L 1069 448 
C 973 448 717 448 717 791 
C 717 921 774 1004 781 1010 
C 877 940 1075 832 1338 832 
C 1869 832 2310 1278 2310 1827 
C 2310 2132 2170 2355 2112 2432 
L 2131 2432 
C 2150 2432 2419 2432 2515 2432 
C 2720 2432 2739 2429 2918 2419 
L 2848 2808 
z
M 1338 1182 
C 1120 1182 813 1315 813 1823 
C 813 2375 1165 2464 1331 2464 
C 1549 2464 1856 2331 1856 1823 
C 1856 1271 1504 1182 1338 1182 
z
M 1581 -10 
C 1734 -10 2381 -10 2381 -442 
C 2381 -714 1984 -929 1504 -929 
C 1018 -929 621 -720 621 -435 
C 621 -403 621 -10 1062 -10 
L 1581 -10 
z
" transform="scale(0.015625)"/>
       <path id="CMSS17-68" d="M 2618 1891 
C 2618 2292 2522 2820 1798 2820 
C 1395 2820 1133 2623 947 2407 
L 947 4448 
L 474 4448 
L 474 32 
L 960 32 
L 960 1573 
C 960 1973 1114 2432 1549 2432 
C 2112 2432 2131 2056 2131 1839 
L 2131 32 
L 2618 32 
L 2618 1891 
z
" transform="scale(0.015625)"/>
      </defs>
      <use xlink:href="#CMSS17-4c" transform="scale(0.996264)"/>
      <use xlink:href="#CMSS17-6f" transform="translate(50.687105 0) scale(0.996264)"/>
      <use xlink:href="#CMSS17-61" transform="translate(97.530729 0) scale(0.996264)"/>
      <use xlink:href="#CMSS17-64" transform="translate(142.452649 0) scale(0.996264)"/>
      <use xlink:href="#CMSS17-64" transform="translate(221.886705 0) scale(0.996264)"/>
      <use xlink:href="#CMSS17-72" transform="translate(270.091649 0) scale(0.996264)"/>
      <use xlink:href="#CMSS17-69" transform="translate(302.001421 0) scale(0.996264)"/>
      <use xlink:href="#CMSS17-76" transform="translate(324.182144 0) scale(0.996264)"/>
      <use xlink:href="#CMSS17-65" transform="translate(367.182286 0) scale(0.996264)"/>
      <use xlink:href="#CMSS17-72" transform="translate(408.821108 0) scale(0.996264)"/>
      <use xlink:href="#CMSS17-28" transform="translate(471.959993 0) scale(0.996264)"/>
      <use xlink:href="#CMSS17-72" transform="translate(508.393907 0) scale(0.996264)"/>
      <use xlink:href="#CMSS17-69" transform="translate(540.30368 0) scale(0.996264)"/>
      <use xlink:href="#CMSS17-67" transform="translate(562.484403 0) scale(0.996264)"/>
      <use xlink:href="#CMSS17-68" transform="translate(609.328026 0) scale(0.996264)"/>
      <use xlink:href="#CMSS17-74" transform="translate(657.53297 0) scale(0.996264)"/>
      <use xlink:href="#CMSS17-29" transform="translate(691.364536 0) scale(0.996264)"/>
     </g>
    </g>
   </g>
  </g>
 </g>
 <defs>
  <clipPath id="p37eb0dc2af">
   <rect x="90" y="43.2" width="558" height="277.2"/>
  </clipPath>
 </defs>
</svg>
