<?xml version="1.0" encoding="utf-8" standalone="no"?>
<!DOCTYPE svg PUBLIC "-//W3C//DTD SVG 1.1//EN"
  "http://www.w3.org/Graphics/SVG/1.1/DTD/svg11.dtd">
<svg xmlns:xlink="http://www.w3.org/1999/xlink" width="576pt" height="360pt" viewBox="0 0 576 360" xmlns="http://www.w3.org/2000/svg" version="1.1">
 <metadata>
  <rdf:RDF xmlns:dc="http://purl.org/dc/elements/1.1/" xmlns:cc="http://creativecommons.org/ns#" xmlns:rdf="http://www.w3.org/1999/02/22-rdf-syntax-ns#">
   <cc:Work>
    <dc:type rdf:resource="http://purl.org/dc/dcmitype/StillImage"/>
    <dc:date>2023-12-15T16:06:06.210945</dc:date>
    <dc:format>image/svg+xml</dc:format>
    <dc:creator>
     <cc:Agent>
      <dc:title>Matplotlib v3.8.0, https://matplotlib.org/</dc:title>
     </cc:Agent>
    </dc:creator>
   </cc:Work>
  </rdf:RDF>
 </metadata>
 <defs>
  <style type="text/css">*{stroke-linejoin: round; stroke-linecap: butt}</style>
 </defs>
 <g id="figure_1">
  <g id="patch_1">
   <path d="M 0 360 
L 576 360 
L 576 0 
L 0 0 
z
" style="fill: #ffffff"/>
  </g>
  <g id="axes_1">
   <g id="patch_2">
    <path d="M 72 320.4 
L 518.4 320.4 
L 518.4 43.2 
L 72 43.2 
z
" style="fill: #ffffff"/>
   </g>
   <g id="PolyCollection_1">
    <defs>
     <path id="m77c4e59606" d="M 92.290909 -162.745032 
L 92.290909 -170.006904 
L 93.421322 -170.006904 
L 94.551735 -170.006904 
L 95.682147 -169.907382 
L 96.81256 -169.907382 
L 97.942973 -169.907382 
L 99.073386 -169.907382 
L 100.203798 -169.907382 
L 101.334211 -169.907382 
L 102.464624 -170.0062 
L 103.595037 -170.0062 
L 104.725449 -170.0062 
L 105.855862 -170.0062 
L 106.986275 -170.0062 
L 108.116688 -170.0062 
L 109.247101 -170.0062 
L 110.377513 -170.0062 
L 111.507926 -170.0062 
L 112.638339 -170.0062 
L 113.768752 -170.0062 
L 114.899164 -170.0062 
L 116.029577 -170.0062 
L 117.15999 -170.0062 
L 118.290403 -170.0062 
L 119.420815 -170.0062 
L 120.551228 -170.0062 
L 121.681641 -170.0062 
L 122.812054 -170.0062 
L 123.942466 -170.0062 
L 125.072879 -170.0062 
L 126.203292 -170.0062 
L 127.333705 -170.0062 
L 128.464117 -170.0062 
L 129.59453 -170.0062 
L 130.724943 -170.0062 
L 131.855356 -170.0062 
L 132.985769 -170.006904 
L 134.116181 -170.006904 
L 135.246594 -170.006904 
L 136.377007 -170.006904 
L 137.50742 -170.006904 
L 138.637832 -170.006904 
L 139.768245 -170.006904 
L 140.898658 -170.006904 
L 142.029071 -170.006904 
L 143.159483 -170.006904 
L 144.289896 -170.006904 
L 145.420309 -248.359751 
L 146.550722 -248.359751 
L 147.681134 -248.359751 
L 148.811547 -248.359751 
L 149.94196 -248.359751 
L 151.072373 -281.61285 
L 152.202786 -281.61285 
L 153.333198 -281.61285 
L 154.463611 -281.61285 
L 155.594024 -281.61285 
L 156.724437 -281.61285 
L 157.854849 -281.885806 
L 158.985262 -281.885806 
L 160.115675 -281.885806 
L 161.246088 -281.885806 
L 162.3765 -281.885806 
L 163.506913 -281.885806 
L 164.637326 -281.885806 
L 165.767739 -281.885806 
L 166.898151 -281.885806 
L 168.028564 -281.885806 
L 169.158977 -281.420924 
L 170.28939 -281.420924 
L 171.419802 -281.420924 
L 172.550215 -281.420924 
L 173.680628 -281.420924 
L 174.811041 -281.420924 
L 175.941454 -281.558825 
L 177.071866 -281.558825 
L 178.202279 -281.558825 
L 179.332692 -281.558825 
L 180.463105 -281.558825 
L 181.593517 -281.591508 
L 182.72393 -281.591508 
L 183.854343 -281.591508 
L 184.984756 -281.591508 
L 186.115168 -281.591508 
L 187.245581 -281.591508 
L 188.375994 -281.591508 
L 189.506407 -281.591508 
L 190.636819 -281.591508 
L 191.767232 -281.591508 
L 192.897645 -281.591508 
L 194.028058 -281.591508 
L 195.15847 -281.591508 
L 196.288883 -281.591508 
L 197.419296 -281.591508 
L 198.549709 -281.591508 
L 199.680122 -281.591508 
L 200.810534 -281.669391 
L 201.940947 -281.669391 
L 203.07136 -281.669391 
L 204.201773 -281.669391 
L 205.332185 -281.669391 
L 206.462598 -281.630174 
L 207.593011 -281.630174 
L 208.723424 -281.630174 
L 209.853836 -281.630174 
L 210.984249 -281.630174 
L 212.114662 -281.630174 
L 213.245075 -281.538978 
L 214.375487 -281.538978 
L 215.5059 -281.538978 
L 216.636313 -281.538978 
L 217.766726 -281.538978 
L 218.897139 -281.591508 
L 220.027551 -281.591508 
L 221.157964 -281.591508 
L 222.288377 -281.591508 
L 223.41879 -281.591508 
L 224.549202 -281.206003 
L 225.679615 -281.206003 
L 226.810028 -281.206003 
L 227.940441 -281.206003 
L 229.070853 -281.206003 
L 230.201266 -281.206003 
L 231.331679 -278.083017 
L 232.462092 -278.083017 
L 233.592504 -278.083017 
L 234.722917 -278.083017 
L 235.85333 -278.083017 
L 236.983743 -246.53148 
L 238.114155 -246.53148 
L 239.244568 -246.53148 
L 240.374981 -246.53148 
L 241.505394 -246.53148 
L 242.635807 -246.53148 
L 243.766219 -245.789265 
L 244.896632 -245.789265 
L 246.027045 -245.789265 
L 247.157458 -245.789265 
L 248.28787 -245.789265 
L 249.418283 -245.809905 
L 250.548696 -245.809905 
L 251.679109 -245.809905 
L 252.809521 -245.809905 
L 253.939934 -245.809905 
L 255.070347 -245.809905 
L 256.20076 -245.809905 
L 257.331172 -245.809905 
L 258.461585 -245.809905 
L 259.591998 -245.809905 
L 260.722411 -245.809905 
L 261.852823 -245.809905 
L 262.983236 -245.809905 
L 264.113649 -245.809905 
L 265.244062 -245.809905 
L 266.374475 -245.809905 
L 267.504887 -245.809905 
L 268.6353 -245.809905 
L 269.765713 -245.809905 
L 270.896126 -245.809905 
L 272.026538 -245.809905 
L 273.156951 -245.809905 
L 274.287364 -245.809905 
L 275.417777 -245.809905 
L 276.548189 -245.809905 
L 277.678602 -245.809905 
L 278.809015 -245.809905 
L 279.939428 -245.809905 
L 281.06984 -245.809905 
L 282.200253 -245.809905 
L 283.330666 -245.809905 
L 284.461079 -245.809905 
L 285.591492 -245.809905 
L 286.721904 -245.809905 
L 287.852317 -245.809905 
L 288.98273 -245.809905 
L 290.113143 -245.809905 
L 291.243555 -245.809905 
L 292.373968 -245.809905 
L 293.504381 -245.809905 
L 294.634794 -245.809905 
L 295.765206 -245.809905 
L 296.895619 -245.809905 
L 298.026032 -245.809905 
L 299.156445 -245.809905 
L 300.286857 -245.809905 
L 301.41727 -245.809905 
L 302.547683 -245.809905 
L 303.678096 -245.809905 
L 304.808508 -245.809905 
L 305.938921 -245.809905 
L 307.069334 -245.809905 
L 308.199747 -245.809905 
L 309.33016 -245.809905 
L 310.460572 -245.809905 
L 311.590985 -245.809905 
L 312.721398 -245.809905 
L 313.851811 -245.809905 
L 314.982223 -245.809905 
L 316.112636 -245.809905 
L 317.243049 -245.809905 
L 318.373462 -245.809905 
L 319.503874 -245.809905 
L 320.634287 -245.809905 
L 321.7647 -245.809905 
L 322.895113 -288.13368 
L 324.025525 -288.13368 
L 325.155938 -288.13368 
L 326.286351 -288.13368 
L 327.416764 -288.13368 
L 328.547177 -288.13368 
L 329.677589 -295.866259 
L 330.808002 -295.866259 
L 331.938415 -295.866259 
L 333.068828 -295.866259 
L 334.19924 -295.866259 
L 335.329653 -295.910266 
L 336.460066 -295.910266 
L 337.590479 -295.910266 
L 338.720891 -295.910266 
L 339.851304 -295.910266 
L 340.981717 -295.910266 
L 342.11213 -295.910266 
L 343.242542 -295.910266 
L 344.372955 -295.910266 
L 345.503368 -295.910266 
L 346.633781 -295.910266 
L 347.764193 -295.855523 
L 348.894606 -295.855523 
L 350.025019 -295.855523 
L 351.155432 -295.855523 
L 352.285845 -295.855523 
L 353.416257 -295.855523 
L 354.54667 -295.910266 
L 355.677083 -295.910266 
L 356.807496 -295.910266 
L 357.937908 -295.910266 
L 359.068321 -295.910266 
L 360.198734 -295.855523 
L 361.329147 -295.855523 
L 362.459559 -295.855523 
L 363.589972 -295.855523 
L 364.720385 -295.855523 
L 365.850798 -295.855523 
L 366.98121 -295.838658 
L 368.111623 -295.838658 
L 369.242036 -295.838658 
L 370.372449 -295.838658 
L 371.502861 -295.838658 
L 372.633274 -295.910266 
L 373.763687 -295.910266 
L 374.8941 -295.910266 
L 376.024513 -295.910266 
L 377.154925 -295.910266 
L 378.285338 -295.907437 
L 379.415751 -295.907437 
L 380.546164 -295.907437 
L 381.676576 -295.907437 
L 382.806989 -295.907437 
L 383.937402 -295.907437 
L 385.067815 -295.910266 
L 386.198227 -295.910266 
L 387.32864 -295.910266 
L 388.459053 -295.910266 
L 389.589466 -295.910266 
L 390.719878 -295.910266 
L 391.850291 -295.910266 
L 392.980704 -295.910266 
L 394.111117 -295.910266 
L 395.24153 -295.910266 
L 396.371942 -295.910266 
L 397.502355 -295.910266 
L 398.632768 -295.910266 
L 399.763181 -295.910266 
L 400.893593 -295.910266 
L 402.024006 -295.910266 
L 403.154419 -295.910266 
L 404.284832 -295.910266 
L 405.415244 -295.910266 
L 406.545657 -295.910266 
L 407.67607 -295.910266 
L 408.806483 -295.910266 
L 409.936895 -294.328404 
L 411.067308 -294.328404 
L 412.197721 -294.328404 
L 413.328134 -294.328404 
L 414.458546 -294.328404 
L 415.588959 -291.391825 
L 416.719372 -291.391825 
L 417.849785 -291.391825 
L 418.980198 -291.391825 
L 420.11061 -291.391825 
L 421.241023 -291.391825 
L 422.371436 -291.348557 
L 423.501849 -291.348557 
L 424.632261 -291.348557 
L 425.762674 -291.348557 
L 426.893087 -291.348557 
L 428.0235 -291.37633 
L 429.153912 -291.37633 
L 430.284325 -291.37633 
L 431.414738 -291.37633 
L 432.545151 -291.37633 
L 433.675563 -291.37633 
L 434.805976 -291.37633 
L 435.936389 -291.37633 
L 437.066802 -291.37633 
L 438.197214 -291.37633 
L 439.327627 -291.37633 
L 440.45804 -291.391825 
L 441.588453 -291.391825 
L 442.718866 -291.391825 
L 443.849278 -291.391825 
L 444.979691 -291.391825 
L 446.110104 -291.391825 
L 447.240517 -291.391825 
L 448.370929 -291.391825 
L 449.501342 -291.391825 
L 450.631755 -291.391825 
L 451.762168 -291.391825 
L 452.89258 -291.431184 
L 454.022993 -291.431184 
L 455.153406 -291.431184 
L 456.283819 -291.431184 
L 457.414231 -291.431184 
L 458.544644 -291.391825 
L 459.675057 -291.391825 
L 460.80547 -291.391825 
L 461.935883 -291.391825 
L 463.066295 -291.391825 
L 464.196708 -291.391825 
L 465.327121 -291.391825 
L 466.457534 -291.391825 
L 467.587946 -291.391825 
L 468.718359 -291.391825 
L 469.848772 -291.391825 
L 470.979185 -291.391825 
L 472.109597 -291.391825 
L 473.24001 -291.391825 
L 474.370423 -291.391825 
L 475.500836 -291.391825 
L 476.631248 -291.366807 
L 477.761661 -291.366807 
L 478.892074 -291.366807 
L 480.022487 -291.366807 
L 481.152899 -291.366807 
L 482.283312 -291.366807 
L 483.413725 -291.341809 
L 484.544138 -291.341809 
L 485.674551 -291.341809 
L 486.804963 -291.341809 
L 487.935376 -291.341809 
L 489.065789 -291.391825 
L 490.196202 -291.391825 
L 491.326614 -291.391825 
L 492.457027 -291.391825 
L 493.58744 -291.391825 
L 494.717853 -291.391825 
L 495.848265 -291.391825 
L 496.978678 -291.391825 
L 498.109091 -291.391825 
L 498.109091 -278.959583 
L 498.109091 -278.959583 
L 496.978678 -278.959583 
L 495.848265 -278.959583 
L 494.717853 -278.959583 
L 493.58744 -278.959583 
L 492.457027 -278.959583 
L 491.326614 -278.959583 
L 490.196202 -278.959583 
L 489.065789 -278.959583 
L 487.935376 -278.954159 
L 486.804963 -278.954159 
L 485.674551 -278.954159 
L 484.544138 -278.954159 
L 483.413725 -278.954159 
L 482.283312 -278.873721 
L 481.152899 -278.873721 
L 480.022487 -278.873721 
L 478.892074 -278.873721 
L 477.761661 -278.873721 
L 476.631248 -278.873721 
L 475.500836 -278.959583 
L 474.370423 -278.959583 
L 473.24001 -278.959583 
L 472.109597 -278.959583 
L 470.979185 -278.959583 
L 469.848772 -278.959583 
L 468.718359 -278.959583 
L 467.587946 -278.959583 
L 466.457534 -278.959583 
L 465.327121 -278.959583 
L 464.196708 -278.959583 
L 463.066295 -278.959583 
L 461.935883 -278.959583 
L 460.80547 -278.959583 
L 459.675057 -278.959583 
L 458.544644 -278.959583 
L 457.414231 -278.864784 
L 456.283819 -278.864784 
L 455.153406 -278.864784 
L 454.022993 -278.864784 
L 452.89258 -278.864784 
L 451.762168 -278.959583 
L 450.631755 -278.959583 
L 449.501342 -278.959583 
L 448.370929 -278.959583 
L 447.240517 -278.959583 
L 446.110104 -278.959583 
L 444.979691 -278.959583 
L 443.849278 -278.959583 
L 442.718866 -278.959583 
L 441.588453 -278.959583 
L 440.45804 -278.959583 
L 439.327627 -278.91911 
L 438.197214 -278.91911 
L 437.066802 -278.91911 
L 435.936389 -278.91911 
L 434.805976 -278.91911 
L 433.675563 -278.91911 
L 432.545151 -278.91911 
L 431.414738 -278.91911 
L 430.284325 -278.91911 
L 429.153912 -278.91911 
L 428.0235 -278.91911 
L 426.893087 -278.947411 
L 425.762674 -278.947411 
L 424.632261 -278.947411 
L 423.501849 -278.947411 
L 422.371436 -278.947411 
L 421.241023 -278.959583 
L 420.11061 -278.959583 
L 418.980198 -278.959583 
L 417.849785 -278.959583 
L 416.719372 -278.959583 
L 415.588959 -278.959583 
L 414.458546 -283.970988 
L 413.328134 -283.970988 
L 412.197721 -283.970988 
L 411.067308 -283.970988 
L 409.936895 -283.970988 
L 408.806483 -286.778918 
L 407.67607 -286.778918 
L 406.545657 -286.778918 
L 405.415244 -286.778918 
L 404.284832 -286.778918 
L 403.154419 -286.778918 
L 402.024006 -286.778918 
L 400.893593 -286.778918 
L 399.763181 -286.778918 
L 398.632768 -286.778918 
L 397.502355 -286.778918 
L 396.371942 -286.778918 
L 395.24153 -286.778918 
L 394.111117 -286.778918 
L 392.980704 -286.778918 
L 391.850291 -286.778918 
L 390.719878 -286.778918 
L 389.589466 -286.778918 
L 388.459053 -286.778918 
L 387.32864 -286.778918 
L 386.198227 -286.778918 
L 385.067815 -286.778918 
L 383.937402 -286.726307 
L 382.806989 -286.726307 
L 381.676576 -286.726307 
L 380.546164 -286.726307 
L 379.415751 -286.726307 
L 378.285338 -286.726307 
L 377.154925 -286.778918 
L 376.024513 -286.778918 
L 374.8941 -286.778918 
L 373.763687 -286.778918 
L 372.633274 -286.778918 
L 371.502861 -286.739118 
L 370.372449 -286.739118 
L 369.242036 -286.739118 
L 368.111623 -286.739118 
L 366.98121 -286.739118 
L 365.850798 -286.778221 
L 364.720385 -286.778221 
L 363.589972 -286.778221 
L 362.459559 -286.778221 
L 361.329147 -286.778221 
L 360.198734 -286.778221 
L 359.068321 -286.778918 
L 357.937908 -286.778918 
L 356.807496 -286.778918 
L 355.677083 -286.778918 
L 354.54667 -286.778918 
L 353.416257 -286.778221 
L 352.285845 -286.778221 
L 351.155432 -286.778221 
L 350.025019 -286.778221 
L 348.894606 -286.778221 
L 347.764193 -286.778221 
L 346.633781 -286.778918 
L 345.503368 -286.778918 
L 344.372955 -286.778918 
L 343.242542 -286.778918 
L 342.11213 -286.778918 
L 340.981717 -286.778918 
L 339.851304 -286.778918 
L 338.720891 -286.778918 
L 337.590479 -286.778918 
L 336.460066 -286.778918 
L 335.329653 -286.778918 
L 334.19924 -286.767485 
L 333.068828 -286.767485 
L 331.938415 -286.767485 
L 330.808002 -286.767485 
L 329.677589 -286.767485 
L 328.547177 -279.438336 
L 327.416764 -279.438336 
L 326.286351 -279.438336 
L 325.155938 -279.438336 
L 324.025525 -279.438336 
L 322.895113 -279.438336 
L 321.7647 -235.670655 
L 320.634287 -235.670655 
L 319.503874 -235.670655 
L 318.373462 -235.670655 
L 317.243049 -235.670655 
L 316.112636 -235.670655 
L 314.982223 -235.670655 
L 313.851811 -235.670655 
L 312.721398 -235.670655 
L 311.590985 -235.670655 
L 310.460572 -235.670655 
L 309.33016 -235.670655 
L 308.199747 -235.670655 
L 307.069334 -235.670655 
L 305.938921 -235.670655 
L 304.808508 -235.670655 
L 303.678096 -235.670655 
L 302.547683 -235.670655 
L 301.41727 -235.670655 
L 300.286857 -235.670655 
L 299.156445 -235.670655 
L 298.026032 -235.670655 
L 296.895619 -235.670655 
L 295.765206 -235.670655 
L 294.634794 -235.670655 
L 293.504381 -235.670655 
L 292.373968 -235.670655 
L 291.243555 -235.670655 
L 290.113143 -235.670655 
L 288.98273 -235.670655 
L 287.852317 -235.670655 
L 286.721904 -235.670655 
L 285.591492 -235.670655 
L 284.461079 -235.670655 
L 283.330666 -235.670655 
L 282.200253 -235.670655 
L 281.06984 -235.670655 
L 279.939428 -235.670655 
L 278.809015 -235.670655 
L 277.678602 -235.670655 
L 276.548189 -235.670655 
L 275.417777 -235.670655 
L 274.287364 -235.670655 
L 273.156951 -235.670655 
L 272.026538 -235.670655 
L 270.896126 -235.670655 
L 269.765713 -235.670655 
L 268.6353 -235.670655 
L 267.504887 -235.670655 
L 266.374475 -235.670655 
L 265.244062 -235.670655 
L 264.113649 -235.670655 
L 262.983236 -235.670655 
L 261.852823 -235.670655 
L 260.722411 -235.670655 
L 259.591998 -235.670655 
L 258.461585 -235.670655 
L 257.331172 -235.670655 
L 256.20076 -235.670655 
L 255.070347 -235.670655 
L 253.939934 -235.670655 
L 252.809521 -235.670655 
L 251.679109 -235.670655 
L 250.548696 -235.670655 
L 249.418283 -235.670655 
L 248.28787 -235.580415 
L 247.157458 -235.580415 
L 246.027045 -235.580415 
L 244.896632 -235.580415 
L 243.766219 -235.580415 
L 242.635807 -236.116488 
L 241.505394 -236.116488 
L 240.374981 -236.116488 
L 239.244568 -236.116488 
L 238.114155 -236.116488 
L 236.983743 -236.116488 
L 235.85333 -266.424375 
L 234.722917 -266.424375 
L 233.592504 -266.424375 
L 232.462092 -266.424375 
L 231.331679 -266.424375 
L 230.201266 -268.359101 
L 229.070853 -268.359101 
L 227.940441 -268.359101 
L 226.810028 -268.359101 
L 225.679615 -268.359101 
L 224.549202 -268.359101 
L 223.41879 -269.141004 
L 222.288377 -269.141004 
L 221.157964 -269.141004 
L 220.027551 -269.141004 
L 218.897139 -269.141004 
L 217.766726 -269.082654 
L 216.636313 -269.082654 
L 215.5059 -269.082654 
L 214.375487 -269.082654 
L 213.245075 -269.082654 
L 212.114662 -269.04637 
L 210.984249 -269.04637 
L 209.853836 -269.04637 
L 208.723424 -269.04637 
L 207.593011 -269.04637 
L 206.462598 -269.04637 
L 205.332185 -268.951713 
L 204.201773 -268.951713 
L 203.07136 -268.951713 
L 201.940947 -268.951713 
L 200.810534 -268.951713 
L 199.680122 -269.141004 
L 198.549709 -269.141004 
L 197.419296 -269.141004 
L 196.288883 -269.141004 
L 195.15847 -269.141004 
L 194.028058 -269.141004 
L 192.897645 -269.141004 
L 191.767232 -269.141004 
L 190.636819 -269.141004 
L 189.506407 -269.141004 
L 188.375994 -269.141004 
L 187.245581 -269.141004 
L 186.115168 -269.141004 
L 184.984756 -269.141004 
L 183.854343 -269.141004 
L 182.72393 -269.141004 
L 181.593517 -269.141004 
L 180.463105 -269.062279 
L 179.332692 -269.062279 
L 178.202279 -269.062279 
L 177.071866 -269.062279 
L 175.941454 -269.062279 
L 174.811041 -268.644196 
L 173.680628 -268.644196 
L 172.550215 -268.644196 
L 171.419802 -268.644196 
L 170.28939 -268.644196 
L 169.158977 -268.644196 
L 168.028564 -269.457602 
L 166.898151 -269.457602 
L 165.767739 -269.457602 
L 164.637326 -269.457602 
L 163.506913 -269.457602 
L 162.3765 -269.457602 
L 161.246088 -269.457602 
L 160.115675 -269.457602 
L 158.985262 -269.457602 
L 157.854849 -269.457602 
L 156.724437 -269.341422 
L 155.594024 -269.341422 
L 154.463611 -269.341422 
L 153.333198 -269.341422 
L 152.202786 -269.341422 
L 151.072373 -269.341422 
L 149.94196 -236.620921 
L 148.811547 -236.620921 
L 147.681134 -236.620921 
L 146.550722 -236.620921 
L 145.420309 -236.620921 
L 144.289896 -162.745032 
L 143.159483 -162.745032 
L 142.029071 -162.745032 
L 140.898658 -162.745032 
L 139.768245 -162.745032 
L 138.637832 -162.745032 
L 137.50742 -162.745032 
L 136.377007 -162.745032 
L 135.246594 -162.745032 
L 134.116181 -162.745032 
L 132.985769 -162.745032 
L 131.855356 -162.801176 
L 130.724943 -162.801176 
L 129.59453 -162.801176 
L 128.464117 -162.801176 
L 127.333705 -162.801176 
L 126.203292 -162.801176 
L 125.072879 -162.801176 
L 123.942466 -162.801176 
L 122.812054 -162.801176 
L 121.681641 -162.801176 
L 120.551228 -162.801176 
L 119.420815 -162.801176 
L 118.290403 -162.801176 
L 117.15999 -162.801176 
L 116.029577 -162.801176 
L 114.899164 -162.801176 
L 113.768752 -162.801176 
L 112.638339 -162.801176 
L 111.507926 -162.801176 
L 110.377513 -162.801176 
L 109.247101 -162.801176 
L 108.116688 -162.801176 
L 106.986275 -162.801176 
L 105.855862 -162.801176 
L 104.725449 -162.801176 
L 103.595037 -162.801176 
L 102.464624 -162.801176 
L 101.334211 -162.510858 
L 100.203798 -162.510858 
L 99.073386 -162.510858 
L 97.942973 -162.510858 
L 96.81256 -162.510858 
L 95.682147 -162.510858 
L 94.551735 -162.745032 
L 93.421322 -162.745032 
L 92.290909 -162.745032 
z
" style="stroke: #482475; stroke-opacity: 0.2"/>
    </defs>
    <g clip-path="url(#p8acacfaa2b)">
     <use xlink:href="#m77c4e59606" x="0" y="360" style="fill: #482475; fill-opacity: 0.2; stroke: #482475; stroke-opacity: 0.2"/>
    </g>
   </g>
   <g id="PolyCollection_2">
    <defs>
     <path id="m8debc71c05" d="M 92.290909 -79.33927 
L 92.290909 -87.008186 
L 93.421322 -87.008186 
L 94.551735 -87.008186 
L 95.682147 -87.331134 
L 96.81256 -87.331134 
L 97.942973 -87.331134 
L 99.073386 -87.331134 
L 100.203798 -87.331134 
L 101.334211 -87.331134 
L 102.464624 -87.076202 
L 103.595037 -87.076202 
L 104.725449 -87.076202 
L 105.855862 -87.076202 
L 106.986275 -87.076202 
L 108.116688 -86.560336 
L 109.247101 -86.560336 
L 110.377513 -86.560336 
L 111.507926 -86.560336 
L 112.638339 -86.560336 
L 113.768752 -86.560336 
L 114.899164 -86.68453 
L 116.029577 -86.68453 
L 117.15999 -86.68453 
L 118.290403 -86.68453 
L 119.420815 -86.68453 
L 120.551228 -86.484977 
L 121.681641 -86.484977 
L 122.812054 -86.484977 
L 123.942466 -86.484977 
L 125.072879 -86.484977 
L 126.203292 -86.701917 
L 127.333705 -86.701917 
L 128.464117 -86.701917 
L 129.59453 -86.701917 
L 130.724943 -86.701917 
L 131.855356 -86.701917 
L 132.985769 -86.569914 
L 134.116181 -86.569914 
L 135.246594 -86.569914 
L 136.377007 -86.569914 
L 137.50742 -86.569914 
L 138.637832 -86.495526 
L 139.768245 -86.495526 
L 140.898658 -86.495526 
L 142.029071 -86.495526 
L 143.159483 -86.495526 
L 144.289896 -86.495526 
L 145.420309 -128.527274 
L 146.550722 -128.527274 
L 147.681134 -128.527274 
L 148.811547 -128.527274 
L 149.94196 -128.527274 
L 151.072373 -199.108563 
L 152.202786 -199.108563 
L 153.333198 -199.108563 
L 154.463611 -199.108563 
L 155.594024 -199.108563 
L 156.724437 -199.108563 
L 157.854849 -237.725377 
L 158.985262 -237.725377 
L 160.115675 -237.725377 
L 161.246088 -237.725377 
L 162.3765 -237.725377 
L 163.506913 -244.160389 
L 164.637326 -244.160389 
L 165.767739 -244.160389 
L 166.898151 -244.160389 
L 168.028564 -244.160389 
L 169.158977 -245.099701 
L 170.28939 -245.099701 
L 171.419802 -245.099701 
L 172.550215 -245.099701 
L 173.680628 -245.099701 
L 174.811041 -245.099701 
L 175.941454 -245.000796 
L 177.071866 -245.000796 
L 178.202279 -245.000796 
L 179.332692 -245.000796 
L 180.463105 -245.000796 
L 181.593517 -244.94369 
L 182.72393 -244.94369 
L 183.854343 -244.94369 
L 184.984756 -244.94369 
L 186.115168 -244.94369 
L 187.245581 -244.94369 
L 188.375994 -244.8674 
L 189.506407 -244.8674 
L 190.636819 -244.8674 
L 191.767232 -244.8674 
L 192.897645 -244.8674 
L 194.028058 -244.819499 
L 195.15847 -244.819499 
L 196.288883 -244.819499 
L 197.419296 -244.819499 
L 198.549709 -244.819499 
L 199.680122 -244.819499 
L 200.810534 -244.888076 
L 201.940947 -244.888076 
L 203.07136 -244.888076 
L 204.201773 -244.888076 
L 205.332185 -244.888076 
L 206.462598 -244.926952 
L 207.593011 -244.926952 
L 208.723424 -244.926952 
L 209.853836 -244.926952 
L 210.984249 -244.926952 
L 212.114662 -244.926952 
L 213.245075 -244.70459 
L 214.375487 -244.70459 
L 215.5059 -244.70459 
L 216.636313 -244.70459 
L 217.766726 -244.70459 
L 218.897139 -244.838725 
L 220.027551 -244.838725 
L 221.157964 -244.838725 
L 222.288377 -244.838725 
L 223.41879 -244.838725 
L 224.549202 -244.928215 
L 225.679615 -244.928215 
L 226.810028 -244.928215 
L 227.940441 -244.928215 
L 229.070853 -244.928215 
L 230.201266 -244.928215 
L 231.331679 -237.034079 
L 232.462092 -237.034079 
L 233.592504 -237.034079 
L 234.722917 -237.034079 
L 235.85333 -237.034079 
L 236.983743 -140.722667 
L 238.114155 -140.722667 
L 239.244568 -140.722667 
L 240.374981 -140.722667 
L 241.505394 -140.722667 
L 242.635807 -140.722667 
L 243.766219 -117.029942 
L 244.896632 -117.029942 
L 246.027045 -117.029942 
L 247.157458 -117.029942 
L 248.28787 -117.029942 
L 249.418283 -106.943962 
L 250.548696 -106.943962 
L 251.679109 -106.943962 
L 252.809521 -106.943962 
L 253.939934 -106.943962 
L 255.070347 -106.943962 
L 256.20076 -100.917398 
L 257.331172 -100.917398 
L 258.461585 -100.917398 
L 259.591998 -100.917398 
L 260.722411 -100.917398 
L 261.852823 -102.071105 
L 262.983236 -102.071105 
L 264.113649 -102.071105 
L 265.244062 -102.071105 
L 266.374475 -102.071105 
L 267.504887 -102.071105 
L 268.6353 -101.911429 
L 269.765713 -101.911429 
L 270.896126 -101.911429 
L 272.026538 -101.911429 
L 273.156951 -101.911429 
L 274.287364 -101.664784 
L 275.417777 -101.664784 
L 276.548189 -101.664784 
L 277.678602 -101.664784 
L 278.809015 -101.664784 
L 279.939428 -116.867924 
L 281.06984 -116.867924 
L 282.200253 -116.867924 
L 283.330666 -116.867924 
L 284.461079 -116.867924 
L 285.591492 -116.867924 
L 286.721904 -145.602774 
L 287.852317 -145.602774 
L 288.98273 -145.602774 
L 290.113143 -145.602774 
L 291.243555 -145.602774 
L 292.373968 -175.537976 
L 293.504381 -175.537976 
L 294.634794 -175.537976 
L 295.765206 -175.537976 
L 296.895619 -175.537976 
L 298.026032 -175.537976 
L 299.156445 -187.196887 
L 300.286857 -187.196887 
L 301.41727 -187.196887 
L 302.547683 -187.196887 
L 303.678096 -187.196887 
L 304.808508 -190.552671 
L 305.938921 -190.552671 
L 307.069334 -190.552671 
L 308.199747 -190.552671 
L 309.33016 -190.552671 
L 310.460572 -190.552671 
L 311.590985 -190.882083 
L 312.721398 -190.882083 
L 313.851811 -190.882083 
L 314.982223 -190.882083 
L 316.112636 -190.882083 
L 317.243049 -191.295861 
L 318.373462 -191.295861 
L 319.503874 -191.295861 
L 320.634287 -191.295861 
L 321.7647 -191.295861 
L 322.895113 -215.465221 
L 324.025525 -215.465221 
L 325.155938 -215.465221 
L 326.286351 -215.465221 
L 327.416764 -215.465221 
L 328.547177 -215.465221 
L 329.677589 -283.226542 
L 330.808002 -283.226542 
L 331.938415 -283.226542 
L 333.068828 -283.226542 
L 334.19924 -283.226542 
L 335.329653 -296.408459 
L 336.460066 -296.408459 
L 337.590479 -296.408459 
L 338.720891 -296.408459 
L 339.851304 -296.408459 
L 340.981717 -296.408459 
L 342.11213 -296.719341 
L 343.242542 -296.719341 
L 344.372955 -296.719341 
L 345.503368 -296.719341 
L 346.633781 -296.719341 
L 347.764193 -296.66419 
L 348.894606 -296.66419 
L 350.025019 -296.66419 
L 351.155432 -296.66419 
L 352.285845 -296.66419 
L 353.416257 -296.66419 
L 354.54667 -296.684567 
L 355.677083 -296.684567 
L 356.807496 -296.684567 
L 357.937908 -296.684567 
L 359.068321 -296.684567 
L 360.198734 -296.737364 
L 361.329147 -296.737364 
L 362.459559 -296.737364 
L 363.589972 -296.737364 
L 364.720385 -296.737364 
L 365.850798 -296.737364 
L 366.98121 -296.719341 
L 368.111623 -296.719341 
L 369.242036 -296.719341 
L 370.372449 -296.719341 
L 371.502861 -296.719341 
L 372.633274 -296.719341 
L 373.763687 -296.719341 
L 374.8941 -296.719341 
L 376.024513 -296.719341 
L 377.154925 -296.719341 
L 378.285338 -296.69875 
L 379.415751 -296.69875 
L 380.546164 -296.69875 
L 381.676576 -296.69875 
L 382.806989 -296.69875 
L 383.937402 -296.69875 
L 385.067815 -296.719341 
L 386.198227 -296.719341 
L 387.32864 -296.719341 
L 388.459053 -296.719341 
L 389.589466 -296.719341 
L 390.719878 -296.719341 
L 391.850291 -296.719341 
L 392.980704 -296.719341 
L 394.111117 -296.719341 
L 395.24153 -296.719341 
L 396.371942 -296.719341 
L 397.502355 -296.608131 
L 398.632768 -296.608131 
L 399.763181 -296.608131 
L 400.893593 -296.608131 
L 402.024006 -296.608131 
L 403.154419 -296.622575 
L 404.284832 -296.622575 
L 405.415244 -296.622575 
L 406.545657 -296.622575 
L 407.67607 -296.622575 
L 408.806483 -296.622575 
L 409.936895 -242.730513 
L 411.067308 -242.730513 
L 412.197721 -242.730513 
L 413.328134 -242.730513 
L 414.458546 -242.730513 
L 415.588959 -133.94166 
L 416.719372 -133.94166 
L 417.849785 -133.94166 
L 418.980198 -133.94166 
L 420.11061 -133.94166 
L 421.241023 -133.94166 
L 422.371436 -110.508103 
L 423.501849 -110.508103 
L 424.632261 -110.508103 
L 425.762674 -110.508103 
L 426.893087 -110.508103 
L 428.0235 -110.208149 
L 429.153912 -110.208149 
L 430.284325 -110.208149 
L 431.414738 -110.208149 
L 432.545151 -110.208149 
L 433.675563 -152.661359 
L 434.805976 -152.661359 
L 435.936389 -152.661359 
L 437.066802 -152.661359 
L 438.197214 -152.661359 
L 439.327627 -152.661359 
L 440.45804 -224.567184 
L 441.588453 -224.567184 
L 442.718866 -224.567184 
L 443.849278 -224.567184 
L 444.979691 -224.567184 
L 446.110104 -268.487751 
L 447.240517 -268.487751 
L 448.370929 -268.487751 
L 449.501342 -268.487751 
L 450.631755 -268.487751 
L 451.762168 -268.487751 
L 452.89258 -276.346694 
L 454.022993 -276.346694 
L 455.153406 -276.346694 
L 456.283819 -276.346694 
L 457.414231 -276.346694 
L 458.544644 -276.742713 
L 459.675057 -276.742713 
L 460.80547 -276.742713 
L 461.935883 -276.742713 
L 463.066295 -276.742713 
L 464.196708 -276.742713 
L 465.327121 -276.706811 
L 466.457534 -276.706811 
L 467.587946 -276.706811 
L 468.718359 -276.706811 
L 469.848772 -276.706811 
L 470.979185 -276.534032 
L 472.109597 -276.534032 
L 473.24001 -276.534032 
L 474.370423 -276.534032 
L 475.500836 -276.534032 
L 476.631248 -276.764107 
L 477.761661 -276.764107 
L 478.892074 -276.764107 
L 480.022487 -276.764107 
L 481.152899 -276.764107 
L 482.283312 -276.764107 
L 483.413725 -276.764107 
L 484.544138 -276.764107 
L 485.674551 -276.764107 
L 486.804963 -276.764107 
L 487.935376 -276.764107 
L 489.065789 -276.764329 
L 490.196202 -276.764329 
L 491.326614 -276.764329 
L 492.457027 -276.764329 
L 493.58744 -276.764329 
L 494.717853 -276.764329 
L 495.848265 -276.764107 
L 496.978678 -276.764107 
L 498.109091 -276.764107 
L 498.109091 -263.797541 
L 498.109091 -263.797541 
L 496.978678 -263.797541 
L 495.848265 -263.797541 
L 494.717853 -263.686439 
L 493.58744 -263.686439 
L 492.457027 -263.686439 
L 491.326614 -263.686439 
L 490.196202 -263.686439 
L 489.065789 -263.686439 
L 487.935376 -263.797541 
L 486.804963 -263.797541 
L 485.674551 -263.797541 
L 484.544138 -263.797541 
L 483.413725 -263.797541 
L 482.283312 -263.797541 
L 481.152899 -263.797541 
L 480.022487 -263.797541 
L 478.892074 -263.797541 
L 477.761661 -263.797541 
L 476.631248 -263.797541 
L 475.500836 -263.749888 
L 474.370423 -263.749888 
L 473.24001 -263.749888 
L 472.109597 -263.749888 
L 470.979185 -263.749888 
L 469.848772 -263.799397 
L 468.718359 -263.799397 
L 467.587946 -263.799397 
L 466.457534 -263.799397 
L 465.327121 -263.799397 
L 464.196708 -263.707527 
L 463.066295 -263.707527 
L 461.935883 -263.707527 
L 460.80547 -263.707527 
L 459.675057 -263.707527 
L 458.544644 -263.707527 
L 457.414231 -262.76929 
L 456.283819 -262.76929 
L 455.153406 -262.76929 
L 454.022993 -262.76929 
L 452.89258 -262.76929 
L 451.762168 -252.287097 
L 450.631755 -252.287097 
L 449.501342 -252.287097 
L 448.370929 -252.287097 
L 447.240517 -252.287097 
L 446.110104 -252.287097 
L 444.979691 -203.224224 
L 443.849278 -203.224224 
L 442.718866 -203.224224 
L 441.588453 -203.224224 
L 440.45804 -203.224224 
L 439.327627 -129.624337 
L 438.197214 -129.624337 
L 437.066802 -129.624337 
L 435.936389 -129.624337 
L 434.805976 -129.624337 
L 433.675563 -129.624337 
L 432.545151 -99.268987 
L 431.414738 -99.268987 
L 430.284325 -99.268987 
L 429.153912 -99.268987 
L 428.0235 -99.268987 
L 426.893087 -103.137065 
L 425.762674 -103.137065 
L 424.632261 -103.137065 
L 423.501849 -103.137065 
L 422.371436 -103.137065 
L 421.241023 -120.610836 
L 420.11061 -120.610836 
L 418.980198 -120.610836 
L 417.849785 -120.610836 
L 416.719372 -120.610836 
L 415.588959 -120.610836 
L 414.458546 -226.466655 
L 413.328134 -226.466655 
L 412.197721 -226.466655 
L 411.067308 -226.466655 
L 409.936895 -226.466655 
L 408.806483 -282.677377 
L 407.67607 -282.677377 
L 406.545657 -282.677377 
L 405.415244 -282.677377 
L 404.284832 -282.677377 
L 403.154419 -282.677377 
L 402.024006 -282.580413 
L 400.893593 -282.580413 
L 399.763181 -282.580413 
L 398.632768 -282.580413 
L 397.502355 -282.580413 
L 396.371942 -282.692019 
L 395.24153 -282.692019 
L 394.111117 -282.692019 
L 392.980704 -282.692019 
L 391.850291 -282.692019 
L 390.719878 -282.692019 
L 389.589466 -282.692019 
L 388.459053 -282.692019 
L 387.32864 -282.692019 
L 386.198227 -282.692019 
L 385.067815 -282.692019 
L 383.937402 -282.544706 
L 382.806989 -282.544706 
L 381.676576 -282.544706 
L 380.546164 -282.544706 
L 379.415751 -282.544706 
L 378.285338 -282.544706 
L 377.154925 -282.692019 
L 376.024513 -282.692019 
L 374.8941 -282.692019 
L 373.763687 -282.692019 
L 372.633274 -282.692019 
L 371.502861 -282.692019 
L 370.372449 -282.692019 
L 369.242036 -282.692019 
L 368.111623 -282.692019 
L 366.98121 -282.692019 
L 365.850798 -282.618028 
L 364.720385 -282.618028 
L 363.589972 -282.618028 
L 362.459559 -282.618028 
L 361.329147 -282.618028 
L 360.198734 -282.618028 
L 359.068321 -282.837673 
L 357.937908 -282.837673 
L 356.807496 -282.837673 
L 355.677083 -282.837673 
L 354.54667 -282.837673 
L 353.416257 -282.69173 
L 352.285845 -282.69173 
L 351.155432 -282.69173 
L 350.025019 -282.69173 
L 348.894606 -282.69173 
L 347.764193 -282.69173 
L 346.633781 -282.692019 
L 345.503368 -282.692019 
L 344.372955 -282.692019 
L 343.242542 -282.692019 
L 342.11213 -282.692019 
L 340.981717 -281.612677 
L 339.851304 -281.612677 
L 338.720891 -281.612677 
L 337.590479 -281.612677 
L 336.460066 -281.612677 
L 335.329653 -281.612677 
L 334.19924 -263.336354 
L 333.068828 -263.336354 
L 331.938415 -263.336354 
L 330.808002 -263.336354 
L 329.677589 -263.336354 
L 328.547177 -194.206811 
L 327.416764 -194.206811 
L 326.286351 -194.206811 
L 325.155938 -194.206811 
L 324.025525 -194.206811 
L 322.895113 -194.206811 
L 321.7647 -175.135611 
L 320.634287 -175.135611 
L 319.503874 -175.135611 
L 318.373462 -175.135611 
L 317.243049 -175.135611 
L 316.112636 -174.938493 
L 314.982223 -174.938493 
L 313.851811 -174.938493 
L 312.721398 -174.938493 
L 311.590985 -174.938493 
L 310.460572 -173.544513 
L 309.33016 -173.544513 
L 308.199747 -173.544513 
L 307.069334 -173.544513 
L 305.938921 -173.544513 
L 304.808508 -173.544513 
L 303.678096 -166.063097 
L 302.547683 -166.063097 
L 301.41727 -166.063097 
L 300.286857 -166.063097 
L 299.156445 -166.063097 
L 298.026032 -148.931752 
L 296.895619 -148.931752 
L 295.765206 -148.931752 
L 294.634794 -148.931752 
L 293.504381 -148.931752 
L 292.373968 -148.931752 
L 291.243555 -124.121802 
L 290.113143 -124.121802 
L 288.98273 -124.121802 
L 287.852317 -124.121802 
L 286.721904 -124.121802 
L 285.591492 -99.168028 
L 284.461079 -99.168028 
L 283.330666 -99.168028 
L 282.200253 -99.168028 
L 281.06984 -99.168028 
L 279.939428 -99.168028 
L 278.809015 -90.304928 
L 277.678602 -90.304928 
L 276.548189 -90.304928 
L 275.417777 -90.304928 
L 274.287364 -90.304928 
L 273.156951 -91.558859 
L 272.026538 -91.558859 
L 270.896126 -91.558859 
L 269.765713 -91.558859 
L 268.6353 -91.558859 
L 267.504887 -91.455679 
L 266.374475 -91.455679 
L 265.244062 -91.455679 
L 264.113649 -91.455679 
L 262.983236 -91.455679 
L 261.852823 -91.455679 
L 260.722411 -90.051754 
L 259.591998 -90.051754 
L 258.461585 -90.051754 
L 257.331172 -90.051754 
L 256.20076 -90.051754 
L 255.070347 -94.362374 
L 253.939934 -94.362374 
L 252.809521 -94.362374 
L 251.679109 -94.362374 
L 250.548696 -94.362374 
L 249.418283 -94.362374 
L 248.28787 -106.286602 
L 247.157458 -106.286602 
L 246.027045 -106.286602 
L 244.896632 -106.286602 
L 243.766219 -106.286602 
L 242.635807 -125.499685 
L 241.505394 -125.499685 
L 240.374981 -125.499685 
L 239.244568 -125.499685 
L 238.114155 -125.499685 
L 236.983743 -125.499685 
L 235.85333 -228.550513 
L 234.722917 -228.550513 
L 233.592504 -228.550513 
L 232.462092 -228.550513 
L 231.331679 -228.550513 
L 230.201266 -233.107145 
L 229.070853 -233.107145 
L 227.940441 -233.107145 
L 226.810028 -233.107145 
L 225.679615 -233.107145 
L 224.549202 -233.107145 
L 223.41879 -233.307515 
L 222.288377 -233.307515 
L 221.157964 -233.307515 
L 220.027551 -233.307515 
L 218.897139 -233.307515 
L 217.766726 -233.274274 
L 216.636313 -233.274274 
L 215.5059 -233.274274 
L 214.375487 -233.274274 
L 213.245075 -233.274274 
L 212.114662 -233.330168 
L 210.984249 -233.330168 
L 209.853836 -233.330168 
L 208.723424 -233.330168 
L 207.593011 -233.330168 
L 206.462598 -233.330168 
L 205.332185 -233.258164 
L 204.201773 -233.258164 
L 203.07136 -233.258164 
L 201.940947 -233.258164 
L 200.810534 -233.258164 
L 199.680122 -233.270773 
L 198.549709 -233.270773 
L 197.419296 -233.270773 
L 196.288883 -233.270773 
L 195.15847 -233.270773 
L 194.028058 -233.270773 
L 192.897645 -233.278312 
L 191.767232 -233.278312 
L 190.636819 -233.278312 
L 189.506407 -233.278312 
L 188.375994 -233.278312 
L 187.245581 -233.146582 
L 186.115168 -233.146582 
L 184.984756 -233.146582 
L 183.854343 -233.146582 
L 182.72393 -233.146582 
L 181.593517 -233.146582 
L 180.463105 -232.200852 
L 179.332692 -232.200852 
L 178.202279 -232.200852 
L 177.071866 -232.200852 
L 175.941454 -232.200852 
L 174.811041 -231.489995 
L 173.680628 -231.489995 
L 172.550215 -231.489995 
L 171.419802 -231.489995 
L 170.28939 -231.489995 
L 169.158977 -231.489995 
L 168.028564 -232.761947 
L 166.898151 -232.761947 
L 165.767739 -232.761947 
L 164.637326 -232.761947 
L 163.506913 -232.761947 
L 162.3765 -221.300927 
L 161.246088 -221.300927 
L 160.115675 -221.300927 
L 158.985262 -221.300927 
L 157.854849 -221.300927 
L 156.724437 -177.272013 
L 155.594024 -177.272013 
L 154.463611 -177.272013 
L 153.333198 -177.272013 
L 152.202786 -177.272013 
L 151.072373 -177.272013 
L 149.94196 -106.182454 
L 148.811547 -106.182454 
L 147.681134 -106.182454 
L 146.550722 -106.182454 
L 145.420309 -106.182454 
L 144.289896 -80.185098 
L 143.159483 -80.185098 
L 142.029071 -80.185098 
L 140.898658 -80.185098 
L 139.768245 -80.185098 
L 138.637832 -80.185098 
L 137.50742 -80.055798 
L 136.377007 -80.055798 
L 135.246594 -80.055798 
L 134.116181 -80.055798 
L 132.985769 -80.055798 
L 131.855356 -80.034675 
L 130.724943 -80.034675 
L 129.59453 -80.034675 
L 128.464117 -80.034675 
L 127.333705 -80.034675 
L 126.203292 -80.034675 
L 125.072879 -80.029327 
L 123.942466 -80.029327 
L 122.812054 -80.029327 
L 121.681641 -80.029327 
L 120.551228 -80.029327 
L 119.420815 -79.996622 
L 118.290403 -79.996622 
L 117.15999 -79.996622 
L 116.029577 -79.996622 
L 114.899164 -79.996622 
L 113.768752 -80.00888 
L 112.638339 -80.00888 
L 111.507926 -80.00888 
L 110.377513 -80.00888 
L 109.247101 -80.00888 
L 108.116688 -80.00888 
L 106.986275 -79.77127 
L 105.855862 -79.77127 
L 104.725449 -79.77127 
L 103.595037 -79.77127 
L 102.464624 -79.77127 
L 101.334211 -79.627218 
L 100.203798 -79.627218 
L 99.073386 -79.627218 
L 97.942973 -79.627218 
L 96.81256 -79.627218 
L 95.682147 -79.627218 
L 94.551735 -79.33927 
L 93.421322 -79.33927 
L 92.290909 -79.33927 
z
" style="stroke: #bddf26; stroke-opacity: 0.2"/>
    </defs>
    <g clip-path="url(#p8acacfaa2b)">
     <use xlink:href="#m8debc71c05" x="0" y="360" style="fill: #bddf26; fill-opacity: 0.2; stroke: #bddf26; stroke-opacity: 0.2"/>
    </g>
   </g>
   <g id="matplotlib.axis_1">
    <g id="xtick_1">
     <g id="line2d_1">
      <defs>
       <path id="m8fc9c97799" d="M 0 0 
L 0 3.5 
" style="stroke: #000000; stroke-width: 0.8"/>
      </defs>
      <g>
       <use xlink:href="#m8fc9c97799" x="116.88595" y="320.4" style="stroke: #000000; stroke-width: 0.8"/>
      </g>
     </g>
     <g id="text_1">
      <!-- $\mathdefault{100}$ -->
      <g transform="translate(106.277417 337.431808) scale(0.145 -0.145)">
       <defs>
        <path id="CMR17-31" d="M 1702 4058 
C 1702 4192 1696 4192 1606 4192 
C 1357 3916 979 3827 621 3827 
C 602 3827 570 3827 563 3808 
C 557 3795 557 3782 557 3648 
C 755 3648 1088 3686 1344 3839 
L 1344 461 
C 1344 236 1331 160 781 160 
L 589 160 
L 589 0 
C 896 0 1216 0 1523 0 
C 1830 0 2150 0 2458 0 
L 2458 160 
L 2266 160 
C 1715 160 1702 230 1702 458 
L 1702 4058 
z
" transform="scale(0.015625)"/>
        <path id="CMR17-30" d="M 2688 2025 
C 2688 2416 2682 3080 2413 3591 
C 2176 4039 1798 4198 1466 4198 
C 1158 4198 768 4058 525 3597 
C 269 3118 243 2524 243 2025 
C 243 1661 250 1106 448 619 
C 723 -39 1216 -128 1466 -128 
C 1760 -128 2208 -7 2470 600 
C 2662 1042 2688 1559 2688 2025 
z
M 1466 -26 
C 1056 -26 813 325 723 812 
C 653 1188 653 1738 653 2096 
C 653 2588 653 2997 736 3387 
C 858 3929 1216 4096 1466 4096 
C 1728 4096 2067 3923 2189 3400 
C 2272 3036 2278 2607 2278 2096 
C 2278 1680 2278 1169 2202 792 
C 2067 95 1690 -26 1466 -26 
z
" transform="scale(0.015625)"/>
       </defs>
       <use xlink:href="#CMR17-31" transform="scale(0.996264)"/>
       <use xlink:href="#CMR17-30" transform="translate(45.690477 0) scale(0.996264)"/>
       <use xlink:href="#CMR17-30" transform="translate(91.380954 0) scale(0.996264)"/>
      </g>
     </g>
    </g>
    <g id="xtick_2">
     <g id="line2d_2">
      <g>
       <use xlink:href="#m8fc9c97799" x="178.373554" y="320.4" style="stroke: #000000; stroke-width: 0.8"/>
      </g>
     </g>
     <g id="text_2">
      <!-- $\mathdefault{200}$ -->
      <g transform="translate(167.76502 337.431808) scale(0.145 -0.145)">
       <defs>
        <path id="CMR17-32" d="M 2669 989 
L 2554 989 
C 2490 536 2438 459 2413 420 
C 2381 369 1920 369 1830 369 
L 602 369 
C 832 619 1280 1072 1824 1597 
C 2214 1967 2669 2402 2669 3035 
C 2669 3790 2067 4224 1395 4224 
C 691 4224 262 3604 262 3030 
C 262 2780 448 2748 525 2748 
C 589 2748 781 2787 781 3010 
C 781 3207 614 3264 525 3264 
C 486 3264 448 3258 422 3245 
C 544 3790 915 4058 1306 4058 
C 1862 4058 2227 3617 2227 3035 
C 2227 2479 1901 2000 1536 1584 
L 262 146 
L 262 0 
L 2515 0 
L 2669 989 
z
" transform="scale(0.015625)"/>
       </defs>
       <use xlink:href="#CMR17-32" transform="scale(0.996264)"/>
       <use xlink:href="#CMR17-30" transform="translate(45.690477 0) scale(0.996264)"/>
       <use xlink:href="#CMR17-30" transform="translate(91.380954 0) scale(0.996264)"/>
      </g>
     </g>
    </g>
    <g id="xtick_3">
     <g id="line2d_3">
      <g>
       <use xlink:href="#m8fc9c97799" x="239.861157" y="320.4" style="stroke: #000000; stroke-width: 0.8"/>
      </g>
     </g>
     <g id="text_3">
      <!-- $\mathdefault{300}$ -->
      <g transform="translate(229.252624 337.431808) scale(0.145 -0.145)">
       <defs>
        <path id="CMR17-33" d="M 1414 2157 
C 1984 2157 2234 1662 2234 1090 
C 2234 320 1824 25 1453 25 
C 1114 25 563 194 390 693 
C 422 680 454 680 486 680 
C 640 680 755 782 755 948 
C 755 1133 614 1216 486 1216 
C 378 1216 211 1165 211 926 
C 211 335 787 -128 1466 -128 
C 2176 -128 2720 430 2720 1085 
C 2720 1707 2208 2157 1600 2227 
C 2086 2328 2554 2756 2554 3329 
C 2554 3820 2048 4179 1472 4179 
C 890 4179 378 3829 378 3329 
C 378 3110 544 3072 627 3072 
C 762 3072 877 3155 877 3321 
C 877 3486 762 3569 627 3569 
C 602 3569 570 3569 544 3557 
C 730 3959 1235 4032 1459 4032 
C 1683 4032 2106 3925 2106 3320 
C 2106 3143 2080 2828 1862 2550 
C 1670 2304 1453 2304 1242 2284 
C 1210 2284 1062 2269 1037 2269 
C 992 2263 966 2257 966 2208 
C 966 2163 973 2157 1101 2157 
L 1414 2157 
z
" transform="scale(0.015625)"/>
       </defs>
       <use xlink:href="#CMR17-33" transform="scale(0.996264)"/>
       <use xlink:href="#CMR17-30" transform="translate(45.690477 0) scale(0.996264)"/>
       <use xlink:href="#CMR17-30" transform="translate(91.380954 0) scale(0.996264)"/>
      </g>
     </g>
    </g>
    <g id="xtick_4">
     <g id="line2d_4">
      <g>
       <use xlink:href="#m8fc9c97799" x="301.34876" y="320.4" style="stroke: #000000; stroke-width: 0.8"/>
      </g>
     </g>
     <g id="text_4">
      <!-- $\mathdefault{400}$ -->
      <g transform="translate(290.740227 337.431808) scale(0.145 -0.145)">
       <defs>
        <path id="CMR17-34" d="M 2150 4122 
C 2150 4256 2144 4256 2029 4256 
L 128 1254 
L 128 1088 
L 1779 1088 
L 1779 457 
C 1779 224 1766 160 1318 160 
L 1197 160 
L 1197 0 
C 1402 0 1747 0 1965 0 
C 2182 0 2528 0 2733 0 
L 2733 160 
L 2611 160 
C 2163 160 2150 224 2150 457 
L 2150 1088 
L 2803 1088 
L 2803 1254 
L 2150 1254 
L 2150 4122 
z
M 1798 3703 
L 1798 1254 
L 256 1254 
L 1798 3703 
z
" transform="scale(0.015625)"/>
       </defs>
       <use xlink:href="#CMR17-34" transform="scale(0.996264)"/>
       <use xlink:href="#CMR17-30" transform="translate(45.690477 0) scale(0.996264)"/>
       <use xlink:href="#CMR17-30" transform="translate(91.380954 0) scale(0.996264)"/>
      </g>
     </g>
    </g>
    <g id="xtick_5">
     <g id="line2d_5">
      <g>
       <use xlink:href="#m8fc9c97799" x="362.836364" y="320.4" style="stroke: #000000; stroke-width: 0.8"/>
      </g>
     </g>
     <g id="text_5">
      <!-- $\mathdefault{500}$ -->
      <g transform="translate(352.22783 337.431808) scale(0.145 -0.145)">
       <defs>
        <path id="CMR17-35" d="M 730 3692 
C 794 3666 1056 3584 1325 3584 
C 1920 3584 2246 3911 2432 4100 
C 2432 4157 2432 4192 2394 4192 
C 2387 4192 2374 4192 2323 4163 
C 2099 4058 1837 3973 1517 3973 
C 1325 3973 1037 3999 723 4139 
C 653 4171 640 4171 634 4171 
C 602 4171 595 4164 595 4037 
L 595 2203 
C 595 2089 595 2057 659 2057 
C 691 2057 704 2070 736 2114 
C 941 2401 1222 2522 1542 2522 
C 1766 2522 2246 2382 2246 1289 
C 2246 1085 2246 715 2054 421 
C 1894 159 1645 25 1370 25 
C 947 25 518 320 403 814 
C 429 807 480 795 506 795 
C 589 795 749 840 749 1038 
C 749 1210 627 1280 506 1280 
C 358 1280 262 1190 262 1011 
C 262 454 704 -128 1382 -128 
C 2042 -128 2669 440 2669 1264 
C 2669 2030 2170 2624 1549 2624 
C 1222 2624 947 2503 730 2274 
L 730 3692 
z
" transform="scale(0.015625)"/>
       </defs>
       <use xlink:href="#CMR17-35" transform="scale(0.996264)"/>
       <use xlink:href="#CMR17-30" transform="translate(45.690477 0) scale(0.996264)"/>
       <use xlink:href="#CMR17-30" transform="translate(91.380954 0) scale(0.996264)"/>
      </g>
     </g>
    </g>
    <g id="xtick_6">
     <g id="line2d_6">
      <g>
       <use xlink:href="#m8fc9c97799" x="424.323967" y="320.4" style="stroke: #000000; stroke-width: 0.8"/>
      </g>
     </g>
     <g id="text_6">
      <!-- $\mathdefault{600}$ -->
      <g transform="translate(413.715434 337.431808) scale(0.145 -0.145)">
       <defs>
        <path id="CMR17-36" d="M 678 2176 
C 678 3690 1395 4032 1811 4032 
C 1946 4032 2272 4009 2400 3776 
C 2298 3776 2106 3776 2106 3553 
C 2106 3381 2246 3323 2336 3323 
C 2394 3323 2566 3348 2566 3560 
C 2566 3954 2246 4179 1805 4179 
C 1043 4179 243 3390 243 1984 
C 243 253 966 -128 1478 -128 
C 2099 -128 2688 427 2688 1283 
C 2688 2081 2170 2662 1517 2662 
C 1126 2662 838 2407 678 1960 
L 678 2176 
z
M 1478 25 
C 691 25 691 1200 691 1436 
C 691 1896 909 2560 1504 2560 
C 1613 2560 1926 2560 2138 2120 
C 2253 1870 2253 1609 2253 1289 
C 2253 944 2253 690 2118 434 
C 1978 171 1773 25 1478 25 
z
" transform="scale(0.015625)"/>
       </defs>
       <use xlink:href="#CMR17-36" transform="scale(0.996264)"/>
       <use xlink:href="#CMR17-30" transform="translate(45.690477 0) scale(0.996264)"/>
       <use xlink:href="#CMR17-30" transform="translate(91.380954 0) scale(0.996264)"/>
      </g>
     </g>
    </g>
    <g id="xtick_7">
     <g id="line2d_7">
      <g>
       <use xlink:href="#m8fc9c97799" x="485.81157" y="320.4" style="stroke: #000000; stroke-width: 0.8"/>
      </g>
     </g>
     <g id="text_7">
      <!-- $\mathdefault{700}$ -->
      <g transform="translate(475.203037 337.431808) scale(0.145 -0.145)">
       <defs>
        <path id="CMR17-37" d="M 2886 3941 
L 2886 4081 
L 1382 4081 
C 634 4081 621 4165 595 4288 
L 480 4288 
L 294 3094 
L 410 3094 
C 429 3215 474 3540 550 3661 
C 589 3712 1062 3712 1171 3712 
L 2579 3712 
L 1869 2661 
C 1395 1954 1069 999 1069 165 
C 1069 89 1069 -128 1299 -128 
C 1530 -128 1530 89 1530 171 
L 1530 465 
C 1530 1508 1709 2196 2003 2636 
L 2886 3941 
z
" transform="scale(0.015625)"/>
       </defs>
       <use xlink:href="#CMR17-37" transform="scale(0.996264)"/>
       <use xlink:href="#CMR17-30" transform="translate(45.690477 0) scale(0.996264)"/>
       <use xlink:href="#CMR17-30" transform="translate(91.380954 0) scale(0.996264)"/>
      </g>
     </g>
    </g>
    <g id="text_8">
     <!-- time (s) -->
     <g transform="translate(271.677317 355.075073) scale(0.145 -0.145)">
      <defs>
       <path id="CMSS17-74" d="M 1069 2368 
L 1901 2368 
L 1901 2737 
L 1069 2737 
L 1069 3520 
L 614 3520 
L 614 2737 
L 109 2737 
L 109 2368 
L 602 2368 
L 602 749 
C 602 384 685 -64 1107 -64 
C 1427 -64 1722 25 2003 172 
L 1901 548 
C 1747 414 1562 337 1363 337 
C 1082 337 1069 696 1069 856 
L 1069 2368 
z
" transform="scale(0.015625)"/>
       <path id="CMSS17-69" d="M 979 4183 
L 442 4183 
L 442 3648 
L 979 3648 
L 979 4183 
z
M 947 2739 
L 474 2739 
L 474 0 
L 947 0 
L 947 2739 
z
" transform="scale(0.015625)"/>
       <path id="CMSS17-6d" d="M 4288 1877 
C 4288 2308 4179 2816 3462 2816 
C 2982 2816 2694 2516 2566 2331 
C 2451 2670 2182 2816 1798 2816 
C 1363 2816 1088 2568 941 2389 
L 941 2758 
L 474 2758 
L 474 0 
L 960 0 
L 960 1559 
C 960 1939 1101 2428 1555 2428 
C 2138 2428 2138 2016 2138 1829 
L 2138 0 
L 2624 0 
L 2624 1559 
C 2624 1939 2765 2428 3219 2428 
C 3802 2428 3802 2016 3802 1829 
L 3802 0 
L 4288 0 
L 4288 1877 
z
" transform="scale(0.015625)"/>
       <path id="CMSS17-65" d="M 2502 1377 
C 2502 1590 2490 2003 2285 2345 
C 2061 2713 1696 2816 1421 2816 
C 755 2816 192 2188 192 1375 
C 192 582 774 -64 1510 -64 
C 1798 -64 2150 19 2470 248 
C 2470 274 2458 414 2451 420 
C 2451 433 2432 630 2432 656 
C 2125 407 1773 325 1517 325 
C 1107 325 666 667 646 1377 
L 2502 1377 
z
M 698 1728 
C 781 2084 1062 2421 1421 2421 
C 1517 2421 1965 2421 2080 1728 
L 698 1728 
z
" transform="scale(0.015625)"/>
       <path id="CMSS17-28" d="M 1613 4768 
C 1267 4417 474 3601 474 1588 
C 474 -433 1267 -1243 1613 -1600 
L 2003 -1600 
C 1216 -784 960 357 960 1581 
C 960 2798 1203 3946 2003 4768 
L 1613 4768 
z
" transform="scale(0.015625)"/>
       <path id="CMSS17-73" d="M 2061 2627 
C 1683 2807 1389 2807 1197 2807 
C 742 2807 198 2648 198 2003 
C 198 1359 902 1218 1094 1179 
C 1389 1122 1715 1058 1715 740 
C 1715 337 1254 337 1171 337 
C 915 337 563 407 243 638 
L 166 210 
C 531 0 883 -64 1178 -64 
C 1965 -64 2163 416 2163 781 
C 2163 1094 1984 1305 1862 1401 
C 1651 1568 1574 1587 1050 1696 
C 960 1709 646 1779 646 2066 
C 646 2432 1050 2432 1139 2432 
C 1555 2432 1811 2303 1984 2208 
L 2061 2627 
z
" transform="scale(0.015625)"/>
       <path id="CMSS17-29" d="M 723 -1600 
C 1069 -1249 1862 -433 1862 1581 
C 1862 3601 1069 4411 723 4768 
L 333 4768 
C 1120 3952 1376 2811 1376 1588 
C 1376 370 1133 -778 333 -1600 
L 723 -1600 
z
" transform="scale(0.015625)"/>
      </defs>
      <use xlink:href="#CMSS17-74" transform="scale(0.996264)"/>
      <use xlink:href="#CMSS17-69" transform="translate(33.831567 0) scale(0.996264)"/>
      <use xlink:href="#CMSS17-6d" transform="translate(56.01229 0) scale(0.996264)"/>
      <use xlink:href="#CMSS17-65" transform="translate(130.241544 0) scale(0.996264)"/>
      <use xlink:href="#CMSS17-28" transform="translate(203.109479 0) scale(0.996264)"/>
      <use xlink:href="#CMSS17-73" transform="translate(239.543393 0) scale(0.996264)"/>
      <use xlink:href="#CMSS17-29" transform="translate(275.456935 0) scale(0.996264)"/>
     </g>
    </g>
   </g>
   <g id="matplotlib.axis_2">
    <g id="ytick_1">
     <g id="line2d_8">
      <path d="M 72 320.4 
L 518.4 320.4 
" clip-path="url(#p8acacfaa2b)" style="fill: none; stroke-dasharray: 1.85,0.8; stroke-dashoffset: 0; stroke: #808080; stroke-width: 0.5"/>
     </g>
     <g id="line2d_9">
      <defs>
       <path id="mb94ce2a7da" d="M 0 0 
L -3.5 0 
" style="stroke: #000000; stroke-width: 0.8"/>
      </defs>
      <g>
       <use xlink:href="#mb94ce2a7da" x="72" y="320.4" style="stroke: #000000; stroke-width: 0.8"/>
      </g>
     </g>
     <g id="text_9">
      <!-- $\mathdefault{0.0}$ -->
      <g transform="translate(46.926206 325.415904) scale(0.145 -0.145)">
       <defs>
        <path id="CMMI12-3a" d="M 1178 307 
C 1178 492 1024 619 870 619 
C 685 619 557 466 557 313 
C 557 128 710 0 864 0 
C 1050 0 1178 153 1178 307 
z
" transform="scale(0.015625)"/>
       </defs>
       <use xlink:href="#CMR17-30" transform="scale(0.996264)"/>
       <use xlink:href="#CMMI12-3a" transform="translate(45.690477 0) scale(0.996264)"/>
       <use xlink:href="#CMR17-30" transform="translate(72.787654 0) scale(0.996264)"/>
      </g>
     </g>
    </g>
    <g id="ytick_2">
     <g id="line2d_10">
      <path d="M 72 267.6 
L 518.4 267.6 
" clip-path="url(#p8acacfaa2b)" style="fill: none; stroke-dasharray: 1.85,0.8; stroke-dashoffset: 0; stroke: #808080; stroke-width: 0.5"/>
     </g>
     <g id="line2d_11">
      <g>
       <use xlink:href="#mb94ce2a7da" x="72" y="267.6" style="stroke: #000000; stroke-width: 0.8"/>
      </g>
     </g>
     <g id="text_10">
      <!-- $\mathdefault{0.2}$ -->
      <g transform="translate(46.926206 272.615904) scale(0.145 -0.145)">
       <use xlink:href="#CMR17-30" transform="scale(0.996264)"/>
       <use xlink:href="#CMMI12-3a" transform="translate(45.690477 0) scale(0.996264)"/>
       <use xlink:href="#CMR17-32" transform="translate(72.787654 0) scale(0.996264)"/>
      </g>
     </g>
    </g>
    <g id="ytick_3">
     <g id="line2d_12">
      <path d="M 72 214.8 
L 518.4 214.8 
" clip-path="url(#p8acacfaa2b)" style="fill: none; stroke-dasharray: 1.85,0.8; stroke-dashoffset: 0; stroke: #808080; stroke-width: 0.5"/>
     </g>
     <g id="line2d_13">
      <g>
       <use xlink:href="#mb94ce2a7da" x="72" y="214.8" style="stroke: #000000; stroke-width: 0.8"/>
      </g>
     </g>
     <g id="text_11">
      <!-- $\mathdefault{0.4}$ -->
      <g transform="translate(46.926206 219.815904) scale(0.145 -0.145)">
       <use xlink:href="#CMR17-30" transform="scale(0.996264)"/>
       <use xlink:href="#CMMI12-3a" transform="translate(45.690477 0) scale(0.996264)"/>
       <use xlink:href="#CMR17-34" transform="translate(72.787654 0) scale(0.996264)"/>
      </g>
     </g>
    </g>
    <g id="ytick_4">
     <g id="line2d_14">
      <path d="M 72 162 
L 518.4 162 
" clip-path="url(#p8acacfaa2b)" style="fill: none; stroke-dasharray: 1.85,0.8; stroke-dashoffset: 0; stroke: #808080; stroke-width: 0.5"/>
     </g>
     <g id="line2d_15">
      <g>
       <use xlink:href="#mb94ce2a7da" x="72" y="162" style="stroke: #000000; stroke-width: 0.8"/>
      </g>
     </g>
     <g id="text_12">
      <!-- $\mathdefault{0.6}$ -->
      <g transform="translate(46.926206 167.015904) scale(0.145 -0.145)">
       <use xlink:href="#CMR17-30" transform="scale(0.996264)"/>
       <use xlink:href="#CMMI12-3a" transform="translate(45.690477 0) scale(0.996264)"/>
       <use xlink:href="#CMR17-36" transform="translate(72.787654 0) scale(0.996264)"/>
      </g>
     </g>
    </g>
    <g id="ytick_5">
     <g id="line2d_16">
      <path d="M 72 109.2 
L 518.4 109.2 
" clip-path="url(#p8acacfaa2b)" style="fill: none; stroke-dasharray: 1.85,0.8; stroke-dashoffset: 0; stroke: #808080; stroke-width: 0.5"/>
     </g>
     <g id="line2d_17">
      <g>
       <use xlink:href="#mb94ce2a7da" x="72" y="109.2" style="stroke: #000000; stroke-width: 0.8"/>
      </g>
     </g>
     <g id="text_13">
      <!-- $\mathdefault{0.8}$ -->
      <g transform="translate(46.926206 114.215904) scale(0.145 -0.145)">
       <defs>
        <path id="CMR17-38" d="M 1741 2264 
C 2144 2467 2554 2773 2554 3263 
C 2554 3841 1990 4179 1472 4179 
C 890 4179 378 3759 378 3180 
C 378 3021 416 2747 666 2505 
C 730 2442 998 2251 1171 2130 
C 883 1983 211 1634 211 934 
C 211 279 838 -128 1459 -128 
C 2144 -128 2720 362 2720 1010 
C 2720 1590 2330 1857 2074 2029 
L 1741 2264 
z
M 902 2822 
C 851 2854 595 3051 595 3351 
C 595 3739 998 4032 1459 4032 
C 1965 4032 2336 3676 2336 3262 
C 2336 2669 1670 2331 1638 2331 
C 1632 2331 1626 2331 1574 2370 
L 902 2822 
z
M 2080 1519 
C 2176 1449 2483 1240 2483 851 
C 2483 381 2010 25 1472 25 
C 890 25 448 438 448 940 
C 448 1443 838 1862 1280 2060 
L 2080 1519 
z
" transform="scale(0.015625)"/>
       </defs>
       <use xlink:href="#CMR17-30" transform="scale(0.996264)"/>
       <use xlink:href="#CMMI12-3a" transform="translate(45.690477 0) scale(0.996264)"/>
       <use xlink:href="#CMR17-38" transform="translate(72.787654 0) scale(0.996264)"/>
      </g>
     </g>
    </g>
    <g id="ytick_6">
     <g id="line2d_18">
      <path d="M 72 56.4 
L 518.4 56.4 
" clip-path="url(#p8acacfaa2b)" style="fill: none; stroke-dasharray: 1.85,0.8; stroke-dashoffset: 0; stroke: #808080; stroke-width: 0.5"/>
     </g>
     <g id="line2d_19">
      <g>
       <use xlink:href="#mb94ce2a7da" x="72" y="56.4" style="stroke: #000000; stroke-width: 0.8"/>
      </g>
     </g>
     <g id="text_14">
      <!-- $\mathdefault{1.0}$ -->
      <g transform="translate(46.926206 61.415904) scale(0.145 -0.145)">
       <use xlink:href="#CMR17-31" transform="scale(0.996264)"/>
       <use xlink:href="#CMMI12-3a" transform="translate(45.690477 0) scale(0.996264)"/>
       <use xlink:href="#CMR17-30" transform="translate(72.787654 0) scale(0.996264)"/>
      </g>
     </g>
    </g>
    <g id="text_15">
     <!-- QoS -->
     <g transform="translate(40.117312 194.481753) rotate(-90) scale(0.145 -0.145)">
      <defs>
       <path id="CMSS17-51" d="M 3200 202 
C 3981 833 4096 1689 4096 2174 
C 4096 3501 3219 4497 2214 4497 
C 1210 4497 333 3497 333 2178 
C 333 847 1222 -128 2214 -128 
C 2438 -128 2630 -77 2765 -26 
L 3302 -832 
L 3930 -832 
L 3200 202 
z
M 2528 324 
C 2438 293 2330 273 2214 273 
C 1523 273 858 993 858 2178 
C 858 3357 1517 4096 2214 4096 
C 2918 4096 3571 3350 3571 2178 
C 3571 1771 3507 1089 2950 566 
L 2490 1210 
L 1939 1210 
L 2528 324 
z
" transform="scale(0.015625)"/>
       <path id="CMSS17-6f" d="M 2829 1356 
C 2829 2176 2221 2816 1504 2816 
C 768 2816 173 2157 173 1356 
C 173 544 787 -64 1498 -64 
C 2227 -64 2829 563 2829 1356 
z
M 1504 337 
C 1050 337 659 709 659 1408 
C 659 2151 1114 2427 1498 2427 
C 1914 2427 2342 2126 2342 1408 
C 2342 683 1926 337 1504 337 
z
" transform="scale(0.015625)"/>
       <path id="CMSS17-53" d="M 2797 4169 
C 2515 4334 2208 4480 1690 4480 
C 864 4480 333 3879 333 3266 
C 333 3025 403 2753 653 2475 
C 902 2196 1184 2121 1542 2033 
C 1690 1994 1939 1924 1984 1906 
C 2342 1767 2515 1444 2515 1140 
C 2515 742 2202 318 1645 318 
C 1453 318 890 318 358 819 
L 269 318 
C 794 -64 1363 -128 1651 -128 
C 2438 -128 3002 488 3002 1186 
C 3002 1440 2925 1763 2656 2061 
C 2394 2347 2163 2410 1638 2549 
C 1338 2626 1146 2677 986 2873 
C 877 3013 819 3146 819 3317 
C 819 3673 1126 4060 1690 4060 
C 1971 4060 2336 4002 2707 3660 
L 2797 4169 
z
" transform="scale(0.015625)"/>
      </defs>
      <use xlink:href="#CMSS17-51" transform="scale(0.996264)"/>
      <use xlink:href="#CMSS17-6f" transform="translate(69.024255 0) scale(0.996264)"/>
      <use xlink:href="#CMSS17-53" transform="translate(115.867879 0) scale(0.996264)"/>
     </g>
    </g>
   </g>
   <g id="line2d_20">
    <path d="M 92.290909 193.624032 
L 94.551735 193.624032 
L 95.682147 193.79088 
L 101.334211 193.79088 
L 102.464624 193.596312 
L 144.289896 193.624032 
L 145.420309 117.509664 
L 149.94196 117.509664 
L 151.072373 84.522864 
L 156.724437 84.522864 
L 157.854849 84.328296 
L 168.028564 84.328296 
L 169.158977 84.96744 
L 174.811041 84.96744 
L 175.941454 84.689448 
L 223.41879 84.633744 
L 224.549202 85.217448 
L 230.201266 85.217448 
L 231.331679 87.746304 
L 235.85333 87.746304 
L 236.983743 118.676016 
L 242.635807 118.676016 
L 243.766219 119.31516 
L 321.7647 119.25972 
L 322.895113 76.213992 
L 328.547177 76.213992 
L 329.677589 68.683128 
L 408.806483 68.655408 
L 409.936895 70.850304 
L 414.458546 70.850304 
L 415.588959 74.824296 
L 498.109091 74.824296 
L 498.109091 74.824296 
" clip-path="url(#p8acacfaa2b)" style="fill: none; stroke: #482475; stroke-width: 2.5; stroke-linecap: square"/>
   </g>
   <g id="line2d_21">
    <path d="M 92.290909 276.826272 
L 94.551735 276.826272 
L 95.682147 276.520824 
L 106.986275 276.576264 
L 108.116688 276.715392 
L 144.289896 276.659688 
L 145.420309 242.645136 
L 149.94196 242.645136 
L 151.072373 171.809712 
L 156.724437 171.809712 
L 157.854849 130.486848 
L 162.3765 130.486848 
L 163.506913 121.538832 
L 168.028564 121.538832 
L 169.158977 121.705152 
L 174.811041 121.705152 
L 175.941454 121.399176 
L 180.463105 121.399176 
L 181.593517 120.954864 
L 230.201266 120.98232 
L 231.331679 127.207704 
L 235.85333 127.207704 
L 236.983743 226.888824 
L 242.635807 226.888824 
L 243.766219 248.341728 
L 248.28787 248.341728 
L 249.418283 259.346832 
L 255.070347 259.346832 
L 256.20076 264.515424 
L 260.722411 264.515424 
L 261.852823 263.236608 
L 273.156951 263.264856 
L 274.287364 264.015144 
L 278.809015 264.015144 
L 279.939428 251.982024 
L 285.591492 251.982024 
L 286.721904 225.137712 
L 291.243555 225.137712 
L 292.373968 197.765136 
L 298.026032 197.765136 
L 299.156445 183.370008 
L 303.678096 183.370008 
L 304.808508 177.951408 
L 310.460572 177.951408 
L 311.590985 177.089712 
L 316.112636 177.089712 
L 317.243049 176.784264 
L 321.7647 176.784264 
L 322.895113 155.163984 
L 328.547177 155.163984 
L 329.677589 86.718552 
L 334.19924 86.718552 
L 335.329653 70.989432 
L 340.981717 70.989432 
L 342.11213 70.29432 
L 396.371942 70.29432 
L 398.632768 70.405728 
L 408.806483 70.350024 
L 409.936895 125.401416 
L 414.458546 125.401416 
L 415.588959 232.723752 
L 421.241023 232.723752 
L 422.371436 253.177416 
L 426.893087 253.177416 
L 428.0235 255.261432 
L 432.545151 255.261432 
L 433.675563 218.857152 
L 439.327627 218.857152 
L 440.45804 146.104296 
L 444.979691 146.104296 
L 446.110104 99.612576 
L 451.762168 99.612576 
L 452.89258 90.442008 
L 457.414231 90.442008 
L 458.544644 89.77488 
L 498.109091 89.719176 
L 498.109091 89.719176 
" clip-path="url(#p8acacfaa2b)" style="fill: none; stroke: #bddf26; stroke-width: 2.5; stroke-linecap: square"/>
   </g>
   <g id="patch_3">
    <path d="M 72 320.4 
L 72 43.2 
" style="fill: none; stroke: #000000; stroke-width: 0.8; stroke-linejoin: miter; stroke-linecap: square"/>
   </g>
   <g id="patch_4">
    <path d="M 518.4 320.4 
L 518.4 43.2 
" style="fill: none; stroke: #000000; stroke-width: 0.8; stroke-linejoin: miter; stroke-linecap: square"/>
   </g>
   <g id="patch_5">
    <path d="M 72 320.4 
L 518.4 320.4 
" style="fill: none; stroke: #000000; stroke-width: 0.8; stroke-linejoin: miter; stroke-linecap: square"/>
   </g>
   <g id="text_16">
    <!-- $nt=Barabsi$ $d=1000$ $oc=1\%$ $l=dynamic$ -->
    <g transform="translate(124.887318 37.2) scale(0.18 -0.18)">
     <defs>
      <path id="CMMI12-6e" d="M 1318 1871 
C 1331 1910 1491 2229 1728 2433 
C 1894 2586 2112 2689 2362 2689 
C 2618 2689 2707 2497 2707 2242 
C 2707 1878 2445 1150 2317 805 
C 2259 651 2227 568 2227 453 
C 2227 166 2426 -64 2733 -64 
C 3328 -64 3552 875 3552 913 
C 3552 945 3526 971 3488 971 
C 3430 971 3424 952 3392 843 
C 3245 319 3002 64 2752 64 
C 2688 64 2586 64 2586 269 
C 2586 429 2656 621 2694 710 
C 2822 1063 3091 1780 3091 2145 
C 3091 2528 2867 2816 2381 2816 
C 1811 2816 1510 2415 1395 2255 
C 1376 2618 1114 2816 832 2816 
C 627 2816 486 2695 378 2478 
C 262 2248 173 1865 173 1839 
C 173 1814 198 1782 243 1782 
C 294 1782 301 1788 339 1935 
C 442 2325 557 2689 813 2689 
C 960 2689 1011 2586 1011 2395 
C 1011 2254 947 2005 902 1807 
L 723 1118 
C 698 996 627 709 595 594 
C 550 428 480 128 480 96 
C 480 6 550 -64 646 -64 
C 723 -64 813 -26 864 70 
C 877 102 934 326 966 453 
L 1107 1028 
L 1318 1871 
z
" transform="scale(0.015625)"/>
      <path id="CMMI12-74" d="M 1286 2566 
L 1875 2566 
C 1997 2566 2061 2566 2061 2681 
C 2061 2752 2022 2752 1894 2752 
L 1331 2752 
L 1568 3692 
C 1594 3781 1594 3794 1594 3840 
C 1594 3943 1510 4000 1427 4000 
C 1376 4000 1229 3981 1178 3775 
L 928 2752 
L 326 2752 
C 198 2752 141 2752 141 2630 
C 141 2566 186 2566 307 2566 
L 877 2566 
L 454 881 
C 403 658 384 594 384 511 
C 384 211 595 -64 954 -64 
C 1600 -64 1946 868 1946 912 
C 1946 951 1920 970 1882 970 
C 1869 970 1843 970 1830 944 
C 1824 938 1818 931 1773 829 
C 1638 511 1344 64 973 64 
C 781 64 768 224 768 364 
C 768 370 768 492 787 568 
L 1286 2566 
z
" transform="scale(0.015625)"/>
      <path id="CMR17-3d" d="M 4115 2017 
C 4211 2017 4307 2017 4307 2125 
C 4307 2240 4198 2240 4090 2240 
L 512 2240 
C 403 2240 294 2240 294 2125 
C 294 2017 390 2017 486 2017 
L 4115 2017 
z
M 4090 896 
C 4198 896 4307 896 4307 1011 
C 4307 1119 4211 1119 4115 1119 
L 486 1119 
C 390 1119 294 1119 294 1011 
C 294 896 403 896 512 896 
L 4090 896 
z
" transform="scale(0.015625)"/>
      <path id="CMMI12-42" d="M 2342 3921 
C 2400 4160 2426 4160 2675 4160 
L 3507 4160 
C 4230 4160 4230 3544 4230 3485 
C 4230 2966 3712 2304 2867 2304 
L 1946 2304 
L 2342 3921 
z
M 3424 2275 
C 4122 2402 4755 2886 4755 3473 
C 4755 3970 4314 4352 3590 4352 
L 1536 4352 
C 1414 4352 1357 4352 1357 4226 
C 1357 4160 1414 4160 1510 4160 
C 1901 4160 1901 4112 1901 4044 
C 1901 4032 1901 3993 1875 3897 
L 1011 472 
C 954 249 941 185 493 185 
C 371 185 307 185 307 70 
C 307 0 346 0 474 0 
L 2669 0 
C 3648 0 4403 739 4403 1383 
C 4403 1906 3942 2224 3424 2275 
z
M 2515 185 
L 1651 185 
C 1562 185 1549 185 1510 192 
C 1440 198 1434 211 1434 261 
C 1434 305 1446 343 1459 399 
L 1907 2176 
L 3110 2176 
C 3866 2176 3866 1483 3866 1433 
C 3866 828 3309 185 2515 185 
z
" transform="scale(0.015625)"/>
      <path id="CMMI12-61" d="M 1926 760 
C 1894 651 1894 639 1805 517 
C 1664 338 1382 64 1082 64 
C 819 64 672 300 672 677 
C 672 1028 870 1743 992 2012 
C 1210 2459 1510 2689 1760 2689 
C 2182 2689 2266 2165 2266 2114 
C 2266 2108 2246 2024 2240 2012 
L 1926 760 
z
M 2336 2395 
C 2266 2561 2093 2816 1760 2816 
C 1037 2816 256 1884 256 939 
C 256 307 627 -64 1062 -64 
C 1414 -64 1715 211 1894 422 
C 1958 45 2259 -64 2451 -64 
C 2643 -64 2797 51 2912 281 
C 3014 498 3104 888 3104 913 
C 3104 945 3078 971 3040 971 
C 2982 971 2976 939 2950 843 
C 2854 466 2733 64 2470 64 
C 2285 64 2272 230 2272 358 
C 2272 505 2291 575 2349 824 
C 2394 984 2426 1124 2477 1309 
C 2714 2267 2771 2497 2771 2535 
C 2771 2625 2701 2695 2605 2695 
C 2400 2695 2349 2472 2336 2395 
z
" transform="scale(0.015625)"/>
      <path id="CMMI12-72" d="M 2490 2612 
C 2291 2574 2189 2433 2189 2293 
C 2189 2139 2310 2088 2400 2088 
C 2579 2088 2726 2242 2726 2433 
C 2726 2638 2528 2816 2208 2816 
C 1952 2816 1658 2701 1389 2312 
C 1344 2650 1088 2816 832 2816 
C 582 2816 454 2625 378 2484 
C 269 2254 173 1871 173 1839 
C 173 1814 198 1782 243 1782 
C 294 1782 301 1788 339 1935 
C 435 2318 557 2689 813 2689 
C 966 2689 1011 2580 1011 2395 
C 1011 2254 947 2005 902 1807 
L 723 1118 
C 698 996 627 709 595 594 
C 550 428 480 128 480 96 
C 480 6 550 -64 646 -64 
C 717 -64 838 -19 877 109 
C 896 160 1133 1124 1171 1271 
C 1203 1411 1242 1546 1274 1686 
C 1299 1775 1325 1878 1344 1961 
C 1363 2018 1536 2331 1696 2472 
C 1773 2542 1939 2689 2202 2689 
C 2304 2689 2406 2670 2490 2612 
z
" transform="scale(0.015625)"/>
      <path id="CMMI12-62" d="M 1478 4257 
C 1485 4283 1498 4321 1498 4352 
C 1498 4416 1434 4416 1421 4416 
C 1414 4416 1184 4393 1069 4377 
C 960 4377 864 4358 749 4358 
C 595 4345 550 4339 550 4224 
C 550 4160 614 4160 678 4160 
C 1005 4160 1005 4103 1005 4040 
C 1005 3996 954 3811 928 3696 
L 774 3085 
C 710 2831 346 1387 320 1272 
C 288 1114 288 1005 288 922 
C 288 274 653 -64 1069 -64 
C 1811 -64 2579 888 2579 1814 
C 2579 2401 2246 2816 1766 2816 
C 1434 2816 1133 2542 1011 2414 
L 1478 4257 
z
M 1075 64 
C 870 64 646 217 646 715 
C 646 926 666 1047 781 1494 
C 800 1577 902 1986 928 2069 
C 941 2120 1318 2689 1754 2689 
C 2035 2689 2163 2408 2163 2076 
C 2163 1769 1984 1047 1824 715 
C 1664 370 1370 64 1075 64 
z
" transform="scale(0.015625)"/>
      <path id="CMMI12-73" d="M 1459 1280 
C 1568 1261 1741 1223 1779 1216 
C 1862 1192 2150 1090 2150 783 
C 2150 586 1971 70 1229 70 
C 1094 70 614 70 486 436 
C 742 404 870 603 870 745 
C 870 880 781 950 653 950 
C 512 950 326 841 326 552 
C 326 173 710 -64 1222 -64 
C 2195 -64 2483 651 2483 984 
C 2483 1079 2483 1258 2278 1462 
C 2118 1616 1965 1648 1619 1718 
C 1446 1756 1171 1814 1171 2101 
C 1171 2229 1286 2689 1894 2689 
C 2163 2689 2426 2589 2490 2368 
C 2208 2368 2195 2125 2195 2119 
C 2195 1984 2317 1946 2374 1946 
C 2464 1946 2643 2015 2643 2281 
C 2643 2545 2400 2816 1901 2816 
C 1062 2816 838 2160 838 1899 
C 838 1414 1312 1312 1459 1280 
z
" transform="scale(0.015625)"/>
      <path id="CMMI12-69" d="M 1811 913 
C 1811 945 1786 971 1747 971 
C 1690 971 1683 952 1651 843 
C 1485 262 1222 64 1011 64 
C 934 64 845 83 845 275 
C 845 447 922 639 992 830 
L 1440 2018 
C 1459 2069 1504 2184 1504 2305 
C 1504 2574 1312 2816 998 2816 
C 410 2816 173 1890 173 1839 
C 173 1814 198 1782 243 1782 
C 301 1782 307 1807 333 1896 
C 486 2428 730 2682 979 2682 
C 1037 2682 1146 2682 1146 2478 
C 1146 2312 1062 2101 1011 1961 
L 563 773 
C 525 671 486 568 486 453 
C 486 166 685 -64 992 -64 
C 1581 -64 1811 869 1811 913 
z
M 1760 4013 
C 1760 4109 1683 4224 1542 4224 
C 1395 4224 1229 4083 1229 3917 
C 1229 3758 1363 3707 1440 3707 
C 1613 3707 1760 3873 1760 4013 
z
" transform="scale(0.015625)"/>
      <path id="CMMI12-64" d="M 3219 4257 
C 3226 4282 3238 4320 3238 4352 
C 3238 4416 3174 4416 3162 4416 
C 3155 4416 2842 4388 2810 4380 
C 2701 4373 2605 4358 2490 4358 
C 2330 4345 2285 4339 2285 4224 
C 2285 4160 2336 4160 2426 4160 
C 2739 4160 2746 4103 2746 4040 
C 2746 4002 2733 3952 2726 3933 
L 2336 2395 
C 2266 2561 2093 2816 1760 2816 
C 1037 2816 256 1884 256 939 
C 256 307 627 -64 1062 -64 
C 1414 -64 1715 211 1894 422 
C 1958 45 2259 -64 2451 -64 
C 2643 -64 2797 51 2912 281 
C 3014 498 3104 888 3104 913 
C 3104 945 3078 971 3040 971 
C 2982 971 2976 939 2950 843 
C 2854 466 2733 64 2470 64 
C 2285 64 2272 229 2272 357 
C 2272 382 2272 515 2317 694 
L 3219 4257 
z
M 1926 760 
C 1894 651 1894 639 1805 517 
C 1664 338 1382 64 1082 64 
C 819 64 672 300 672 677 
C 672 1028 870 1743 992 2012 
C 1210 2459 1510 2689 1760 2689 
C 2182 2689 2266 2165 2266 2114 
C 2266 2108 2246 2024 2240 2012 
L 1926 760 
z
" transform="scale(0.015625)"/>
      <path id="CMMI12-6f" d="M 2918 1756 
C 2918 2363 2522 2816 1939 2816 
C 1094 2816 262 1897 262 996 
C 262 390 659 -64 1242 -64 
C 2093 -64 2918 856 2918 1756 
z
M 1248 64 
C 928 64 691 319 691 766 
C 691 1060 845 1712 1024 2031 
C 1312 2523 1670 2689 1933 2689 
C 2246 2689 2490 2433 2490 1986 
C 2490 1731 2355 1047 2112 658 
C 1850 230 1498 64 1248 64 
z
" transform="scale(0.015625)"/>
      <path id="CMMI12-63" d="M 2502 2431 
C 2381 2431 2323 2431 2234 2355 
C 2195 2323 2125 2227 2125 2125 
C 2125 1997 2221 1920 2342 1920 
C 2496 1920 2669 2044 2669 2292 
C 2669 2588 2374 2816 1933 2816 
C 1094 2816 256 1903 256 996 
C 256 441 602 -64 1254 -64 
C 2125 -64 2675 622 2675 706 
C 2675 744 2637 776 2611 776 
C 2592 776 2586 770 2528 713 
C 2118 162 1510 64 1267 64 
C 826 64 685 446 685 764 
C 685 988 794 1605 1024 2039 
C 1190 2338 1536 2682 1939 2682 
C 2022 2682 2374 2682 2502 2431 
z
" transform="scale(0.015625)"/>
      <path id="CMR17-25" d="M 4640 959 
C 4640 1698 4275 2240 3846 2240 
C 3411 2240 2970 1736 2970 959 
C 2970 183 3405 -320 3846 -320 
C 4275 -320 4640 215 4640 959 
z
M 3853 -218 
C 3686 -218 3270 -66 3270 959 
C 3270 1991 3686 2138 3853 2138 
C 4205 2138 4525 1634 4525 959 
C 4525 285 4205 -218 3853 -218 
z
M 4083 4577 
C 4128 4647 4134 4653 4134 4685 
C 4134 4761 4077 4800 4026 4800 
C 3962 4800 3936 4756 3891 4706 
C 3520 4190 3008 4134 2746 4134 
C 2106 4134 1715 4494 1594 4607 
C 1510 4682 1389 4800 1171 4800 
C 736 4800 294 4296 294 3519 
C 294 2743 730 2240 1171 2240 
C 1600 2240 1965 2778 1965 3527 
C 1965 3969 1830 4270 1811 4308 
C 2202 4064 2586 4032 2752 4032 
C 3162 4032 3456 4183 3616 4289 
L 3622 4283 
L 858 -84 
C 800 -174 800 -187 800 -206 
C 800 -276 858 -320 915 -320 
C 973 -320 992 -289 1037 -218 
L 4083 4577 
z
M 1178 2342 
C 1011 2342 595 2494 595 3519 
C 595 4551 1011 4698 1178 4698 
C 1530 4698 1850 4194 1850 3519 
C 1850 2845 1530 2342 1178 2342 
z
" transform="scale(0.015625)"/>
      <path id="CMMI12-6c" d="M 1626 4257 
C 1632 4282 1645 4320 1645 4352 
C 1645 4416 1581 4416 1568 4416 
C 1562 4416 1331 4393 1216 4377 
C 1107 4377 1011 4358 896 4358 
C 742 4345 698 4339 698 4224 
C 698 4160 762 4160 826 4160 
C 1152 4160 1152 4102 1152 4039 
C 1152 4014 1152 4001 1120 3887 
L 326 731 
C 307 661 294 610 294 509 
C 294 191 531 -64 858 -64 
C 1069 -64 1210 76 1312 274 
C 1421 483 1510 884 1510 909 
C 1510 941 1485 967 1446 967 
C 1389 967 1382 935 1357 840 
C 1242 401 1126 64 870 64 
C 678 64 678 267 678 357 
C 678 382 678 515 723 694 
L 1626 4257 
z
" transform="scale(0.015625)"/>
      <path id="CMMI12-79" d="M 1683 -700 
C 1510 -939 1261 -1152 947 -1152 
C 870 -1152 563 -1152 467 -889 
C 486 -895 518 -895 531 -895 
C 723 -895 851 -729 851 -582 
C 851 -435 730 -384 634 -384 
C 531 -384 307 -458 307 -759 
C 307 -1071 582 -1286 947 -1286 
C 1587 -1286 2234 -700 2413 6 
L 3040 2485 
C 3046 2517 3059 2556 3059 2594 
C 3059 2689 2982 2753 2886 2753 
C 2829 2753 2694 2727 2643 2535 
L 2170 658 
C 2138 543 2138 530 2086 460 
C 1958 281 1747 64 1440 64 
C 1082 64 1050 415 1050 588 
C 1050 952 1222 1443 1395 1903 
C 1466 2088 1504 2178 1504 2305 
C 1504 2574 1312 2816 998 2816 
C 410 2816 173 1890 173 1839 
C 173 1814 198 1782 243 1782 
C 301 1782 307 1807 333 1897 
C 486 2433 730 2689 979 2689 
C 1037 2689 1146 2689 1146 2478 
C 1146 2312 1075 2127 979 1884 
C 666 1047 666 837 666 683 
C 666 77 1101 -64 1421 -64 
C 1606 -64 1837 -6 2061 230 
L 2067 224 
C 1971 -147 1907 -392 1683 -700 
z
" transform="scale(0.015625)"/>
      <path id="CMMI12-6d" d="M 1318 1871 
C 1331 1910 1491 2229 1728 2433 
C 1894 2586 2112 2689 2362 2689 
C 2618 2689 2707 2497 2707 2242 
C 2707 2203 2707 2076 2630 1775 
L 2470 1118 
C 2419 926 2298 453 2285 383 
C 2259 287 2221 121 2221 96 
C 2221 6 2291 -64 2387 -64 
C 2579 -64 2611 83 2669 313 
L 3053 1839 
C 3066 1890 3398 2689 4102 2689 
C 4358 2689 4448 2497 4448 2242 
C 4448 1884 4198 1188 4058 805 
C 4000 651 3968 568 3968 453 
C 3968 166 4166 -64 4474 -64 
C 5069 -64 5293 875 5293 913 
C 5293 945 5267 971 5229 971 
C 5171 971 5165 952 5133 843 
C 4986 332 4749 64 4493 64 
C 4429 64 4326 64 4326 269 
C 4326 436 4403 640 4429 710 
C 4544 1018 4832 1773 4832 2145 
C 4832 2528 4608 2816 4122 2816 
C 3693 2816 3347 2574 3091 2197 
C 3072 2542 2861 2816 2381 2816 
C 1811 2816 1510 2415 1395 2255 
C 1376 2618 1114 2816 832 2816 
C 646 2816 499 2727 378 2484 
C 262 2254 173 1865 173 1839 
C 173 1814 198 1782 243 1782 
C 294 1782 301 1788 339 1935 
C 435 2312 557 2689 813 2689 
C 960 2689 1011 2586 1011 2395 
C 1011 2254 947 2005 902 1807 
L 723 1118 
C 698 996 627 709 595 594 
C 550 428 480 128 480 96 
C 480 6 550 -64 646 -64 
C 723 -64 813 -26 864 70 
C 877 102 934 326 966 453 
L 1107 1028 
L 1318 1871 
z
" transform="scale(0.015625)"/>
     </defs>
     <use xlink:href="#CMMI12-6e" transform="scale(0.996264)"/>
     <use xlink:href="#CMMI12-74" transform="translate(58.230047 0) scale(0.996264)"/>
     <use xlink:href="#CMR17-3d" transform="translate(121.130386 0) scale(0.996264)"/>
     <use xlink:href="#CMMI12-42" transform="translate(220.519183 0) scale(0.996264)"/>
     <use xlink:href="#CMMI12-61" transform="translate(299.654707 0) scale(0.996264)"/>
     <use xlink:href="#CMMI12-72" transform="translate(350.862564 0) scale(0.996264)"/>
     <use xlink:href="#CMMI12-61" transform="translate(397.533176 0) scale(0.996264)"/>
     <use xlink:href="#CMMI12-62" transform="translate(448.741034 0) scale(0.996264)"/>
     <use xlink:href="#CMMI12-73" transform="translate(490.216908 0) scale(0.996264)"/>
     <use xlink:href="#CMMI12-69" transform="translate(536.166956 0) scale(0.996264)"/>
     <use xlink:href="#CMMI12-64" transform="translate(600.67467 0) scale(0.996264)"/>
     <use xlink:href="#CMR17-3d" transform="translate(679.037776 0) scale(0.996264)"/>
     <use xlink:href="#CMR17-31" transform="translate(778.426573 0) scale(0.996264)"/>
     <use xlink:href="#CMR17-30" transform="translate(824.11705 0) scale(0.996264)"/>
     <use xlink:href="#CMR17-30" transform="translate(869.807527 0) scale(0.996264)"/>
     <use xlink:href="#CMR17-30" transform="translate(915.498004 0) scale(0.996264)"/>
     <use xlink:href="#CMMI12-6f" transform="translate(992.417594 0) scale(0.996264)"/>
     <use xlink:href="#CMMI12-63" transform="translate(1039.312904 0) scale(0.996264)"/>
     <use xlink:href="#CMR17-3d" transform="translate(1108.970146 0) scale(0.996264)"/>
     <use xlink:href="#CMR17-31" transform="translate(1208.358943 0) scale(0.996264)"/>
     <use xlink:href="#CMR17-25" transform="translate(1254.04942 0) scale(0.996264)"/>
     <use xlink:href="#CMMI12-6c" transform="translate(1362.198123 0) scale(0.996264)"/>
     <use xlink:href="#CMR17-3d" transform="translate(1421.120536 0) scale(0.996264)"/>
     <use xlink:href="#CMMI12-64" transform="translate(1520.509333 0) scale(0.996264)"/>
     <use xlink:href="#CMMI12-79" transform="translate(1571.198429 0) scale(0.996264)"/>
     <use xlink:href="#CMMI12-6e" transform="translate(1622.33721 0) scale(0.996264)"/>
     <use xlink:href="#CMMI12-61" transform="translate(1680.567258 0) scale(0.996264)"/>
     <use xlink:href="#CMMI12-6d" transform="translate(1731.775115 0) scale(0.996264)"/>
     <use xlink:href="#CMMI12-69" transform="translate(1817.10234 0) scale(0.996264)"/>
     <use xlink:href="#CMMI12-63" transform="translate(1850.380941 0) scale(0.996264)"/>
    </g>
   </g>
  </g>
  <g id="axes_2">
   <g id="matplotlib.axis_3">
    <g id="ytick_7">
     <g id="line2d_22">
      <defs>
       <path id="m935a2bf236" d="M 0 0 
L 3.5 0 
" style="stroke: #000000; stroke-width: 0.8"/>
      </defs>
      <g>
       <use xlink:href="#m935a2bf236" x="518.4" y="320.4" style="stroke: #000000; stroke-width: 0.8"/>
      </g>
     </g>
     <g id="text_17">
      <!-- $\mathdefault{0}$ -->
      <g transform="translate(525.4 325.415904) scale(0.145 -0.145)">
       <use xlink:href="#CMR17-30" transform="scale(0.996264)"/>
      </g>
     </g>
    </g>
    <g id="ytick_8">
     <g id="line2d_23">
      <g>
       <use xlink:href="#m935a2bf236" x="518.4" y="264.987706" style="stroke: #000000; stroke-width: 0.8"/>
      </g>
     </g>
     <g id="text_18">
      <!-- $\mathdefault{20}$ -->
      <g transform="translate(525.4 270.00361) scale(0.145 -0.145)">
       <use xlink:href="#CMR17-32" transform="scale(0.996264)"/>
       <use xlink:href="#CMR17-30" transform="translate(45.690477 0) scale(0.996264)"/>
      </g>
     </g>
    </g>
    <g id="ytick_9">
     <g id="line2d_24">
      <g>
       <use xlink:href="#m935a2bf236" x="518.4" y="209.575412" style="stroke: #000000; stroke-width: 0.8"/>
      </g>
     </g>
     <g id="text_19">
      <!-- $\mathdefault{40}$ -->
      <g transform="translate(525.4 214.591316) scale(0.145 -0.145)">
       <use xlink:href="#CMR17-34" transform="scale(0.996264)"/>
       <use xlink:href="#CMR17-30" transform="translate(45.690477 0) scale(0.996264)"/>
      </g>
     </g>
    </g>
    <g id="ytick_10">
     <g id="line2d_25">
      <g>
       <use xlink:href="#m935a2bf236" x="518.4" y="154.163118" style="stroke: #000000; stroke-width: 0.8"/>
      </g>
     </g>
     <g id="text_20">
      <!-- $\mathdefault{60}$ -->
      <g transform="translate(525.4 159.179023) scale(0.145 -0.145)">
       <use xlink:href="#CMR17-36" transform="scale(0.996264)"/>
       <use xlink:href="#CMR17-30" transform="translate(45.690477 0) scale(0.996264)"/>
      </g>
     </g>
    </g>
    <g id="ytick_11">
     <g id="line2d_26">
      <g>
       <use xlink:href="#m935a2bf236" x="518.4" y="98.750825" style="stroke: #000000; stroke-width: 0.8"/>
      </g>
     </g>
     <g id="text_21">
      <!-- $\mathdefault{80}$ -->
      <g transform="translate(525.4 103.766729) scale(0.145 -0.145)">
       <use xlink:href="#CMR17-38" transform="scale(0.996264)"/>
       <use xlink:href="#CMR17-30" transform="translate(45.690477 0) scale(0.996264)"/>
      </g>
     </g>
    </g>
    <g id="ytick_12">
     <g id="line2d_27">
      <g>
       <use xlink:href="#m935a2bf236" x="518.4" y="43.338531" style="stroke: #000000; stroke-width: 0.8"/>
      </g>
     </g>
     <g id="text_22">
      <!-- $\mathdefault{100}$ -->
      <g transform="translate(525.4 48.354435) scale(0.145 -0.145)">
       <use xlink:href="#CMR17-31" transform="scale(0.996264)"/>
       <use xlink:href="#CMR17-30" transform="translate(45.690477 0) scale(0.996264)"/>
       <use xlink:href="#CMR17-30" transform="translate(91.380954 0) scale(0.996264)"/>
      </g>
     </g>
    </g>
    <g id="text_23">
     <!-- CPU load in \% -->
     <g transform="translate(560.648875 226.102524) rotate(-90) scale(0.145 -0.145)">
      <defs>
       <path id="CMSS17-43" d="M 3501 714 
C 3072 427 2874 344 2355 344 
C 1459 344 934 1303 934 2179 
C 934 3112 1472 4032 2381 4032 
C 2790 4032 3059 3918 3386 3715 
L 3475 4217 
C 3168 4370 2778 4440 2387 4440 
C 1158 4440 397 3316 397 2179 
C 397 927 1299 -64 2323 -64 
C 2874 -64 3066 -19 3539 280 
L 3501 714 
z
" transform="scale(0.015625)"/>
       <path id="CMSS17-50" d="M 2106 1856 
C 2874 1856 3501 2453 3501 3158 
C 3501 3850 2899 4453 2067 4453 
L 570 4453 
L 570 0 
L 1107 0 
L 1107 1856 
L 2106 1856 
z
M 1926 4096 
C 2669 4096 2995 3627 2995 3157 
C 2995 2720 2694 2226 1926 2226 
L 1094 2226 
L 1094 4096 
L 1926 4096 
z
" transform="scale(0.015625)"/>
       <path id="CMSS17-55" d="M 3552 4384 
L 3066 4384 
L 3066 1449 
C 3066 604 2547 229 2074 229 
C 1587 229 1101 623 1101 1443 
L 1101 4384 
L 563 4384 
L 563 1454 
C 563 539 1274 -128 2067 -128 
C 2861 -128 3552 539 3552 1454 
L 3552 4384 
z
" transform="scale(0.015625)"/>
       <path id="CMSS17-6c" d="M 947 4416 
L 474 4416 
L 474 0 
L 947 0 
L 947 4416 
z
" transform="scale(0.015625)"/>
       <path id="CMSS17-61" d="M 2406 1791 
C 2406 2392 1978 2808 1402 2808 
C 1120 2808 813 2757 461 2553 
L 499 2135 
C 659 2248 934 2432 1395 2432 
C 1722 2432 1920 2180 1920 1782 
L 1920 1536 
C 896 1536 256 1238 256 726 
C 256 461 416 -64 947 -64 
C 1043 -64 1562 -64 1933 217 
L 1933 -19 
L 2406 -19 
L 2406 1791 
z
M 1920 816 
C 1920 701 1920 548 1728 434 
C 1562 325 1350 325 1261 325 
C 941 325 723 511 723 744 
C 723 1211 1722 1211 1920 1211 
L 1920 816 
z
" transform="scale(0.015625)"/>
       <path id="CMSS17-64" d="M 2611 4416 
L 2138 4416 
L 2138 2438 
C 1939 2603 1613 2756 1254 2756 
C 672 2756 211 2131 211 1347 
C 211 562 666 -64 1235 -64 
C 1677 -64 1971 172 2125 306 
L 2125 -13 
L 2611 -13 
L 2611 4416 
z
M 2125 836 
C 2125 747 2125 653 1926 482 
C 1798 375 1645 325 1498 325 
C 1152 325 698 576 698 1340 
C 698 2134 1210 2368 1562 2368 
C 1798 2368 1990 2254 2125 2065 
L 2125 836 
z
" transform="scale(0.015625)"/>
       <path id="CMSS17-6e" d="M 2618 1877 
C 2618 2283 2522 2816 1798 2816 
C 1389 2816 1120 2606 941 2389 
L 941 2758 
L 474 2758 
L 474 0 
L 960 0 
L 960 1559 
C 960 1964 1114 2428 1549 2428 
C 2112 2428 2131 2048 2131 1829 
L 2131 0 
L 2618 0 
L 2618 1877 
z
" transform="scale(0.015625)"/>
       <path id="CMSS17-25" d="M 3923 4583 
C 3962 4647 3962 4679 3962 4685 
C 3962 4755 3904 4800 3853 4800 
C 3782 4800 3750 4749 3718 4685 
L 1101 -104 
C 1088 -129 1062 -167 1062 -206 
C 1062 -276 1120 -320 1178 -320 
C 1235 -320 1248 -295 1299 -206 
L 3923 4583 
z
M 4678 959 
C 4678 1698 4282 2240 3846 2240 
C 3418 2240 3008 1711 3008 959 
C 3008 208 3418 -320 3846 -320 
C 4288 -320 4678 221 4678 959 
z
M 3846 68 
C 3712 68 3494 189 3494 959 
C 3494 1724 3712 1851 3846 1851 
C 4083 1851 4211 1386 4211 959 
C 4211 533 4083 68 3846 68 
z
M 2003 3519 
C 2003 4258 1606 4800 1171 4800 
C 742 4800 333 4271 333 3519 
C 333 2768 742 2240 1171 2240 
C 1613 2240 2003 2781 2003 3519 
z
M 1171 2628 
C 1037 2628 819 2749 819 3519 
C 819 4284 1037 4411 1171 4411 
C 1408 4411 1536 3946 1536 3519 
C 1536 3093 1408 2628 1171 2628 
z
" transform="scale(0.015625)"/>
      </defs>
      <use xlink:href="#CMSS17-43" transform="scale(0.996264)"/>
      <use xlink:href="#CMSS17-50" transform="translate(59.855772 0) scale(0.996264)"/>
      <use xlink:href="#CMSS17-55" transform="translate(119.591358 0) scale(0.996264)"/>
      <use xlink:href="#CMSS17-6c" transform="translate(214.960211 0) scale(0.996264)"/>
      <use xlink:href="#CMSS17-6f" transform="translate(237.140934 0) scale(0.996264)"/>
      <use xlink:href="#CMSS17-61" transform="translate(283.984557 0) scale(0.996264)"/>
      <use xlink:href="#CMSS17-64" transform="translate(328.906478 0) scale(0.996264)"/>
      <use xlink:href="#CMSS17-69" transform="translate(408.340534 0) scale(0.996264)"/>
      <use xlink:href="#CMSS17-6e" transform="translate(430.521257 0) scale(0.996264)"/>
      <use xlink:href="#CMSS17-25" transform="translate(509.955313 0) scale(0.996264)"/>
     </g>
    </g>
   </g>
   <g id="line2d_28">
    <path d="M 92.290909 98.051322 
L 144.289896 98.051322 
L 145.420309 208.774293 
L 149.94196 208.774293 
L 151.072373 209.225661 
L 230.201266 209.225661 
L 231.331679 161.71589 
L 235.85333 161.71589 
L 236.983743 153.638492 
L 321.7647 153.638492 
L 322.895113 264.812831 
L 408.806483 264.812831 
L 409.936895 237.628936 
L 414.458546 237.628936 
L 415.588959 237.019246 
L 498.109091 237.019246 
L 498.109091 237.019246 
" clip-path="url(#p8acacfaa2b)" style="fill: none; stroke-dasharray: 5.55,2.4; stroke-dashoffset: 0; stroke: #140e36; stroke-width: 1.5"/>
   </g>
   <g id="line2d_29">
    <path d="M 92.290909 48.68451 
L 144.289896 48.690051 
L 145.420309 99.498861 
L 149.94196 99.498861 
L 151.072373 100.745013 
L 174.811041 100.634189 
L 175.941454 100.462411 
L 230.201266 100.434705 
L 231.331679 79.674351 
L 235.85333 79.674351 
L 236.983743 66.979205 
L 321.7647 66.979205 
L 322.895113 143.224385 
L 328.547177 143.224385 
L 329.677589 143.432201 
L 408.806483 143.465448 
L 409.936895 123.361636 
L 414.458546 123.361636 
L 415.588959 120.908325 
L 498.109091 120.88616 
L 498.109091 120.88616 
" clip-path="url(#p8acacfaa2b)" style="fill: none; stroke-dasharray: 5.55,2.4; stroke-dashoffset: 0; stroke: #fecf92; stroke-width: 1.5"/>
   </g>
   <g id="patch_6">
    <path d="M 72 320.4 
L 72 43.2 
" style="fill: none; stroke: #000000; stroke-width: 0.8; stroke-linejoin: miter; stroke-linecap: square"/>
   </g>
   <g id="patch_7">
    <path d="M 518.4 320.4 
L 518.4 43.2 
" style="fill: none; stroke: #000000; stroke-width: 0.8; stroke-linejoin: miter; stroke-linecap: square"/>
   </g>
   <g id="patch_8">
    <path d="M 72 320.4 
L 518.4 320.4 
" style="fill: none; stroke: #000000; stroke-width: 0.8; stroke-linejoin: miter; stroke-linecap: square"/>
   </g>
   <g id="patch_9">
    <path d="M 72 43.2 
L 518.4 43.2 
" style="fill: none; stroke: #000000; stroke-width: 0.8; stroke-linejoin: miter; stroke-linecap: square"/>
   </g>
   <g id="legend_1">
    <g id="patch_10">
     <path d="M 347.090605 313.15 
L 508.25 313.15 
Q 511.15 313.15 511.15 310.25 
L 511.15 224.916687 
Q 511.15 222.016687 508.25 222.016687 
L 347.090605 222.016687 
Q 344.190605 222.016687 344.190605 224.916687 
L 344.190605 310.25 
Q 344.190605 313.15 347.090605 313.15 
z
" style="fill: #ffffff; opacity: 0.7; stroke: #cccccc; stroke-linejoin: miter"/>
    </g>
    <g id="line2d_30">
     <path d="M 349.990605 233.576059 
L 364.490605 233.576059 
L 378.990605 233.576059 
" style="fill: none; stroke: #482475; stroke-width: 2.5; stroke-linecap: square"/>
    </g>
    <g id="text_24">
     <!-- QoS [static] -->
     <g transform="translate(390.590605 238.651059) scale(0.145 -0.145)">
      <defs>
       <path id="CMSS17-5b" d="M 1613 -1600 
L 1613 -1212 
L 1062 -1212 
L 1062 4352 
L 1613 4352 
L 1613 4741 
L 595 4741 
L 595 -1600 
L 1613 -1600 
z
" transform="scale(0.015625)"/>
       <path id="CMSS17-63" d="M 2464 2541 
C 2464 2585 2170 2714 2093 2739 
C 1882 2816 1613 2816 1542 2816 
C 710 2816 211 2093 211 1363 
C 211 595 768 -64 1517 -64 
C 1946 -64 2253 76 2502 242 
L 2464 664 
C 2189 453 1869 337 1523 337 
C 1024 337 698 774 698 1369 
C 698 1831 909 2414 1549 2414 
C 1901 2414 2099 2343 2394 2145 
L 2464 2541 
z
" transform="scale(0.015625)"/>
       <path id="CMSS17-5d" d="M 1146 4741 
L 128 4741 
L 128 4352 
L 678 4352 
L 678 -1212 
L 128 -1212 
L 128 -1600 
L 1146 -1600 
L 1146 4741 
z
" transform="scale(0.015625)"/>
      </defs>
      <use xlink:href="#CMSS17-51" transform="scale(0.996264)"/>
      <use xlink:href="#CMSS17-6f" transform="translate(69.024255 0) scale(0.996264)"/>
      <use xlink:href="#CMSS17-53" transform="translate(115.867879 0) scale(0.996264)"/>
      <use xlink:href="#CMSS17-5b" transform="translate(199.145508 0) scale(0.996264)"/>
      <use xlink:href="#CMSS17-73" transform="translate(226.330946 0) scale(0.996264)"/>
      <use xlink:href="#CMSS17-74" transform="translate(262.244488 0) scale(0.996264)"/>
      <use xlink:href="#CMSS17-61" transform="translate(296.076055 0) scale(0.996264)"/>
      <use xlink:href="#CMSS17-74" transform="translate(340.997976 0) scale(0.996264)"/>
      <use xlink:href="#CMSS17-69" transform="translate(374.829542 0) scale(0.996264)"/>
      <use xlink:href="#CMSS17-63" transform="translate(397.010265 0) scale(0.996264)"/>
      <use xlink:href="#CMSS17-5d" transform="translate(438.649088 0) scale(0.996264)"/>
     </g>
    </g>
    <g id="line2d_31">
     <path d="M 349.990605 255.271887 
L 364.490605 255.271887 
L 378.990605 255.271887 
" style="fill: none; stroke: #bddf26; stroke-width: 2.5; stroke-linecap: square"/>
    </g>
    <g id="text_25">
     <!-- QoS [dynamic] -->
     <g transform="translate(390.590605 260.346887) scale(0.145 -0.145)">
      <defs>
       <path id="CMSS17-79" d="M 2675 2752 
L 2176 2752 
C 1632 1294 1446 702 1434 383 
L 1427 383 
C 1408 696 1126 1460 902 2007 
L 602 2752 
L 83 2752 
L 1216 13 
C 1146 -178 1043 -465 1011 -529 
C 870 -885 774 -885 672 -885 
C 646 -885 442 -885 211 -809 
L 250 -1229 
C 410 -1261 570 -1280 685 -1280 
C 845 -1280 1165 -1280 1459 -497 
L 2675 2752 
z
" transform="scale(0.015625)"/>
      </defs>
      <use xlink:href="#CMSS17-51" transform="scale(0.996264)"/>
      <use xlink:href="#CMSS17-6f" transform="translate(69.024255 0) scale(0.996264)"/>
      <use xlink:href="#CMSS17-53" transform="translate(115.867879 0) scale(0.996264)"/>
      <use xlink:href="#CMSS17-5b" transform="translate(199.145508 0) scale(0.996264)"/>
      <use xlink:href="#CMSS17-64" transform="translate(226.330946 0) scale(0.996264)"/>
      <use xlink:href="#CMSS17-79" transform="translate(274.53589 0) scale(0.996264)"/>
      <use xlink:href="#CMSS17-6e" transform="translate(317.536031 0) scale(0.996264)"/>
      <use xlink:href="#CMSS17-61" transform="translate(365.740974 0) scale(0.996264)"/>
      <use xlink:href="#CMSS17-6d" transform="translate(410.662895 0) scale(0.996264)"/>
      <use xlink:href="#CMSS17-69" transform="translate(484.892149 0) scale(0.996264)"/>
      <use xlink:href="#CMSS17-63" transform="translate(507.072872 0) scale(0.996264)"/>
      <use xlink:href="#CMSS17-5d" transform="translate(548.711695 0) scale(0.996264)"/>
     </g>
    </g>
    <g id="line2d_32">
     <path d="M 349.990605 276.967715 
L 364.490605 276.967715 
L 378.990605 276.967715 
" style="fill: none; stroke-dasharray: 5.55,2.4; stroke-dashoffset: 0; stroke: #140e36; stroke-width: 1.5"/>
    </g>
    <g id="text_26">
     <!-- Load driver (right) -->
     <g transform="translate(390.590605 282.042715) scale(0.145 -0.145)">
      <defs>
       <path id="CMSS17-4c" d="M 1670 414 
C 1594 414 1517 414 1440 414 
L 1101 414 
L 1101 4416 
L 563 4416 
L 563 0 
L 3002 0 
L 3002 414 
L 1670 414 
z
" transform="scale(0.015625)"/>
       <path id="CMSS17-72" d="M 954 1363 
C 954 1965 1395 2368 1958 2368 
L 1958 2789 
C 1549 2789 1165 2585 934 2253 
L 934 2758 
L 480 2758 
L 480 0 
L 954 0 
L 954 1363 
z
" transform="scale(0.015625)"/>
       <path id="CMSS17-76" d="M 2675 2752 
L 2176 2752 
L 1747 1556 
C 1613 1165 1421 627 1389 352 
L 1382 352 
C 1370 468 1318 634 1286 749 
C 1248 890 1197 1056 1158 1172 
L 595 2752 
L 83 2752 
L 1094 0 
L 1664 0 
L 2675 2752 
z
" transform="scale(0.015625)"/>
       <path id="CMSS17-67" d="M 2848 2808 
C 2483 2808 2170 2738 1914 2617 
C 1702 2777 1485 2808 1338 2808 
C 781 2808 358 2349 358 1814 
C 358 1468 550 1207 563 1195 
C 448 1035 384 863 384 672 
C 384 448 474 289 544 200 
C 211 -3 166 -314 166 -435 
C 166 -898 749 -1280 1498 -1280 
C 2253 -1280 2835 -898 2835 -428 
C 2835 448 1856 448 1587 448 
L 1069 448 
C 973 448 717 448 717 791 
C 717 921 774 1004 781 1010 
C 877 940 1075 832 1338 832 
C 1869 832 2310 1278 2310 1827 
C 2310 2132 2170 2355 2112 2432 
L 2131 2432 
C 2150 2432 2419 2432 2515 2432 
C 2720 2432 2739 2429 2918 2419 
L 2848 2808 
z
M 1338 1182 
C 1120 1182 813 1315 813 1823 
C 813 2375 1165 2464 1331 2464 
C 1549 2464 1856 2331 1856 1823 
C 1856 1271 1504 1182 1338 1182 
z
M 1581 -10 
C 1734 -10 2381 -10 2381 -442 
C 2381 -714 1984 -929 1504 -929 
C 1018 -929 621 -720 621 -435 
C 621 -403 621 -10 1062 -10 
L 1581 -10 
z
" transform="scale(0.015625)"/>
       <path id="CMSS17-68" d="M 2618 1891 
C 2618 2292 2522 2820 1798 2820 
C 1395 2820 1133 2623 947 2407 
L 947 4448 
L 474 4448 
L 474 32 
L 960 32 
L 960 1573 
C 960 1973 1114 2432 1549 2432 
C 2112 2432 2131 2056 2131 1839 
L 2131 32 
L 2618 32 
L 2618 1891 
z
" transform="scale(0.015625)"/>
      </defs>
      <use xlink:href="#CMSS17-4c" transform="scale(0.996264)"/>
      <use xlink:href="#CMSS17-6f" transform="translate(50.687105 0) scale(0.996264)"/>
      <use xlink:href="#CMSS17-61" transform="translate(97.530729 0) scale(0.996264)"/>
      <use xlink:href="#CMSS17-64" transform="translate(142.452649 0) scale(0.996264)"/>
      <use xlink:href="#CMSS17-64" transform="translate(221.886705 0) scale(0.996264)"/>
      <use xlink:href="#CMSS17-72" transform="translate(270.091649 0) scale(0.996264)"/>
      <use xlink:href="#CMSS17-69" transform="translate(302.001421 0) scale(0.996264)"/>
      <use xlink:href="#CMSS17-76" transform="translate(324.182144 0) scale(0.996264)"/>
      <use xlink:href="#CMSS17-65" transform="translate(367.182286 0) scale(0.996264)"/>
      <use xlink:href="#CMSS17-72" transform="translate(408.821108 0) scale(0.996264)"/>
      <use xlink:href="#CMSS17-28" transform="translate(471.959993 0) scale(0.996264)"/>
      <use xlink:href="#CMSS17-72" transform="translate(508.393907 0) scale(0.996264)"/>
      <use xlink:href="#CMSS17-69" transform="translate(540.30368 0) scale(0.996264)"/>
      <use xlink:href="#CMSS17-67" transform="translate(562.484403 0) scale(0.996264)"/>
      <use xlink:href="#CMSS17-68" transform="translate(609.328026 0) scale(0.996264)"/>
      <use xlink:href="#CMSS17-74" transform="translate(657.53297 0) scale(0.996264)"/>
      <use xlink:href="#CMSS17-29" transform="translate(691.364536 0) scale(0.996264)"/>
     </g>
    </g>
    <g id="line2d_33">
     <path d="M 349.990605 298.663543 
L 364.490605 298.663543 
L 378.990605 298.663543 
" style="fill: none; stroke-dasharray: 5.55,2.4; stroke-dashoffset: 0; stroke: #fecf92; stroke-width: 1.5"/>
    </g>
    <g id="text_27">
     <!-- System load (right) -->
     <g transform="translate(390.590605 303.738543) scale(0.145 -0.145)">
      <use xlink:href="#CMSS17-53" transform="scale(0.996264)"/>
      <use xlink:href="#CMSS17-79" transform="translate(52.048516 0) scale(0.996264)"/>
      <use xlink:href="#CMSS17-73" transform="translate(95.048658 0) scale(0.996264)"/>
      <use xlink:href="#CMSS17-74" transform="translate(130.9622 0) scale(0.996264)"/>
      <use xlink:href="#CMSS17-65" transform="translate(164.793767 0) scale(0.996264)"/>
      <use xlink:href="#CMSS17-6d" transform="translate(206.432589 0) scale(0.996264)"/>
      <use xlink:href="#CMSS17-6c" transform="translate(311.890956 0) scale(0.996264)"/>
      <use xlink:href="#CMSS17-6f" transform="translate(334.071679 0) scale(0.996264)"/>
      <use xlink:href="#CMSS17-61" transform="translate(380.915302 0) scale(0.996264)"/>
      <use xlink:href="#CMSS17-64" transform="translate(425.837223 0) scale(0.996264)"/>
      <use xlink:href="#CMSS17-28" transform="translate(505.271279 0) scale(0.996264)"/>
      <use xlink:href="#CMSS17-72" transform="translate(541.705193 0) scale(0.996264)"/>
      <use xlink:href="#CMSS17-69" transform="translate(573.614966 0) scale(0.996264)"/>
      <use xlink:href="#CMSS17-67" transform="translate(595.795689 0) scale(0.996264)"/>
      <use xlink:href="#CMSS17-68" transform="translate(642.639312 0) scale(0.996264)"/>
      <use xlink:href="#CMSS17-74" transform="translate(690.844255 0) scale(0.996264)"/>
      <use xlink:href="#CMSS17-29" transform="translate(724.675822 0) scale(0.996264)"/>
     </g>
    </g>
   </g>
  </g>
 </g>
 <defs>
  <clipPath id="p8acacfaa2b">
   <rect x="72" y="43.2" width="446.4" height="277.2"/>
  </clipPath>
 </defs>
</svg>
