<?xml version="1.0" encoding="utf-8" standalone="no"?>
<!DOCTYPE svg PUBLIC "-//W3C//DTD SVG 1.1//EN"
  "http://www.w3.org/Graphics/SVG/1.1/DTD/svg11.dtd">
<svg xmlns:xlink="http://www.w3.org/1999/xlink" width="720pt" height="360pt" viewBox="0 0 720 360" xmlns="http://www.w3.org/2000/svg" version="1.1">
 <metadata>
  <rdf:RDF xmlns:dc="http://purl.org/dc/elements/1.1/" xmlns:cc="http://creativecommons.org/ns#" xmlns:rdf="http://www.w3.org/1999/02/22-rdf-syntax-ns#">
   <cc:Work>
    <dc:type rdf:resource="http://purl.org/dc/dcmitype/StillImage"/>
    <dc:date>2023-12-17T14:15:00.362148</dc:date>
    <dc:format>image/svg+xml</dc:format>
    <dc:creator>
     <cc:Agent>
      <dc:title>Matplotlib v3.8.0, https://matplotlib.org/</dc:title>
     </cc:Agent>
    </dc:creator>
   </cc:Work>
  </rdf:RDF>
 </metadata>
 <defs>
  <style type="text/css">*{stroke-linejoin: round; stroke-linecap: butt}</style>
 </defs>
 <g id="figure_1">
  <g id="patch_1">
   <path d="M 0 360 
L 720 360 
L 720 0 
L 0 0 
z
" style="fill: #ffffff"/>
  </g>
  <g id="axes_1">
   <g id="patch_2">
    <path d="M 90 320.4 
L 648 320.4 
L 648 43.2 
L 90 43.2 
z
" style="fill: #ffffff"/>
   </g>
   <g id="PolyCollection_1">
    <defs>
     <path id="m56651a3a73" d="M 115.363636 -51.446228 
L 115.363636 -71.370796 
L 116.776652 -71.370796 
L 118.189668 -71.370796 
L 119.602684 -71.370796 
L 121.0157 -71.370796 
L 122.428716 -71.370796 
L 123.841732 -71.370796 
L 125.254748 -71.370796 
L 126.667764 -71.370796 
L 128.08078 -71.370796 
L 129.493796 -71.370796 
L 130.906812 -71.370796 
L 132.319828 -71.370796 
L 133.732844 -71.370796 
L 135.14586 -71.370796 
L 136.558876 -71.370796 
L 137.971892 -71.370796 
L 139.384908 -71.370796 
L 140.797924 -71.370796 
L 142.210939 -71.370796 
L 143.623955 -71.370796 
L 145.036971 -71.370796 
L 146.449987 -71.370796 
L 147.863003 -71.370796 
L 149.276019 -71.370796 
L 150.689035 -71.370796 
L 152.102051 -71.370796 
L 153.515067 -71.370796 
L 154.928083 -71.370796 
L 156.341099 -71.370796 
L 157.754115 -71.370796 
L 159.167131 -71.370796 
L 160.580147 -71.370796 
L 161.993163 -71.370796 
L 163.406179 -71.370796 
L 164.819195 -71.370796 
L 166.232211 -71.370796 
L 167.645227 -71.370796 
L 169.058243 -71.370796 
L 170.471259 -71.370796 
L 171.884274 -71.370796 
L 173.29729 -71.370796 
L 174.710306 -71.370796 
L 176.123322 -71.370796 
L 177.536338 -71.370796 
L 178.949354 -71.370796 
L 180.36237 -71.370796 
L 181.775386 -121.168066 
L 183.188402 -121.168066 
L 184.601418 -121.168066 
L 186.014434 -121.168066 
L 187.42745 -121.168066 
L 188.840466 -142.81964 
L 190.253482 -142.81964 
L 191.666498 -142.81964 
L 193.079514 -142.81964 
L 194.49253 -142.81964 
L 195.905546 -142.81964 
L 197.318562 -142.81964 
L 198.731578 -142.81964 
L 200.144594 -142.81964 
L 201.55761 -142.81964 
L 202.970625 -142.81964 
L 204.383641 -142.81964 
L 205.796657 -142.81964 
L 207.209673 -142.81964 
L 208.622689 -142.81964 
L 210.035705 -142.81964 
L 211.448721 -142.81964 
L 212.861737 -142.81964 
L 214.274753 -142.81964 
L 215.687769 -142.81964 
L 217.100785 -142.81964 
L 218.513801 -142.81964 
L 219.926817 -142.81964 
L 221.339833 -142.81964 
L 222.752849 -142.81964 
L 224.165865 -142.81964 
L 225.578881 -142.81964 
L 226.991897 -142.81964 
L 228.404913 -142.81964 
L 229.817929 -142.81964 
L 231.230945 -142.81964 
L 232.64396 -142.81964 
L 234.056976 -142.81964 
L 235.469992 -142.81964 
L 236.883008 -142.81964 
L 238.296024 -142.81964 
L 239.70904 -142.81964 
L 241.122056 -142.81964 
L 242.535072 -142.81964 
L 243.948088 -142.81964 
L 245.361104 -142.81964 
L 246.77412 -142.81964 
L 248.187136 -142.81964 
L 249.600152 -142.81964 
L 251.013168 -142.81964 
L 252.426184 -142.81964 
L 253.8392 -142.81964 
L 255.252216 -142.81964 
L 256.665232 -142.81964 
L 258.078248 -142.81964 
L 259.491264 -142.81964 
L 260.90428 -142.81964 
L 262.317296 -142.81964 
L 263.730311 -142.81964 
L 265.143327 -142.81964 
L 266.556343 -142.81964 
L 267.969359 -142.81964 
L 269.382375 -142.81964 
L 270.795391 -142.81964 
L 272.208407 -142.81964 
L 273.621423 -142.81964 
L 275.034439 -142.81964 
L 276.447455 -142.81964 
L 277.860471 -142.81964 
L 279.273487 -142.81964 
L 280.686503 -142.81964 
L 282.099519 -142.81964 
L 283.512535 -142.81964 
L 284.925551 -142.81964 
L 286.338567 -142.81964 
L 287.751583 -142.81964 
L 289.164599 -142.567601 
L 290.577615 -142.567601 
L 291.990631 -142.567601 
L 293.403646 -142.567601 
L 294.816662 -142.567601 
L 296.229678 -109.693847 
L 297.642694 -109.693847 
L 299.05571 -109.693847 
L 300.468726 -109.693847 
L 301.881742 -109.693847 
L 303.294758 -109.693847 
L 304.707774 -107.899756 
L 306.12079 -107.899756 
L 307.533806 -107.899756 
L 308.946822 -107.899756 
L 310.359838 -107.899756 
L 311.772854 -107.899756 
L 313.18587 -107.899756 
L 314.598886 -107.899756 
L 316.011902 -107.899756 
L 317.424918 -107.899756 
L 318.837934 -107.899756 
L 320.25095 -107.899756 
L 321.663966 -107.899756 
L 323.076982 -107.899756 
L 324.489997 -107.899756 
L 325.903013 -107.899756 
L 327.316029 -107.899756 
L 328.729045 -107.899756 
L 330.142061 -107.899756 
L 331.555077 -107.899756 
L 332.968093 -107.899756 
L 334.381109 -107.899756 
L 335.794125 -107.899756 
L 337.207141 -107.899756 
L 338.620157 -107.899756 
L 340.033173 -107.899756 
L 341.446189 -107.899756 
L 342.859205 -107.899756 
L 344.272221 -107.899756 
L 345.685237 -107.899756 
L 347.098253 -107.899756 
L 348.511269 -107.899756 
L 349.924285 -107.899756 
L 351.337301 -107.899756 
L 352.750317 -107.899756 
L 354.163332 -107.899756 
L 355.576348 -107.899756 
L 356.989364 -107.899756 
L 358.40238 -107.899756 
L 359.815396 -107.899756 
L 361.228412 -107.899756 
L 362.641428 -107.899756 
L 364.054444 -107.899756 
L 365.46746 -107.899756 
L 366.880476 -107.899756 
L 368.293492 -107.899756 
L 369.706508 -107.899756 
L 371.119524 -107.899756 
L 372.53254 -107.899756 
L 373.945556 -107.899756 
L 375.358572 -107.899756 
L 376.771588 -107.899756 
L 378.184604 -107.899756 
L 379.59762 -107.899756 
L 381.010636 -107.899756 
L 382.423652 -107.899756 
L 383.836668 -107.899756 
L 385.249683 -107.899756 
L 386.662699 -107.899756 
L 388.075715 -107.899756 
L 389.488731 -107.899756 
L 390.901747 -107.899756 
L 392.314763 -107.899756 
L 393.727779 -107.899756 
L 395.140795 -107.899756 
L 396.553811 -107.899756 
L 397.966827 -107.899756 
L 399.379843 -107.899756 
L 400.792859 -107.899756 
L 402.205875 -107.899756 
L 403.618891 -164.976554 
L 405.031907 -165.204163 
L 406.444923 -165.204163 
L 407.857939 -165.204163 
L 409.270955 -165.204163 
L 410.683971 -165.204163 
L 412.096987 -178.578909 
L 413.510003 -178.578909 
L 414.923018 -178.578909 
L 416.336034 -178.578909 
L 417.74905 -178.578909 
L 419.162066 -178.578909 
L 420.575082 -178.578909 
L 421.988098 -178.578909 
L 423.401114 -178.578909 
L 424.81413 -178.578909 
L 426.227146 -178.578909 
L 427.640162 -178.578909 
L 429.053178 -178.578909 
L 430.466194 -178.578909 
L 431.87921 -178.578909 
L 433.292226 -178.578909 
L 434.705242 -178.578909 
L 436.118258 -178.578909 
L 437.531274 -178.578909 
L 438.94429 -178.578909 
L 440.357306 -178.578909 
L 441.770322 -178.578909 
L 443.183338 -178.578909 
L 444.596354 -178.578909 
L 446.009369 -178.578909 
L 447.422385 -178.578909 
L 448.835401 -178.578909 
L 450.248417 -178.578909 
L 451.661433 -178.578909 
L 453.074449 -178.578909 
L 454.487465 -178.578909 
L 455.900481 -178.578909 
L 457.313497 -178.578909 
L 458.726513 -178.578909 
L 460.139529 -178.578909 
L 461.552545 -178.578909 
L 462.965561 -178.578909 
L 464.378577 -178.578909 
L 465.791593 -178.578909 
L 467.204609 -178.578909 
L 468.617625 -178.578909 
L 470.030641 -178.578909 
L 471.443657 -178.578909 
L 472.856673 -178.578909 
L 474.269689 -178.578909 
L 475.682704 -178.578909 
L 477.09572 -178.578909 
L 478.508736 -178.578909 
L 479.921752 -178.578909 
L 481.334768 -178.578909 
L 482.747784 -178.578909 
L 484.1608 -178.578909 
L 485.573816 -178.578909 
L 486.986832 -178.578909 
L 488.399848 -178.578909 
L 489.812864 -178.578909 
L 491.22588 -178.578909 
L 492.638896 -178.578909 
L 494.051912 -178.578909 
L 495.464928 -178.578909 
L 496.877944 -178.578909 
L 498.29096 -178.578909 
L 499.703976 -178.578909 
L 501.116992 -178.578909 
L 502.530008 -178.578909 
L 503.943024 -178.578909 
L 505.35604 -178.578909 
L 506.769055 -178.578909 
L 508.182071 -178.578909 
L 509.595087 -178.578909 
L 511.008103 -178.578909 
L 512.421119 -172.898192 
L 513.834135 -172.898192 
L 515.247151 -172.898192 
L 516.660167 -172.898192 
L 518.073183 -172.898192 
L 519.486199 -160.683452 
L 520.899215 -160.683452 
L 522.312231 -160.683452 
L 523.725247 -160.683452 
L 525.138263 -160.683452 
L 526.551279 -160.683452 
L 527.964295 -160.683452 
L 529.377311 -160.683452 
L 530.790327 -160.683452 
L 532.203343 -160.683452 
L 533.616359 -160.683452 
L 535.029375 -160.683452 
L 536.44239 -160.683452 
L 537.855406 -160.683452 
L 539.268422 -160.683452 
L 540.681438 -160.683452 
L 542.094454 -160.683452 
L 543.50747 -160.683452 
L 544.920486 -160.683452 
L 546.333502 -160.683452 
L 547.746518 -160.683452 
L 549.159534 -160.683452 
L 550.57255 -160.683452 
L 551.985566 -160.683452 
L 553.398582 -160.683452 
L 554.811598 -160.683452 
L 556.224614 -160.683452 
L 557.63763 -160.683452 
L 559.050646 -160.683452 
L 560.463662 -160.683452 
L 561.876678 -160.683452 
L 563.289694 -160.683452 
L 564.70271 -160.683452 
L 566.115726 -160.683452 
L 567.528741 -160.683452 
L 568.941757 -160.683452 
L 570.354773 -160.683452 
L 571.767789 -160.683452 
L 573.180805 -160.683452 
L 574.593821 -160.683452 
L 576.006837 -160.683452 
L 577.419853 -160.683452 
L 578.832869 -160.683452 
L 580.245885 -160.683452 
L 581.658901 -160.683452 
L 583.071917 -160.683452 
L 584.484933 -160.683452 
L 585.897949 -160.683452 
L 587.310965 -160.683452 
L 588.723981 -160.683452 
L 590.136997 -160.683452 
L 591.550013 -160.683452 
L 592.963029 -160.683452 
L 594.376045 -160.683452 
L 595.789061 -160.683452 
L 597.202076 -160.683452 
L 598.615092 -160.683452 
L 600.028108 -160.683452 
L 601.441124 -160.683452 
L 602.85414 -160.683452 
L 604.267156 -160.683452 
L 605.680172 -160.683452 
L 607.093188 -160.683452 
L 608.506204 -160.683452 
L 609.91922 -160.683452 
L 611.332236 -160.683452 
L 612.745252 -160.683452 
L 614.158268 -160.683452 
L 615.571284 -160.683452 
L 616.9843 -160.683452 
L 618.397316 -160.683452 
L 619.810332 -160.683452 
L 621.223348 -160.683452 
L 622.636364 -160.683452 
L 622.636364 -99.873988 
L 622.636364 -99.873988 
L 621.223348 -99.873988 
L 619.810332 -99.873988 
L 618.397316 -99.873988 
L 616.9843 -99.873988 
L 615.571284 -99.873988 
L 614.158268 -99.873988 
L 612.745252 -99.873988 
L 611.332236 -99.873988 
L 609.91922 -99.873988 
L 608.506204 -99.873988 
L 607.093188 -99.873988 
L 605.680172 -99.873988 
L 604.267156 -99.873988 
L 602.85414 -99.873988 
L 601.441124 -99.873988 
L 600.028108 -99.873988 
L 598.615092 -99.873988 
L 597.202076 -99.873988 
L 595.789061 -99.873988 
L 594.376045 -99.873988 
L 592.963029 -99.873988 
L 591.550013 -99.873988 
L 590.136997 -99.873988 
L 588.723981 -99.873988 
L 587.310965 -99.873988 
L 585.897949 -99.873988 
L 584.484933 -99.873988 
L 583.071917 -99.873988 
L 581.658901 -99.873988 
L 580.245885 -99.873988 
L 578.832869 -99.873988 
L 577.419853 -99.873988 
L 576.006837 -99.873988 
L 574.593821 -99.873988 
L 573.180805 -99.873988 
L 571.767789 -99.873988 
L 570.354773 -99.873988 
L 568.941757 -99.873988 
L 567.528741 -99.873988 
L 566.115726 -99.873988 
L 564.70271 -99.873988 
L 563.289694 -99.873988 
L 561.876678 -99.873988 
L 560.463662 -99.873988 
L 559.050646 -99.873988 
L 557.63763 -99.873988 
L 556.224614 -99.873988 
L 554.811598 -99.873988 
L 553.398582 -99.873988 
L 551.985566 -99.873988 
L 550.57255 -99.873988 
L 549.159534 -99.873988 
L 547.746518 -99.873988 
L 546.333502 -99.873988 
L 544.920486 -99.873988 
L 543.50747 -99.873988 
L 542.094454 -99.873988 
L 540.681438 -99.873988 
L 539.268422 -99.873988 
L 537.855406 -99.873988 
L 536.44239 -99.873988 
L 535.029375 -99.873988 
L 533.616359 -99.873988 
L 532.203343 -99.873988 
L 530.790327 -99.873988 
L 529.377311 -99.873988 
L 527.964295 -99.873988 
L 526.551279 -99.873988 
L 525.138263 -99.873988 
L 523.725247 -99.873988 
L 522.312231 -99.873988 
L 520.899215 -99.873988 
L 519.486199 -99.873988 
L 518.073183 -101.432656 
L 516.660167 -101.432656 
L 515.247151 -101.432656 
L 513.834135 -101.432656 
L 512.421119 -101.432656 
L 511.008103 -109.525875 
L 509.595087 -109.525875 
L 508.182071 -109.525875 
L 506.769055 -109.525875 
L 505.35604 -109.525875 
L 503.943024 -109.525875 
L 502.530008 -109.525875 
L 501.116992 -109.525875 
L 499.703976 -109.525875 
L 498.29096 -109.525875 
L 496.877944 -109.525875 
L 495.464928 -109.525875 
L 494.051912 -109.525875 
L 492.638896 -109.525875 
L 491.22588 -109.525875 
L 489.812864 -109.525875 
L 488.399848 -109.525875 
L 486.986832 -109.525875 
L 485.573816 -109.525875 
L 484.1608 -109.525875 
L 482.747784 -109.525875 
L 481.334768 -109.525875 
L 479.921752 -109.525875 
L 478.508736 -109.525875 
L 477.09572 -109.525875 
L 475.682704 -109.525875 
L 474.269689 -109.525875 
L 472.856673 -109.525875 
L 471.443657 -109.525875 
L 470.030641 -109.525875 
L 468.617625 -109.525875 
L 467.204609 -109.525875 
L 465.791593 -109.525875 
L 464.378577 -109.525875 
L 462.965561 -109.525875 
L 461.552545 -109.525875 
L 460.139529 -109.525875 
L 458.726513 -109.525875 
L 457.313497 -109.525875 
L 455.900481 -109.525875 
L 454.487465 -109.525875 
L 453.074449 -109.525875 
L 451.661433 -109.525875 
L 450.248417 -109.525875 
L 448.835401 -109.525875 
L 447.422385 -109.525875 
L 446.009369 -109.525875 
L 444.596354 -109.525875 
L 443.183338 -109.525875 
L 441.770322 -109.525875 
L 440.357306 -109.525875 
L 438.94429 -109.525875 
L 437.531274 -109.525875 
L 436.118258 -109.525875 
L 434.705242 -109.525875 
L 433.292226 -109.525875 
L 431.87921 -109.525875 
L 430.466194 -109.525875 
L 429.053178 -109.525875 
L 427.640162 -109.525875 
L 426.227146 -109.525875 
L 424.81413 -109.525875 
L 423.401114 -109.525875 
L 421.988098 -109.525875 
L 420.575082 -109.525875 
L 419.162066 -109.525875 
L 417.74905 -109.525875 
L 416.336034 -109.525875 
L 414.923018 -109.525875 
L 413.510003 -109.525875 
L 412.096987 -109.525875 
L 410.683971 -109.126685 
L 409.270955 -109.126685 
L 407.857939 -109.126685 
L 406.444923 -109.126685 
L 405.031907 -109.126685 
L 403.618891 -102.467062 
L 402.205875 -72.3077 
L 400.792859 -72.3077 
L 399.379843 -72.3077 
L 397.966827 -72.3077 
L 396.553811 -72.3077 
L 395.140795 -72.3077 
L 393.727779 -72.3077 
L 392.314763 -72.3077 
L 390.901747 -72.3077 
L 389.488731 -72.3077 
L 388.075715 -72.3077 
L 386.662699 -72.3077 
L 385.249683 -72.3077 
L 383.836668 -72.3077 
L 382.423652 -72.3077 
L 381.010636 -72.3077 
L 379.59762 -72.3077 
L 378.184604 -72.3077 
L 376.771588 -72.3077 
L 375.358572 -72.3077 
L 373.945556 -72.3077 
L 372.53254 -72.3077 
L 371.119524 -72.3077 
L 369.706508 -72.3077 
L 368.293492 -72.3077 
L 366.880476 -72.3077 
L 365.46746 -72.3077 
L 364.054444 -72.3077 
L 362.641428 -72.3077 
L 361.228412 -72.3077 
L 359.815396 -72.3077 
L 358.40238 -72.3077 
L 356.989364 -72.3077 
L 355.576348 -72.3077 
L 354.163332 -72.3077 
L 352.750317 -72.3077 
L 351.337301 -72.3077 
L 349.924285 -72.3077 
L 348.511269 -72.3077 
L 347.098253 -72.3077 
L 345.685237 -72.3077 
L 344.272221 -72.3077 
L 342.859205 -72.3077 
L 341.446189 -72.3077 
L 340.033173 -72.3077 
L 338.620157 -72.3077 
L 337.207141 -72.3077 
L 335.794125 -72.3077 
L 334.381109 -72.3077 
L 332.968093 -72.3077 
L 331.555077 -72.3077 
L 330.142061 -72.3077 
L 328.729045 -72.3077 
L 327.316029 -72.3077 
L 325.903013 -72.3077 
L 324.489997 -72.3077 
L 323.076982 -72.3077 
L 321.663966 -72.3077 
L 320.25095 -72.3077 
L 318.837934 -72.3077 
L 317.424918 -72.3077 
L 316.011902 -72.3077 
L 314.598886 -72.3077 
L 313.18587 -72.3077 
L 311.772854 -72.3077 
L 310.359838 -72.3077 
L 308.946822 -72.3077 
L 307.533806 -72.3077 
L 306.12079 -72.3077 
L 304.707774 -72.3077 
L 303.294758 -72.809353 
L 301.881742 -72.809353 
L 300.468726 -72.809353 
L 299.05571 -72.809353 
L 297.642694 -72.809353 
L 296.229678 -72.809353 
L 294.816662 -88.145167 
L 293.403646 -88.145167 
L 291.990631 -88.145167 
L 290.577615 -88.145167 
L 289.164599 -88.145167 
L 287.751583 -90.188872 
L 286.338567 -90.188872 
L 284.925551 -90.188872 
L 283.512535 -90.188872 
L 282.099519 -90.188872 
L 280.686503 -90.188872 
L 279.273487 -90.188872 
L 277.860471 -90.188872 
L 276.447455 -90.188872 
L 275.034439 -90.188872 
L 273.621423 -90.188872 
L 272.208407 -90.188872 
L 270.795391 -90.188872 
L 269.382375 -90.188872 
L 267.969359 -90.188872 
L 266.556343 -90.188872 
L 265.143327 -90.188872 
L 263.730311 -90.188872 
L 262.317296 -90.188872 
L 260.90428 -90.188872 
L 259.491264 -90.188872 
L 258.078248 -90.188872 
L 256.665232 -90.188872 
L 255.252216 -90.188872 
L 253.8392 -90.188872 
L 252.426184 -90.188872 
L 251.013168 -90.188872 
L 249.600152 -90.188872 
L 248.187136 -90.188872 
L 246.77412 -90.188872 
L 245.361104 -90.188872 
L 243.948088 -90.188872 
L 242.535072 -90.188872 
L 241.122056 -90.188872 
L 239.70904 -90.188872 
L 238.296024 -90.188872 
L 236.883008 -90.188872 
L 235.469992 -90.188872 
L 234.056976 -90.188872 
L 232.64396 -90.188872 
L 231.230945 -90.188872 
L 229.817929 -90.188872 
L 228.404913 -90.188872 
L 226.991897 -90.188872 
L 225.578881 -90.188872 
L 224.165865 -90.188872 
L 222.752849 -90.188872 
L 221.339833 -90.188872 
L 219.926817 -90.188872 
L 218.513801 -90.188872 
L 217.100785 -90.188872 
L 215.687769 -90.188872 
L 214.274753 -90.188872 
L 212.861737 -90.188872 
L 211.448721 -90.188872 
L 210.035705 -90.188872 
L 208.622689 -90.188872 
L 207.209673 -90.188872 
L 205.796657 -90.188872 
L 204.383641 -90.188872 
L 202.970625 -90.188872 
L 201.55761 -90.188872 
L 200.144594 -90.188872 
L 198.731578 -90.188872 
L 197.318562 -90.188872 
L 195.905546 -90.188872 
L 194.49253 -90.188872 
L 193.079514 -90.188872 
L 191.666498 -90.188872 
L 190.253482 -90.188872 
L 188.840466 -90.188872 
L 187.42745 -81.996302 
L 186.014434 -81.996302 
L 184.601418 -81.996302 
L 183.188402 -81.996302 
L 181.775386 -81.996302 
L 180.36237 -51.446228 
L 178.949354 -51.446228 
L 177.536338 -51.446228 
L 176.123322 -51.446228 
L 174.710306 -51.446228 
L 173.29729 -51.446228 
L 171.884274 -51.446228 
L 170.471259 -51.446228 
L 169.058243 -51.446228 
L 167.645227 -51.446228 
L 166.232211 -51.446228 
L 164.819195 -51.446228 
L 163.406179 -51.446228 
L 161.993163 -51.446228 
L 160.580147 -51.446228 
L 159.167131 -51.446228 
L 157.754115 -51.446228 
L 156.341099 -51.446228 
L 154.928083 -51.446228 
L 153.515067 -51.446228 
L 152.102051 -51.446228 
L 150.689035 -51.446228 
L 149.276019 -51.446228 
L 147.863003 -51.446228 
L 146.449987 -51.446228 
L 145.036971 -51.446228 
L 143.623955 -51.446228 
L 142.210939 -51.446228 
L 140.797924 -51.446228 
L 139.384908 -51.446228 
L 137.971892 -51.446228 
L 136.558876 -51.446228 
L 135.14586 -51.446228 
L 133.732844 -51.446228 
L 132.319828 -51.446228 
L 130.906812 -51.446228 
L 129.493796 -51.446228 
L 128.08078 -51.446228 
L 126.667764 -51.446228 
L 125.254748 -51.446228 
L 123.841732 -51.446228 
L 122.428716 -51.446228 
L 121.0157 -51.446228 
L 119.602684 -51.446228 
L 118.189668 -51.446228 
L 116.776652 -51.446228 
L 115.363636 -51.446228 
z
" style="stroke: #482475; stroke-opacity: 0.2"/>
    </defs>
    <g clip-path="url(#pc33a5d639c)">
     <use xlink:href="#m56651a3a73" x="0" y="360" style="fill: #482475; fill-opacity: 0.2; stroke: #482475; stroke-opacity: 0.2"/>
    </g>
   </g>
   <g id="PolyCollection_2">
    <defs>
     <path id="m834107d431" d="M 115.363636 -65.494202 
L 115.363636 -80.278202 
L 116.776652 -80.278202 
L 118.189668 -80.278202 
L 119.602684 -80.278202 
L 121.0157 -80.278202 
L 122.428716 -80.278202 
L 123.841732 -80.278202 
L 125.254748 -80.278202 
L 126.667764 -80.278202 
L 128.08078 -80.278202 
L 129.493796 -80.278202 
L 130.906812 -80.278202 
L 132.319828 -80.278202 
L 133.732844 -80.278202 
L 135.14586 -80.278202 
L 136.558876 -80.278202 
L 137.971892 -80.278202 
L 139.384908 -80.278202 
L 140.797924 -80.278202 
L 142.210939 -80.278202 
L 143.623955 -80.278202 
L 145.036971 -80.278202 
L 146.449987 -80.278202 
L 147.863003 -80.278202 
L 149.276019 -80.278202 
L 150.689035 -80.278202 
L 152.102051 -80.278202 
L 153.515067 -80.278202 
L 154.928083 -80.278202 
L 156.341099 -80.278202 
L 157.754115 -80.278202 
L 159.167131 -80.278202 
L 160.580147 -80.278202 
L 161.993163 -80.278202 
L 163.406179 -80.278202 
L 164.819195 -80.278202 
L 166.232211 -80.278202 
L 167.645227 -80.278202 
L 169.058243 -80.278202 
L 170.471259 -80.278202 
L 171.884274 -80.278202 
L 173.29729 -80.278202 
L 174.710306 -80.278202 
L 176.123322 -80.278202 
L 177.536338 -80.278202 
L 178.949354 -80.278202 
L 180.36237 -80.278202 
L 181.775386 -159.318543 
L 183.188402 -159.318543 
L 184.601418 -159.318543 
L 186.014434 -159.318543 
L 187.42745 -159.318543 
L 188.840466 -170.94206 
L 190.253482 -170.94206 
L 191.666498 -170.94206 
L 193.079514 -170.94206 
L 194.49253 -170.94206 
L 195.905546 -170.94206 
L 197.318562 -170.94206 
L 198.731578 -170.94206 
L 200.144594 -170.94206 
L 201.55761 -170.94206 
L 202.970625 -170.94206 
L 204.383641 -170.94206 
L 205.796657 -170.94206 
L 207.209673 -170.94206 
L 208.622689 -170.94206 
L 210.035705 -170.94206 
L 211.448721 -170.94206 
L 212.861737 -170.94206 
L 214.274753 -170.94206 
L 215.687769 -170.94206 
L 217.100785 -170.94206 
L 218.513801 -170.94206 
L 219.926817 -170.94206 
L 221.339833 -170.94206 
L 222.752849 -170.94206 
L 224.165865 -170.94206 
L 225.578881 -170.94206 
L 226.991897 -170.94206 
L 228.404913 -170.94206 
L 229.817929 -170.94206 
L 231.230945 -170.94206 
L 232.64396 -170.94206 
L 234.056976 -170.94206 
L 235.469992 -170.94206 
L 236.883008 -170.94206 
L 238.296024 -170.94206 
L 239.70904 -170.94206 
L 241.122056 -170.94206 
L 242.535072 -170.94206 
L 243.948088 -170.94206 
L 245.361104 -170.94206 
L 246.77412 -170.94206 
L 248.187136 -170.94206 
L 249.600152 -170.94206 
L 251.013168 -170.94206 
L 252.426184 -170.94206 
L 253.8392 -170.94206 
L 255.252216 -170.94206 
L 256.665232 -170.94206 
L 258.078248 -170.94206 
L 259.491264 -170.94206 
L 260.90428 -170.94206 
L 262.317296 -170.94206 
L 263.730311 -170.94206 
L 265.143327 -170.94206 
L 266.556343 -170.94206 
L 267.969359 -170.94206 
L 269.382375 -170.94206 
L 270.795391 -170.94206 
L 272.208407 -170.94206 
L 273.621423 -170.94206 
L 275.034439 -170.94206 
L 276.447455 -170.94206 
L 277.860471 -170.94206 
L 279.273487 -170.94206 
L 280.686503 -170.94206 
L 282.099519 -170.94206 
L 283.512535 -170.94206 
L 284.925551 -170.94206 
L 286.338567 -170.94206 
L 287.751583 -170.94206 
L 289.164599 -172.033091 
L 290.577615 -172.033091 
L 291.990631 -172.033091 
L 293.403646 -172.033091 
L 294.816662 -172.033091 
L 296.229678 -112.351577 
L 297.642694 -112.351577 
L 299.05571 -112.351577 
L 300.468726 -112.351577 
L 301.881742 -112.351577 
L 303.294758 -112.351577 
L 304.707774 -123.944879 
L 306.12079 -123.944879 
L 307.533806 -123.944879 
L 308.946822 -123.944879 
L 310.359838 -123.944879 
L 311.772854 -126.192528 
L 313.18587 -126.192528 
L 314.598886 -126.192528 
L 316.011902 -126.192528 
L 317.424918 -126.192528 
L 318.837934 -126.192528 
L 320.25095 -126.192528 
L 321.663966 -126.192528 
L 323.076982 -126.192528 
L 324.489997 -126.192528 
L 325.903013 -126.192528 
L 327.316029 -126.192528 
L 328.729045 -126.192528 
L 330.142061 -126.192528 
L 331.555077 -126.192528 
L 332.968093 -126.192528 
L 334.381109 -126.192528 
L 335.794125 -126.192528 
L 337.207141 -126.192528 
L 338.620157 -126.192528 
L 340.033173 -126.192528 
L 341.446189 -126.192528 
L 342.859205 -126.192528 
L 344.272221 -126.192528 
L 345.685237 -126.192528 
L 347.098253 -126.192528 
L 348.511269 -126.192528 
L 349.924285 -126.192528 
L 351.337301 -126.192528 
L 352.750317 -126.192528 
L 354.163332 -126.192528 
L 355.576348 -126.192528 
L 356.989364 -126.192528 
L 358.40238 -128.128141 
L 359.815396 -128.128141 
L 361.228412 -128.128141 
L 362.641428 -128.128141 
L 364.054444 -128.128141 
L 365.46746 -126.192528 
L 366.880476 -126.192528 
L 368.293492 -126.192528 
L 369.706508 -126.192528 
L 371.119524 -126.192528 
L 372.53254 -126.192528 
L 373.945556 -126.192528 
L 375.358572 -126.192528 
L 376.771588 -126.192528 
L 378.184604 -126.192528 
L 379.59762 -126.192528 
L 381.010636 -126.192528 
L 382.423652 -126.192528 
L 383.836668 -126.192528 
L 385.249683 -126.192528 
L 386.662699 -126.192528 
L 388.075715 -126.192528 
L 389.488731 -126.192528 
L 390.901747 -126.192528 
L 392.314763 -126.192528 
L 393.727779 -126.192528 
L 395.140795 -126.192528 
L 396.553811 -126.192528 
L 397.966827 -126.192528 
L 399.379843 -126.192528 
L 400.792859 -126.192528 
L 402.205875 -126.192528 
L 403.618891 -193.369998 
L 405.031907 -193.369998 
L 406.444923 -193.369998 
L 407.857939 -193.369998 
L 409.270955 -193.369998 
L 410.683971 -193.369998 
L 412.096987 -209.320842 
L 413.510003 -209.320842 
L 414.923018 -209.320842 
L 416.336034 -209.320842 
L 417.74905 -209.320842 
L 419.162066 -211.820501 
L 420.575082 -211.820501 
L 421.988098 -211.820501 
L 423.401114 -211.820501 
L 424.81413 -211.820501 
L 426.227146 -211.820501 
L 427.640162 -211.820501 
L 429.053178 -211.820501 
L 430.466194 -211.820501 
L 431.87921 -211.820501 
L 433.292226 -211.820501 
L 434.705242 -211.820501 
L 436.118258 -211.820501 
L 437.531274 -211.820501 
L 438.94429 -211.820501 
L 440.357306 -211.820501 
L 441.770322 -211.820501 
L 443.183338 -211.820501 
L 444.596354 -211.820501 
L 446.009369 -211.820501 
L 447.422385 -211.820501 
L 448.835401 -211.820501 
L 450.248417 -211.820501 
L 451.661433 -211.820501 
L 453.074449 -211.820501 
L 454.487465 -211.820501 
L 455.900481 -211.820501 
L 457.313497 -211.820501 
L 458.726513 -211.820501 
L 460.139529 -211.820501 
L 461.552545 -211.820501 
L 462.965561 -211.820501 
L 464.378577 -211.820501 
L 465.791593 -211.820501 
L 467.204609 -211.820501 
L 468.617625 -211.820501 
L 470.030641 -211.820501 
L 471.443657 -211.820501 
L 472.856673 -211.820501 
L 474.269689 -211.820501 
L 475.682704 -211.820501 
L 477.09572 -211.820501 
L 478.508736 -211.820501 
L 479.921752 -211.820501 
L 481.334768 -211.820501 
L 482.747784 -211.820501 
L 484.1608 -211.820501 
L 485.573816 -211.820501 
L 486.986832 -211.820501 
L 488.399848 -211.820501 
L 489.812864 -211.820501 
L 491.22588 -211.820501 
L 492.638896 -211.820501 
L 494.051912 -211.820501 
L 495.464928 -211.820501 
L 496.877944 -211.820501 
L 498.29096 -211.820501 
L 499.703976 -211.820501 
L 501.116992 -211.820501 
L 502.530008 -211.820501 
L 503.943024 -211.820501 
L 505.35604 -211.820501 
L 506.769055 -211.820501 
L 508.182071 -211.820501 
L 509.595087 -211.820501 
L 511.008103 -211.820501 
L 512.421119 -172.032827 
L 513.834135 -172.032827 
L 515.247151 -172.032827 
L 516.660167 -172.032827 
L 518.073183 -172.032827 
L 519.486199 -185.390261 
L 520.899215 -185.390261 
L 522.312231 -185.390261 
L 523.725247 -185.390261 
L 525.138263 -185.390261 
L 526.551279 -185.390261 
L 527.964295 -191.507087 
L 529.377311 -191.507087 
L 530.790327 -191.507087 
L 532.203343 -191.507087 
L 533.616359 -191.507087 
L 535.029375 -191.507087 
L 536.44239 -191.507087 
L 537.855406 -191.507087 
L 539.268422 -191.507087 
L 540.681438 -191.507087 
L 542.094454 -191.507087 
L 543.50747 -191.507087 
L 544.920486 -191.507087 
L 546.333502 -191.507087 
L 547.746518 -191.507087 
L 549.159534 -191.507087 
L 550.57255 -191.507087 
L 551.985566 -191.507087 
L 553.398582 -191.507087 
L 554.811598 -191.507087 
L 556.224614 -191.507087 
L 557.63763 -191.507087 
L 559.050646 -191.507087 
L 560.463662 -191.507087 
L 561.876678 -191.507087 
L 563.289694 -191.507087 
L 564.70271 -191.507087 
L 566.115726 -191.507087 
L 567.528741 -191.507087 
L 568.941757 -191.507087 
L 570.354773 -191.507087 
L 571.767789 -191.507087 
L 573.180805 -191.507087 
L 574.593821 -191.507087 
L 576.006837 -191.507087 
L 577.419853 -191.507087 
L 578.832869 -191.507087 
L 580.245885 -191.507087 
L 581.658901 -191.507087 
L 583.071917 -191.507087 
L 584.484933 -191.507087 
L 585.897949 -191.507087 
L 587.310965 -191.507087 
L 588.723981 -191.507087 
L 590.136997 -191.507087 
L 591.550013 -191.507087 
L 592.963029 -191.507087 
L 594.376045 -191.507087 
L 595.789061 -193.004832 
L 597.202076 -193.004832 
L 598.615092 -193.004832 
L 600.028108 -193.004832 
L 601.441124 -193.004832 
L 602.85414 -193.004832 
L 604.267156 -191.507087 
L 605.680172 -191.507087 
L 607.093188 -191.507087 
L 608.506204 -191.507087 
L 609.91922 -191.507087 
L 611.332236 -191.507087 
L 612.745252 -191.507087 
L 614.158268 -191.507087 
L 615.571284 -191.507087 
L 616.9843 -191.507087 
L 618.397316 -191.507087 
L 619.810332 -191.507087 
L 621.223348 -191.507087 
L 622.636364 -191.507087 
L 622.636364 -163.171633 
L 622.636364 -163.171633 
L 621.223348 -163.171633 
L 619.810332 -163.171633 
L 618.397316 -163.171633 
L 616.9843 -163.171633 
L 615.571284 -163.171633 
L 614.158268 -163.171633 
L 612.745252 -163.171633 
L 611.332236 -163.171633 
L 609.91922 -163.171633 
L 608.506204 -163.171633 
L 607.093188 -163.171633 
L 605.680172 -163.171633 
L 604.267156 -163.171633 
L 602.85414 -163.969632 
L 601.441124 -163.969632 
L 600.028108 -163.969632 
L 598.615092 -163.969632 
L 597.202076 -163.969632 
L 595.789061 -163.969632 
L 594.376045 -163.171633 
L 592.963029 -163.171633 
L 591.550013 -163.171633 
L 590.136997 -163.171633 
L 588.723981 -163.171633 
L 587.310965 -163.171633 
L 585.897949 -163.171633 
L 584.484933 -163.171633 
L 583.071917 -163.171633 
L 581.658901 -163.171633 
L 580.245885 -163.171633 
L 578.832869 -163.171633 
L 577.419853 -163.171633 
L 576.006837 -163.171633 
L 574.593821 -163.171633 
L 573.180805 -163.171633 
L 571.767789 -163.171633 
L 570.354773 -163.171633 
L 568.941757 -163.171633 
L 567.528741 -163.171633 
L 566.115726 -163.171633 
L 564.70271 -163.171633 
L 563.289694 -163.171633 
L 561.876678 -163.171633 
L 560.463662 -163.171633 
L 559.050646 -163.171633 
L 557.63763 -163.171633 
L 556.224614 -163.171633 
L 554.811598 -163.171633 
L 553.398582 -163.171633 
L 551.985566 -163.171633 
L 550.57255 -163.171633 
L 549.159534 -163.171633 
L 547.746518 -163.171633 
L 546.333502 -163.171633 
L 544.920486 -163.171633 
L 543.50747 -163.171633 
L 542.094454 -163.171633 
L 540.681438 -163.171633 
L 539.268422 -163.171633 
L 537.855406 -163.171633 
L 536.44239 -163.171633 
L 535.029375 -163.171633 
L 533.616359 -163.171633 
L 532.203343 -163.171633 
L 530.790327 -163.171633 
L 529.377311 -163.171633 
L 527.964295 -163.171633 
L 526.551279 -164.696971 
L 525.138263 -164.696971 
L 523.725247 -164.696971 
L 522.312231 -164.696971 
L 520.899215 -164.696971 
L 519.486199 -164.696971 
L 518.073183 -143.618773 
L 516.660167 -143.618773 
L 515.247151 -143.618773 
L 513.834135 -143.618773 
L 512.421119 -143.618773 
L 511.008103 -174.996523 
L 509.595087 -174.996523 
L 508.182071 -174.996523 
L 506.769055 -174.996523 
L 505.35604 -174.996523 
L 503.943024 -174.996523 
L 502.530008 -174.996523 
L 501.116992 -174.996523 
L 499.703976 -174.996523 
L 498.29096 -174.996523 
L 496.877944 -174.996523 
L 495.464928 -174.996523 
L 494.051912 -174.996523 
L 492.638896 -174.996523 
L 491.22588 -174.996523 
L 489.812864 -174.996523 
L 488.399848 -174.996523 
L 486.986832 -174.996523 
L 485.573816 -174.996523 
L 484.1608 -174.996523 
L 482.747784 -174.996523 
L 481.334768 -174.996523 
L 479.921752 -174.996523 
L 478.508736 -174.996523 
L 477.09572 -174.996523 
L 475.682704 -174.996523 
L 474.269689 -174.996523 
L 472.856673 -174.996523 
L 471.443657 -174.996523 
L 470.030641 -174.996523 
L 468.617625 -174.996523 
L 467.204609 -174.996523 
L 465.791593 -174.996523 
L 464.378577 -174.996523 
L 462.965561 -174.996523 
L 461.552545 -174.996523 
L 460.139529 -174.996523 
L 458.726513 -174.996523 
L 457.313497 -174.996523 
L 455.900481 -174.996523 
L 454.487465 -174.996523 
L 453.074449 -174.996523 
L 451.661433 -174.996523 
L 450.248417 -174.996523 
L 448.835401 -174.996523 
L 447.422385 -174.996523 
L 446.009369 -174.996523 
L 444.596354 -174.996523 
L 443.183338 -174.996523 
L 441.770322 -174.996523 
L 440.357306 -174.996523 
L 438.94429 -174.996523 
L 437.531274 -174.996523 
L 436.118258 -174.996523 
L 434.705242 -174.996523 
L 433.292226 -174.996523 
L 431.87921 -174.996523 
L 430.466194 -174.996523 
L 429.053178 -174.996523 
L 427.640162 -174.996523 
L 426.227146 -174.996523 
L 424.81413 -174.996523 
L 423.401114 -174.996523 
L 421.988098 -174.996523 
L 420.575082 -174.996523 
L 419.162066 -174.996523 
L 417.74905 -175.200438 
L 416.336034 -175.200438 
L 414.923018 -175.200438 
L 413.510003 -175.200438 
L 412.096987 -175.200438 
L 410.683971 -149.830002 
L 409.270955 -149.830002 
L 407.857939 -149.830002 
L 406.444923 -149.830002 
L 405.031907 -149.830002 
L 403.618891 -149.830002 
L 402.205875 -111.408528 
L 400.792859 -111.408528 
L 399.379843 -111.408528 
L 397.966827 -111.408528 
L 396.553811 -111.408528 
L 395.140795 -111.408528 
L 393.727779 -111.408528 
L 392.314763 -111.408528 
L 390.901747 -111.408528 
L 389.488731 -111.408528 
L 388.075715 -111.408528 
L 386.662699 -111.408528 
L 385.249683 -111.408528 
L 383.836668 -111.408528 
L 382.423652 -111.408528 
L 381.010636 -111.408528 
L 379.59762 -111.408528 
L 378.184604 -111.408528 
L 376.771588 -111.408528 
L 375.358572 -111.408528 
L 373.945556 -111.408528 
L 372.53254 -111.408528 
L 371.119524 -111.408528 
L 369.706508 -111.408528 
L 368.293492 -111.408528 
L 366.880476 -111.408528 
L 365.46746 -111.408528 
L 364.054444 -111.768659 
L 362.641428 -111.768659 
L 361.228412 -111.768659 
L 359.815396 -111.768659 
L 358.40238 -111.768659 
L 356.989364 -111.408528 
L 355.576348 -111.408528 
L 354.163332 -111.408528 
L 352.750317 -111.408528 
L 351.337301 -111.408528 
L 349.924285 -111.408528 
L 348.511269 -111.408528 
L 347.098253 -111.408528 
L 345.685237 -111.408528 
L 344.272221 -111.408528 
L 342.859205 -111.408528 
L 341.446189 -111.408528 
L 340.033173 -111.408528 
L 338.620157 -111.408528 
L 337.207141 -111.408528 
L 335.794125 -111.408528 
L 334.381109 -111.408528 
L 332.968093 -111.408528 
L 331.555077 -111.408528 
L 330.142061 -111.408528 
L 328.729045 -111.408528 
L 327.316029 -111.408528 
L 325.903013 -111.408528 
L 324.489997 -111.408528 
L 323.076982 -111.408528 
L 321.663966 -111.408528 
L 320.25095 -111.408528 
L 318.837934 -111.408528 
L 317.424918 -111.408528 
L 316.011902 -111.408528 
L 314.598886 -111.408528 
L 313.18587 -111.408528 
L 311.772854 -111.408528 
L 310.359838 -104.473201 
L 308.946822 -104.473201 
L 307.533806 -104.473201 
L 306.12079 -104.473201 
L 304.707774 -104.473201 
L 303.294758 -90.813319 
L 301.881742 -90.813319 
L 300.468726 -90.813319 
L 299.05571 -90.813319 
L 297.642694 -90.813319 
L 296.229678 -90.813319 
L 294.816662 -143.619037 
L 293.403646 -143.619037 
L 291.990631 -143.619037 
L 290.577615 -143.619037 
L 289.164599 -143.619037 
L 287.751583 -149.3005 
L 286.338567 -149.3005 
L 284.925551 -149.3005 
L 283.512535 -149.3005 
L 282.099519 -149.3005 
L 280.686503 -149.3005 
L 279.273487 -149.3005 
L 277.860471 -149.3005 
L 276.447455 -149.3005 
L 275.034439 -149.3005 
L 273.621423 -149.3005 
L 272.208407 -149.3005 
L 270.795391 -149.3005 
L 269.382375 -149.3005 
L 267.969359 -149.3005 
L 266.556343 -149.3005 
L 265.143327 -149.3005 
L 263.730311 -149.3005 
L 262.317296 -149.3005 
L 260.90428 -149.3005 
L 259.491264 -149.3005 
L 258.078248 -149.3005 
L 256.665232 -149.3005 
L 255.252216 -149.3005 
L 253.8392 -149.3005 
L 252.426184 -149.3005 
L 251.013168 -149.3005 
L 249.600152 -149.3005 
L 248.187136 -149.3005 
L 246.77412 -149.3005 
L 245.361104 -149.3005 
L 243.948088 -149.3005 
L 242.535072 -149.3005 
L 241.122056 -149.3005 
L 239.70904 -149.3005 
L 238.296024 -149.3005 
L 236.883008 -149.3005 
L 235.469992 -149.3005 
L 234.056976 -149.3005 
L 232.64396 -149.3005 
L 231.230945 -149.3005 
L 229.817929 -149.3005 
L 228.404913 -149.3005 
L 226.991897 -149.3005 
L 225.578881 -149.3005 
L 224.165865 -149.3005 
L 222.752849 -149.3005 
L 221.339833 -149.3005 
L 219.926817 -149.3005 
L 218.513801 -149.3005 
L 217.100785 -149.3005 
L 215.687769 -149.3005 
L 214.274753 -149.3005 
L 212.861737 -149.3005 
L 211.448721 -149.3005 
L 210.035705 -149.3005 
L 208.622689 -149.3005 
L 207.209673 -149.3005 
L 205.796657 -149.3005 
L 204.383641 -149.3005 
L 202.970625 -149.3005 
L 201.55761 -149.3005 
L 200.144594 -149.3005 
L 198.731578 -149.3005 
L 197.318562 -149.3005 
L 195.905546 -149.3005 
L 194.49253 -149.3005 
L 193.079514 -149.3005 
L 191.666498 -149.3005 
L 190.253482 -149.3005 
L 188.840466 -149.3005 
L 187.42745 -128.785713 
L 186.014434 -128.785713 
L 184.601418 -128.785713 
L 183.188402 -128.785713 
L 181.775386 -128.785713 
L 180.36237 -65.494202 
L 178.949354 -65.494202 
L 177.536338 -65.494202 
L 176.123322 -65.494202 
L 174.710306 -65.494202 
L 173.29729 -65.494202 
L 171.884274 -65.494202 
L 170.471259 -65.494202 
L 169.058243 -65.494202 
L 167.645227 -65.494202 
L 166.232211 -65.494202 
L 164.819195 -65.494202 
L 163.406179 -65.494202 
L 161.993163 -65.494202 
L 160.580147 -65.494202 
L 159.167131 -65.494202 
L 157.754115 -65.494202 
L 156.341099 -65.494202 
L 154.928083 -65.494202 
L 153.515067 -65.494202 
L 152.102051 -65.494202 
L 150.689035 -65.494202 
L 149.276019 -65.494202 
L 147.863003 -65.494202 
L 146.449987 -65.494202 
L 145.036971 -65.494202 
L 143.623955 -65.494202 
L 142.210939 -65.494202 
L 140.797924 -65.494202 
L 139.384908 -65.494202 
L 137.971892 -65.494202 
L 136.558876 -65.494202 
L 135.14586 -65.494202 
L 133.732844 -65.494202 
L 132.319828 -65.494202 
L 130.906812 -65.494202 
L 129.493796 -65.494202 
L 128.08078 -65.494202 
L 126.667764 -65.494202 
L 125.254748 -65.494202 
L 123.841732 -65.494202 
L 122.428716 -65.494202 
L 121.0157 -65.494202 
L 119.602684 -65.494202 
L 118.189668 -65.494202 
L 116.776652 -65.494202 
L 115.363636 -65.494202 
z
" style="stroke: #bddf26; stroke-opacity: 0.2"/>
    </defs>
    <g clip-path="url(#pc33a5d639c)">
     <use xlink:href="#m834107d431" x="0" y="360" style="fill: #bddf26; fill-opacity: 0.2; stroke: #bddf26; stroke-opacity: 0.2"/>
    </g>
   </g>
   <g id="matplotlib.axis_1">
    <g id="xtick_1">
     <g id="line2d_1">
      <defs>
       <path id="mba2ff293b5" d="M 0 0 
L 0 3.5 
" style="stroke: #000000; stroke-width: 0.8"/>
      </defs>
      <g>
       <use xlink:href="#mba2ff293b5" x="146.107438" y="320.4" style="stroke: #000000; stroke-width: 0.8"/>
      </g>
     </g>
     <g id="text_1">
      <!-- $\mathdefault{100}$ -->
      <g transform="translate(135.498905 337.431808) scale(0.145 -0.145)">
       <defs>
        <path id="CMR17-31" d="M 1702 4058 
C 1702 4192 1696 4192 1606 4192 
C 1357 3916 979 3827 621 3827 
C 602 3827 570 3827 563 3808 
C 557 3795 557 3782 557 3648 
C 755 3648 1088 3686 1344 3839 
L 1344 461 
C 1344 236 1331 160 781 160 
L 589 160 
L 589 0 
C 896 0 1216 0 1523 0 
C 1830 0 2150 0 2458 0 
L 2458 160 
L 2266 160 
C 1715 160 1702 230 1702 458 
L 1702 4058 
z
" transform="scale(0.015625)"/>
        <path id="CMR17-30" d="M 2688 2025 
C 2688 2416 2682 3080 2413 3591 
C 2176 4039 1798 4198 1466 4198 
C 1158 4198 768 4058 525 3597 
C 269 3118 243 2524 243 2025 
C 243 1661 250 1106 448 619 
C 723 -39 1216 -128 1466 -128 
C 1760 -128 2208 -7 2470 600 
C 2662 1042 2688 1559 2688 2025 
z
M 1466 -26 
C 1056 -26 813 325 723 812 
C 653 1188 653 1738 653 2096 
C 653 2588 653 2997 736 3387 
C 858 3929 1216 4096 1466 4096 
C 1728 4096 2067 3923 2189 3400 
C 2272 3036 2278 2607 2278 2096 
C 2278 1680 2278 1169 2202 792 
C 2067 95 1690 -26 1466 -26 
z
" transform="scale(0.015625)"/>
       </defs>
       <use xlink:href="#CMR17-31" transform="scale(0.996264)"/>
       <use xlink:href="#CMR17-30" transform="translate(45.690477 0) scale(0.996264)"/>
       <use xlink:href="#CMR17-30" transform="translate(91.380954 0) scale(0.996264)"/>
      </g>
     </g>
    </g>
    <g id="xtick_2">
     <g id="line2d_2">
      <g>
       <use xlink:href="#mba2ff293b5" x="222.966942" y="320.4" style="stroke: #000000; stroke-width: 0.8"/>
      </g>
     </g>
     <g id="text_2">
      <!-- $\mathdefault{200}$ -->
      <g transform="translate(212.358409 337.431808) scale(0.145 -0.145)">
       <defs>
        <path id="CMR17-32" d="M 2669 989 
L 2554 989 
C 2490 536 2438 459 2413 420 
C 2381 369 1920 369 1830 369 
L 602 369 
C 832 619 1280 1072 1824 1597 
C 2214 1967 2669 2402 2669 3035 
C 2669 3790 2067 4224 1395 4224 
C 691 4224 262 3604 262 3030 
C 262 2780 448 2748 525 2748 
C 589 2748 781 2787 781 3010 
C 781 3207 614 3264 525 3264 
C 486 3264 448 3258 422 3245 
C 544 3790 915 4058 1306 4058 
C 1862 4058 2227 3617 2227 3035 
C 2227 2479 1901 2000 1536 1584 
L 262 146 
L 262 0 
L 2515 0 
L 2669 989 
z
" transform="scale(0.015625)"/>
       </defs>
       <use xlink:href="#CMR17-32" transform="scale(0.996264)"/>
       <use xlink:href="#CMR17-30" transform="translate(45.690477 0) scale(0.996264)"/>
       <use xlink:href="#CMR17-30" transform="translate(91.380954 0) scale(0.996264)"/>
      </g>
     </g>
    </g>
    <g id="xtick_3">
     <g id="line2d_3">
      <g>
       <use xlink:href="#mba2ff293b5" x="299.826446" y="320.4" style="stroke: #000000; stroke-width: 0.8"/>
      </g>
     </g>
     <g id="text_3">
      <!-- $\mathdefault{300}$ -->
      <g transform="translate(289.217913 337.431808) scale(0.145 -0.145)">
       <defs>
        <path id="CMR17-33" d="M 1414 2157 
C 1984 2157 2234 1662 2234 1090 
C 2234 320 1824 25 1453 25 
C 1114 25 563 194 390 693 
C 422 680 454 680 486 680 
C 640 680 755 782 755 948 
C 755 1133 614 1216 486 1216 
C 378 1216 211 1165 211 926 
C 211 335 787 -128 1466 -128 
C 2176 -128 2720 430 2720 1085 
C 2720 1707 2208 2157 1600 2227 
C 2086 2328 2554 2756 2554 3329 
C 2554 3820 2048 4179 1472 4179 
C 890 4179 378 3829 378 3329 
C 378 3110 544 3072 627 3072 
C 762 3072 877 3155 877 3321 
C 877 3486 762 3569 627 3569 
C 602 3569 570 3569 544 3557 
C 730 3959 1235 4032 1459 4032 
C 1683 4032 2106 3925 2106 3320 
C 2106 3143 2080 2828 1862 2550 
C 1670 2304 1453 2304 1242 2284 
C 1210 2284 1062 2269 1037 2269 
C 992 2263 966 2257 966 2208 
C 966 2163 973 2157 1101 2157 
L 1414 2157 
z
" transform="scale(0.015625)"/>
       </defs>
       <use xlink:href="#CMR17-33" transform="scale(0.996264)"/>
       <use xlink:href="#CMR17-30" transform="translate(45.690477 0) scale(0.996264)"/>
       <use xlink:href="#CMR17-30" transform="translate(91.380954 0) scale(0.996264)"/>
      </g>
     </g>
    </g>
    <g id="xtick_4">
     <g id="line2d_4">
      <g>
       <use xlink:href="#mba2ff293b5" x="376.68595" y="320.4" style="stroke: #000000; stroke-width: 0.8"/>
      </g>
     </g>
     <g id="text_4">
      <!-- $\mathdefault{400}$ -->
      <g transform="translate(366.077417 337.431808) scale(0.145 -0.145)">
       <defs>
        <path id="CMR17-34" d="M 2150 4122 
C 2150 4256 2144 4256 2029 4256 
L 128 1254 
L 128 1088 
L 1779 1088 
L 1779 457 
C 1779 224 1766 160 1318 160 
L 1197 160 
L 1197 0 
C 1402 0 1747 0 1965 0 
C 2182 0 2528 0 2733 0 
L 2733 160 
L 2611 160 
C 2163 160 2150 224 2150 457 
L 2150 1088 
L 2803 1088 
L 2803 1254 
L 2150 1254 
L 2150 4122 
z
M 1798 3703 
L 1798 1254 
L 256 1254 
L 1798 3703 
z
" transform="scale(0.015625)"/>
       </defs>
       <use xlink:href="#CMR17-34" transform="scale(0.996264)"/>
       <use xlink:href="#CMR17-30" transform="translate(45.690477 0) scale(0.996264)"/>
       <use xlink:href="#CMR17-30" transform="translate(91.380954 0) scale(0.996264)"/>
      </g>
     </g>
    </g>
    <g id="xtick_5">
     <g id="line2d_5">
      <g>
       <use xlink:href="#mba2ff293b5" x="453.545455" y="320.4" style="stroke: #000000; stroke-width: 0.8"/>
      </g>
     </g>
     <g id="text_5">
      <!-- $\mathdefault{500}$ -->
      <g transform="translate(442.936921 337.431808) scale(0.145 -0.145)">
       <defs>
        <path id="CMR17-35" d="M 730 3692 
C 794 3666 1056 3584 1325 3584 
C 1920 3584 2246 3911 2432 4100 
C 2432 4157 2432 4192 2394 4192 
C 2387 4192 2374 4192 2323 4163 
C 2099 4058 1837 3973 1517 3973 
C 1325 3973 1037 3999 723 4139 
C 653 4171 640 4171 634 4171 
C 602 4171 595 4164 595 4037 
L 595 2203 
C 595 2089 595 2057 659 2057 
C 691 2057 704 2070 736 2114 
C 941 2401 1222 2522 1542 2522 
C 1766 2522 2246 2382 2246 1289 
C 2246 1085 2246 715 2054 421 
C 1894 159 1645 25 1370 25 
C 947 25 518 320 403 814 
C 429 807 480 795 506 795 
C 589 795 749 840 749 1038 
C 749 1210 627 1280 506 1280 
C 358 1280 262 1190 262 1011 
C 262 454 704 -128 1382 -128 
C 2042 -128 2669 440 2669 1264 
C 2669 2030 2170 2624 1549 2624 
C 1222 2624 947 2503 730 2274 
L 730 3692 
z
" transform="scale(0.015625)"/>
       </defs>
       <use xlink:href="#CMR17-35" transform="scale(0.996264)"/>
       <use xlink:href="#CMR17-30" transform="translate(45.690477 0) scale(0.996264)"/>
       <use xlink:href="#CMR17-30" transform="translate(91.380954 0) scale(0.996264)"/>
      </g>
     </g>
    </g>
    <g id="xtick_6">
     <g id="line2d_6">
      <g>
       <use xlink:href="#mba2ff293b5" x="530.404959" y="320.4" style="stroke: #000000; stroke-width: 0.8"/>
      </g>
     </g>
     <g id="text_6">
      <!-- $\mathdefault{600}$ -->
      <g transform="translate(519.796425 337.431808) scale(0.145 -0.145)">
       <defs>
        <path id="CMR17-36" d="M 678 2176 
C 678 3690 1395 4032 1811 4032 
C 1946 4032 2272 4009 2400 3776 
C 2298 3776 2106 3776 2106 3553 
C 2106 3381 2246 3323 2336 3323 
C 2394 3323 2566 3348 2566 3560 
C 2566 3954 2246 4179 1805 4179 
C 1043 4179 243 3390 243 1984 
C 243 253 966 -128 1478 -128 
C 2099 -128 2688 427 2688 1283 
C 2688 2081 2170 2662 1517 2662 
C 1126 2662 838 2407 678 1960 
L 678 2176 
z
M 1478 25 
C 691 25 691 1200 691 1436 
C 691 1896 909 2560 1504 2560 
C 1613 2560 1926 2560 2138 2120 
C 2253 1870 2253 1609 2253 1289 
C 2253 944 2253 690 2118 434 
C 1978 171 1773 25 1478 25 
z
" transform="scale(0.015625)"/>
       </defs>
       <use xlink:href="#CMR17-36" transform="scale(0.996264)"/>
       <use xlink:href="#CMR17-30" transform="translate(45.690477 0) scale(0.996264)"/>
       <use xlink:href="#CMR17-30" transform="translate(91.380954 0) scale(0.996264)"/>
      </g>
     </g>
    </g>
    <g id="xtick_7">
     <g id="line2d_7">
      <g>
       <use xlink:href="#mba2ff293b5" x="607.264463" y="320.4" style="stroke: #000000; stroke-width: 0.8"/>
      </g>
     </g>
     <g id="text_7">
      <!-- $\mathdefault{700}$ -->
      <g transform="translate(596.655929 337.431808) scale(0.145 -0.145)">
       <defs>
        <path id="CMR17-37" d="M 2886 3941 
L 2886 4081 
L 1382 4081 
C 634 4081 621 4165 595 4288 
L 480 4288 
L 294 3094 
L 410 3094 
C 429 3215 474 3540 550 3661 
C 589 3712 1062 3712 1171 3712 
L 2579 3712 
L 1869 2661 
C 1395 1954 1069 999 1069 165 
C 1069 89 1069 -128 1299 -128 
C 1530 -128 1530 89 1530 171 
L 1530 465 
C 1530 1508 1709 2196 2003 2636 
L 2886 3941 
z
" transform="scale(0.015625)"/>
       </defs>
       <use xlink:href="#CMR17-37" transform="scale(0.996264)"/>
       <use xlink:href="#CMR17-30" transform="translate(45.690477 0) scale(0.996264)"/>
       <use xlink:href="#CMR17-30" transform="translate(91.380954 0) scale(0.996264)"/>
      </g>
     </g>
    </g>
    <g id="text_8">
     <!-- time (s) -->
     <g transform="translate(345.477317 355.075073) scale(0.145 -0.145)">
      <defs>
       <path id="CMSS17-74" d="M 1069 2368 
L 1901 2368 
L 1901 2737 
L 1069 2737 
L 1069 3520 
L 614 3520 
L 614 2737 
L 109 2737 
L 109 2368 
L 602 2368 
L 602 749 
C 602 384 685 -64 1107 -64 
C 1427 -64 1722 25 2003 172 
L 1901 548 
C 1747 414 1562 337 1363 337 
C 1082 337 1069 696 1069 856 
L 1069 2368 
z
" transform="scale(0.015625)"/>
       <path id="CMSS17-69" d="M 979 4183 
L 442 4183 
L 442 3648 
L 979 3648 
L 979 4183 
z
M 947 2739 
L 474 2739 
L 474 0 
L 947 0 
L 947 2739 
z
" transform="scale(0.015625)"/>
       <path id="CMSS17-6d" d="M 4288 1877 
C 4288 2308 4179 2816 3462 2816 
C 2982 2816 2694 2516 2566 2331 
C 2451 2670 2182 2816 1798 2816 
C 1363 2816 1088 2568 941 2389 
L 941 2758 
L 474 2758 
L 474 0 
L 960 0 
L 960 1559 
C 960 1939 1101 2428 1555 2428 
C 2138 2428 2138 2016 2138 1829 
L 2138 0 
L 2624 0 
L 2624 1559 
C 2624 1939 2765 2428 3219 2428 
C 3802 2428 3802 2016 3802 1829 
L 3802 0 
L 4288 0 
L 4288 1877 
z
" transform="scale(0.015625)"/>
       <path id="CMSS17-65" d="M 2502 1377 
C 2502 1590 2490 2003 2285 2345 
C 2061 2713 1696 2816 1421 2816 
C 755 2816 192 2188 192 1375 
C 192 582 774 -64 1510 -64 
C 1798 -64 2150 19 2470 248 
C 2470 274 2458 414 2451 420 
C 2451 433 2432 630 2432 656 
C 2125 407 1773 325 1517 325 
C 1107 325 666 667 646 1377 
L 2502 1377 
z
M 698 1728 
C 781 2084 1062 2421 1421 2421 
C 1517 2421 1965 2421 2080 1728 
L 698 1728 
z
" transform="scale(0.015625)"/>
       <path id="CMSS17-28" d="M 1613 4768 
C 1267 4417 474 3601 474 1588 
C 474 -433 1267 -1243 1613 -1600 
L 2003 -1600 
C 1216 -784 960 357 960 1581 
C 960 2798 1203 3946 2003 4768 
L 1613 4768 
z
" transform="scale(0.015625)"/>
       <path id="CMSS17-73" d="M 2061 2627 
C 1683 2807 1389 2807 1197 2807 
C 742 2807 198 2648 198 2003 
C 198 1359 902 1218 1094 1179 
C 1389 1122 1715 1058 1715 740 
C 1715 337 1254 337 1171 337 
C 915 337 563 407 243 638 
L 166 210 
C 531 0 883 -64 1178 -64 
C 1965 -64 2163 416 2163 781 
C 2163 1094 1984 1305 1862 1401 
C 1651 1568 1574 1587 1050 1696 
C 960 1709 646 1779 646 2066 
C 646 2432 1050 2432 1139 2432 
C 1555 2432 1811 2303 1984 2208 
L 2061 2627 
z
" transform="scale(0.015625)"/>
       <path id="CMSS17-29" d="M 723 -1600 
C 1069 -1249 1862 -433 1862 1581 
C 1862 3601 1069 4411 723 4768 
L 333 4768 
C 1120 3952 1376 2811 1376 1588 
C 1376 370 1133 -778 333 -1600 
L 723 -1600 
z
" transform="scale(0.015625)"/>
      </defs>
      <use xlink:href="#CMSS17-74" transform="scale(0.996264)"/>
      <use xlink:href="#CMSS17-69" transform="translate(33.831567 0) scale(0.996264)"/>
      <use xlink:href="#CMSS17-6d" transform="translate(56.01229 0) scale(0.996264)"/>
      <use xlink:href="#CMSS17-65" transform="translate(130.241544 0) scale(0.996264)"/>
      <use xlink:href="#CMSS17-28" transform="translate(203.109479 0) scale(0.996264)"/>
      <use xlink:href="#CMSS17-73" transform="translate(239.543393 0) scale(0.996264)"/>
      <use xlink:href="#CMSS17-29" transform="translate(275.456935 0) scale(0.996264)"/>
     </g>
    </g>
   </g>
   <g id="matplotlib.axis_2">
    <g id="ytick_1">
     <g id="line2d_8">
      <path d="M 90 320.4 
L 648 320.4 
" clip-path="url(#pc33a5d639c)" style="fill: none; stroke-dasharray: 1.85,0.8; stroke-dashoffset: 0; stroke: #808080; stroke-width: 0.5"/>
     </g>
     <g id="line2d_9">
      <defs>
       <path id="m64e1ebb26e" d="M 0 0 
L -3.5 0 
" style="stroke: #000000; stroke-width: 0.8"/>
      </defs>
      <g>
       <use xlink:href="#m64e1ebb26e" x="90" y="320.4" style="stroke: #000000; stroke-width: 0.8"/>
      </g>
     </g>
     <g id="text_9">
      <!-- $\mathdefault{0.0}$ -->
      <g transform="translate(64.926206 325.415904) scale(0.145 -0.145)">
       <defs>
        <path id="CMMI12-3a" d="M 1178 307 
C 1178 492 1024 619 870 619 
C 685 619 557 466 557 313 
C 557 128 710 0 864 0 
C 1050 0 1178 153 1178 307 
z
" transform="scale(0.015625)"/>
       </defs>
       <use xlink:href="#CMR17-30" transform="scale(0.996264)"/>
       <use xlink:href="#CMMI12-3a" transform="translate(45.690477 0) scale(0.996264)"/>
       <use xlink:href="#CMR17-30" transform="translate(72.787654 0) scale(0.996264)"/>
      </g>
     </g>
    </g>
    <g id="ytick_2">
     <g id="line2d_10">
      <path d="M 90 267.6 
L 648 267.6 
" clip-path="url(#pc33a5d639c)" style="fill: none; stroke-dasharray: 1.85,0.8; stroke-dashoffset: 0; stroke: #808080; stroke-width: 0.5"/>
     </g>
     <g id="line2d_11">
      <g>
       <use xlink:href="#m64e1ebb26e" x="90" y="267.6" style="stroke: #000000; stroke-width: 0.8"/>
      </g>
     </g>
     <g id="text_10">
      <!-- $\mathdefault{0.2}$ -->
      <g transform="translate(64.926206 272.615904) scale(0.145 -0.145)">
       <use xlink:href="#CMR17-30" transform="scale(0.996264)"/>
       <use xlink:href="#CMMI12-3a" transform="translate(45.690477 0) scale(0.996264)"/>
       <use xlink:href="#CMR17-32" transform="translate(72.787654 0) scale(0.996264)"/>
      </g>
     </g>
    </g>
    <g id="ytick_3">
     <g id="line2d_12">
      <path d="M 90 214.8 
L 648 214.8 
" clip-path="url(#pc33a5d639c)" style="fill: none; stroke-dasharray: 1.85,0.8; stroke-dashoffset: 0; stroke: #808080; stroke-width: 0.5"/>
     </g>
     <g id="line2d_13">
      <g>
       <use xlink:href="#m64e1ebb26e" x="90" y="214.8" style="stroke: #000000; stroke-width: 0.8"/>
      </g>
     </g>
     <g id="text_11">
      <!-- $\mathdefault{0.4}$ -->
      <g transform="translate(64.926206 219.815904) scale(0.145 -0.145)">
       <use xlink:href="#CMR17-30" transform="scale(0.996264)"/>
       <use xlink:href="#CMMI12-3a" transform="translate(45.690477 0) scale(0.996264)"/>
       <use xlink:href="#CMR17-34" transform="translate(72.787654 0) scale(0.996264)"/>
      </g>
     </g>
    </g>
    <g id="ytick_4">
     <g id="line2d_14">
      <path d="M 90 162 
L 648 162 
" clip-path="url(#pc33a5d639c)" style="fill: none; stroke-dasharray: 1.85,0.8; stroke-dashoffset: 0; stroke: #808080; stroke-width: 0.5"/>
     </g>
     <g id="line2d_15">
      <g>
       <use xlink:href="#m64e1ebb26e" x="90" y="162" style="stroke: #000000; stroke-width: 0.8"/>
      </g>
     </g>
     <g id="text_12">
      <!-- $\mathdefault{0.6}$ -->
      <g transform="translate(64.926206 167.015904) scale(0.145 -0.145)">
       <use xlink:href="#CMR17-30" transform="scale(0.996264)"/>
       <use xlink:href="#CMMI12-3a" transform="translate(45.690477 0) scale(0.996264)"/>
       <use xlink:href="#CMR17-36" transform="translate(72.787654 0) scale(0.996264)"/>
      </g>
     </g>
    </g>
    <g id="ytick_5">
     <g id="line2d_16">
      <path d="M 90 109.2 
L 648 109.2 
" clip-path="url(#pc33a5d639c)" style="fill: none; stroke-dasharray: 1.85,0.8; stroke-dashoffset: 0; stroke: #808080; stroke-width: 0.5"/>
     </g>
     <g id="line2d_17">
      <g>
       <use xlink:href="#m64e1ebb26e" x="90" y="109.2" style="stroke: #000000; stroke-width: 0.8"/>
      </g>
     </g>
     <g id="text_13">
      <!-- $\mathdefault{0.8}$ -->
      <g transform="translate(64.926206 114.215904) scale(0.145 -0.145)">
       <defs>
        <path id="CMR17-38" d="M 1741 2264 
C 2144 2467 2554 2773 2554 3263 
C 2554 3841 1990 4179 1472 4179 
C 890 4179 378 3759 378 3180 
C 378 3021 416 2747 666 2505 
C 730 2442 998 2251 1171 2130 
C 883 1983 211 1634 211 934 
C 211 279 838 -128 1459 -128 
C 2144 -128 2720 362 2720 1010 
C 2720 1590 2330 1857 2074 2029 
L 1741 2264 
z
M 902 2822 
C 851 2854 595 3051 595 3351 
C 595 3739 998 4032 1459 4032 
C 1965 4032 2336 3676 2336 3262 
C 2336 2669 1670 2331 1638 2331 
C 1632 2331 1626 2331 1574 2370 
L 902 2822 
z
M 2080 1519 
C 2176 1449 2483 1240 2483 851 
C 2483 381 2010 25 1472 25 
C 890 25 448 438 448 940 
C 448 1443 838 1862 1280 2060 
L 2080 1519 
z
" transform="scale(0.015625)"/>
       </defs>
       <use xlink:href="#CMR17-30" transform="scale(0.996264)"/>
       <use xlink:href="#CMMI12-3a" transform="translate(45.690477 0) scale(0.996264)"/>
       <use xlink:href="#CMR17-38" transform="translate(72.787654 0) scale(0.996264)"/>
      </g>
     </g>
    </g>
    <g id="ytick_6">
     <g id="line2d_18">
      <path d="M 90 56.4 
L 648 56.4 
" clip-path="url(#pc33a5d639c)" style="fill: none; stroke-dasharray: 1.85,0.8; stroke-dashoffset: 0; stroke: #808080; stroke-width: 0.5"/>
     </g>
     <g id="line2d_19">
      <g>
       <use xlink:href="#m64e1ebb26e" x="90" y="56.4" style="stroke: #000000; stroke-width: 0.8"/>
      </g>
     </g>
     <g id="text_14">
      <!-- $\mathdefault{1.0}$ -->
      <g transform="translate(64.926206 61.415904) scale(0.145 -0.145)">
       <use xlink:href="#CMR17-31" transform="scale(0.996264)"/>
       <use xlink:href="#CMMI12-3a" transform="translate(45.690477 0) scale(0.996264)"/>
       <use xlink:href="#CMR17-30" transform="translate(72.787654 0) scale(0.996264)"/>
      </g>
     </g>
    </g>
    <g id="text_15">
     <!-- QoS -->
     <g transform="translate(58.117312 194.481753) rotate(-90) scale(0.145 -0.145)">
      <defs>
       <path id="CMSS17-51" d="M 3200 202 
C 3981 833 4096 1689 4096 2174 
C 4096 3501 3219 4497 2214 4497 
C 1210 4497 333 3497 333 2178 
C 333 847 1222 -128 2214 -128 
C 2438 -128 2630 -77 2765 -26 
L 3302 -832 
L 3930 -832 
L 3200 202 
z
M 2528 324 
C 2438 293 2330 273 2214 273 
C 1523 273 858 993 858 2178 
C 858 3357 1517 4096 2214 4096 
C 2918 4096 3571 3350 3571 2178 
C 3571 1771 3507 1089 2950 566 
L 2490 1210 
L 1939 1210 
L 2528 324 
z
" transform="scale(0.015625)"/>
       <path id="CMSS17-6f" d="M 2829 1356 
C 2829 2176 2221 2816 1504 2816 
C 768 2816 173 2157 173 1356 
C 173 544 787 -64 1498 -64 
C 2227 -64 2829 563 2829 1356 
z
M 1504 337 
C 1050 337 659 709 659 1408 
C 659 2151 1114 2427 1498 2427 
C 1914 2427 2342 2126 2342 1408 
C 2342 683 1926 337 1504 337 
z
" transform="scale(0.015625)"/>
       <path id="CMSS17-53" d="M 2797 4169 
C 2515 4334 2208 4480 1690 4480 
C 864 4480 333 3879 333 3266 
C 333 3025 403 2753 653 2475 
C 902 2196 1184 2121 1542 2033 
C 1690 1994 1939 1924 1984 1906 
C 2342 1767 2515 1444 2515 1140 
C 2515 742 2202 318 1645 318 
C 1453 318 890 318 358 819 
L 269 318 
C 794 -64 1363 -128 1651 -128 
C 2438 -128 3002 488 3002 1186 
C 3002 1440 2925 1763 2656 2061 
C 2394 2347 2163 2410 1638 2549 
C 1338 2626 1146 2677 986 2873 
C 877 3013 819 3146 819 3317 
C 819 3673 1126 4060 1690 4060 
C 1971 4060 2336 4002 2707 3660 
L 2797 4169 
z
" transform="scale(0.015625)"/>
      </defs>
      <use xlink:href="#CMSS17-51" transform="scale(0.996264)"/>
      <use xlink:href="#CMSS17-6f" transform="translate(69.024255 0) scale(0.996264)"/>
      <use xlink:href="#CMSS17-53" transform="translate(115.867879 0) scale(0.996264)"/>
     </g>
    </g>
   </g>
   <g id="line2d_20">
    <path d="M 115.363636 298.591488 
L 180.36237 298.591488 
L 181.775386 258.417816 
L 187.42745 258.417816 
L 188.840466 243.495744 
L 287.751583 243.495744 
L 289.164599 244.643616 
L 294.816662 244.643616 
L 296.229678 268.7484 
L 303.294758 268.7484 
L 304.707774 269.896272 
L 402.205875 269.896272 
L 403.618891 226.278192 
L 405.031907 222.834576 
L 410.683971 222.834576 
L 412.096987 215.947608 
L 511.008103 215.947608 
L 512.421119 222.834576 
L 518.073183 222.834576 
L 519.486199 229.72128 
L 622.636364 229.72128 
L 622.636364 229.72128 
" clip-path="url(#pc33a5d639c)" style="fill: none; stroke: #482475; stroke-width: 2.5; stroke-linecap: square"/>
   </g>
   <g id="line2d_21">
    <path d="M 115.363636 287.113798 
L 180.36237 287.113798 
L 181.775386 215.947872 
L 187.42745 215.947872 
L 188.840466 199.87872 
L 287.751583 199.87872 
L 289.164599 202.173936 
L 294.816662 202.173936 
L 296.229678 258.417552 
L 303.294758 258.417552 
L 304.707774 245.79096 
L 310.359838 245.79096 
L 311.772854 241.199472 
L 356.989364 241.199472 
L 358.40238 240.0516 
L 364.054444 240.0516 
L 365.46746 241.199472 
L 402.205875 241.199472 
L 403.618891 188.4 
L 410.683971 188.4 
L 412.096987 167.73936 
L 417.74905 167.73936 
L 419.162066 166.591488 
L 511.008103 166.591488 
L 512.421119 202.1742 
L 518.073183 202.1742 
L 519.486199 184.956384 
L 526.551279 184.956384 
L 527.964295 182.66064 
L 594.376045 182.66064 
L 595.789061 181.512768 
L 602.85414 181.512768 
L 604.267156 182.66064 
L 622.636364 182.66064 
L 622.636364 182.66064 
" clip-path="url(#pc33a5d639c)" style="fill: none; stroke: #bddf26; stroke-width: 2.5; stroke-linecap: square"/>
   </g>
   <g id="patch_3">
    <path d="M 90 320.4 
L 90 43.2 
" style="fill: none; stroke: #000000; stroke-width: 0.8; stroke-linejoin: miter; stroke-linecap: square"/>
   </g>
   <g id="patch_4">
    <path d="M 648 320.4 
L 648 43.2 
" style="fill: none; stroke: #000000; stroke-width: 0.8; stroke-linejoin: miter; stroke-linecap: square"/>
   </g>
   <g id="patch_5">
    <path d="M 90 320.4 
L 648 320.4 
" style="fill: none; stroke: #000000; stroke-width: 0.8; stroke-linejoin: miter; stroke-linecap: square"/>
   </g>
   <g id="text_16">
    <!-- $nt=Barabsi$ $d=25$ $oc=10\%$ $l=dynamic$ -->
    <g transform="translate(202.799461 37.2) scale(0.18 -0.18)">
     <defs>
      <path id="CMMI12-6e" d="M 1318 1871 
C 1331 1910 1491 2229 1728 2433 
C 1894 2586 2112 2689 2362 2689 
C 2618 2689 2707 2497 2707 2242 
C 2707 1878 2445 1150 2317 805 
C 2259 651 2227 568 2227 453 
C 2227 166 2426 -64 2733 -64 
C 3328 -64 3552 875 3552 913 
C 3552 945 3526 971 3488 971 
C 3430 971 3424 952 3392 843 
C 3245 319 3002 64 2752 64 
C 2688 64 2586 64 2586 269 
C 2586 429 2656 621 2694 710 
C 2822 1063 3091 1780 3091 2145 
C 3091 2528 2867 2816 2381 2816 
C 1811 2816 1510 2415 1395 2255 
C 1376 2618 1114 2816 832 2816 
C 627 2816 486 2695 378 2478 
C 262 2248 173 1865 173 1839 
C 173 1814 198 1782 243 1782 
C 294 1782 301 1788 339 1935 
C 442 2325 557 2689 813 2689 
C 960 2689 1011 2586 1011 2395 
C 1011 2254 947 2005 902 1807 
L 723 1118 
C 698 996 627 709 595 594 
C 550 428 480 128 480 96 
C 480 6 550 -64 646 -64 
C 723 -64 813 -26 864 70 
C 877 102 934 326 966 453 
L 1107 1028 
L 1318 1871 
z
" transform="scale(0.015625)"/>
      <path id="CMMI12-74" d="M 1286 2566 
L 1875 2566 
C 1997 2566 2061 2566 2061 2681 
C 2061 2752 2022 2752 1894 2752 
L 1331 2752 
L 1568 3692 
C 1594 3781 1594 3794 1594 3840 
C 1594 3943 1510 4000 1427 4000 
C 1376 4000 1229 3981 1178 3775 
L 928 2752 
L 326 2752 
C 198 2752 141 2752 141 2630 
C 141 2566 186 2566 307 2566 
L 877 2566 
L 454 881 
C 403 658 384 594 384 511 
C 384 211 595 -64 954 -64 
C 1600 -64 1946 868 1946 912 
C 1946 951 1920 970 1882 970 
C 1869 970 1843 970 1830 944 
C 1824 938 1818 931 1773 829 
C 1638 511 1344 64 973 64 
C 781 64 768 224 768 364 
C 768 370 768 492 787 568 
L 1286 2566 
z
" transform="scale(0.015625)"/>
      <path id="CMR17-3d" d="M 4115 2017 
C 4211 2017 4307 2017 4307 2125 
C 4307 2240 4198 2240 4090 2240 
L 512 2240 
C 403 2240 294 2240 294 2125 
C 294 2017 390 2017 486 2017 
L 4115 2017 
z
M 4090 896 
C 4198 896 4307 896 4307 1011 
C 4307 1119 4211 1119 4115 1119 
L 486 1119 
C 390 1119 294 1119 294 1011 
C 294 896 403 896 512 896 
L 4090 896 
z
" transform="scale(0.015625)"/>
      <path id="CMMI12-42" d="M 2342 3921 
C 2400 4160 2426 4160 2675 4160 
L 3507 4160 
C 4230 4160 4230 3544 4230 3485 
C 4230 2966 3712 2304 2867 2304 
L 1946 2304 
L 2342 3921 
z
M 3424 2275 
C 4122 2402 4755 2886 4755 3473 
C 4755 3970 4314 4352 3590 4352 
L 1536 4352 
C 1414 4352 1357 4352 1357 4226 
C 1357 4160 1414 4160 1510 4160 
C 1901 4160 1901 4112 1901 4044 
C 1901 4032 1901 3993 1875 3897 
L 1011 472 
C 954 249 941 185 493 185 
C 371 185 307 185 307 70 
C 307 0 346 0 474 0 
L 2669 0 
C 3648 0 4403 739 4403 1383 
C 4403 1906 3942 2224 3424 2275 
z
M 2515 185 
L 1651 185 
C 1562 185 1549 185 1510 192 
C 1440 198 1434 211 1434 261 
C 1434 305 1446 343 1459 399 
L 1907 2176 
L 3110 2176 
C 3866 2176 3866 1483 3866 1433 
C 3866 828 3309 185 2515 185 
z
" transform="scale(0.015625)"/>
      <path id="CMMI12-61" d="M 1926 760 
C 1894 651 1894 639 1805 517 
C 1664 338 1382 64 1082 64 
C 819 64 672 300 672 677 
C 672 1028 870 1743 992 2012 
C 1210 2459 1510 2689 1760 2689 
C 2182 2689 2266 2165 2266 2114 
C 2266 2108 2246 2024 2240 2012 
L 1926 760 
z
M 2336 2395 
C 2266 2561 2093 2816 1760 2816 
C 1037 2816 256 1884 256 939 
C 256 307 627 -64 1062 -64 
C 1414 -64 1715 211 1894 422 
C 1958 45 2259 -64 2451 -64 
C 2643 -64 2797 51 2912 281 
C 3014 498 3104 888 3104 913 
C 3104 945 3078 971 3040 971 
C 2982 971 2976 939 2950 843 
C 2854 466 2733 64 2470 64 
C 2285 64 2272 230 2272 358 
C 2272 505 2291 575 2349 824 
C 2394 984 2426 1124 2477 1309 
C 2714 2267 2771 2497 2771 2535 
C 2771 2625 2701 2695 2605 2695 
C 2400 2695 2349 2472 2336 2395 
z
" transform="scale(0.015625)"/>
      <path id="CMMI12-72" d="M 2490 2612 
C 2291 2574 2189 2433 2189 2293 
C 2189 2139 2310 2088 2400 2088 
C 2579 2088 2726 2242 2726 2433 
C 2726 2638 2528 2816 2208 2816 
C 1952 2816 1658 2701 1389 2312 
C 1344 2650 1088 2816 832 2816 
C 582 2816 454 2625 378 2484 
C 269 2254 173 1871 173 1839 
C 173 1814 198 1782 243 1782 
C 294 1782 301 1788 339 1935 
C 435 2318 557 2689 813 2689 
C 966 2689 1011 2580 1011 2395 
C 1011 2254 947 2005 902 1807 
L 723 1118 
C 698 996 627 709 595 594 
C 550 428 480 128 480 96 
C 480 6 550 -64 646 -64 
C 717 -64 838 -19 877 109 
C 896 160 1133 1124 1171 1271 
C 1203 1411 1242 1546 1274 1686 
C 1299 1775 1325 1878 1344 1961 
C 1363 2018 1536 2331 1696 2472 
C 1773 2542 1939 2689 2202 2689 
C 2304 2689 2406 2670 2490 2612 
z
" transform="scale(0.015625)"/>
      <path id="CMMI12-62" d="M 1478 4257 
C 1485 4283 1498 4321 1498 4352 
C 1498 4416 1434 4416 1421 4416 
C 1414 4416 1184 4393 1069 4377 
C 960 4377 864 4358 749 4358 
C 595 4345 550 4339 550 4224 
C 550 4160 614 4160 678 4160 
C 1005 4160 1005 4103 1005 4040 
C 1005 3996 954 3811 928 3696 
L 774 3085 
C 710 2831 346 1387 320 1272 
C 288 1114 288 1005 288 922 
C 288 274 653 -64 1069 -64 
C 1811 -64 2579 888 2579 1814 
C 2579 2401 2246 2816 1766 2816 
C 1434 2816 1133 2542 1011 2414 
L 1478 4257 
z
M 1075 64 
C 870 64 646 217 646 715 
C 646 926 666 1047 781 1494 
C 800 1577 902 1986 928 2069 
C 941 2120 1318 2689 1754 2689 
C 2035 2689 2163 2408 2163 2076 
C 2163 1769 1984 1047 1824 715 
C 1664 370 1370 64 1075 64 
z
" transform="scale(0.015625)"/>
      <path id="CMMI12-73" d="M 1459 1280 
C 1568 1261 1741 1223 1779 1216 
C 1862 1192 2150 1090 2150 783 
C 2150 586 1971 70 1229 70 
C 1094 70 614 70 486 436 
C 742 404 870 603 870 745 
C 870 880 781 950 653 950 
C 512 950 326 841 326 552 
C 326 173 710 -64 1222 -64 
C 2195 -64 2483 651 2483 984 
C 2483 1079 2483 1258 2278 1462 
C 2118 1616 1965 1648 1619 1718 
C 1446 1756 1171 1814 1171 2101 
C 1171 2229 1286 2689 1894 2689 
C 2163 2689 2426 2589 2490 2368 
C 2208 2368 2195 2125 2195 2119 
C 2195 1984 2317 1946 2374 1946 
C 2464 1946 2643 2015 2643 2281 
C 2643 2545 2400 2816 1901 2816 
C 1062 2816 838 2160 838 1899 
C 838 1414 1312 1312 1459 1280 
z
" transform="scale(0.015625)"/>
      <path id="CMMI12-69" d="M 1811 913 
C 1811 945 1786 971 1747 971 
C 1690 971 1683 952 1651 843 
C 1485 262 1222 64 1011 64 
C 934 64 845 83 845 275 
C 845 447 922 639 992 830 
L 1440 2018 
C 1459 2069 1504 2184 1504 2305 
C 1504 2574 1312 2816 998 2816 
C 410 2816 173 1890 173 1839 
C 173 1814 198 1782 243 1782 
C 301 1782 307 1807 333 1896 
C 486 2428 730 2682 979 2682 
C 1037 2682 1146 2682 1146 2478 
C 1146 2312 1062 2101 1011 1961 
L 563 773 
C 525 671 486 568 486 453 
C 486 166 685 -64 992 -64 
C 1581 -64 1811 869 1811 913 
z
M 1760 4013 
C 1760 4109 1683 4224 1542 4224 
C 1395 4224 1229 4083 1229 3917 
C 1229 3758 1363 3707 1440 3707 
C 1613 3707 1760 3873 1760 4013 
z
" transform="scale(0.015625)"/>
      <path id="CMMI12-64" d="M 3219 4257 
C 3226 4282 3238 4320 3238 4352 
C 3238 4416 3174 4416 3162 4416 
C 3155 4416 2842 4388 2810 4380 
C 2701 4373 2605 4358 2490 4358 
C 2330 4345 2285 4339 2285 4224 
C 2285 4160 2336 4160 2426 4160 
C 2739 4160 2746 4103 2746 4040 
C 2746 4002 2733 3952 2726 3933 
L 2336 2395 
C 2266 2561 2093 2816 1760 2816 
C 1037 2816 256 1884 256 939 
C 256 307 627 -64 1062 -64 
C 1414 -64 1715 211 1894 422 
C 1958 45 2259 -64 2451 -64 
C 2643 -64 2797 51 2912 281 
C 3014 498 3104 888 3104 913 
C 3104 945 3078 971 3040 971 
C 2982 971 2976 939 2950 843 
C 2854 466 2733 64 2470 64 
C 2285 64 2272 229 2272 357 
C 2272 382 2272 515 2317 694 
L 3219 4257 
z
M 1926 760 
C 1894 651 1894 639 1805 517 
C 1664 338 1382 64 1082 64 
C 819 64 672 300 672 677 
C 672 1028 870 1743 992 2012 
C 1210 2459 1510 2689 1760 2689 
C 2182 2689 2266 2165 2266 2114 
C 2266 2108 2246 2024 2240 2012 
L 1926 760 
z
" transform="scale(0.015625)"/>
      <path id="CMMI12-6f" d="M 2918 1756 
C 2918 2363 2522 2816 1939 2816 
C 1094 2816 262 1897 262 996 
C 262 390 659 -64 1242 -64 
C 2093 -64 2918 856 2918 1756 
z
M 1248 64 
C 928 64 691 319 691 766 
C 691 1060 845 1712 1024 2031 
C 1312 2523 1670 2689 1933 2689 
C 2246 2689 2490 2433 2490 1986 
C 2490 1731 2355 1047 2112 658 
C 1850 230 1498 64 1248 64 
z
" transform="scale(0.015625)"/>
      <path id="CMMI12-63" d="M 2502 2431 
C 2381 2431 2323 2431 2234 2355 
C 2195 2323 2125 2227 2125 2125 
C 2125 1997 2221 1920 2342 1920 
C 2496 1920 2669 2044 2669 2292 
C 2669 2588 2374 2816 1933 2816 
C 1094 2816 256 1903 256 996 
C 256 441 602 -64 1254 -64 
C 2125 -64 2675 622 2675 706 
C 2675 744 2637 776 2611 776 
C 2592 776 2586 770 2528 713 
C 2118 162 1510 64 1267 64 
C 826 64 685 446 685 764 
C 685 988 794 1605 1024 2039 
C 1190 2338 1536 2682 1939 2682 
C 2022 2682 2374 2682 2502 2431 
z
" transform="scale(0.015625)"/>
      <path id="CMR17-25" d="M 4640 959 
C 4640 1698 4275 2240 3846 2240 
C 3411 2240 2970 1736 2970 959 
C 2970 183 3405 -320 3846 -320 
C 4275 -320 4640 215 4640 959 
z
M 3853 -218 
C 3686 -218 3270 -66 3270 959 
C 3270 1991 3686 2138 3853 2138 
C 4205 2138 4525 1634 4525 959 
C 4525 285 4205 -218 3853 -218 
z
M 4083 4577 
C 4128 4647 4134 4653 4134 4685 
C 4134 4761 4077 4800 4026 4800 
C 3962 4800 3936 4756 3891 4706 
C 3520 4190 3008 4134 2746 4134 
C 2106 4134 1715 4494 1594 4607 
C 1510 4682 1389 4800 1171 4800 
C 736 4800 294 4296 294 3519 
C 294 2743 730 2240 1171 2240 
C 1600 2240 1965 2778 1965 3527 
C 1965 3969 1830 4270 1811 4308 
C 2202 4064 2586 4032 2752 4032 
C 3162 4032 3456 4183 3616 4289 
L 3622 4283 
L 858 -84 
C 800 -174 800 -187 800 -206 
C 800 -276 858 -320 915 -320 
C 973 -320 992 -289 1037 -218 
L 4083 4577 
z
M 1178 2342 
C 1011 2342 595 2494 595 3519 
C 595 4551 1011 4698 1178 4698 
C 1530 4698 1850 4194 1850 3519 
C 1850 2845 1530 2342 1178 2342 
z
" transform="scale(0.015625)"/>
      <path id="CMMI12-6c" d="M 1626 4257 
C 1632 4282 1645 4320 1645 4352 
C 1645 4416 1581 4416 1568 4416 
C 1562 4416 1331 4393 1216 4377 
C 1107 4377 1011 4358 896 4358 
C 742 4345 698 4339 698 4224 
C 698 4160 762 4160 826 4160 
C 1152 4160 1152 4102 1152 4039 
C 1152 4014 1152 4001 1120 3887 
L 326 731 
C 307 661 294 610 294 509 
C 294 191 531 -64 858 -64 
C 1069 -64 1210 76 1312 274 
C 1421 483 1510 884 1510 909 
C 1510 941 1485 967 1446 967 
C 1389 967 1382 935 1357 840 
C 1242 401 1126 64 870 64 
C 678 64 678 267 678 357 
C 678 382 678 515 723 694 
L 1626 4257 
z
" transform="scale(0.015625)"/>
      <path id="CMMI12-79" d="M 1683 -700 
C 1510 -939 1261 -1152 947 -1152 
C 870 -1152 563 -1152 467 -889 
C 486 -895 518 -895 531 -895 
C 723 -895 851 -729 851 -582 
C 851 -435 730 -384 634 -384 
C 531 -384 307 -458 307 -759 
C 307 -1071 582 -1286 947 -1286 
C 1587 -1286 2234 -700 2413 6 
L 3040 2485 
C 3046 2517 3059 2556 3059 2594 
C 3059 2689 2982 2753 2886 2753 
C 2829 2753 2694 2727 2643 2535 
L 2170 658 
C 2138 543 2138 530 2086 460 
C 1958 281 1747 64 1440 64 
C 1082 64 1050 415 1050 588 
C 1050 952 1222 1443 1395 1903 
C 1466 2088 1504 2178 1504 2305 
C 1504 2574 1312 2816 998 2816 
C 410 2816 173 1890 173 1839 
C 173 1814 198 1782 243 1782 
C 301 1782 307 1807 333 1897 
C 486 2433 730 2689 979 2689 
C 1037 2689 1146 2689 1146 2478 
C 1146 2312 1075 2127 979 1884 
C 666 1047 666 837 666 683 
C 666 77 1101 -64 1421 -64 
C 1606 -64 1837 -6 2061 230 
L 2067 224 
C 1971 -147 1907 -392 1683 -700 
z
" transform="scale(0.015625)"/>
      <path id="CMMI12-6d" d="M 1318 1871 
C 1331 1910 1491 2229 1728 2433 
C 1894 2586 2112 2689 2362 2689 
C 2618 2689 2707 2497 2707 2242 
C 2707 2203 2707 2076 2630 1775 
L 2470 1118 
C 2419 926 2298 453 2285 383 
C 2259 287 2221 121 2221 96 
C 2221 6 2291 -64 2387 -64 
C 2579 -64 2611 83 2669 313 
L 3053 1839 
C 3066 1890 3398 2689 4102 2689 
C 4358 2689 4448 2497 4448 2242 
C 4448 1884 4198 1188 4058 805 
C 4000 651 3968 568 3968 453 
C 3968 166 4166 -64 4474 -64 
C 5069 -64 5293 875 5293 913 
C 5293 945 5267 971 5229 971 
C 5171 971 5165 952 5133 843 
C 4986 332 4749 64 4493 64 
C 4429 64 4326 64 4326 269 
C 4326 436 4403 640 4429 710 
C 4544 1018 4832 1773 4832 2145 
C 4832 2528 4608 2816 4122 2816 
C 3693 2816 3347 2574 3091 2197 
C 3072 2542 2861 2816 2381 2816 
C 1811 2816 1510 2415 1395 2255 
C 1376 2618 1114 2816 832 2816 
C 646 2816 499 2727 378 2484 
C 262 2254 173 1865 173 1839 
C 173 1814 198 1782 243 1782 
C 294 1782 301 1788 339 1935 
C 435 2312 557 2689 813 2689 
C 960 2689 1011 2586 1011 2395 
C 1011 2254 947 2005 902 1807 
L 723 1118 
C 698 996 627 709 595 594 
C 550 428 480 128 480 96 
C 480 6 550 -64 646 -64 
C 723 -64 813 -26 864 70 
C 877 102 934 326 966 453 
L 1107 1028 
L 1318 1871 
z
" transform="scale(0.015625)"/>
     </defs>
     <use xlink:href="#CMMI12-6e" transform="scale(0.996264)"/>
     <use xlink:href="#CMMI12-74" transform="translate(58.230047 0) scale(0.996264)"/>
     <use xlink:href="#CMR17-3d" transform="translate(121.130386 0) scale(0.996264)"/>
     <use xlink:href="#CMMI12-42" transform="translate(220.519183 0) scale(0.996264)"/>
     <use xlink:href="#CMMI12-61" transform="translate(299.654707 0) scale(0.996264)"/>
     <use xlink:href="#CMMI12-72" transform="translate(350.862564 0) scale(0.996264)"/>
     <use xlink:href="#CMMI12-61" transform="translate(397.533176 0) scale(0.996264)"/>
     <use xlink:href="#CMMI12-62" transform="translate(448.741034 0) scale(0.996264)"/>
     <use xlink:href="#CMMI12-73" transform="translate(490.216908 0) scale(0.996264)"/>
     <use xlink:href="#CMMI12-69" transform="translate(536.166956 0) scale(0.996264)"/>
     <use xlink:href="#CMMI12-64" transform="translate(600.67467 0) scale(0.996264)"/>
     <use xlink:href="#CMR17-3d" transform="translate(679.037776 0) scale(0.996264)"/>
     <use xlink:href="#CMR17-32" transform="translate(778.426573 0) scale(0.996264)"/>
     <use xlink:href="#CMR17-35" transform="translate(824.11705 0) scale(0.996264)"/>
     <use xlink:href="#CMMI12-6f" transform="translate(901.03664 0) scale(0.996264)"/>
     <use xlink:href="#CMMI12-63" transform="translate(947.93195 0) scale(0.996264)"/>
     <use xlink:href="#CMR17-3d" transform="translate(1017.589192 0) scale(0.996264)"/>
     <use xlink:href="#CMR17-31" transform="translate(1116.977989 0) scale(0.996264)"/>
     <use xlink:href="#CMR17-30" transform="translate(1162.668466 0) scale(0.996264)"/>
     <use xlink:href="#CMR17-25" transform="translate(1208.358943 0) scale(0.996264)"/>
     <use xlink:href="#CMMI12-6c" transform="translate(1316.507646 0) scale(0.996264)"/>
     <use xlink:href="#CMR17-3d" transform="translate(1375.430058 0) scale(0.996264)"/>
     <use xlink:href="#CMMI12-64" transform="translate(1474.818856 0) scale(0.996264)"/>
     <use xlink:href="#CMMI12-79" transform="translate(1525.507952 0) scale(0.996264)"/>
     <use xlink:href="#CMMI12-6e" transform="translate(1576.646733 0) scale(0.996264)"/>
     <use xlink:href="#CMMI12-61" transform="translate(1634.87678 0) scale(0.996264)"/>
     <use xlink:href="#CMMI12-6d" transform="translate(1686.084638 0) scale(0.996264)"/>
     <use xlink:href="#CMMI12-69" transform="translate(1771.411862 0) scale(0.996264)"/>
     <use xlink:href="#CMMI12-63" transform="translate(1804.690464 0) scale(0.996264)"/>
    </g>
   </g>
  </g>
  <g id="axes_2">
   <g id="matplotlib.axis_3">
    <g id="ytick_7">
     <g id="line2d_22">
      <defs>
       <path id="mb0c0474c52" d="M 0 0 
L 3.5 0 
" style="stroke: #000000; stroke-width: 0.8"/>
      </defs>
      <g>
       <use xlink:href="#mb0c0474c52" x="648" y="320.4" style="stroke: #000000; stroke-width: 0.8"/>
      </g>
     </g>
     <g id="text_17">
      <!-- $\mathdefault{0}$ -->
      <g transform="translate(655 325.415904) scale(0.145 -0.145)">
       <use xlink:href="#CMR17-30" transform="scale(0.996264)"/>
      </g>
     </g>
    </g>
    <g id="ytick_8">
     <g id="line2d_23">
      <g>
       <use xlink:href="#mb0c0474c52" x="648" y="264.987706" style="stroke: #000000; stroke-width: 0.8"/>
      </g>
     </g>
     <g id="text_18">
      <!-- $\mathdefault{20}$ -->
      <g transform="translate(655 270.00361) scale(0.145 -0.145)">
       <use xlink:href="#CMR17-32" transform="scale(0.996264)"/>
       <use xlink:href="#CMR17-30" transform="translate(45.690477 0) scale(0.996264)"/>
      </g>
     </g>
    </g>
    <g id="ytick_9">
     <g id="line2d_24">
      <g>
       <use xlink:href="#mb0c0474c52" x="648" y="209.575412" style="stroke: #000000; stroke-width: 0.8"/>
      </g>
     </g>
     <g id="text_19">
      <!-- $\mathdefault{40}$ -->
      <g transform="translate(655 214.591316) scale(0.145 -0.145)">
       <use xlink:href="#CMR17-34" transform="scale(0.996264)"/>
       <use xlink:href="#CMR17-30" transform="translate(45.690477 0) scale(0.996264)"/>
      </g>
     </g>
    </g>
    <g id="ytick_10">
     <g id="line2d_25">
      <g>
       <use xlink:href="#mb0c0474c52" x="648" y="154.163118" style="stroke: #000000; stroke-width: 0.8"/>
      </g>
     </g>
     <g id="text_20">
      <!-- $\mathdefault{60}$ -->
      <g transform="translate(655 159.179023) scale(0.145 -0.145)">
       <use xlink:href="#CMR17-36" transform="scale(0.996264)"/>
       <use xlink:href="#CMR17-30" transform="translate(45.690477 0) scale(0.996264)"/>
      </g>
     </g>
    </g>
    <g id="ytick_11">
     <g id="line2d_26">
      <g>
       <use xlink:href="#mb0c0474c52" x="648" y="98.750825" style="stroke: #000000; stroke-width: 0.8"/>
      </g>
     </g>
     <g id="text_21">
      <!-- $\mathdefault{80}$ -->
      <g transform="translate(655 103.766729) scale(0.145 -0.145)">
       <use xlink:href="#CMR17-38" transform="scale(0.996264)"/>
       <use xlink:href="#CMR17-30" transform="translate(45.690477 0) scale(0.996264)"/>
      </g>
     </g>
    </g>
    <g id="ytick_12">
     <g id="line2d_27">
      <g>
       <use xlink:href="#mb0c0474c52" x="648" y="43.338531" style="stroke: #000000; stroke-width: 0.8"/>
      </g>
     </g>
     <g id="text_22">
      <!-- $\mathdefault{100}$ -->
      <g transform="translate(655 48.354435) scale(0.145 -0.145)">
       <use xlink:href="#CMR17-31" transform="scale(0.996264)"/>
       <use xlink:href="#CMR17-30" transform="translate(45.690477 0) scale(0.996264)"/>
       <use xlink:href="#CMR17-30" transform="translate(91.380954 0) scale(0.996264)"/>
      </g>
     </g>
    </g>
    <g id="text_23">
     <!-- CPU load in \% -->
     <g transform="translate(690.248875 226.102524) rotate(-90) scale(0.145 -0.145)">
      <defs>
       <path id="CMSS17-43" d="M 3501 714 
C 3072 427 2874 344 2355 344 
C 1459 344 934 1303 934 2179 
C 934 3112 1472 4032 2381 4032 
C 2790 4032 3059 3918 3386 3715 
L 3475 4217 
C 3168 4370 2778 4440 2387 4440 
C 1158 4440 397 3316 397 2179 
C 397 927 1299 -64 2323 -64 
C 2874 -64 3066 -19 3539 280 
L 3501 714 
z
" transform="scale(0.015625)"/>
       <path id="CMSS17-50" d="M 2106 1856 
C 2874 1856 3501 2453 3501 3158 
C 3501 3850 2899 4453 2067 4453 
L 570 4453 
L 570 0 
L 1107 0 
L 1107 1856 
L 2106 1856 
z
M 1926 4096 
C 2669 4096 2995 3627 2995 3157 
C 2995 2720 2694 2226 1926 2226 
L 1094 2226 
L 1094 4096 
L 1926 4096 
z
" transform="scale(0.015625)"/>
       <path id="CMSS17-55" d="M 3552 4384 
L 3066 4384 
L 3066 1449 
C 3066 604 2547 229 2074 229 
C 1587 229 1101 623 1101 1443 
L 1101 4384 
L 563 4384 
L 563 1454 
C 563 539 1274 -128 2067 -128 
C 2861 -128 3552 539 3552 1454 
L 3552 4384 
z
" transform="scale(0.015625)"/>
       <path id="CMSS17-6c" d="M 947 4416 
L 474 4416 
L 474 0 
L 947 0 
L 947 4416 
z
" transform="scale(0.015625)"/>
       <path id="CMSS17-61" d="M 2406 1791 
C 2406 2392 1978 2808 1402 2808 
C 1120 2808 813 2757 461 2553 
L 499 2135 
C 659 2248 934 2432 1395 2432 
C 1722 2432 1920 2180 1920 1782 
L 1920 1536 
C 896 1536 256 1238 256 726 
C 256 461 416 -64 947 -64 
C 1043 -64 1562 -64 1933 217 
L 1933 -19 
L 2406 -19 
L 2406 1791 
z
M 1920 816 
C 1920 701 1920 548 1728 434 
C 1562 325 1350 325 1261 325 
C 941 325 723 511 723 744 
C 723 1211 1722 1211 1920 1211 
L 1920 816 
z
" transform="scale(0.015625)"/>
       <path id="CMSS17-64" d="M 2611 4416 
L 2138 4416 
L 2138 2438 
C 1939 2603 1613 2756 1254 2756 
C 672 2756 211 2131 211 1347 
C 211 562 666 -64 1235 -64 
C 1677 -64 1971 172 2125 306 
L 2125 -13 
L 2611 -13 
L 2611 4416 
z
M 2125 836 
C 2125 747 2125 653 1926 482 
C 1798 375 1645 325 1498 325 
C 1152 325 698 576 698 1340 
C 698 2134 1210 2368 1562 2368 
C 1798 2368 1990 2254 2125 2065 
L 2125 836 
z
" transform="scale(0.015625)"/>
       <path id="CMSS17-6e" d="M 2618 1877 
C 2618 2283 2522 2816 1798 2816 
C 1389 2816 1120 2606 941 2389 
L 941 2758 
L 474 2758 
L 474 0 
L 960 0 
L 960 1559 
C 960 1964 1114 2428 1549 2428 
C 2112 2428 2131 2048 2131 1829 
L 2131 0 
L 2618 0 
L 2618 1877 
z
" transform="scale(0.015625)"/>
       <path id="CMSS17-25" d="M 3923 4583 
C 3962 4647 3962 4679 3962 4685 
C 3962 4755 3904 4800 3853 4800 
C 3782 4800 3750 4749 3718 4685 
L 1101 -104 
C 1088 -129 1062 -167 1062 -206 
C 1062 -276 1120 -320 1178 -320 
C 1235 -320 1248 -295 1299 -206 
L 3923 4583 
z
M 4678 959 
C 4678 1698 4282 2240 3846 2240 
C 3418 2240 3008 1711 3008 959 
C 3008 208 3418 -320 3846 -320 
C 4288 -320 4678 221 4678 959 
z
M 3846 68 
C 3712 68 3494 189 3494 959 
C 3494 1724 3712 1851 3846 1851 
C 4083 1851 4211 1386 4211 959 
C 4211 533 4083 68 3846 68 
z
M 2003 3519 
C 2003 4258 1606 4800 1171 4800 
C 742 4800 333 4271 333 3519 
C 333 2768 742 2240 1171 2240 
C 1613 2240 2003 2781 2003 3519 
z
M 1171 2628 
C 1037 2628 819 2749 819 3519 
C 819 4284 1037 4411 1171 4411 
C 1408 4411 1536 3946 1536 3519 
C 1536 3093 1408 2628 1171 2628 
z
" transform="scale(0.015625)"/>
      </defs>
      <use xlink:href="#CMSS17-43" transform="scale(0.996264)"/>
      <use xlink:href="#CMSS17-50" transform="translate(59.855772 0) scale(0.996264)"/>
      <use xlink:href="#CMSS17-55" transform="translate(119.591358 0) scale(0.996264)"/>
      <use xlink:href="#CMSS17-6c" transform="translate(214.960211 0) scale(0.996264)"/>
      <use xlink:href="#CMSS17-6f" transform="translate(237.140934 0) scale(0.996264)"/>
      <use xlink:href="#CMSS17-61" transform="translate(283.984557 0) scale(0.996264)"/>
      <use xlink:href="#CMSS17-64" transform="translate(328.906478 0) scale(0.996264)"/>
      <use xlink:href="#CMSS17-69" transform="translate(408.340534 0) scale(0.996264)"/>
      <use xlink:href="#CMSS17-6e" transform="translate(430.521257 0) scale(0.996264)"/>
      <use xlink:href="#CMSS17-25" transform="translate(509.955313 0) scale(0.996264)"/>
     </g>
    </g>
   </g>
   <g id="line2d_28">
    <path d="M 115.363636 101.057076 
L 180.36237 101.057076 
L 181.775386 210.728538 
L 287.751583 210.728538 
L 289.164599 158.495468 
L 294.816662 158.495468 
L 296.229678 155.892807 
L 402.205875 155.892807 
L 403.618891 255.223531 
L 405.031907 265.564269 
L 511.008103 265.564269 
L 512.421119 238.146404 
L 622.636364 238.146404 
L 622.636364 238.146404 
" clip-path="url(#pc33a5d639c)" style="fill: none; stroke-dasharray: 5.55,2.4; stroke-dashoffset: 0; stroke: #140e36; stroke-width: 1.5"/>
   </g>
   <g id="patch_6">
    <path d="M 90 320.4 
L 90 43.2 
" style="fill: none; stroke: #000000; stroke-width: 0.8; stroke-linejoin: miter; stroke-linecap: square"/>
   </g>
   <g id="patch_7">
    <path d="M 648 320.4 
L 648 43.2 
" style="fill: none; stroke: #000000; stroke-width: 0.8; stroke-linejoin: miter; stroke-linecap: square"/>
   </g>
   <g id="patch_8">
    <path d="M 90 320.4 
L 648 320.4 
" style="fill: none; stroke: #000000; stroke-width: 0.8; stroke-linejoin: miter; stroke-linecap: square"/>
   </g>
   <g id="patch_9">
    <path d="M 90 43.2 
L 648 43.2 
" style="fill: none; stroke: #000000; stroke-width: 0.8; stroke-linejoin: miter; stroke-linecap: square"/>
   </g>
   <g id="legend_1">
    <g id="patch_10">
     <path d="M 481.7533 313.15 
L 637.85 313.15 
Q 640.75 313.15 640.75 310.25 
L 640.75 246.612516 
Q 640.75 243.712516 637.85 243.712516 
L 481.7533 243.712516 
Q 478.8533 243.712516 478.8533 246.612516 
L 478.8533 310.25 
Q 478.8533 313.15 481.7533 313.15 
z
" style="fill: #ffffff; opacity: 0.7; stroke: #cccccc; stroke-linejoin: miter"/>
    </g>
    <g id="line2d_29">
     <path d="M 484.6533 255.271887 
L 499.1533 255.271887 
L 513.6533 255.271887 
" style="fill: none; stroke: #482475; stroke-width: 2.5; stroke-linecap: square"/>
    </g>
    <g id="text_24">
     <!-- QoS [static] -->
     <g transform="translate(525.2533 260.346887) scale(0.145 -0.145)">
      <defs>
       <path id="CMSS17-5b" d="M 1613 -1600 
L 1613 -1212 
L 1062 -1212 
L 1062 4352 
L 1613 4352 
L 1613 4741 
L 595 4741 
L 595 -1600 
L 1613 -1600 
z
" transform="scale(0.015625)"/>
       <path id="CMSS17-63" d="M 2464 2541 
C 2464 2585 2170 2714 2093 2739 
C 1882 2816 1613 2816 1542 2816 
C 710 2816 211 2093 211 1363 
C 211 595 768 -64 1517 -64 
C 1946 -64 2253 76 2502 242 
L 2464 664 
C 2189 453 1869 337 1523 337 
C 1024 337 698 774 698 1369 
C 698 1831 909 2414 1549 2414 
C 1901 2414 2099 2343 2394 2145 
L 2464 2541 
z
" transform="scale(0.015625)"/>
       <path id="CMSS17-5d" d="M 1146 4741 
L 128 4741 
L 128 4352 
L 678 4352 
L 678 -1212 
L 128 -1212 
L 128 -1600 
L 1146 -1600 
L 1146 4741 
z
" transform="scale(0.015625)"/>
      </defs>
      <use xlink:href="#CMSS17-51" transform="scale(0.996264)"/>
      <use xlink:href="#CMSS17-6f" transform="translate(69.024255 0) scale(0.996264)"/>
      <use xlink:href="#CMSS17-53" transform="translate(115.867879 0) scale(0.996264)"/>
      <use xlink:href="#CMSS17-5b" transform="translate(199.145508 0) scale(0.996264)"/>
      <use xlink:href="#CMSS17-73" transform="translate(226.330946 0) scale(0.996264)"/>
      <use xlink:href="#CMSS17-74" transform="translate(262.244488 0) scale(0.996264)"/>
      <use xlink:href="#CMSS17-61" transform="translate(296.076055 0) scale(0.996264)"/>
      <use xlink:href="#CMSS17-74" transform="translate(340.997976 0) scale(0.996264)"/>
      <use xlink:href="#CMSS17-69" transform="translate(374.829542 0) scale(0.996264)"/>
      <use xlink:href="#CMSS17-63" transform="translate(397.010265 0) scale(0.996264)"/>
      <use xlink:href="#CMSS17-5d" transform="translate(438.649088 0) scale(0.996264)"/>
     </g>
    </g>
    <g id="line2d_30">
     <path d="M 484.6533 276.967715 
L 499.1533 276.967715 
L 513.6533 276.967715 
" style="fill: none; stroke: #bddf26; stroke-width: 2.5; stroke-linecap: square"/>
    </g>
    <g id="text_25">
     <!-- QoS [dynamic] -->
     <g transform="translate(525.2533 282.042715) scale(0.145 -0.145)">
      <defs>
       <path id="CMSS17-79" d="M 2675 2752 
L 2176 2752 
C 1632 1294 1446 702 1434 383 
L 1427 383 
C 1408 696 1126 1460 902 2007 
L 602 2752 
L 83 2752 
L 1216 13 
C 1146 -178 1043 -465 1011 -529 
C 870 -885 774 -885 672 -885 
C 646 -885 442 -885 211 -809 
L 250 -1229 
C 410 -1261 570 -1280 685 -1280 
C 845 -1280 1165 -1280 1459 -497 
L 2675 2752 
z
" transform="scale(0.015625)"/>
      </defs>
      <use xlink:href="#CMSS17-51" transform="scale(0.996264)"/>
      <use xlink:href="#CMSS17-6f" transform="translate(69.024255 0) scale(0.996264)"/>
      <use xlink:href="#CMSS17-53" transform="translate(115.867879 0) scale(0.996264)"/>
      <use xlink:href="#CMSS17-5b" transform="translate(199.145508 0) scale(0.996264)"/>
      <use xlink:href="#CMSS17-64" transform="translate(226.330946 0) scale(0.996264)"/>
      <use xlink:href="#CMSS17-79" transform="translate(274.53589 0) scale(0.996264)"/>
      <use xlink:href="#CMSS17-6e" transform="translate(317.536031 0) scale(0.996264)"/>
      <use xlink:href="#CMSS17-61" transform="translate(365.740974 0) scale(0.996264)"/>
      <use xlink:href="#CMSS17-6d" transform="translate(410.662895 0) scale(0.996264)"/>
      <use xlink:href="#CMSS17-69" transform="translate(484.892149 0) scale(0.996264)"/>
      <use xlink:href="#CMSS17-63" transform="translate(507.072872 0) scale(0.996264)"/>
      <use xlink:href="#CMSS17-5d" transform="translate(548.711695 0) scale(0.996264)"/>
     </g>
    </g>
    <g id="line2d_31">
     <path d="M 484.6533 298.663543 
L 499.1533 298.663543 
L 513.6533 298.663543 
" style="fill: none; stroke-dasharray: 5.55,2.4; stroke-dashoffset: 0; stroke: #140e36; stroke-width: 1.5"/>
    </g>
    <g id="text_26">
     <!-- Load driver (right) -->
     <g transform="translate(525.2533 303.738543) scale(0.145 -0.145)">
      <defs>
       <path id="CMSS17-4c" d="M 1670 414 
C 1594 414 1517 414 1440 414 
L 1101 414 
L 1101 4416 
L 563 4416 
L 563 0 
L 3002 0 
L 3002 414 
L 1670 414 
z
" transform="scale(0.015625)"/>
       <path id="CMSS17-72" d="M 954 1363 
C 954 1965 1395 2368 1958 2368 
L 1958 2789 
C 1549 2789 1165 2585 934 2253 
L 934 2758 
L 480 2758 
L 480 0 
L 954 0 
L 954 1363 
z
" transform="scale(0.015625)"/>
       <path id="CMSS17-76" d="M 2675 2752 
L 2176 2752 
L 1747 1556 
C 1613 1165 1421 627 1389 352 
L 1382 352 
C 1370 468 1318 634 1286 749 
C 1248 890 1197 1056 1158 1172 
L 595 2752 
L 83 2752 
L 1094 0 
L 1664 0 
L 2675 2752 
z
" transform="scale(0.015625)"/>
       <path id="CMSS17-67" d="M 2848 2808 
C 2483 2808 2170 2738 1914 2617 
C 1702 2777 1485 2808 1338 2808 
C 781 2808 358 2349 358 1814 
C 358 1468 550 1207 563 1195 
C 448 1035 384 863 384 672 
C 384 448 474 289 544 200 
C 211 -3 166 -314 166 -435 
C 166 -898 749 -1280 1498 -1280 
C 2253 -1280 2835 -898 2835 -428 
C 2835 448 1856 448 1587 448 
L 1069 448 
C 973 448 717 448 717 791 
C 717 921 774 1004 781 1010 
C 877 940 1075 832 1338 832 
C 1869 832 2310 1278 2310 1827 
C 2310 2132 2170 2355 2112 2432 
L 2131 2432 
C 2150 2432 2419 2432 2515 2432 
C 2720 2432 2739 2429 2918 2419 
L 2848 2808 
z
M 1338 1182 
C 1120 1182 813 1315 813 1823 
C 813 2375 1165 2464 1331 2464 
C 1549 2464 1856 2331 1856 1823 
C 1856 1271 1504 1182 1338 1182 
z
M 1581 -10 
C 1734 -10 2381 -10 2381 -442 
C 2381 -714 1984 -929 1504 -929 
C 1018 -929 621 -720 621 -435 
C 621 -403 621 -10 1062 -10 
L 1581 -10 
z
" transform="scale(0.015625)"/>
       <path id="CMSS17-68" d="M 2618 1891 
C 2618 2292 2522 2820 1798 2820 
C 1395 2820 1133 2623 947 2407 
L 947 4448 
L 474 4448 
L 474 32 
L 960 32 
L 960 1573 
C 960 1973 1114 2432 1549 2432 
C 2112 2432 2131 2056 2131 1839 
L 2131 32 
L 2618 32 
L 2618 1891 
z
" transform="scale(0.015625)"/>
      </defs>
      <use xlink:href="#CMSS17-4c" transform="scale(0.996264)"/>
      <use xlink:href="#CMSS17-6f" transform="translate(50.687105 0) scale(0.996264)"/>
      <use xlink:href="#CMSS17-61" transform="translate(97.530729 0) scale(0.996264)"/>
      <use xlink:href="#CMSS17-64" transform="translate(142.452649 0) scale(0.996264)"/>
      <use xlink:href="#CMSS17-64" transform="translate(221.886705 0) scale(0.996264)"/>
      <use xlink:href="#CMSS17-72" transform="translate(270.091649 0) scale(0.996264)"/>
      <use xlink:href="#CMSS17-69" transform="translate(302.001421 0) scale(0.996264)"/>
      <use xlink:href="#CMSS17-76" transform="translate(324.182144 0) scale(0.996264)"/>
      <use xlink:href="#CMSS17-65" transform="translate(367.182286 0) scale(0.996264)"/>
      <use xlink:href="#CMSS17-72" transform="translate(408.821108 0) scale(0.996264)"/>
      <use xlink:href="#CMSS17-28" transform="translate(471.959993 0) scale(0.996264)"/>
      <use xlink:href="#CMSS17-72" transform="translate(508.393907 0) scale(0.996264)"/>
      <use xlink:href="#CMSS17-69" transform="translate(540.30368 0) scale(0.996264)"/>
      <use xlink:href="#CMSS17-67" transform="translate(562.484403 0) scale(0.996264)"/>
      <use xlink:href="#CMSS17-68" transform="translate(609.328026 0) scale(0.996264)"/>
      <use xlink:href="#CMSS17-74" transform="translate(657.53297 0) scale(0.996264)"/>
      <use xlink:href="#CMSS17-29" transform="translate(691.364536 0) scale(0.996264)"/>
     </g>
    </g>
   </g>
  </g>
 </g>
 <defs>
  <clipPath id="pc33a5d639c">
   <rect x="90" y="43.2" width="558" height="277.2"/>
  </clipPath>
 </defs>
</svg>
