<?xml version="1.0" encoding="utf-8" standalone="no"?>
<!DOCTYPE svg PUBLIC "-//W3C//DTD SVG 1.1//EN"
  "http://www.w3.org/Graphics/SVG/1.1/DTD/svg11.dtd">
<svg xmlns:xlink="http://www.w3.org/1999/xlink" width="576pt" height="360pt" viewBox="0 0 576 360" xmlns="http://www.w3.org/2000/svg" version="1.1">
 <metadata>
  <rdf:RDF xmlns:dc="http://purl.org/dc/elements/1.1/" xmlns:cc="http://creativecommons.org/ns#" xmlns:rdf="http://www.w3.org/1999/02/22-rdf-syntax-ns#">
   <cc:Work>
    <dc:type rdf:resource="http://purl.org/dc/dcmitype/StillImage"/>
    <dc:date>2023-12-15T16:06:06.091427</dc:date>
    <dc:format>image/svg+xml</dc:format>
    <dc:creator>
     <cc:Agent>
      <dc:title>Matplotlib v3.8.0, https://matplotlib.org/</dc:title>
     </cc:Agent>
    </dc:creator>
   </cc:Work>
  </rdf:RDF>
 </metadata>
 <defs>
  <style type="text/css">*{stroke-linejoin: round; stroke-linecap: butt}</style>
 </defs>
 <g id="figure_1">
  <g id="patch_1">
   <path d="M 0 360 
L 576 360 
L 576 0 
L 0 0 
z
" style="fill: #ffffff"/>
  </g>
  <g id="axes_1">
   <g id="patch_2">
    <path d="M 72 320.4 
L 518.4 320.4 
L 518.4 43.2 
L 72 43.2 
z
" style="fill: #ffffff"/>
   </g>
   <g id="PolyCollection_1">
    <defs>
     <path id="md6ddc6c3af" d="M 92.290909 -193.538451 
L 92.290909 -199.404957 
L 93.421322 -199.404957 
L 94.551735 -199.404957 
L 95.682147 -199.44678 
L 96.81256 -199.44678 
L 97.942973 -199.44678 
L 99.073386 -199.44678 
L 100.203798 -199.44678 
L 101.334211 -199.44678 
L 102.464624 -199.44678 
L 103.595037 -199.44678 
L 104.725449 -199.44678 
L 105.855862 -199.44678 
L 106.986275 -199.44678 
L 108.116688 -199.500197 
L 109.247101 -199.500197 
L 110.377513 -199.500197 
L 111.507926 -199.500197 
L 112.638339 -199.500197 
L 113.768752 -199.500197 
L 114.899164 -199.44678 
L 116.029577 -199.44678 
L 117.15999 -199.44678 
L 118.290403 -199.44678 
L 119.420815 -199.44678 
L 120.551228 -172.643443 
L 121.681641 -172.643443 
L 122.812054 -172.643443 
L 123.942466 -172.643443 
L 125.072879 -172.643443 
L 126.203292 -167.669042 
L 127.333705 -167.669042 
L 128.464117 -167.669042 
L 129.59453 -167.669042 
L 130.724943 -167.669042 
L 131.855356 -167.669042 
L 132.985769 -168.260568 
L 134.116181 -168.260568 
L 135.246594 -168.260568 
L 136.377007 -168.260568 
L 137.50742 -168.260568 
L 138.637832 -168.253056 
L 139.768245 -168.253056 
L 140.898658 -168.253056 
L 142.029071 -168.253056 
L 143.159483 -168.253056 
L 144.289896 -168.253056 
L 145.420309 -168.23394 
L 146.550722 -168.23394 
L 147.681134 -168.23394 
L 148.811547 -168.23394 
L 149.94196 -168.23394 
L 151.072373 -168.23394 
L 152.202786 -168.23394 
L 153.333198 -168.23394 
L 154.463611 -168.23394 
L 155.594024 -168.23394 
L 156.724437 -168.23394 
L 157.854849 -168.23394 
L 158.985262 -168.23394 
L 160.115675 -168.23394 
L 161.246088 -168.23394 
L 162.3765 -168.23394 
L 163.506913 -168.122891 
L 164.637326 -168.122891 
L 165.767739 -168.122891 
L 166.898151 -168.122891 
L 168.028564 -168.122891 
L 169.158977 -168.158096 
L 170.28939 -168.158096 
L 171.419802 -168.158096 
L 172.550215 -168.158096 
L 173.680628 -168.158096 
L 174.811041 -168.158096 
L 175.941454 -168.065505 
L 177.071866 -168.065505 
L 178.202279 -168.065505 
L 179.332692 -168.065505 
L 180.463105 -168.065505 
L 181.593517 -147.236698 
L 182.72393 -147.236698 
L 183.854343 -147.236698 
L 184.984756 -147.236698 
L 186.115168 -147.236698 
L 187.245581 -147.236698 
L 188.375994 -133.885412 
L 189.506407 -133.885412 
L 190.636819 -133.885412 
L 191.767232 -133.885412 
L 192.897645 -133.885412 
L 194.028058 -134.495233 
L 195.15847 -134.495233 
L 196.288883 -134.495233 
L 197.419296 -134.495233 
L 198.549709 -134.495233 
L 199.680122 -134.495233 
L 200.810534 -134.585836 
L 201.940947 -134.585836 
L 203.07136 -134.585836 
L 204.201773 -134.585836 
L 205.332185 -134.585836 
L 206.462598 -134.476457 
L 207.593011 -134.476457 
L 208.723424 -134.476457 
L 209.853836 -134.476457 
L 210.984249 -134.476457 
L 212.114662 -134.476457 
L 213.245075 -134.494574 
L 214.375487 -134.494574 
L 215.5059 -134.494574 
L 216.636313 -134.494574 
L 217.766726 -134.494574 
L 218.897139 -134.494574 
L 220.027551 -134.494574 
L 221.157964 -134.494574 
L 222.288377 -134.494574 
L 223.41879 -134.494574 
L 224.549202 -134.494574 
L 225.679615 -134.494574 
L 226.810028 -134.494574 
L 227.940441 -134.494574 
L 229.070853 -134.494574 
L 230.201266 -134.494574 
L 231.331679 -134.494574 
L 232.462092 -134.494574 
L 233.592504 -134.494574 
L 234.722917 -134.494574 
L 235.85333 -134.494574 
L 236.983743 -134.4542 
L 238.114155 -134.4542 
L 239.244568 -134.4542 
L 240.374981 -134.4542 
L 241.505394 -134.4542 
L 242.635807 -134.4542 
L 243.766219 -128.399923 
L 244.896632 -128.399923 
L 246.027045 -128.399923 
L 247.157458 -128.399923 
L 248.28787 -128.399923 
L 249.418283 -98.441024 
L 250.548696 -98.441024 
L 251.679109 -98.441024 
L 252.809521 -98.441024 
L 253.939934 -98.441024 
L 255.070347 -98.441024 
L 256.20076 -95.734695 
L 257.331172 -95.734695 
L 258.461585 -95.734695 
L 259.591998 -95.734695 
L 260.722411 -95.734695 
L 261.852823 -95.524191 
L 262.983236 -95.524191 
L 264.113649 -95.524191 
L 265.244062 -95.524191 
L 266.374475 -95.524191 
L 267.504887 -95.524191 
L 268.6353 -95.643902 
L 269.765713 -95.643902 
L 270.896126 -95.643902 
L 272.026538 -95.643902 
L 273.156951 -95.643902 
L 274.287364 -95.687362 
L 275.417777 -95.687362 
L 276.548189 -95.687362 
L 277.678602 -95.687362 
L 278.809015 -95.687362 
L 279.939428 -95.687362 
L 281.06984 -95.687362 
L 282.200253 -95.687362 
L 283.330666 -95.687362 
L 284.461079 -95.687362 
L 285.591492 -95.687362 
L 286.721904 -95.687362 
L 287.852317 -95.687362 
L 288.98273 -95.687362 
L 290.113143 -95.687362 
L 291.243555 -95.687362 
L 292.373968 -95.39523 
L 293.504381 -95.39523 
L 294.634794 -95.39523 
L 295.765206 -95.39523 
L 296.895619 -95.39523 
L 298.026032 -95.39523 
L 299.156445 -95.687362 
L 300.286857 -95.687362 
L 301.41727 -95.687362 
L 302.547683 -95.687362 
L 303.678096 -95.687362 
L 304.808508 -95.687362 
L 305.938921 -95.687362 
L 307.069334 -95.687362 
L 308.199747 -95.687362 
L 309.33016 -95.687362 
L 310.460572 -95.687362 
L 311.590985 -119.460488 
L 312.721398 -119.460488 
L 313.851811 -119.460488 
L 314.982223 -119.460488 
L 316.112636 -119.460488 
L 317.243049 -127.129269 
L 318.373462 -127.129269 
L 319.503874 -127.129269 
L 320.634287 -127.129269 
L 321.7647 -127.129269 
L 322.895113 -128.153672 
L 324.025525 -128.153672 
L 325.155938 -128.153672 
L 326.286351 -128.153672 
L 327.416764 -128.153672 
L 328.547177 -128.153672 
L 329.677589 -128.572975 
L 330.808002 -128.572975 
L 331.938415 -128.572975 
L 333.068828 -128.572975 
L 334.19924 -128.572975 
L 335.329653 -128.572975 
L 336.460066 -128.572975 
L 337.590479 -128.572975 
L 338.720891 -128.572975 
L 339.851304 -128.572975 
L 340.981717 -128.572975 
L 342.11213 -128.183259 
L 343.242542 -128.183259 
L 344.372955 -128.183259 
L 345.503368 -128.183259 
L 346.633781 -128.183259 
L 347.764193 -128.513899 
L 348.894606 -128.513899 
L 350.025019 -128.513899 
L 351.155432 -128.513899 
L 352.285845 -128.513899 
L 353.416257 -128.513899 
L 354.54667 -128.513899 
L 355.677083 -128.513899 
L 356.807496 -128.513899 
L 357.937908 -128.513899 
L 359.068321 -128.513899 
L 360.198734 -128.282812 
L 361.329147 -128.282812 
L 362.459559 -128.282812 
L 363.589972 -128.282812 
L 364.720385 -128.282812 
L 365.850798 -128.282812 
L 366.98121 -128.398949 
L 368.111623 -128.398949 
L 369.242036 -128.398949 
L 370.372449 -128.398949 
L 371.502861 -128.398949 
L 372.633274 -139.298873 
L 373.763687 -139.298873 
L 374.8941 -139.298873 
L 376.024513 -139.298873 
L 377.154925 -139.298873 
L 378.285338 -155.021133 
L 379.415751 -155.021133 
L 380.546164 -155.021133 
L 381.676576 -155.021133 
L 382.806989 -155.021133 
L 383.937402 -155.021133 
L 385.067815 -156.515709 
L 386.198227 -156.515709 
L 387.32864 -156.515709 
L 388.459053 -156.515709 
L 389.589466 -156.515709 
L 390.719878 -156.507567 
L 391.850291 -156.507567 
L 392.980704 -156.507567 
L 394.111117 -156.507567 
L 395.24153 -156.507567 
L 396.371942 -156.507567 
L 397.502355 -156.507567 
L 398.632768 -156.507567 
L 399.763181 -156.507567 
L 400.893593 -156.507567 
L 402.024006 -156.507567 
L 403.154419 -156.493937 
L 404.284832 -156.493937 
L 405.415244 -156.493937 
L 406.545657 -156.493937 
L 407.67607 -156.493937 
L 408.806483 -156.493937 
L 409.936895 -156.494969 
L 411.067308 -156.494969 
L 412.197721 -156.494969 
L 413.328134 -156.494969 
L 414.458546 -156.494969 
L 415.588959 -156.568547 
L 416.719372 -156.568547 
L 417.849785 -156.568547 
L 418.980198 -156.568547 
L 420.11061 -156.568547 
L 421.241023 -156.568547 
L 422.371436 -156.507567 
L 423.501849 -156.507567 
L 424.632261 -156.507567 
L 425.762674 -156.507567 
L 426.893087 -156.507567 
L 428.0235 -156.469783 
L 429.153912 -156.469783 
L 430.284325 -156.469783 
L 431.414738 -156.469783 
L 432.545151 -156.469783 
L 433.675563 -154.135209 
L 434.805976 -154.135209 
L 435.936389 -154.135209 
L 437.066802 -154.135209 
L 438.197214 -154.135209 
L 439.327627 -154.135209 
L 440.45804 -174.392666 
L 441.588453 -174.392666 
L 442.718866 -174.392666 
L 443.849278 -174.392666 
L 444.979691 -174.392666 
L 446.110104 -176.310516 
L 447.240517 -176.310516 
L 448.370929 -176.310516 
L 449.501342 -176.310516 
L 450.631755 -176.310516 
L 451.762168 -176.310516 
L 452.89258 -176.733361 
L 454.022993 -176.733361 
L 455.153406 -176.733361 
L 456.283819 -176.733361 
L 457.414231 -176.733361 
L 458.544644 -176.601938 
L 459.675057 -176.601938 
L 460.80547 -176.601938 
L 461.935883 -176.601938 
L 463.066295 -176.601938 
L 464.196708 -176.601938 
L 465.327121 -176.644591 
L 466.457534 -176.644591 
L 467.587946 -176.644591 
L 468.718359 -176.644591 
L 469.848772 -176.644591 
L 470.979185 -176.688403 
L 472.109597 -176.688403 
L 473.24001 -176.688403 
L 474.370423 -176.688403 
L 475.500836 -176.688403 
L 476.631248 -176.688403 
L 477.761661 -176.688403 
L 478.892074 -176.688403 
L 480.022487 -176.688403 
L 481.152899 -176.688403 
L 482.283312 -176.688403 
L 483.413725 -176.697629 
L 484.544138 -176.697629 
L 485.674551 -176.697629 
L 486.804963 -176.697629 
L 487.935376 -176.697629 
L 489.065789 -176.361925 
L 490.196202 -176.361925 
L 491.326614 -176.361925 
L 492.457027 -176.361925 
L 493.58744 -176.361925 
L 494.717853 -176.361925 
L 495.848265 -176.542006 
L 496.978678 -176.542006 
L 498.109091 -176.542006 
L 498.109091 -166.101482 
L 498.109091 -166.101482 
L 496.978678 -166.101482 
L 495.848265 -166.101482 
L 494.717853 -166.003835 
L 493.58744 -166.003835 
L 492.457027 -166.003835 
L 491.326614 -166.003835 
L 490.196202 -166.003835 
L 489.065789 -166.003835 
L 487.935376 -166.113763 
L 486.804963 -166.113763 
L 485.674551 -166.113763 
L 484.544138 -166.113763 
L 483.413725 -166.113763 
L 482.283312 -166.233869 
L 481.152899 -166.233869 
L 480.022487 -166.233869 
L 478.892074 -166.233869 
L 477.761661 -166.233869 
L 476.631248 -166.233869 
L 475.500836 -166.233869 
L 474.370423 -166.233869 
L 473.24001 -166.233869 
L 472.109597 -166.233869 
L 470.979185 -166.233869 
L 469.848772 -166.222241 
L 468.718359 -166.222241 
L 467.587946 -166.222241 
L 466.457534 -166.222241 
L 465.327121 -166.222241 
L 464.196708 -166.209454 
L 463.066295 -166.209454 
L 461.935883 -166.209454 
L 460.80547 -166.209454 
L 459.675057 -166.209454 
L 458.544644 -166.209454 
L 457.414231 -166.244351 
L 456.283819 -166.244351 
L 455.153406 -166.244351 
L 454.022993 -166.244351 
L 452.89258 -166.244351 
L 451.762168 -165.944892 
L 450.631755 -165.944892 
L 449.501342 -165.944892 
L 448.370929 -165.944892 
L 447.240517 -165.944892 
L 446.110104 -165.944892 
L 444.979691 -163.694182 
L 443.849278 -163.694182 
L 442.718866 -163.694182 
L 441.588453 -163.694182 
L 440.45804 -163.694182 
L 439.327627 -143.435031 
L 438.197214 -143.435031 
L 437.066802 -143.435031 
L 435.936389 -143.435031 
L 434.805976 -143.435031 
L 433.675563 -143.435031 
L 432.545151 -145.658153 
L 431.414738 -145.658153 
L 430.284325 -145.658153 
L 429.153912 -145.658153 
L 428.0235 -145.658153 
L 426.893087 -145.787217 
L 425.762674 -145.787217 
L 424.632261 -145.787217 
L 423.501849 -145.787217 
L 422.371436 -145.787217 
L 421.241023 -145.948525 
L 420.11061 -145.948525 
L 418.980198 -145.948525 
L 417.849785 -145.948525 
L 416.719372 -145.948525 
L 415.588959 -145.948525 
L 414.458546 -145.743847 
L 413.328134 -145.743847 
L 412.197721 -145.743847 
L 411.067308 -145.743847 
L 409.936895 -145.743847 
L 408.806483 -145.745407 
L 407.67607 -145.745407 
L 406.545657 -145.745407 
L 405.415244 -145.745407 
L 404.284832 -145.745407 
L 403.154419 -145.745407 
L 402.024006 -145.787217 
L 400.893593 -145.787217 
L 399.763181 -145.787217 
L 398.632768 -145.787217 
L 397.502355 -145.787217 
L 396.371942 -145.787217 
L 395.24153 -145.787217 
L 394.111117 -145.787217 
L 392.980704 -145.787217 
L 391.850291 -145.787217 
L 390.719878 -145.787217 
L 389.589466 -145.667139 
L 388.459053 -145.667139 
L 387.32864 -145.667139 
L 386.198227 -145.667139 
L 385.067815 -145.667139 
L 383.937402 -143.882835 
L 382.806989 -143.882835 
L 381.676576 -143.882835 
L 380.546164 -143.882835 
L 379.415751 -143.882835 
L 378.285338 -143.882835 
L 377.154925 -127.869655 
L 376.024513 -127.869655 
L 374.8941 -127.869655 
L 373.763687 -127.869655 
L 372.633274 -127.869655 
L 371.502861 -118.148539 
L 370.372449 -118.148539 
L 369.242036 -118.148539 
L 368.111623 -118.148539 
L 366.98121 -118.148539 
L 365.850798 -117.986948 
L 364.720385 -117.986948 
L 363.589972 -117.986948 
L 362.459559 -117.986948 
L 361.329147 -117.986948 
L 360.198734 -117.986948 
L 359.068321 -118.255877 
L 357.937908 -118.255877 
L 356.807496 -118.255877 
L 355.677083 -118.255877 
L 354.54667 -118.255877 
L 353.416257 -118.255877 
L 352.285845 -118.255877 
L 351.155432 -118.255877 
L 350.025019 -118.255877 
L 348.894606 -118.255877 
L 347.764193 -118.255877 
L 346.633781 -118.253349 
L 345.503368 -118.253349 
L 344.372955 -118.253349 
L 343.242542 -118.253349 
L 342.11213 -118.253349 
L 340.981717 -118.252769 
L 339.851304 -118.252769 
L 338.720891 -118.252769 
L 337.590479 -118.252769 
L 336.460066 -118.252769 
L 335.329653 -118.252769 
L 334.19924 -118.252769 
L 333.068828 -118.252769 
L 331.938415 -118.252769 
L 330.808002 -118.252769 
L 329.677589 -118.252769 
L 328.547177 -118.11556 
L 327.416764 -118.11556 
L 326.286351 -118.11556 
L 325.155938 -118.11556 
L 324.025525 -118.11556 
L 322.895113 -118.11556 
L 321.7647 -117.974139 
L 320.634287 -117.974139 
L 319.503874 -117.974139 
L 318.373462 -117.974139 
L 317.243049 -117.974139 
L 316.112636 -110.580664 
L 314.982223 -110.580664 
L 313.851811 -110.580664 
L 312.721398 -110.580664 
L 311.590985 -110.580664 
L 310.460572 -87.83435 
L 309.33016 -87.83435 
L 308.199747 -87.83435 
L 307.069334 -87.83435 
L 305.938921 -87.83435 
L 304.808508 -87.83435 
L 303.678096 -87.83435 
L 302.547683 -87.83435 
L 301.41727 -87.83435 
L 300.286857 -87.83435 
L 299.156445 -87.83435 
L 298.026032 -87.793314 
L 296.895619 -87.793314 
L 295.765206 -87.793314 
L 294.634794 -87.793314 
L 293.504381 -87.793314 
L 292.373968 -87.793314 
L 291.243555 -87.83435 
L 290.113143 -87.83435 
L 288.98273 -87.83435 
L 287.852317 -87.83435 
L 286.721904 -87.83435 
L 285.591492 -87.83435 
L 284.461079 -87.83435 
L 283.330666 -87.83435 
L 282.200253 -87.83435 
L 281.06984 -87.83435 
L 279.939428 -87.83435 
L 278.809015 -87.83435 
L 277.678602 -87.83435 
L 276.548189 -87.83435 
L 275.417777 -87.83435 
L 274.287364 -87.83435 
L 273.156951 -87.82237 
L 272.026538 -87.82237 
L 270.896126 -87.82237 
L 269.765713 -87.82237 
L 268.6353 -87.82237 
L 267.504887 -87.941553 
L 266.374475 -87.941553 
L 265.244062 -87.941553 
L 264.113649 -87.941553 
L 262.983236 -87.941553 
L 261.852823 -87.941553 
L 260.722411 -88.620201 
L 259.591998 -88.620201 
L 258.461585 -88.620201 
L 257.331172 -88.620201 
L 256.20076 -88.620201 
L 255.070347 -90.082432 
L 253.939934 -90.082432 
L 252.809521 -90.082432 
L 251.679109 -90.082432 
L 250.548696 -90.082432 
L 249.418283 -90.082432 
L 248.28787 -119.482349 
L 247.157458 -119.482349 
L 246.027045 -119.482349 
L 244.896632 -119.482349 
L 243.766219 -119.482349 
L 242.635807 -125.599528 
L 241.505394 -125.599528 
L 240.374981 -125.599528 
L 239.244568 -125.599528 
L 238.114155 -125.599528 
L 236.983743 -125.599528 
L 235.85333 -125.614594 
L 234.722917 -125.614594 
L 233.592504 -125.614594 
L 232.462092 -125.614594 
L 231.331679 -125.614594 
L 230.201266 -125.614594 
L 229.070853 -125.614594 
L 227.940441 -125.614594 
L 226.810028 -125.614594 
L 225.679615 -125.614594 
L 224.549202 -125.614594 
L 223.41879 -125.614594 
L 222.288377 -125.614594 
L 221.157964 -125.614594 
L 220.027551 -125.614594 
L 218.897139 -125.614594 
L 217.766726 -125.614594 
L 216.636313 -125.614594 
L 215.5059 -125.614594 
L 214.375487 -125.614594 
L 213.245075 -125.614594 
L 212.114662 -125.688151 
L 210.984249 -125.688151 
L 209.853836 -125.688151 
L 208.723424 -125.688151 
L 207.593011 -125.688151 
L 206.462598 -125.688151 
L 205.332185 -125.078756 
L 204.201773 -125.078756 
L 203.07136 -125.078756 
L 201.940947 -125.078756 
L 200.810534 -125.078756 
L 199.680122 -126.169391 
L 198.549709 -126.169391 
L 197.419296 -126.169391 
L 196.288883 -126.169391 
L 195.15847 -126.169391 
L 194.028058 -126.169391 
L 192.897645 -125.556892 
L 191.767232 -125.556892 
L 190.636819 -125.556892 
L 189.506407 -125.556892 
L 188.375994 -125.556892 
L 187.245581 -140.940422 
L 186.115168 -140.940422 
L 184.984756 -140.940422 
L 183.854343 -140.940422 
L 182.72393 -140.940422 
L 181.593517 -140.940422 
L 180.463105 -160.906479 
L 179.332692 -160.906479 
L 178.202279 -160.906479 
L 177.071866 -160.906479 
L 175.941454 -160.906479 
L 174.811041 -160.980208 
L 173.680628 -160.980208 
L 172.550215 -160.980208 
L 171.419802 -160.980208 
L 170.28939 -160.980208 
L 169.158977 -160.980208 
L 168.028564 -160.959973 
L 166.898151 -160.959973 
L 165.767739 -160.959973 
L 164.637326 -160.959973 
L 163.506913 -160.959973 
L 162.3765 -161.015772 
L 161.246088 -161.015772 
L 160.115675 -161.015772 
L 158.985262 -161.015772 
L 157.854849 -161.015772 
L 156.724437 -161.015772 
L 155.594024 -161.015772 
L 154.463611 -161.015772 
L 153.333198 -161.015772 
L 152.202786 -161.015772 
L 151.072373 -161.015772 
L 149.94196 -161.015772 
L 148.811547 -161.015772 
L 147.681134 -161.015772 
L 146.550722 -161.015772 
L 145.420309 -161.015772 
L 144.289896 -161.052096 
L 143.159483 -161.052096 
L 142.029071 -161.052096 
L 140.898658 -161.052096 
L 139.768245 -161.052096 
L 138.637832 -161.052096 
L 137.50742 -161.32284 
L 136.377007 -161.32284 
L 135.246594 -161.32284 
L 134.116181 -161.32284 
L 132.985769 -161.32284 
L 131.855356 -160.692046 
L 130.724943 -160.692046 
L 129.59453 -160.692046 
L 128.464117 -160.692046 
L 127.333705 -160.692046 
L 126.203292 -160.692046 
L 125.072879 -166.166237 
L 123.942466 -166.166237 
L 122.812054 -166.166237 
L 121.681641 -166.166237 
L 120.551228 -166.166237 
L 119.420815 -193.552068 
L 118.290403 -193.552068 
L 117.15999 -193.552068 
L 116.029577 -193.552068 
L 114.899164 -193.552068 
L 113.768752 -193.387243 
L 112.638339 -193.387243 
L 111.507926 -193.387243 
L 110.377513 -193.387243 
L 109.247101 -193.387243 
L 108.116688 -193.387243 
L 106.986275 -193.552068 
L 105.855862 -193.552068 
L 104.725449 -193.552068 
L 103.595037 -193.552068 
L 102.464624 -193.552068 
L 101.334211 -193.552068 
L 100.203798 -193.552068 
L 99.073386 -193.552068 
L 97.942973 -193.552068 
L 96.81256 -193.552068 
L 95.682147 -193.552068 
L 94.551735 -193.538451 
L 93.421322 -193.538451 
L 92.290909 -193.538451 
z
" style="stroke: #482475; stroke-opacity: 0.2"/>
    </defs>
    <g clip-path="url(#p3072b24cd9)">
     <use xlink:href="#md6ddc6c3af" x="0" y="360" style="fill: #482475; fill-opacity: 0.2; stroke: #482475; stroke-opacity: 0.2"/>
    </g>
   </g>
   <g id="PolyCollection_2">
    <defs>
     <path id="mdf20f7089e" d="M 92.290909 -72.695112 
L 92.290909 -78.92484 
L 93.421322 -78.92484 
L 94.551735 -78.92484 
L 95.682147 -78.658313 
L 96.81256 -78.658313 
L 97.942973 -78.658313 
L 99.073386 -78.658313 
L 100.203798 -78.658313 
L 101.334211 -78.658313 
L 102.464624 -78.650191 
L 103.595037 -78.650191 
L 104.725449 -78.650191 
L 105.855862 -78.650191 
L 106.986275 -78.650191 
L 108.116688 -78.653588 
L 109.247101 -78.653588 
L 110.377513 -78.653588 
L 111.507926 -78.653588 
L 112.638339 -78.653588 
L 113.768752 -78.653588 
L 114.899164 -78.674164 
L 116.029577 -78.674164 
L 117.15999 -78.674164 
L 118.290403 -78.674164 
L 119.420815 -78.674164 
L 120.551228 -75.818088 
L 121.681641 -75.818088 
L 122.812054 -75.818088 
L 123.942466 -75.818088 
L 125.072879 -75.818088 
L 126.203292 -76.360681 
L 127.333705 -76.360681 
L 128.464117 -76.360681 
L 129.59453 -76.360681 
L 130.724943 -76.360681 
L 131.855356 -76.360681 
L 132.985769 -76.207502 
L 134.116181 -76.207502 
L 135.246594 -76.207502 
L 136.377007 -76.207502 
L 137.50742 -76.207502 
L 138.637832 -76.073525 
L 139.768245 -76.073525 
L 140.898658 -76.073525 
L 142.029071 -76.073525 
L 143.159483 -76.073525 
L 144.289896 -76.073525 
L 145.420309 -76.116751 
L 146.550722 -76.116751 
L 147.681134 -76.116751 
L 148.811547 -76.116751 
L 149.94196 -76.116751 
L 151.072373 -76.117399 
L 152.202786 -76.117399 
L 153.333198 -76.117399 
L 154.463611 -76.117399 
L 155.594024 -76.117399 
L 156.724437 -76.117399 
L 157.854849 -76.174927 
L 158.985262 -76.174927 
L 160.115675 -76.174927 
L 161.246088 -76.174927 
L 162.3765 -76.174927 
L 163.506913 -76.270227 
L 164.637326 -76.270227 
L 165.767739 -76.270227 
L 166.898151 -76.270227 
L 168.028564 -76.270227 
L 169.158977 -76.398841 
L 170.28939 -76.398841 
L 171.419802 -76.398841 
L 172.550215 -76.398841 
L 173.680628 -76.398841 
L 174.811041 -76.398841 
L 175.941454 -76.398841 
L 177.071866 -76.398841 
L 178.202279 -76.398841 
L 179.332692 -76.398841 
L 180.463105 -76.398841 
L 181.593517 -71.207385 
L 182.72393 -71.207385 
L 183.854343 -71.207385 
L 184.984756 -71.207385 
L 186.115168 -71.207385 
L 187.245581 -71.207385 
L 188.375994 -71.824703 
L 189.506407 -71.824703 
L 190.636819 -71.824703 
L 191.767232 -71.824703 
L 192.897645 -71.824703 
L 194.028058 -82.106582 
L 195.15847 -82.106582 
L 196.288883 -82.106582 
L 197.419296 -82.106582 
L 198.549709 -82.106582 
L 199.680122 -82.106582 
L 200.810534 -92.953103 
L 201.940947 -92.953103 
L 203.07136 -92.953103 
L 204.201773 -92.953103 
L 205.332185 -92.953103 
L 206.462598 -99.198356 
L 207.593011 -99.198356 
L 208.723424 -99.198356 
L 209.853836 -99.198356 
L 210.984249 -99.198356 
L 212.114662 -99.198356 
L 213.245075 -99.541918 
L 214.375487 -99.541918 
L 215.5059 -99.541918 
L 216.636313 -99.541918 
L 217.766726 -99.541918 
L 218.897139 -104.980892 
L 220.027551 -104.980892 
L 221.157964 -104.980892 
L 222.288377 -104.980892 
L 223.41879 -104.980892 
L 224.549202 -121.849526 
L 225.679615 -121.849526 
L 226.810028 -121.849526 
L 227.940441 -121.849526 
L 229.070853 -121.849526 
L 230.201266 -121.849526 
L 231.331679 -133.379257 
L 232.462092 -133.379257 
L 233.592504 -133.379257 
L 234.722917 -133.379257 
L 235.85333 -133.379257 
L 236.983743 -150.297881 
L 238.114155 -150.297881 
L 239.244568 -150.297881 
L 240.374981 -150.297881 
L 241.505394 -150.297881 
L 242.635807 -150.297881 
L 243.766219 -145.326387 
L 244.896632 -145.326387 
L 246.027045 -145.326387 
L 247.157458 -145.326387 
L 248.28787 -145.326387 
L 249.418283 -113.393865 
L 250.548696 -113.393865 
L 251.679109 -113.393865 
L 252.809521 -113.393865 
L 253.939934 -113.393865 
L 255.070347 -113.393865 
L 256.20076 -114.122923 
L 257.331172 -114.122923 
L 258.461585 -114.122923 
L 259.591998 -114.122923 
L 260.722411 -114.122923 
L 261.852823 -111.318922 
L 262.983236 -111.318922 
L 264.113649 -111.318922 
L 265.244062 -111.318922 
L 266.374475 -111.318922 
L 267.504887 -111.318922 
L 268.6353 -111.064234 
L 269.765713 -111.064234 
L 270.896126 -111.064234 
L 272.026538 -111.064234 
L 273.156951 -111.064234 
L 274.287364 -110.99639 
L 275.417777 -110.99639 
L 276.548189 -110.99639 
L 277.678602 -110.99639 
L 278.809015 -110.99639 
L 279.939428 -111.017551 
L 281.06984 -111.017551 
L 282.200253 -111.017551 
L 283.330666 -111.017551 
L 284.461079 -111.017551 
L 285.591492 -111.017551 
L 286.721904 -111.01165 
L 287.852317 -111.01165 
L 288.98273 -111.01165 
L 290.113143 -111.01165 
L 291.243555 -111.01165 
L 292.373968 -110.940952 
L 293.504381 -110.940952 
L 294.634794 -110.940952 
L 295.765206 -110.940952 
L 296.895619 -110.940952 
L 298.026032 -110.940952 
L 299.156445 -111.038181 
L 300.286857 -111.038181 
L 301.41727 -111.038181 
L 302.547683 -111.038181 
L 303.678096 -111.038181 
L 304.808508 -111.002107 
L 305.938921 -111.002107 
L 307.069334 -111.002107 
L 308.199747 -111.002107 
L 309.33016 -111.002107 
L 310.460572 -111.002107 
L 311.590985 -142.367753 
L 312.721398 -142.367753 
L 313.851811 -142.367753 
L 314.982223 -142.367753 
L 316.112636 -142.367753 
L 317.243049 -155.139375 
L 318.373462 -155.139375 
L 319.503874 -155.139375 
L 320.634287 -155.139375 
L 321.7647 -155.139375 
L 322.895113 -155.718029 
L 324.025525 -155.718029 
L 325.155938 -155.718029 
L 326.286351 -155.718029 
L 327.416764 -155.718029 
L 328.547177 -155.718029 
L 329.677589 -155.718029 
L 330.808002 -155.718029 
L 331.938415 -155.718029 
L 333.068828 -155.718029 
L 334.19924 -155.718029 
L 335.329653 -155.718029 
L 336.460066 -155.718029 
L 337.590479 -155.718029 
L 338.720891 -155.718029 
L 339.851304 -155.718029 
L 340.981717 -155.718029 
L 342.11213 -155.832451 
L 343.242542 -155.832451 
L 344.372955 -155.832451 
L 345.503368 -155.832451 
L 346.633781 -155.832451 
L 347.764193 -155.718029 
L 348.894606 -155.718029 
L 350.025019 -155.718029 
L 351.155432 -155.718029 
L 352.285845 -155.718029 
L 353.416257 -155.718029 
L 354.54667 -155.718029 
L 355.677083 -155.718029 
L 356.807496 -155.718029 
L 357.937908 -155.718029 
L 359.068321 -155.718029 
L 360.198734 -155.498242 
L 361.329147 -155.498242 
L 362.459559 -155.498242 
L 363.589972 -155.498242 
L 364.720385 -155.498242 
L 365.850798 -155.498242 
L 366.98121 -155.598624 
L 368.111623 -155.598624 
L 369.242036 -155.598624 
L 370.372449 -155.598624 
L 371.502861 -155.598624 
L 372.633274 -162.381715 
L 373.763687 -162.381715 
L 374.8941 -162.381715 
L 376.024513 -162.381715 
L 377.154925 -162.381715 
L 378.285338 -178.958054 
L 379.415751 -178.958054 
L 380.546164 -178.958054 
L 381.676576 -178.958054 
L 382.806989 -178.958054 
L 383.937402 -178.958054 
L 385.067815 -180.155612 
L 386.198227 -180.155612 
L 387.32864 -180.155612 
L 388.459053 -180.155612 
L 389.589466 -180.155612 
L 390.719878 -180.177289 
L 391.850291 -180.177289 
L 392.980704 -180.177289 
L 394.111117 -180.177289 
L 395.24153 -180.177289 
L 396.371942 -180.177289 
L 397.502355 -180.140189 
L 398.632768 -180.140189 
L 399.763181 -180.140189 
L 400.893593 -180.140189 
L 402.024006 -180.140189 
L 403.154419 -179.986783 
L 404.284832 -179.986783 
L 405.415244 -179.986783 
L 406.545657 -179.986783 
L 407.67607 -179.986783 
L 408.806483 -179.986783 
L 409.936895 -180.125917 
L 411.067308 -180.125917 
L 412.197721 -180.125917 
L 413.328134 -180.125917 
L 414.458546 -180.125917 
L 415.588959 -180.112292 
L 416.719372 -180.112292 
L 417.849785 -180.112292 
L 418.980198 -180.112292 
L 420.11061 -180.112292 
L 421.241023 -180.112292 
L 422.371436 -180.140189 
L 423.501849 -180.140189 
L 424.632261 -180.140189 
L 425.762674 -180.140189 
L 426.893087 -180.140189 
L 428.0235 -179.856882 
L 429.153912 -179.856882 
L 430.284325 -179.856882 
L 431.414738 -179.856882 
L 432.545151 -179.856882 
L 433.675563 -174.749697 
L 434.805976 -174.749697 
L 435.936389 -174.749697 
L 437.066802 -174.749697 
L 438.197214 -174.749697 
L 439.327627 -174.749697 
L 440.45804 -190.834582 
L 441.588453 -190.834582 
L 442.718866 -190.834582 
L 443.849278 -190.834582 
L 444.979691 -190.834582 
L 446.110104 -191.726496 
L 447.240517 -191.726496 
L 448.370929 -191.726496 
L 449.501342 -191.726496 
L 450.631755 -191.726496 
L 451.762168 -191.726496 
L 452.89258 -191.726496 
L 454.022993 -191.726496 
L 455.153406 -191.726496 
L 456.283819 -191.726496 
L 457.414231 -191.726496 
L 458.544644 -191.694028 
L 459.675057 -191.694028 
L 460.80547 -191.694028 
L 461.935883 -191.694028 
L 463.066295 -191.694028 
L 464.196708 -191.694028 
L 465.327121 -191.691426 
L 466.457534 -191.691426 
L 467.587946 -191.691426 
L 468.718359 -191.691426 
L 469.848772 -191.691426 
L 470.979185 -191.704793 
L 472.109597 -191.704793 
L 473.24001 -191.704793 
L 474.370423 -191.704793 
L 475.500836 -191.704793 
L 476.631248 -191.704793 
L 477.761661 -191.704793 
L 478.892074 -191.704793 
L 480.022487 -191.704793 
L 481.152899 -191.704793 
L 482.283312 -191.704793 
L 483.413725 -191.608302 
L 484.544138 -191.608302 
L 485.674551 -191.608302 
L 486.804963 -191.608302 
L 487.935376 -191.608302 
L 489.065789 -191.644183 
L 490.196202 -191.644183 
L 491.326614 -191.644183 
L 492.457027 -191.644183 
L 493.58744 -191.644183 
L 494.717853 -191.644183 
L 495.848265 -191.691426 
L 496.978678 -191.691426 
L 498.109091 -191.691426 
L 498.109091 -182.076606 
L 498.109091 -182.076606 
L 496.978678 -182.076606 
L 495.848265 -182.076606 
L 494.717853 -181.957001 
L 493.58744 -181.957001 
L 492.457027 -181.957001 
L 491.326614 -181.957001 
L 490.196202 -181.957001 
L 489.065789 -181.957001 
L 487.935376 -181.93797 
L 486.804963 -181.93797 
L 485.674551 -181.93797 
L 484.544138 -181.93797 
L 483.413725 -181.93797 
L 482.283312 -181.952359 
L 481.152899 -181.952359 
L 480.022487 -181.952359 
L 478.892074 -181.952359 
L 477.761661 -181.952359 
L 476.631248 -181.952359 
L 475.500836 -181.952359 
L 474.370423 -181.952359 
L 473.24001 -181.952359 
L 472.109597 -181.952359 
L 470.979185 -181.952359 
L 469.848772 -182.076606 
L 468.718359 -182.076606 
L 467.587946 -182.076606 
L 466.457534 -182.076606 
L 465.327121 -182.076606 
L 464.196708 -181.852244 
L 463.066295 -181.852244 
L 461.935883 -181.852244 
L 460.80547 -181.852244 
L 459.675057 -181.852244 
L 458.544644 -181.852244 
L 457.414231 -181.819776 
L 456.283819 -181.819776 
L 455.153406 -181.819776 
L 454.022993 -181.819776 
L 452.89258 -181.819776 
L 451.762168 -181.819776 
L 450.631755 -181.819776 
L 449.501342 -181.819776 
L 448.370929 -181.819776 
L 447.240517 -181.819776 
L 446.110104 -181.819776 
L 444.979691 -180.65513 
L 443.849278 -180.65513 
L 442.718866 -180.65513 
L 441.588453 -180.65513 
L 440.45804 -180.65513 
L 439.327627 -167.338863 
L 438.197214 -167.338863 
L 437.066802 -167.338863 
L 435.936389 -167.338863 
L 434.805976 -167.338863 
L 433.675563 -167.338863 
L 432.545151 -169.957902 
L 431.414738 -169.957902 
L 430.284325 -169.957902 
L 429.153912 -169.957902 
L 428.0235 -169.957902 
L 426.893087 -170.119171 
L 425.762674 -170.119171 
L 424.632261 -170.119171 
L 423.501849 -170.119171 
L 422.371436 -170.119171 
L 421.241023 -170.258476 
L 420.11061 -170.258476 
L 418.980198 -170.258476 
L 417.849785 -170.258476 
L 416.719372 -170.258476 
L 415.588959 -170.258476 
L 414.458546 -170.189411 
L 413.328134 -170.189411 
L 412.197721 -170.189411 
L 411.067308 -170.189411 
L 409.936895 -170.189411 
L 408.806483 -169.994321 
L 407.67607 -169.994321 
L 406.545657 -169.994321 
L 405.415244 -169.994321 
L 404.284832 -169.994321 
L 403.154419 -169.994321 
L 402.024006 -170.119171 
L 400.893593 -170.119171 
L 399.763181 -170.119171 
L 398.632768 -170.119171 
L 397.502355 -170.119171 
L 396.371942 -170.137511 
L 395.24153 -170.137511 
L 394.111117 -170.137511 
L 392.980704 -170.137511 
L 391.850291 -170.137511 
L 390.719878 -170.137511 
L 389.589466 -170.048308 
L 388.459053 -170.048308 
L 387.32864 -170.048308 
L 386.198227 -170.048308 
L 385.067815 -170.048308 
L 383.937402 -169.41001 
L 382.806989 -169.41001 
L 381.676576 -169.41001 
L 380.546164 -169.41001 
L 379.415751 -169.41001 
L 378.285338 -169.41001 
L 377.154925 -149.971469 
L 376.024513 -149.971469 
L 374.8941 -149.971469 
L 373.763687 -149.971469 
L 372.633274 -149.971469 
L 371.502861 -143.693424 
L 370.372449 -143.693424 
L 369.242036 -143.693424 
L 368.111623 -143.693424 
L 366.98121 -143.693424 
L 365.850798 -143.571518 
L 364.720385 -143.571518 
L 363.589972 -143.571518 
L 362.459559 -143.571518 
L 361.329147 -143.571518 
L 360.198734 -143.571518 
L 359.068321 -143.740339 
L 357.937908 -143.740339 
L 356.807496 -143.740339 
L 355.677083 -143.740339 
L 354.54667 -143.740339 
L 353.416257 -143.740339 
L 352.285845 -143.740339 
L 351.155432 -143.740339 
L 350.025019 -143.740339 
L 348.894606 -143.740339 
L 347.764193 -143.740339 
L 346.633781 -143.070461 
L 345.503368 -143.070461 
L 344.372955 -143.070461 
L 343.242542 -143.070461 
L 342.11213 -143.070461 
L 340.981717 -143.740339 
L 339.851304 -143.740339 
L 338.720891 -143.740339 
L 337.590479 -143.740339 
L 336.460066 -143.740339 
L 335.329653 -143.740339 
L 334.19924 -143.740339 
L 333.068828 -143.740339 
L 331.938415 -143.740339 
L 330.808002 -143.740339 
L 329.677589 -143.740339 
L 328.547177 -143.740339 
L 327.416764 -143.740339 
L 326.286351 -143.740339 
L 325.155938 -143.740339 
L 324.025525 -143.740339 
L 322.895113 -143.740339 
L 321.7647 -143.320545 
L 320.634287 -143.320545 
L 319.503874 -143.320545 
L 318.373462 -143.320545 
L 317.243049 -143.320545 
L 316.112636 -131.691703 
L 314.982223 -131.691703 
L 313.851811 -131.691703 
L 312.721398 -131.691703 
L 311.590985 -131.691703 
L 310.460572 -108.090437 
L 309.33016 -108.090437 
L 308.199747 -108.090437 
L 307.069334 -108.090437 
L 305.938921 -108.090437 
L 304.808508 -108.090437 
L 303.678096 -108.109803 
L 302.547683 -108.109803 
L 301.41727 -108.109803 
L 300.286857 -108.109803 
L 299.156445 -108.109803 
L 298.026032 -108.095624 
L 296.895619 -108.095624 
L 295.765206 -108.095624 
L 294.634794 -108.095624 
L 293.504381 -108.095624 
L 292.373968 -108.095624 
L 291.243555 -108.080894 
L 290.113143 -108.080894 
L 288.98273 -108.080894 
L 287.852317 -108.080894 
L 286.721904 -108.080894 
L 285.591492 -108.019553 
L 284.461079 -108.019553 
L 283.330666 -108.019553 
L 282.200253 -108.019553 
L 281.06984 -108.019553 
L 279.939428 -108.019553 
L 278.809015 -108.263002 
L 277.678602 -108.263002 
L 276.548189 -108.263002 
L 275.417777 -108.263002 
L 274.287364 -108.263002 
L 273.156951 -108.13919 
L 272.026538 -108.13919 
L 270.896126 -108.13919 
L 269.765713 -108.13919 
L 268.6353 -108.13919 
L 267.504887 -108.10679 
L 266.374475 -108.10679 
L 265.244062 -108.10679 
L 264.113649 -108.10679 
L 262.983236 -108.10679 
L 261.852823 -108.10679 
L 260.722411 -100.633685 
L 259.591998 -100.633685 
L 258.461585 -100.633685 
L 257.331172 -100.633685 
L 256.20076 -100.633685 
L 255.070347 -89.579895 
L 253.939934 -89.579895 
L 252.809521 -89.579895 
L 251.679109 -89.579895 
L 250.548696 -89.579895 
L 249.418283 -89.579895 
L 248.28787 -88.549788 
L 247.157458 -88.549788 
L 246.027045 -88.549788 
L 244.896632 -88.549788 
L 243.766219 -88.549788 
L 242.635807 -81.57749 
L 241.505394 -81.57749 
L 240.374981 -81.57749 
L 239.244568 -81.57749 
L 238.114155 -81.57749 
L 236.983743 -81.57749 
L 235.85333 -71.929742 
L 234.722917 -71.929742 
L 233.592504 -71.929742 
L 232.462092 -71.929742 
L 231.331679 -71.929742 
L 230.201266 -60.893967 
L 229.070853 -60.893967 
L 227.940441 -60.893967 
L 226.810028 -60.893967 
L 225.679615 -60.893967 
L 224.549202 -60.893967 
L 223.41879 -57.587193 
L 222.288377 -57.587193 
L 221.157964 -57.587193 
L 220.027551 -57.587193 
L 218.897139 -57.587193 
L 217.766726 -53.022151 
L 216.636313 -53.022151 
L 215.5059 -53.022151 
L 214.375487 -53.022151 
L 213.245075 -53.022151 
L 212.114662 -53.088354 
L 210.984249 -53.088354 
L 209.853836 -53.088354 
L 208.723424 -53.088354 
L 207.593011 -53.088354 
L 206.462598 -53.088354 
L 205.332185 -55.887616 
L 204.201773 -55.887616 
L 203.07136 -55.887616 
L 201.940947 -55.887616 
L 200.810534 -55.887616 
L 199.680122 -62.00954 
L 198.549709 -62.00954 
L 197.419296 -62.00954 
L 196.288883 -62.00954 
L 195.15847 -62.00954 
L 194.028058 -62.00954 
L 192.897645 -66.455434 
L 191.767232 -66.455434 
L 190.636819 -66.455434 
L 189.506407 -66.455434 
L 188.375994 -66.455434 
L 187.245581 -66.573001 
L 186.115168 -66.573001 
L 184.984756 -66.573001 
L 183.854343 -66.573001 
L 182.72393 -66.573001 
L 181.593517 -66.573001 
L 180.463105 -70.496567 
L 179.332692 -70.496567 
L 178.202279 -70.496567 
L 177.071866 -70.496567 
L 175.941454 -70.496567 
L 174.811041 -70.496567 
L 173.680628 -70.496567 
L 172.550215 -70.496567 
L 171.419802 -70.496567 
L 170.28939 -70.496567 
L 169.158977 -70.496567 
L 168.028564 -70.514301 
L 166.898151 -70.514301 
L 165.767739 -70.514301 
L 164.637326 -70.514301 
L 163.506913 -70.514301 
L 162.3765 -70.276433 
L 161.246088 -70.276433 
L 160.115675 -70.276433 
L 158.985262 -70.276433 
L 157.854849 -70.276433 
L 156.724437 -70.278521 
L 155.594024 -70.278521 
L 154.463611 -70.278521 
L 153.333198 -70.278521 
L 152.202786 -70.278521 
L 151.072373 -70.278521 
L 149.94196 -69.945473 
L 148.811547 -69.945473 
L 147.681134 -69.945473 
L 146.550722 -69.945473 
L 145.420309 -69.945473 
L 144.289896 -69.766411 
L 143.159483 -69.766411 
L 142.029071 -69.766411 
L 140.898658 -69.766411 
L 139.768245 -69.766411 
L 138.637832 -69.766411 
L 137.50742 -70.132978 
L 136.377007 -70.132978 
L 135.246594 -70.132978 
L 134.116181 -70.132978 
L 132.985769 -70.132978 
L 131.855356 -70.311911 
L 130.724943 -70.311911 
L 129.59453 -70.311911 
L 128.464117 -70.311911 
L 127.333705 -70.311911 
L 126.203292 -70.311911 
L 125.072879 -69.909912 
L 123.942466 -69.909912 
L 122.812054 -69.909912 
L 121.681641 -69.909912 
L 120.551228 -69.909912 
L 119.420815 -72.556652 
L 118.290403 -72.556652 
L 117.15999 -72.556652 
L 116.029577 -72.556652 
L 114.899164 -72.556652 
L 113.768752 -72.577228 
L 112.638339 -72.577228 
L 111.507926 -72.577228 
L 110.377513 -72.577228 
L 109.247101 -72.577228 
L 108.116688 -72.577228 
L 106.986275 -72.691505 
L 105.855862 -72.691505 
L 104.725449 -72.691505 
L 103.595037 -72.691505 
L 102.464624 -72.691505 
L 101.334211 -72.738823 
L 100.203798 -72.738823 
L 99.073386 -72.738823 
L 97.942973 -72.738823 
L 96.81256 -72.738823 
L 95.682147 -72.738823 
L 94.551735 -72.695112 
L 93.421322 -72.695112 
L 92.290909 -72.695112 
z
" style="stroke: #bddf26; stroke-opacity: 0.2"/>
    </defs>
    <g clip-path="url(#p3072b24cd9)">
     <use xlink:href="#mdf20f7089e" x="0" y="360" style="fill: #bddf26; fill-opacity: 0.2; stroke: #bddf26; stroke-opacity: 0.2"/>
    </g>
   </g>
   <g id="matplotlib.axis_1">
    <g id="xtick_1">
     <g id="line2d_1">
      <defs>
       <path id="m7499ca4cb5" d="M 0 0 
L 0 3.5 
" style="stroke: #000000; stroke-width: 0.8"/>
      </defs>
      <g>
       <use xlink:href="#m7499ca4cb5" x="116.88595" y="320.4" style="stroke: #000000; stroke-width: 0.8"/>
      </g>
     </g>
     <g id="text_1">
      <!-- $\mathdefault{100}$ -->
      <g transform="translate(106.277417 337.431808) scale(0.145 -0.145)">
       <defs>
        <path id="CMR17-31" d="M 1702 4058 
C 1702 4192 1696 4192 1606 4192 
C 1357 3916 979 3827 621 3827 
C 602 3827 570 3827 563 3808 
C 557 3795 557 3782 557 3648 
C 755 3648 1088 3686 1344 3839 
L 1344 461 
C 1344 236 1331 160 781 160 
L 589 160 
L 589 0 
C 896 0 1216 0 1523 0 
C 1830 0 2150 0 2458 0 
L 2458 160 
L 2266 160 
C 1715 160 1702 230 1702 458 
L 1702 4058 
z
" transform="scale(0.015625)"/>
        <path id="CMR17-30" d="M 2688 2025 
C 2688 2416 2682 3080 2413 3591 
C 2176 4039 1798 4198 1466 4198 
C 1158 4198 768 4058 525 3597 
C 269 3118 243 2524 243 2025 
C 243 1661 250 1106 448 619 
C 723 -39 1216 -128 1466 -128 
C 1760 -128 2208 -7 2470 600 
C 2662 1042 2688 1559 2688 2025 
z
M 1466 -26 
C 1056 -26 813 325 723 812 
C 653 1188 653 1738 653 2096 
C 653 2588 653 2997 736 3387 
C 858 3929 1216 4096 1466 4096 
C 1728 4096 2067 3923 2189 3400 
C 2272 3036 2278 2607 2278 2096 
C 2278 1680 2278 1169 2202 792 
C 2067 95 1690 -26 1466 -26 
z
" transform="scale(0.015625)"/>
       </defs>
       <use xlink:href="#CMR17-31" transform="scale(0.996264)"/>
       <use xlink:href="#CMR17-30" transform="translate(45.690477 0) scale(0.996264)"/>
       <use xlink:href="#CMR17-30" transform="translate(91.380954 0) scale(0.996264)"/>
      </g>
     </g>
    </g>
    <g id="xtick_2">
     <g id="line2d_2">
      <g>
       <use xlink:href="#m7499ca4cb5" x="178.373554" y="320.4" style="stroke: #000000; stroke-width: 0.8"/>
      </g>
     </g>
     <g id="text_2">
      <!-- $\mathdefault{200}$ -->
      <g transform="translate(167.76502 337.431808) scale(0.145 -0.145)">
       <defs>
        <path id="CMR17-32" d="M 2669 989 
L 2554 989 
C 2490 536 2438 459 2413 420 
C 2381 369 1920 369 1830 369 
L 602 369 
C 832 619 1280 1072 1824 1597 
C 2214 1967 2669 2402 2669 3035 
C 2669 3790 2067 4224 1395 4224 
C 691 4224 262 3604 262 3030 
C 262 2780 448 2748 525 2748 
C 589 2748 781 2787 781 3010 
C 781 3207 614 3264 525 3264 
C 486 3264 448 3258 422 3245 
C 544 3790 915 4058 1306 4058 
C 1862 4058 2227 3617 2227 3035 
C 2227 2479 1901 2000 1536 1584 
L 262 146 
L 262 0 
L 2515 0 
L 2669 989 
z
" transform="scale(0.015625)"/>
       </defs>
       <use xlink:href="#CMR17-32" transform="scale(0.996264)"/>
       <use xlink:href="#CMR17-30" transform="translate(45.690477 0) scale(0.996264)"/>
       <use xlink:href="#CMR17-30" transform="translate(91.380954 0) scale(0.996264)"/>
      </g>
     </g>
    </g>
    <g id="xtick_3">
     <g id="line2d_3">
      <g>
       <use xlink:href="#m7499ca4cb5" x="239.861157" y="320.4" style="stroke: #000000; stroke-width: 0.8"/>
      </g>
     </g>
     <g id="text_3">
      <!-- $\mathdefault{300}$ -->
      <g transform="translate(229.252624 337.431808) scale(0.145 -0.145)">
       <defs>
        <path id="CMR17-33" d="M 1414 2157 
C 1984 2157 2234 1662 2234 1090 
C 2234 320 1824 25 1453 25 
C 1114 25 563 194 390 693 
C 422 680 454 680 486 680 
C 640 680 755 782 755 948 
C 755 1133 614 1216 486 1216 
C 378 1216 211 1165 211 926 
C 211 335 787 -128 1466 -128 
C 2176 -128 2720 430 2720 1085 
C 2720 1707 2208 2157 1600 2227 
C 2086 2328 2554 2756 2554 3329 
C 2554 3820 2048 4179 1472 4179 
C 890 4179 378 3829 378 3329 
C 378 3110 544 3072 627 3072 
C 762 3072 877 3155 877 3321 
C 877 3486 762 3569 627 3569 
C 602 3569 570 3569 544 3557 
C 730 3959 1235 4032 1459 4032 
C 1683 4032 2106 3925 2106 3320 
C 2106 3143 2080 2828 1862 2550 
C 1670 2304 1453 2304 1242 2284 
C 1210 2284 1062 2269 1037 2269 
C 992 2263 966 2257 966 2208 
C 966 2163 973 2157 1101 2157 
L 1414 2157 
z
" transform="scale(0.015625)"/>
       </defs>
       <use xlink:href="#CMR17-33" transform="scale(0.996264)"/>
       <use xlink:href="#CMR17-30" transform="translate(45.690477 0) scale(0.996264)"/>
       <use xlink:href="#CMR17-30" transform="translate(91.380954 0) scale(0.996264)"/>
      </g>
     </g>
    </g>
    <g id="xtick_4">
     <g id="line2d_4">
      <g>
       <use xlink:href="#m7499ca4cb5" x="301.34876" y="320.4" style="stroke: #000000; stroke-width: 0.8"/>
      </g>
     </g>
     <g id="text_4">
      <!-- $\mathdefault{400}$ -->
      <g transform="translate(290.740227 337.431808) scale(0.145 -0.145)">
       <defs>
        <path id="CMR17-34" d="M 2150 4122 
C 2150 4256 2144 4256 2029 4256 
L 128 1254 
L 128 1088 
L 1779 1088 
L 1779 457 
C 1779 224 1766 160 1318 160 
L 1197 160 
L 1197 0 
C 1402 0 1747 0 1965 0 
C 2182 0 2528 0 2733 0 
L 2733 160 
L 2611 160 
C 2163 160 2150 224 2150 457 
L 2150 1088 
L 2803 1088 
L 2803 1254 
L 2150 1254 
L 2150 4122 
z
M 1798 3703 
L 1798 1254 
L 256 1254 
L 1798 3703 
z
" transform="scale(0.015625)"/>
       </defs>
       <use xlink:href="#CMR17-34" transform="scale(0.996264)"/>
       <use xlink:href="#CMR17-30" transform="translate(45.690477 0) scale(0.996264)"/>
       <use xlink:href="#CMR17-30" transform="translate(91.380954 0) scale(0.996264)"/>
      </g>
     </g>
    </g>
    <g id="xtick_5">
     <g id="line2d_5">
      <g>
       <use xlink:href="#m7499ca4cb5" x="362.836364" y="320.4" style="stroke: #000000; stroke-width: 0.8"/>
      </g>
     </g>
     <g id="text_5">
      <!-- $\mathdefault{500}$ -->
      <g transform="translate(352.22783 337.431808) scale(0.145 -0.145)">
       <defs>
        <path id="CMR17-35" d="M 730 3692 
C 794 3666 1056 3584 1325 3584 
C 1920 3584 2246 3911 2432 4100 
C 2432 4157 2432 4192 2394 4192 
C 2387 4192 2374 4192 2323 4163 
C 2099 4058 1837 3973 1517 3973 
C 1325 3973 1037 3999 723 4139 
C 653 4171 640 4171 634 4171 
C 602 4171 595 4164 595 4037 
L 595 2203 
C 595 2089 595 2057 659 2057 
C 691 2057 704 2070 736 2114 
C 941 2401 1222 2522 1542 2522 
C 1766 2522 2246 2382 2246 1289 
C 2246 1085 2246 715 2054 421 
C 1894 159 1645 25 1370 25 
C 947 25 518 320 403 814 
C 429 807 480 795 506 795 
C 589 795 749 840 749 1038 
C 749 1210 627 1280 506 1280 
C 358 1280 262 1190 262 1011 
C 262 454 704 -128 1382 -128 
C 2042 -128 2669 440 2669 1264 
C 2669 2030 2170 2624 1549 2624 
C 1222 2624 947 2503 730 2274 
L 730 3692 
z
" transform="scale(0.015625)"/>
       </defs>
       <use xlink:href="#CMR17-35" transform="scale(0.996264)"/>
       <use xlink:href="#CMR17-30" transform="translate(45.690477 0) scale(0.996264)"/>
       <use xlink:href="#CMR17-30" transform="translate(91.380954 0) scale(0.996264)"/>
      </g>
     </g>
    </g>
    <g id="xtick_6">
     <g id="line2d_6">
      <g>
       <use xlink:href="#m7499ca4cb5" x="424.323967" y="320.4" style="stroke: #000000; stroke-width: 0.8"/>
      </g>
     </g>
     <g id="text_6">
      <!-- $\mathdefault{600}$ -->
      <g transform="translate(413.715434 337.431808) scale(0.145 -0.145)">
       <defs>
        <path id="CMR17-36" d="M 678 2176 
C 678 3690 1395 4032 1811 4032 
C 1946 4032 2272 4009 2400 3776 
C 2298 3776 2106 3776 2106 3553 
C 2106 3381 2246 3323 2336 3323 
C 2394 3323 2566 3348 2566 3560 
C 2566 3954 2246 4179 1805 4179 
C 1043 4179 243 3390 243 1984 
C 243 253 966 -128 1478 -128 
C 2099 -128 2688 427 2688 1283 
C 2688 2081 2170 2662 1517 2662 
C 1126 2662 838 2407 678 1960 
L 678 2176 
z
M 1478 25 
C 691 25 691 1200 691 1436 
C 691 1896 909 2560 1504 2560 
C 1613 2560 1926 2560 2138 2120 
C 2253 1870 2253 1609 2253 1289 
C 2253 944 2253 690 2118 434 
C 1978 171 1773 25 1478 25 
z
" transform="scale(0.015625)"/>
       </defs>
       <use xlink:href="#CMR17-36" transform="scale(0.996264)"/>
       <use xlink:href="#CMR17-30" transform="translate(45.690477 0) scale(0.996264)"/>
       <use xlink:href="#CMR17-30" transform="translate(91.380954 0) scale(0.996264)"/>
      </g>
     </g>
    </g>
    <g id="xtick_7">
     <g id="line2d_7">
      <g>
       <use xlink:href="#m7499ca4cb5" x="485.81157" y="320.4" style="stroke: #000000; stroke-width: 0.8"/>
      </g>
     </g>
     <g id="text_7">
      <!-- $\mathdefault{700}$ -->
      <g transform="translate(475.203037 337.431808) scale(0.145 -0.145)">
       <defs>
        <path id="CMR17-37" d="M 2886 3941 
L 2886 4081 
L 1382 4081 
C 634 4081 621 4165 595 4288 
L 480 4288 
L 294 3094 
L 410 3094 
C 429 3215 474 3540 550 3661 
C 589 3712 1062 3712 1171 3712 
L 2579 3712 
L 1869 2661 
C 1395 1954 1069 999 1069 165 
C 1069 89 1069 -128 1299 -128 
C 1530 -128 1530 89 1530 171 
L 1530 465 
C 1530 1508 1709 2196 2003 2636 
L 2886 3941 
z
" transform="scale(0.015625)"/>
       </defs>
       <use xlink:href="#CMR17-37" transform="scale(0.996264)"/>
       <use xlink:href="#CMR17-30" transform="translate(45.690477 0) scale(0.996264)"/>
       <use xlink:href="#CMR17-30" transform="translate(91.380954 0) scale(0.996264)"/>
      </g>
     </g>
    </g>
    <g id="text_8">
     <!-- time (s) -->
     <g transform="translate(271.677317 355.075073) scale(0.145 -0.145)">
      <defs>
       <path id="CMSS17-74" d="M 1069 2368 
L 1901 2368 
L 1901 2737 
L 1069 2737 
L 1069 3520 
L 614 3520 
L 614 2737 
L 109 2737 
L 109 2368 
L 602 2368 
L 602 749 
C 602 384 685 -64 1107 -64 
C 1427 -64 1722 25 2003 172 
L 1901 548 
C 1747 414 1562 337 1363 337 
C 1082 337 1069 696 1069 856 
L 1069 2368 
z
" transform="scale(0.015625)"/>
       <path id="CMSS17-69" d="M 979 4183 
L 442 4183 
L 442 3648 
L 979 3648 
L 979 4183 
z
M 947 2739 
L 474 2739 
L 474 0 
L 947 0 
L 947 2739 
z
" transform="scale(0.015625)"/>
       <path id="CMSS17-6d" d="M 4288 1877 
C 4288 2308 4179 2816 3462 2816 
C 2982 2816 2694 2516 2566 2331 
C 2451 2670 2182 2816 1798 2816 
C 1363 2816 1088 2568 941 2389 
L 941 2758 
L 474 2758 
L 474 0 
L 960 0 
L 960 1559 
C 960 1939 1101 2428 1555 2428 
C 2138 2428 2138 2016 2138 1829 
L 2138 0 
L 2624 0 
L 2624 1559 
C 2624 1939 2765 2428 3219 2428 
C 3802 2428 3802 2016 3802 1829 
L 3802 0 
L 4288 0 
L 4288 1877 
z
" transform="scale(0.015625)"/>
       <path id="CMSS17-65" d="M 2502 1377 
C 2502 1590 2490 2003 2285 2345 
C 2061 2713 1696 2816 1421 2816 
C 755 2816 192 2188 192 1375 
C 192 582 774 -64 1510 -64 
C 1798 -64 2150 19 2470 248 
C 2470 274 2458 414 2451 420 
C 2451 433 2432 630 2432 656 
C 2125 407 1773 325 1517 325 
C 1107 325 666 667 646 1377 
L 2502 1377 
z
M 698 1728 
C 781 2084 1062 2421 1421 2421 
C 1517 2421 1965 2421 2080 1728 
L 698 1728 
z
" transform="scale(0.015625)"/>
       <path id="CMSS17-28" d="M 1613 4768 
C 1267 4417 474 3601 474 1588 
C 474 -433 1267 -1243 1613 -1600 
L 2003 -1600 
C 1216 -784 960 357 960 1581 
C 960 2798 1203 3946 2003 4768 
L 1613 4768 
z
" transform="scale(0.015625)"/>
       <path id="CMSS17-73" d="M 2061 2627 
C 1683 2807 1389 2807 1197 2807 
C 742 2807 198 2648 198 2003 
C 198 1359 902 1218 1094 1179 
C 1389 1122 1715 1058 1715 740 
C 1715 337 1254 337 1171 337 
C 915 337 563 407 243 638 
L 166 210 
C 531 0 883 -64 1178 -64 
C 1965 -64 2163 416 2163 781 
C 2163 1094 1984 1305 1862 1401 
C 1651 1568 1574 1587 1050 1696 
C 960 1709 646 1779 646 2066 
C 646 2432 1050 2432 1139 2432 
C 1555 2432 1811 2303 1984 2208 
L 2061 2627 
z
" transform="scale(0.015625)"/>
       <path id="CMSS17-29" d="M 723 -1600 
C 1069 -1249 1862 -433 1862 1581 
C 1862 3601 1069 4411 723 4768 
L 333 4768 
C 1120 3952 1376 2811 1376 1588 
C 1376 370 1133 -778 333 -1600 
L 723 -1600 
z
" transform="scale(0.015625)"/>
      </defs>
      <use xlink:href="#CMSS17-74" transform="scale(0.996264)"/>
      <use xlink:href="#CMSS17-69" transform="translate(33.831567 0) scale(0.996264)"/>
      <use xlink:href="#CMSS17-6d" transform="translate(56.01229 0) scale(0.996264)"/>
      <use xlink:href="#CMSS17-65" transform="translate(130.241544 0) scale(0.996264)"/>
      <use xlink:href="#CMSS17-28" transform="translate(203.109479 0) scale(0.996264)"/>
      <use xlink:href="#CMSS17-73" transform="translate(239.543393 0) scale(0.996264)"/>
      <use xlink:href="#CMSS17-29" transform="translate(275.456935 0) scale(0.996264)"/>
     </g>
    </g>
   </g>
   <g id="matplotlib.axis_2">
    <g id="ytick_1">
     <g id="line2d_8">
      <path d="M 72 320.4 
L 518.4 320.4 
" clip-path="url(#p3072b24cd9)" style="fill: none; stroke-dasharray: 1.85,0.8; stroke-dashoffset: 0; stroke: #808080; stroke-width: 0.5"/>
     </g>
     <g id="line2d_9">
      <defs>
       <path id="mdee9f70a2f" d="M 0 0 
L -3.5 0 
" style="stroke: #000000; stroke-width: 0.8"/>
      </defs>
      <g>
       <use xlink:href="#mdee9f70a2f" x="72" y="320.4" style="stroke: #000000; stroke-width: 0.8"/>
      </g>
     </g>
     <g id="text_9">
      <!-- $\mathdefault{0.0}$ -->
      <g transform="translate(46.926206 325.415904) scale(0.145 -0.145)">
       <defs>
        <path id="CMMI12-3a" d="M 1178 307 
C 1178 492 1024 619 870 619 
C 685 619 557 466 557 313 
C 557 128 710 0 864 0 
C 1050 0 1178 153 1178 307 
z
" transform="scale(0.015625)"/>
       </defs>
       <use xlink:href="#CMR17-30" transform="scale(0.996264)"/>
       <use xlink:href="#CMMI12-3a" transform="translate(45.690477 0) scale(0.996264)"/>
       <use xlink:href="#CMR17-30" transform="translate(72.787654 0) scale(0.996264)"/>
      </g>
     </g>
    </g>
    <g id="ytick_2">
     <g id="line2d_10">
      <path d="M 72 267.6 
L 518.4 267.6 
" clip-path="url(#p3072b24cd9)" style="fill: none; stroke-dasharray: 1.85,0.8; stroke-dashoffset: 0; stroke: #808080; stroke-width: 0.5"/>
     </g>
     <g id="line2d_11">
      <g>
       <use xlink:href="#mdee9f70a2f" x="72" y="267.6" style="stroke: #000000; stroke-width: 0.8"/>
      </g>
     </g>
     <g id="text_10">
      <!-- $\mathdefault{0.2}$ -->
      <g transform="translate(46.926206 272.615904) scale(0.145 -0.145)">
       <use xlink:href="#CMR17-30" transform="scale(0.996264)"/>
       <use xlink:href="#CMMI12-3a" transform="translate(45.690477 0) scale(0.996264)"/>
       <use xlink:href="#CMR17-32" transform="translate(72.787654 0) scale(0.996264)"/>
      </g>
     </g>
    </g>
    <g id="ytick_3">
     <g id="line2d_12">
      <path d="M 72 214.8 
L 518.4 214.8 
" clip-path="url(#p3072b24cd9)" style="fill: none; stroke-dasharray: 1.85,0.8; stroke-dashoffset: 0; stroke: #808080; stroke-width: 0.5"/>
     </g>
     <g id="line2d_13">
      <g>
       <use xlink:href="#mdee9f70a2f" x="72" y="214.8" style="stroke: #000000; stroke-width: 0.8"/>
      </g>
     </g>
     <g id="text_11">
      <!-- $\mathdefault{0.4}$ -->
      <g transform="translate(46.926206 219.815904) scale(0.145 -0.145)">
       <use xlink:href="#CMR17-30" transform="scale(0.996264)"/>
       <use xlink:href="#CMMI12-3a" transform="translate(45.690477 0) scale(0.996264)"/>
       <use xlink:href="#CMR17-34" transform="translate(72.787654 0) scale(0.996264)"/>
      </g>
     </g>
    </g>
    <g id="ytick_4">
     <g id="line2d_14">
      <path d="M 72 162 
L 518.4 162 
" clip-path="url(#p3072b24cd9)" style="fill: none; stroke-dasharray: 1.85,0.8; stroke-dashoffset: 0; stroke: #808080; stroke-width: 0.5"/>
     </g>
     <g id="line2d_15">
      <g>
       <use xlink:href="#mdee9f70a2f" x="72" y="162" style="stroke: #000000; stroke-width: 0.8"/>
      </g>
     </g>
     <g id="text_12">
      <!-- $\mathdefault{0.6}$ -->
      <g transform="translate(46.926206 167.015904) scale(0.145 -0.145)">
       <use xlink:href="#CMR17-30" transform="scale(0.996264)"/>
       <use xlink:href="#CMMI12-3a" transform="translate(45.690477 0) scale(0.996264)"/>
       <use xlink:href="#CMR17-36" transform="translate(72.787654 0) scale(0.996264)"/>
      </g>
     </g>
    </g>
    <g id="ytick_5">
     <g id="line2d_16">
      <path d="M 72 109.2 
L 518.4 109.2 
" clip-path="url(#p3072b24cd9)" style="fill: none; stroke-dasharray: 1.85,0.8; stroke-dashoffset: 0; stroke: #808080; stroke-width: 0.5"/>
     </g>
     <g id="line2d_17">
      <g>
       <use xlink:href="#mdee9f70a2f" x="72" y="109.2" style="stroke: #000000; stroke-width: 0.8"/>
      </g>
     </g>
     <g id="text_13">
      <!-- $\mathdefault{0.8}$ -->
      <g transform="translate(46.926206 114.215904) scale(0.145 -0.145)">
       <defs>
        <path id="CMR17-38" d="M 1741 2264 
C 2144 2467 2554 2773 2554 3263 
C 2554 3841 1990 4179 1472 4179 
C 890 4179 378 3759 378 3180 
C 378 3021 416 2747 666 2505 
C 730 2442 998 2251 1171 2130 
C 883 1983 211 1634 211 934 
C 211 279 838 -128 1459 -128 
C 2144 -128 2720 362 2720 1010 
C 2720 1590 2330 1857 2074 2029 
L 1741 2264 
z
M 902 2822 
C 851 2854 595 3051 595 3351 
C 595 3739 998 4032 1459 4032 
C 1965 4032 2336 3676 2336 3262 
C 2336 2669 1670 2331 1638 2331 
C 1632 2331 1626 2331 1574 2370 
L 902 2822 
z
M 2080 1519 
C 2176 1449 2483 1240 2483 851 
C 2483 381 2010 25 1472 25 
C 890 25 448 438 448 940 
C 448 1443 838 1862 1280 2060 
L 2080 1519 
z
" transform="scale(0.015625)"/>
       </defs>
       <use xlink:href="#CMR17-30" transform="scale(0.996264)"/>
       <use xlink:href="#CMMI12-3a" transform="translate(45.690477 0) scale(0.996264)"/>
       <use xlink:href="#CMR17-38" transform="translate(72.787654 0) scale(0.996264)"/>
      </g>
     </g>
    </g>
    <g id="ytick_6">
     <g id="line2d_18">
      <path d="M 72 56.4 
L 518.4 56.4 
" clip-path="url(#p3072b24cd9)" style="fill: none; stroke-dasharray: 1.85,0.8; stroke-dashoffset: 0; stroke: #808080; stroke-width: 0.5"/>
     </g>
     <g id="line2d_19">
      <g>
       <use xlink:href="#mdee9f70a2f" x="72" y="56.4" style="stroke: #000000; stroke-width: 0.8"/>
      </g>
     </g>
     <g id="text_14">
      <!-- $\mathdefault{1.0}$ -->
      <g transform="translate(46.926206 61.415904) scale(0.145 -0.145)">
       <use xlink:href="#CMR17-31" transform="scale(0.996264)"/>
       <use xlink:href="#CMMI12-3a" transform="translate(45.690477 0) scale(0.996264)"/>
       <use xlink:href="#CMR17-30" transform="translate(72.787654 0) scale(0.996264)"/>
      </g>
     </g>
    </g>
    <g id="text_15">
     <!-- QoS -->
     <g transform="translate(40.117312 194.481753) rotate(-90) scale(0.145 -0.145)">
      <defs>
       <path id="CMSS17-51" d="M 3200 202 
C 3981 833 4096 1689 4096 2174 
C 4096 3501 3219 4497 2214 4497 
C 1210 4497 333 3497 333 2178 
C 333 847 1222 -128 2214 -128 
C 2438 -128 2630 -77 2765 -26 
L 3302 -832 
L 3930 -832 
L 3200 202 
z
M 2528 324 
C 2438 293 2330 273 2214 273 
C 1523 273 858 993 858 2178 
C 858 3357 1517 4096 2214 4096 
C 2918 4096 3571 3350 3571 2178 
C 3571 1771 3507 1089 2950 566 
L 2490 1210 
L 1939 1210 
L 2528 324 
z
" transform="scale(0.015625)"/>
       <path id="CMSS17-6f" d="M 2829 1356 
C 2829 2176 2221 2816 1504 2816 
C 768 2816 173 2157 173 1356 
C 173 544 787 -64 1498 -64 
C 2227 -64 2829 563 2829 1356 
z
M 1504 337 
C 1050 337 659 709 659 1408 
C 659 2151 1114 2427 1498 2427 
C 1914 2427 2342 2126 2342 1408 
C 2342 683 1926 337 1504 337 
z
" transform="scale(0.015625)"/>
       <path id="CMSS17-53" d="M 2797 4169 
C 2515 4334 2208 4480 1690 4480 
C 864 4480 333 3879 333 3266 
C 333 3025 403 2753 653 2475 
C 902 2196 1184 2121 1542 2033 
C 1690 1994 1939 1924 1984 1906 
C 2342 1767 2515 1444 2515 1140 
C 2515 742 2202 318 1645 318 
C 1453 318 890 318 358 819 
L 269 318 
C 794 -64 1363 -128 1651 -128 
C 2438 -128 3002 488 3002 1186 
C 3002 1440 2925 1763 2656 2061 
C 2394 2347 2163 2410 1638 2549 
C 1338 2626 1146 2677 986 2873 
C 877 3013 819 3146 819 3317 
C 819 3673 1126 4060 1690 4060 
C 1971 4060 2336 4002 2707 3660 
L 2797 4169 
z
" transform="scale(0.015625)"/>
      </defs>
      <use xlink:href="#CMSS17-51" transform="scale(0.996264)"/>
      <use xlink:href="#CMSS17-6f" transform="translate(69.024255 0) scale(0.996264)"/>
      <use xlink:href="#CMSS17-53" transform="translate(115.867879 0) scale(0.996264)"/>
     </g>
    </g>
   </g>
   <g id="line2d_20">
    <path d="M 92.290909 163.528296 
L 119.420815 163.500576 
L 120.551228 190.59516 
L 125.072879 190.59516 
L 126.203292 195.819456 
L 131.855356 195.819456 
L 132.985769 195.208296 
L 137.50742 195.208296 
L 138.637832 195.347424 
L 162.3765 195.375144 
L 164.637326 195.458568 
L 180.463105 195.514008 
L 181.593517 215.91144 
L 187.245581 215.91144 
L 188.375994 230.278848 
L 192.897645 230.278848 
L 194.028058 229.667688 
L 199.680122 229.667688 
L 200.810534 230.167704 
L 205.332185 230.167704 
L 206.462598 229.917696 
L 242.635807 229.973136 
L 243.766219 236.058864 
L 248.28787 236.058864 
L 249.418283 265.738272 
L 255.070347 265.738272 
L 256.20076 267.822552 
L 260.722411 267.822552 
L 261.852823 268.267128 
L 291.243555 268.239144 
L 292.373968 268.405728 
L 298.026032 268.405728 
L 299.156445 268.239144 
L 310.460572 268.239144 
L 311.590985 244.979424 
L 316.112636 244.979424 
L 317.243049 237.448296 
L 321.7647 237.448296 
L 322.895113 236.865384 
L 328.547177 236.865384 
L 329.677589 236.587128 
L 340.981717 236.587128 
L 342.11213 236.781696 
L 346.633781 236.781696 
L 347.764193 236.615112 
L 359.068321 236.615112 
L 360.198734 236.86512 
L 365.850798 236.86512 
L 366.98121 236.726256 
L 371.502861 236.726256 
L 372.633274 226.415736 
L 377.154925 226.415736 
L 378.285338 210.548016 
L 383.937402 210.548016 
L 385.067815 208.908576 
L 414.458546 208.880592 
L 415.588959 208.741464 
L 421.241023 208.741464 
L 423.501849 208.852608 
L 432.545151 208.936032 
L 433.675563 211.21488 
L 439.327627 211.21488 
L 440.45804 190.956576 
L 444.979691 190.956576 
L 446.110104 188.872296 
L 451.762168 188.872296 
L 452.89258 188.511144 
L 487.935376 188.594304 
L 489.065789 188.81712 
L 494.717853 188.81712 
L 495.848265 188.678256 
L 498.109091 188.678256 
L 498.109091 188.678256 
" clip-path="url(#p3072b24cd9)" style="fill: none; stroke: #482475; stroke-width: 2.5; stroke-linecap: square"/>
   </g>
   <g id="line2d_21">
    <path d="M 92.290909 284.190024 
L 94.551735 284.190024 
L 96.81256 284.301432 
L 119.420815 284.384592 
L 120.551228 287.136 
L 125.072879 287.136 
L 126.203292 286.663704 
L 131.855356 286.663704 
L 132.985769 286.82976 
L 137.50742 286.82976 
L 138.637832 287.080032 
L 144.289896 287.080032 
L 146.550722 286.968888 
L 149.94196 286.968888 
L 151.072373 286.80204 
L 162.3765 286.77432 
L 163.506913 286.607736 
L 180.463105 286.552296 
L 181.593517 291.109807 
L 187.245581 291.109807 
L 188.375994 290.859931 
L 192.897645 290.859931 
L 194.028058 287.941939 
L 199.680122 287.941939 
L 200.810534 285.579641 
L 205.332185 285.579641 
L 206.462598 283.856645 
L 212.114662 283.856645 
L 213.245075 283.717966 
L 217.766726 283.717966 
L 218.897139 278.715958 
L 223.41879 278.715958 
L 224.549202 268.628254 
L 230.201266 268.628254 
L 231.331679 257.345501 
L 235.85333 257.345501 
L 236.983743 244.062314 
L 242.635807 244.062314 
L 243.766219 243.061913 
L 248.28787 243.061913 
L 249.418283 258.51312 
L 255.070347 258.51312 
L 256.20076 252.621696 
L 260.722411 252.621696 
L 261.852823 250.287144 
L 267.504887 250.287144 
L 269.765713 250.398288 
L 310.460572 250.453728 
L 311.590985 222.970272 
L 316.112636 222.970272 
L 317.243049 210.77004 
L 321.7647 210.77004 
L 322.895113 210.270816 
L 340.981717 210.270816 
L 342.11213 210.548544 
L 346.633781 210.548544 
L 347.764193 210.270816 
L 359.068321 210.270816 
L 360.198734 210.46512 
L 365.850798 210.46512 
L 368.111623 210.353976 
L 371.502861 210.353976 
L 372.633274 203.823408 
L 377.154925 203.823408 
L 378.285338 185.815968 
L 383.937402 185.815968 
L 385.067815 184.89804 
L 402.024006 184.87032 
L 403.154419 185.009448 
L 408.806483 185.009448 
L 409.936895 184.842336 
L 426.893087 184.87032 
L 428.0235 185.092608 
L 432.545151 185.092608 
L 433.675563 188.95572 
L 439.327627 188.95572 
L 440.45804 174.255144 
L 444.979691 174.255144 
L 446.110104 173.226864 
L 498.109091 173.115984 
L 498.109091 173.115984 
" clip-path="url(#p3072b24cd9)" style="fill: none; stroke: #bddf26; stroke-width: 2.5; stroke-linecap: square"/>
   </g>
   <g id="patch_3">
    <path d="M 72 320.4 
L 72 43.2 
" style="fill: none; stroke: #000000; stroke-width: 0.8; stroke-linejoin: miter; stroke-linecap: square"/>
   </g>
   <g id="patch_4">
    <path d="M 518.4 320.4 
L 518.4 43.2 
" style="fill: none; stroke: #000000; stroke-width: 0.8; stroke-linejoin: miter; stroke-linecap: square"/>
   </g>
   <g id="patch_5">
    <path d="M 72 320.4 
L 518.4 320.4 
" style="fill: none; stroke: #000000; stroke-width: 0.8; stroke-linejoin: miter; stroke-linecap: square"/>
   </g>
   <g id="text_16">
    <!-- $nt=Barabsi$ $d=1000$ $oc=1\%$ $l=costant$ -->
    <g transform="translate(130.029518 37.2) scale(0.18 -0.18)">
     <defs>
      <path id="CMMI12-6e" d="M 1318 1871 
C 1331 1910 1491 2229 1728 2433 
C 1894 2586 2112 2689 2362 2689 
C 2618 2689 2707 2497 2707 2242 
C 2707 1878 2445 1150 2317 805 
C 2259 651 2227 568 2227 453 
C 2227 166 2426 -64 2733 -64 
C 3328 -64 3552 875 3552 913 
C 3552 945 3526 971 3488 971 
C 3430 971 3424 952 3392 843 
C 3245 319 3002 64 2752 64 
C 2688 64 2586 64 2586 269 
C 2586 429 2656 621 2694 710 
C 2822 1063 3091 1780 3091 2145 
C 3091 2528 2867 2816 2381 2816 
C 1811 2816 1510 2415 1395 2255 
C 1376 2618 1114 2816 832 2816 
C 627 2816 486 2695 378 2478 
C 262 2248 173 1865 173 1839 
C 173 1814 198 1782 243 1782 
C 294 1782 301 1788 339 1935 
C 442 2325 557 2689 813 2689 
C 960 2689 1011 2586 1011 2395 
C 1011 2254 947 2005 902 1807 
L 723 1118 
C 698 996 627 709 595 594 
C 550 428 480 128 480 96 
C 480 6 550 -64 646 -64 
C 723 -64 813 -26 864 70 
C 877 102 934 326 966 453 
L 1107 1028 
L 1318 1871 
z
" transform="scale(0.015625)"/>
      <path id="CMMI12-74" d="M 1286 2566 
L 1875 2566 
C 1997 2566 2061 2566 2061 2681 
C 2061 2752 2022 2752 1894 2752 
L 1331 2752 
L 1568 3692 
C 1594 3781 1594 3794 1594 3840 
C 1594 3943 1510 4000 1427 4000 
C 1376 4000 1229 3981 1178 3775 
L 928 2752 
L 326 2752 
C 198 2752 141 2752 141 2630 
C 141 2566 186 2566 307 2566 
L 877 2566 
L 454 881 
C 403 658 384 594 384 511 
C 384 211 595 -64 954 -64 
C 1600 -64 1946 868 1946 912 
C 1946 951 1920 970 1882 970 
C 1869 970 1843 970 1830 944 
C 1824 938 1818 931 1773 829 
C 1638 511 1344 64 973 64 
C 781 64 768 224 768 364 
C 768 370 768 492 787 568 
L 1286 2566 
z
" transform="scale(0.015625)"/>
      <path id="CMR17-3d" d="M 4115 2017 
C 4211 2017 4307 2017 4307 2125 
C 4307 2240 4198 2240 4090 2240 
L 512 2240 
C 403 2240 294 2240 294 2125 
C 294 2017 390 2017 486 2017 
L 4115 2017 
z
M 4090 896 
C 4198 896 4307 896 4307 1011 
C 4307 1119 4211 1119 4115 1119 
L 486 1119 
C 390 1119 294 1119 294 1011 
C 294 896 403 896 512 896 
L 4090 896 
z
" transform="scale(0.015625)"/>
      <path id="CMMI12-42" d="M 2342 3921 
C 2400 4160 2426 4160 2675 4160 
L 3507 4160 
C 4230 4160 4230 3544 4230 3485 
C 4230 2966 3712 2304 2867 2304 
L 1946 2304 
L 2342 3921 
z
M 3424 2275 
C 4122 2402 4755 2886 4755 3473 
C 4755 3970 4314 4352 3590 4352 
L 1536 4352 
C 1414 4352 1357 4352 1357 4226 
C 1357 4160 1414 4160 1510 4160 
C 1901 4160 1901 4112 1901 4044 
C 1901 4032 1901 3993 1875 3897 
L 1011 472 
C 954 249 941 185 493 185 
C 371 185 307 185 307 70 
C 307 0 346 0 474 0 
L 2669 0 
C 3648 0 4403 739 4403 1383 
C 4403 1906 3942 2224 3424 2275 
z
M 2515 185 
L 1651 185 
C 1562 185 1549 185 1510 192 
C 1440 198 1434 211 1434 261 
C 1434 305 1446 343 1459 399 
L 1907 2176 
L 3110 2176 
C 3866 2176 3866 1483 3866 1433 
C 3866 828 3309 185 2515 185 
z
" transform="scale(0.015625)"/>
      <path id="CMMI12-61" d="M 1926 760 
C 1894 651 1894 639 1805 517 
C 1664 338 1382 64 1082 64 
C 819 64 672 300 672 677 
C 672 1028 870 1743 992 2012 
C 1210 2459 1510 2689 1760 2689 
C 2182 2689 2266 2165 2266 2114 
C 2266 2108 2246 2024 2240 2012 
L 1926 760 
z
M 2336 2395 
C 2266 2561 2093 2816 1760 2816 
C 1037 2816 256 1884 256 939 
C 256 307 627 -64 1062 -64 
C 1414 -64 1715 211 1894 422 
C 1958 45 2259 -64 2451 -64 
C 2643 -64 2797 51 2912 281 
C 3014 498 3104 888 3104 913 
C 3104 945 3078 971 3040 971 
C 2982 971 2976 939 2950 843 
C 2854 466 2733 64 2470 64 
C 2285 64 2272 230 2272 358 
C 2272 505 2291 575 2349 824 
C 2394 984 2426 1124 2477 1309 
C 2714 2267 2771 2497 2771 2535 
C 2771 2625 2701 2695 2605 2695 
C 2400 2695 2349 2472 2336 2395 
z
" transform="scale(0.015625)"/>
      <path id="CMMI12-72" d="M 2490 2612 
C 2291 2574 2189 2433 2189 2293 
C 2189 2139 2310 2088 2400 2088 
C 2579 2088 2726 2242 2726 2433 
C 2726 2638 2528 2816 2208 2816 
C 1952 2816 1658 2701 1389 2312 
C 1344 2650 1088 2816 832 2816 
C 582 2816 454 2625 378 2484 
C 269 2254 173 1871 173 1839 
C 173 1814 198 1782 243 1782 
C 294 1782 301 1788 339 1935 
C 435 2318 557 2689 813 2689 
C 966 2689 1011 2580 1011 2395 
C 1011 2254 947 2005 902 1807 
L 723 1118 
C 698 996 627 709 595 594 
C 550 428 480 128 480 96 
C 480 6 550 -64 646 -64 
C 717 -64 838 -19 877 109 
C 896 160 1133 1124 1171 1271 
C 1203 1411 1242 1546 1274 1686 
C 1299 1775 1325 1878 1344 1961 
C 1363 2018 1536 2331 1696 2472 
C 1773 2542 1939 2689 2202 2689 
C 2304 2689 2406 2670 2490 2612 
z
" transform="scale(0.015625)"/>
      <path id="CMMI12-62" d="M 1478 4257 
C 1485 4283 1498 4321 1498 4352 
C 1498 4416 1434 4416 1421 4416 
C 1414 4416 1184 4393 1069 4377 
C 960 4377 864 4358 749 4358 
C 595 4345 550 4339 550 4224 
C 550 4160 614 4160 678 4160 
C 1005 4160 1005 4103 1005 4040 
C 1005 3996 954 3811 928 3696 
L 774 3085 
C 710 2831 346 1387 320 1272 
C 288 1114 288 1005 288 922 
C 288 274 653 -64 1069 -64 
C 1811 -64 2579 888 2579 1814 
C 2579 2401 2246 2816 1766 2816 
C 1434 2816 1133 2542 1011 2414 
L 1478 4257 
z
M 1075 64 
C 870 64 646 217 646 715 
C 646 926 666 1047 781 1494 
C 800 1577 902 1986 928 2069 
C 941 2120 1318 2689 1754 2689 
C 2035 2689 2163 2408 2163 2076 
C 2163 1769 1984 1047 1824 715 
C 1664 370 1370 64 1075 64 
z
" transform="scale(0.015625)"/>
      <path id="CMMI12-73" d="M 1459 1280 
C 1568 1261 1741 1223 1779 1216 
C 1862 1192 2150 1090 2150 783 
C 2150 586 1971 70 1229 70 
C 1094 70 614 70 486 436 
C 742 404 870 603 870 745 
C 870 880 781 950 653 950 
C 512 950 326 841 326 552 
C 326 173 710 -64 1222 -64 
C 2195 -64 2483 651 2483 984 
C 2483 1079 2483 1258 2278 1462 
C 2118 1616 1965 1648 1619 1718 
C 1446 1756 1171 1814 1171 2101 
C 1171 2229 1286 2689 1894 2689 
C 2163 2689 2426 2589 2490 2368 
C 2208 2368 2195 2125 2195 2119 
C 2195 1984 2317 1946 2374 1946 
C 2464 1946 2643 2015 2643 2281 
C 2643 2545 2400 2816 1901 2816 
C 1062 2816 838 2160 838 1899 
C 838 1414 1312 1312 1459 1280 
z
" transform="scale(0.015625)"/>
      <path id="CMMI12-69" d="M 1811 913 
C 1811 945 1786 971 1747 971 
C 1690 971 1683 952 1651 843 
C 1485 262 1222 64 1011 64 
C 934 64 845 83 845 275 
C 845 447 922 639 992 830 
L 1440 2018 
C 1459 2069 1504 2184 1504 2305 
C 1504 2574 1312 2816 998 2816 
C 410 2816 173 1890 173 1839 
C 173 1814 198 1782 243 1782 
C 301 1782 307 1807 333 1896 
C 486 2428 730 2682 979 2682 
C 1037 2682 1146 2682 1146 2478 
C 1146 2312 1062 2101 1011 1961 
L 563 773 
C 525 671 486 568 486 453 
C 486 166 685 -64 992 -64 
C 1581 -64 1811 869 1811 913 
z
M 1760 4013 
C 1760 4109 1683 4224 1542 4224 
C 1395 4224 1229 4083 1229 3917 
C 1229 3758 1363 3707 1440 3707 
C 1613 3707 1760 3873 1760 4013 
z
" transform="scale(0.015625)"/>
      <path id="CMMI12-64" d="M 3219 4257 
C 3226 4282 3238 4320 3238 4352 
C 3238 4416 3174 4416 3162 4416 
C 3155 4416 2842 4388 2810 4380 
C 2701 4373 2605 4358 2490 4358 
C 2330 4345 2285 4339 2285 4224 
C 2285 4160 2336 4160 2426 4160 
C 2739 4160 2746 4103 2746 4040 
C 2746 4002 2733 3952 2726 3933 
L 2336 2395 
C 2266 2561 2093 2816 1760 2816 
C 1037 2816 256 1884 256 939 
C 256 307 627 -64 1062 -64 
C 1414 -64 1715 211 1894 422 
C 1958 45 2259 -64 2451 -64 
C 2643 -64 2797 51 2912 281 
C 3014 498 3104 888 3104 913 
C 3104 945 3078 971 3040 971 
C 2982 971 2976 939 2950 843 
C 2854 466 2733 64 2470 64 
C 2285 64 2272 229 2272 357 
C 2272 382 2272 515 2317 694 
L 3219 4257 
z
M 1926 760 
C 1894 651 1894 639 1805 517 
C 1664 338 1382 64 1082 64 
C 819 64 672 300 672 677 
C 672 1028 870 1743 992 2012 
C 1210 2459 1510 2689 1760 2689 
C 2182 2689 2266 2165 2266 2114 
C 2266 2108 2246 2024 2240 2012 
L 1926 760 
z
" transform="scale(0.015625)"/>
      <path id="CMMI12-6f" d="M 2918 1756 
C 2918 2363 2522 2816 1939 2816 
C 1094 2816 262 1897 262 996 
C 262 390 659 -64 1242 -64 
C 2093 -64 2918 856 2918 1756 
z
M 1248 64 
C 928 64 691 319 691 766 
C 691 1060 845 1712 1024 2031 
C 1312 2523 1670 2689 1933 2689 
C 2246 2689 2490 2433 2490 1986 
C 2490 1731 2355 1047 2112 658 
C 1850 230 1498 64 1248 64 
z
" transform="scale(0.015625)"/>
      <path id="CMMI12-63" d="M 2502 2431 
C 2381 2431 2323 2431 2234 2355 
C 2195 2323 2125 2227 2125 2125 
C 2125 1997 2221 1920 2342 1920 
C 2496 1920 2669 2044 2669 2292 
C 2669 2588 2374 2816 1933 2816 
C 1094 2816 256 1903 256 996 
C 256 441 602 -64 1254 -64 
C 2125 -64 2675 622 2675 706 
C 2675 744 2637 776 2611 776 
C 2592 776 2586 770 2528 713 
C 2118 162 1510 64 1267 64 
C 826 64 685 446 685 764 
C 685 988 794 1605 1024 2039 
C 1190 2338 1536 2682 1939 2682 
C 2022 2682 2374 2682 2502 2431 
z
" transform="scale(0.015625)"/>
      <path id="CMR17-25" d="M 4640 959 
C 4640 1698 4275 2240 3846 2240 
C 3411 2240 2970 1736 2970 959 
C 2970 183 3405 -320 3846 -320 
C 4275 -320 4640 215 4640 959 
z
M 3853 -218 
C 3686 -218 3270 -66 3270 959 
C 3270 1991 3686 2138 3853 2138 
C 4205 2138 4525 1634 4525 959 
C 4525 285 4205 -218 3853 -218 
z
M 4083 4577 
C 4128 4647 4134 4653 4134 4685 
C 4134 4761 4077 4800 4026 4800 
C 3962 4800 3936 4756 3891 4706 
C 3520 4190 3008 4134 2746 4134 
C 2106 4134 1715 4494 1594 4607 
C 1510 4682 1389 4800 1171 4800 
C 736 4800 294 4296 294 3519 
C 294 2743 730 2240 1171 2240 
C 1600 2240 1965 2778 1965 3527 
C 1965 3969 1830 4270 1811 4308 
C 2202 4064 2586 4032 2752 4032 
C 3162 4032 3456 4183 3616 4289 
L 3622 4283 
L 858 -84 
C 800 -174 800 -187 800 -206 
C 800 -276 858 -320 915 -320 
C 973 -320 992 -289 1037 -218 
L 4083 4577 
z
M 1178 2342 
C 1011 2342 595 2494 595 3519 
C 595 4551 1011 4698 1178 4698 
C 1530 4698 1850 4194 1850 3519 
C 1850 2845 1530 2342 1178 2342 
z
" transform="scale(0.015625)"/>
      <path id="CMMI12-6c" d="M 1626 4257 
C 1632 4282 1645 4320 1645 4352 
C 1645 4416 1581 4416 1568 4416 
C 1562 4416 1331 4393 1216 4377 
C 1107 4377 1011 4358 896 4358 
C 742 4345 698 4339 698 4224 
C 698 4160 762 4160 826 4160 
C 1152 4160 1152 4102 1152 4039 
C 1152 4014 1152 4001 1120 3887 
L 326 731 
C 307 661 294 610 294 509 
C 294 191 531 -64 858 -64 
C 1069 -64 1210 76 1312 274 
C 1421 483 1510 884 1510 909 
C 1510 941 1485 967 1446 967 
C 1389 967 1382 935 1357 840 
C 1242 401 1126 64 870 64 
C 678 64 678 267 678 357 
C 678 382 678 515 723 694 
L 1626 4257 
z
" transform="scale(0.015625)"/>
     </defs>
     <use xlink:href="#CMMI12-6e" transform="scale(0.996264)"/>
     <use xlink:href="#CMMI12-74" transform="translate(58.230047 0) scale(0.996264)"/>
     <use xlink:href="#CMR17-3d" transform="translate(121.130386 0) scale(0.996264)"/>
     <use xlink:href="#CMMI12-42" transform="translate(220.519183 0) scale(0.996264)"/>
     <use xlink:href="#CMMI12-61" transform="translate(299.654707 0) scale(0.996264)"/>
     <use xlink:href="#CMMI12-72" transform="translate(350.862564 0) scale(0.996264)"/>
     <use xlink:href="#CMMI12-61" transform="translate(397.533176 0) scale(0.996264)"/>
     <use xlink:href="#CMMI12-62" transform="translate(448.741034 0) scale(0.996264)"/>
     <use xlink:href="#CMMI12-73" transform="translate(490.216908 0) scale(0.996264)"/>
     <use xlink:href="#CMMI12-69" transform="translate(536.166956 0) scale(0.996264)"/>
     <use xlink:href="#CMMI12-64" transform="translate(600.67467 0) scale(0.996264)"/>
     <use xlink:href="#CMR17-3d" transform="translate(679.037776 0) scale(0.996264)"/>
     <use xlink:href="#CMR17-31" transform="translate(778.426573 0) scale(0.996264)"/>
     <use xlink:href="#CMR17-30" transform="translate(824.11705 0) scale(0.996264)"/>
     <use xlink:href="#CMR17-30" transform="translate(869.807527 0) scale(0.996264)"/>
     <use xlink:href="#CMR17-30" transform="translate(915.498004 0) scale(0.996264)"/>
     <use xlink:href="#CMMI12-6f" transform="translate(992.417594 0) scale(0.996264)"/>
     <use xlink:href="#CMMI12-63" transform="translate(1039.312904 0) scale(0.996264)"/>
     <use xlink:href="#CMR17-3d" transform="translate(1108.970146 0) scale(0.996264)"/>
     <use xlink:href="#CMR17-31" transform="translate(1208.358943 0) scale(0.996264)"/>
     <use xlink:href="#CMR17-25" transform="translate(1254.04942 0) scale(0.996264)"/>
     <use xlink:href="#CMMI12-6c" transform="translate(1362.198123 0) scale(0.996264)"/>
     <use xlink:href="#CMR17-3d" transform="translate(1421.120536 0) scale(0.996264)"/>
     <use xlink:href="#CMMI12-63" transform="translate(1520.509333 0) scale(0.996264)"/>
     <use xlink:href="#CMMI12-6f" transform="translate(1562.492566 0) scale(0.996264)"/>
     <use xlink:href="#CMMI12-73" transform="translate(1609.387876 0) scale(0.996264)"/>
     <use xlink:href="#CMMI12-74" transform="translate(1655.337923 0) scale(0.996264)"/>
     <use xlink:href="#CMMI12-61" transform="translate(1690.564254 0) scale(0.996264)"/>
     <use xlink:href="#CMMI12-6e" transform="translate(1741.772111 0) scale(0.996264)"/>
     <use xlink:href="#CMMI12-74" transform="translate(1800.002159 0) scale(0.996264)"/>
    </g>
   </g>
  </g>
  <g id="axes_2">
   <g id="matplotlib.axis_3">
    <g id="ytick_7">
     <g id="line2d_22">
      <defs>
       <path id="ma4d853c707" d="M 0 0 
L 3.5 0 
" style="stroke: #000000; stroke-width: 0.8"/>
      </defs>
      <g>
       <use xlink:href="#ma4d853c707" x="518.4" y="320.4" style="stroke: #000000; stroke-width: 0.8"/>
      </g>
     </g>
     <g id="text_17">
      <!-- $\mathdefault{0}$ -->
      <g transform="translate(525.4 325.415904) scale(0.145 -0.145)">
       <use xlink:href="#CMR17-30" transform="scale(0.996264)"/>
      </g>
     </g>
    </g>
    <g id="ytick_8">
     <g id="line2d_23">
      <g>
       <use xlink:href="#ma4d853c707" x="518.4" y="264.987706" style="stroke: #000000; stroke-width: 0.8"/>
      </g>
     </g>
     <g id="text_18">
      <!-- $\mathdefault{20}$ -->
      <g transform="translate(525.4 270.00361) scale(0.145 -0.145)">
       <use xlink:href="#CMR17-32" transform="scale(0.996264)"/>
       <use xlink:href="#CMR17-30" transform="translate(45.690477 0) scale(0.996264)"/>
      </g>
     </g>
    </g>
    <g id="ytick_9">
     <g id="line2d_24">
      <g>
       <use xlink:href="#ma4d853c707" x="518.4" y="209.575412" style="stroke: #000000; stroke-width: 0.8"/>
      </g>
     </g>
     <g id="text_19">
      <!-- $\mathdefault{40}$ -->
      <g transform="translate(525.4 214.591316) scale(0.145 -0.145)">
       <use xlink:href="#CMR17-34" transform="scale(0.996264)"/>
       <use xlink:href="#CMR17-30" transform="translate(45.690477 0) scale(0.996264)"/>
      </g>
     </g>
    </g>
    <g id="ytick_10">
     <g id="line2d_25">
      <g>
       <use xlink:href="#ma4d853c707" x="518.4" y="154.163118" style="stroke: #000000; stroke-width: 0.8"/>
      </g>
     </g>
     <g id="text_20">
      <!-- $\mathdefault{60}$ -->
      <g transform="translate(525.4 159.179023) scale(0.145 -0.145)">
       <use xlink:href="#CMR17-36" transform="scale(0.996264)"/>
       <use xlink:href="#CMR17-30" transform="translate(45.690477 0) scale(0.996264)"/>
      </g>
     </g>
    </g>
    <g id="ytick_11">
     <g id="line2d_26">
      <g>
       <use xlink:href="#ma4d853c707" x="518.4" y="98.750825" style="stroke: #000000; stroke-width: 0.8"/>
      </g>
     </g>
     <g id="text_21">
      <!-- $\mathdefault{80}$ -->
      <g transform="translate(525.4 103.766729) scale(0.145 -0.145)">
       <use xlink:href="#CMR17-38" transform="scale(0.996264)"/>
       <use xlink:href="#CMR17-30" transform="translate(45.690477 0) scale(0.996264)"/>
      </g>
     </g>
    </g>
    <g id="ytick_12">
     <g id="line2d_27">
      <g>
       <use xlink:href="#ma4d853c707" x="518.4" y="43.338531" style="stroke: #000000; stroke-width: 0.8"/>
      </g>
     </g>
     <g id="text_22">
      <!-- $\mathdefault{100}$ -->
      <g transform="translate(525.4 48.354435) scale(0.145 -0.145)">
       <use xlink:href="#CMR17-31" transform="scale(0.996264)"/>
       <use xlink:href="#CMR17-30" transform="translate(45.690477 0) scale(0.996264)"/>
       <use xlink:href="#CMR17-30" transform="translate(91.380954 0) scale(0.996264)"/>
      </g>
     </g>
    </g>
    <g id="text_23">
     <!-- CPU load in \% -->
     <g transform="translate(560.648875 226.102524) rotate(-90) scale(0.145 -0.145)">
      <defs>
       <path id="CMSS17-43" d="M 3501 714 
C 3072 427 2874 344 2355 344 
C 1459 344 934 1303 934 2179 
C 934 3112 1472 4032 2381 4032 
C 2790 4032 3059 3918 3386 3715 
L 3475 4217 
C 3168 4370 2778 4440 2387 4440 
C 1158 4440 397 3316 397 2179 
C 397 927 1299 -64 2323 -64 
C 2874 -64 3066 -19 3539 280 
L 3501 714 
z
" transform="scale(0.015625)"/>
       <path id="CMSS17-50" d="M 2106 1856 
C 2874 1856 3501 2453 3501 3158 
C 3501 3850 2899 4453 2067 4453 
L 570 4453 
L 570 0 
L 1107 0 
L 1107 1856 
L 2106 1856 
z
M 1926 4096 
C 2669 4096 2995 3627 2995 3157 
C 2995 2720 2694 2226 1926 2226 
L 1094 2226 
L 1094 4096 
L 1926 4096 
z
" transform="scale(0.015625)"/>
       <path id="CMSS17-55" d="M 3552 4384 
L 3066 4384 
L 3066 1449 
C 3066 604 2547 229 2074 229 
C 1587 229 1101 623 1101 1443 
L 1101 4384 
L 563 4384 
L 563 1454 
C 563 539 1274 -128 2067 -128 
C 2861 -128 3552 539 3552 1454 
L 3552 4384 
z
" transform="scale(0.015625)"/>
       <path id="CMSS17-6c" d="M 947 4416 
L 474 4416 
L 474 0 
L 947 0 
L 947 4416 
z
" transform="scale(0.015625)"/>
       <path id="CMSS17-61" d="M 2406 1791 
C 2406 2392 1978 2808 1402 2808 
C 1120 2808 813 2757 461 2553 
L 499 2135 
C 659 2248 934 2432 1395 2432 
C 1722 2432 1920 2180 1920 1782 
L 1920 1536 
C 896 1536 256 1238 256 726 
C 256 461 416 -64 947 -64 
C 1043 -64 1562 -64 1933 217 
L 1933 -19 
L 2406 -19 
L 2406 1791 
z
M 1920 816 
C 1920 701 1920 548 1728 434 
C 1562 325 1350 325 1261 325 
C 941 325 723 511 723 744 
C 723 1211 1722 1211 1920 1211 
L 1920 816 
z
" transform="scale(0.015625)"/>
       <path id="CMSS17-64" d="M 2611 4416 
L 2138 4416 
L 2138 2438 
C 1939 2603 1613 2756 1254 2756 
C 672 2756 211 2131 211 1347 
C 211 562 666 -64 1235 -64 
C 1677 -64 1971 172 2125 306 
L 2125 -13 
L 2611 -13 
L 2611 4416 
z
M 2125 836 
C 2125 747 2125 653 1926 482 
C 1798 375 1645 325 1498 325 
C 1152 325 698 576 698 1340 
C 698 2134 1210 2368 1562 2368 
C 1798 2368 1990 2254 2125 2065 
L 2125 836 
z
" transform="scale(0.015625)"/>
       <path id="CMSS17-6e" d="M 2618 1877 
C 2618 2283 2522 2816 1798 2816 
C 1389 2816 1120 2606 941 2389 
L 941 2758 
L 474 2758 
L 474 0 
L 960 0 
L 960 1559 
C 960 1964 1114 2428 1549 2428 
C 2112 2428 2131 2048 2131 1829 
L 2131 0 
L 2618 0 
L 2618 1877 
z
" transform="scale(0.015625)"/>
       <path id="CMSS17-25" d="M 3923 4583 
C 3962 4647 3962 4679 3962 4685 
C 3962 4755 3904 4800 3853 4800 
C 3782 4800 3750 4749 3718 4685 
L 1101 -104 
C 1088 -129 1062 -167 1062 -206 
C 1062 -276 1120 -320 1178 -320 
C 1235 -320 1248 -295 1299 -206 
L 3923 4583 
z
M 4678 959 
C 4678 1698 4282 2240 3846 2240 
C 3418 2240 3008 1711 3008 959 
C 3008 208 3418 -320 3846 -320 
C 4288 -320 4678 221 4678 959 
z
M 3846 68 
C 3712 68 3494 189 3494 959 
C 3494 1724 3712 1851 3846 1851 
C 4083 1851 4211 1386 4211 959 
C 4211 533 4083 68 3846 68 
z
M 2003 3519 
C 2003 4258 1606 4800 1171 4800 
C 742 4800 333 4271 333 3519 
C 333 2768 742 2240 1171 2240 
C 1613 2240 2003 2781 2003 3519 
z
M 1171 2628 
C 1037 2628 819 2749 819 3519 
C 819 4284 1037 4411 1171 4411 
C 1408 4411 1536 3946 1536 3519 
C 1536 3093 1408 2628 1171 2628 
z
" transform="scale(0.015625)"/>
      </defs>
      <use xlink:href="#CMSS17-43" transform="scale(0.996264)"/>
      <use xlink:href="#CMSS17-50" transform="translate(59.855772 0) scale(0.996264)"/>
      <use xlink:href="#CMSS17-55" transform="translate(119.591358 0) scale(0.996264)"/>
      <use xlink:href="#CMSS17-6c" transform="translate(214.960211 0) scale(0.996264)"/>
      <use xlink:href="#CMSS17-6f" transform="translate(237.140934 0) scale(0.996264)"/>
      <use xlink:href="#CMSS17-61" transform="translate(283.984557 0) scale(0.996264)"/>
      <use xlink:href="#CMSS17-64" transform="translate(328.906478 0) scale(0.996264)"/>
      <use xlink:href="#CMSS17-69" transform="translate(408.340534 0) scale(0.996264)"/>
      <use xlink:href="#CMSS17-6e" transform="translate(430.521257 0) scale(0.996264)"/>
      <use xlink:href="#CMSS17-25" transform="translate(509.955313 0) scale(0.996264)"/>
     </g>
    </g>
   </g>
   <g id="line2d_28">
    <path d="M 92.290909 112.603898 
L 498.109091 112.603898 
L 498.109091 112.603898 
" clip-path="url(#p3072b24cd9)" style="fill: none; stroke-dasharray: 5.55,2.4; stroke-dashoffset: 0; stroke: #140e36; stroke-width: 1.5"/>
   </g>
   <g id="line2d_29">
    <path d="M 92.290909 50.303856 
L 119.420815 50.292774 
L 120.551228 48.802183 
L 131.855356 48.6969 
L 144.289896 48.685817 
L 180.463105 48.707982 
L 181.593517 48.209271 
L 187.245581 48.209271 
L 188.375994 47.588654 
L 248.28787 47.610819 
L 249.418283 47.21185 
L 310.460572 47.217391 
L 311.590985 47.788138 
L 316.112636 47.788138 
L 317.243049 47.566489 
L 371.502861 47.566489 
L 372.633274 50.359268 
L 377.154925 50.359268 
L 378.285338 48.630405 
L 432.545151 48.619322 
L 433.675563 55.302045 
L 439.327627 55.302045 
L 440.45804 50.021253 
L 498.109091 49.971382 
L 498.109091 49.971382 
" clip-path="url(#p3072b24cd9)" style="fill: none; stroke-dasharray: 5.55,2.4; stroke-dashoffset: 0; stroke: #fecf92; stroke-width: 1.5"/>
   </g>
   <g id="patch_6">
    <path d="M 72 320.4 
L 72 43.2 
" style="fill: none; stroke: #000000; stroke-width: 0.8; stroke-linejoin: miter; stroke-linecap: square"/>
   </g>
   <g id="patch_7">
    <path d="M 518.4 320.4 
L 518.4 43.2 
" style="fill: none; stroke: #000000; stroke-width: 0.8; stroke-linejoin: miter; stroke-linecap: square"/>
   </g>
   <g id="patch_8">
    <path d="M 72 320.4 
L 518.4 320.4 
" style="fill: none; stroke: #000000; stroke-width: 0.8; stroke-linejoin: miter; stroke-linecap: square"/>
   </g>
   <g id="patch_9">
    <path d="M 72 43.2 
L 518.4 43.2 
" style="fill: none; stroke: #000000; stroke-width: 0.8; stroke-linejoin: miter; stroke-linecap: square"/>
   </g>
   <g id="legend_1">
    <g id="patch_10">
     <path d="M 347.090605 313.15 
L 508.25 313.15 
Q 511.15 313.15 511.15 310.25 
L 511.15 224.916687 
Q 511.15 222.016687 508.25 222.016687 
L 347.090605 222.016687 
Q 344.190605 222.016687 344.190605 224.916687 
L 344.190605 310.25 
Q 344.190605 313.15 347.090605 313.15 
z
" style="fill: #ffffff; opacity: 0.7; stroke: #cccccc; stroke-linejoin: miter"/>
    </g>
    <g id="line2d_30">
     <path d="M 349.990605 233.576059 
L 364.490605 233.576059 
L 378.990605 233.576059 
" style="fill: none; stroke: #482475; stroke-width: 2.5; stroke-linecap: square"/>
    </g>
    <g id="text_24">
     <!-- QoS [static] -->
     <g transform="translate(390.590605 238.651059) scale(0.145 -0.145)">
      <defs>
       <path id="CMSS17-5b" d="M 1613 -1600 
L 1613 -1212 
L 1062 -1212 
L 1062 4352 
L 1613 4352 
L 1613 4741 
L 595 4741 
L 595 -1600 
L 1613 -1600 
z
" transform="scale(0.015625)"/>
       <path id="CMSS17-63" d="M 2464 2541 
C 2464 2585 2170 2714 2093 2739 
C 1882 2816 1613 2816 1542 2816 
C 710 2816 211 2093 211 1363 
C 211 595 768 -64 1517 -64 
C 1946 -64 2253 76 2502 242 
L 2464 664 
C 2189 453 1869 337 1523 337 
C 1024 337 698 774 698 1369 
C 698 1831 909 2414 1549 2414 
C 1901 2414 2099 2343 2394 2145 
L 2464 2541 
z
" transform="scale(0.015625)"/>
       <path id="CMSS17-5d" d="M 1146 4741 
L 128 4741 
L 128 4352 
L 678 4352 
L 678 -1212 
L 128 -1212 
L 128 -1600 
L 1146 -1600 
L 1146 4741 
z
" transform="scale(0.015625)"/>
      </defs>
      <use xlink:href="#CMSS17-51" transform="scale(0.996264)"/>
      <use xlink:href="#CMSS17-6f" transform="translate(69.024255 0) scale(0.996264)"/>
      <use xlink:href="#CMSS17-53" transform="translate(115.867879 0) scale(0.996264)"/>
      <use xlink:href="#CMSS17-5b" transform="translate(199.145508 0) scale(0.996264)"/>
      <use xlink:href="#CMSS17-73" transform="translate(226.330946 0) scale(0.996264)"/>
      <use xlink:href="#CMSS17-74" transform="translate(262.244488 0) scale(0.996264)"/>
      <use xlink:href="#CMSS17-61" transform="translate(296.076055 0) scale(0.996264)"/>
      <use xlink:href="#CMSS17-74" transform="translate(340.997976 0) scale(0.996264)"/>
      <use xlink:href="#CMSS17-69" transform="translate(374.829542 0) scale(0.996264)"/>
      <use xlink:href="#CMSS17-63" transform="translate(397.010265 0) scale(0.996264)"/>
      <use xlink:href="#CMSS17-5d" transform="translate(438.649088 0) scale(0.996264)"/>
     </g>
    </g>
    <g id="line2d_31">
     <path d="M 349.990605 255.271887 
L 364.490605 255.271887 
L 378.990605 255.271887 
" style="fill: none; stroke: #bddf26; stroke-width: 2.5; stroke-linecap: square"/>
    </g>
    <g id="text_25">
     <!-- QoS [dynamic] -->
     <g transform="translate(390.590605 260.346887) scale(0.145 -0.145)">
      <defs>
       <path id="CMSS17-79" d="M 2675 2752 
L 2176 2752 
C 1632 1294 1446 702 1434 383 
L 1427 383 
C 1408 696 1126 1460 902 2007 
L 602 2752 
L 83 2752 
L 1216 13 
C 1146 -178 1043 -465 1011 -529 
C 870 -885 774 -885 672 -885 
C 646 -885 442 -885 211 -809 
L 250 -1229 
C 410 -1261 570 -1280 685 -1280 
C 845 -1280 1165 -1280 1459 -497 
L 2675 2752 
z
" transform="scale(0.015625)"/>
      </defs>
      <use xlink:href="#CMSS17-51" transform="scale(0.996264)"/>
      <use xlink:href="#CMSS17-6f" transform="translate(69.024255 0) scale(0.996264)"/>
      <use xlink:href="#CMSS17-53" transform="translate(115.867879 0) scale(0.996264)"/>
      <use xlink:href="#CMSS17-5b" transform="translate(199.145508 0) scale(0.996264)"/>
      <use xlink:href="#CMSS17-64" transform="translate(226.330946 0) scale(0.996264)"/>
      <use xlink:href="#CMSS17-79" transform="translate(274.53589 0) scale(0.996264)"/>
      <use xlink:href="#CMSS17-6e" transform="translate(317.536031 0) scale(0.996264)"/>
      <use xlink:href="#CMSS17-61" transform="translate(365.740974 0) scale(0.996264)"/>
      <use xlink:href="#CMSS17-6d" transform="translate(410.662895 0) scale(0.996264)"/>
      <use xlink:href="#CMSS17-69" transform="translate(484.892149 0) scale(0.996264)"/>
      <use xlink:href="#CMSS17-63" transform="translate(507.072872 0) scale(0.996264)"/>
      <use xlink:href="#CMSS17-5d" transform="translate(548.711695 0) scale(0.996264)"/>
     </g>
    </g>
    <g id="line2d_32">
     <path d="M 349.990605 276.967715 
L 364.490605 276.967715 
L 378.990605 276.967715 
" style="fill: none; stroke-dasharray: 5.55,2.4; stroke-dashoffset: 0; stroke: #140e36; stroke-width: 1.5"/>
    </g>
    <g id="text_26">
     <!-- Load driver (right) -->
     <g transform="translate(390.590605 282.042715) scale(0.145 -0.145)">
      <defs>
       <path id="CMSS17-4c" d="M 1670 414 
C 1594 414 1517 414 1440 414 
L 1101 414 
L 1101 4416 
L 563 4416 
L 563 0 
L 3002 0 
L 3002 414 
L 1670 414 
z
" transform="scale(0.015625)"/>
       <path id="CMSS17-72" d="M 954 1363 
C 954 1965 1395 2368 1958 2368 
L 1958 2789 
C 1549 2789 1165 2585 934 2253 
L 934 2758 
L 480 2758 
L 480 0 
L 954 0 
L 954 1363 
z
" transform="scale(0.015625)"/>
       <path id="CMSS17-76" d="M 2675 2752 
L 2176 2752 
L 1747 1556 
C 1613 1165 1421 627 1389 352 
L 1382 352 
C 1370 468 1318 634 1286 749 
C 1248 890 1197 1056 1158 1172 
L 595 2752 
L 83 2752 
L 1094 0 
L 1664 0 
L 2675 2752 
z
" transform="scale(0.015625)"/>
       <path id="CMSS17-67" d="M 2848 2808 
C 2483 2808 2170 2738 1914 2617 
C 1702 2777 1485 2808 1338 2808 
C 781 2808 358 2349 358 1814 
C 358 1468 550 1207 563 1195 
C 448 1035 384 863 384 672 
C 384 448 474 289 544 200 
C 211 -3 166 -314 166 -435 
C 166 -898 749 -1280 1498 -1280 
C 2253 -1280 2835 -898 2835 -428 
C 2835 448 1856 448 1587 448 
L 1069 448 
C 973 448 717 448 717 791 
C 717 921 774 1004 781 1010 
C 877 940 1075 832 1338 832 
C 1869 832 2310 1278 2310 1827 
C 2310 2132 2170 2355 2112 2432 
L 2131 2432 
C 2150 2432 2419 2432 2515 2432 
C 2720 2432 2739 2429 2918 2419 
L 2848 2808 
z
M 1338 1182 
C 1120 1182 813 1315 813 1823 
C 813 2375 1165 2464 1331 2464 
C 1549 2464 1856 2331 1856 1823 
C 1856 1271 1504 1182 1338 1182 
z
M 1581 -10 
C 1734 -10 2381 -10 2381 -442 
C 2381 -714 1984 -929 1504 -929 
C 1018 -929 621 -720 621 -435 
C 621 -403 621 -10 1062 -10 
L 1581 -10 
z
" transform="scale(0.015625)"/>
       <path id="CMSS17-68" d="M 2618 1891 
C 2618 2292 2522 2820 1798 2820 
C 1395 2820 1133 2623 947 2407 
L 947 4448 
L 474 4448 
L 474 32 
L 960 32 
L 960 1573 
C 960 1973 1114 2432 1549 2432 
C 2112 2432 2131 2056 2131 1839 
L 2131 32 
L 2618 32 
L 2618 1891 
z
" transform="scale(0.015625)"/>
      </defs>
      <use xlink:href="#CMSS17-4c" transform="scale(0.996264)"/>
      <use xlink:href="#CMSS17-6f" transform="translate(50.687105 0) scale(0.996264)"/>
      <use xlink:href="#CMSS17-61" transform="translate(97.530729 0) scale(0.996264)"/>
      <use xlink:href="#CMSS17-64" transform="translate(142.452649 0) scale(0.996264)"/>
      <use xlink:href="#CMSS17-64" transform="translate(221.886705 0) scale(0.996264)"/>
      <use xlink:href="#CMSS17-72" transform="translate(270.091649 0) scale(0.996264)"/>
      <use xlink:href="#CMSS17-69" transform="translate(302.001421 0) scale(0.996264)"/>
      <use xlink:href="#CMSS17-76" transform="translate(324.182144 0) scale(0.996264)"/>
      <use xlink:href="#CMSS17-65" transform="translate(367.182286 0) scale(0.996264)"/>
      <use xlink:href="#CMSS17-72" transform="translate(408.821108 0) scale(0.996264)"/>
      <use xlink:href="#CMSS17-28" transform="translate(471.959993 0) scale(0.996264)"/>
      <use xlink:href="#CMSS17-72" transform="translate(508.393907 0) scale(0.996264)"/>
      <use xlink:href="#CMSS17-69" transform="translate(540.30368 0) scale(0.996264)"/>
      <use xlink:href="#CMSS17-67" transform="translate(562.484403 0) scale(0.996264)"/>
      <use xlink:href="#CMSS17-68" transform="translate(609.328026 0) scale(0.996264)"/>
      <use xlink:href="#CMSS17-74" transform="translate(657.53297 0) scale(0.996264)"/>
      <use xlink:href="#CMSS17-29" transform="translate(691.364536 0) scale(0.996264)"/>
     </g>
    </g>
    <g id="line2d_33">
     <path d="M 349.990605 298.663543 
L 364.490605 298.663543 
L 378.990605 298.663543 
" style="fill: none; stroke-dasharray: 5.55,2.4; stroke-dashoffset: 0; stroke: #fecf92; stroke-width: 1.5"/>
    </g>
    <g id="text_27">
     <!-- System load (right) -->
     <g transform="translate(390.590605 303.738543) scale(0.145 -0.145)">
      <use xlink:href="#CMSS17-53" transform="scale(0.996264)"/>
      <use xlink:href="#CMSS17-79" transform="translate(52.048516 0) scale(0.996264)"/>
      <use xlink:href="#CMSS17-73" transform="translate(95.048658 0) scale(0.996264)"/>
      <use xlink:href="#CMSS17-74" transform="translate(130.9622 0) scale(0.996264)"/>
      <use xlink:href="#CMSS17-65" transform="translate(164.793767 0) scale(0.996264)"/>
      <use xlink:href="#CMSS17-6d" transform="translate(206.432589 0) scale(0.996264)"/>
      <use xlink:href="#CMSS17-6c" transform="translate(311.890956 0) scale(0.996264)"/>
      <use xlink:href="#CMSS17-6f" transform="translate(334.071679 0) scale(0.996264)"/>
      <use xlink:href="#CMSS17-61" transform="translate(380.915302 0) scale(0.996264)"/>
      <use xlink:href="#CMSS17-64" transform="translate(425.837223 0) scale(0.996264)"/>
      <use xlink:href="#CMSS17-28" transform="translate(505.271279 0) scale(0.996264)"/>
      <use xlink:href="#CMSS17-72" transform="translate(541.705193 0) scale(0.996264)"/>
      <use xlink:href="#CMSS17-69" transform="translate(573.614966 0) scale(0.996264)"/>
      <use xlink:href="#CMSS17-67" transform="translate(595.795689 0) scale(0.996264)"/>
      <use xlink:href="#CMSS17-68" transform="translate(642.639312 0) scale(0.996264)"/>
      <use xlink:href="#CMSS17-74" transform="translate(690.844255 0) scale(0.996264)"/>
      <use xlink:href="#CMSS17-29" transform="translate(724.675822 0) scale(0.996264)"/>
     </g>
    </g>
   </g>
  </g>
 </g>
 <defs>
  <clipPath id="p3072b24cd9">
   <rect x="72" y="43.2" width="446.4" height="277.2"/>
  </clipPath>
 </defs>
</svg>
