<?xml version="1.0" encoding="utf-8" standalone="no"?>
<!DOCTYPE svg PUBLIC "-//W3C//DTD SVG 1.1//EN"
  "http://www.w3.org/Graphics/SVG/1.1/DTD/svg11.dtd">
<svg xmlns:xlink="http://www.w3.org/1999/xlink" width="576pt" height="360pt" viewBox="0 0 576 360" xmlns="http://www.w3.org/2000/svg" version="1.1">
 <metadata>
  <rdf:RDF xmlns:dc="http://purl.org/dc/elements/1.1/" xmlns:cc="http://creativecommons.org/ns#" xmlns:rdf="http://www.w3.org/1999/02/22-rdf-syntax-ns#">
   <cc:Work>
    <dc:type rdf:resource="http://purl.org/dc/dcmitype/StillImage"/>
    <dc:date>2023-12-15T16:06:06.326865</dc:date>
    <dc:format>image/svg+xml</dc:format>
    <dc:creator>
     <cc:Agent>
      <dc:title>Matplotlib v3.8.0, https://matplotlib.org/</dc:title>
     </cc:Agent>
    </dc:creator>
   </cc:Work>
  </rdf:RDF>
 </metadata>
 <defs>
  <style type="text/css">*{stroke-linejoin: round; stroke-linecap: butt}</style>
 </defs>
 <g id="figure_1">
  <g id="patch_1">
   <path d="M 0 360 
L 576 360 
L 576 0 
L 0 0 
z
" style="fill: #ffffff"/>
  </g>
  <g id="axes_1">
   <g id="patch_2">
    <path d="M 72 320.4 
L 518.4 320.4 
L 518.4 43.2 
L 72 43.2 
z
" style="fill: #ffffff"/>
   </g>
   <g id="PolyCollection_1">
    <defs>
     <path id="m23b84a0e60" d="M 92.290909 -96.556674 
L 92.290909 -100.970766 
L 93.421322 -100.970766 
L 94.551735 -100.970766 
L 95.682147 -100.919912 
L 96.81256 -100.919912 
L 97.942973 -100.919912 
L 99.073386 -100.919912 
L 100.203798 -100.919912 
L 101.334211 -100.919912 
L 102.464624 -100.921946 
L 103.595037 -100.921946 
L 104.725449 -100.921946 
L 105.855862 -100.921946 
L 106.986275 -100.921946 
L 108.116688 -100.921946 
L 109.247101 -100.921946 
L 110.377513 -100.921946 
L 111.507926 -100.921946 
L 112.638339 -100.921946 
L 113.768752 -100.921946 
L 114.899164 -100.921946 
L 116.029577 -100.921946 
L 117.15999 -100.921946 
L 118.290403 -100.921946 
L 119.420815 -100.921946 
L 120.551228 -90.565274 
L 121.681641 -90.565274 
L 122.812054 -90.565274 
L 123.942466 -90.565274 
L 125.072879 -90.565274 
L 126.203292 -87.371769 
L 127.333705 -87.371769 
L 128.464117 -87.371769 
L 129.59453 -87.371769 
L 130.724943 -87.371769 
L 131.855356 -87.371769 
L 132.985769 -87.535692 
L 134.116181 -87.535692 
L 135.246594 -87.535692 
L 136.377007 -87.535692 
L 137.50742 -87.535692 
L 138.637832 -87.545514 
L 139.768245 -87.545514 
L 140.898658 -87.545514 
L 142.029071 -87.545514 
L 143.159483 -87.545514 
L 144.289896 -87.545514 
L 145.420309 -87.545514 
L 146.550722 -87.545514 
L 147.681134 -87.545514 
L 148.811547 -87.545514 
L 149.94196 -87.545514 
L 151.072373 -87.545514 
L 152.202786 -87.545514 
L 153.333198 -87.545514 
L 154.463611 -87.545514 
L 155.594024 -87.545514 
L 156.724437 -87.545514 
L 157.854849 -87.512273 
L 158.985262 -87.512273 
L 160.115675 -87.512273 
L 161.246088 -87.512273 
L 162.3765 -87.512273 
L 163.506913 -87.512273 
L 164.637326 -87.512273 
L 165.767739 -87.512273 
L 166.898151 -87.512273 
L 168.028564 -87.512273 
L 169.158977 -87.658564 
L 170.28939 -87.658564 
L 171.419802 -87.658564 
L 172.550215 -87.658564 
L 173.680628 -87.658564 
L 174.811041 -87.658564 
L 175.941454 -87.545514 
L 177.071866 -87.545514 
L 178.202279 -87.545514 
L 179.332692 -87.545514 
L 180.463105 -87.545514 
L 181.593517 -79.261483 
L 182.72393 -79.261483 
L 183.854343 -79.261483 
L 184.984756 -79.261483 
L 186.115168 -79.261483 
L 187.245581 -79.261483 
L 188.375994 -72.82967 
L 189.506407 -72.82967 
L 190.636819 -72.82967 
L 191.767232 -72.82967 
L 192.897645 -72.82967 
L 194.028058 -72.247853 
L 195.15847 -72.247853 
L 196.288883 -72.247853 
L 197.419296 -72.247853 
L 198.549709 -72.247853 
L 199.680122 -72.247853 
L 200.810534 -72.502735 
L 201.940947 -72.502735 
L 203.07136 -72.502735 
L 204.201773 -72.502735 
L 205.332185 -72.502735 
L 206.462598 -72.322008 
L 207.593011 -72.322008 
L 208.723424 -72.322008 
L 209.853836 -72.322008 
L 210.984249 -72.322008 
L 212.114662 -72.322008 
L 213.245075 -72.353317 
L 214.375487 -72.353317 
L 215.5059 -72.353317 
L 216.636313 -72.353317 
L 217.766726 -72.353317 
L 218.897139 -72.353317 
L 220.027551 -72.353317 
L 221.157964 -72.353317 
L 222.288377 -72.353317 
L 223.41879 -72.353317 
L 224.549202 -72.353317 
L 225.679615 -72.353317 
L 226.810028 -72.353317 
L 227.940441 -72.353317 
L 229.070853 -72.353317 
L 230.201266 -72.353317 
L 231.331679 -72.353317 
L 232.462092 -72.353317 
L 233.592504 -72.353317 
L 234.722917 -72.353317 
L 235.85333 -72.353317 
L 236.983743 -72.322757 
L 238.114155 -72.322757 
L 239.244568 -72.322757 
L 240.374981 -72.322757 
L 241.505394 -72.322757 
L 242.635807 -72.322757 
L 243.766219 -70.010442 
L 244.896632 -70.010442 
L 246.027045 -70.010442 
L 247.157458 -70.010442 
L 248.28787 -70.010442 
L 249.418283 -59.264399 
L 250.548696 -59.264399 
L 251.679109 -59.264399 
L 252.809521 -59.264399 
L 253.939934 -59.264399 
L 255.070347 -59.264399 
L 256.20076 -57.879199 
L 257.331172 -57.879199 
L 258.461585 -57.879199 
L 259.591998 -57.879199 
L 260.722411 -57.879199 
L 261.852823 -57.573008 
L 262.983236 -57.573008 
L 264.113649 -57.573008 
L 265.244062 -57.573008 
L 266.374475 -57.573008 
L 267.504887 -57.573008 
L 268.6353 -57.407722 
L 269.765713 -57.407722 
L 270.896126 -57.407722 
L 272.026538 -57.407722 
L 273.156951 -57.407722 
L 274.287364 -57.407722 
L 275.417777 -57.407722 
L 276.548189 -57.407722 
L 277.678602 -57.407722 
L 278.809015 -57.407722 
L 279.939428 -57.407722 
L 281.06984 -57.407722 
L 282.200253 -57.407722 
L 283.330666 -57.407722 
L 284.461079 -57.407722 
L 285.591492 -57.407722 
L 286.721904 -57.407722 
L 287.852317 -57.407722 
L 288.98273 -57.407722 
L 290.113143 -57.407722 
L 291.243555 -57.407722 
L 292.373968 -57.33186 
L 293.504381 -57.33186 
L 294.634794 -57.33186 
L 295.765206 -57.33186 
L 296.895619 -57.33186 
L 298.026032 -57.33186 
L 299.156445 -57.452287 
L 300.286857 -57.452287 
L 301.41727 -57.452287 
L 302.547683 -57.452287 
L 303.678096 -57.452287 
L 304.808508 -57.407722 
L 305.938921 -57.407722 
L 307.069334 -57.407722 
L 308.199747 -57.407722 
L 309.33016 -57.407722 
L 310.460572 -57.407722 
L 311.590985 -68.401012 
L 312.721398 -68.401012 
L 313.851811 -68.401012 
L 314.982223 -68.401012 
L 316.112636 -68.401012 
L 317.243049 -70.5117 
L 318.373462 -70.5117 
L 319.503874 -70.5117 
L 320.634287 -70.5117 
L 321.7647 -70.5117 
L 322.895113 -70.827289 
L 324.025525 -70.827289 
L 325.155938 -70.827289 
L 326.286351 -70.827289 
L 327.416764 -70.827289 
L 328.547177 -70.827289 
L 329.677589 -70.90502 
L 330.808002 -70.90502 
L 331.938415 -70.90502 
L 333.068828 -70.90502 
L 334.19924 -70.90502 
L 335.329653 -70.90502 
L 336.460066 -70.90502 
L 337.590479 -70.90502 
L 338.720891 -70.90502 
L 339.851304 -70.90502 
L 340.981717 -70.90502 
L 342.11213 -70.41495 
L 343.242542 -70.41495 
L 344.372955 -70.41495 
L 345.503368 -70.41495 
L 346.633781 -70.41495 
L 347.764193 -70.637608 
L 348.894606 -70.637608 
L 350.025019 -70.637608 
L 351.155432 -70.637608 
L 352.285845 -70.637608 
L 353.416257 -70.637608 
L 354.54667 -70.766466 
L 355.677083 -70.766466 
L 356.807496 -70.766466 
L 357.937908 -70.766466 
L 359.068321 -70.766466 
L 360.198734 -70.711755 
L 361.329147 -70.711755 
L 362.459559 -70.711755 
L 363.589972 -70.711755 
L 364.720385 -70.711755 
L 365.850798 -70.711755 
L 366.98121 -70.61198 
L 368.111623 -70.61198 
L 369.242036 -70.61198 
L 370.372449 -70.61198 
L 371.502861 -70.61198 
L 372.633274 -79.750959 
L 373.763687 -79.750959 
L 374.8941 -79.750959 
L 376.024513 -79.750959 
L 377.154925 -79.750959 
L 378.285338 -83.617248 
L 379.415751 -83.617248 
L 380.546164 -83.617248 
L 381.676576 -83.617248 
L 382.806989 -83.617248 
L 383.937402 -83.617248 
L 385.067815 -83.869785 
L 386.198227 -83.869785 
L 387.32864 -83.869785 
L 388.459053 -83.869785 
L 389.589466 -83.869785 
L 390.719878 -83.874219 
L 391.850291 -83.874219 
L 392.980704 -83.874219 
L 394.111117 -83.874219 
L 395.24153 -83.874219 
L 396.371942 -83.874219 
L 397.502355 -83.874219 
L 398.632768 -83.874219 
L 399.763181 -83.874219 
L 400.893593 -83.874219 
L 402.024006 -83.874219 
L 403.154419 -83.880974 
L 404.284832 -83.880974 
L 405.415244 -83.880974 
L 406.545657 -83.880974 
L 407.67607 -83.880974 
L 408.806483 -83.880974 
L 409.936895 -83.874219 
L 411.067308 -83.874219 
L 412.197721 -83.874219 
L 413.328134 -83.874219 
L 414.458546 -83.874219 
L 415.588959 -83.838624 
L 416.719372 -83.838624 
L 417.849785 -83.838624 
L 418.980198 -83.838624 
L 420.11061 -83.838624 
L 421.241023 -83.838624 
L 422.371436 -83.874219 
L 423.501849 -83.874219 
L 424.632261 -83.874219 
L 425.762674 -83.874219 
L 426.893087 -83.874219 
L 428.0235 -83.800019 
L 429.153912 -83.800019 
L 430.284325 -83.800019 
L 431.414738 -83.800019 
L 432.545151 -83.800019 
L 433.675563 -84.144226 
L 434.805976 -84.144226 
L 435.936389 -84.144226 
L 437.066802 -84.144226 
L 438.197214 -84.144226 
L 439.327627 -84.144226 
L 440.45804 -92.517604 
L 441.588453 -92.517604 
L 442.718866 -92.517604 
L 443.849278 -92.517604 
L 444.979691 -92.517604 
L 446.110104 -93.287337 
L 447.240517 -93.287337 
L 448.370929 -93.287337 
L 449.501342 -93.287337 
L 450.631755 -93.287337 
L 451.762168 -93.287337 
L 452.89258 -93.465971 
L 454.022993 -93.465971 
L 455.153406 -93.465971 
L 456.283819 -93.465971 
L 457.414231 -93.465971 
L 458.544644 -93.465971 
L 459.675057 -93.465971 
L 460.80547 -93.465971 
L 461.935883 -93.465971 
L 463.066295 -93.465971 
L 464.196708 -93.465971 
L 465.327121 -93.465971 
L 466.457534 -93.465971 
L 467.587946 -93.465971 
L 468.718359 -93.465971 
L 469.848772 -93.465971 
L 470.979185 -93.525528 
L 472.109597 -93.525528 
L 473.24001 -93.525528 
L 474.370423 -93.525528 
L 475.500836 -93.525528 
L 476.631248 -93.525528 
L 477.761661 -93.525528 
L 478.892074 -93.525528 
L 480.022487 -93.525528 
L 481.152899 -93.525528 
L 482.283312 -93.525528 
L 483.413725 -93.569838 
L 484.544138 -93.569838 
L 485.674551 -93.569838 
L 486.804963 -93.569838 
L 487.935376 -93.569838 
L 489.065789 -93.30302 
L 490.196202 -93.30302 
L 491.326614 -93.30302 
L 492.457027 -93.30302 
L 493.58744 -93.30302 
L 494.717853 -93.30302 
L 495.848265 -93.568828 
L 496.978678 -93.568828 
L 498.109091 -93.568828 
L 498.109091 -88.23002 
L 498.109091 -88.23002 
L 496.978678 -88.23002 
L 495.848265 -88.23002 
L 494.717853 -88.162132 
L 493.58744 -88.162132 
L 492.457027 -88.162132 
L 491.326614 -88.162132 
L 490.196202 -88.162132 
L 489.065789 -88.162132 
L 487.935376 -88.062162 
L 486.804963 -88.062162 
L 485.674551 -88.062162 
L 484.544138 -88.062162 
L 483.413725 -88.062162 
L 482.283312 -88.21788 
L 481.152899 -88.21788 
L 480.022487 -88.21788 
L 478.892074 -88.21788 
L 477.761661 -88.21788 
L 476.631248 -88.21788 
L 475.500836 -88.21788 
L 474.370423 -88.21788 
L 473.24001 -88.21788 
L 472.109597 -88.21788 
L 470.979185 -88.21788 
L 469.848772 -88.221997 
L 468.718359 -88.221997 
L 467.587946 -88.221997 
L 466.457534 -88.221997 
L 465.327121 -88.221997 
L 464.196708 -88.221997 
L 463.066295 -88.221997 
L 461.935883 -88.221997 
L 460.80547 -88.221997 
L 459.675057 -88.221997 
L 458.544644 -88.221997 
L 457.414231 -88.221997 
L 456.283819 -88.221997 
L 455.153406 -88.221997 
L 454.022993 -88.221997 
L 452.89258 -88.221997 
L 451.762168 -88.122375 
L 450.631755 -88.122375 
L 449.501342 -88.122375 
L 448.370929 -88.122375 
L 447.240517 -88.122375 
L 446.110104 -88.122375 
L 444.979691 -87.224684 
L 443.849278 -87.224684 
L 442.718866 -87.224684 
L 441.588453 -87.224684 
L 440.45804 -87.224684 
L 439.327627 -78.591182 
L 438.197214 -78.591182 
L 437.066802 -78.591182 
L 435.936389 -78.591182 
L 434.805976 -78.591182 
L 433.675563 -78.591182 
L 432.545151 -77.490253 
L 431.414738 -77.490253 
L 430.284325 -77.490253 
L 429.153912 -77.490253 
L 428.0235 -77.490253 
L 426.893087 -77.582373 
L 425.762674 -77.582373 
L 424.632261 -77.582373 
L 423.501849 -77.582373 
L 422.371436 -77.582373 
L 421.241023 -77.562528 
L 420.11061 -77.562528 
L 418.980198 -77.562528 
L 417.849785 -77.562528 
L 416.719372 -77.562528 
L 415.588959 -77.562528 
L 414.458546 -77.582373 
L 413.328134 -77.582373 
L 412.197721 -77.582373 
L 411.067308 -77.582373 
L 409.936895 -77.582373 
L 408.806483 -77.631586 
L 407.67607 -77.631586 
L 406.545657 -77.631586 
L 405.415244 -77.631586 
L 404.284832 -77.631586 
L 403.154419 -77.631586 
L 402.024006 -77.582373 
L 400.893593 -77.582373 
L 399.763181 -77.582373 
L 398.632768 -77.582373 
L 397.502355 -77.582373 
L 396.371942 -77.582373 
L 395.24153 -77.582373 
L 394.111117 -77.582373 
L 392.980704 -77.582373 
L 391.850291 -77.582373 
L 390.719878 -77.582373 
L 389.589466 -77.586807 
L 388.459053 -77.586807 
L 387.32864 -77.586807 
L 386.198227 -77.586807 
L 385.067815 -77.586807 
L 383.937402 -77.115984 
L 382.806989 -77.115984 
L 381.676576 -77.115984 
L 380.546164 -77.115984 
L 379.415751 -77.115984 
L 378.285338 -77.115984 
L 377.154925 -71.814081 
L 376.024513 -71.814081 
L 374.8941 -71.814081 
L 373.763687 -71.814081 
L 372.633274 -71.814081 
L 371.502861 -66.946276 
L 370.372449 -66.946276 
L 369.242036 -66.946276 
L 368.111623 -66.946276 
L 366.98121 -66.946276 
L 365.850798 -66.957381 
L 364.720385 -66.957381 
L 363.589972 -66.957381 
L 362.459559 -66.957381 
L 361.329147 -66.957381 
L 360.198734 -66.957381 
L 359.068321 -66.958638 
L 357.937908 -66.958638 
L 356.807496 -66.958638 
L 355.677083 -66.958638 
L 354.54667 -66.958638 
L 353.416257 -66.976088 
L 352.285845 -66.976088 
L 351.155432 -66.976088 
L 350.025019 -66.976088 
L 348.894606 -66.976088 
L 347.764193 -66.976088 
L 346.633781 -66.976458 
L 345.503368 -66.976458 
L 344.372955 -66.976458 
L 343.242542 -66.976458 
L 342.11213 -66.976458 
L 340.981717 -66.930964 
L 339.851304 -66.930964 
L 338.720891 -66.930964 
L 337.590479 -66.930964 
L 336.460066 -66.930964 
L 335.329653 -66.930964 
L 334.19924 -66.930964 
L 333.068828 -66.930964 
L 331.938415 -66.930964 
L 330.808002 -66.930964 
L 329.677589 -66.930964 
L 328.547177 -66.842375 
L 327.416764 -66.842375 
L 326.286351 -66.842375 
L 325.155938 -66.842375 
L 324.025525 -66.842375 
L 322.895113 -66.842375 
L 321.7647 -66.490572 
L 320.634287 -66.490572 
L 319.503874 -66.490572 
L 318.373462 -66.490572 
L 317.243049 -66.490572 
L 316.112636 -63.931998 
L 314.982223 -63.931998 
L 313.851811 -63.931998 
L 312.721398 -63.931998 
L 311.590985 -63.931998 
L 310.460572 -54.63937 
L 309.33016 -54.63937 
L 308.199747 -54.63937 
L 307.069334 -54.63937 
L 305.938921 -54.63937 
L 304.808508 -54.63937 
L 303.678096 -54.650402 
L 302.547683 -54.650402 
L 301.41727 -54.650402 
L 300.286857 -54.650402 
L 299.156445 -54.650402 
L 298.026032 -54.604087 
L 296.895619 -54.604087 
L 295.765206 -54.604087 
L 294.634794 -54.604087 
L 293.504381 -54.604087 
L 292.373968 -54.604087 
L 291.243555 -54.63937 
L 290.113143 -54.63937 
L 288.98273 -54.63937 
L 287.852317 -54.63937 
L 286.721904 -54.63937 
L 285.591492 -54.63937 
L 284.461079 -54.63937 
L 283.330666 -54.63937 
L 282.200253 -54.63937 
L 281.06984 -54.63937 
L 279.939428 -54.63937 
L 278.809015 -54.63937 
L 277.678602 -54.63937 
L 276.548189 -54.63937 
L 275.417777 -54.63937 
L 274.287364 -54.63937 
L 273.156951 -54.63937 
L 272.026538 -54.63937 
L 270.896126 -54.63937 
L 269.765713 -54.63937 
L 268.6353 -54.63937 
L 267.504887 -54.640825 
L 266.374475 -54.640825 
L 265.244062 -54.640825 
L 264.113649 -54.640825 
L 262.983236 -54.640825 
L 261.852823 -54.640825 
L 260.722411 -54.890513 
L 259.591998 -54.890513 
L 258.461585 -54.890513 
L 257.331172 -54.890513 
L 256.20076 -54.890513 
L 255.070347 -55.784002 
L 253.939934 -55.784002 
L 252.809521 -55.784002 
L 251.679109 -55.784002 
L 250.548696 -55.784002 
L 249.418283 -55.784002 
L 248.28787 -66.824454 
L 247.157458 -66.824454 
L 246.027045 -66.824454 
L 244.896632 -66.824454 
L 243.766219 -66.824454 
L 242.635807 -69.625819 
L 241.505394 -69.625819 
L 240.374981 -69.625819 
L 239.244568 -69.625819 
L 238.114155 -69.625819 
L 236.983743 -69.625819 
L 235.85333 -69.650699 
L 234.722917 -69.650699 
L 233.592504 -69.650699 
L 232.462092 -69.650699 
L 231.331679 -69.650699 
L 230.201266 -69.650699 
L 229.070853 -69.650699 
L 227.940441 -69.650699 
L 226.810028 -69.650699 
L 225.679615 -69.650699 
L 224.549202 -69.650699 
L 223.41879 -69.650699 
L 222.288377 -69.650699 
L 221.157964 -69.650699 
L 220.027551 -69.650699 
L 218.897139 -69.650699 
L 217.766726 -69.650699 
L 216.636313 -69.650699 
L 215.5059 -69.650699 
L 214.375487 -69.650699 
L 213.245075 -69.650699 
L 212.114662 -69.682008 
L 210.984249 -69.682008 
L 209.853836 -69.682008 
L 208.723424 -69.682008 
L 207.593011 -69.682008 
L 206.462598 -69.682008 
L 205.332185 -69.612689 
L 204.201773 -69.612689 
L 203.07136 -69.612689 
L 201.940947 -69.612689 
L 200.810534 -69.612689 
L 199.680122 -69.811603 
L 198.549709 -69.811603 
L 197.419296 -69.811603 
L 196.288883 -69.811603 
L 195.15847 -69.811603 
L 194.028058 -69.811603 
L 192.897645 -68.61889 
L 191.767232 -68.61889 
L 190.636819 -68.61889 
L 189.506407 -68.61889 
L 188.375994 -68.61889 
L 187.245581 -75.137333 
L 186.115168 -75.137333 
L 184.984756 -75.137333 
L 183.854343 -75.137333 
L 182.72393 -75.137333 
L 181.593517 -75.137333 
L 180.463105 -81.858534 
L 179.332692 -81.858534 
L 178.202279 -81.858534 
L 177.071866 -81.858534 
L 175.941454 -81.858534 
L 174.811041 -81.912332 
L 173.680628 -81.912332 
L 172.550215 -81.912332 
L 171.419802 -81.912332 
L 170.28939 -81.912332 
L 169.158977 -81.912332 
L 168.028564 -81.836335 
L 166.898151 -81.836335 
L 165.767739 -81.836335 
L 164.637326 -81.836335 
L 163.506913 -81.836335 
L 162.3765 -81.836335 
L 161.246088 -81.836335 
L 160.115675 -81.836335 
L 158.985262 -81.836335 
L 157.854849 -81.836335 
L 156.724437 -81.858534 
L 155.594024 -81.858534 
L 154.463611 -81.858534 
L 153.333198 -81.858534 
L 152.202786 -81.858534 
L 151.072373 -81.858534 
L 149.94196 -81.858534 
L 148.811547 -81.858534 
L 147.681134 -81.858534 
L 146.550722 -81.858534 
L 145.420309 -81.858534 
L 144.289896 -81.858534 
L 143.159483 -81.858534 
L 142.029071 -81.858534 
L 140.898658 -81.858534 
L 139.768245 -81.858534 
L 138.637832 -81.858534 
L 137.50742 -81.868356 
L 136.377007 -81.868356 
L 135.246594 -81.868356 
L 134.116181 -81.868356 
L 132.985769 -81.868356 
L 131.855356 -81.755079 
L 130.724943 -81.755079 
L 129.59453 -81.755079 
L 128.464117 -81.755079 
L 127.333705 -81.755079 
L 126.203292 -81.755079 
L 125.072879 -84.842134 
L 123.942466 -84.842134 
L 122.812054 -84.842134 
L 121.681641 -84.842134 
L 120.551228 -84.842134 
L 119.420815 -96.550054 
L 118.290403 -96.550054 
L 117.15999 -96.550054 
L 116.029577 -96.550054 
L 114.899164 -96.550054 
L 113.768752 -96.550054 
L 112.638339 -96.550054 
L 111.507926 -96.550054 
L 110.377513 -96.550054 
L 109.247101 -96.550054 
L 108.116688 -96.550054 
L 106.986275 -96.550054 
L 105.855862 -96.550054 
L 104.725449 -96.550054 
L 103.595037 -96.550054 
L 102.464624 -96.550054 
L 101.334211 -96.608056 
L 100.203798 -96.608056 
L 99.073386 -96.608056 
L 97.942973 -96.608056 
L 96.81256 -96.608056 
L 95.682147 -96.608056 
L 94.551735 -96.556674 
L 93.421322 -96.556674 
L 92.290909 -96.556674 
z
" style="stroke: #482475; stroke-opacity: 0.2"/>
    </defs>
    <g clip-path="url(#pf1faff15f2)">
     <use xlink:href="#m23b84a0e60" x="0" y="360" style="fill: #482475; fill-opacity: 0.2; stroke: #482475; stroke-opacity: 0.2"/>
    </g>
   </g>
   <g id="PolyCollection_2">
    <defs>
     <path id="mb845f55e2e" d="M 92.290909 -70.271667 
L 92.290909 -76.012317 
L 93.421322 -76.012317 
L 94.551735 -76.012317 
L 95.682147 -80.196808 
L 96.81256 -80.196808 
L 97.942973 -80.196808 
L 99.073386 -80.196808 
L 100.203798 -80.196808 
L 101.334211 -80.196808 
L 102.464624 -92.518152 
L 103.595037 -92.518152 
L 104.725449 -92.518152 
L 105.855862 -92.518152 
L 106.986275 -92.518152 
L 108.116688 -105.092089 
L 109.247101 -105.092089 
L 110.377513 -105.092089 
L 111.507926 -105.092089 
L 112.638339 -105.092089 
L 113.768752 -105.092089 
L 114.899164 -117.648498 
L 116.029577 -117.648498 
L 117.15999 -117.648498 
L 118.290403 -117.648498 
L 119.420815 -117.648498 
L 120.551228 -104.744825 
L 121.681641 -104.744825 
L 122.812054 -104.744825 
L 123.942466 -104.744825 
L 125.072879 -104.744825 
L 126.203292 -105.886326 
L 127.333705 -105.886326 
L 128.464117 -105.886326 
L 129.59453 -105.886326 
L 130.724943 -105.886326 
L 131.855356 -105.886326 
L 132.985769 -105.726766 
L 134.116181 -105.726766 
L 135.246594 -105.726766 
L 136.377007 -105.726766 
L 137.50742 -105.726766 
L 138.637832 -105.740931 
L 139.768245 -105.740931 
L 140.898658 -105.740931 
L 142.029071 -105.740931 
L 143.159483 -105.740931 
L 144.289896 -105.740931 
L 145.420309 -105.673197 
L 146.550722 -105.673197 
L 147.681134 -105.673197 
L 148.811547 -105.673197 
L 149.94196 -105.673197 
L 151.072373 -105.693825 
L 152.202786 -105.693825 
L 153.333198 -105.693825 
L 154.463611 -105.693825 
L 155.594024 -105.693825 
L 156.724437 -105.693825 
L 157.854849 -105.693825 
L 158.985262 -105.693825 
L 160.115675 -105.693825 
L 161.246088 -105.693825 
L 162.3765 -105.693825 
L 163.506913 -105.592475 
L 164.637326 -105.592475 
L 165.767739 -105.592475 
L 166.898151 -105.592475 
L 168.028564 -105.592475 
L 169.158977 -105.72771 
L 170.28939 -105.72771 
L 171.419802 -105.72771 
L 172.550215 -105.72771 
L 173.680628 -105.72771 
L 174.811041 -105.72771 
L 175.941454 -105.72771 
L 177.071866 -105.72771 
L 178.202279 -105.72771 
L 179.332692 -105.72771 
L 180.463105 -105.72771 
L 181.593517 -90.017842 
L 182.72393 -90.017842 
L 183.854343 -90.017842 
L 184.984756 -90.017842 
L 186.115168 -90.017842 
L 187.245581 -90.017842 
L 188.375994 -84.400078 
L 189.506407 -84.400078 
L 190.636819 -84.400078 
L 191.767232 -84.400078 
L 192.897645 -84.400078 
L 194.028058 -84.652524 
L 195.15847 -84.652524 
L 196.288883 -84.652524 
L 197.419296 -84.652524 
L 198.549709 -84.652524 
L 199.680122 -84.652524 
L 200.810534 -84.457899 
L 201.940947 -84.457899 
L 203.07136 -84.457899 
L 204.201773 -84.457899 
L 205.332185 -84.457899 
L 206.462598 -84.293953 
L 207.593011 -84.293953 
L 208.723424 -84.293953 
L 209.853836 -84.293953 
L 210.984249 -84.293953 
L 212.114662 -84.293953 
L 213.245075 -84.206022 
L 214.375487 -84.206022 
L 215.5059 -84.206022 
L 216.636313 -84.206022 
L 217.766726 -84.206022 
L 218.897139 -84.291982 
L 220.027551 -84.291982 
L 221.157964 -84.291982 
L 222.288377 -84.291982 
L 223.41879 -84.291982 
L 224.549202 -84.293953 
L 225.679615 -84.293953 
L 226.810028 -84.293953 
L 227.940441 -84.293953 
L 229.070853 -84.293953 
L 230.201266 -84.293953 
L 231.331679 -84.251763 
L 232.462092 -84.251763 
L 233.592504 -84.251763 
L 234.722917 -84.251763 
L 235.85333 -84.251763 
L 236.983743 -84.293953 
L 238.114155 -84.293953 
L 239.244568 -84.293953 
L 240.374981 -84.293953 
L 241.505394 -84.293953 
L 242.635807 -84.293953 
L 243.766219 -79.431628 
L 244.896632 -79.431628 
L 246.027045 -79.431628 
L 247.157458 -79.431628 
L 248.28787 -79.431628 
L 249.418283 -63.726612 
L 250.548696 -63.726612 
L 251.679109 -63.726612 
L 252.809521 -63.726612 
L 253.939934 -63.726612 
L 255.070347 -63.726612 
L 256.20076 -64.528345 
L 257.331172 -64.528345 
L 258.461585 -64.528345 
L 259.591998 -64.528345 
L 260.722411 -64.528345 
L 261.852823 -64.147196 
L 262.983236 -64.147196 
L 264.113649 -64.147196 
L 265.244062 -64.147196 
L 266.374475 -64.147196 
L 267.504887 -64.147196 
L 268.6353 -63.903954 
L 269.765713 -63.903954 
L 270.896126 -63.903954 
L 272.026538 -63.903954 
L 273.156951 -63.903954 
L 274.287364 -63.903954 
L 275.417777 -63.903954 
L 276.548189 -63.903954 
L 277.678602 -63.903954 
L 278.809015 -63.903954 
L 279.939428 -63.875227 
L 281.06984 -63.875227 
L 282.200253 -63.875227 
L 283.330666 -63.875227 
L 284.461079 -63.875227 
L 285.591492 -63.875227 
L 286.721904 -63.856512 
L 287.852317 -63.856512 
L 288.98273 -63.856512 
L 290.113143 -63.856512 
L 291.243555 -63.856512 
L 292.373968 -63.75861 
L 293.504381 -63.75861 
L 294.634794 -63.75861 
L 295.765206 -63.75861 
L 296.895619 -63.75861 
L 298.026032 -63.75861 
L 299.156445 -63.903954 
L 300.286857 -63.903954 
L 301.41727 -63.903954 
L 302.547683 -63.903954 
L 303.678096 -63.903954 
L 304.808508 -63.903954 
L 305.938921 -63.903954 
L 307.069334 -63.903954 
L 308.199747 -63.903954 
L 309.33016 -63.903954 
L 310.460572 -63.903954 
L 311.590985 -81.293245 
L 312.721398 -81.293245 
L 313.851811 -81.293245 
L 314.982223 -81.293245 
L 316.112636 -81.293245 
L 317.243049 -84.119884 
L 318.373462 -84.119884 
L 319.503874 -84.119884 
L 320.634287 -84.119884 
L 321.7647 -84.119884 
L 322.895113 -84.326739 
L 324.025525 -84.326739 
L 325.155938 -84.326739 
L 326.286351 -84.326739 
L 327.416764 -84.326739 
L 328.547177 -84.326739 
L 329.677589 -84.326739 
L 330.808002 -84.326739 
L 331.938415 -84.326739 
L 333.068828 -84.326739 
L 334.19924 -84.326739 
L 335.329653 -84.33372 
L 336.460066 -84.33372 
L 337.590479 -84.33372 
L 338.720891 -84.33372 
L 339.851304 -84.33372 
L 340.981717 -84.33372 
L 342.11213 -84.326739 
L 343.242542 -84.326739 
L 344.372955 -84.326739 
L 345.503368 -84.326739 
L 346.633781 -84.326739 
L 347.764193 -84.326739 
L 348.894606 -84.326739 
L 350.025019 -84.326739 
L 351.155432 -84.326739 
L 352.285845 -84.326739 
L 353.416257 -84.326739 
L 354.54667 -84.326739 
L 355.677083 -84.326739 
L 356.807496 -84.326739 
L 357.937908 -84.326739 
L 359.068321 -84.326739 
L 360.198734 -84.251763 
L 361.329147 -84.251763 
L 362.459559 -84.251763 
L 363.589972 -84.251763 
L 364.720385 -84.251763 
L 365.850798 -84.251763 
L 366.98121 -84.403573 
L 368.111623 -84.403573 
L 369.242036 -84.403573 
L 370.372449 -84.403573 
L 371.502861 -84.403573 
L 372.633274 -96.56697 
L 373.763687 -96.56697 
L 374.8941 -96.56697 
L 376.024513 -96.56697 
L 377.154925 -96.56697 
L 378.285338 -105.327696 
L 379.415751 -105.327696 
L 380.546164 -105.327696 
L 381.676576 -105.327696 
L 382.806989 -105.327696 
L 383.937402 -105.327696 
L 385.067815 -105.738546 
L 386.198227 -105.738546 
L 387.32864 -105.738546 
L 388.459053 -105.738546 
L 389.589466 -105.738546 
L 390.719878 -105.809621 
L 391.850291 -105.809621 
L 392.980704 -105.809621 
L 394.111117 -105.809621 
L 395.24153 -105.809621 
L 396.371942 -105.809621 
L 397.502355 -105.809621 
L 398.632768 -105.809621 
L 399.763181 -105.809621 
L 400.893593 -105.809621 
L 402.024006 -105.809621 
L 403.154419 -105.775695 
L 404.284832 -105.775695 
L 405.415244 -105.775695 
L 406.545657 -105.775695 
L 407.67607 -105.775695 
L 408.806483 -105.775695 
L 409.936895 -105.809621 
L 411.067308 -105.809621 
L 412.197721 -105.809621 
L 413.328134 -105.809621 
L 414.458546 -105.809621 
L 415.588959 -105.477523 
L 416.719372 -105.477523 
L 417.849785 -105.477523 
L 418.980198 -105.477523 
L 420.11061 -105.477523 
L 421.241023 -105.477523 
L 422.371436 -105.809621 
L 423.501849 -105.809621 
L 424.632261 -105.809621 
L 425.762674 -105.809621 
L 426.893087 -105.809621 
L 428.0235 -105.66593 
L 429.153912 -105.66593 
L 430.284325 -105.66593 
L 431.414738 -105.66593 
L 432.545151 -105.66593 
L 433.675563 -105.640107 
L 434.805976 -105.640107 
L 435.936389 -105.640107 
L 437.066802 -105.640107 
L 438.197214 -105.640107 
L 439.327627 -105.640107 
L 440.45804 -121.811955 
L 441.588453 -121.811955 
L 442.718866 -121.811955 
L 443.849278 -121.811955 
L 444.979691 -121.811955 
L 446.110104 -122.561644 
L 447.240517 -122.561644 
L 448.370929 -122.561644 
L 449.501342 -122.561644 
L 450.631755 -122.561644 
L 451.762168 -122.561644 
L 452.89258 -122.511571 
L 454.022993 -122.511571 
L 455.153406 -122.511571 
L 456.283819 -122.511571 
L 457.414231 -122.511571 
L 458.544644 -122.521658 
L 459.675057 -122.521658 
L 460.80547 -122.521658 
L 461.935883 -122.521658 
L 463.066295 -122.521658 
L 464.196708 -122.521658 
L 465.327121 -122.588784 
L 466.457534 -122.588784 
L 467.587946 -122.588784 
L 468.718359 -122.588784 
L 469.848772 -122.588784 
L 470.979185 -122.491735 
L 472.109597 -122.491735 
L 473.24001 -122.491735 
L 474.370423 -122.491735 
L 475.500836 -122.491735 
L 476.631248 -122.491735 
L 477.761661 -122.491735 
L 478.892074 -122.491735 
L 480.022487 -122.491735 
L 481.152899 -122.491735 
L 482.283312 -122.491735 
L 483.413725 -122.44043 
L 484.544138 -122.44043 
L 485.674551 -122.44043 
L 486.804963 -122.44043 
L 487.935376 -122.44043 
L 489.065789 -122.44606 
L 490.196202 -122.44606 
L 491.326614 -122.44606 
L 492.457027 -122.44606 
L 493.58744 -122.44606 
L 494.717853 -122.44606 
L 495.848265 -122.539032 
L 496.978678 -122.539032 
L 498.109091 -122.539032 
L 498.109091 -117.784392 
L 498.109091 -117.784392 
L 496.978678 -117.784392 
L 495.848265 -117.784392 
L 494.717853 -117.710516 
L 493.58744 -117.710516 
L 492.457027 -117.710516 
L 491.326614 -117.710516 
L 490.196202 -117.710516 
L 489.065789 -117.710516 
L 487.935376 -117.716674 
L 486.804963 -117.716674 
L 485.674551 -117.716674 
L 484.544138 -117.716674 
L 483.413725 -117.716674 
L 482.283312 -117.776249 
L 481.152899 -117.776249 
L 480.022487 -117.776249 
L 478.892074 -117.776249 
L 477.761661 -117.776249 
L 476.631248 -117.776249 
L 475.500836 -117.776249 
L 474.370423 -117.776249 
L 473.24001 -117.776249 
L 472.109597 -117.776249 
L 470.979185 -117.776249 
L 469.848772 -117.79008 
L 468.718359 -117.79008 
L 467.587946 -117.79008 
L 466.457534 -117.79008 
L 465.327121 -117.79008 
L 464.196708 -117.635446 
L 463.066295 -117.635446 
L 461.935883 -117.635446 
L 460.80547 -117.635446 
L 459.675057 -117.635446 
L 458.544644 -117.635446 
L 457.414231 -117.700973 
L 456.283819 -117.700973 
L 455.153406 -117.700973 
L 454.022993 -117.700973 
L 452.89258 -117.700973 
L 451.762168 -117.70634 
L 450.631755 -117.70634 
L 449.501342 -117.70634 
L 448.370929 -117.70634 
L 447.240517 -117.70634 
L 446.110104 -117.70634 
L 444.979691 -116.454381 
L 443.849278 -116.454381 
L 442.718866 -116.454381 
L 441.588453 -116.454381 
L 440.45804 -116.454381 
L 439.327627 -101.446245 
L 438.197214 -101.446245 
L 437.066802 -101.446245 
L 435.936389 -101.446245 
L 434.805976 -101.446245 
L 433.675563 -101.446245 
L 432.545151 -101.47639 
L 431.414738 -101.47639 
L 430.284325 -101.47639 
L 429.153912 -101.47639 
L 428.0235 -101.47639 
L 426.893087 -101.666923 
L 425.762674 -101.666923 
L 424.632261 -101.666923 
L 423.501849 -101.666923 
L 422.371436 -101.666923 
L 421.241023 -101.721293 
L 420.11061 -101.721293 
L 418.980198 -101.721293 
L 417.849785 -101.721293 
L 416.719372 -101.721293 
L 415.588959 -101.721293 
L 414.458546 -101.666923 
L 413.328134 -101.666923 
L 412.197721 -101.666923 
L 411.067308 -101.666923 
L 409.936895 -101.666923 
L 408.806483 -101.700849 
L 407.67607 -101.700849 
L 406.545657 -101.700849 
L 405.415244 -101.700849 
L 404.284832 -101.700849 
L 403.154419 -101.700849 
L 402.024006 -101.666923 
L 400.893593 -101.666923 
L 399.763181 -101.666923 
L 398.632768 -101.666923 
L 397.502355 -101.666923 
L 396.371942 -101.666923 
L 395.24153 -101.666923 
L 394.111117 -101.666923 
L 392.980704 -101.666923 
L 391.850291 -101.666923 
L 390.719878 -101.666923 
L 389.589466 -101.682558 
L 388.459053 -101.682558 
L 387.32864 -101.682558 
L 386.198227 -101.682558 
L 385.067815 -101.682558 
L 383.937402 -101.259696 
L 382.806989 -101.259696 
L 381.676576 -101.259696 
L 380.546164 -101.259696 
L 379.415751 -101.259696 
L 378.285338 -101.259696 
L 377.154925 -88.844982 
L 376.024513 -88.844982 
L 374.8941 -88.844982 
L 373.763687 -88.844982 
L 372.633274 -88.844982 
L 371.502861 -80.054699 
L 370.372449 -80.054699 
L 369.242036 -80.054699 
L 368.111623 -80.054699 
L 366.98121 -80.054699 
L 365.850798 -80.095629 
L 364.720385 -80.095629 
L 363.589972 -80.095629 
L 362.459559 -80.095629 
L 361.329147 -80.095629 
L 360.198734 -80.095629 
L 359.068321 -80.076093 
L 357.937908 -80.076093 
L 356.807496 -80.076093 
L 355.677083 -80.076093 
L 354.54667 -80.076093 
L 353.416257 -80.076093 
L 352.285845 -80.076093 
L 351.155432 -80.076093 
L 350.025019 -80.076093 
L 348.894606 -80.076093 
L 347.764193 -80.076093 
L 346.633781 -80.076093 
L 345.503368 -80.076093 
L 344.372955 -80.076093 
L 343.242542 -80.076093 
L 342.11213 -80.076093 
L 340.981717 -80.013144 
L 339.851304 -80.013144 
L 338.720891 -80.013144 
L 337.590479 -80.013144 
L 336.460066 -80.013144 
L 335.329653 -80.013144 
L 334.19924 -80.076093 
L 333.068828 -80.076093 
L 331.938415 -80.076093 
L 330.808002 -80.076093 
L 329.677589 -80.076093 
L 328.547177 -80.076093 
L 327.416764 -80.076093 
L 326.286351 -80.076093 
L 325.155938 -80.076093 
L 324.025525 -80.076093 
L 322.895113 -80.076093 
L 321.7647 -80.22698 
L 320.634287 -80.22698 
L 319.503874 -80.22698 
L 318.373462 -80.22698 
L 317.243049 -80.22698 
L 316.112636 -76.773059 
L 314.982223 -76.773059 
L 313.851811 -76.773059 
L 312.721398 -76.773059 
L 311.590985 -76.773059 
L 310.460572 -61.648955 
L 309.33016 -61.648955 
L 308.199747 -61.648955 
L 307.069334 -61.648955 
L 305.938921 -61.648955 
L 304.808508 -61.648955 
L 303.678096 -61.648955 
L 302.547683 -61.648955 
L 301.41727 -61.648955 
L 300.286857 -61.648955 
L 299.156445 -61.648955 
L 298.026032 -61.627556 
L 296.895619 -61.627556 
L 295.765206 -61.627556 
L 294.634794 -61.627556 
L 293.504381 -61.627556 
L 292.373968 -61.627556 
L 291.243555 -61.640798 
L 290.113143 -61.640798 
L 288.98273 -61.640798 
L 287.852317 -61.640798 
L 286.721904 -61.640798 
L 285.591492 -61.622083 
L 284.461079 -61.622083 
L 283.330666 -61.622083 
L 282.200253 -61.622083 
L 281.06984 -61.622083 
L 279.939428 -61.622083 
L 278.809015 -61.648955 
L 277.678602 -61.648955 
L 276.548189 -61.648955 
L 275.417777 -61.648955 
L 274.287364 -61.648955 
L 273.156951 -61.648955 
L 272.026538 -61.648955 
L 270.896126 -61.648955 
L 269.765713 -61.648955 
L 268.6353 -61.648955 
L 267.504887 -61.739145 
L 266.374475 -61.739145 
L 265.244062 -61.739145 
L 264.113649 -61.739145 
L 262.983236 -61.739145 
L 261.852823 -61.739145 
L 260.722411 -61.969314 
L 259.591998 -61.969314 
L 258.461585 -61.969314 
L 257.331172 -61.969314 
L 256.20076 -61.969314 
L 255.070347 -61.270419 
L 253.939934 -61.270419 
L 252.809521 -61.270419 
L 251.679109 -61.270419 
L 250.548696 -61.270419 
L 249.418283 -61.270419 
L 248.28787 -75.522644 
L 247.157458 -75.522644 
L 246.027045 -75.522644 
L 244.896632 -75.522644 
L 243.766219 -75.522644 
L 242.635807 -80.109407 
L 241.505394 -80.109407 
L 240.374981 -80.109407 
L 239.244568 -80.109407 
L 238.114155 -80.109407 
L 236.983743 -80.109407 
L 235.85333 -80.095629 
L 234.722917 -80.095629 
L 233.592504 -80.095629 
L 232.462092 -80.095629 
L 231.331679 -80.095629 
L 230.201266 -80.109407 
L 229.070853 -80.109407 
L 227.940441 -80.109407 
L 226.810028 -80.109407 
L 225.679615 -80.109407 
L 224.549202 -80.109407 
L 223.41879 -80.166818 
L 222.288377 -80.166818 
L 221.157964 -80.166818 
L 220.027551 -80.166818 
L 218.897139 -80.166818 
L 217.766726 -80.08593 
L 216.636313 -80.08593 
L 215.5059 -80.08593 
L 214.375487 -80.08593 
L 213.245075 -80.08593 
L 212.114662 -80.109407 
L 210.984249 -80.109407 
L 209.853836 -80.109407 
L 208.723424 -80.109407 
L 207.593011 -80.109407 
L 206.462598 -80.109407 
L 205.332185 -79.834053 
L 204.201773 -79.834053 
L 203.07136 -79.834053 
L 201.940947 -79.834053 
L 200.810534 -79.834053 
L 199.680122 -80.361732 
L 198.549709 -80.361732 
L 197.419296 -80.361732 
L 196.288883 -80.361732 
L 195.15847 -80.361732 
L 194.028058 -80.361732 
L 192.897645 -80.00117 
L 191.767232 -80.00117 
L 190.636819 -80.00117 
L 189.506407 -80.00117 
L 188.375994 -80.00117 
L 187.245581 -84.61235 
L 186.115168 -84.61235 
L 184.984756 -84.61235 
L 183.854343 -84.61235 
L 182.72393 -84.61235 
L 181.593517 -84.61235 
L 180.463105 -101.581986 
L 179.332692 -101.581986 
L 178.202279 -101.581986 
L 177.071866 -101.581986 
L 175.941454 -101.581986 
L 174.811041 -101.581986 
L 173.680628 -101.581986 
L 172.550215 -101.581986 
L 171.419802 -101.581986 
L 170.28939 -101.581986 
L 169.158977 -101.581986 
L 168.028564 -101.605813 
L 166.898151 -101.605813 
L 165.767739 -101.605813 
L 164.637326 -101.605813 
L 163.506913 -101.605813 
L 162.3765 -101.671311 
L 161.246088 -101.671311 
L 160.115675 -101.671311 
L 158.985262 -101.671311 
L 157.854849 -101.671311 
L 156.724437 -101.671311 
L 155.594024 -101.671311 
L 154.463611 -101.671311 
L 153.333198 -101.671311 
L 152.202786 -101.671311 
L 151.072373 -101.671311 
L 149.94196 -101.636499 
L 148.811547 -101.636499 
L 147.681134 -101.636499 
L 146.550722 -101.636499 
L 145.420309 -101.636499 
L 144.289896 -101.735085 
L 143.159483 -101.735085 
L 142.029071 -101.735085 
L 140.898658 -101.735085 
L 139.768245 -101.735085 
L 138.637832 -101.735085 
L 137.50742 -102.082418 
L 136.377007 -102.082418 
L 135.246594 -102.082418 
L 134.116181 -102.082418 
L 132.985769 -102.082418 
L 131.855356 -101.646186 
L 130.724943 -101.646186 
L 129.59453 -101.646186 
L 128.464117 -101.646186 
L 127.333705 -101.646186 
L 126.203292 -101.646186 
L 125.072879 -100.564279 
L 123.942466 -100.564279 
L 122.812054 -100.564279 
L 121.681641 -100.564279 
L 120.551228 -100.564279 
L 119.420815 -93.551502 
L 118.290403 -93.551502 
L 117.15999 -93.551502 
L 116.029577 -93.551502 
L 114.899164 -93.551502 
L 113.768752 -74.372471 
L 112.638339 -74.372471 
L 111.507926 -74.372471 
L 110.377513 -74.372471 
L 109.247101 -74.372471 
L 108.116688 -74.372471 
L 106.986275 -65.993784 
L 105.855862 -65.993784 
L 104.725449 -65.993784 
L 103.595037 -65.993784 
L 102.464624 -65.993784 
L 101.334211 -68.8106 
L 100.203798 -68.8106 
L 99.073386 -68.8106 
L 97.942973 -68.8106 
L 96.81256 -68.8106 
L 95.682147 -68.8106 
L 94.551735 -70.271667 
L 93.421322 -70.271667 
L 92.290909 -70.271667 
z
" style="stroke: #bddf26; stroke-opacity: 0.2"/>
    </defs>
    <g clip-path="url(#pf1faff15f2)">
     <use xlink:href="#mb845f55e2e" x="0" y="360" style="fill: #bddf26; fill-opacity: 0.2; stroke: #bddf26; stroke-opacity: 0.2"/>
    </g>
   </g>
   <g id="matplotlib.axis_1">
    <g id="xtick_1">
     <g id="line2d_1">
      <defs>
       <path id="m3433eb7ed6" d="M 0 0 
L 0 3.5 
" style="stroke: #000000; stroke-width: 0.8"/>
      </defs>
      <g>
       <use xlink:href="#m3433eb7ed6" x="116.88595" y="320.4" style="stroke: #000000; stroke-width: 0.8"/>
      </g>
     </g>
     <g id="text_1">
      <!-- $\mathdefault{100}$ -->
      <g transform="translate(106.277417 337.431808) scale(0.145 -0.145)">
       <defs>
        <path id="CMR17-31" d="M 1702 4058 
C 1702 4192 1696 4192 1606 4192 
C 1357 3916 979 3827 621 3827 
C 602 3827 570 3827 563 3808 
C 557 3795 557 3782 557 3648 
C 755 3648 1088 3686 1344 3839 
L 1344 461 
C 1344 236 1331 160 781 160 
L 589 160 
L 589 0 
C 896 0 1216 0 1523 0 
C 1830 0 2150 0 2458 0 
L 2458 160 
L 2266 160 
C 1715 160 1702 230 1702 458 
L 1702 4058 
z
" transform="scale(0.015625)"/>
        <path id="CMR17-30" d="M 2688 2025 
C 2688 2416 2682 3080 2413 3591 
C 2176 4039 1798 4198 1466 4198 
C 1158 4198 768 4058 525 3597 
C 269 3118 243 2524 243 2025 
C 243 1661 250 1106 448 619 
C 723 -39 1216 -128 1466 -128 
C 1760 -128 2208 -7 2470 600 
C 2662 1042 2688 1559 2688 2025 
z
M 1466 -26 
C 1056 -26 813 325 723 812 
C 653 1188 653 1738 653 2096 
C 653 2588 653 2997 736 3387 
C 858 3929 1216 4096 1466 4096 
C 1728 4096 2067 3923 2189 3400 
C 2272 3036 2278 2607 2278 2096 
C 2278 1680 2278 1169 2202 792 
C 2067 95 1690 -26 1466 -26 
z
" transform="scale(0.015625)"/>
       </defs>
       <use xlink:href="#CMR17-31" transform="scale(0.996264)"/>
       <use xlink:href="#CMR17-30" transform="translate(45.690477 0) scale(0.996264)"/>
       <use xlink:href="#CMR17-30" transform="translate(91.380954 0) scale(0.996264)"/>
      </g>
     </g>
    </g>
    <g id="xtick_2">
     <g id="line2d_2">
      <g>
       <use xlink:href="#m3433eb7ed6" x="178.373554" y="320.4" style="stroke: #000000; stroke-width: 0.8"/>
      </g>
     </g>
     <g id="text_2">
      <!-- $\mathdefault{200}$ -->
      <g transform="translate(167.76502 337.431808) scale(0.145 -0.145)">
       <defs>
        <path id="CMR17-32" d="M 2669 989 
L 2554 989 
C 2490 536 2438 459 2413 420 
C 2381 369 1920 369 1830 369 
L 602 369 
C 832 619 1280 1072 1824 1597 
C 2214 1967 2669 2402 2669 3035 
C 2669 3790 2067 4224 1395 4224 
C 691 4224 262 3604 262 3030 
C 262 2780 448 2748 525 2748 
C 589 2748 781 2787 781 3010 
C 781 3207 614 3264 525 3264 
C 486 3264 448 3258 422 3245 
C 544 3790 915 4058 1306 4058 
C 1862 4058 2227 3617 2227 3035 
C 2227 2479 1901 2000 1536 1584 
L 262 146 
L 262 0 
L 2515 0 
L 2669 989 
z
" transform="scale(0.015625)"/>
       </defs>
       <use xlink:href="#CMR17-32" transform="scale(0.996264)"/>
       <use xlink:href="#CMR17-30" transform="translate(45.690477 0) scale(0.996264)"/>
       <use xlink:href="#CMR17-30" transform="translate(91.380954 0) scale(0.996264)"/>
      </g>
     </g>
    </g>
    <g id="xtick_3">
     <g id="line2d_3">
      <g>
       <use xlink:href="#m3433eb7ed6" x="239.861157" y="320.4" style="stroke: #000000; stroke-width: 0.8"/>
      </g>
     </g>
     <g id="text_3">
      <!-- $\mathdefault{300}$ -->
      <g transform="translate(229.252624 337.431808) scale(0.145 -0.145)">
       <defs>
        <path id="CMR17-33" d="M 1414 2157 
C 1984 2157 2234 1662 2234 1090 
C 2234 320 1824 25 1453 25 
C 1114 25 563 194 390 693 
C 422 680 454 680 486 680 
C 640 680 755 782 755 948 
C 755 1133 614 1216 486 1216 
C 378 1216 211 1165 211 926 
C 211 335 787 -128 1466 -128 
C 2176 -128 2720 430 2720 1085 
C 2720 1707 2208 2157 1600 2227 
C 2086 2328 2554 2756 2554 3329 
C 2554 3820 2048 4179 1472 4179 
C 890 4179 378 3829 378 3329 
C 378 3110 544 3072 627 3072 
C 762 3072 877 3155 877 3321 
C 877 3486 762 3569 627 3569 
C 602 3569 570 3569 544 3557 
C 730 3959 1235 4032 1459 4032 
C 1683 4032 2106 3925 2106 3320 
C 2106 3143 2080 2828 1862 2550 
C 1670 2304 1453 2304 1242 2284 
C 1210 2284 1062 2269 1037 2269 
C 992 2263 966 2257 966 2208 
C 966 2163 973 2157 1101 2157 
L 1414 2157 
z
" transform="scale(0.015625)"/>
       </defs>
       <use xlink:href="#CMR17-33" transform="scale(0.996264)"/>
       <use xlink:href="#CMR17-30" transform="translate(45.690477 0) scale(0.996264)"/>
       <use xlink:href="#CMR17-30" transform="translate(91.380954 0) scale(0.996264)"/>
      </g>
     </g>
    </g>
    <g id="xtick_4">
     <g id="line2d_4">
      <g>
       <use xlink:href="#m3433eb7ed6" x="301.34876" y="320.4" style="stroke: #000000; stroke-width: 0.8"/>
      </g>
     </g>
     <g id="text_4">
      <!-- $\mathdefault{400}$ -->
      <g transform="translate(290.740227 337.431808) scale(0.145 -0.145)">
       <defs>
        <path id="CMR17-34" d="M 2150 4122 
C 2150 4256 2144 4256 2029 4256 
L 128 1254 
L 128 1088 
L 1779 1088 
L 1779 457 
C 1779 224 1766 160 1318 160 
L 1197 160 
L 1197 0 
C 1402 0 1747 0 1965 0 
C 2182 0 2528 0 2733 0 
L 2733 160 
L 2611 160 
C 2163 160 2150 224 2150 457 
L 2150 1088 
L 2803 1088 
L 2803 1254 
L 2150 1254 
L 2150 4122 
z
M 1798 3703 
L 1798 1254 
L 256 1254 
L 1798 3703 
z
" transform="scale(0.015625)"/>
       </defs>
       <use xlink:href="#CMR17-34" transform="scale(0.996264)"/>
       <use xlink:href="#CMR17-30" transform="translate(45.690477 0) scale(0.996264)"/>
       <use xlink:href="#CMR17-30" transform="translate(91.380954 0) scale(0.996264)"/>
      </g>
     </g>
    </g>
    <g id="xtick_5">
     <g id="line2d_5">
      <g>
       <use xlink:href="#m3433eb7ed6" x="362.836364" y="320.4" style="stroke: #000000; stroke-width: 0.8"/>
      </g>
     </g>
     <g id="text_5">
      <!-- $\mathdefault{500}$ -->
      <g transform="translate(352.22783 337.431808) scale(0.145 -0.145)">
       <defs>
        <path id="CMR17-35" d="M 730 3692 
C 794 3666 1056 3584 1325 3584 
C 1920 3584 2246 3911 2432 4100 
C 2432 4157 2432 4192 2394 4192 
C 2387 4192 2374 4192 2323 4163 
C 2099 4058 1837 3973 1517 3973 
C 1325 3973 1037 3999 723 4139 
C 653 4171 640 4171 634 4171 
C 602 4171 595 4164 595 4037 
L 595 2203 
C 595 2089 595 2057 659 2057 
C 691 2057 704 2070 736 2114 
C 941 2401 1222 2522 1542 2522 
C 1766 2522 2246 2382 2246 1289 
C 2246 1085 2246 715 2054 421 
C 1894 159 1645 25 1370 25 
C 947 25 518 320 403 814 
C 429 807 480 795 506 795 
C 589 795 749 840 749 1038 
C 749 1210 627 1280 506 1280 
C 358 1280 262 1190 262 1011 
C 262 454 704 -128 1382 -128 
C 2042 -128 2669 440 2669 1264 
C 2669 2030 2170 2624 1549 2624 
C 1222 2624 947 2503 730 2274 
L 730 3692 
z
" transform="scale(0.015625)"/>
       </defs>
       <use xlink:href="#CMR17-35" transform="scale(0.996264)"/>
       <use xlink:href="#CMR17-30" transform="translate(45.690477 0) scale(0.996264)"/>
       <use xlink:href="#CMR17-30" transform="translate(91.380954 0) scale(0.996264)"/>
      </g>
     </g>
    </g>
    <g id="xtick_6">
     <g id="line2d_6">
      <g>
       <use xlink:href="#m3433eb7ed6" x="424.323967" y="320.4" style="stroke: #000000; stroke-width: 0.8"/>
      </g>
     </g>
     <g id="text_6">
      <!-- $\mathdefault{600}$ -->
      <g transform="translate(413.715434 337.431808) scale(0.145 -0.145)">
       <defs>
        <path id="CMR17-36" d="M 678 2176 
C 678 3690 1395 4032 1811 4032 
C 1946 4032 2272 4009 2400 3776 
C 2298 3776 2106 3776 2106 3553 
C 2106 3381 2246 3323 2336 3323 
C 2394 3323 2566 3348 2566 3560 
C 2566 3954 2246 4179 1805 4179 
C 1043 4179 243 3390 243 1984 
C 243 253 966 -128 1478 -128 
C 2099 -128 2688 427 2688 1283 
C 2688 2081 2170 2662 1517 2662 
C 1126 2662 838 2407 678 1960 
L 678 2176 
z
M 1478 25 
C 691 25 691 1200 691 1436 
C 691 1896 909 2560 1504 2560 
C 1613 2560 1926 2560 2138 2120 
C 2253 1870 2253 1609 2253 1289 
C 2253 944 2253 690 2118 434 
C 1978 171 1773 25 1478 25 
z
" transform="scale(0.015625)"/>
       </defs>
       <use xlink:href="#CMR17-36" transform="scale(0.996264)"/>
       <use xlink:href="#CMR17-30" transform="translate(45.690477 0) scale(0.996264)"/>
       <use xlink:href="#CMR17-30" transform="translate(91.380954 0) scale(0.996264)"/>
      </g>
     </g>
    </g>
    <g id="xtick_7">
     <g id="line2d_7">
      <g>
       <use xlink:href="#m3433eb7ed6" x="485.81157" y="320.4" style="stroke: #000000; stroke-width: 0.8"/>
      </g>
     </g>
     <g id="text_7">
      <!-- $\mathdefault{700}$ -->
      <g transform="translate(475.203037 337.431808) scale(0.145 -0.145)">
       <defs>
        <path id="CMR17-37" d="M 2886 3941 
L 2886 4081 
L 1382 4081 
C 634 4081 621 4165 595 4288 
L 480 4288 
L 294 3094 
L 410 3094 
C 429 3215 474 3540 550 3661 
C 589 3712 1062 3712 1171 3712 
L 2579 3712 
L 1869 2661 
C 1395 1954 1069 999 1069 165 
C 1069 89 1069 -128 1299 -128 
C 1530 -128 1530 89 1530 171 
L 1530 465 
C 1530 1508 1709 2196 2003 2636 
L 2886 3941 
z
" transform="scale(0.015625)"/>
       </defs>
       <use xlink:href="#CMR17-37" transform="scale(0.996264)"/>
       <use xlink:href="#CMR17-30" transform="translate(45.690477 0) scale(0.996264)"/>
       <use xlink:href="#CMR17-30" transform="translate(91.380954 0) scale(0.996264)"/>
      </g>
     </g>
    </g>
    <g id="text_8">
     <!-- time (s) -->
     <g transform="translate(271.677317 355.075073) scale(0.145 -0.145)">
      <defs>
       <path id="CMSS17-74" d="M 1069 2368 
L 1901 2368 
L 1901 2737 
L 1069 2737 
L 1069 3520 
L 614 3520 
L 614 2737 
L 109 2737 
L 109 2368 
L 602 2368 
L 602 749 
C 602 384 685 -64 1107 -64 
C 1427 -64 1722 25 2003 172 
L 1901 548 
C 1747 414 1562 337 1363 337 
C 1082 337 1069 696 1069 856 
L 1069 2368 
z
" transform="scale(0.015625)"/>
       <path id="CMSS17-69" d="M 979 4183 
L 442 4183 
L 442 3648 
L 979 3648 
L 979 4183 
z
M 947 2739 
L 474 2739 
L 474 0 
L 947 0 
L 947 2739 
z
" transform="scale(0.015625)"/>
       <path id="CMSS17-6d" d="M 4288 1877 
C 4288 2308 4179 2816 3462 2816 
C 2982 2816 2694 2516 2566 2331 
C 2451 2670 2182 2816 1798 2816 
C 1363 2816 1088 2568 941 2389 
L 941 2758 
L 474 2758 
L 474 0 
L 960 0 
L 960 1559 
C 960 1939 1101 2428 1555 2428 
C 2138 2428 2138 2016 2138 1829 
L 2138 0 
L 2624 0 
L 2624 1559 
C 2624 1939 2765 2428 3219 2428 
C 3802 2428 3802 2016 3802 1829 
L 3802 0 
L 4288 0 
L 4288 1877 
z
" transform="scale(0.015625)"/>
       <path id="CMSS17-65" d="M 2502 1377 
C 2502 1590 2490 2003 2285 2345 
C 2061 2713 1696 2816 1421 2816 
C 755 2816 192 2188 192 1375 
C 192 582 774 -64 1510 -64 
C 1798 -64 2150 19 2470 248 
C 2470 274 2458 414 2451 420 
C 2451 433 2432 630 2432 656 
C 2125 407 1773 325 1517 325 
C 1107 325 666 667 646 1377 
L 2502 1377 
z
M 698 1728 
C 781 2084 1062 2421 1421 2421 
C 1517 2421 1965 2421 2080 1728 
L 698 1728 
z
" transform="scale(0.015625)"/>
       <path id="CMSS17-28" d="M 1613 4768 
C 1267 4417 474 3601 474 1588 
C 474 -433 1267 -1243 1613 -1600 
L 2003 -1600 
C 1216 -784 960 357 960 1581 
C 960 2798 1203 3946 2003 4768 
L 1613 4768 
z
" transform="scale(0.015625)"/>
       <path id="CMSS17-73" d="M 2061 2627 
C 1683 2807 1389 2807 1197 2807 
C 742 2807 198 2648 198 2003 
C 198 1359 902 1218 1094 1179 
C 1389 1122 1715 1058 1715 740 
C 1715 337 1254 337 1171 337 
C 915 337 563 407 243 638 
L 166 210 
C 531 0 883 -64 1178 -64 
C 1965 -64 2163 416 2163 781 
C 2163 1094 1984 1305 1862 1401 
C 1651 1568 1574 1587 1050 1696 
C 960 1709 646 1779 646 2066 
C 646 2432 1050 2432 1139 2432 
C 1555 2432 1811 2303 1984 2208 
L 2061 2627 
z
" transform="scale(0.015625)"/>
       <path id="CMSS17-29" d="M 723 -1600 
C 1069 -1249 1862 -433 1862 1581 
C 1862 3601 1069 4411 723 4768 
L 333 4768 
C 1120 3952 1376 2811 1376 1588 
C 1376 370 1133 -778 333 -1600 
L 723 -1600 
z
" transform="scale(0.015625)"/>
      </defs>
      <use xlink:href="#CMSS17-74" transform="scale(0.996264)"/>
      <use xlink:href="#CMSS17-69" transform="translate(33.831567 0) scale(0.996264)"/>
      <use xlink:href="#CMSS17-6d" transform="translate(56.01229 0) scale(0.996264)"/>
      <use xlink:href="#CMSS17-65" transform="translate(130.241544 0) scale(0.996264)"/>
      <use xlink:href="#CMSS17-28" transform="translate(203.109479 0) scale(0.996264)"/>
      <use xlink:href="#CMSS17-73" transform="translate(239.543393 0) scale(0.996264)"/>
      <use xlink:href="#CMSS17-29" transform="translate(275.456935 0) scale(0.996264)"/>
     </g>
    </g>
   </g>
   <g id="matplotlib.axis_2">
    <g id="ytick_1">
     <g id="line2d_8">
      <path d="M 72 320.4 
L 518.4 320.4 
" clip-path="url(#pf1faff15f2)" style="fill: none; stroke-dasharray: 1.85,0.8; stroke-dashoffset: 0; stroke: #808080; stroke-width: 0.5"/>
     </g>
     <g id="line2d_9">
      <defs>
       <path id="me2832861f3" d="M 0 0 
L -3.5 0 
" style="stroke: #000000; stroke-width: 0.8"/>
      </defs>
      <g>
       <use xlink:href="#me2832861f3" x="72" y="320.4" style="stroke: #000000; stroke-width: 0.8"/>
      </g>
     </g>
     <g id="text_9">
      <!-- $\mathdefault{0.0}$ -->
      <g transform="translate(46.926206 325.415904) scale(0.145 -0.145)">
       <defs>
        <path id="CMMI12-3a" d="M 1178 307 
C 1178 492 1024 619 870 619 
C 685 619 557 466 557 313 
C 557 128 710 0 864 0 
C 1050 0 1178 153 1178 307 
z
" transform="scale(0.015625)"/>
       </defs>
       <use xlink:href="#CMR17-30" transform="scale(0.996264)"/>
       <use xlink:href="#CMMI12-3a" transform="translate(45.690477 0) scale(0.996264)"/>
       <use xlink:href="#CMR17-30" transform="translate(72.787654 0) scale(0.996264)"/>
      </g>
     </g>
    </g>
    <g id="ytick_2">
     <g id="line2d_10">
      <path d="M 72 267.6 
L 518.4 267.6 
" clip-path="url(#pf1faff15f2)" style="fill: none; stroke-dasharray: 1.85,0.8; stroke-dashoffset: 0; stroke: #808080; stroke-width: 0.5"/>
     </g>
     <g id="line2d_11">
      <g>
       <use xlink:href="#me2832861f3" x="72" y="267.6" style="stroke: #000000; stroke-width: 0.8"/>
      </g>
     </g>
     <g id="text_10">
      <!-- $\mathdefault{0.2}$ -->
      <g transform="translate(46.926206 272.615904) scale(0.145 -0.145)">
       <use xlink:href="#CMR17-30" transform="scale(0.996264)"/>
       <use xlink:href="#CMMI12-3a" transform="translate(45.690477 0) scale(0.996264)"/>
       <use xlink:href="#CMR17-32" transform="translate(72.787654 0) scale(0.996264)"/>
      </g>
     </g>
    </g>
    <g id="ytick_3">
     <g id="line2d_12">
      <path d="M 72 214.8 
L 518.4 214.8 
" clip-path="url(#pf1faff15f2)" style="fill: none; stroke-dasharray: 1.85,0.8; stroke-dashoffset: 0; stroke: #808080; stroke-width: 0.5"/>
     </g>
     <g id="line2d_13">
      <g>
       <use xlink:href="#me2832861f3" x="72" y="214.8" style="stroke: #000000; stroke-width: 0.8"/>
      </g>
     </g>
     <g id="text_11">
      <!-- $\mathdefault{0.4}$ -->
      <g transform="translate(46.926206 219.815904) scale(0.145 -0.145)">
       <use xlink:href="#CMR17-30" transform="scale(0.996264)"/>
       <use xlink:href="#CMMI12-3a" transform="translate(45.690477 0) scale(0.996264)"/>
       <use xlink:href="#CMR17-34" transform="translate(72.787654 0) scale(0.996264)"/>
      </g>
     </g>
    </g>
    <g id="ytick_4">
     <g id="line2d_14">
      <path d="M 72 162 
L 518.4 162 
" clip-path="url(#pf1faff15f2)" style="fill: none; stroke-dasharray: 1.85,0.8; stroke-dashoffset: 0; stroke: #808080; stroke-width: 0.5"/>
     </g>
     <g id="line2d_15">
      <g>
       <use xlink:href="#me2832861f3" x="72" y="162" style="stroke: #000000; stroke-width: 0.8"/>
      </g>
     </g>
     <g id="text_12">
      <!-- $\mathdefault{0.6}$ -->
      <g transform="translate(46.926206 167.015904) scale(0.145 -0.145)">
       <use xlink:href="#CMR17-30" transform="scale(0.996264)"/>
       <use xlink:href="#CMMI12-3a" transform="translate(45.690477 0) scale(0.996264)"/>
       <use xlink:href="#CMR17-36" transform="translate(72.787654 0) scale(0.996264)"/>
      </g>
     </g>
    </g>
    <g id="ytick_5">
     <g id="line2d_16">
      <path d="M 72 109.2 
L 518.4 109.2 
" clip-path="url(#pf1faff15f2)" style="fill: none; stroke-dasharray: 1.85,0.8; stroke-dashoffset: 0; stroke: #808080; stroke-width: 0.5"/>
     </g>
     <g id="line2d_17">
      <g>
       <use xlink:href="#me2832861f3" x="72" y="109.2" style="stroke: #000000; stroke-width: 0.8"/>
      </g>
     </g>
     <g id="text_13">
      <!-- $\mathdefault{0.8}$ -->
      <g transform="translate(46.926206 114.215904) scale(0.145 -0.145)">
       <defs>
        <path id="CMR17-38" d="M 1741 2264 
C 2144 2467 2554 2773 2554 3263 
C 2554 3841 1990 4179 1472 4179 
C 890 4179 378 3759 378 3180 
C 378 3021 416 2747 666 2505 
C 730 2442 998 2251 1171 2130 
C 883 1983 211 1634 211 934 
C 211 279 838 -128 1459 -128 
C 2144 -128 2720 362 2720 1010 
C 2720 1590 2330 1857 2074 2029 
L 1741 2264 
z
M 902 2822 
C 851 2854 595 3051 595 3351 
C 595 3739 998 4032 1459 4032 
C 1965 4032 2336 3676 2336 3262 
C 2336 2669 1670 2331 1638 2331 
C 1632 2331 1626 2331 1574 2370 
L 902 2822 
z
M 2080 1519 
C 2176 1449 2483 1240 2483 851 
C 2483 381 2010 25 1472 25 
C 890 25 448 438 448 940 
C 448 1443 838 1862 1280 2060 
L 2080 1519 
z
" transform="scale(0.015625)"/>
       </defs>
       <use xlink:href="#CMR17-30" transform="scale(0.996264)"/>
       <use xlink:href="#CMMI12-3a" transform="translate(45.690477 0) scale(0.996264)"/>
       <use xlink:href="#CMR17-38" transform="translate(72.787654 0) scale(0.996264)"/>
      </g>
     </g>
    </g>
    <g id="ytick_6">
     <g id="line2d_18">
      <path d="M 72 56.4 
L 518.4 56.4 
" clip-path="url(#pf1faff15f2)" style="fill: none; stroke-dasharray: 1.85,0.8; stroke-dashoffset: 0; stroke: #808080; stroke-width: 0.5"/>
     </g>
     <g id="line2d_19">
      <g>
       <use xlink:href="#me2832861f3" x="72" y="56.4" style="stroke: #000000; stroke-width: 0.8"/>
      </g>
     </g>
     <g id="text_14">
      <!-- $\mathdefault{1.0}$ -->
      <g transform="translate(46.926206 61.415904) scale(0.145 -0.145)">
       <use xlink:href="#CMR17-31" transform="scale(0.996264)"/>
       <use xlink:href="#CMMI12-3a" transform="translate(45.690477 0) scale(0.996264)"/>
       <use xlink:href="#CMR17-30" transform="translate(72.787654 0) scale(0.996264)"/>
      </g>
     </g>
    </g>
    <g id="text_15">
     <!-- QoS -->
     <g transform="translate(40.117312 194.481753) rotate(-90) scale(0.145 -0.145)">
      <defs>
       <path id="CMSS17-51" d="M 3200 202 
C 3981 833 4096 1689 4096 2174 
C 4096 3501 3219 4497 2214 4497 
C 1210 4497 333 3497 333 2178 
C 333 847 1222 -128 2214 -128 
C 2438 -128 2630 -77 2765 -26 
L 3302 -832 
L 3930 -832 
L 3200 202 
z
M 2528 324 
C 2438 293 2330 273 2214 273 
C 1523 273 858 993 858 2178 
C 858 3357 1517 4096 2214 4096 
C 2918 4096 3571 3350 3571 2178 
C 3571 1771 3507 1089 2950 566 
L 2490 1210 
L 1939 1210 
L 2528 324 
z
" transform="scale(0.015625)"/>
       <path id="CMSS17-6f" d="M 2829 1356 
C 2829 2176 2221 2816 1504 2816 
C 768 2816 173 2157 173 1356 
C 173 544 787 -64 1498 -64 
C 2227 -64 2829 563 2829 1356 
z
M 1504 337 
C 1050 337 659 709 659 1408 
C 659 2151 1114 2427 1498 2427 
C 1914 2427 2342 2126 2342 1408 
C 2342 683 1926 337 1504 337 
z
" transform="scale(0.015625)"/>
       <path id="CMSS17-53" d="M 2797 4169 
C 2515 4334 2208 4480 1690 4480 
C 864 4480 333 3879 333 3266 
C 333 3025 403 2753 653 2475 
C 902 2196 1184 2121 1542 2033 
C 1690 1994 1939 1924 1984 1906 
C 2342 1767 2515 1444 2515 1140 
C 2515 742 2202 318 1645 318 
C 1453 318 890 318 358 819 
L 269 318 
C 794 -64 1363 -128 1651 -128 
C 2438 -128 3002 488 3002 1186 
C 3002 1440 2925 1763 2656 2061 
C 2394 2347 2163 2410 1638 2549 
C 1338 2626 1146 2677 986 2873 
C 877 3013 819 3146 819 3317 
C 819 3673 1126 4060 1690 4060 
C 1971 4060 2336 4002 2707 3660 
L 2797 4169 
z
" transform="scale(0.015625)"/>
      </defs>
      <use xlink:href="#CMSS17-51" transform="scale(0.996264)"/>
      <use xlink:href="#CMSS17-6f" transform="translate(69.024255 0) scale(0.996264)"/>
      <use xlink:href="#CMSS17-53" transform="translate(115.867879 0) scale(0.996264)"/>
     </g>
    </g>
   </g>
   <g id="line2d_20">
    <path d="M 92.290909 261.23628 
L 119.420815 261.264 
L 120.551228 272.296296 
L 125.072879 272.296296 
L 126.203292 275.436576 
L 131.855356 275.436576 
L 132.985769 275.297976 
L 180.463105 275.297976 
L 181.593517 282.800592 
L 187.245581 282.800592 
L 188.375994 289.27572 
L 192.897645 289.27572 
L 194.028058 288.970272 
L 242.635807 289.025712 
L 243.766219 291.582552 
L 248.28787 291.582552 
L 249.418283 302.475799 
L 255.070347 302.475799 
L 256.20076 303.615144 
L 260.722411 303.615144 
L 261.852823 303.893083 
L 291.243555 303.976454 
L 294.634794 304.032026 
L 310.460572 303.976454 
L 311.590985 293.833495 
L 316.112636 293.833495 
L 317.243049 291.498864 
L 321.7647 291.498864 
L 322.895113 291.165168 
L 340.981717 291.082008 
L 342.11213 291.304296 
L 346.633781 291.304296 
L 348.894606 291.193152 
L 371.502861 291.220872 
L 372.633274 284.21748 
L 377.154925 284.21748 
L 378.285338 279.633384 
L 383.937402 279.633384 
L 385.067815 279.271704 
L 432.545151 279.354864 
L 433.675563 278.632296 
L 439.327627 278.632296 
L 440.45804 270.128856 
L 444.979691 270.128856 
L 446.110104 269.295144 
L 451.762168 269.295144 
L 452.89258 269.156016 
L 487.935376 269.184 
L 490.196202 269.267424 
L 494.717853 269.267424 
L 495.848265 269.100576 
L 498.109091 269.100576 
L 498.109091 269.100576 
" clip-path="url(#pf1faff15f2)" style="fill: none; stroke: #482475; stroke-width: 2.5; stroke-linecap: square"/>
   </g>
   <g id="line2d_21">
    <path d="M 92.290909 286.858008 
L 94.551735 286.858008 
L 95.682147 285.496296 
L 101.334211 285.496296 
L 102.464624 280.744032 
L 106.986275 280.744032 
L 108.116688 270.26772 
L 113.768752 270.26772 
L 114.899164 254.4 
L 119.420815 254.4 
L 120.551228 257.345448 
L 125.072879 257.345448 
L 126.203292 256.233744 
L 131.855356 256.233744 
L 132.985769 256.095408 
L 137.50742 256.095408 
L 138.637832 256.261992 
L 162.3765 256.317432 
L 164.637326 256.400856 
L 180.463105 256.345152 
L 181.593517 272.684904 
L 187.245581 272.684904 
L 188.375994 277.799376 
L 192.897645 277.799376 
L 194.028058 277.492872 
L 199.680122 277.492872 
L 200.810534 277.854024 
L 242.635807 277.79832 
L 243.766219 282.522864 
L 248.28787 282.522864 
L 249.418283 297.501485 
L 255.070347 297.501485 
L 256.20076 296.75117 
L 260.722411 296.75117 
L 261.852823 297.05683 
L 267.504887 297.05683 
L 268.6353 297.223546 
L 310.460572 297.223546 
L 311.590985 280.966848 
L 316.112636 280.966848 
L 317.243049 277.826568 
L 371.502861 277.770864 
L 372.633274 267.294024 
L 377.154925 267.294024 
L 378.285338 256.706304 
L 383.937402 256.706304 
L 385.067815 256.289448 
L 414.458546 256.261728 
L 415.588959 256.400592 
L 421.241023 256.400592 
L 422.371436 256.261728 
L 426.893087 256.261728 
L 428.0235 256.42884 
L 439.327627 256.456824 
L 440.45804 240.866832 
L 444.979691 240.866832 
L 446.110104 239.866008 
L 498.109091 239.838288 
L 498.109091 239.838288 
" clip-path="url(#pf1faff15f2)" style="fill: none; stroke: #bddf26; stroke-width: 2.5; stroke-linecap: square"/>
   </g>
   <g id="patch_3">
    <path d="M 72 320.4 
L 72 43.2 
" style="fill: none; stroke: #000000; stroke-width: 0.8; stroke-linejoin: miter; stroke-linecap: square"/>
   </g>
   <g id="patch_4">
    <path d="M 518.4 320.4 
L 518.4 43.2 
" style="fill: none; stroke: #000000; stroke-width: 0.8; stroke-linejoin: miter; stroke-linecap: square"/>
   </g>
   <g id="patch_5">
    <path d="M 72 320.4 
L 518.4 320.4 
" style="fill: none; stroke: #000000; stroke-width: 0.8; stroke-linejoin: miter; stroke-linecap: square"/>
   </g>
   <g id="text_16">
    <!-- $nt=Barabsi$ $d=1000$ $oc=3\%$ $l=costant$ -->
    <g transform="translate(130.029518 37.2) scale(0.18 -0.18)">
     <defs>
      <path id="CMMI12-6e" d="M 1318 1871 
C 1331 1910 1491 2229 1728 2433 
C 1894 2586 2112 2689 2362 2689 
C 2618 2689 2707 2497 2707 2242 
C 2707 1878 2445 1150 2317 805 
C 2259 651 2227 568 2227 453 
C 2227 166 2426 -64 2733 -64 
C 3328 -64 3552 875 3552 913 
C 3552 945 3526 971 3488 971 
C 3430 971 3424 952 3392 843 
C 3245 319 3002 64 2752 64 
C 2688 64 2586 64 2586 269 
C 2586 429 2656 621 2694 710 
C 2822 1063 3091 1780 3091 2145 
C 3091 2528 2867 2816 2381 2816 
C 1811 2816 1510 2415 1395 2255 
C 1376 2618 1114 2816 832 2816 
C 627 2816 486 2695 378 2478 
C 262 2248 173 1865 173 1839 
C 173 1814 198 1782 243 1782 
C 294 1782 301 1788 339 1935 
C 442 2325 557 2689 813 2689 
C 960 2689 1011 2586 1011 2395 
C 1011 2254 947 2005 902 1807 
L 723 1118 
C 698 996 627 709 595 594 
C 550 428 480 128 480 96 
C 480 6 550 -64 646 -64 
C 723 -64 813 -26 864 70 
C 877 102 934 326 966 453 
L 1107 1028 
L 1318 1871 
z
" transform="scale(0.015625)"/>
      <path id="CMMI12-74" d="M 1286 2566 
L 1875 2566 
C 1997 2566 2061 2566 2061 2681 
C 2061 2752 2022 2752 1894 2752 
L 1331 2752 
L 1568 3692 
C 1594 3781 1594 3794 1594 3840 
C 1594 3943 1510 4000 1427 4000 
C 1376 4000 1229 3981 1178 3775 
L 928 2752 
L 326 2752 
C 198 2752 141 2752 141 2630 
C 141 2566 186 2566 307 2566 
L 877 2566 
L 454 881 
C 403 658 384 594 384 511 
C 384 211 595 -64 954 -64 
C 1600 -64 1946 868 1946 912 
C 1946 951 1920 970 1882 970 
C 1869 970 1843 970 1830 944 
C 1824 938 1818 931 1773 829 
C 1638 511 1344 64 973 64 
C 781 64 768 224 768 364 
C 768 370 768 492 787 568 
L 1286 2566 
z
" transform="scale(0.015625)"/>
      <path id="CMR17-3d" d="M 4115 2017 
C 4211 2017 4307 2017 4307 2125 
C 4307 2240 4198 2240 4090 2240 
L 512 2240 
C 403 2240 294 2240 294 2125 
C 294 2017 390 2017 486 2017 
L 4115 2017 
z
M 4090 896 
C 4198 896 4307 896 4307 1011 
C 4307 1119 4211 1119 4115 1119 
L 486 1119 
C 390 1119 294 1119 294 1011 
C 294 896 403 896 512 896 
L 4090 896 
z
" transform="scale(0.015625)"/>
      <path id="CMMI12-42" d="M 2342 3921 
C 2400 4160 2426 4160 2675 4160 
L 3507 4160 
C 4230 4160 4230 3544 4230 3485 
C 4230 2966 3712 2304 2867 2304 
L 1946 2304 
L 2342 3921 
z
M 3424 2275 
C 4122 2402 4755 2886 4755 3473 
C 4755 3970 4314 4352 3590 4352 
L 1536 4352 
C 1414 4352 1357 4352 1357 4226 
C 1357 4160 1414 4160 1510 4160 
C 1901 4160 1901 4112 1901 4044 
C 1901 4032 1901 3993 1875 3897 
L 1011 472 
C 954 249 941 185 493 185 
C 371 185 307 185 307 70 
C 307 0 346 0 474 0 
L 2669 0 
C 3648 0 4403 739 4403 1383 
C 4403 1906 3942 2224 3424 2275 
z
M 2515 185 
L 1651 185 
C 1562 185 1549 185 1510 192 
C 1440 198 1434 211 1434 261 
C 1434 305 1446 343 1459 399 
L 1907 2176 
L 3110 2176 
C 3866 2176 3866 1483 3866 1433 
C 3866 828 3309 185 2515 185 
z
" transform="scale(0.015625)"/>
      <path id="CMMI12-61" d="M 1926 760 
C 1894 651 1894 639 1805 517 
C 1664 338 1382 64 1082 64 
C 819 64 672 300 672 677 
C 672 1028 870 1743 992 2012 
C 1210 2459 1510 2689 1760 2689 
C 2182 2689 2266 2165 2266 2114 
C 2266 2108 2246 2024 2240 2012 
L 1926 760 
z
M 2336 2395 
C 2266 2561 2093 2816 1760 2816 
C 1037 2816 256 1884 256 939 
C 256 307 627 -64 1062 -64 
C 1414 -64 1715 211 1894 422 
C 1958 45 2259 -64 2451 -64 
C 2643 -64 2797 51 2912 281 
C 3014 498 3104 888 3104 913 
C 3104 945 3078 971 3040 971 
C 2982 971 2976 939 2950 843 
C 2854 466 2733 64 2470 64 
C 2285 64 2272 230 2272 358 
C 2272 505 2291 575 2349 824 
C 2394 984 2426 1124 2477 1309 
C 2714 2267 2771 2497 2771 2535 
C 2771 2625 2701 2695 2605 2695 
C 2400 2695 2349 2472 2336 2395 
z
" transform="scale(0.015625)"/>
      <path id="CMMI12-72" d="M 2490 2612 
C 2291 2574 2189 2433 2189 2293 
C 2189 2139 2310 2088 2400 2088 
C 2579 2088 2726 2242 2726 2433 
C 2726 2638 2528 2816 2208 2816 
C 1952 2816 1658 2701 1389 2312 
C 1344 2650 1088 2816 832 2816 
C 582 2816 454 2625 378 2484 
C 269 2254 173 1871 173 1839 
C 173 1814 198 1782 243 1782 
C 294 1782 301 1788 339 1935 
C 435 2318 557 2689 813 2689 
C 966 2689 1011 2580 1011 2395 
C 1011 2254 947 2005 902 1807 
L 723 1118 
C 698 996 627 709 595 594 
C 550 428 480 128 480 96 
C 480 6 550 -64 646 -64 
C 717 -64 838 -19 877 109 
C 896 160 1133 1124 1171 1271 
C 1203 1411 1242 1546 1274 1686 
C 1299 1775 1325 1878 1344 1961 
C 1363 2018 1536 2331 1696 2472 
C 1773 2542 1939 2689 2202 2689 
C 2304 2689 2406 2670 2490 2612 
z
" transform="scale(0.015625)"/>
      <path id="CMMI12-62" d="M 1478 4257 
C 1485 4283 1498 4321 1498 4352 
C 1498 4416 1434 4416 1421 4416 
C 1414 4416 1184 4393 1069 4377 
C 960 4377 864 4358 749 4358 
C 595 4345 550 4339 550 4224 
C 550 4160 614 4160 678 4160 
C 1005 4160 1005 4103 1005 4040 
C 1005 3996 954 3811 928 3696 
L 774 3085 
C 710 2831 346 1387 320 1272 
C 288 1114 288 1005 288 922 
C 288 274 653 -64 1069 -64 
C 1811 -64 2579 888 2579 1814 
C 2579 2401 2246 2816 1766 2816 
C 1434 2816 1133 2542 1011 2414 
L 1478 4257 
z
M 1075 64 
C 870 64 646 217 646 715 
C 646 926 666 1047 781 1494 
C 800 1577 902 1986 928 2069 
C 941 2120 1318 2689 1754 2689 
C 2035 2689 2163 2408 2163 2076 
C 2163 1769 1984 1047 1824 715 
C 1664 370 1370 64 1075 64 
z
" transform="scale(0.015625)"/>
      <path id="CMMI12-73" d="M 1459 1280 
C 1568 1261 1741 1223 1779 1216 
C 1862 1192 2150 1090 2150 783 
C 2150 586 1971 70 1229 70 
C 1094 70 614 70 486 436 
C 742 404 870 603 870 745 
C 870 880 781 950 653 950 
C 512 950 326 841 326 552 
C 326 173 710 -64 1222 -64 
C 2195 -64 2483 651 2483 984 
C 2483 1079 2483 1258 2278 1462 
C 2118 1616 1965 1648 1619 1718 
C 1446 1756 1171 1814 1171 2101 
C 1171 2229 1286 2689 1894 2689 
C 2163 2689 2426 2589 2490 2368 
C 2208 2368 2195 2125 2195 2119 
C 2195 1984 2317 1946 2374 1946 
C 2464 1946 2643 2015 2643 2281 
C 2643 2545 2400 2816 1901 2816 
C 1062 2816 838 2160 838 1899 
C 838 1414 1312 1312 1459 1280 
z
" transform="scale(0.015625)"/>
      <path id="CMMI12-69" d="M 1811 913 
C 1811 945 1786 971 1747 971 
C 1690 971 1683 952 1651 843 
C 1485 262 1222 64 1011 64 
C 934 64 845 83 845 275 
C 845 447 922 639 992 830 
L 1440 2018 
C 1459 2069 1504 2184 1504 2305 
C 1504 2574 1312 2816 998 2816 
C 410 2816 173 1890 173 1839 
C 173 1814 198 1782 243 1782 
C 301 1782 307 1807 333 1896 
C 486 2428 730 2682 979 2682 
C 1037 2682 1146 2682 1146 2478 
C 1146 2312 1062 2101 1011 1961 
L 563 773 
C 525 671 486 568 486 453 
C 486 166 685 -64 992 -64 
C 1581 -64 1811 869 1811 913 
z
M 1760 4013 
C 1760 4109 1683 4224 1542 4224 
C 1395 4224 1229 4083 1229 3917 
C 1229 3758 1363 3707 1440 3707 
C 1613 3707 1760 3873 1760 4013 
z
" transform="scale(0.015625)"/>
      <path id="CMMI12-64" d="M 3219 4257 
C 3226 4282 3238 4320 3238 4352 
C 3238 4416 3174 4416 3162 4416 
C 3155 4416 2842 4388 2810 4380 
C 2701 4373 2605 4358 2490 4358 
C 2330 4345 2285 4339 2285 4224 
C 2285 4160 2336 4160 2426 4160 
C 2739 4160 2746 4103 2746 4040 
C 2746 4002 2733 3952 2726 3933 
L 2336 2395 
C 2266 2561 2093 2816 1760 2816 
C 1037 2816 256 1884 256 939 
C 256 307 627 -64 1062 -64 
C 1414 -64 1715 211 1894 422 
C 1958 45 2259 -64 2451 -64 
C 2643 -64 2797 51 2912 281 
C 3014 498 3104 888 3104 913 
C 3104 945 3078 971 3040 971 
C 2982 971 2976 939 2950 843 
C 2854 466 2733 64 2470 64 
C 2285 64 2272 229 2272 357 
C 2272 382 2272 515 2317 694 
L 3219 4257 
z
M 1926 760 
C 1894 651 1894 639 1805 517 
C 1664 338 1382 64 1082 64 
C 819 64 672 300 672 677 
C 672 1028 870 1743 992 2012 
C 1210 2459 1510 2689 1760 2689 
C 2182 2689 2266 2165 2266 2114 
C 2266 2108 2246 2024 2240 2012 
L 1926 760 
z
" transform="scale(0.015625)"/>
      <path id="CMMI12-6f" d="M 2918 1756 
C 2918 2363 2522 2816 1939 2816 
C 1094 2816 262 1897 262 996 
C 262 390 659 -64 1242 -64 
C 2093 -64 2918 856 2918 1756 
z
M 1248 64 
C 928 64 691 319 691 766 
C 691 1060 845 1712 1024 2031 
C 1312 2523 1670 2689 1933 2689 
C 2246 2689 2490 2433 2490 1986 
C 2490 1731 2355 1047 2112 658 
C 1850 230 1498 64 1248 64 
z
" transform="scale(0.015625)"/>
      <path id="CMMI12-63" d="M 2502 2431 
C 2381 2431 2323 2431 2234 2355 
C 2195 2323 2125 2227 2125 2125 
C 2125 1997 2221 1920 2342 1920 
C 2496 1920 2669 2044 2669 2292 
C 2669 2588 2374 2816 1933 2816 
C 1094 2816 256 1903 256 996 
C 256 441 602 -64 1254 -64 
C 2125 -64 2675 622 2675 706 
C 2675 744 2637 776 2611 776 
C 2592 776 2586 770 2528 713 
C 2118 162 1510 64 1267 64 
C 826 64 685 446 685 764 
C 685 988 794 1605 1024 2039 
C 1190 2338 1536 2682 1939 2682 
C 2022 2682 2374 2682 2502 2431 
z
" transform="scale(0.015625)"/>
      <path id="CMR17-25" d="M 4640 959 
C 4640 1698 4275 2240 3846 2240 
C 3411 2240 2970 1736 2970 959 
C 2970 183 3405 -320 3846 -320 
C 4275 -320 4640 215 4640 959 
z
M 3853 -218 
C 3686 -218 3270 -66 3270 959 
C 3270 1991 3686 2138 3853 2138 
C 4205 2138 4525 1634 4525 959 
C 4525 285 4205 -218 3853 -218 
z
M 4083 4577 
C 4128 4647 4134 4653 4134 4685 
C 4134 4761 4077 4800 4026 4800 
C 3962 4800 3936 4756 3891 4706 
C 3520 4190 3008 4134 2746 4134 
C 2106 4134 1715 4494 1594 4607 
C 1510 4682 1389 4800 1171 4800 
C 736 4800 294 4296 294 3519 
C 294 2743 730 2240 1171 2240 
C 1600 2240 1965 2778 1965 3527 
C 1965 3969 1830 4270 1811 4308 
C 2202 4064 2586 4032 2752 4032 
C 3162 4032 3456 4183 3616 4289 
L 3622 4283 
L 858 -84 
C 800 -174 800 -187 800 -206 
C 800 -276 858 -320 915 -320 
C 973 -320 992 -289 1037 -218 
L 4083 4577 
z
M 1178 2342 
C 1011 2342 595 2494 595 3519 
C 595 4551 1011 4698 1178 4698 
C 1530 4698 1850 4194 1850 3519 
C 1850 2845 1530 2342 1178 2342 
z
" transform="scale(0.015625)"/>
      <path id="CMMI12-6c" d="M 1626 4257 
C 1632 4282 1645 4320 1645 4352 
C 1645 4416 1581 4416 1568 4416 
C 1562 4416 1331 4393 1216 4377 
C 1107 4377 1011 4358 896 4358 
C 742 4345 698 4339 698 4224 
C 698 4160 762 4160 826 4160 
C 1152 4160 1152 4102 1152 4039 
C 1152 4014 1152 4001 1120 3887 
L 326 731 
C 307 661 294 610 294 509 
C 294 191 531 -64 858 -64 
C 1069 -64 1210 76 1312 274 
C 1421 483 1510 884 1510 909 
C 1510 941 1485 967 1446 967 
C 1389 967 1382 935 1357 840 
C 1242 401 1126 64 870 64 
C 678 64 678 267 678 357 
C 678 382 678 515 723 694 
L 1626 4257 
z
" transform="scale(0.015625)"/>
     </defs>
     <use xlink:href="#CMMI12-6e" transform="scale(0.996264)"/>
     <use xlink:href="#CMMI12-74" transform="translate(58.230047 0) scale(0.996264)"/>
     <use xlink:href="#CMR17-3d" transform="translate(121.130386 0) scale(0.996264)"/>
     <use xlink:href="#CMMI12-42" transform="translate(220.519183 0) scale(0.996264)"/>
     <use xlink:href="#CMMI12-61" transform="translate(299.654707 0) scale(0.996264)"/>
     <use xlink:href="#CMMI12-72" transform="translate(350.862564 0) scale(0.996264)"/>
     <use xlink:href="#CMMI12-61" transform="translate(397.533176 0) scale(0.996264)"/>
     <use xlink:href="#CMMI12-62" transform="translate(448.741034 0) scale(0.996264)"/>
     <use xlink:href="#CMMI12-73" transform="translate(490.216908 0) scale(0.996264)"/>
     <use xlink:href="#CMMI12-69" transform="translate(536.166956 0) scale(0.996264)"/>
     <use xlink:href="#CMMI12-64" transform="translate(600.67467 0) scale(0.996264)"/>
     <use xlink:href="#CMR17-3d" transform="translate(679.037776 0) scale(0.996264)"/>
     <use xlink:href="#CMR17-31" transform="translate(778.426573 0) scale(0.996264)"/>
     <use xlink:href="#CMR17-30" transform="translate(824.11705 0) scale(0.996264)"/>
     <use xlink:href="#CMR17-30" transform="translate(869.807527 0) scale(0.996264)"/>
     <use xlink:href="#CMR17-30" transform="translate(915.498004 0) scale(0.996264)"/>
     <use xlink:href="#CMMI12-6f" transform="translate(992.417594 0) scale(0.996264)"/>
     <use xlink:href="#CMMI12-63" transform="translate(1039.312904 0) scale(0.996264)"/>
     <use xlink:href="#CMR17-3d" transform="translate(1108.970146 0) scale(0.996264)"/>
     <use xlink:href="#CMR17-33" transform="translate(1208.358943 0) scale(0.996264)"/>
     <use xlink:href="#CMR17-25" transform="translate(1254.04942 0) scale(0.996264)"/>
     <use xlink:href="#CMMI12-6c" transform="translate(1362.198123 0) scale(0.996264)"/>
     <use xlink:href="#CMR17-3d" transform="translate(1421.120536 0) scale(0.996264)"/>
     <use xlink:href="#CMMI12-63" transform="translate(1520.509333 0) scale(0.996264)"/>
     <use xlink:href="#CMMI12-6f" transform="translate(1562.492566 0) scale(0.996264)"/>
     <use xlink:href="#CMMI12-73" transform="translate(1609.387876 0) scale(0.996264)"/>
     <use xlink:href="#CMMI12-74" transform="translate(1655.337923 0) scale(0.996264)"/>
     <use xlink:href="#CMMI12-61" transform="translate(1690.564254 0) scale(0.996264)"/>
     <use xlink:href="#CMMI12-6e" transform="translate(1741.772111 0) scale(0.996264)"/>
     <use xlink:href="#CMMI12-74" transform="translate(1800.002159 0) scale(0.996264)"/>
    </g>
   </g>
  </g>
  <g id="axes_2">
   <g id="matplotlib.axis_3">
    <g id="ytick_7">
     <g id="line2d_22">
      <defs>
       <path id="mae31916159" d="M 0 0 
L 3.5 0 
" style="stroke: #000000; stroke-width: 0.8"/>
      </defs>
      <g>
       <use xlink:href="#mae31916159" x="518.4" y="320.4" style="stroke: #000000; stroke-width: 0.8"/>
      </g>
     </g>
     <g id="text_17">
      <!-- $\mathdefault{0}$ -->
      <g transform="translate(525.4 325.415904) scale(0.145 -0.145)">
       <use xlink:href="#CMR17-30" transform="scale(0.996264)"/>
      </g>
     </g>
    </g>
    <g id="ytick_8">
     <g id="line2d_23">
      <g>
       <use xlink:href="#mae31916159" x="518.4" y="264.987706" style="stroke: #000000; stroke-width: 0.8"/>
      </g>
     </g>
     <g id="text_18">
      <!-- $\mathdefault{20}$ -->
      <g transform="translate(525.4 270.00361) scale(0.145 -0.145)">
       <use xlink:href="#CMR17-32" transform="scale(0.996264)"/>
       <use xlink:href="#CMR17-30" transform="translate(45.690477 0) scale(0.996264)"/>
      </g>
     </g>
    </g>
    <g id="ytick_9">
     <g id="line2d_24">
      <g>
       <use xlink:href="#mae31916159" x="518.4" y="209.575412" style="stroke: #000000; stroke-width: 0.8"/>
      </g>
     </g>
     <g id="text_19">
      <!-- $\mathdefault{40}$ -->
      <g transform="translate(525.4 214.591316) scale(0.145 -0.145)">
       <use xlink:href="#CMR17-34" transform="scale(0.996264)"/>
       <use xlink:href="#CMR17-30" transform="translate(45.690477 0) scale(0.996264)"/>
      </g>
     </g>
    </g>
    <g id="ytick_10">
     <g id="line2d_25">
      <g>
       <use xlink:href="#mae31916159" x="518.4" y="154.163118" style="stroke: #000000; stroke-width: 0.8"/>
      </g>
     </g>
     <g id="text_20">
      <!-- $\mathdefault{60}$ -->
      <g transform="translate(525.4 159.179023) scale(0.145 -0.145)">
       <use xlink:href="#CMR17-36" transform="scale(0.996264)"/>
       <use xlink:href="#CMR17-30" transform="translate(45.690477 0) scale(0.996264)"/>
      </g>
     </g>
    </g>
    <g id="ytick_11">
     <g id="line2d_26">
      <g>
       <use xlink:href="#mae31916159" x="518.4" y="98.750825" style="stroke: #000000; stroke-width: 0.8"/>
      </g>
     </g>
     <g id="text_21">
      <!-- $\mathdefault{80}$ -->
      <g transform="translate(525.4 103.766729) scale(0.145 -0.145)">
       <use xlink:href="#CMR17-38" transform="scale(0.996264)"/>
       <use xlink:href="#CMR17-30" transform="translate(45.690477 0) scale(0.996264)"/>
      </g>
     </g>
    </g>
    <g id="ytick_12">
     <g id="line2d_27">
      <g>
       <use xlink:href="#mae31916159" x="518.4" y="43.338531" style="stroke: #000000; stroke-width: 0.8"/>
      </g>
     </g>
     <g id="text_22">
      <!-- $\mathdefault{100}$ -->
      <g transform="translate(525.4 48.354435) scale(0.145 -0.145)">
       <use xlink:href="#CMR17-31" transform="scale(0.996264)"/>
       <use xlink:href="#CMR17-30" transform="translate(45.690477 0) scale(0.996264)"/>
       <use xlink:href="#CMR17-30" transform="translate(91.380954 0) scale(0.996264)"/>
      </g>
     </g>
    </g>
    <g id="text_23">
     <!-- CPU load in \% -->
     <g transform="translate(560.648875 226.102524) rotate(-90) scale(0.145 -0.145)">
      <defs>
       <path id="CMSS17-43" d="M 3501 714 
C 3072 427 2874 344 2355 344 
C 1459 344 934 1303 934 2179 
C 934 3112 1472 4032 2381 4032 
C 2790 4032 3059 3918 3386 3715 
L 3475 4217 
C 3168 4370 2778 4440 2387 4440 
C 1158 4440 397 3316 397 2179 
C 397 927 1299 -64 2323 -64 
C 2874 -64 3066 -19 3539 280 
L 3501 714 
z
" transform="scale(0.015625)"/>
       <path id="CMSS17-50" d="M 2106 1856 
C 2874 1856 3501 2453 3501 3158 
C 3501 3850 2899 4453 2067 4453 
L 570 4453 
L 570 0 
L 1107 0 
L 1107 1856 
L 2106 1856 
z
M 1926 4096 
C 2669 4096 2995 3627 2995 3157 
C 2995 2720 2694 2226 1926 2226 
L 1094 2226 
L 1094 4096 
L 1926 4096 
z
" transform="scale(0.015625)"/>
       <path id="CMSS17-55" d="M 3552 4384 
L 3066 4384 
L 3066 1449 
C 3066 604 2547 229 2074 229 
C 1587 229 1101 623 1101 1443 
L 1101 4384 
L 563 4384 
L 563 1454 
C 563 539 1274 -128 2067 -128 
C 2861 -128 3552 539 3552 1454 
L 3552 4384 
z
" transform="scale(0.015625)"/>
       <path id="CMSS17-6c" d="M 947 4416 
L 474 4416 
L 474 0 
L 947 0 
L 947 4416 
z
" transform="scale(0.015625)"/>
       <path id="CMSS17-61" d="M 2406 1791 
C 2406 2392 1978 2808 1402 2808 
C 1120 2808 813 2757 461 2553 
L 499 2135 
C 659 2248 934 2432 1395 2432 
C 1722 2432 1920 2180 1920 1782 
L 1920 1536 
C 896 1536 256 1238 256 726 
C 256 461 416 -64 947 -64 
C 1043 -64 1562 -64 1933 217 
L 1933 -19 
L 2406 -19 
L 2406 1791 
z
M 1920 816 
C 1920 701 1920 548 1728 434 
C 1562 325 1350 325 1261 325 
C 941 325 723 511 723 744 
C 723 1211 1722 1211 1920 1211 
L 1920 816 
z
" transform="scale(0.015625)"/>
       <path id="CMSS17-64" d="M 2611 4416 
L 2138 4416 
L 2138 2438 
C 1939 2603 1613 2756 1254 2756 
C 672 2756 211 2131 211 1347 
C 211 562 666 -64 1235 -64 
C 1677 -64 1971 172 2125 306 
L 2125 -13 
L 2611 -13 
L 2611 4416 
z
M 2125 836 
C 2125 747 2125 653 1926 482 
C 1798 375 1645 325 1498 325 
C 1152 325 698 576 698 1340 
C 698 2134 1210 2368 1562 2368 
C 1798 2368 1990 2254 2125 2065 
L 2125 836 
z
" transform="scale(0.015625)"/>
       <path id="CMSS17-6e" d="M 2618 1877 
C 2618 2283 2522 2816 1798 2816 
C 1389 2816 1120 2606 941 2389 
L 941 2758 
L 474 2758 
L 474 0 
L 960 0 
L 960 1559 
C 960 1964 1114 2428 1549 2428 
C 2112 2428 2131 2048 2131 1829 
L 2131 0 
L 2618 0 
L 2618 1877 
z
" transform="scale(0.015625)"/>
       <path id="CMSS17-25" d="M 3923 4583 
C 3962 4647 3962 4679 3962 4685 
C 3962 4755 3904 4800 3853 4800 
C 3782 4800 3750 4749 3718 4685 
L 1101 -104 
C 1088 -129 1062 -167 1062 -206 
C 1062 -276 1120 -320 1178 -320 
C 1235 -320 1248 -295 1299 -206 
L 3923 4583 
z
M 4678 959 
C 4678 1698 4282 2240 3846 2240 
C 3418 2240 3008 1711 3008 959 
C 3008 208 3418 -320 3846 -320 
C 4288 -320 4678 221 4678 959 
z
M 3846 68 
C 3712 68 3494 189 3494 959 
C 3494 1724 3712 1851 3846 1851 
C 4083 1851 4211 1386 4211 959 
C 4211 533 4083 68 3846 68 
z
M 2003 3519 
C 2003 4258 1606 4800 1171 4800 
C 742 4800 333 4271 333 3519 
C 333 2768 742 2240 1171 2240 
C 1613 2240 2003 2781 2003 3519 
z
M 1171 2628 
C 1037 2628 819 2749 819 3519 
C 819 4284 1037 4411 1171 4411 
C 1408 4411 1536 3946 1536 3519 
C 1536 3093 1408 2628 1171 2628 
z
" transform="scale(0.015625)"/>
      </defs>
      <use xlink:href="#CMSS17-43" transform="scale(0.996264)"/>
      <use xlink:href="#CMSS17-50" transform="translate(59.855772 0) scale(0.996264)"/>
      <use xlink:href="#CMSS17-55" transform="translate(119.591358 0) scale(0.996264)"/>
      <use xlink:href="#CMSS17-6c" transform="translate(214.960211 0) scale(0.996264)"/>
      <use xlink:href="#CMSS17-6f" transform="translate(237.140934 0) scale(0.996264)"/>
      <use xlink:href="#CMSS17-61" transform="translate(283.984557 0) scale(0.996264)"/>
      <use xlink:href="#CMSS17-64" transform="translate(328.906478 0) scale(0.996264)"/>
      <use xlink:href="#CMSS17-69" transform="translate(408.340534 0) scale(0.996264)"/>
      <use xlink:href="#CMSS17-6e" transform="translate(430.521257 0) scale(0.996264)"/>
      <use xlink:href="#CMSS17-25" transform="translate(509.955313 0) scale(0.996264)"/>
     </g>
    </g>
   </g>
   <g id="line2d_28">
    <path d="M 92.290909 112.603898 
L 498.109091 112.603898 
L 498.109091 112.603898 
" clip-path="url(#pf1faff15f2)" style="fill: none; stroke-dasharray: 5.55,2.4; stroke-dashoffset: 0; stroke: #140e36; stroke-width: 1.5"/>
   </g>
   <g id="line2d_29">
    <path d="M 92.290909 46.641103 
L 119.420815 46.641103 
L 120.551228 46.508114 
L 371.502861 46.458243 
L 372.633274 47.089943 
L 377.154925 47.089943 
L 378.285338 46.508114 
L 432.545151 46.508114 
L 433.675563 50.614165 
L 439.327627 50.614165 
L 440.45804 46.641103 
L 498.109091 46.641103 
L 498.109091 46.641103 
" clip-path="url(#pf1faff15f2)" style="fill: none; stroke-dasharray: 5.55,2.4; stroke-dashoffset: 0; stroke: #fecf92; stroke-width: 1.5"/>
   </g>
   <g id="patch_6">
    <path d="M 72 320.4 
L 72 43.2 
" style="fill: none; stroke: #000000; stroke-width: 0.8; stroke-linejoin: miter; stroke-linecap: square"/>
   </g>
   <g id="patch_7">
    <path d="M 518.4 320.4 
L 518.4 43.2 
" style="fill: none; stroke: #000000; stroke-width: 0.8; stroke-linejoin: miter; stroke-linecap: square"/>
   </g>
   <g id="patch_8">
    <path d="M 72 320.4 
L 518.4 320.4 
" style="fill: none; stroke: #000000; stroke-width: 0.8; stroke-linejoin: miter; stroke-linecap: square"/>
   </g>
   <g id="patch_9">
    <path d="M 72 43.2 
L 518.4 43.2 
" style="fill: none; stroke: #000000; stroke-width: 0.8; stroke-linejoin: miter; stroke-linecap: square"/>
   </g>
   <g id="legend_1">
    <g id="patch_10">
     <path d="M 347.090605 313.15 
L 508.25 313.15 
Q 511.15 313.15 511.15 310.25 
L 511.15 224.916687 
Q 511.15 222.016687 508.25 222.016687 
L 347.090605 222.016687 
Q 344.190605 222.016687 344.190605 224.916687 
L 344.190605 310.25 
Q 344.190605 313.15 347.090605 313.15 
z
" style="fill: #ffffff; opacity: 0.7; stroke: #cccccc; stroke-linejoin: miter"/>
    </g>
    <g id="line2d_30">
     <path d="M 349.990605 233.576059 
L 364.490605 233.576059 
L 378.990605 233.576059 
" style="fill: none; stroke: #482475; stroke-width: 2.5; stroke-linecap: square"/>
    </g>
    <g id="text_24">
     <!-- QoS [static] -->
     <g transform="translate(390.590605 238.651059) scale(0.145 -0.145)">
      <defs>
       <path id="CMSS17-5b" d="M 1613 -1600 
L 1613 -1212 
L 1062 -1212 
L 1062 4352 
L 1613 4352 
L 1613 4741 
L 595 4741 
L 595 -1600 
L 1613 -1600 
z
" transform="scale(0.015625)"/>
       <path id="CMSS17-63" d="M 2464 2541 
C 2464 2585 2170 2714 2093 2739 
C 1882 2816 1613 2816 1542 2816 
C 710 2816 211 2093 211 1363 
C 211 595 768 -64 1517 -64 
C 1946 -64 2253 76 2502 242 
L 2464 664 
C 2189 453 1869 337 1523 337 
C 1024 337 698 774 698 1369 
C 698 1831 909 2414 1549 2414 
C 1901 2414 2099 2343 2394 2145 
L 2464 2541 
z
" transform="scale(0.015625)"/>
       <path id="CMSS17-5d" d="M 1146 4741 
L 128 4741 
L 128 4352 
L 678 4352 
L 678 -1212 
L 128 -1212 
L 128 -1600 
L 1146 -1600 
L 1146 4741 
z
" transform="scale(0.015625)"/>
      </defs>
      <use xlink:href="#CMSS17-51" transform="scale(0.996264)"/>
      <use xlink:href="#CMSS17-6f" transform="translate(69.024255 0) scale(0.996264)"/>
      <use xlink:href="#CMSS17-53" transform="translate(115.867879 0) scale(0.996264)"/>
      <use xlink:href="#CMSS17-5b" transform="translate(199.145508 0) scale(0.996264)"/>
      <use xlink:href="#CMSS17-73" transform="translate(226.330946 0) scale(0.996264)"/>
      <use xlink:href="#CMSS17-74" transform="translate(262.244488 0) scale(0.996264)"/>
      <use xlink:href="#CMSS17-61" transform="translate(296.076055 0) scale(0.996264)"/>
      <use xlink:href="#CMSS17-74" transform="translate(340.997976 0) scale(0.996264)"/>
      <use xlink:href="#CMSS17-69" transform="translate(374.829542 0) scale(0.996264)"/>
      <use xlink:href="#CMSS17-63" transform="translate(397.010265 0) scale(0.996264)"/>
      <use xlink:href="#CMSS17-5d" transform="translate(438.649088 0) scale(0.996264)"/>
     </g>
    </g>
    <g id="line2d_31">
     <path d="M 349.990605 255.271887 
L 364.490605 255.271887 
L 378.990605 255.271887 
" style="fill: none; stroke: #bddf26; stroke-width: 2.5; stroke-linecap: square"/>
    </g>
    <g id="text_25">
     <!-- QoS [dynamic] -->
     <g transform="translate(390.590605 260.346887) scale(0.145 -0.145)">
      <defs>
       <path id="CMSS17-79" d="M 2675 2752 
L 2176 2752 
C 1632 1294 1446 702 1434 383 
L 1427 383 
C 1408 696 1126 1460 902 2007 
L 602 2752 
L 83 2752 
L 1216 13 
C 1146 -178 1043 -465 1011 -529 
C 870 -885 774 -885 672 -885 
C 646 -885 442 -885 211 -809 
L 250 -1229 
C 410 -1261 570 -1280 685 -1280 
C 845 -1280 1165 -1280 1459 -497 
L 2675 2752 
z
" transform="scale(0.015625)"/>
      </defs>
      <use xlink:href="#CMSS17-51" transform="scale(0.996264)"/>
      <use xlink:href="#CMSS17-6f" transform="translate(69.024255 0) scale(0.996264)"/>
      <use xlink:href="#CMSS17-53" transform="translate(115.867879 0) scale(0.996264)"/>
      <use xlink:href="#CMSS17-5b" transform="translate(199.145508 0) scale(0.996264)"/>
      <use xlink:href="#CMSS17-64" transform="translate(226.330946 0) scale(0.996264)"/>
      <use xlink:href="#CMSS17-79" transform="translate(274.53589 0) scale(0.996264)"/>
      <use xlink:href="#CMSS17-6e" transform="translate(317.536031 0) scale(0.996264)"/>
      <use xlink:href="#CMSS17-61" transform="translate(365.740974 0) scale(0.996264)"/>
      <use xlink:href="#CMSS17-6d" transform="translate(410.662895 0) scale(0.996264)"/>
      <use xlink:href="#CMSS17-69" transform="translate(484.892149 0) scale(0.996264)"/>
      <use xlink:href="#CMSS17-63" transform="translate(507.072872 0) scale(0.996264)"/>
      <use xlink:href="#CMSS17-5d" transform="translate(548.711695 0) scale(0.996264)"/>
     </g>
    </g>
    <g id="line2d_32">
     <path d="M 349.990605 276.967715 
L 364.490605 276.967715 
L 378.990605 276.967715 
" style="fill: none; stroke-dasharray: 5.55,2.4; stroke-dashoffset: 0; stroke: #140e36; stroke-width: 1.5"/>
    </g>
    <g id="text_26">
     <!-- Load driver (right) -->
     <g transform="translate(390.590605 282.042715) scale(0.145 -0.145)">
      <defs>
       <path id="CMSS17-4c" d="M 1670 414 
C 1594 414 1517 414 1440 414 
L 1101 414 
L 1101 4416 
L 563 4416 
L 563 0 
L 3002 0 
L 3002 414 
L 1670 414 
z
" transform="scale(0.015625)"/>
       <path id="CMSS17-72" d="M 954 1363 
C 954 1965 1395 2368 1958 2368 
L 1958 2789 
C 1549 2789 1165 2585 934 2253 
L 934 2758 
L 480 2758 
L 480 0 
L 954 0 
L 954 1363 
z
" transform="scale(0.015625)"/>
       <path id="CMSS17-76" d="M 2675 2752 
L 2176 2752 
L 1747 1556 
C 1613 1165 1421 627 1389 352 
L 1382 352 
C 1370 468 1318 634 1286 749 
C 1248 890 1197 1056 1158 1172 
L 595 2752 
L 83 2752 
L 1094 0 
L 1664 0 
L 2675 2752 
z
" transform="scale(0.015625)"/>
       <path id="CMSS17-67" d="M 2848 2808 
C 2483 2808 2170 2738 1914 2617 
C 1702 2777 1485 2808 1338 2808 
C 781 2808 358 2349 358 1814 
C 358 1468 550 1207 563 1195 
C 448 1035 384 863 384 672 
C 384 448 474 289 544 200 
C 211 -3 166 -314 166 -435 
C 166 -898 749 -1280 1498 -1280 
C 2253 -1280 2835 -898 2835 -428 
C 2835 448 1856 448 1587 448 
L 1069 448 
C 973 448 717 448 717 791 
C 717 921 774 1004 781 1010 
C 877 940 1075 832 1338 832 
C 1869 832 2310 1278 2310 1827 
C 2310 2132 2170 2355 2112 2432 
L 2131 2432 
C 2150 2432 2419 2432 2515 2432 
C 2720 2432 2739 2429 2918 2419 
L 2848 2808 
z
M 1338 1182 
C 1120 1182 813 1315 813 1823 
C 813 2375 1165 2464 1331 2464 
C 1549 2464 1856 2331 1856 1823 
C 1856 1271 1504 1182 1338 1182 
z
M 1581 -10 
C 1734 -10 2381 -10 2381 -442 
C 2381 -714 1984 -929 1504 -929 
C 1018 -929 621 -720 621 -435 
C 621 -403 621 -10 1062 -10 
L 1581 -10 
z
" transform="scale(0.015625)"/>
       <path id="CMSS17-68" d="M 2618 1891 
C 2618 2292 2522 2820 1798 2820 
C 1395 2820 1133 2623 947 2407 
L 947 4448 
L 474 4448 
L 474 32 
L 960 32 
L 960 1573 
C 960 1973 1114 2432 1549 2432 
C 2112 2432 2131 2056 2131 1839 
L 2131 32 
L 2618 32 
L 2618 1891 
z
" transform="scale(0.015625)"/>
      </defs>
      <use xlink:href="#CMSS17-4c" transform="scale(0.996264)"/>
      <use xlink:href="#CMSS17-6f" transform="translate(50.687105 0) scale(0.996264)"/>
      <use xlink:href="#CMSS17-61" transform="translate(97.530729 0) scale(0.996264)"/>
      <use xlink:href="#CMSS17-64" transform="translate(142.452649 0) scale(0.996264)"/>
      <use xlink:href="#CMSS17-64" transform="translate(221.886705 0) scale(0.996264)"/>
      <use xlink:href="#CMSS17-72" transform="translate(270.091649 0) scale(0.996264)"/>
      <use xlink:href="#CMSS17-69" transform="translate(302.001421 0) scale(0.996264)"/>
      <use xlink:href="#CMSS17-76" transform="translate(324.182144 0) scale(0.996264)"/>
      <use xlink:href="#CMSS17-65" transform="translate(367.182286 0) scale(0.996264)"/>
      <use xlink:href="#CMSS17-72" transform="translate(408.821108 0) scale(0.996264)"/>
      <use xlink:href="#CMSS17-28" transform="translate(471.959993 0) scale(0.996264)"/>
      <use xlink:href="#CMSS17-72" transform="translate(508.393907 0) scale(0.996264)"/>
      <use xlink:href="#CMSS17-69" transform="translate(540.30368 0) scale(0.996264)"/>
      <use xlink:href="#CMSS17-67" transform="translate(562.484403 0) scale(0.996264)"/>
      <use xlink:href="#CMSS17-68" transform="translate(609.328026 0) scale(0.996264)"/>
      <use xlink:href="#CMSS17-74" transform="translate(657.53297 0) scale(0.996264)"/>
      <use xlink:href="#CMSS17-29" transform="translate(691.364536 0) scale(0.996264)"/>
     </g>
    </g>
    <g id="line2d_33">
     <path d="M 349.990605 298.663543 
L 364.490605 298.663543 
L 378.990605 298.663543 
" style="fill: none; stroke-dasharray: 5.55,2.4; stroke-dashoffset: 0; stroke: #fecf92; stroke-width: 1.5"/>
    </g>
    <g id="text_27">
     <!-- System load (right) -->
     <g transform="translate(390.590605 303.738543) scale(0.145 -0.145)">
      <use xlink:href="#CMSS17-53" transform="scale(0.996264)"/>
      <use xlink:href="#CMSS17-79" transform="translate(52.048516 0) scale(0.996264)"/>
      <use xlink:href="#CMSS17-73" transform="translate(95.048658 0) scale(0.996264)"/>
      <use xlink:href="#CMSS17-74" transform="translate(130.9622 0) scale(0.996264)"/>
      <use xlink:href="#CMSS17-65" transform="translate(164.793767 0) scale(0.996264)"/>
      <use xlink:href="#CMSS17-6d" transform="translate(206.432589 0) scale(0.996264)"/>
      <use xlink:href="#CMSS17-6c" transform="translate(311.890956 0) scale(0.996264)"/>
      <use xlink:href="#CMSS17-6f" transform="translate(334.071679 0) scale(0.996264)"/>
      <use xlink:href="#CMSS17-61" transform="translate(380.915302 0) scale(0.996264)"/>
      <use xlink:href="#CMSS17-64" transform="translate(425.837223 0) scale(0.996264)"/>
      <use xlink:href="#CMSS17-28" transform="translate(505.271279 0) scale(0.996264)"/>
      <use xlink:href="#CMSS17-72" transform="translate(541.705193 0) scale(0.996264)"/>
      <use xlink:href="#CMSS17-69" transform="translate(573.614966 0) scale(0.996264)"/>
      <use xlink:href="#CMSS17-67" transform="translate(595.795689 0) scale(0.996264)"/>
      <use xlink:href="#CMSS17-68" transform="translate(642.639312 0) scale(0.996264)"/>
      <use xlink:href="#CMSS17-74" transform="translate(690.844255 0) scale(0.996264)"/>
      <use xlink:href="#CMSS17-29" transform="translate(724.675822 0) scale(0.996264)"/>
     </g>
    </g>
   </g>
  </g>
 </g>
 <defs>
  <clipPath id="pf1faff15f2">
   <rect x="72" y="43.2" width="446.4" height="277.2"/>
  </clipPath>
 </defs>
</svg>
