<?xml version="1.0" encoding="utf-8" standalone="no"?>
<!DOCTYPE svg PUBLIC "-//W3C//DTD SVG 1.1//EN"
  "http://www.w3.org/Graphics/SVG/1.1/DTD/svg11.dtd">
<svg xmlns:xlink="http://www.w3.org/1999/xlink" width="720pt" height="360pt" viewBox="0 0 720 360" xmlns="http://www.w3.org/2000/svg" version="1.1">
 <metadata>
  <rdf:RDF xmlns:dc="http://purl.org/dc/elements/1.1/" xmlns:cc="http://creativecommons.org/ns#" xmlns:rdf="http://www.w3.org/1999/02/22-rdf-syntax-ns#">
   <cc:Work>
    <dc:type rdf:resource="http://purl.org/dc/dcmitype/StillImage"/>
    <dc:date>2023-12-17T14:15:00.407733</dc:date>
    <dc:format>image/svg+xml</dc:format>
    <dc:creator>
     <cc:Agent>
      <dc:title>Matplotlib v3.8.0, https://matplotlib.org/</dc:title>
     </cc:Agent>
    </dc:creator>
   </cc:Work>
  </rdf:RDF>
 </metadata>
 <defs>
  <style type="text/css">*{stroke-linejoin: round; stroke-linecap: butt}</style>
 </defs>
 <g id="figure_1">
  <g id="patch_1">
   <path d="M 0 360 
L 720 360 
L 720 0 
L 0 0 
z
" style="fill: #ffffff"/>
  </g>
  <g id="axes_1">
   <g id="patch_2">
    <path d="M 90 320.4 
L 648 320.4 
L 648 43.2 
L 90 43.2 
z
" style="fill: #ffffff"/>
   </g>
   <g id="PolyCollection_1">
    <defs>
     <path id="m27d1d97d5c" d="M 115.363636 -204.491754 
L 115.363636 -249.865974 
L 116.776652 -249.865974 
L 118.189668 -249.865974 
L 119.602684 -249.865974 
L 121.0157 -249.865974 
L 122.428716 -249.865974 
L 123.841732 -249.865974 
L 125.254748 -249.865974 
L 126.667764 -249.865974 
L 128.08078 -249.865974 
L 129.493796 -249.865974 
L 130.906812 -249.865974 
L 132.319828 -249.865974 
L 133.732844 -249.865974 
L 135.14586 -249.865974 
L 136.558876 -249.865974 
L 137.971892 -249.865974 
L 139.384908 -249.865974 
L 140.797924 -249.865974 
L 142.210939 -249.865974 
L 143.623955 -249.865974 
L 145.036971 -249.865974 
L 146.449987 -249.865974 
L 147.863003 -249.865974 
L 149.276019 -249.865974 
L 150.689035 -224.327634 
L 152.102051 -224.327634 
L 153.515067 -224.327634 
L 154.928083 -224.327634 
L 156.341099 -224.327634 
L 157.754115 -222.228059 
L 159.167131 -222.228059 
L 160.580147 -222.228059 
L 161.993163 -222.228059 
L 163.406179 -222.228059 
L 164.819195 -222.228059 
L 166.232211 -222.189992 
L 167.645227 -222.189992 
L 169.058243 -222.189992 
L 170.471259 -222.189992 
L 171.884274 -222.189992 
L 173.29729 -221.89501 
L 174.710306 -221.89501 
L 176.123322 -221.89501 
L 177.536338 -221.89501 
L 178.949354 -221.89501 
L 180.36237 -221.89501 
L 181.775386 -221.89501 
L 183.188402 -221.89501 
L 184.601418 -221.89501 
L 186.014434 -221.89501 
L 187.42745 -221.89501 
L 188.840466 -221.68708 
L 190.253482 -221.68708 
L 191.666498 -221.68708 
L 193.079514 -221.68708 
L 194.49253 -221.68708 
L 195.905546 -221.68708 
L 197.318562 -221.68708 
L 198.731578 -221.68708 
L 200.144594 -221.68708 
L 201.55761 -221.68708 
L 202.970625 -221.68708 
L 204.383641 -221.68708 
L 205.796657 -221.68708 
L 207.209673 -221.68708 
L 208.622689 -221.68708 
L 210.035705 -221.68708 
L 211.448721 -221.68708 
L 212.861737 -221.68708 
L 214.274753 -221.68708 
L 215.687769 -221.68708 
L 217.100785 -221.68708 
L 218.513801 -221.68708 
L 219.926817 -221.781375 
L 221.339833 -221.781375 
L 222.752849 -221.781375 
L 224.165865 -221.781375 
L 225.578881 -221.781375 
L 226.991897 -193.272073 
L 228.404913 -193.272073 
L 229.817929 -193.272073 
L 231.230945 -193.272073 
L 232.64396 -193.272073 
L 234.056976 -193.272073 
L 235.469992 -182.283496 
L 236.883008 -182.283496 
L 238.296024 -182.283496 
L 239.70904 -182.283496 
L 241.122056 -182.283496 
L 242.535072 -184.151493 
L 243.948088 -184.151493 
L 245.361104 -184.151493 
L 246.77412 -184.151493 
L 248.187136 -184.151493 
L 249.600152 -184.151493 
L 251.013168 -182.915382 
L 252.426184 -182.915382 
L 253.8392 -182.915382 
L 255.252216 -182.915382 
L 256.665232 -182.915382 
L 258.078248 -181.866554 
L 259.491264 -181.866554 
L 260.90428 -181.866554 
L 262.317296 -181.866554 
L 263.730311 -181.866554 
L 265.143327 -181.866554 
L 266.556343 -181.866554 
L 267.969359 -181.866554 
L 269.382375 -181.866554 
L 270.795391 -181.866554 
L 272.208407 -181.866554 
L 273.621423 -181.866554 
L 275.034439 -181.866554 
L 276.447455 -181.866554 
L 277.860471 -181.866554 
L 279.273487 -181.866554 
L 280.686503 -181.866554 
L 282.099519 -181.866554 
L 283.512535 -181.866554 
L 284.925551 -181.866554 
L 286.338567 -181.866554 
L 287.751583 -181.866554 
L 289.164599 -181.866554 
L 290.577615 -181.866554 
L 291.990631 -181.866554 
L 293.403646 -181.866554 
L 294.816662 -181.866554 
L 296.229678 -181.866554 
L 297.642694 -181.866554 
L 299.05571 -181.866554 
L 300.468726 -181.866554 
L 301.881742 -181.866554 
L 303.294758 -181.866554 
L 304.707774 -181.17396 
L 306.12079 -181.17396 
L 307.533806 -181.17396 
L 308.946822 -181.17396 
L 310.359838 -181.17396 
L 311.772854 -157.332256 
L 313.18587 -157.332256 
L 314.598886 -157.332256 
L 316.011902 -157.332256 
L 317.424918 -157.332256 
L 318.837934 -157.332256 
L 320.25095 -159.926283 
L 321.663966 -159.926283 
L 323.076982 -159.926283 
L 324.489997 -159.926283 
L 325.903013 -159.926283 
L 327.316029 -159.896597 
L 328.729045 -159.896597 
L 330.142061 -159.896597 
L 331.555077 -159.896597 
L 332.968093 -159.896597 
L 334.381109 -159.896597 
L 335.794125 -159.896597 
L 337.207141 -159.896597 
L 338.620157 -159.896597 
L 340.033173 -159.896597 
L 341.446189 -159.896597 
L 342.859205 -159.896597 
L 344.272221 -159.896597 
L 345.685237 -159.896597 
L 347.098253 -159.896597 
L 348.511269 -159.896597 
L 349.924285 -159.896597 
L 351.337301 -159.896597 
L 352.750317 -159.896597 
L 354.163332 -159.896597 
L 355.576348 -159.896597 
L 356.989364 -159.896597 
L 358.40238 -159.896597 
L 359.815396 -159.896597 
L 361.228412 -159.896597 
L 362.641428 -159.896597 
L 364.054444 -159.896597 
L 365.46746 -159.896597 
L 366.880476 -159.896597 
L 368.293492 -159.896597 
L 369.706508 -159.896597 
L 371.119524 -159.896597 
L 372.53254 -159.896597 
L 373.945556 -159.896597 
L 375.358572 -159.896597 
L 376.771588 -159.896597 
L 378.184604 -159.896597 
L 379.59762 -159.896597 
L 381.010636 -159.896597 
L 382.423652 -159.896597 
L 383.836668 -159.896597 
L 385.249683 -159.896597 
L 386.662699 -159.896597 
L 388.075715 -159.896597 
L 389.488731 -159.705737 
L 390.901747 -159.705737 
L 392.314763 -159.705737 
L 393.727779 -159.705737 
L 395.140795 -159.705737 
L 396.553811 -167.262738 
L 397.966827 -167.262738 
L 399.379843 -167.262738 
L 400.792859 -167.262738 
L 402.205875 -167.262738 
L 403.618891 -168.042593 
L 405.031907 -168.042593 
L 406.444923 -168.042593 
L 407.857939 -168.042593 
L 409.270955 -168.042593 
L 410.683971 -168.042593 
L 412.096987 -168.042593 
L 413.510003 -168.042593 
L 414.923018 -168.042593 
L 416.336034 -168.042593 
L 417.74905 -168.042593 
L 419.162066 -168.042593 
L 420.575082 -168.042593 
L 421.988098 -168.042593 
L 423.401114 -168.042593 
L 424.81413 -168.042593 
L 426.227146 -168.042593 
L 427.640162 -168.042593 
L 429.053178 -168.042593 
L 430.466194 -168.042593 
L 431.87921 -168.042593 
L 433.292226 -168.042593 
L 434.705242 -168.042593 
L 436.118258 -168.042593 
L 437.531274 -168.042593 
L 438.94429 -168.042593 
L 440.357306 -168.042593 
L 441.770322 -168.042593 
L 443.183338 -168.186281 
L 444.596354 -168.186281 
L 446.009369 -168.186281 
L 447.422385 -168.186281 
L 448.835401 -168.186281 
L 450.248417 -168.186281 
L 451.661433 -168.186281 
L 453.074449 -168.186281 
L 454.487465 -168.186281 
L 455.900481 -168.186281 
L 457.313497 -168.186281 
L 458.726513 -168.042593 
L 460.139529 -168.042593 
L 461.552545 -168.042593 
L 462.965561 -168.042593 
L 464.378577 -168.042593 
L 465.791593 -170.786334 
L 467.204609 -170.786334 
L 468.617625 -170.786334 
L 470.030641 -170.786334 
L 471.443657 -170.786334 
L 472.856673 -202.189028 
L 474.269689 -202.189028 
L 475.682704 -202.189028 
L 477.09572 -202.189028 
L 478.508736 -202.189028 
L 479.921752 -202.189028 
L 481.334768 -202.948116 
L 482.747784 -202.948116 
L 484.1608 -202.948116 
L 485.573816 -202.948116 
L 486.986832 -202.948116 
L 488.399848 -202.948116 
L 489.812864 -202.948116 
L 491.22588 -202.948116 
L 492.638896 -202.948116 
L 494.051912 -202.948116 
L 495.464928 -202.948116 
L 496.877944 -202.948116 
L 498.29096 -202.948116 
L 499.703976 -202.948116 
L 501.116992 -202.948116 
L 502.530008 -202.948116 
L 503.943024 -202.948116 
L 505.35604 -202.948116 
L 506.769055 -202.948116 
L 508.182071 -202.948116 
L 509.595087 -202.948116 
L 511.008103 -202.948116 
L 512.421119 -202.948116 
L 513.834135 -202.948116 
L 515.247151 -202.948116 
L 516.660167 -202.948116 
L 518.073183 -202.948116 
L 519.486199 -202.948116 
L 520.899215 -202.948116 
L 522.312231 -202.948116 
L 523.725247 -202.948116 
L 525.138263 -202.948116 
L 526.551279 -202.948116 
L 527.964295 -202.948116 
L 529.377311 -202.948116 
L 530.790327 -202.948116 
L 532.203343 -202.948116 
L 533.616359 -202.948116 
L 535.029375 -202.948116 
L 536.44239 -202.948116 
L 537.855406 -202.948116 
L 539.268422 -202.948116 
L 540.681438 -202.948116 
L 542.094454 -198.549687 
L 543.50747 -198.549687 
L 544.920486 -198.549687 
L 546.333502 -198.549687 
L 547.746518 -198.549687 
L 549.159534 -198.549687 
L 550.57255 -212.562001 
L 551.985566 -212.562001 
L 553.398582 -212.562001 
L 554.811598 -212.562001 
L 556.224614 -212.562001 
L 557.63763 -214.015033 
L 559.050646 -214.015033 
L 560.463662 -214.015033 
L 561.876678 -214.015033 
L 563.289694 -214.015033 
L 564.70271 -214.015033 
L 566.115726 -214.2367 
L 567.528741 -214.2367 
L 568.941757 -214.2367 
L 570.354773 -214.2367 
L 571.767789 -214.2367 
L 573.180805 -214.015033 
L 574.593821 -214.015033 
L 576.006837 -214.015033 
L 577.419853 -214.015033 
L 578.832869 -214.015033 
L 580.245885 -214.015033 
L 581.658901 -214.015033 
L 583.071917 -214.015033 
L 584.484933 -214.015033 
L 585.897949 -214.015033 
L 587.310965 -214.015033 
L 588.723981 -214.015033 
L 590.136997 -214.015033 
L 591.550013 -214.015033 
L 592.963029 -214.015033 
L 594.376045 -214.015033 
L 595.789061 -214.015033 
L 597.202076 -214.015033 
L 598.615092 -214.015033 
L 600.028108 -214.015033 
L 601.441124 -214.015033 
L 602.85414 -214.015033 
L 604.267156 -214.015033 
L 605.680172 -214.015033 
L 607.093188 -214.015033 
L 608.506204 -214.015033 
L 609.91922 -214.015033 
L 611.332236 -214.015033 
L 612.745252 -214.015033 
L 614.158268 -214.015033 
L 615.571284 -214.015033 
L 616.9843 -214.015033 
L 618.397316 -214.015033 
L 619.810332 -214.015033 
L 621.223348 -214.015033 
L 622.636364 -214.015033 
L 622.636364 -181.984967 
L 622.636364 -181.984967 
L 621.223348 -181.984967 
L 619.810332 -181.984967 
L 618.397316 -181.984967 
L 616.9843 -181.984967 
L 615.571284 -181.984967 
L 614.158268 -181.984967 
L 612.745252 -181.984967 
L 611.332236 -181.984967 
L 609.91922 -181.984967 
L 608.506204 -181.984967 
L 607.093188 -181.984967 
L 605.680172 -181.984967 
L 604.267156 -181.984967 
L 602.85414 -181.984967 
L 601.441124 -181.984967 
L 600.028108 -181.984967 
L 598.615092 -181.984967 
L 597.202076 -181.984967 
L 595.789061 -181.984967 
L 594.376045 -181.984967 
L 592.963029 -181.984967 
L 591.550013 -181.984967 
L 590.136997 -181.984967 
L 588.723981 -181.984967 
L 587.310965 -181.984967 
L 585.897949 -181.984967 
L 584.484933 -181.984967 
L 583.071917 -181.984967 
L 581.658901 -181.984967 
L 580.245885 -181.984967 
L 578.832869 -181.984967 
L 577.419853 -181.984967 
L 576.006837 -181.984967 
L 574.593821 -181.984967 
L 573.180805 -181.984967 
L 571.767789 -180.095876 
L 570.354773 -180.095876 
L 568.941757 -180.095876 
L 567.528741 -180.095876 
L 566.115726 -180.095876 
L 564.70271 -181.984967 
L 563.289694 -181.984967 
L 561.876678 -181.984967 
L 560.463662 -181.984967 
L 559.050646 -181.984967 
L 557.63763 -181.984967 
L 556.224614 -181.770047 
L 554.811598 -181.770047 
L 553.398582 -181.770047 
L 551.985566 -181.770047 
L 550.57255 -181.770047 
L 549.159534 -152.431977 
L 547.746518 -152.431977 
L 546.333502 -152.431977 
L 544.920486 -152.431977 
L 543.50747 -152.431977 
L 542.094454 -152.431977 
L 540.681438 -154.703244 
L 539.268422 -154.703244 
L 537.855406 -154.703244 
L 536.44239 -154.703244 
L 535.029375 -154.703244 
L 533.616359 -154.703244 
L 532.203343 -154.703244 
L 530.790327 -154.703244 
L 529.377311 -154.703244 
L 527.964295 -154.703244 
L 526.551279 -154.703244 
L 525.138263 -154.703244 
L 523.725247 -154.703244 
L 522.312231 -154.703244 
L 520.899215 -154.703244 
L 519.486199 -154.703244 
L 518.073183 -154.703244 
L 516.660167 -154.703244 
L 515.247151 -154.703244 
L 513.834135 -154.703244 
L 512.421119 -154.703244 
L 511.008103 -154.703244 
L 509.595087 -154.703244 
L 508.182071 -154.703244 
L 506.769055 -154.703244 
L 505.35604 -154.703244 
L 503.943024 -154.703244 
L 502.530008 -154.703244 
L 501.116992 -154.703244 
L 499.703976 -154.703244 
L 498.29096 -154.703244 
L 496.877944 -154.703244 
L 495.464928 -154.703244 
L 494.051912 -154.703244 
L 492.638896 -154.703244 
L 491.22588 -154.703244 
L 489.812864 -154.703244 
L 488.399848 -154.703244 
L 486.986832 -154.703244 
L 485.573816 -154.703244 
L 484.1608 -154.703244 
L 482.747784 -154.703244 
L 481.334768 -154.703244 
L 479.921752 -154.350364 
L 478.508736 -154.350364 
L 477.09572 -154.350364 
L 475.682704 -154.350364 
L 474.269689 -154.350364 
L 472.856673 -154.350364 
L 471.443657 -147.959874 
L 470.030641 -147.959874 
L 468.617625 -147.959874 
L 467.204609 -147.959874 
L 465.791593 -147.959874 
L 464.378577 -136.252783 
L 462.965561 -136.252783 
L 461.552545 -136.252783 
L 460.139529 -136.252783 
L 458.726513 -136.252783 
L 457.313497 -136.665079 
L 455.900481 -136.665079 
L 454.487465 -136.665079 
L 453.074449 -136.665079 
L 451.661433 -136.665079 
L 450.248417 -136.665079 
L 448.835401 -136.665079 
L 447.422385 -136.665079 
L 446.009369 -136.665079 
L 444.596354 -136.665079 
L 443.183338 -136.665079 
L 441.770322 -136.252783 
L 440.357306 -136.252783 
L 438.94429 -136.252783 
L 437.531274 -136.252783 
L 436.118258 -136.252783 
L 434.705242 -136.252783 
L 433.292226 -136.252783 
L 431.87921 -136.252783 
L 430.466194 -136.252783 
L 429.053178 -136.252783 
L 427.640162 -136.252783 
L 426.227146 -136.252783 
L 424.81413 -136.252783 
L 423.401114 -136.252783 
L 421.988098 -136.252783 
L 420.575082 -136.252783 
L 419.162066 -136.252783 
L 417.74905 -136.252783 
L 416.336034 -136.252783 
L 414.923018 -136.252783 
L 413.510003 -136.252783 
L 412.096987 -136.252783 
L 410.683971 -136.252783 
L 409.270955 -136.252783 
L 407.857939 -136.252783 
L 406.444923 -136.252783 
L 405.031907 -136.252783 
L 403.618891 -136.252783 
L 402.205875 -133.142334 
L 400.792859 -133.142334 
L 399.379843 -133.142334 
L 397.966827 -133.142334 
L 396.553811 -133.142334 
L 395.140795 -127.915927 
L 393.727779 -127.915927 
L 392.314763 -127.915927 
L 390.901747 -127.915927 
L 389.488731 -127.915927 
L 388.075715 -107.159995 
L 386.662699 -107.159995 
L 385.249683 -107.159995 
L 383.836668 -107.159995 
L 382.423652 -107.159995 
L 381.010636 -107.159995 
L 379.59762 -107.159995 
L 378.184604 -107.159995 
L 376.771588 -107.159995 
L 375.358572 -107.159995 
L 373.945556 -107.159995 
L 372.53254 -107.159995 
L 371.119524 -107.159995 
L 369.706508 -107.159995 
L 368.293492 -107.159995 
L 366.880476 -107.159995 
L 365.46746 -107.159995 
L 364.054444 -107.159995 
L 362.641428 -107.159995 
L 361.228412 -107.159995 
L 359.815396 -107.159995 
L 358.40238 -107.159995 
L 356.989364 -107.159995 
L 355.576348 -107.159995 
L 354.163332 -107.159995 
L 352.750317 -107.159995 
L 351.337301 -107.159995 
L 349.924285 -107.159995 
L 348.511269 -107.159995 
L 347.098253 -107.159995 
L 345.685237 -107.159995 
L 344.272221 -107.159995 
L 342.859205 -107.159995 
L 341.446189 -107.159995 
L 340.033173 -107.159995 
L 338.620157 -107.159995 
L 337.207141 -107.159995 
L 335.794125 -107.159995 
L 334.381109 -107.159995 
L 332.968093 -107.159995 
L 331.555077 -107.159995 
L 330.142061 -107.159995 
L 328.729045 -107.159995 
L 327.316029 -107.159995 
L 325.903013 -107.686293 
L 324.489997 -107.686293 
L 323.076982 -107.686293 
L 321.663966 -107.686293 
L 320.25095 -107.686293 
L 318.837934 -109.168352 
L 317.424918 -109.168352 
L 316.011902 -109.168352 
L 314.598886 -109.168352 
L 313.18587 -109.168352 
L 311.772854 -109.168352 
L 310.359838 -133.12596 
L 308.946822 -133.12596 
L 307.533806 -133.12596 
L 306.12079 -133.12596 
L 304.707774 -133.12596 
L 303.294758 -134.10079 
L 301.881742 -134.10079 
L 300.468726 -134.10079 
L 299.05571 -134.10079 
L 297.642694 -134.10079 
L 296.229678 -134.10079 
L 294.816662 -134.10079 
L 293.403646 -134.10079 
L 291.990631 -134.10079 
L 290.577615 -134.10079 
L 289.164599 -134.10079 
L 287.751583 -134.10079 
L 286.338567 -134.10079 
L 284.925551 -134.10079 
L 283.512535 -134.10079 
L 282.099519 -134.10079 
L 280.686503 -134.10079 
L 279.273487 -134.10079 
L 277.860471 -134.10079 
L 276.447455 -134.10079 
L 275.034439 -134.10079 
L 273.621423 -134.10079 
L 272.208407 -134.10079 
L 270.795391 -134.10079 
L 269.382375 -134.10079 
L 267.969359 -134.10079 
L 266.556343 -134.10079 
L 265.143327 -134.10079 
L 263.730311 -134.10079 
L 262.317296 -134.10079 
L 260.90428 -134.10079 
L 259.491264 -134.10079 
L 258.078248 -134.10079 
L 256.665232 -133.607418 
L 255.252216 -133.607418 
L 253.8392 -133.607418 
L 252.426184 -133.607418 
L 251.013168 -133.607418 
L 249.600152 -133.482747 
L 248.187136 -133.482747 
L 246.77412 -133.482747 
L 245.361104 -133.482747 
L 243.948088 -133.482747 
L 242.535072 -133.482747 
L 241.122056 -130.904456 
L 239.70904 -130.904456 
L 238.296024 -130.904456 
L 236.883008 -130.904456 
L 235.469992 -130.904456 
L 234.056976 -144.926183 
L 232.64396 -144.926183 
L 231.230945 -144.926183 
L 229.817929 -144.926183 
L 228.404913 -144.926183 
L 226.991897 -144.926183 
L 225.578881 -160.880289 
L 224.165865 -160.880289 
L 222.752849 -160.880289 
L 221.339833 -160.880289 
L 219.926817 -160.880289 
L 218.513801 -160.4186 
L 217.100785 -160.4186 
L 215.687769 -160.4186 
L 214.274753 -160.4186 
L 212.861737 -160.4186 
L 211.448721 -160.4186 
L 210.035705 -160.4186 
L 208.622689 -160.4186 
L 207.209673 -160.4186 
L 205.796657 -160.4186 
L 204.383641 -160.4186 
L 202.970625 -160.4186 
L 201.55761 -160.4186 
L 200.144594 -160.4186 
L 198.731578 -160.4186 
L 197.318562 -160.4186 
L 195.905546 -160.4186 
L 194.49253 -160.4186 
L 193.079514 -160.4186 
L 191.666498 -160.4186 
L 190.253482 -160.4186 
L 188.840466 -160.4186 
L 187.42745 -161.32211 
L 186.014434 -161.32211 
L 184.601418 -161.32211 
L 183.188402 -161.32211 
L 181.775386 -161.32211 
L 180.36237 -161.32211 
L 178.949354 -161.32211 
L 177.536338 -161.32211 
L 176.123322 -161.32211 
L 174.710306 -161.32211 
L 173.29729 -161.32211 
L 171.884274 -161.582584 
L 170.471259 -161.582584 
L 169.058243 -161.582584 
L 167.645227 -161.582584 
L 166.232211 -161.582584 
L 164.819195 -159.877093 
L 163.406179 -159.877093 
L 161.993163 -159.877093 
L 160.580147 -159.877093 
L 159.167131 -159.877093 
L 157.754115 -159.877093 
L 156.341099 -165.558126 
L 154.928083 -165.558126 
L 153.515067 -165.558126 
L 152.102051 -165.558126 
L 150.689035 -165.558126 
L 149.276019 -204.491754 
L 147.863003 -204.491754 
L 146.449987 -204.491754 
L 145.036971 -204.491754 
L 143.623955 -204.491754 
L 142.210939 -204.491754 
L 140.797924 -204.491754 
L 139.384908 -204.491754 
L 137.971892 -204.491754 
L 136.558876 -204.491754 
L 135.14586 -204.491754 
L 133.732844 -204.491754 
L 132.319828 -204.491754 
L 130.906812 -204.491754 
L 129.493796 -204.491754 
L 128.08078 -204.491754 
L 126.667764 -204.491754 
L 125.254748 -204.491754 
L 123.841732 -204.491754 
L 122.428716 -204.491754 
L 121.0157 -204.491754 
L 119.602684 -204.491754 
L 118.189668 -204.491754 
L 116.776652 -204.491754 
L 115.363636 -204.491754 
z
" style="stroke: #482475; stroke-opacity: 0.2"/>
    </defs>
    <g clip-path="url(#p74b489011a)">
     <use xlink:href="#m27d1d97d5c" x="0" y="360" style="fill: #482475; fill-opacity: 0.2; stroke: #482475; stroke-opacity: 0.2"/>
    </g>
   </g>
   <g id="PolyCollection_2">
    <defs>
     <path id="mc1a12de718" d="M 115.363636 -63.05201 
L 115.363636 -198.446695 
L 116.776652 -198.446695 
L 118.189668 -198.446695 
L 119.602684 -198.397386 
L 121.0157 -198.397386 
L 122.428716 -198.397386 
L 123.841732 -198.397386 
L 125.254748 -198.397386 
L 126.667764 -198.397386 
L 128.08078 -208.855923 
L 129.493796 -208.855923 
L 130.906812 -208.855923 
L 132.319828 -208.855923 
L 133.732844 -208.855923 
L 135.14586 -210.109119 
L 136.558876 -210.109119 
L 137.971892 -210.109119 
L 139.384908 -210.109119 
L 140.797924 -210.109119 
L 142.210939 -210.109119 
L 143.623955 -211.223105 
L 145.036971 -211.223105 
L 146.449987 -211.223105 
L 147.863003 -211.223105 
L 149.276019 -211.223105 
L 150.689035 -205.960693 
L 152.102051 -205.960693 
L 153.515067 -205.960693 
L 154.928083 -205.960693 
L 156.341099 -205.960693 
L 157.754115 -207.940032 
L 159.167131 -207.940032 
L 160.580147 -207.940032 
L 161.993163 -207.940032 
L 163.406179 -207.940032 
L 164.819195 -207.940032 
L 166.232211 -209.617339 
L 167.645227 -209.617339 
L 169.058243 -209.617339 
L 170.471259 -209.617339 
L 171.884274 -209.617339 
L 173.29729 -209.588418 
L 174.710306 -209.588418 
L 176.123322 -209.588418 
L 177.536338 -209.588418 
L 178.949354 -209.588418 
L 180.36237 -209.588418 
L 181.775386 -209.588418 
L 183.188402 -209.588418 
L 184.601418 -209.588418 
L 186.014434 -209.588418 
L 187.42745 -209.588418 
L 188.840466 -208.6298 
L 190.253482 -208.6298 
L 191.666498 -208.6298 
L 193.079514 -208.6298 
L 194.49253 -208.6298 
L 195.905546 -208.6298 
L 197.318562 -208.6298 
L 198.731578 -208.6298 
L 200.144594 -208.6298 
L 201.55761 -208.6298 
L 202.970625 -208.6298 
L 204.383641 -207.983933 
L 205.796657 -207.983933 
L 207.209673 -207.983933 
L 208.622689 -207.983933 
L 210.035705 -207.983933 
L 211.448721 -208.6298 
L 212.861737 -208.862295 
L 214.274753 -208.862295 
L 215.687769 -208.862295 
L 217.100785 -208.862295 
L 218.513801 -208.862295 
L 219.926817 -219.657646 
L 221.339833 -219.657646 
L 222.752849 -219.657646 
L 224.165865 -219.657646 
L 225.578881 -219.657646 
L 226.991897 -215.146118 
L 228.404913 -215.146118 
L 229.817929 -215.146118 
L 231.230945 -215.146118 
L 232.64396 -215.146118 
L 234.056976 -215.146118 
L 235.469992 -213.378203 
L 236.883008 -213.378203 
L 238.296024 -213.378203 
L 239.70904 -213.378203 
L 241.122056 -213.378203 
L 242.535072 -221.8451 
L 243.948088 -221.8451 
L 245.361104 -221.8451 
L 246.77412 -221.8451 
L 248.187136 -221.8451 
L 249.600152 -221.8451 
L 251.013168 -223.385501 
L 252.426184 -223.385501 
L 253.8392 -223.385501 
L 255.252216 -223.385501 
L 256.665232 -223.385501 
L 258.078248 -224.979415 
L 259.491264 -224.979415 
L 260.90428 -224.979415 
L 262.317296 -224.979415 
L 263.730311 -224.979415 
L 265.143327 -224.979415 
L 266.556343 -223.923851 
L 267.969359 -223.923851 
L 269.382375 -223.923851 
L 270.795391 -223.923851 
L 272.208407 -223.923851 
L 273.621423 -223.175249 
L 275.034439 -223.175249 
L 276.447455 -223.175249 
L 277.860471 -223.175249 
L 279.273487 -223.175249 
L 280.686503 -226.861368 
L 282.099519 -226.861368 
L 283.512535 -226.861368 
L 284.925551 -226.861368 
L 286.338567 -226.861368 
L 287.751583 -226.861368 
L 289.164599 -226.861368 
L 290.577615 -226.861368 
L 291.990631 -226.861368 
L 293.403646 -226.861368 
L 294.816662 -226.861368 
L 296.229678 -226.861368 
L 297.642694 -226.861368 
L 299.05571 -226.861368 
L 300.468726 -226.861368 
L 301.881742 -226.861368 
L 303.294758 -226.861368 
L 304.707774 -223.094689 
L 306.12079 -223.094689 
L 307.533806 -223.094689 
L 308.946822 -223.094689 
L 310.359838 -223.094689 
L 311.772854 -182.842407 
L 313.18587 -182.842407 
L 314.598886 -182.842407 
L 316.011902 -182.842407 
L 317.424918 -182.842407 
L 318.837934 -182.842407 
L 320.25095 -186.633723 
L 321.663966 -186.633723 
L 323.076982 -186.633723 
L 324.489997 -186.633723 
L 325.903013 -186.633723 
L 327.316029 -183.846257 
L 328.729045 -183.846257 
L 330.142061 -183.846257 
L 331.555077 -183.846257 
L 332.968093 -183.846257 
L 334.381109 -183.846257 
L 335.794125 -172.127736 
L 337.207141 -172.127736 
L 338.620157 -172.127736 
L 340.033173 -172.127736 
L 341.446189 -172.127736 
L 342.859205 -172.641095 
L 344.272221 -172.641095 
L 345.685237 -172.641095 
L 347.098253 -172.641095 
L 348.511269 -172.641095 
L 349.924285 -172.641095 
L 351.337301 -172.641095 
L 352.750317 -172.641095 
L 354.163332 -172.641095 
L 355.576348 -172.641095 
L 356.989364 -172.641095 
L 358.40238 -172.641095 
L 359.815396 -172.641095 
L 361.228412 -172.641095 
L 362.641428 -172.641095 
L 364.054444 -172.641095 
L 365.46746 -172.641095 
L 366.880476 -172.641095 
L 368.293492 -172.641095 
L 369.706508 -172.641095 
L 371.119524 -172.641095 
L 372.53254 -172.641095 
L 373.945556 -172.641095 
L 375.358572 -172.641095 
L 376.771588 -172.641095 
L 378.184604 -172.641095 
L 379.59762 -172.641095 
L 381.010636 -172.641095 
L 382.423652 -172.641095 
L 383.836668 -172.641095 
L 385.249683 -172.641095 
L 386.662699 -172.641095 
L 388.075715 -172.641095 
L 389.488731 -197.897065 
L 390.901747 -197.897065 
L 392.314763 -197.897065 
L 393.727779 -197.897065 
L 395.140795 -197.897065 
L 396.553811 -220.201801 
L 397.966827 -220.201801 
L 399.379843 -220.201801 
L 400.792859 -220.201801 
L 402.205875 -220.201801 
L 403.618891 -220.201801 
L 405.031907 -220.201801 
L 406.444923 -220.201801 
L 407.857939 -220.201801 
L 409.270955 -220.201801 
L 410.683971 -220.201801 
L 412.096987 -220.201801 
L 413.510003 -220.201801 
L 414.923018 -220.201801 
L 416.336034 -220.201801 
L 417.74905 -220.201801 
L 419.162066 -220.201801 
L 420.575082 -220.201801 
L 421.988098 -220.201801 
L 423.401114 -220.201801 
L 424.81413 -220.201801 
L 426.227146 -220.201801 
L 427.640162 -220.201801 
L 429.053178 -220.201801 
L 430.466194 -220.201801 
L 431.87921 -220.201801 
L 433.292226 -220.201801 
L 434.705242 -220.201801 
L 436.118258 -220.201801 
L 437.531274 -220.201801 
L 438.94429 -220.201801 
L 440.357306 -220.201801 
L 441.770322 -220.201801 
L 443.183338 -220.918876 
L 444.596354 -220.918876 
L 446.009369 -220.918876 
L 447.422385 -220.918876 
L 448.835401 -220.918876 
L 450.248417 -219.507533 
L 451.661433 -219.507533 
L 453.074449 -219.507533 
L 454.487465 -219.507533 
L 455.900481 -219.507533 
L 457.313497 -219.507533 
L 458.726513 -219.507533 
L 460.139529 -219.507533 
L 461.552545 -219.507533 
L 462.965561 -219.507533 
L 464.378577 -219.507533 
L 465.791593 -212.711708 
L 467.204609 -212.711708 
L 468.617625 -212.711708 
L 470.030641 -212.711708 
L 471.443657 -212.711708 
L 472.856673 -241.329621 
L 474.269689 -241.329621 
L 475.682704 -241.329621 
L 477.09572 -241.329621 
L 478.508736 -241.329621 
L 479.921752 -241.329621 
L 481.334768 -241.41565 
L 482.747784 -241.41565 
L 484.1608 -241.41565 
L 485.573816 -241.41565 
L 486.986832 -241.41565 
L 488.399848 -241.41565 
L 489.812864 -241.41565 
L 491.22588 -241.41565 
L 492.638896 -241.41565 
L 494.051912 -241.41565 
L 495.464928 -241.41565 
L 496.877944 -241.41565 
L 498.29096 -241.41565 
L 499.703976 -241.41565 
L 501.116992 -241.41565 
L 502.530008 -241.41565 
L 503.943024 -241.41565 
L 505.35604 -241.41565 
L 506.769055 -241.41565 
L 508.182071 -241.41565 
L 509.595087 -241.41565 
L 511.008103 -241.41565 
L 512.421119 -241.41565 
L 513.834135 -241.41565 
L 515.247151 -241.41565 
L 516.660167 -241.41565 
L 518.073183 -241.41565 
L 519.486199 -241.41565 
L 520.899215 -241.41565 
L 522.312231 -241.41565 
L 523.725247 -241.41565 
L 525.138263 -241.41565 
L 526.551279 -241.41565 
L 527.964295 -241.41565 
L 529.377311 -241.41565 
L 530.790327 -241.41565 
L 532.203343 -241.41565 
L 533.616359 -241.41565 
L 535.029375 -241.41565 
L 536.44239 -241.41565 
L 537.855406 -241.41565 
L 539.268422 -241.41565 
L 540.681438 -241.41565 
L 542.094454 -234.797756 
L 543.50747 -234.797756 
L 544.920486 -234.797756 
L 546.333502 -234.797756 
L 547.746518 -234.797756 
L 549.159534 -234.797756 
L 550.57255 -246.659488 
L 551.985566 -246.659488 
L 553.398582 -246.659488 
L 554.811598 -246.659488 
L 556.224614 -246.659488 
L 557.63763 -247.885344 
L 559.050646 -247.885344 
L 560.463662 -247.885344 
L 561.876678 -247.885344 
L 563.289694 -247.885344 
L 564.70271 -247.885344 
L 566.115726 -247.293169 
L 567.528741 -247.293169 
L 568.941757 -247.293169 
L 570.354773 -247.293169 
L 571.767789 -247.293169 
L 573.180805 -247.885344 
L 574.593821 -247.885344 
L 576.006837 -247.885344 
L 577.419853 -247.885344 
L 578.832869 -247.885344 
L 580.245885 -247.885344 
L 581.658901 -247.885344 
L 583.071917 -247.885344 
L 584.484933 -247.885344 
L 585.897949 -247.885344 
L 587.310965 -247.885344 
L 588.723981 -247.885344 
L 590.136997 -247.885344 
L 591.550013 -247.885344 
L 592.963029 -247.885344 
L 594.376045 -247.885344 
L 595.789061 -247.885344 
L 597.202076 -247.885344 
L 598.615092 -247.885344 
L 600.028108 -247.885344 
L 601.441124 -247.885344 
L 602.85414 -247.885344 
L 604.267156 -247.885344 
L 605.680172 -247.885344 
L 607.093188 -247.885344 
L 608.506204 -247.885344 
L 609.91922 -247.885344 
L 611.332236 -247.885344 
L 612.745252 -247.885344 
L 614.158268 -247.885344 
L 615.571284 -247.885344 
L 616.9843 -247.885344 
L 618.397316 -247.885344 
L 619.810332 -247.885344 
L 621.223348 -247.885344 
L 622.636364 -247.885344 
L 622.636364 -208.695792 
L 622.636364 -208.695792 
L 621.223348 -208.695792 
L 619.810332 -208.695792 
L 618.397316 -208.695792 
L 616.9843 -208.695792 
L 615.571284 -208.695792 
L 614.158268 -208.695792 
L 612.745252 -208.695792 
L 611.332236 -208.695792 
L 609.91922 -208.695792 
L 608.506204 -208.695792 
L 607.093188 -208.695792 
L 605.680172 -208.695792 
L 604.267156 -208.695792 
L 602.85414 -208.695792 
L 601.441124 -208.695792 
L 600.028108 -208.695792 
L 598.615092 -208.695792 
L 597.202076 -208.695792 
L 595.789061 -208.695792 
L 594.376045 -208.695792 
L 592.963029 -208.695792 
L 591.550013 -208.695792 
L 590.136997 -208.695792 
L 588.723981 -208.695792 
L 587.310965 -208.695792 
L 585.897949 -208.695792 
L 584.484933 -208.695792 
L 583.071917 -208.695792 
L 581.658901 -208.695792 
L 580.245885 -208.695792 
L 578.832869 -208.695792 
L 577.419853 -208.695792 
L 576.006837 -208.695792 
L 574.593821 -208.695792 
L 573.180805 -208.695792 
L 571.767789 -207.064559 
L 570.354773 -207.064559 
L 568.941757 -207.064559 
L 567.528741 -207.064559 
L 566.115726 -207.064559 
L 564.70271 -208.695792 
L 563.289694 -208.695792 
L 561.876678 -208.695792 
L 560.463662 -208.695792 
L 559.050646 -208.695792 
L 557.63763 -208.695792 
L 556.224614 -207.69824 
L 554.811598 -207.69824 
L 553.398582 -207.69824 
L 551.985566 -207.69824 
L 550.57255 -207.69824 
L 549.159534 -187.879972 
L 547.746518 -187.879972 
L 546.333502 -187.879972 
L 544.920486 -187.879972 
L 543.50747 -187.879972 
L 542.094454 -187.879972 
L 540.681438 -194.045486 
L 539.268422 -194.045486 
L 537.855406 -194.045486 
L 536.44239 -194.045486 
L 535.029375 -194.045486 
L 533.616359 -194.045486 
L 532.203343 -194.045486 
L 530.790327 -194.045486 
L 529.377311 -194.045486 
L 527.964295 -194.045486 
L 526.551279 -194.045486 
L 525.138263 -194.045486 
L 523.725247 -194.045486 
L 522.312231 -194.045486 
L 520.899215 -194.045486 
L 519.486199 -194.045486 
L 518.073183 -194.045486 
L 516.660167 -194.045486 
L 515.247151 -194.045486 
L 513.834135 -194.045486 
L 512.421119 -194.045486 
L 511.008103 -194.045486 
L 509.595087 -194.045486 
L 508.182071 -194.045486 
L 506.769055 -194.045486 
L 505.35604 -194.045486 
L 503.943024 -194.045486 
L 502.530008 -194.045486 
L 501.116992 -194.045486 
L 499.703976 -194.045486 
L 498.29096 -194.045486 
L 496.877944 -194.045486 
L 495.464928 -194.045486 
L 494.051912 -194.045486 
L 492.638896 -194.045486 
L 491.22588 -194.045486 
L 489.812864 -194.045486 
L 488.399848 -194.045486 
L 486.986832 -194.045486 
L 485.573816 -194.045486 
L 484.1608 -194.045486 
L 482.747784 -194.045486 
L 481.334768 -194.045486 
L 479.921752 -193.575531 
L 478.508736 -193.575531 
L 477.09572 -193.575531 
L 475.682704 -193.575531 
L 474.269689 -193.575531 
L 472.856673 -193.575531 
L 471.443657 -179.39746 
L 470.030641 -179.39746 
L 468.617625 -179.39746 
L 467.204609 -179.39746 
L 465.791593 -179.39746 
L 464.378577 -180.938227 
L 462.965561 -180.938227 
L 461.552545 -180.938227 
L 460.139529 -180.938227 
L 458.726513 -180.938227 
L 457.313497 -180.938227 
L 455.900481 -180.938227 
L 454.487465 -180.938227 
L 453.074449 -180.938227 
L 451.661433 -180.938227 
L 450.248417 -180.938227 
L 448.835401 -180.638324 
L 447.422385 -180.638324 
L 446.009369 -180.638324 
L 444.596354 -180.638324 
L 443.183338 -180.638324 
L 441.770322 -180.799415 
L 440.357306 -180.799415 
L 438.94429 -180.799415 
L 437.531274 -180.799415 
L 436.118258 -180.799415 
L 434.705242 -180.799415 
L 433.292226 -180.799415 
L 431.87921 -180.799415 
L 430.466194 -180.799415 
L 429.053178 -180.799415 
L 427.640162 -180.799415 
L 426.227146 -180.799415 
L 424.81413 -180.799415 
L 423.401114 -180.799415 
L 421.988098 -180.799415 
L 420.575082 -180.799415 
L 419.162066 -180.799415 
L 417.74905 -180.799415 
L 416.336034 -180.799415 
L 414.923018 -180.799415 
L 413.510003 -180.799415 
L 412.096987 -180.799415 
L 410.683971 -180.799415 
L 409.270955 -180.799415 
L 407.857939 -180.799415 
L 406.444923 -180.799415 
L 405.031907 -180.799415 
L 403.618891 -180.799415 
L 402.205875 -180.799415 
L 400.792859 -180.799415 
L 399.379843 -180.799415 
L 397.966827 -180.799415 
L 396.553811 -180.799415 
L 395.140795 -165.310439 
L 393.727779 -165.310439 
L 392.314763 -165.310439 
L 390.901747 -165.310439 
L 389.488731 -165.310439 
L 388.075715 -162.777241 
L 386.662699 -162.777241 
L 385.249683 -162.777241 
L 383.836668 -162.777241 
L 382.423652 -162.777241 
L 381.010636 -162.777241 
L 379.59762 -162.777241 
L 378.184604 -162.777241 
L 376.771588 -162.777241 
L 375.358572 -162.777241 
L 373.945556 -162.777241 
L 372.53254 -162.777241 
L 371.119524 -162.777241 
L 369.706508 -162.777241 
L 368.293492 -162.777241 
L 366.880476 -162.777241 
L 365.46746 -162.777241 
L 364.054444 -162.777241 
L 362.641428 -162.777241 
L 361.228412 -162.777241 
L 359.815396 -162.777241 
L 358.40238 -162.777241 
L 356.989364 -162.777241 
L 355.576348 -162.777241 
L 354.163332 -162.777241 
L 352.750317 -162.777241 
L 351.337301 -162.777241 
L 349.924285 -162.777241 
L 348.511269 -162.777241 
L 347.098253 -162.777241 
L 345.685237 -162.777241 
L 344.272221 -162.777241 
L 342.859205 -162.777241 
L 341.446189 -160.511736 
L 340.033173 -160.511736 
L 338.620157 -160.511736 
L 337.207141 -160.511736 
L 335.794125 -160.511736 
L 334.381109 -133.786399 
L 332.968093 -133.786399 
L 331.555077 -133.786399 
L 330.142061 -133.786399 
L 328.729045 -133.786399 
L 327.316029 -133.786399 
L 325.903013 -123.218747 
L 324.489997 -123.218747 
L 323.076982 -123.218747 
L 321.663966 -123.218747 
L 320.25095 -123.218747 
L 318.837934 -120.897407 
L 317.424918 -120.897407 
L 316.011902 -120.897407 
L 314.598886 -120.897407 
L 313.18587 -120.897407 
L 311.772854 -120.897407 
L 310.359838 -137.890146 
L 308.946822 -137.890146 
L 307.533806 -137.890146 
L 306.12079 -137.890146 
L 304.707774 -137.890146 
L 303.294758 -140.237179 
L 301.881742 -140.237179 
L 300.468726 -140.237179 
L 299.05571 -140.237179 
L 297.642694 -140.237179 
L 296.229678 -140.237179 
L 294.816662 -140.237179 
L 293.403646 -140.237179 
L 291.990631 -140.237179 
L 290.577615 -140.237179 
L 289.164599 -140.237179 
L 287.751583 -140.237179 
L 286.338567 -140.237179 
L 284.925551 -140.237179 
L 283.512535 -140.237179 
L 282.099519 -140.237179 
L 280.686503 -140.237179 
L 279.273487 -136.697618 
L 277.860471 -136.697618 
L 276.447455 -136.697618 
L 275.034439 -136.697618 
L 273.621423 -136.697618 
L 272.208407 -117.052425 
L 270.795391 -117.052425 
L 269.382375 -117.052425 
L 267.969359 -117.052425 
L 266.556343 -117.052425 
L 265.143327 -113.217891 
L 263.730311 -113.217891 
L 262.317296 -113.217891 
L 260.90428 -113.217891 
L 259.491264 -113.217891 
L 258.078248 -113.217891 
L 256.665232 -110.921501 
L 255.252216 -110.921501 
L 253.8392 -110.921501 
L 252.426184 -110.921501 
L 251.013168 -110.921501 
L 249.600152 -106.904702 
L 248.187136 -106.904702 
L 246.77412 -106.904702 
L 245.361104 -106.904702 
L 243.948088 -106.904702 
L 242.535072 -106.904702 
L 241.122056 -93.695615 
L 239.70904 -93.695615 
L 238.296024 -93.695615 
L 236.883008 -93.695615 
L 235.469992 -93.695615 
L 234.056976 -77.476762 
L 232.64396 -77.476762 
L 231.230945 -77.476762 
L 229.817929 -77.476762 
L 228.404913 -77.476762 
L 226.991897 -77.476762 
L 225.578881 -80.746475 
L 224.165865 -80.746475 
L 222.752849 -80.746475 
L 221.339833 -80.746475 
L 219.926817 -80.746475 
L 218.513801 -69.310387 
L 217.100785 -69.310387 
L 215.687769 -69.310387 
L 214.274753 -69.310387 
L 212.861737 -69.310387 
L 211.448721 -67.875458 
L 210.035705 -67.965341 
L 208.622689 -67.965341 
L 207.209673 -67.965341 
L 205.796657 -67.965341 
L 204.383641 -67.965341 
L 202.970625 -67.875458 
L 201.55761 -67.875458 
L 200.144594 -67.875458 
L 198.731578 -67.875458 
L 197.318562 -67.875458 
L 195.905546 -67.875458 
L 194.49253 -67.875458 
L 193.079514 -67.875458 
L 191.666498 -67.875458 
L 190.253482 -67.875458 
L 188.840466 -67.875458 
L 187.42745 -68.02828 
L 186.014434 -68.02828 
L 184.601418 -68.02828 
L 183.188402 -68.02828 
L 181.775386 -68.02828 
L 180.36237 -68.02828 
L 178.949354 -68.02828 
L 177.536338 -68.02828 
L 176.123322 -68.02828 
L 174.710306 -68.02828 
L 173.29729 -68.02828 
L 171.884274 -68.555343 
L 170.471259 -68.555343 
L 169.058243 -68.555343 
L 167.645227 -68.555343 
L 166.232211 -68.555343 
L 164.819195 -69.12121 
L 163.406179 -69.12121 
L 161.993163 -69.12121 
L 160.580147 -69.12121 
L 159.167131 -69.12121 
L 157.754115 -69.12121 
L 156.341099 -69.433124 
L 154.928083 -69.433124 
L 153.515067 -69.433124 
L 152.102051 -69.433124 
L 150.689035 -69.433124 
L 149.276019 -73.063553 
L 147.863003 -73.063553 
L 146.449987 -73.063553 
L 145.036971 -73.063553 
L 143.623955 -73.063553 
L 142.210939 -71.953603 
L 140.797924 -71.953603 
L 139.384908 -71.953603 
L 137.971892 -71.953603 
L 136.558876 -71.953603 
L 135.14586 -71.953603 
L 133.732844 -71.539374 
L 132.319828 -71.539374 
L 130.906812 -71.539374 
L 129.493796 -71.539374 
L 128.08078 -71.539374 
L 126.667764 -62.545336 
L 125.254748 -62.545336 
L 123.841732 -62.545336 
L 122.428716 -62.545336 
L 121.0157 -62.545336 
L 119.602684 -62.545336 
L 118.189668 -63.05201 
L 116.776652 -63.05201 
L 115.363636 -63.05201 
z
" style="stroke: #bddf26; stroke-opacity: 0.2"/>
    </defs>
    <g clip-path="url(#p74b489011a)">
     <use xlink:href="#mc1a12de718" x="0" y="360" style="fill: #bddf26; fill-opacity: 0.2; stroke: #bddf26; stroke-opacity: 0.2"/>
    </g>
   </g>
   <g id="matplotlib.axis_1">
    <g id="xtick_1">
     <g id="line2d_1">
      <defs>
       <path id="mf77577f9f1" d="M 0 0 
L 0 3.5 
" style="stroke: #000000; stroke-width: 0.8"/>
      </defs>
      <g>
       <use xlink:href="#mf77577f9f1" x="146.107438" y="320.4" style="stroke: #000000; stroke-width: 0.8"/>
      </g>
     </g>
     <g id="text_1">
      <!-- $\mathdefault{100}$ -->
      <g transform="translate(135.498905 337.431808) scale(0.145 -0.145)">
       <defs>
        <path id="CMR17-31" d="M 1702 4058 
C 1702 4192 1696 4192 1606 4192 
C 1357 3916 979 3827 621 3827 
C 602 3827 570 3827 563 3808 
C 557 3795 557 3782 557 3648 
C 755 3648 1088 3686 1344 3839 
L 1344 461 
C 1344 236 1331 160 781 160 
L 589 160 
L 589 0 
C 896 0 1216 0 1523 0 
C 1830 0 2150 0 2458 0 
L 2458 160 
L 2266 160 
C 1715 160 1702 230 1702 458 
L 1702 4058 
z
" transform="scale(0.015625)"/>
        <path id="CMR17-30" d="M 2688 2025 
C 2688 2416 2682 3080 2413 3591 
C 2176 4039 1798 4198 1466 4198 
C 1158 4198 768 4058 525 3597 
C 269 3118 243 2524 243 2025 
C 243 1661 250 1106 448 619 
C 723 -39 1216 -128 1466 -128 
C 1760 -128 2208 -7 2470 600 
C 2662 1042 2688 1559 2688 2025 
z
M 1466 -26 
C 1056 -26 813 325 723 812 
C 653 1188 653 1738 653 2096 
C 653 2588 653 2997 736 3387 
C 858 3929 1216 4096 1466 4096 
C 1728 4096 2067 3923 2189 3400 
C 2272 3036 2278 2607 2278 2096 
C 2278 1680 2278 1169 2202 792 
C 2067 95 1690 -26 1466 -26 
z
" transform="scale(0.015625)"/>
       </defs>
       <use xlink:href="#CMR17-31" transform="scale(0.996264)"/>
       <use xlink:href="#CMR17-30" transform="translate(45.690477 0) scale(0.996264)"/>
       <use xlink:href="#CMR17-30" transform="translate(91.380954 0) scale(0.996264)"/>
      </g>
     </g>
    </g>
    <g id="xtick_2">
     <g id="line2d_2">
      <g>
       <use xlink:href="#mf77577f9f1" x="222.966942" y="320.4" style="stroke: #000000; stroke-width: 0.8"/>
      </g>
     </g>
     <g id="text_2">
      <!-- $\mathdefault{200}$ -->
      <g transform="translate(212.358409 337.431808) scale(0.145 -0.145)">
       <defs>
        <path id="CMR17-32" d="M 2669 989 
L 2554 989 
C 2490 536 2438 459 2413 420 
C 2381 369 1920 369 1830 369 
L 602 369 
C 832 619 1280 1072 1824 1597 
C 2214 1967 2669 2402 2669 3035 
C 2669 3790 2067 4224 1395 4224 
C 691 4224 262 3604 262 3030 
C 262 2780 448 2748 525 2748 
C 589 2748 781 2787 781 3010 
C 781 3207 614 3264 525 3264 
C 486 3264 448 3258 422 3245 
C 544 3790 915 4058 1306 4058 
C 1862 4058 2227 3617 2227 3035 
C 2227 2479 1901 2000 1536 1584 
L 262 146 
L 262 0 
L 2515 0 
L 2669 989 
z
" transform="scale(0.015625)"/>
       </defs>
       <use xlink:href="#CMR17-32" transform="scale(0.996264)"/>
       <use xlink:href="#CMR17-30" transform="translate(45.690477 0) scale(0.996264)"/>
       <use xlink:href="#CMR17-30" transform="translate(91.380954 0) scale(0.996264)"/>
      </g>
     </g>
    </g>
    <g id="xtick_3">
     <g id="line2d_3">
      <g>
       <use xlink:href="#mf77577f9f1" x="299.826446" y="320.4" style="stroke: #000000; stroke-width: 0.8"/>
      </g>
     </g>
     <g id="text_3">
      <!-- $\mathdefault{300}$ -->
      <g transform="translate(289.217913 337.431808) scale(0.145 -0.145)">
       <defs>
        <path id="CMR17-33" d="M 1414 2157 
C 1984 2157 2234 1662 2234 1090 
C 2234 320 1824 25 1453 25 
C 1114 25 563 194 390 693 
C 422 680 454 680 486 680 
C 640 680 755 782 755 948 
C 755 1133 614 1216 486 1216 
C 378 1216 211 1165 211 926 
C 211 335 787 -128 1466 -128 
C 2176 -128 2720 430 2720 1085 
C 2720 1707 2208 2157 1600 2227 
C 2086 2328 2554 2756 2554 3329 
C 2554 3820 2048 4179 1472 4179 
C 890 4179 378 3829 378 3329 
C 378 3110 544 3072 627 3072 
C 762 3072 877 3155 877 3321 
C 877 3486 762 3569 627 3569 
C 602 3569 570 3569 544 3557 
C 730 3959 1235 4032 1459 4032 
C 1683 4032 2106 3925 2106 3320 
C 2106 3143 2080 2828 1862 2550 
C 1670 2304 1453 2304 1242 2284 
C 1210 2284 1062 2269 1037 2269 
C 992 2263 966 2257 966 2208 
C 966 2163 973 2157 1101 2157 
L 1414 2157 
z
" transform="scale(0.015625)"/>
       </defs>
       <use xlink:href="#CMR17-33" transform="scale(0.996264)"/>
       <use xlink:href="#CMR17-30" transform="translate(45.690477 0) scale(0.996264)"/>
       <use xlink:href="#CMR17-30" transform="translate(91.380954 0) scale(0.996264)"/>
      </g>
     </g>
    </g>
    <g id="xtick_4">
     <g id="line2d_4">
      <g>
       <use xlink:href="#mf77577f9f1" x="376.68595" y="320.4" style="stroke: #000000; stroke-width: 0.8"/>
      </g>
     </g>
     <g id="text_4">
      <!-- $\mathdefault{400}$ -->
      <g transform="translate(366.077417 337.431808) scale(0.145 -0.145)">
       <defs>
        <path id="CMR17-34" d="M 2150 4122 
C 2150 4256 2144 4256 2029 4256 
L 128 1254 
L 128 1088 
L 1779 1088 
L 1779 457 
C 1779 224 1766 160 1318 160 
L 1197 160 
L 1197 0 
C 1402 0 1747 0 1965 0 
C 2182 0 2528 0 2733 0 
L 2733 160 
L 2611 160 
C 2163 160 2150 224 2150 457 
L 2150 1088 
L 2803 1088 
L 2803 1254 
L 2150 1254 
L 2150 4122 
z
M 1798 3703 
L 1798 1254 
L 256 1254 
L 1798 3703 
z
" transform="scale(0.015625)"/>
       </defs>
       <use xlink:href="#CMR17-34" transform="scale(0.996264)"/>
       <use xlink:href="#CMR17-30" transform="translate(45.690477 0) scale(0.996264)"/>
       <use xlink:href="#CMR17-30" transform="translate(91.380954 0) scale(0.996264)"/>
      </g>
     </g>
    </g>
    <g id="xtick_5">
     <g id="line2d_5">
      <g>
       <use xlink:href="#mf77577f9f1" x="453.545455" y="320.4" style="stroke: #000000; stroke-width: 0.8"/>
      </g>
     </g>
     <g id="text_5">
      <!-- $\mathdefault{500}$ -->
      <g transform="translate(442.936921 337.431808) scale(0.145 -0.145)">
       <defs>
        <path id="CMR17-35" d="M 730 3692 
C 794 3666 1056 3584 1325 3584 
C 1920 3584 2246 3911 2432 4100 
C 2432 4157 2432 4192 2394 4192 
C 2387 4192 2374 4192 2323 4163 
C 2099 4058 1837 3973 1517 3973 
C 1325 3973 1037 3999 723 4139 
C 653 4171 640 4171 634 4171 
C 602 4171 595 4164 595 4037 
L 595 2203 
C 595 2089 595 2057 659 2057 
C 691 2057 704 2070 736 2114 
C 941 2401 1222 2522 1542 2522 
C 1766 2522 2246 2382 2246 1289 
C 2246 1085 2246 715 2054 421 
C 1894 159 1645 25 1370 25 
C 947 25 518 320 403 814 
C 429 807 480 795 506 795 
C 589 795 749 840 749 1038 
C 749 1210 627 1280 506 1280 
C 358 1280 262 1190 262 1011 
C 262 454 704 -128 1382 -128 
C 2042 -128 2669 440 2669 1264 
C 2669 2030 2170 2624 1549 2624 
C 1222 2624 947 2503 730 2274 
L 730 3692 
z
" transform="scale(0.015625)"/>
       </defs>
       <use xlink:href="#CMR17-35" transform="scale(0.996264)"/>
       <use xlink:href="#CMR17-30" transform="translate(45.690477 0) scale(0.996264)"/>
       <use xlink:href="#CMR17-30" transform="translate(91.380954 0) scale(0.996264)"/>
      </g>
     </g>
    </g>
    <g id="xtick_6">
     <g id="line2d_6">
      <g>
       <use xlink:href="#mf77577f9f1" x="530.404959" y="320.4" style="stroke: #000000; stroke-width: 0.8"/>
      </g>
     </g>
     <g id="text_6">
      <!-- $\mathdefault{600}$ -->
      <g transform="translate(519.796425 337.431808) scale(0.145 -0.145)">
       <defs>
        <path id="CMR17-36" d="M 678 2176 
C 678 3690 1395 4032 1811 4032 
C 1946 4032 2272 4009 2400 3776 
C 2298 3776 2106 3776 2106 3553 
C 2106 3381 2246 3323 2336 3323 
C 2394 3323 2566 3348 2566 3560 
C 2566 3954 2246 4179 1805 4179 
C 1043 4179 243 3390 243 1984 
C 243 253 966 -128 1478 -128 
C 2099 -128 2688 427 2688 1283 
C 2688 2081 2170 2662 1517 2662 
C 1126 2662 838 2407 678 1960 
L 678 2176 
z
M 1478 25 
C 691 25 691 1200 691 1436 
C 691 1896 909 2560 1504 2560 
C 1613 2560 1926 2560 2138 2120 
C 2253 1870 2253 1609 2253 1289 
C 2253 944 2253 690 2118 434 
C 1978 171 1773 25 1478 25 
z
" transform="scale(0.015625)"/>
       </defs>
       <use xlink:href="#CMR17-36" transform="scale(0.996264)"/>
       <use xlink:href="#CMR17-30" transform="translate(45.690477 0) scale(0.996264)"/>
       <use xlink:href="#CMR17-30" transform="translate(91.380954 0) scale(0.996264)"/>
      </g>
     </g>
    </g>
    <g id="xtick_7">
     <g id="line2d_7">
      <g>
       <use xlink:href="#mf77577f9f1" x="607.264463" y="320.4" style="stroke: #000000; stroke-width: 0.8"/>
      </g>
     </g>
     <g id="text_7">
      <!-- $\mathdefault{700}$ -->
      <g transform="translate(596.655929 337.431808) scale(0.145 -0.145)">
       <defs>
        <path id="CMR17-37" d="M 2886 3941 
L 2886 4081 
L 1382 4081 
C 634 4081 621 4165 595 4288 
L 480 4288 
L 294 3094 
L 410 3094 
C 429 3215 474 3540 550 3661 
C 589 3712 1062 3712 1171 3712 
L 2579 3712 
L 1869 2661 
C 1395 1954 1069 999 1069 165 
C 1069 89 1069 -128 1299 -128 
C 1530 -128 1530 89 1530 171 
L 1530 465 
C 1530 1508 1709 2196 2003 2636 
L 2886 3941 
z
" transform="scale(0.015625)"/>
       </defs>
       <use xlink:href="#CMR17-37" transform="scale(0.996264)"/>
       <use xlink:href="#CMR17-30" transform="translate(45.690477 0) scale(0.996264)"/>
       <use xlink:href="#CMR17-30" transform="translate(91.380954 0) scale(0.996264)"/>
      </g>
     </g>
    </g>
    <g id="text_8">
     <!-- time (s) -->
     <g transform="translate(345.477317 355.075073) scale(0.145 -0.145)">
      <defs>
       <path id="CMSS17-74" d="M 1069 2368 
L 1901 2368 
L 1901 2737 
L 1069 2737 
L 1069 3520 
L 614 3520 
L 614 2737 
L 109 2737 
L 109 2368 
L 602 2368 
L 602 749 
C 602 384 685 -64 1107 -64 
C 1427 -64 1722 25 2003 172 
L 1901 548 
C 1747 414 1562 337 1363 337 
C 1082 337 1069 696 1069 856 
L 1069 2368 
z
" transform="scale(0.015625)"/>
       <path id="CMSS17-69" d="M 979 4183 
L 442 4183 
L 442 3648 
L 979 3648 
L 979 4183 
z
M 947 2739 
L 474 2739 
L 474 0 
L 947 0 
L 947 2739 
z
" transform="scale(0.015625)"/>
       <path id="CMSS17-6d" d="M 4288 1877 
C 4288 2308 4179 2816 3462 2816 
C 2982 2816 2694 2516 2566 2331 
C 2451 2670 2182 2816 1798 2816 
C 1363 2816 1088 2568 941 2389 
L 941 2758 
L 474 2758 
L 474 0 
L 960 0 
L 960 1559 
C 960 1939 1101 2428 1555 2428 
C 2138 2428 2138 2016 2138 1829 
L 2138 0 
L 2624 0 
L 2624 1559 
C 2624 1939 2765 2428 3219 2428 
C 3802 2428 3802 2016 3802 1829 
L 3802 0 
L 4288 0 
L 4288 1877 
z
" transform="scale(0.015625)"/>
       <path id="CMSS17-65" d="M 2502 1377 
C 2502 1590 2490 2003 2285 2345 
C 2061 2713 1696 2816 1421 2816 
C 755 2816 192 2188 192 1375 
C 192 582 774 -64 1510 -64 
C 1798 -64 2150 19 2470 248 
C 2470 274 2458 414 2451 420 
C 2451 433 2432 630 2432 656 
C 2125 407 1773 325 1517 325 
C 1107 325 666 667 646 1377 
L 2502 1377 
z
M 698 1728 
C 781 2084 1062 2421 1421 2421 
C 1517 2421 1965 2421 2080 1728 
L 698 1728 
z
" transform="scale(0.015625)"/>
       <path id="CMSS17-28" d="M 1613 4768 
C 1267 4417 474 3601 474 1588 
C 474 -433 1267 -1243 1613 -1600 
L 2003 -1600 
C 1216 -784 960 357 960 1581 
C 960 2798 1203 3946 2003 4768 
L 1613 4768 
z
" transform="scale(0.015625)"/>
       <path id="CMSS17-73" d="M 2061 2627 
C 1683 2807 1389 2807 1197 2807 
C 742 2807 198 2648 198 2003 
C 198 1359 902 1218 1094 1179 
C 1389 1122 1715 1058 1715 740 
C 1715 337 1254 337 1171 337 
C 915 337 563 407 243 638 
L 166 210 
C 531 0 883 -64 1178 -64 
C 1965 -64 2163 416 2163 781 
C 2163 1094 1984 1305 1862 1401 
C 1651 1568 1574 1587 1050 1696 
C 960 1709 646 1779 646 2066 
C 646 2432 1050 2432 1139 2432 
C 1555 2432 1811 2303 1984 2208 
L 2061 2627 
z
" transform="scale(0.015625)"/>
       <path id="CMSS17-29" d="M 723 -1600 
C 1069 -1249 1862 -433 1862 1581 
C 1862 3601 1069 4411 723 4768 
L 333 4768 
C 1120 3952 1376 2811 1376 1588 
C 1376 370 1133 -778 333 -1600 
L 723 -1600 
z
" transform="scale(0.015625)"/>
      </defs>
      <use xlink:href="#CMSS17-74" transform="scale(0.996264)"/>
      <use xlink:href="#CMSS17-69" transform="translate(33.831567 0) scale(0.996264)"/>
      <use xlink:href="#CMSS17-6d" transform="translate(56.01229 0) scale(0.996264)"/>
      <use xlink:href="#CMSS17-65" transform="translate(130.241544 0) scale(0.996264)"/>
      <use xlink:href="#CMSS17-28" transform="translate(203.109479 0) scale(0.996264)"/>
      <use xlink:href="#CMSS17-73" transform="translate(239.543393 0) scale(0.996264)"/>
      <use xlink:href="#CMSS17-29" transform="translate(275.456935 0) scale(0.996264)"/>
     </g>
    </g>
   </g>
   <g id="matplotlib.axis_2">
    <g id="ytick_1">
     <g id="line2d_8">
      <path d="M 90 320.4 
L 648 320.4 
" clip-path="url(#p74b489011a)" style="fill: none; stroke-dasharray: 1.85,0.8; stroke-dashoffset: 0; stroke: #808080; stroke-width: 0.5"/>
     </g>
     <g id="line2d_9">
      <defs>
       <path id="mcde2707531" d="M 0 0 
L -3.5 0 
" style="stroke: #000000; stroke-width: 0.8"/>
      </defs>
      <g>
       <use xlink:href="#mcde2707531" x="90" y="320.4" style="stroke: #000000; stroke-width: 0.8"/>
      </g>
     </g>
     <g id="text_9">
      <!-- $\mathdefault{0.0}$ -->
      <g transform="translate(64.926206 325.415904) scale(0.145 -0.145)">
       <defs>
        <path id="CMMI12-3a" d="M 1178 307 
C 1178 492 1024 619 870 619 
C 685 619 557 466 557 313 
C 557 128 710 0 864 0 
C 1050 0 1178 153 1178 307 
z
" transform="scale(0.015625)"/>
       </defs>
       <use xlink:href="#CMR17-30" transform="scale(0.996264)"/>
       <use xlink:href="#CMMI12-3a" transform="translate(45.690477 0) scale(0.996264)"/>
       <use xlink:href="#CMR17-30" transform="translate(72.787654 0) scale(0.996264)"/>
      </g>
     </g>
    </g>
    <g id="ytick_2">
     <g id="line2d_10">
      <path d="M 90 267.6 
L 648 267.6 
" clip-path="url(#p74b489011a)" style="fill: none; stroke-dasharray: 1.85,0.8; stroke-dashoffset: 0; stroke: #808080; stroke-width: 0.5"/>
     </g>
     <g id="line2d_11">
      <g>
       <use xlink:href="#mcde2707531" x="90" y="267.6" style="stroke: #000000; stroke-width: 0.8"/>
      </g>
     </g>
     <g id="text_10">
      <!-- $\mathdefault{0.2}$ -->
      <g transform="translate(64.926206 272.615904) scale(0.145 -0.145)">
       <use xlink:href="#CMR17-30" transform="scale(0.996264)"/>
       <use xlink:href="#CMMI12-3a" transform="translate(45.690477 0) scale(0.996264)"/>
       <use xlink:href="#CMR17-32" transform="translate(72.787654 0) scale(0.996264)"/>
      </g>
     </g>
    </g>
    <g id="ytick_3">
     <g id="line2d_12">
      <path d="M 90 214.8 
L 648 214.8 
" clip-path="url(#p74b489011a)" style="fill: none; stroke-dasharray: 1.85,0.8; stroke-dashoffset: 0; stroke: #808080; stroke-width: 0.5"/>
     </g>
     <g id="line2d_13">
      <g>
       <use xlink:href="#mcde2707531" x="90" y="214.8" style="stroke: #000000; stroke-width: 0.8"/>
      </g>
     </g>
     <g id="text_11">
      <!-- $\mathdefault{0.4}$ -->
      <g transform="translate(64.926206 219.815904) scale(0.145 -0.145)">
       <use xlink:href="#CMR17-30" transform="scale(0.996264)"/>
       <use xlink:href="#CMMI12-3a" transform="translate(45.690477 0) scale(0.996264)"/>
       <use xlink:href="#CMR17-34" transform="translate(72.787654 0) scale(0.996264)"/>
      </g>
     </g>
    </g>
    <g id="ytick_4">
     <g id="line2d_14">
      <path d="M 90 162 
L 648 162 
" clip-path="url(#p74b489011a)" style="fill: none; stroke-dasharray: 1.85,0.8; stroke-dashoffset: 0; stroke: #808080; stroke-width: 0.5"/>
     </g>
     <g id="line2d_15">
      <g>
       <use xlink:href="#mcde2707531" x="90" y="162" style="stroke: #000000; stroke-width: 0.8"/>
      </g>
     </g>
     <g id="text_12">
      <!-- $\mathdefault{0.6}$ -->
      <g transform="translate(64.926206 167.015904) scale(0.145 -0.145)">
       <use xlink:href="#CMR17-30" transform="scale(0.996264)"/>
       <use xlink:href="#CMMI12-3a" transform="translate(45.690477 0) scale(0.996264)"/>
       <use xlink:href="#CMR17-36" transform="translate(72.787654 0) scale(0.996264)"/>
      </g>
     </g>
    </g>
    <g id="ytick_5">
     <g id="line2d_16">
      <path d="M 90 109.2 
L 648 109.2 
" clip-path="url(#p74b489011a)" style="fill: none; stroke-dasharray: 1.85,0.8; stroke-dashoffset: 0; stroke: #808080; stroke-width: 0.5"/>
     </g>
     <g id="line2d_17">
      <g>
       <use xlink:href="#mcde2707531" x="90" y="109.2" style="stroke: #000000; stroke-width: 0.8"/>
      </g>
     </g>
     <g id="text_13">
      <!-- $\mathdefault{0.8}$ -->
      <g transform="translate(64.926206 114.215904) scale(0.145 -0.145)">
       <defs>
        <path id="CMR17-38" d="M 1741 2264 
C 2144 2467 2554 2773 2554 3263 
C 2554 3841 1990 4179 1472 4179 
C 890 4179 378 3759 378 3180 
C 378 3021 416 2747 666 2505 
C 730 2442 998 2251 1171 2130 
C 883 1983 211 1634 211 934 
C 211 279 838 -128 1459 -128 
C 2144 -128 2720 362 2720 1010 
C 2720 1590 2330 1857 2074 2029 
L 1741 2264 
z
M 902 2822 
C 851 2854 595 3051 595 3351 
C 595 3739 998 4032 1459 4032 
C 1965 4032 2336 3676 2336 3262 
C 2336 2669 1670 2331 1638 2331 
C 1632 2331 1626 2331 1574 2370 
L 902 2822 
z
M 2080 1519 
C 2176 1449 2483 1240 2483 851 
C 2483 381 2010 25 1472 25 
C 890 25 448 438 448 940 
C 448 1443 838 1862 1280 2060 
L 2080 1519 
z
" transform="scale(0.015625)"/>
       </defs>
       <use xlink:href="#CMR17-30" transform="scale(0.996264)"/>
       <use xlink:href="#CMMI12-3a" transform="translate(45.690477 0) scale(0.996264)"/>
       <use xlink:href="#CMR17-38" transform="translate(72.787654 0) scale(0.996264)"/>
      </g>
     </g>
    </g>
    <g id="ytick_6">
     <g id="line2d_18">
      <path d="M 90 56.4 
L 648 56.4 
" clip-path="url(#p74b489011a)" style="fill: none; stroke-dasharray: 1.85,0.8; stroke-dashoffset: 0; stroke: #808080; stroke-width: 0.5"/>
     </g>
     <g id="line2d_19">
      <g>
       <use xlink:href="#mcde2707531" x="90" y="56.4" style="stroke: #000000; stroke-width: 0.8"/>
      </g>
     </g>
     <g id="text_14">
      <!-- $\mathdefault{1.0}$ -->
      <g transform="translate(64.926206 61.415904) scale(0.145 -0.145)">
       <use xlink:href="#CMR17-31" transform="scale(0.996264)"/>
       <use xlink:href="#CMMI12-3a" transform="translate(45.690477 0) scale(0.996264)"/>
       <use xlink:href="#CMR17-30" transform="translate(72.787654 0) scale(0.996264)"/>
      </g>
     </g>
    </g>
    <g id="text_15">
     <!-- QoS -->
     <g transform="translate(58.117312 194.481753) rotate(-90) scale(0.145 -0.145)">
      <defs>
       <path id="CMSS17-51" d="M 3200 202 
C 3981 833 4096 1689 4096 2174 
C 4096 3501 3219 4497 2214 4497 
C 1210 4497 333 3497 333 2178 
C 333 847 1222 -128 2214 -128 
C 2438 -128 2630 -77 2765 -26 
L 3302 -832 
L 3930 -832 
L 3200 202 
z
M 2528 324 
C 2438 293 2330 273 2214 273 
C 1523 273 858 993 858 2178 
C 858 3357 1517 4096 2214 4096 
C 2918 4096 3571 3350 3571 2178 
C 3571 1771 3507 1089 2950 566 
L 2490 1210 
L 1939 1210 
L 2528 324 
z
" transform="scale(0.015625)"/>
       <path id="CMSS17-6f" d="M 2829 1356 
C 2829 2176 2221 2816 1504 2816 
C 768 2816 173 2157 173 1356 
C 173 544 787 -64 1498 -64 
C 2227 -64 2829 563 2829 1356 
z
M 1504 337 
C 1050 337 659 709 659 1408 
C 659 2151 1114 2427 1498 2427 
C 1914 2427 2342 2126 2342 1408 
C 2342 683 1926 337 1504 337 
z
" transform="scale(0.015625)"/>
       <path id="CMSS17-53" d="M 2797 4169 
C 2515 4334 2208 4480 1690 4480 
C 864 4480 333 3879 333 3266 
C 333 3025 403 2753 653 2475 
C 902 2196 1184 2121 1542 2033 
C 1690 1994 1939 1924 1984 1906 
C 2342 1767 2515 1444 2515 1140 
C 2515 742 2202 318 1645 318 
C 1453 318 890 318 358 819 
L 269 318 
C 794 -64 1363 -128 1651 -128 
C 2438 -128 3002 488 3002 1186 
C 3002 1440 2925 1763 2656 2061 
C 2394 2347 2163 2410 1638 2549 
C 1338 2626 1146 2677 986 2873 
C 877 3013 819 3146 819 3317 
C 819 3673 1126 4060 1690 4060 
C 1971 4060 2336 4002 2707 3660 
L 2797 4169 
z
" transform="scale(0.015625)"/>
      </defs>
      <use xlink:href="#CMSS17-51" transform="scale(0.996264)"/>
      <use xlink:href="#CMSS17-6f" transform="translate(69.024255 0) scale(0.996264)"/>
      <use xlink:href="#CMSS17-53" transform="translate(115.867879 0) scale(0.996264)"/>
     </g>
    </g>
   </g>
   <g id="line2d_20">
    <path d="M 115.363636 132.821136 
L 149.276019 132.821136 
L 150.689035 165.05712 
L 156.341099 165.05712 
L 157.754115 168.947424 
L 164.819195 168.947424 
L 166.232211 168.113712 
L 171.884274 168.113712 
L 173.29729 168.39144 
L 187.42745 168.39144 
L 188.840466 168.94716 
L 218.513801 168.94716 
L 219.926817 168.669168 
L 225.578881 168.669168 
L 226.991897 190.900872 
L 234.056976 190.900872 
L 235.469992 203.406024 
L 241.122056 203.406024 
L 242.535072 201.18288 
L 249.600152 201.18288 
L 251.013168 201.7386 
L 256.665232 201.7386 
L 258.078248 202.016328 
L 303.294758 202.016328 
L 304.707774 202.85004 
L 310.359838 202.85004 
L 311.772854 226.749696 
L 318.837934 226.749696 
L 320.25095 226.193712 
L 325.903013 226.193712 
L 327.316029 226.471704 
L 388.075715 226.471704 
L 389.488731 216.189168 
L 395.140795 216.189168 
L 396.553811 209.797464 
L 402.205875 209.797464 
L 403.618891 207.852312 
L 441.770322 207.852312 
L 443.183338 207.57432 
L 457.313497 207.57432 
L 458.726513 207.852312 
L 464.378577 207.852312 
L 465.791593 200.626896 
L 471.443657 200.626896 
L 472.856673 181.730304 
L 479.921752 181.730304 
L 481.334768 181.17432 
L 540.681438 181.17432 
L 542.094454 184.509168 
L 549.159534 184.509168 
L 550.57255 162.833976 
L 556.224614 162.833976 
L 557.63763 162 
L 564.70271 162 
L 566.115726 162.833712 
L 571.767789 162.833712 
L 573.180805 162 
L 622.636364 162 
L 622.636364 162 
" clip-path="url(#p74b489011a)" style="fill: none; stroke: #482475; stroke-width: 2.5; stroke-linecap: square"/>
   </g>
   <g id="line2d_21">
    <path d="M 115.363636 229.250647 
L 118.189668 229.250647 
L 119.602684 229.528639 
L 126.667764 229.528639 
L 128.08078 219.802351 
L 133.732844 219.802351 
L 135.14586 218.968639 
L 142.210939 218.968639 
L 143.623955 217.856671 
L 149.276019 217.856671 
L 150.689035 222.303091 
L 156.341099 222.303091 
L 157.754115 221.469379 
L 164.819195 221.469379 
L 166.232211 220.913659 
L 171.884274 220.913659 
L 173.29729 221.191651 
L 187.42745 221.191651 
L 188.840466 221.747371 
L 202.970625 221.747371 
L 204.383641 222.025363 
L 210.035705 222.025363 
L 211.448721 221.747371 
L 212.861737 220.913659 
L 218.513801 220.913659 
L 219.926817 209.797939 
L 225.578881 209.797939 
L 226.991897 213.68856 
L 234.056976 213.68856 
L 235.469992 206.463091 
L 241.122056 206.463091 
L 242.535072 195.625099 
L 249.600152 195.625099 
L 251.013168 192.846499 
L 256.665232 192.846499 
L 258.078248 190.901347 
L 265.143327 190.901347 
L 266.556343 189.511862 
L 272.208407 189.511862 
L 273.621423 180.063566 
L 279.273487 180.063566 
L 280.686503 176.450726 
L 303.294758 176.450726 
L 304.707774 179.507582 
L 310.359838 179.507582 
L 311.772854 208.130093 
L 318.837934 208.130093 
L 320.25095 205.073765 
L 325.903013 205.073765 
L 327.316029 201.183672 
L 334.381109 201.183672 
L 335.794125 193.680264 
L 341.446189 193.680264 
L 342.859205 192.290832 
L 388.075715 192.290832 
L 389.488731 178.396248 
L 395.140795 178.396248 
L 396.553811 159.499392 
L 441.770322 159.499392 
L 443.183338 159.2214 
L 448.835401 159.2214 
L 450.248417 159.77712 
L 464.378577 159.77712 
L 465.791593 163.945416 
L 471.443657 163.945416 
L 472.856673 142.547424 
L 479.921752 142.547424 
L 481.334768 142.269432 
L 540.681438 142.269432 
L 542.094454 148.661136 
L 549.159534 148.661136 
L 550.57255 132.821136 
L 556.224614 132.821136 
L 557.63763 131.709432 
L 564.70271 131.709432 
L 566.115726 132.821136 
L 571.767789 132.821136 
L 573.180805 131.709432 
L 622.636364 131.709432 
L 622.636364 131.709432 
" clip-path="url(#p74b489011a)" style="fill: none; stroke: #bddf26; stroke-width: 2.5; stroke-linecap: square"/>
   </g>
   <g id="patch_3">
    <path d="M 90 320.4 
L 90 43.2 
" style="fill: none; stroke: #000000; stroke-width: 0.8; stroke-linejoin: miter; stroke-linecap: square"/>
   </g>
   <g id="patch_4">
    <path d="M 648 320.4 
L 648 43.2 
" style="fill: none; stroke: #000000; stroke-width: 0.8; stroke-linejoin: miter; stroke-linecap: square"/>
   </g>
   <g id="patch_5">
    <path d="M 90 320.4 
L 648 320.4 
" style="fill: none; stroke: #000000; stroke-width: 0.8; stroke-linejoin: miter; stroke-linecap: square"/>
   </g>
   <g id="text_16">
    <!-- $nt=Barabsi$ $d=100$ $oc=1\%$ $l=costant$ -->
    <g transform="translate(207.941661 37.2) scale(0.18 -0.18)">
     <defs>
      <path id="CMMI12-6e" d="M 1318 1871 
C 1331 1910 1491 2229 1728 2433 
C 1894 2586 2112 2689 2362 2689 
C 2618 2689 2707 2497 2707 2242 
C 2707 1878 2445 1150 2317 805 
C 2259 651 2227 568 2227 453 
C 2227 166 2426 -64 2733 -64 
C 3328 -64 3552 875 3552 913 
C 3552 945 3526 971 3488 971 
C 3430 971 3424 952 3392 843 
C 3245 319 3002 64 2752 64 
C 2688 64 2586 64 2586 269 
C 2586 429 2656 621 2694 710 
C 2822 1063 3091 1780 3091 2145 
C 3091 2528 2867 2816 2381 2816 
C 1811 2816 1510 2415 1395 2255 
C 1376 2618 1114 2816 832 2816 
C 627 2816 486 2695 378 2478 
C 262 2248 173 1865 173 1839 
C 173 1814 198 1782 243 1782 
C 294 1782 301 1788 339 1935 
C 442 2325 557 2689 813 2689 
C 960 2689 1011 2586 1011 2395 
C 1011 2254 947 2005 902 1807 
L 723 1118 
C 698 996 627 709 595 594 
C 550 428 480 128 480 96 
C 480 6 550 -64 646 -64 
C 723 -64 813 -26 864 70 
C 877 102 934 326 966 453 
L 1107 1028 
L 1318 1871 
z
" transform="scale(0.015625)"/>
      <path id="CMMI12-74" d="M 1286 2566 
L 1875 2566 
C 1997 2566 2061 2566 2061 2681 
C 2061 2752 2022 2752 1894 2752 
L 1331 2752 
L 1568 3692 
C 1594 3781 1594 3794 1594 3840 
C 1594 3943 1510 4000 1427 4000 
C 1376 4000 1229 3981 1178 3775 
L 928 2752 
L 326 2752 
C 198 2752 141 2752 141 2630 
C 141 2566 186 2566 307 2566 
L 877 2566 
L 454 881 
C 403 658 384 594 384 511 
C 384 211 595 -64 954 -64 
C 1600 -64 1946 868 1946 912 
C 1946 951 1920 970 1882 970 
C 1869 970 1843 970 1830 944 
C 1824 938 1818 931 1773 829 
C 1638 511 1344 64 973 64 
C 781 64 768 224 768 364 
C 768 370 768 492 787 568 
L 1286 2566 
z
" transform="scale(0.015625)"/>
      <path id="CMR17-3d" d="M 4115 2017 
C 4211 2017 4307 2017 4307 2125 
C 4307 2240 4198 2240 4090 2240 
L 512 2240 
C 403 2240 294 2240 294 2125 
C 294 2017 390 2017 486 2017 
L 4115 2017 
z
M 4090 896 
C 4198 896 4307 896 4307 1011 
C 4307 1119 4211 1119 4115 1119 
L 486 1119 
C 390 1119 294 1119 294 1011 
C 294 896 403 896 512 896 
L 4090 896 
z
" transform="scale(0.015625)"/>
      <path id="CMMI12-42" d="M 2342 3921 
C 2400 4160 2426 4160 2675 4160 
L 3507 4160 
C 4230 4160 4230 3544 4230 3485 
C 4230 2966 3712 2304 2867 2304 
L 1946 2304 
L 2342 3921 
z
M 3424 2275 
C 4122 2402 4755 2886 4755 3473 
C 4755 3970 4314 4352 3590 4352 
L 1536 4352 
C 1414 4352 1357 4352 1357 4226 
C 1357 4160 1414 4160 1510 4160 
C 1901 4160 1901 4112 1901 4044 
C 1901 4032 1901 3993 1875 3897 
L 1011 472 
C 954 249 941 185 493 185 
C 371 185 307 185 307 70 
C 307 0 346 0 474 0 
L 2669 0 
C 3648 0 4403 739 4403 1383 
C 4403 1906 3942 2224 3424 2275 
z
M 2515 185 
L 1651 185 
C 1562 185 1549 185 1510 192 
C 1440 198 1434 211 1434 261 
C 1434 305 1446 343 1459 399 
L 1907 2176 
L 3110 2176 
C 3866 2176 3866 1483 3866 1433 
C 3866 828 3309 185 2515 185 
z
" transform="scale(0.015625)"/>
      <path id="CMMI12-61" d="M 1926 760 
C 1894 651 1894 639 1805 517 
C 1664 338 1382 64 1082 64 
C 819 64 672 300 672 677 
C 672 1028 870 1743 992 2012 
C 1210 2459 1510 2689 1760 2689 
C 2182 2689 2266 2165 2266 2114 
C 2266 2108 2246 2024 2240 2012 
L 1926 760 
z
M 2336 2395 
C 2266 2561 2093 2816 1760 2816 
C 1037 2816 256 1884 256 939 
C 256 307 627 -64 1062 -64 
C 1414 -64 1715 211 1894 422 
C 1958 45 2259 -64 2451 -64 
C 2643 -64 2797 51 2912 281 
C 3014 498 3104 888 3104 913 
C 3104 945 3078 971 3040 971 
C 2982 971 2976 939 2950 843 
C 2854 466 2733 64 2470 64 
C 2285 64 2272 230 2272 358 
C 2272 505 2291 575 2349 824 
C 2394 984 2426 1124 2477 1309 
C 2714 2267 2771 2497 2771 2535 
C 2771 2625 2701 2695 2605 2695 
C 2400 2695 2349 2472 2336 2395 
z
" transform="scale(0.015625)"/>
      <path id="CMMI12-72" d="M 2490 2612 
C 2291 2574 2189 2433 2189 2293 
C 2189 2139 2310 2088 2400 2088 
C 2579 2088 2726 2242 2726 2433 
C 2726 2638 2528 2816 2208 2816 
C 1952 2816 1658 2701 1389 2312 
C 1344 2650 1088 2816 832 2816 
C 582 2816 454 2625 378 2484 
C 269 2254 173 1871 173 1839 
C 173 1814 198 1782 243 1782 
C 294 1782 301 1788 339 1935 
C 435 2318 557 2689 813 2689 
C 966 2689 1011 2580 1011 2395 
C 1011 2254 947 2005 902 1807 
L 723 1118 
C 698 996 627 709 595 594 
C 550 428 480 128 480 96 
C 480 6 550 -64 646 -64 
C 717 -64 838 -19 877 109 
C 896 160 1133 1124 1171 1271 
C 1203 1411 1242 1546 1274 1686 
C 1299 1775 1325 1878 1344 1961 
C 1363 2018 1536 2331 1696 2472 
C 1773 2542 1939 2689 2202 2689 
C 2304 2689 2406 2670 2490 2612 
z
" transform="scale(0.015625)"/>
      <path id="CMMI12-62" d="M 1478 4257 
C 1485 4283 1498 4321 1498 4352 
C 1498 4416 1434 4416 1421 4416 
C 1414 4416 1184 4393 1069 4377 
C 960 4377 864 4358 749 4358 
C 595 4345 550 4339 550 4224 
C 550 4160 614 4160 678 4160 
C 1005 4160 1005 4103 1005 4040 
C 1005 3996 954 3811 928 3696 
L 774 3085 
C 710 2831 346 1387 320 1272 
C 288 1114 288 1005 288 922 
C 288 274 653 -64 1069 -64 
C 1811 -64 2579 888 2579 1814 
C 2579 2401 2246 2816 1766 2816 
C 1434 2816 1133 2542 1011 2414 
L 1478 4257 
z
M 1075 64 
C 870 64 646 217 646 715 
C 646 926 666 1047 781 1494 
C 800 1577 902 1986 928 2069 
C 941 2120 1318 2689 1754 2689 
C 2035 2689 2163 2408 2163 2076 
C 2163 1769 1984 1047 1824 715 
C 1664 370 1370 64 1075 64 
z
" transform="scale(0.015625)"/>
      <path id="CMMI12-73" d="M 1459 1280 
C 1568 1261 1741 1223 1779 1216 
C 1862 1192 2150 1090 2150 783 
C 2150 586 1971 70 1229 70 
C 1094 70 614 70 486 436 
C 742 404 870 603 870 745 
C 870 880 781 950 653 950 
C 512 950 326 841 326 552 
C 326 173 710 -64 1222 -64 
C 2195 -64 2483 651 2483 984 
C 2483 1079 2483 1258 2278 1462 
C 2118 1616 1965 1648 1619 1718 
C 1446 1756 1171 1814 1171 2101 
C 1171 2229 1286 2689 1894 2689 
C 2163 2689 2426 2589 2490 2368 
C 2208 2368 2195 2125 2195 2119 
C 2195 1984 2317 1946 2374 1946 
C 2464 1946 2643 2015 2643 2281 
C 2643 2545 2400 2816 1901 2816 
C 1062 2816 838 2160 838 1899 
C 838 1414 1312 1312 1459 1280 
z
" transform="scale(0.015625)"/>
      <path id="CMMI12-69" d="M 1811 913 
C 1811 945 1786 971 1747 971 
C 1690 971 1683 952 1651 843 
C 1485 262 1222 64 1011 64 
C 934 64 845 83 845 275 
C 845 447 922 639 992 830 
L 1440 2018 
C 1459 2069 1504 2184 1504 2305 
C 1504 2574 1312 2816 998 2816 
C 410 2816 173 1890 173 1839 
C 173 1814 198 1782 243 1782 
C 301 1782 307 1807 333 1896 
C 486 2428 730 2682 979 2682 
C 1037 2682 1146 2682 1146 2478 
C 1146 2312 1062 2101 1011 1961 
L 563 773 
C 525 671 486 568 486 453 
C 486 166 685 -64 992 -64 
C 1581 -64 1811 869 1811 913 
z
M 1760 4013 
C 1760 4109 1683 4224 1542 4224 
C 1395 4224 1229 4083 1229 3917 
C 1229 3758 1363 3707 1440 3707 
C 1613 3707 1760 3873 1760 4013 
z
" transform="scale(0.015625)"/>
      <path id="CMMI12-64" d="M 3219 4257 
C 3226 4282 3238 4320 3238 4352 
C 3238 4416 3174 4416 3162 4416 
C 3155 4416 2842 4388 2810 4380 
C 2701 4373 2605 4358 2490 4358 
C 2330 4345 2285 4339 2285 4224 
C 2285 4160 2336 4160 2426 4160 
C 2739 4160 2746 4103 2746 4040 
C 2746 4002 2733 3952 2726 3933 
L 2336 2395 
C 2266 2561 2093 2816 1760 2816 
C 1037 2816 256 1884 256 939 
C 256 307 627 -64 1062 -64 
C 1414 -64 1715 211 1894 422 
C 1958 45 2259 -64 2451 -64 
C 2643 -64 2797 51 2912 281 
C 3014 498 3104 888 3104 913 
C 3104 945 3078 971 3040 971 
C 2982 971 2976 939 2950 843 
C 2854 466 2733 64 2470 64 
C 2285 64 2272 229 2272 357 
C 2272 382 2272 515 2317 694 
L 3219 4257 
z
M 1926 760 
C 1894 651 1894 639 1805 517 
C 1664 338 1382 64 1082 64 
C 819 64 672 300 672 677 
C 672 1028 870 1743 992 2012 
C 1210 2459 1510 2689 1760 2689 
C 2182 2689 2266 2165 2266 2114 
C 2266 2108 2246 2024 2240 2012 
L 1926 760 
z
" transform="scale(0.015625)"/>
      <path id="CMMI12-6f" d="M 2918 1756 
C 2918 2363 2522 2816 1939 2816 
C 1094 2816 262 1897 262 996 
C 262 390 659 -64 1242 -64 
C 2093 -64 2918 856 2918 1756 
z
M 1248 64 
C 928 64 691 319 691 766 
C 691 1060 845 1712 1024 2031 
C 1312 2523 1670 2689 1933 2689 
C 2246 2689 2490 2433 2490 1986 
C 2490 1731 2355 1047 2112 658 
C 1850 230 1498 64 1248 64 
z
" transform="scale(0.015625)"/>
      <path id="CMMI12-63" d="M 2502 2431 
C 2381 2431 2323 2431 2234 2355 
C 2195 2323 2125 2227 2125 2125 
C 2125 1997 2221 1920 2342 1920 
C 2496 1920 2669 2044 2669 2292 
C 2669 2588 2374 2816 1933 2816 
C 1094 2816 256 1903 256 996 
C 256 441 602 -64 1254 -64 
C 2125 -64 2675 622 2675 706 
C 2675 744 2637 776 2611 776 
C 2592 776 2586 770 2528 713 
C 2118 162 1510 64 1267 64 
C 826 64 685 446 685 764 
C 685 988 794 1605 1024 2039 
C 1190 2338 1536 2682 1939 2682 
C 2022 2682 2374 2682 2502 2431 
z
" transform="scale(0.015625)"/>
      <path id="CMR17-25" d="M 4640 959 
C 4640 1698 4275 2240 3846 2240 
C 3411 2240 2970 1736 2970 959 
C 2970 183 3405 -320 3846 -320 
C 4275 -320 4640 215 4640 959 
z
M 3853 -218 
C 3686 -218 3270 -66 3270 959 
C 3270 1991 3686 2138 3853 2138 
C 4205 2138 4525 1634 4525 959 
C 4525 285 4205 -218 3853 -218 
z
M 4083 4577 
C 4128 4647 4134 4653 4134 4685 
C 4134 4761 4077 4800 4026 4800 
C 3962 4800 3936 4756 3891 4706 
C 3520 4190 3008 4134 2746 4134 
C 2106 4134 1715 4494 1594 4607 
C 1510 4682 1389 4800 1171 4800 
C 736 4800 294 4296 294 3519 
C 294 2743 730 2240 1171 2240 
C 1600 2240 1965 2778 1965 3527 
C 1965 3969 1830 4270 1811 4308 
C 2202 4064 2586 4032 2752 4032 
C 3162 4032 3456 4183 3616 4289 
L 3622 4283 
L 858 -84 
C 800 -174 800 -187 800 -206 
C 800 -276 858 -320 915 -320 
C 973 -320 992 -289 1037 -218 
L 4083 4577 
z
M 1178 2342 
C 1011 2342 595 2494 595 3519 
C 595 4551 1011 4698 1178 4698 
C 1530 4698 1850 4194 1850 3519 
C 1850 2845 1530 2342 1178 2342 
z
" transform="scale(0.015625)"/>
      <path id="CMMI12-6c" d="M 1626 4257 
C 1632 4282 1645 4320 1645 4352 
C 1645 4416 1581 4416 1568 4416 
C 1562 4416 1331 4393 1216 4377 
C 1107 4377 1011 4358 896 4358 
C 742 4345 698 4339 698 4224 
C 698 4160 762 4160 826 4160 
C 1152 4160 1152 4102 1152 4039 
C 1152 4014 1152 4001 1120 3887 
L 326 731 
C 307 661 294 610 294 509 
C 294 191 531 -64 858 -64 
C 1069 -64 1210 76 1312 274 
C 1421 483 1510 884 1510 909 
C 1510 941 1485 967 1446 967 
C 1389 967 1382 935 1357 840 
C 1242 401 1126 64 870 64 
C 678 64 678 267 678 357 
C 678 382 678 515 723 694 
L 1626 4257 
z
" transform="scale(0.015625)"/>
     </defs>
     <use xlink:href="#CMMI12-6e" transform="scale(0.996264)"/>
     <use xlink:href="#CMMI12-74" transform="translate(58.230047 0) scale(0.996264)"/>
     <use xlink:href="#CMR17-3d" transform="translate(121.130386 0) scale(0.996264)"/>
     <use xlink:href="#CMMI12-42" transform="translate(220.519183 0) scale(0.996264)"/>
     <use xlink:href="#CMMI12-61" transform="translate(299.654707 0) scale(0.996264)"/>
     <use xlink:href="#CMMI12-72" transform="translate(350.862564 0) scale(0.996264)"/>
     <use xlink:href="#CMMI12-61" transform="translate(397.533176 0) scale(0.996264)"/>
     <use xlink:href="#CMMI12-62" transform="translate(448.741034 0) scale(0.996264)"/>
     <use xlink:href="#CMMI12-73" transform="translate(490.216908 0) scale(0.996264)"/>
     <use xlink:href="#CMMI12-69" transform="translate(536.166956 0) scale(0.996264)"/>
     <use xlink:href="#CMMI12-64" transform="translate(600.67467 0) scale(0.996264)"/>
     <use xlink:href="#CMR17-3d" transform="translate(679.037776 0) scale(0.996264)"/>
     <use xlink:href="#CMR17-31" transform="translate(778.426573 0) scale(0.996264)"/>
     <use xlink:href="#CMR17-30" transform="translate(824.11705 0) scale(0.996264)"/>
     <use xlink:href="#CMR17-30" transform="translate(869.807527 0) scale(0.996264)"/>
     <use xlink:href="#CMMI12-6f" transform="translate(946.727117 0) scale(0.996264)"/>
     <use xlink:href="#CMMI12-63" transform="translate(993.622427 0) scale(0.996264)"/>
     <use xlink:href="#CMR17-3d" transform="translate(1063.279669 0) scale(0.996264)"/>
     <use xlink:href="#CMR17-31" transform="translate(1162.668466 0) scale(0.996264)"/>
     <use xlink:href="#CMR17-25" transform="translate(1208.358943 0) scale(0.996264)"/>
     <use xlink:href="#CMMI12-6c" transform="translate(1316.507646 0) scale(0.996264)"/>
     <use xlink:href="#CMR17-3d" transform="translate(1375.430058 0) scale(0.996264)"/>
     <use xlink:href="#CMMI12-63" transform="translate(1474.818856 0) scale(0.996264)"/>
     <use xlink:href="#CMMI12-6f" transform="translate(1516.802089 0) scale(0.996264)"/>
     <use xlink:href="#CMMI12-73" transform="translate(1563.697399 0) scale(0.996264)"/>
     <use xlink:href="#CMMI12-74" transform="translate(1609.647446 0) scale(0.996264)"/>
     <use xlink:href="#CMMI12-61" transform="translate(1644.873777 0) scale(0.996264)"/>
     <use xlink:href="#CMMI12-6e" transform="translate(1696.081634 0) scale(0.996264)"/>
     <use xlink:href="#CMMI12-74" transform="translate(1754.311682 0) scale(0.996264)"/>
    </g>
   </g>
  </g>
  <g id="axes_2">
   <g id="matplotlib.axis_3">
    <g id="ytick_7">
     <g id="line2d_22">
      <defs>
       <path id="m573d743d51" d="M 0 0 
L 3.5 0 
" style="stroke: #000000; stroke-width: 0.8"/>
      </defs>
      <g>
       <use xlink:href="#m573d743d51" x="648" y="320.4" style="stroke: #000000; stroke-width: 0.8"/>
      </g>
     </g>
     <g id="text_17">
      <!-- $\mathdefault{0}$ -->
      <g transform="translate(655 325.415904) scale(0.145 -0.145)">
       <use xlink:href="#CMR17-30" transform="scale(0.996264)"/>
      </g>
     </g>
    </g>
    <g id="ytick_8">
     <g id="line2d_23">
      <g>
       <use xlink:href="#m573d743d51" x="648" y="264.987706" style="stroke: #000000; stroke-width: 0.8"/>
      </g>
     </g>
     <g id="text_18">
      <!-- $\mathdefault{20}$ -->
      <g transform="translate(655 270.00361) scale(0.145 -0.145)">
       <use xlink:href="#CMR17-32" transform="scale(0.996264)"/>
       <use xlink:href="#CMR17-30" transform="translate(45.690477 0) scale(0.996264)"/>
      </g>
     </g>
    </g>
    <g id="ytick_9">
     <g id="line2d_24">
      <g>
       <use xlink:href="#m573d743d51" x="648" y="209.575412" style="stroke: #000000; stroke-width: 0.8"/>
      </g>
     </g>
     <g id="text_19">
      <!-- $\mathdefault{40}$ -->
      <g transform="translate(655 214.591316) scale(0.145 -0.145)">
       <use xlink:href="#CMR17-34" transform="scale(0.996264)"/>
       <use xlink:href="#CMR17-30" transform="translate(45.690477 0) scale(0.996264)"/>
      </g>
     </g>
    </g>
    <g id="ytick_10">
     <g id="line2d_25">
      <g>
       <use xlink:href="#m573d743d51" x="648" y="154.163118" style="stroke: #000000; stroke-width: 0.8"/>
      </g>
     </g>
     <g id="text_20">
      <!-- $\mathdefault{60}$ -->
      <g transform="translate(655 159.179023) scale(0.145 -0.145)">
       <use xlink:href="#CMR17-36" transform="scale(0.996264)"/>
       <use xlink:href="#CMR17-30" transform="translate(45.690477 0) scale(0.996264)"/>
      </g>
     </g>
    </g>
    <g id="ytick_11">
     <g id="line2d_26">
      <g>
       <use xlink:href="#m573d743d51" x="648" y="98.750825" style="stroke: #000000; stroke-width: 0.8"/>
      </g>
     </g>
     <g id="text_21">
      <!-- $\mathdefault{80}$ -->
      <g transform="translate(655 103.766729) scale(0.145 -0.145)">
       <use xlink:href="#CMR17-38" transform="scale(0.996264)"/>
       <use xlink:href="#CMR17-30" transform="translate(45.690477 0) scale(0.996264)"/>
      </g>
     </g>
    </g>
    <g id="ytick_12">
     <g id="line2d_27">
      <g>
       <use xlink:href="#m573d743d51" x="648" y="43.338531" style="stroke: #000000; stroke-width: 0.8"/>
      </g>
     </g>
     <g id="text_22">
      <!-- $\mathdefault{100}$ -->
      <g transform="translate(655 48.354435) scale(0.145 -0.145)">
       <use xlink:href="#CMR17-31" transform="scale(0.996264)"/>
       <use xlink:href="#CMR17-30" transform="translate(45.690477 0) scale(0.996264)"/>
       <use xlink:href="#CMR17-30" transform="translate(91.380954 0) scale(0.996264)"/>
      </g>
     </g>
    </g>
    <g id="text_23">
     <!-- CPU load in \% -->
     <g transform="translate(690.248875 226.102524) rotate(-90) scale(0.145 -0.145)">
      <defs>
       <path id="CMSS17-43" d="M 3501 714 
C 3072 427 2874 344 2355 344 
C 1459 344 934 1303 934 2179 
C 934 3112 1472 4032 2381 4032 
C 2790 4032 3059 3918 3386 3715 
L 3475 4217 
C 3168 4370 2778 4440 2387 4440 
C 1158 4440 397 3316 397 2179 
C 397 927 1299 -64 2323 -64 
C 2874 -64 3066 -19 3539 280 
L 3501 714 
z
" transform="scale(0.015625)"/>
       <path id="CMSS17-50" d="M 2106 1856 
C 2874 1856 3501 2453 3501 3158 
C 3501 3850 2899 4453 2067 4453 
L 570 4453 
L 570 0 
L 1107 0 
L 1107 1856 
L 2106 1856 
z
M 1926 4096 
C 2669 4096 2995 3627 2995 3157 
C 2995 2720 2694 2226 1926 2226 
L 1094 2226 
L 1094 4096 
L 1926 4096 
z
" transform="scale(0.015625)"/>
       <path id="CMSS17-55" d="M 3552 4384 
L 3066 4384 
L 3066 1449 
C 3066 604 2547 229 2074 229 
C 1587 229 1101 623 1101 1443 
L 1101 4384 
L 563 4384 
L 563 1454 
C 563 539 1274 -128 2067 -128 
C 2861 -128 3552 539 3552 1454 
L 3552 4384 
z
" transform="scale(0.015625)"/>
       <path id="CMSS17-6c" d="M 947 4416 
L 474 4416 
L 474 0 
L 947 0 
L 947 4416 
z
" transform="scale(0.015625)"/>
       <path id="CMSS17-61" d="M 2406 1791 
C 2406 2392 1978 2808 1402 2808 
C 1120 2808 813 2757 461 2553 
L 499 2135 
C 659 2248 934 2432 1395 2432 
C 1722 2432 1920 2180 1920 1782 
L 1920 1536 
C 896 1536 256 1238 256 726 
C 256 461 416 -64 947 -64 
C 1043 -64 1562 -64 1933 217 
L 1933 -19 
L 2406 -19 
L 2406 1791 
z
M 1920 816 
C 1920 701 1920 548 1728 434 
C 1562 325 1350 325 1261 325 
C 941 325 723 511 723 744 
C 723 1211 1722 1211 1920 1211 
L 1920 816 
z
" transform="scale(0.015625)"/>
       <path id="CMSS17-64" d="M 2611 4416 
L 2138 4416 
L 2138 2438 
C 1939 2603 1613 2756 1254 2756 
C 672 2756 211 2131 211 1347 
C 211 562 666 -64 1235 -64 
C 1677 -64 1971 172 2125 306 
L 2125 -13 
L 2611 -13 
L 2611 4416 
z
M 2125 836 
C 2125 747 2125 653 1926 482 
C 1798 375 1645 325 1498 325 
C 1152 325 698 576 698 1340 
C 698 2134 1210 2368 1562 2368 
C 1798 2368 1990 2254 2125 2065 
L 2125 836 
z
" transform="scale(0.015625)"/>
       <path id="CMSS17-6e" d="M 2618 1877 
C 2618 2283 2522 2816 1798 2816 
C 1389 2816 1120 2606 941 2389 
L 941 2758 
L 474 2758 
L 474 0 
L 960 0 
L 960 1559 
C 960 1964 1114 2428 1549 2428 
C 2112 2428 2131 2048 2131 1829 
L 2131 0 
L 2618 0 
L 2618 1877 
z
" transform="scale(0.015625)"/>
       <path id="CMSS17-25" d="M 3923 4583 
C 3962 4647 3962 4679 3962 4685 
C 3962 4755 3904 4800 3853 4800 
C 3782 4800 3750 4749 3718 4685 
L 1101 -104 
C 1088 -129 1062 -167 1062 -206 
C 1062 -276 1120 -320 1178 -320 
C 1235 -320 1248 -295 1299 -206 
L 3923 4583 
z
M 4678 959 
C 4678 1698 4282 2240 3846 2240 
C 3418 2240 3008 1711 3008 959 
C 3008 208 3418 -320 3846 -320 
C 4288 -320 4678 221 4678 959 
z
M 3846 68 
C 3712 68 3494 189 3494 959 
C 3494 1724 3712 1851 3846 1851 
C 4083 1851 4211 1386 4211 959 
C 4211 533 4083 68 3846 68 
z
M 2003 3519 
C 2003 4258 1606 4800 1171 4800 
C 742 4800 333 4271 333 3519 
C 333 2768 742 2240 1171 2240 
C 1613 2240 2003 2781 2003 3519 
z
M 1171 2628 
C 1037 2628 819 2749 819 3519 
C 819 4284 1037 4411 1171 4411 
C 1408 4411 1536 3946 1536 3519 
C 1536 3093 1408 2628 1171 2628 
z
" transform="scale(0.015625)"/>
      </defs>
      <use xlink:href="#CMSS17-43" transform="scale(0.996264)"/>
      <use xlink:href="#CMSS17-50" transform="translate(59.855772 0) scale(0.996264)"/>
      <use xlink:href="#CMSS17-55" transform="translate(119.591358 0) scale(0.996264)"/>
      <use xlink:href="#CMSS17-6c" transform="translate(214.960211 0) scale(0.996264)"/>
      <use xlink:href="#CMSS17-6f" transform="translate(237.140934 0) scale(0.996264)"/>
      <use xlink:href="#CMSS17-61" transform="translate(283.984557 0) scale(0.996264)"/>
      <use xlink:href="#CMSS17-64" transform="translate(328.906478 0) scale(0.996264)"/>
      <use xlink:href="#CMSS17-69" transform="translate(408.340534 0) scale(0.996264)"/>
      <use xlink:href="#CMSS17-6e" transform="translate(430.521257 0) scale(0.996264)"/>
      <use xlink:href="#CMSS17-25" transform="translate(509.955313 0) scale(0.996264)"/>
     </g>
    </g>
   </g>
   <g id="line2d_28">
    <path d="M 115.363636 112.603898 
L 622.636364 112.603898 
L 622.636364 112.603898 
" clip-path="url(#p74b489011a)" style="fill: none; stroke-dasharray: 5.55,2.4; stroke-dashoffset: 0; stroke: #140e36; stroke-width: 1.5"/>
   </g>
   <g id="patch_6">
    <path d="M 90 320.4 
L 90 43.2 
" style="fill: none; stroke: #000000; stroke-width: 0.8; stroke-linejoin: miter; stroke-linecap: square"/>
   </g>
   <g id="patch_7">
    <path d="M 648 320.4 
L 648 43.2 
" style="fill: none; stroke: #000000; stroke-width: 0.8; stroke-linejoin: miter; stroke-linecap: square"/>
   </g>
   <g id="patch_8">
    <path d="M 90 320.4 
L 648 320.4 
" style="fill: none; stroke: #000000; stroke-width: 0.8; stroke-linejoin: miter; stroke-linecap: square"/>
   </g>
   <g id="patch_9">
    <path d="M 90 43.2 
L 648 43.2 
" style="fill: none; stroke: #000000; stroke-width: 0.8; stroke-linejoin: miter; stroke-linecap: square"/>
   </g>
   <g id="legend_1">
    <g id="patch_10">
     <path d="M 481.7533 313.15 
L 637.85 313.15 
Q 640.75 313.15 640.75 310.25 
L 640.75 246.612516 
Q 640.75 243.712516 637.85 243.712516 
L 481.7533 243.712516 
Q 478.8533 243.712516 478.8533 246.612516 
L 478.8533 310.25 
Q 478.8533 313.15 481.7533 313.15 
z
" style="fill: #ffffff; opacity: 0.7; stroke: #cccccc; stroke-linejoin: miter"/>
    </g>
    <g id="line2d_29">
     <path d="M 484.6533 255.271887 
L 499.1533 255.271887 
L 513.6533 255.271887 
" style="fill: none; stroke: #482475; stroke-width: 2.5; stroke-linecap: square"/>
    </g>
    <g id="text_24">
     <!-- QoS [static] -->
     <g transform="translate(525.2533 260.346887) scale(0.145 -0.145)">
      <defs>
       <path id="CMSS17-5b" d="M 1613 -1600 
L 1613 -1212 
L 1062 -1212 
L 1062 4352 
L 1613 4352 
L 1613 4741 
L 595 4741 
L 595 -1600 
L 1613 -1600 
z
" transform="scale(0.015625)"/>
       <path id="CMSS17-63" d="M 2464 2541 
C 2464 2585 2170 2714 2093 2739 
C 1882 2816 1613 2816 1542 2816 
C 710 2816 211 2093 211 1363 
C 211 595 768 -64 1517 -64 
C 1946 -64 2253 76 2502 242 
L 2464 664 
C 2189 453 1869 337 1523 337 
C 1024 337 698 774 698 1369 
C 698 1831 909 2414 1549 2414 
C 1901 2414 2099 2343 2394 2145 
L 2464 2541 
z
" transform="scale(0.015625)"/>
       <path id="CMSS17-5d" d="M 1146 4741 
L 128 4741 
L 128 4352 
L 678 4352 
L 678 -1212 
L 128 -1212 
L 128 -1600 
L 1146 -1600 
L 1146 4741 
z
" transform="scale(0.015625)"/>
      </defs>
      <use xlink:href="#CMSS17-51" transform="scale(0.996264)"/>
      <use xlink:href="#CMSS17-6f" transform="translate(69.024255 0) scale(0.996264)"/>
      <use xlink:href="#CMSS17-53" transform="translate(115.867879 0) scale(0.996264)"/>
      <use xlink:href="#CMSS17-5b" transform="translate(199.145508 0) scale(0.996264)"/>
      <use xlink:href="#CMSS17-73" transform="translate(226.330946 0) scale(0.996264)"/>
      <use xlink:href="#CMSS17-74" transform="translate(262.244488 0) scale(0.996264)"/>
      <use xlink:href="#CMSS17-61" transform="translate(296.076055 0) scale(0.996264)"/>
      <use xlink:href="#CMSS17-74" transform="translate(340.997976 0) scale(0.996264)"/>
      <use xlink:href="#CMSS17-69" transform="translate(374.829542 0) scale(0.996264)"/>
      <use xlink:href="#CMSS17-63" transform="translate(397.010265 0) scale(0.996264)"/>
      <use xlink:href="#CMSS17-5d" transform="translate(438.649088 0) scale(0.996264)"/>
     </g>
    </g>
    <g id="line2d_30">
     <path d="M 484.6533 276.967715 
L 499.1533 276.967715 
L 513.6533 276.967715 
" style="fill: none; stroke: #bddf26; stroke-width: 2.5; stroke-linecap: square"/>
    </g>
    <g id="text_25">
     <!-- QoS [dynamic] -->
     <g transform="translate(525.2533 282.042715) scale(0.145 -0.145)">
      <defs>
       <path id="CMSS17-79" d="M 2675 2752 
L 2176 2752 
C 1632 1294 1446 702 1434 383 
L 1427 383 
C 1408 696 1126 1460 902 2007 
L 602 2752 
L 83 2752 
L 1216 13 
C 1146 -178 1043 -465 1011 -529 
C 870 -885 774 -885 672 -885 
C 646 -885 442 -885 211 -809 
L 250 -1229 
C 410 -1261 570 -1280 685 -1280 
C 845 -1280 1165 -1280 1459 -497 
L 2675 2752 
z
" transform="scale(0.015625)"/>
      </defs>
      <use xlink:href="#CMSS17-51" transform="scale(0.996264)"/>
      <use xlink:href="#CMSS17-6f" transform="translate(69.024255 0) scale(0.996264)"/>
      <use xlink:href="#CMSS17-53" transform="translate(115.867879 0) scale(0.996264)"/>
      <use xlink:href="#CMSS17-5b" transform="translate(199.145508 0) scale(0.996264)"/>
      <use xlink:href="#CMSS17-64" transform="translate(226.330946 0) scale(0.996264)"/>
      <use xlink:href="#CMSS17-79" transform="translate(274.53589 0) scale(0.996264)"/>
      <use xlink:href="#CMSS17-6e" transform="translate(317.536031 0) scale(0.996264)"/>
      <use xlink:href="#CMSS17-61" transform="translate(365.740974 0) scale(0.996264)"/>
      <use xlink:href="#CMSS17-6d" transform="translate(410.662895 0) scale(0.996264)"/>
      <use xlink:href="#CMSS17-69" transform="translate(484.892149 0) scale(0.996264)"/>
      <use xlink:href="#CMSS17-63" transform="translate(507.072872 0) scale(0.996264)"/>
      <use xlink:href="#CMSS17-5d" transform="translate(548.711695 0) scale(0.996264)"/>
     </g>
    </g>
    <g id="line2d_31">
     <path d="M 484.6533 298.663543 
L 499.1533 298.663543 
L 513.6533 298.663543 
" style="fill: none; stroke-dasharray: 5.55,2.4; stroke-dashoffset: 0; stroke: #140e36; stroke-width: 1.5"/>
    </g>
    <g id="text_26">
     <!-- Load driver (right) -->
     <g transform="translate(525.2533 303.738543) scale(0.145 -0.145)">
      <defs>
       <path id="CMSS17-4c" d="M 1670 414 
C 1594 414 1517 414 1440 414 
L 1101 414 
L 1101 4416 
L 563 4416 
L 563 0 
L 3002 0 
L 3002 414 
L 1670 414 
z
" transform="scale(0.015625)"/>
       <path id="CMSS17-72" d="M 954 1363 
C 954 1965 1395 2368 1958 2368 
L 1958 2789 
C 1549 2789 1165 2585 934 2253 
L 934 2758 
L 480 2758 
L 480 0 
L 954 0 
L 954 1363 
z
" transform="scale(0.015625)"/>
       <path id="CMSS17-76" d="M 2675 2752 
L 2176 2752 
L 1747 1556 
C 1613 1165 1421 627 1389 352 
L 1382 352 
C 1370 468 1318 634 1286 749 
C 1248 890 1197 1056 1158 1172 
L 595 2752 
L 83 2752 
L 1094 0 
L 1664 0 
L 2675 2752 
z
" transform="scale(0.015625)"/>
       <path id="CMSS17-67" d="M 2848 2808 
C 2483 2808 2170 2738 1914 2617 
C 1702 2777 1485 2808 1338 2808 
C 781 2808 358 2349 358 1814 
C 358 1468 550 1207 563 1195 
C 448 1035 384 863 384 672 
C 384 448 474 289 544 200 
C 211 -3 166 -314 166 -435 
C 166 -898 749 -1280 1498 -1280 
C 2253 -1280 2835 -898 2835 -428 
C 2835 448 1856 448 1587 448 
L 1069 448 
C 973 448 717 448 717 791 
C 717 921 774 1004 781 1010 
C 877 940 1075 832 1338 832 
C 1869 832 2310 1278 2310 1827 
C 2310 2132 2170 2355 2112 2432 
L 2131 2432 
C 2150 2432 2419 2432 2515 2432 
C 2720 2432 2739 2429 2918 2419 
L 2848 2808 
z
M 1338 1182 
C 1120 1182 813 1315 813 1823 
C 813 2375 1165 2464 1331 2464 
C 1549 2464 1856 2331 1856 1823 
C 1856 1271 1504 1182 1338 1182 
z
M 1581 -10 
C 1734 -10 2381 -10 2381 -442 
C 2381 -714 1984 -929 1504 -929 
C 1018 -929 621 -720 621 -435 
C 621 -403 621 -10 1062 -10 
L 1581 -10 
z
" transform="scale(0.015625)"/>
       <path id="CMSS17-68" d="M 2618 1891 
C 2618 2292 2522 2820 1798 2820 
C 1395 2820 1133 2623 947 2407 
L 947 4448 
L 474 4448 
L 474 32 
L 960 32 
L 960 1573 
C 960 1973 1114 2432 1549 2432 
C 2112 2432 2131 2056 2131 1839 
L 2131 32 
L 2618 32 
L 2618 1891 
z
" transform="scale(0.015625)"/>
      </defs>
      <use xlink:href="#CMSS17-4c" transform="scale(0.996264)"/>
      <use xlink:href="#CMSS17-6f" transform="translate(50.687105 0) scale(0.996264)"/>
      <use xlink:href="#CMSS17-61" transform="translate(97.530729 0) scale(0.996264)"/>
      <use xlink:href="#CMSS17-64" transform="translate(142.452649 0) scale(0.996264)"/>
      <use xlink:href="#CMSS17-64" transform="translate(221.886705 0) scale(0.996264)"/>
      <use xlink:href="#CMSS17-72" transform="translate(270.091649 0) scale(0.996264)"/>
      <use xlink:href="#CMSS17-69" transform="translate(302.001421 0) scale(0.996264)"/>
      <use xlink:href="#CMSS17-76" transform="translate(324.182144 0) scale(0.996264)"/>
      <use xlink:href="#CMSS17-65" transform="translate(367.182286 0) scale(0.996264)"/>
      <use xlink:href="#CMSS17-72" transform="translate(408.821108 0) scale(0.996264)"/>
      <use xlink:href="#CMSS17-28" transform="translate(471.959993 0) scale(0.996264)"/>
      <use xlink:href="#CMSS17-72" transform="translate(508.393907 0) scale(0.996264)"/>
      <use xlink:href="#CMSS17-69" transform="translate(540.30368 0) scale(0.996264)"/>
      <use xlink:href="#CMSS17-67" transform="translate(562.484403 0) scale(0.996264)"/>
      <use xlink:href="#CMSS17-68" transform="translate(609.328026 0) scale(0.996264)"/>
      <use xlink:href="#CMSS17-74" transform="translate(657.53297 0) scale(0.996264)"/>
      <use xlink:href="#CMSS17-29" transform="translate(691.364536 0) scale(0.996264)"/>
     </g>
    </g>
   </g>
  </g>
 </g>
 <defs>
  <clipPath id="p74b489011a">
   <rect x="90" y="43.2" width="558" height="277.2"/>
  </clipPath>
 </defs>
</svg>
