<?xml version="1.0" encoding="utf-8" standalone="no"?>
<!DOCTYPE svg PUBLIC "-//W3C//DTD SVG 1.1//EN"
  "http://www.w3.org/Graphics/SVG/1.1/DTD/svg11.dtd">
<svg xmlns:xlink="http://www.w3.org/1999/xlink" width="614.314497pt" height="291.294705pt" viewBox="0 0 614.314497 291.294705" xmlns="http://www.w3.org/2000/svg" version="1.1">
 <metadata>
  <rdf:RDF xmlns:dc="http://purl.org/dc/elements/1.1/" xmlns:cc="http://creativecommons.org/ns#" xmlns:rdf="http://www.w3.org/1999/02/22-rdf-syntax-ns#">
   <cc:Work>
    <dc:type rdf:resource="http://purl.org/dc/dcmitype/StillImage"/>
    <dc:date>2024-03-20T17:30:33.694476</dc:date>
    <dc:format>image/svg+xml</dc:format>
    <dc:creator>
     <cc:Agent>
      <dc:title>Matplotlib v3.8.0, https://matplotlib.org/</dc:title>
     </cc:Agent>
    </dc:creator>
   </cc:Work>
  </rdf:RDF>
 </metadata>
 <defs>
  <style type="text/css">*{stroke-linejoin: round; stroke-linecap: butt}</style>
 </defs>
 <g id="figure_1">
  <g id="patch_1">
   <path d="M 0 291.294705 
L 614.314497 291.294705 
L 614.314497 0 
L 0 0 
z
" style="fill: #ffffff"/>
  </g>
  <g id="axes_1">
   <g id="patch_2">
    <path d="M 49.114497 247.4133 
L 607.114497 247.4133 
L 607.114497 25.6533 
L 49.114497 25.6533 
z
" style="fill: #ffffff"/>
   </g>
   <g id="PolyCollection_1">
    <defs>
     <path id="m13f3e433f2" d="M 74.478133 -139.568616 
L 74.478133 -146.984292 
L 75.891149 -146.984292 
L 77.304165 -146.984292 
L 78.717181 -146.898857 
L 80.130197 -146.898857 
L 81.543213 -146.898857 
L 82.956229 -146.898857 
L 84.369245 -146.898857 
L 85.782261 -146.898857 
L 87.195277 -146.902273 
L 88.608293 -146.902273 
L 90.021309 -146.902273 
L 91.434324 -146.902273 
L 92.84734 -146.902273 
L 94.260356 -146.902273 
L 95.673372 -146.902273 
L 97.086388 -146.902273 
L 98.499404 -146.902273 
L 99.91242 -146.902273 
L 101.325436 -146.902273 
L 102.738452 -146.902273 
L 104.151468 -146.902273 
L 105.564484 -146.902273 
L 106.9775 -146.902273 
L 108.390516 -146.902273 
L 109.803532 -129.503065 
L 111.216548 -129.503065 
L 112.629564 -129.503065 
L 114.04258 -129.503065 
L 115.455596 -129.503065 
L 116.868612 -124.137976 
L 118.281628 -124.137976 
L 119.694644 -124.137976 
L 121.107659 -124.137976 
L 122.520675 -124.137976 
L 123.933691 -124.137976 
L 125.346707 -124.413368 
L 126.759723 -124.413368 
L 128.172739 -124.413368 
L 129.585755 -124.413368 
L 130.998771 -124.413368 
L 132.411787 -124.429867 
L 133.824803 -124.429867 
L 135.237819 -124.429867 
L 136.650835 -124.429867 
L 138.063851 -124.429867 
L 139.476867 -124.429867 
L 140.889883 -124.429867 
L 142.302899 -124.429867 
L 143.715915 -124.429867 
L 145.128931 -124.429867 
L 146.541947 -124.429867 
L 147.954963 -124.429867 
L 149.367979 -124.429867 
L 150.780995 -124.429867 
L 152.19401 -124.429867 
L 153.607026 -124.429867 
L 155.020042 -124.429867 
L 156.433058 -124.374024 
L 157.846074 -124.374024 
L 159.25909 -124.374024 
L 160.672106 -124.374024 
L 162.085122 -124.374024 
L 163.498138 -124.374024 
L 164.911154 -124.374024 
L 166.32417 -124.374024 
L 167.737186 -124.374024 
L 169.150202 -124.374024 
L 170.563218 -124.619792 
L 171.976234 -124.619792 
L 173.38925 -124.619792 
L 174.802266 -124.619792 
L 176.215282 -124.619792 
L 177.628298 -124.619792 
L 179.041314 -124.429867 
L 180.45433 -124.429867 
L 181.867345 -124.429867 
L 183.280361 -124.429867 
L 184.693377 -124.429867 
L 186.106393 -110.512696 
L 187.519409 -110.512696 
L 188.932425 -110.512696 
L 190.345441 -110.512696 
L 191.758457 -110.512696 
L 193.171473 -110.512696 
L 194.584489 -99.70725 
L 195.997505 -99.70725 
L 197.410521 -99.70725 
L 198.823537 -99.70725 
L 200.236553 -99.70725 
L 201.649569 -98.729797 
L 203.062585 -98.729797 
L 204.475601 -98.729797 
L 205.888617 -98.729797 
L 207.301633 -98.729797 
L 208.714649 -98.729797 
L 210.127665 -99.158 
L 211.540681 -99.158 
L 212.953696 -99.158 
L 214.366712 -99.158 
L 215.779728 -99.158 
L 217.192744 -98.854378 
L 218.60576 -98.854378 
L 220.018776 -98.854378 
L 221.431792 -98.854378 
L 222.844808 -98.854378 
L 224.257824 -98.854378 
L 225.67084 -98.906977 
L 227.083856 -98.906977 
L 228.496872 -98.906977 
L 229.909888 -98.906977 
L 231.322904 -98.906977 
L 232.73592 -98.906977 
L 234.148936 -98.906977 
L 235.561952 -98.906977 
L 236.974968 -98.906977 
L 238.387984 -98.906977 
L 239.801 -98.906977 
L 241.214016 -98.906977 
L 242.627031 -98.906977 
L 244.040047 -98.906977 
L 245.453063 -98.906977 
L 246.866079 -98.906977 
L 248.279095 -98.906977 
L 249.692111 -98.906977 
L 251.105127 -98.906977 
L 252.518143 -98.906977 
L 253.931159 -98.906977 
L 255.344175 -98.855636 
L 256.757191 -98.855636 
L 258.170207 -98.855636 
L 259.583223 -98.855636 
L 260.996239 -98.855636 
L 262.409255 -98.855636 
L 263.822271 -94.970948 
L 265.235287 -94.970948 
L 266.648303 -94.970948 
L 268.061319 -94.970948 
L 269.474335 -94.970948 
L 270.887351 -76.917596 
L 272.300367 -76.917596 
L 273.713382 -76.917596 
L 275.126398 -76.917596 
L 276.539414 -76.917596 
L 277.95243 -76.917596 
L 279.365446 -74.590458 
L 280.778462 -74.590458 
L 282.191478 -74.590458 
L 283.604494 -74.590458 
L 285.01751 -74.590458 
L 286.430526 -74.076059 
L 287.843542 -74.076059 
L 289.256558 -74.076059 
L 290.669574 -74.076059 
L 292.08259 -74.076059 
L 293.495606 -74.076059 
L 294.908622 -73.798377 
L 296.321638 -73.798377 
L 297.734654 -73.798377 
L 299.14767 -73.798377 
L 300.560686 -73.798377 
L 301.973702 -73.798377 
L 303.386717 -73.798377 
L 304.799733 -73.798377 
L 306.212749 -73.798377 
L 307.625765 -73.798377 
L 309.038781 -73.798377 
L 310.451797 -73.798377 
L 311.864813 -73.798377 
L 313.277829 -73.798377 
L 314.690845 -73.798377 
L 316.103861 -73.798377 
L 317.516877 -73.798377 
L 318.929893 -73.798377 
L 320.342909 -73.798377 
L 321.755925 -73.798377 
L 323.168941 -73.798377 
L 324.581957 -73.67093 
L 325.994973 -73.67093 
L 327.407989 -73.67093 
L 328.821005 -73.67093 
L 330.234021 -73.67093 
L 331.647037 -73.67093 
L 333.060052 -73.873247 
L 334.473068 -73.873247 
L 335.886084 -73.873247 
L 337.2991 -73.873247 
L 338.712116 -73.873247 
L 340.125132 -73.798377 
L 341.538148 -73.798377 
L 342.951164 -73.798377 
L 344.36418 -73.798377 
L 345.777196 -73.798377 
L 347.190212 -73.798377 
L 348.603228 -92.267104 
L 350.016244 -92.267104 
L 351.42926 -92.267104 
L 352.842276 -92.267104 
L 354.255292 -92.267104 
L 355.668308 -95.813061 
L 357.081324 -95.813061 
L 358.49434 -95.813061 
L 359.907356 -95.813061 
L 361.320372 -95.813061 
L 362.733388 -96.34325 
L 364.146403 -96.34325 
L 365.559419 -96.34325 
L 366.972435 -96.34325 
L 368.385451 -96.34325 
L 369.798467 -96.34325 
L 371.211483 -96.473838 
L 372.624499 -96.473838 
L 374.037515 -96.473838 
L 375.450531 -96.473838 
L 376.863547 -96.473838 
L 378.276563 -96.473838 
L 379.689579 -96.473838 
L 381.102595 -96.473838 
L 382.515611 -96.473838 
L 383.928627 -96.473838 
L 385.341643 -96.473838 
L 386.754659 -95.650521 
L 388.167675 -95.650521 
L 389.580691 -95.650521 
L 390.993707 -95.650521 
L 392.406723 -95.650521 
L 393.819738 -96.024585 
L 395.232754 -96.024585 
L 396.64577 -96.024585 
L 398.058786 -96.024585 
L 399.471802 -96.024585 
L 400.884818 -96.024585 
L 402.297834 -96.241068 
L 403.71085 -96.241068 
L 405.123866 -96.241068 
L 406.536882 -96.241068 
L 407.949898 -96.241068 
L 409.362914 -96.149153 
L 410.77593 -96.149153 
L 412.188946 -96.149153 
L 413.601962 -96.149153 
L 415.014978 -96.149153 
L 416.427994 -96.149153 
L 417.84101 -95.981531 
L 419.254026 -95.981531 
L 420.667042 -95.981531 
L 422.080058 -95.981531 
L 423.493074 -95.981531 
L 424.906089 -111.335016 
L 426.319105 -111.335016 
L 427.732121 -111.335016 
L 429.145137 -111.335016 
L 430.558153 -111.335016 
L 431.971169 -117.830382 
L 433.384185 -117.830382 
L 434.797201 -117.830382 
L 436.210217 -117.830382 
L 437.623233 -117.830382 
L 439.036249 -117.830382 
L 440.449265 -118.254644 
L 441.862281 -118.254644 
L 443.275297 -118.254644 
L 444.688313 -118.254644 
L 446.101329 -118.254644 
L 447.514345 -118.262093 
L 448.927361 -118.262093 
L 450.340377 -118.262093 
L 451.753393 -118.262093 
L 453.166409 -118.262093 
L 454.579424 -118.262093 
L 455.99244 -118.262093 
L 457.405456 -118.262093 
L 458.818472 -118.262093 
L 460.231488 -118.262093 
L 461.644504 -118.262093 
L 463.05752 -118.273441 
L 464.470536 -118.273441 
L 465.883552 -118.273441 
L 467.296568 -118.273441 
L 468.709584 -118.273441 
L 470.1226 -118.273441 
L 471.535616 -118.262093 
L 472.948632 -118.262093 
L 474.361648 -118.262093 
L 475.774664 -118.262093 
L 477.18768 -118.262093 
L 478.600696 -118.202294 
L 480.013712 -118.202294 
L 481.426728 -118.202294 
L 482.839744 -118.202294 
L 484.25276 -118.202294 
L 485.665775 -118.202294 
L 487.078791 -118.262093 
L 488.491807 -118.262093 
L 489.904823 -118.262093 
L 491.317839 -118.262093 
L 492.730855 -118.262093 
L 494.143871 -118.137436 
L 495.556887 -118.137436 
L 496.969903 -118.137436 
L 498.382919 -118.137436 
L 499.795935 -118.137436 
L 501.208951 -118.715704 
L 502.621967 -118.715704 
L 504.034983 -118.715704 
L 505.447999 -118.715704 
L 506.861015 -118.715704 
L 508.274031 -118.715704 
L 509.687047 -132.78298 
L 511.100063 -132.78298 
L 512.513079 -132.78298 
L 513.926095 -132.78298 
L 515.33911 -132.78298 
L 516.752126 -134.076132 
L 518.165142 -134.076132 
L 519.578158 -134.076132 
L 520.991174 -134.076132 
L 522.40419 -134.076132 
L 523.817206 -134.076132 
L 525.230222 -134.376235 
L 526.643238 -134.376235 
L 528.056254 -134.376235 
L 529.46927 -134.376235 
L 530.882286 -134.376235 
L 532.295302 -134.376235 
L 533.708318 -134.376235 
L 535.121334 -134.376235 
L 536.53435 -134.376235 
L 537.947366 -134.376235 
L 539.360382 -134.376235 
L 540.773398 -134.376235 
L 542.186414 -134.376235 
L 543.59943 -134.376235 
L 545.012446 -134.376235 
L 546.425461 -134.376235 
L 547.838477 -134.476291 
L 549.251493 -134.476291 
L 550.664509 -134.476291 
L 552.077525 -134.476291 
L 553.490541 -134.476291 
L 554.903557 -134.476291 
L 556.316573 -134.476291 
L 557.729589 -134.476291 
L 559.142605 -134.476291 
L 560.555621 -134.476291 
L 561.968637 -134.476291 
L 563.381653 -134.550732 
L 564.794669 -134.550732 
L 566.207685 -134.550732 
L 567.620701 -134.550732 
L 569.033717 -134.550732 
L 570.446733 -134.102478 
L 571.859749 -134.102478 
L 573.272765 -134.102478 
L 574.685781 -134.102478 
L 576.098796 -134.102478 
L 577.511812 -134.102478 
L 578.924828 -134.549036 
L 580.337844 -134.549036 
L 581.75086 -134.549036 
L 581.75086 -125.579838 
L 581.75086 -125.579838 
L 580.337844 -125.579838 
L 578.924828 -125.579838 
L 577.511812 -125.465787 
L 576.098796 -125.465787 
L 574.685781 -125.465787 
L 573.272765 -125.465787 
L 571.859749 -125.465787 
L 570.446733 -125.465787 
L 569.033717 -125.297837 
L 567.620701 -125.297837 
L 566.207685 -125.297837 
L 564.794669 -125.297837 
L 563.381653 -125.297837 
L 561.968637 -125.559443 
L 560.555621 -125.559443 
L 559.142605 -125.559443 
L 557.729589 -125.559443 
L 556.316573 -125.559443 
L 554.903557 -125.559443 
L 553.490541 -125.559443 
L 552.077525 -125.559443 
L 550.664509 -125.559443 
L 549.251493 -125.559443 
L 547.838477 -125.559443 
L 546.425461 -125.56636 
L 545.012446 -125.56636 
L 543.59943 -125.56636 
L 542.186414 -125.56636 
L 540.773398 -125.56636 
L 539.360382 -125.56636 
L 537.947366 -125.56636 
L 536.53435 -125.56636 
L 535.121334 -125.56636 
L 533.708318 -125.56636 
L 532.295302 -125.56636 
L 530.882286 -125.56636 
L 529.46927 -125.56636 
L 528.056254 -125.56636 
L 526.643238 -125.56636 
L 525.230222 -125.56636 
L 523.817206 -125.398994 
L 522.40419 -125.398994 
L 520.991174 -125.398994 
L 519.578158 -125.398994 
L 518.165142 -125.398994 
L 516.752126 -125.398994 
L 515.33911 -123.890874 
L 513.926095 -123.890874 
L 512.513079 -123.890874 
L 511.100063 -123.890874 
L 509.687047 -123.890874 
L 508.274031 -109.38659 
L 506.861015 -109.38659 
L 505.447999 -109.38659 
L 504.034983 -109.38659 
L 502.621967 -109.38659 
L 501.208951 -109.38659 
L 499.795935 -107.53703 
L 498.382919 -107.53703 
L 496.969903 -107.53703 
L 495.556887 -107.53703 
L 494.143871 -107.53703 
L 492.730855 -107.691791 
L 491.317839 -107.691791 
L 489.904823 -107.691791 
L 488.491807 -107.691791 
L 487.078791 -107.691791 
L 485.665775 -107.658451 
L 484.25276 -107.658451 
L 482.839744 -107.658451 
L 481.426728 -107.658451 
L 480.013712 -107.658451 
L 478.600696 -107.658451 
L 477.18768 -107.691791 
L 475.774664 -107.691791 
L 474.361648 -107.691791 
L 472.948632 -107.691791 
L 471.535616 -107.691791 
L 470.1226 -107.774469 
L 468.709584 -107.774469 
L 467.296568 -107.774469 
L 465.883552 -107.774469 
L 464.470536 -107.774469 
L 463.05752 -107.774469 
L 461.644504 -107.691791 
L 460.231488 -107.691791 
L 458.818472 -107.691791 
L 457.405456 -107.691791 
L 455.99244 -107.691791 
L 454.579424 -107.691791 
L 453.166409 -107.691791 
L 451.753393 -107.691791 
L 450.340377 -107.691791 
L 448.927361 -107.691791 
L 447.514345 -107.691791 
L 446.101329 -107.69924 
L 444.688313 -107.69924 
L 443.275297 -107.69924 
L 441.862281 -107.69924 
L 440.449265 -107.69924 
L 439.036249 -106.908257 
L 437.623233 -106.908257 
L 436.210217 -106.908257 
L 434.797201 -106.908257 
L 433.384185 -106.908257 
L 431.971169 -106.908257 
L 430.558153 -98.001061 
L 429.145137 -98.001061 
L 427.732121 -98.001061 
L 426.319105 -98.001061 
L 424.906089 -98.001061 
L 423.493074 -89.823148 
L 422.080058 -89.823148 
L 420.667042 -89.823148 
L 419.254026 -89.823148 
L 417.84101 -89.823148 
L 416.427994 -89.841805 
L 415.014978 -89.841805 
L 413.601962 -89.841805 
L 412.188946 -89.841805 
L 410.77593 -89.841805 
L 409.362914 -89.841805 
L 407.949898 -89.843916 
L 406.536882 -89.843916 
L 405.123866 -89.843916 
L 403.71085 -89.843916 
L 402.297834 -89.843916 
L 400.884818 -89.873233 
L 399.471802 -89.873233 
L 398.058786 -89.873233 
L 396.64577 -89.873233 
L 395.232754 -89.873233 
L 393.819738 -89.873233 
L 392.406723 -89.873854 
L 390.993707 -89.873854 
L 389.580691 -89.873854 
L 388.167675 -89.873854 
L 386.754659 -89.873854 
L 385.341643 -89.797425 
L 383.928627 -89.797425 
L 382.515611 -89.797425 
L 381.102595 -89.797425 
L 379.689579 -89.797425 
L 378.276563 -89.797425 
L 376.863547 -89.797425 
L 375.450531 -89.797425 
L 374.037515 -89.797425 
L 372.624499 -89.797425 
L 371.211483 -89.797425 
L 369.798467 -89.648595 
L 368.385451 -89.648595 
L 366.972435 -89.648595 
L 365.559419 -89.648595 
L 364.146403 -89.648595 
L 362.733388 -89.648595 
L 361.320372 -89.057565 
L 359.907356 -89.057565 
L 358.49434 -89.057565 
L 357.081324 -89.057565 
L 355.668308 -89.057565 
L 354.255292 -84.759161 
L 352.842276 -84.759161 
L 351.42926 -84.759161 
L 350.016244 -84.759161 
L 348.603228 -84.759161 
L 347.190212 -69.147546 
L 345.777196 -69.147546 
L 344.36418 -69.147546 
L 342.951164 -69.147546 
L 341.538148 -69.147546 
L 340.125132 -69.147546 
L 338.712116 -69.166081 
L 337.2991 -69.166081 
L 335.886084 -69.166081 
L 334.473068 -69.166081 
L 333.060052 -69.166081 
L 331.647037 -69.088271 
L 330.234021 -69.088271 
L 328.821005 -69.088271 
L 327.407989 -69.088271 
L 325.994973 -69.088271 
L 324.581957 -69.088271 
L 323.168941 -69.147546 
L 321.755925 -69.147546 
L 320.342909 -69.147546 
L 318.929893 -69.147546 
L 317.516877 -69.147546 
L 316.103861 -69.147546 
L 314.690845 -69.147546 
L 313.277829 -69.147546 
L 311.864813 -69.147546 
L 310.451797 -69.147546 
L 309.038781 -69.147546 
L 307.625765 -69.147546 
L 306.212749 -69.147546 
L 304.799733 -69.147546 
L 303.386717 -69.147546 
L 301.973702 -69.147546 
L 300.560686 -69.147546 
L 299.14767 -69.147546 
L 297.734654 -69.147546 
L 296.321638 -69.147546 
L 294.908622 -69.147546 
L 293.495606 -69.149991 
L 292.08259 -69.149991 
L 290.669574 -69.149991 
L 289.256558 -69.149991 
L 287.843542 -69.149991 
L 286.430526 -69.149991 
L 285.01751 -69.569467 
L 283.604494 -69.569467 
L 282.191478 -69.569467 
L 280.778462 -69.569467 
L 279.365446 -69.569467 
L 277.95243 -71.070528 
L 276.539414 -71.070528 
L 275.126398 -71.070528 
L 273.713382 -71.070528 
L 272.300367 -71.070528 
L 270.887351 -71.070528 
L 269.474335 -89.618487 
L 268.061319 -89.618487 
L 266.648303 -89.618487 
L 265.235287 -89.618487 
L 263.822271 -89.618487 
L 262.409255 -94.324781 
L 260.996239 -94.324781 
L 259.583223 -94.324781 
L 258.170207 -94.324781 
L 256.757191 -94.324781 
L 255.344175 -94.324781 
L 253.931159 -94.36658 
L 252.518143 -94.36658 
L 251.105127 -94.36658 
L 249.692111 -94.36658 
L 248.279095 -94.36658 
L 246.866079 -94.36658 
L 245.453063 -94.36658 
L 244.040047 -94.36658 
L 242.627031 -94.36658 
L 241.214016 -94.36658 
L 239.801 -94.36658 
L 238.387984 -94.36658 
L 236.974968 -94.36658 
L 235.561952 -94.36658 
L 234.148936 -94.36658 
L 232.73592 -94.36658 
L 231.322904 -94.36658 
L 229.909888 -94.36658 
L 228.496872 -94.36658 
L 227.083856 -94.36658 
L 225.67084 -94.36658 
L 224.257824 -94.419178 
L 222.844808 -94.419178 
L 221.431792 -94.419178 
L 220.018776 -94.419178 
L 218.60576 -94.419178 
L 217.192744 -94.419178 
L 215.779728 -94.302722 
L 214.366712 -94.302722 
L 212.953696 -94.302722 
L 211.540681 -94.302722 
L 210.127665 -94.302722 
L 208.714649 -94.636898 
L 207.301633 -94.636898 
L 205.888617 -94.636898 
L 204.475601 -94.636898 
L 203.062585 -94.636898 
L 201.649569 -94.636898 
L 200.236553 -92.63314 
L 198.823537 -92.63314 
L 197.410521 -92.63314 
L 195.997505 -92.63314 
L 194.584489 -92.63314 
L 193.171473 -103.584124 
L 191.758457 -103.584124 
L 190.345441 -103.584124 
L 188.932425 -103.584124 
L 187.519409 -103.584124 
L 186.106393 -103.584124 
L 184.693377 -114.875743 
L 183.280361 -114.875743 
L 181.867345 -114.875743 
L 180.45433 -114.875743 
L 179.041314 -114.875743 
L 177.628298 -114.966123 
L 176.215282 -114.966123 
L 174.802266 -114.966123 
L 173.38925 -114.966123 
L 171.976234 -114.966123 
L 170.563218 -114.966123 
L 169.150202 -114.838447 
L 167.737186 -114.838447 
L 166.32417 -114.838447 
L 164.911154 -114.838447 
L 163.498138 -114.838447 
L 162.085122 -114.838447 
L 160.672106 -114.838447 
L 159.25909 -114.838447 
L 157.846074 -114.838447 
L 156.433058 -114.838447 
L 155.020042 -114.875743 
L 153.607026 -114.875743 
L 152.19401 -114.875743 
L 150.780995 -114.875743 
L 149.367979 -114.875743 
L 147.954963 -114.875743 
L 146.541947 -114.875743 
L 145.128931 -114.875743 
L 143.715915 -114.875743 
L 142.302899 -114.875743 
L 140.889883 -114.875743 
L 139.476867 -114.875743 
L 138.063851 -114.875743 
L 136.650835 -114.875743 
L 135.237819 -114.875743 
L 133.824803 -114.875743 
L 132.411787 -114.875743 
L 130.998771 -114.892242 
L 129.585755 -114.892242 
L 128.172739 -114.892242 
L 126.759723 -114.892242 
L 125.346707 -114.892242 
L 123.933691 -114.701938 
L 122.520675 -114.701938 
L 121.107659 -114.701938 
L 119.694644 -114.701938 
L 118.281628 -114.701938 
L 116.868612 -114.701938 
L 115.455596 -119.88819 
L 114.04258 -119.88819 
L 112.629564 -119.88819 
L 111.216548 -119.88819 
L 109.803532 -119.88819 
L 108.390516 -139.557496 
L 106.9775 -139.557496 
L 105.564484 -139.557496 
L 104.151468 -139.557496 
L 102.738452 -139.557496 
L 101.325436 -139.557496 
L 99.91242 -139.557496 
L 98.499404 -139.557496 
L 97.086388 -139.557496 
L 95.673372 -139.557496 
L 94.260356 -139.557496 
L 92.84734 -139.557496 
L 91.434324 -139.557496 
L 90.021309 -139.557496 
L 88.608293 -139.557496 
L 87.195277 -139.557496 
L 85.782261 -139.654939 
L 84.369245 -139.654939 
L 82.956229 -139.654939 
L 81.543213 -139.654939 
L 80.130197 -139.654939 
L 78.717181 -139.654939 
L 77.304165 -139.568616 
L 75.891149 -139.568616 
L 74.478133 -139.568616 
z
" style="stroke: #482475; stroke-opacity: 0.2"/>
    </defs>
    <g clip-path="url(#p0de8d0de77)">
     <use xlink:href="#m13f3e433f2" x="0" y="291.294705" style="fill: #482475; fill-opacity: 0.2; stroke: #482475; stroke-opacity: 0.2"/>
    </g>
   </g>
   <g id="PolyCollection_2">
    <defs>
     <path id="mb7277ce698" d="M 74.478133 -95.409806 
L 74.478133 -105.054097 
L 75.891149 -105.054097 
L 77.304165 -105.054097 
L 78.717181 -112.084041 
L 80.130197 -112.084041 
L 81.543213 -112.084041 
L 82.956229 -112.084041 
L 84.369245 -112.084041 
L 85.782261 -112.084041 
L 87.195277 -132.7839 
L 88.608293 -132.7839 
L 90.021309 -132.7839 
L 91.434324 -132.7839 
L 92.84734 -132.7839 
L 94.260356 -153.908115 
L 95.673372 -153.908115 
L 97.086388 -153.908115 
L 98.499404 -153.908115 
L 99.91242 -153.908115 
L 101.325436 -153.908115 
L 102.738452 -175.002882 
L 104.151468 -175.002882 
L 105.564484 -175.002882 
L 106.9775 -175.002882 
L 108.390516 -175.002882 
L 109.803532 -153.324711 
L 111.216548 -153.324711 
L 112.629564 -153.324711 
L 114.04258 -153.324711 
L 115.455596 -153.324711 
L 116.868612 -155.242432 
L 118.281628 -155.242432 
L 119.694644 -155.242432 
L 121.107659 -155.242432 
L 122.520675 -155.242432 
L 123.933691 -155.242432 
L 125.346707 -154.974371 
L 126.759723 -154.974371 
L 128.172739 -154.974371 
L 129.585755 -154.974371 
L 130.998771 -154.974371 
L 132.411787 -154.998169 
L 133.824803 -154.998169 
L 135.237819 -154.998169 
L 136.650835 -154.998169 
L 138.063851 -154.998169 
L 139.476867 -154.998169 
L 140.889883 -154.884375 
L 142.302899 -154.884375 
L 143.715915 -154.884375 
L 145.128931 -154.884375 
L 146.541947 -154.884375 
L 147.954963 -154.919031 
L 149.367979 -154.919031 
L 150.780995 -154.919031 
L 152.19401 -154.919031 
L 153.607026 -154.919031 
L 155.020042 -154.919031 
L 156.433058 -154.919031 
L 157.846074 -154.919031 
L 159.25909 -154.919031 
L 160.672106 -154.919031 
L 162.085122 -154.919031 
L 163.498138 -154.748763 
L 164.911154 -154.748763 
L 166.32417 -154.748763 
L 167.737186 -154.748763 
L 169.150202 -154.748763 
L 170.563218 -154.975958 
L 171.976234 -154.975958 
L 173.38925 -154.975958 
L 174.802266 -154.975958 
L 176.215282 -154.975958 
L 177.628298 -154.975958 
L 179.041314 -154.975958 
L 180.45433 -154.975958 
L 181.867345 -154.975958 
L 183.280361 -154.975958 
L 184.693377 -154.975958 
L 186.106393 -128.58338 
L 187.519409 -128.58338 
L 188.932425 -128.58338 
L 190.345441 -128.58338 
L 191.758457 -128.58338 
L 193.171473 -128.58338 
L 194.584489 -119.145536 
L 195.997505 -119.145536 
L 197.410521 -119.145536 
L 198.823537 -119.145536 
L 200.236553 -119.145536 
L 201.649569 -119.569645 
L 203.062585 -119.569645 
L 204.475601 -119.569645 
L 205.888617 -119.569645 
L 207.301633 -119.569645 
L 208.714649 -119.569645 
L 210.127665 -119.242674 
L 211.540681 -119.242674 
L 212.953696 -119.242674 
L 214.366712 -119.242674 
L 215.779728 -119.242674 
L 217.192744 -118.967246 
L 218.60576 -118.967246 
L 220.018776 -118.967246 
L 221.431792 -118.967246 
L 222.844808 -118.967246 
L 224.257824 -118.967246 
L 225.67084 -118.819522 
L 227.083856 -118.819522 
L 228.496872 -118.819522 
L 229.909888 -118.819522 
L 231.322904 -118.819522 
L 232.73592 -118.963934 
L 234.148936 -118.963934 
L 235.561952 -118.963934 
L 236.974968 -118.963934 
L 238.387984 -118.963934 
L 239.801 -118.967246 
L 241.214016 -118.967246 
L 242.627031 -118.967246 
L 244.040047 -118.967246 
L 245.453063 -118.967246 
L 246.866079 -118.967246 
L 248.279095 -118.896367 
L 249.692111 -118.896367 
L 251.105127 -118.896367 
L 252.518143 -118.896367 
L 253.931159 -118.896367 
L 255.344175 -118.967246 
L 256.757191 -118.967246 
L 258.170207 -118.967246 
L 259.583223 -118.967246 
L 260.996239 -118.967246 
L 262.409255 -118.967246 
L 263.822271 -110.798539 
L 265.235287 -110.798539 
L 266.648303 -110.798539 
L 268.061319 -110.798539 
L 269.474335 -110.798539 
L 270.887351 -84.414113 
L 272.300367 -84.414113 
L 273.713382 -84.414113 
L 275.126398 -84.414113 
L 276.539414 -84.414113 
L 277.95243 -84.414113 
L 279.365446 -85.761024 
L 280.778462 -85.761024 
L 282.191478 -85.761024 
L 283.604494 -85.761024 
L 285.01751 -85.761024 
L 286.430526 -85.120693 
L 287.843542 -85.120693 
L 289.256558 -85.120693 
L 290.669574 -85.120693 
L 292.08259 -85.120693 
L 293.495606 -85.120693 
L 294.908622 -84.712047 
L 296.321638 -84.712047 
L 297.734654 -84.712047 
L 299.14767 -84.712047 
L 300.560686 -84.712047 
L 301.973702 -84.712047 
L 303.386717 -84.712047 
L 304.799733 -84.712047 
L 306.212749 -84.712047 
L 307.625765 -84.712047 
L 309.038781 -84.663786 
L 310.451797 -84.663786 
L 311.864813 -84.663786 
L 313.277829 -84.663786 
L 314.690845 -84.663786 
L 316.103861 -84.663786 
L 317.516877 -84.632345 
L 318.929893 -84.632345 
L 320.342909 -84.632345 
L 321.755925 -84.632345 
L 323.168941 -84.632345 
L 324.581957 -84.46787 
L 325.994973 -84.46787 
L 327.407989 -84.46787 
L 328.821005 -84.46787 
L 330.234021 -84.46787 
L 331.647037 -84.46787 
L 333.060052 -84.712047 
L 334.473068 -84.712047 
L 335.886084 -84.712047 
L 337.2991 -84.712047 
L 338.712116 -84.712047 
L 340.125132 -84.712047 
L 341.538148 -84.712047 
L 342.951164 -84.712047 
L 344.36418 -84.712047 
L 345.777196 -84.712047 
L 347.190212 -84.712047 
L 348.603228 -113.926056 
L 350.016244 -113.926056 
L 351.42926 -113.926056 
L 352.842276 -113.926056 
L 354.255292 -113.926056 
L 355.668308 -118.674809 
L 357.081324 -118.674809 
L 358.49434 -118.674809 
L 359.907356 -118.674809 
L 361.320372 -118.674809 
L 362.733388 -119.022326 
L 364.146403 -119.022326 
L 365.559419 -119.022326 
L 366.972435 -119.022326 
L 368.385451 -119.022326 
L 369.798467 -119.022326 
L 371.211483 -119.022326 
L 372.624499 -119.022326 
L 374.037515 -119.022326 
L 375.450531 -119.022326 
L 376.863547 -119.022326 
L 378.276563 -119.034054 
L 379.689579 -119.034054 
L 381.102595 -119.034054 
L 382.515611 -119.034054 
L 383.928627 -119.034054 
L 385.341643 -119.034054 
L 386.754659 -119.022326 
L 388.167675 -119.022326 
L 389.580691 -119.022326 
L 390.993707 -119.022326 
L 392.406723 -119.022326 
L 393.819738 -119.022326 
L 395.232754 -119.022326 
L 396.64577 -119.022326 
L 398.058786 -119.022326 
L 399.471802 -119.022326 
L 400.884818 -119.022326 
L 402.297834 -119.022326 
L 403.71085 -119.022326 
L 405.123866 -119.022326 
L 406.536882 -119.022326 
L 407.949898 -119.022326 
L 409.362914 -118.896367 
L 410.77593 -118.896367 
L 412.188946 -118.896367 
L 413.601962 -118.896367 
L 415.014978 -118.896367 
L 416.427994 -118.896367 
L 417.84101 -119.151407 
L 419.254026 -119.151407 
L 420.667042 -119.151407 
L 422.080058 -119.151407 
L 423.493074 -119.151407 
L 424.906089 -139.585915 
L 426.319105 -139.585915 
L 427.732121 -139.585915 
L 429.145137 -139.585915 
L 430.558153 -139.585915 
L 431.971169 -154.303933 
L 433.384185 -154.303933 
L 434.797201 -154.303933 
L 436.210217 -154.303933 
L 437.623233 -154.303933 
L 439.036249 -154.303933 
L 440.449265 -154.994163 
L 441.862281 -154.994163 
L 443.275297 -154.994163 
L 444.688313 -154.994163 
L 446.101329 -154.994163 
L 447.514345 -155.113568 
L 448.927361 -155.113568 
L 450.340377 -155.113568 
L 451.753393 -155.113568 
L 453.166409 -155.113568 
L 454.579424 -155.113568 
L 455.99244 -155.113568 
L 457.405456 -155.113568 
L 458.818472 -155.113568 
L 460.231488 -155.113568 
L 461.644504 -155.113568 
L 463.05752 -155.056573 
L 464.470536 -155.056573 
L 465.883552 -155.056573 
L 467.296568 -155.056573 
L 468.709584 -155.056573 
L 470.1226 -155.056573 
L 471.535616 -155.113568 
L 472.948632 -155.113568 
L 474.361648 -155.113568 
L 475.774664 -155.113568 
L 477.18768 -155.113568 
L 478.600696 -154.555643 
L 480.013712 -154.555643 
L 481.426728 -154.555643 
L 482.839744 -154.555643 
L 484.25276 -154.555643 
L 485.665775 -154.555643 
L 487.078791 -155.113568 
L 488.491807 -155.113568 
L 489.904823 -155.113568 
L 491.317839 -155.113568 
L 492.730855 -155.113568 
L 494.143871 -154.872167 
L 495.556887 -154.872167 
L 496.969903 -154.872167 
L 498.382919 -154.872167 
L 499.795935 -154.872167 
L 501.208951 -154.828785 
L 502.621967 -154.828785 
L 504.034983 -154.828785 
L 505.447999 -154.828785 
L 506.861015 -154.828785 
L 508.274031 -154.828785 
L 509.687047 -181.997489 
L 511.100063 -181.997489 
L 512.513079 -181.997489 
L 513.926095 -181.997489 
L 515.33911 -181.997489 
L 516.752126 -183.256966 
L 518.165142 -183.256966 
L 519.578158 -183.256966 
L 520.991174 -183.256966 
L 522.40419 -183.256966 
L 523.817206 -183.256966 
L 525.230222 -183.172845 
L 526.643238 -183.172845 
L 528.056254 -183.172845 
L 529.46927 -183.172845 
L 530.882286 -183.172845 
L 532.295302 -183.18979 
L 533.708318 -183.18979 
L 535.121334 -183.18979 
L 536.53435 -183.18979 
L 537.947366 -183.18979 
L 539.360382 -183.18979 
L 540.773398 -183.302562 
L 542.186414 -183.302562 
L 543.59943 -183.302562 
L 545.012446 -183.302562 
L 546.425461 -183.302562 
L 547.838477 -183.13952 
L 549.251493 -183.13952 
L 550.664509 -183.13952 
L 552.077525 -183.13952 
L 553.490541 -183.13952 
L 554.903557 -183.13952 
L 556.316573 -183.13952 
L 557.729589 -183.13952 
L 559.142605 -183.13952 
L 560.555621 -183.13952 
L 561.968637 -183.13952 
L 563.381653 -183.053327 
L 564.794669 -183.053327 
L 566.207685 -183.053327 
L 567.620701 -183.053327 
L 569.033717 -183.053327 
L 570.446733 -183.062786 
L 571.859749 -183.062786 
L 573.272765 -183.062786 
L 574.685781 -183.062786 
L 576.098796 -183.062786 
L 577.511812 -183.062786 
L 578.924828 -183.218978 
L 580.337844 -183.218978 
L 581.75086 -183.218978 
L 581.75086 -175.231184 
L 581.75086 -175.231184 
L 580.337844 -175.231184 
L 578.924828 -175.231184 
L 577.511812 -175.107071 
L 576.098796 -175.107071 
L 574.685781 -175.107071 
L 573.272765 -175.107071 
L 571.859749 -175.107071 
L 570.446733 -175.107071 
L 569.033717 -175.117417 
L 567.620701 -175.117417 
L 566.207685 -175.117417 
L 564.794669 -175.117417 
L 563.381653 -175.117417 
L 561.968637 -175.217503 
L 560.555621 -175.217503 
L 559.142605 -175.217503 
L 557.729589 -175.217503 
L 556.316573 -175.217503 
L 554.903557 -175.217503 
L 553.490541 -175.217503 
L 552.077525 -175.217503 
L 550.664509 -175.217503 
L 549.251493 -175.217503 
L 547.838477 -175.217503 
L 546.425461 -175.240739 
L 545.012446 -175.240739 
L 543.59943 -175.240739 
L 542.186414 -175.240739 
L 540.773398 -175.240739 
L 539.360382 -174.980954 
L 537.947366 -174.980954 
L 536.53435 -174.980954 
L 535.121334 -174.980954 
L 533.708318 -174.980954 
L 532.295302 -174.980954 
L 530.882286 -175.091039 
L 529.46927 -175.091039 
L 528.056254 -175.091039 
L 526.643238 -175.091039 
L 525.230222 -175.091039 
L 523.817206 -175.100056 
L 522.40419 -175.100056 
L 520.991174 -175.100056 
L 519.578158 -175.100056 
L 518.165142 -175.100056 
L 516.752126 -175.100056 
L 515.33911 -172.996765 
L 513.926095 -172.996765 
L 512.513079 -172.996765 
L 511.100063 -172.996765 
L 509.687047 -172.996765 
L 508.274031 -147.783096 
L 506.861015 -147.783096 
L 505.447999 -147.783096 
L 504.034983 -147.783096 
L 502.621967 -147.783096 
L 501.208951 -147.783096 
L 499.795935 -147.83374 
L 498.382919 -147.83374 
L 496.969903 -147.83374 
L 495.556887 -147.83374 
L 494.143871 -147.83374 
L 492.730855 -148.153836 
L 491.317839 -148.153836 
L 489.904823 -148.153836 
L 488.491807 -148.153836 
L 487.078791 -148.153836 
L 485.665775 -148.245178 
L 484.25276 -148.245178 
L 482.839744 -148.245178 
L 481.426728 -148.245178 
L 480.013712 -148.245178 
L 478.600696 -148.245178 
L 477.18768 -148.153836 
L 475.774664 -148.153836 
L 474.361648 -148.153836 
L 472.948632 -148.153836 
L 471.535616 -148.153836 
L 470.1226 -148.21083 
L 468.709584 -148.21083 
L 467.296568 -148.21083 
L 465.883552 -148.21083 
L 464.470536 -148.21083 
L 463.05752 -148.21083 
L 461.644504 -148.153836 
L 460.231488 -148.153836 
L 458.818472 -148.153836 
L 457.405456 -148.153836 
L 455.99244 -148.153836 
L 454.579424 -148.153836 
L 453.166409 -148.153836 
L 451.753393 -148.153836 
L 450.340377 -148.153836 
L 448.927361 -148.153836 
L 447.514345 -148.153836 
L 446.101329 -148.180102 
L 444.688313 -148.180102 
L 443.275297 -148.180102 
L 441.862281 -148.180102 
L 440.449265 -148.180102 
L 439.036249 -147.469695 
L 437.623233 -147.469695 
L 436.210217 -147.469695 
L 434.797201 -147.469695 
L 433.384185 -147.469695 
L 431.971169 -147.469695 
L 430.558153 -126.612974 
L 429.145137 -126.612974 
L 427.732121 -126.612974 
L 426.319105 -126.612974 
L 424.906089 -126.612974 
L 423.493074 -111.845299 
L 422.080058 -111.845299 
L 420.667042 -111.845299 
L 419.254026 -111.845299 
L 417.84101 -111.845299 
L 416.427994 -111.914061 
L 415.014978 -111.914061 
L 413.601962 -111.914061 
L 412.188946 -111.914061 
L 410.77593 -111.914061 
L 409.362914 -111.914061 
L 407.949898 -111.881241 
L 406.536882 -111.881241 
L 405.123866 -111.881241 
L 403.71085 -111.881241 
L 402.297834 -111.881241 
L 400.884818 -111.881241 
L 399.471802 -111.881241 
L 398.058786 -111.881241 
L 396.64577 -111.881241 
L 395.232754 -111.881241 
L 393.819738 -111.881241 
L 392.406723 -111.881241 
L 390.993707 -111.881241 
L 389.580691 -111.881241 
L 388.167675 -111.881241 
L 386.754659 -111.881241 
L 385.341643 -111.775487 
L 383.928627 -111.775487 
L 382.515611 -111.775487 
L 381.102595 -111.775487 
L 379.689579 -111.775487 
L 378.276563 -111.775487 
L 376.863547 -111.881241 
L 375.450531 -111.881241 
L 374.037515 -111.881241 
L 372.624499 -111.881241 
L 371.211483 -111.881241 
L 369.798467 -111.881241 
L 368.385451 -111.881241 
L 366.972435 -111.881241 
L 365.559419 -111.881241 
L 364.146403 -111.881241 
L 362.733388 -111.881241 
L 361.320372 -112.134731 
L 359.907356 -112.134731 
L 358.49434 -112.134731 
L 357.081324 -112.134731 
L 355.668308 -112.134731 
L 354.255292 -106.332144 
L 352.842276 -106.332144 
L 351.42926 -106.332144 
L 350.016244 -106.332144 
L 348.603228 -106.332144 
L 347.190212 -80.923649 
L 345.777196 -80.923649 
L 344.36418 -80.923649 
L 342.951164 -80.923649 
L 341.538148 -80.923649 
L 340.125132 -80.923649 
L 338.712116 -80.923649 
L 337.2991 -80.923649 
L 335.886084 -80.923649 
L 334.473068 -80.923649 
L 333.060052 -80.923649 
L 331.647037 -80.887699 
L 330.234021 -80.887699 
L 328.821005 -80.887699 
L 327.407989 -80.887699 
L 325.994973 -80.887699 
L 324.581957 -80.887699 
L 323.168941 -80.909946 
L 321.755925 -80.909946 
L 320.342909 -80.909946 
L 318.929893 -80.909946 
L 317.516877 -80.909946 
L 316.103861 -80.878505 
L 314.690845 -80.878505 
L 313.277829 -80.878505 
L 311.864813 -80.878505 
L 310.451797 -80.878505 
L 309.038781 -80.878505 
L 307.625765 -80.923649 
L 306.212749 -80.923649 
L 304.799733 -80.923649 
L 303.386717 -80.923649 
L 301.973702 -80.923649 
L 300.560686 -80.923649 
L 299.14767 -80.923649 
L 297.734654 -80.923649 
L 296.321638 -80.923649 
L 294.908622 -80.923649 
L 293.495606 -81.075169 
L 292.08259 -81.075169 
L 290.669574 -81.075169 
L 289.256558 -81.075169 
L 287.843542 -81.075169 
L 286.430526 -81.075169 
L 285.01751 -81.461853 
L 283.604494 -81.461853 
L 282.191478 -81.461853 
L 280.778462 -81.461853 
L 279.365446 -81.461853 
L 277.95243 -80.287708 
L 276.539414 -80.287708 
L 275.126398 -80.287708 
L 273.713382 -80.287708 
L 272.300367 -80.287708 
L 270.887351 -80.287708 
L 269.474335 -104.231447 
L 268.061319 -104.231447 
L 266.648303 -104.231447 
L 265.235287 -104.231447 
L 263.822271 -104.231447 
L 262.409255 -111.937209 
L 260.996239 -111.937209 
L 259.583223 -111.937209 
L 258.170207 -111.937209 
L 256.757191 -111.937209 
L 255.344175 -111.937209 
L 253.931159 -111.914061 
L 252.518143 -111.914061 
L 251.105127 -111.914061 
L 249.692111 -111.914061 
L 248.279095 -111.914061 
L 246.866079 -111.937209 
L 245.453063 -111.937209 
L 244.040047 -111.937209 
L 242.627031 -111.937209 
L 241.214016 -111.937209 
L 239.801 -111.937209 
L 238.387984 -112.033659 
L 236.974968 -112.033659 
L 235.561952 -112.033659 
L 234.148936 -112.033659 
L 232.73592 -112.033659 
L 231.322904 -111.897767 
L 229.909888 -111.897767 
L 228.496872 -111.897767 
L 227.083856 -111.897767 
L 225.67084 -111.897767 
L 224.257824 -111.937209 
L 222.844808 -111.937209 
L 221.431792 -111.937209 
L 220.018776 -111.937209 
L 218.60576 -111.937209 
L 217.192744 -111.937209 
L 215.779728 -111.474614 
L 214.366712 -111.474614 
L 212.953696 -111.474614 
L 211.540681 -111.474614 
L 210.127665 -111.474614 
L 208.714649 -112.361115 
L 207.301633 -112.361115 
L 205.888617 -112.361115 
L 204.475601 -112.361115 
L 203.062585 -112.361115 
L 201.649569 -112.361115 
L 200.236553 -111.75537 
L 198.823537 -111.75537 
L 197.410521 -111.75537 
L 195.997505 -111.75537 
L 194.584489 -111.75537 
L 193.171473 -119.502152 
L 191.758457 -119.502152 
L 190.345441 -119.502152 
L 188.932425 -119.502152 
L 187.519409 -119.502152 
L 186.106393 -119.502152 
L 184.693377 -148.011141 
L 183.280361 -148.011141 
L 181.867345 -148.011141 
L 180.45433 -148.011141 
L 179.041314 -148.011141 
L 177.628298 -148.011141 
L 176.215282 -148.011141 
L 174.802266 -148.011141 
L 173.38925 -148.011141 
L 171.976234 -148.011141 
L 170.563218 -148.011141 
L 169.150202 -148.05117 
L 167.737186 -148.05117 
L 166.32417 -148.05117 
L 164.911154 -148.05117 
L 163.498138 -148.05117 
L 162.085122 -148.161207 
L 160.672106 -148.161207 
L 159.25909 -148.161207 
L 157.846074 -148.161207 
L 156.433058 -148.161207 
L 155.020042 -148.161207 
L 153.607026 -148.161207 
L 152.19401 -148.161207 
L 150.780995 -148.161207 
L 149.367979 -148.161207 
L 147.954963 -148.161207 
L 146.541947 -148.102724 
L 145.128931 -148.102724 
L 143.715915 -148.102724 
L 142.302899 -148.102724 
L 140.889883 -148.102724 
L 139.476867 -148.268347 
L 138.063851 -148.268347 
L 136.650835 -148.268347 
L 135.237819 -148.268347 
L 133.824803 -148.268347 
L 132.411787 -148.268347 
L 130.998771 -148.851867 
L 129.585755 -148.851867 
L 128.172739 -148.851867 
L 126.759723 -148.851867 
L 125.346707 -148.851867 
L 123.933691 -148.118998 
L 122.520675 -148.118998 
L 121.107659 -148.118998 
L 119.694644 -148.118998 
L 118.281628 -148.118998 
L 116.868612 -148.118998 
L 115.455596 -146.301393 
L 114.04258 -146.301393 
L 112.629564 -146.301393 
L 111.216548 -146.301393 
L 109.803532 -146.301393 
L 108.390516 -134.519927 
L 106.9775 -134.519927 
L 105.564484 -134.519927 
L 104.151468 -134.519927 
L 102.738452 -134.519927 
L 101.325436 -102.299155 
L 99.91242 -102.299155 
L 98.499404 -102.299155 
L 97.086388 -102.299155 
L 95.673372 -102.299155 
L 94.260356 -102.299155 
L 92.84734 -88.222962 
L 91.434324 -88.222962 
L 90.021309 -88.222962 
L 88.608293 -88.222962 
L 87.195277 -88.222962 
L 85.782261 -92.955213 
L 84.369245 -92.955213 
L 82.956229 -92.955213 
L 81.543213 -92.955213 
L 80.130197 -92.955213 
L 78.717181 -92.955213 
L 77.304165 -95.409806 
L 75.891149 -95.409806 
L 74.478133 -95.409806 
z
" style="stroke: #bddf26; stroke-opacity: 0.2"/>
    </defs>
    <g clip-path="url(#p0de8d0de77)">
     <use xlink:href="#mb7277ce698" x="0" y="291.294705" style="fill: #bddf26; fill-opacity: 0.2; stroke: #bddf26; stroke-opacity: 0.2"/>
    </g>
   </g>
   <g id="matplotlib.axis_1">
    <g id="xtick_1">
     <g id="line2d_1">
      <defs>
       <path id="md05daf0749" d="M 0 0 
L 0 3.5 
" style="stroke: #000000; stroke-width: 0.8"/>
      </defs>
      <g>
       <use xlink:href="#md05daf0749" x="105.221935" y="247.4133" style="stroke: #000000; stroke-width: 0.8"/>
      </g>
     </g>
     <g id="text_1">
      <!-- $\mathdefault{100}$ -->
      <g transform="translate(94.613401 264.445108) scale(0.145 -0.145)">
       <defs>
        <path id="CMR17-31" d="M 1702 4058 
C 1702 4192 1696 4192 1606 4192 
C 1357 3916 979 3827 621 3827 
C 602 3827 570 3827 563 3808 
C 557 3795 557 3782 557 3648 
C 755 3648 1088 3686 1344 3839 
L 1344 461 
C 1344 236 1331 160 781 160 
L 589 160 
L 589 0 
C 896 0 1216 0 1523 0 
C 1830 0 2150 0 2458 0 
L 2458 160 
L 2266 160 
C 1715 160 1702 230 1702 458 
L 1702 4058 
z
" transform="scale(0.015625)"/>
        <path id="CMR17-30" d="M 2688 2025 
C 2688 2416 2682 3080 2413 3591 
C 2176 4039 1798 4198 1466 4198 
C 1158 4198 768 4058 525 3597 
C 269 3118 243 2524 243 2025 
C 243 1661 250 1106 448 619 
C 723 -39 1216 -128 1466 -128 
C 1760 -128 2208 -7 2470 600 
C 2662 1042 2688 1559 2688 2025 
z
M 1466 -26 
C 1056 -26 813 325 723 812 
C 653 1188 653 1738 653 2096 
C 653 2588 653 2997 736 3387 
C 858 3929 1216 4096 1466 4096 
C 1728 4096 2067 3923 2189 3400 
C 2272 3036 2278 2607 2278 2096 
C 2278 1680 2278 1169 2202 792 
C 2067 95 1690 -26 1466 -26 
z
" transform="scale(0.015625)"/>
       </defs>
       <use xlink:href="#CMR17-31" transform="scale(0.996264)"/>
       <use xlink:href="#CMR17-30" transform="translate(45.690477 0) scale(0.996264)"/>
       <use xlink:href="#CMR17-30" transform="translate(91.380954 0) scale(0.996264)"/>
      </g>
     </g>
    </g>
    <g id="xtick_2">
     <g id="line2d_2">
      <g>
       <use xlink:href="#md05daf0749" x="182.081439" y="247.4133" style="stroke: #000000; stroke-width: 0.8"/>
      </g>
     </g>
     <g id="text_2">
      <!-- $\mathdefault{200}$ -->
      <g transform="translate(171.472905 264.445108) scale(0.145 -0.145)">
       <defs>
        <path id="CMR17-32" d="M 2669 989 
L 2554 989 
C 2490 536 2438 459 2413 420 
C 2381 369 1920 369 1830 369 
L 602 369 
C 832 619 1280 1072 1824 1597 
C 2214 1967 2669 2402 2669 3035 
C 2669 3790 2067 4224 1395 4224 
C 691 4224 262 3604 262 3030 
C 262 2780 448 2748 525 2748 
C 589 2748 781 2787 781 3010 
C 781 3207 614 3264 525 3264 
C 486 3264 448 3258 422 3245 
C 544 3790 915 4058 1306 4058 
C 1862 4058 2227 3617 2227 3035 
C 2227 2479 1901 2000 1536 1584 
L 262 146 
L 262 0 
L 2515 0 
L 2669 989 
z
" transform="scale(0.015625)"/>
       </defs>
       <use xlink:href="#CMR17-32" transform="scale(0.996264)"/>
       <use xlink:href="#CMR17-30" transform="translate(45.690477 0) scale(0.996264)"/>
       <use xlink:href="#CMR17-30" transform="translate(91.380954 0) scale(0.996264)"/>
      </g>
     </g>
    </g>
    <g id="xtick_3">
     <g id="line2d_3">
      <g>
       <use xlink:href="#md05daf0749" x="258.940943" y="247.4133" style="stroke: #000000; stroke-width: 0.8"/>
      </g>
     </g>
     <g id="text_3">
      <!-- $\mathdefault{300}$ -->
      <g transform="translate(248.33241 264.445108) scale(0.145 -0.145)">
       <defs>
        <path id="CMR17-33" d="M 1414 2157 
C 1984 2157 2234 1662 2234 1090 
C 2234 320 1824 25 1453 25 
C 1114 25 563 194 390 693 
C 422 680 454 680 486 680 
C 640 680 755 782 755 948 
C 755 1133 614 1216 486 1216 
C 378 1216 211 1165 211 926 
C 211 335 787 -128 1466 -128 
C 2176 -128 2720 430 2720 1085 
C 2720 1707 2208 2157 1600 2227 
C 2086 2328 2554 2756 2554 3329 
C 2554 3820 2048 4179 1472 4179 
C 890 4179 378 3829 378 3329 
C 378 3110 544 3072 627 3072 
C 762 3072 877 3155 877 3321 
C 877 3486 762 3569 627 3569 
C 602 3569 570 3569 544 3557 
C 730 3959 1235 4032 1459 4032 
C 1683 4032 2106 3925 2106 3320 
C 2106 3143 2080 2828 1862 2550 
C 1670 2304 1453 2304 1242 2284 
C 1210 2284 1062 2269 1037 2269 
C 992 2263 966 2257 966 2208 
C 966 2163 973 2157 1101 2157 
L 1414 2157 
z
" transform="scale(0.015625)"/>
       </defs>
       <use xlink:href="#CMR17-33" transform="scale(0.996264)"/>
       <use xlink:href="#CMR17-30" transform="translate(45.690477 0) scale(0.996264)"/>
       <use xlink:href="#CMR17-30" transform="translate(91.380954 0) scale(0.996264)"/>
      </g>
     </g>
    </g>
    <g id="xtick_4">
     <g id="line2d_4">
      <g>
       <use xlink:href="#md05daf0749" x="335.800447" y="247.4133" style="stroke: #000000; stroke-width: 0.8"/>
      </g>
     </g>
     <g id="text_4">
      <!-- $\mathdefault{400}$ -->
      <g transform="translate(325.191914 264.445108) scale(0.145 -0.145)">
       <defs>
        <path id="CMR17-34" d="M 2150 4122 
C 2150 4256 2144 4256 2029 4256 
L 128 1254 
L 128 1088 
L 1779 1088 
L 1779 457 
C 1779 224 1766 160 1318 160 
L 1197 160 
L 1197 0 
C 1402 0 1747 0 1965 0 
C 2182 0 2528 0 2733 0 
L 2733 160 
L 2611 160 
C 2163 160 2150 224 2150 457 
L 2150 1088 
L 2803 1088 
L 2803 1254 
L 2150 1254 
L 2150 4122 
z
M 1798 3703 
L 1798 1254 
L 256 1254 
L 1798 3703 
z
" transform="scale(0.015625)"/>
       </defs>
       <use xlink:href="#CMR17-34" transform="scale(0.996264)"/>
       <use xlink:href="#CMR17-30" transform="translate(45.690477 0) scale(0.996264)"/>
       <use xlink:href="#CMR17-30" transform="translate(91.380954 0) scale(0.996264)"/>
      </g>
     </g>
    </g>
    <g id="xtick_5">
     <g id="line2d_5">
      <g>
       <use xlink:href="#md05daf0749" x="412.659951" y="247.4133" style="stroke: #000000; stroke-width: 0.8"/>
      </g>
     </g>
     <g id="text_5">
      <!-- $\mathdefault{500}$ -->
      <g transform="translate(402.051418 264.445108) scale(0.145 -0.145)">
       <defs>
        <path id="CMR17-35" d="M 730 3692 
C 794 3666 1056 3584 1325 3584 
C 1920 3584 2246 3911 2432 4100 
C 2432 4157 2432 4192 2394 4192 
C 2387 4192 2374 4192 2323 4163 
C 2099 4058 1837 3973 1517 3973 
C 1325 3973 1037 3999 723 4139 
C 653 4171 640 4171 634 4171 
C 602 4171 595 4164 595 4037 
L 595 2203 
C 595 2089 595 2057 659 2057 
C 691 2057 704 2070 736 2114 
C 941 2401 1222 2522 1542 2522 
C 1766 2522 2246 2382 2246 1289 
C 2246 1085 2246 715 2054 421 
C 1894 159 1645 25 1370 25 
C 947 25 518 320 403 814 
C 429 807 480 795 506 795 
C 589 795 749 840 749 1038 
C 749 1210 627 1280 506 1280 
C 358 1280 262 1190 262 1011 
C 262 454 704 -128 1382 -128 
C 2042 -128 2669 440 2669 1264 
C 2669 2030 2170 2624 1549 2624 
C 1222 2624 947 2503 730 2274 
L 730 3692 
z
" transform="scale(0.015625)"/>
       </defs>
       <use xlink:href="#CMR17-35" transform="scale(0.996264)"/>
       <use xlink:href="#CMR17-30" transform="translate(45.690477 0) scale(0.996264)"/>
       <use xlink:href="#CMR17-30" transform="translate(91.380954 0) scale(0.996264)"/>
      </g>
     </g>
    </g>
    <g id="xtick_6">
     <g id="line2d_6">
      <g>
       <use xlink:href="#md05daf0749" x="489.519455" y="247.4133" style="stroke: #000000; stroke-width: 0.8"/>
      </g>
     </g>
     <g id="text_6">
      <!-- $\mathdefault{600}$ -->
      <g transform="translate(478.910922 264.445108) scale(0.145 -0.145)">
       <defs>
        <path id="CMR17-36" d="M 678 2176 
C 678 3690 1395 4032 1811 4032 
C 1946 4032 2272 4009 2400 3776 
C 2298 3776 2106 3776 2106 3553 
C 2106 3381 2246 3323 2336 3323 
C 2394 3323 2566 3348 2566 3560 
C 2566 3954 2246 4179 1805 4179 
C 1043 4179 243 3390 243 1984 
C 243 253 966 -128 1478 -128 
C 2099 -128 2688 427 2688 1283 
C 2688 2081 2170 2662 1517 2662 
C 1126 2662 838 2407 678 1960 
L 678 2176 
z
M 1478 25 
C 691 25 691 1200 691 1436 
C 691 1896 909 2560 1504 2560 
C 1613 2560 1926 2560 2138 2120 
C 2253 1870 2253 1609 2253 1289 
C 2253 944 2253 690 2118 434 
C 1978 171 1773 25 1478 25 
z
" transform="scale(0.015625)"/>
       </defs>
       <use xlink:href="#CMR17-36" transform="scale(0.996264)"/>
       <use xlink:href="#CMR17-30" transform="translate(45.690477 0) scale(0.996264)"/>
       <use xlink:href="#CMR17-30" transform="translate(91.380954 0) scale(0.996264)"/>
      </g>
     </g>
    </g>
    <g id="xtick_7">
     <g id="line2d_7">
      <g>
       <use xlink:href="#md05daf0749" x="566.378959" y="247.4133" style="stroke: #000000; stroke-width: 0.8"/>
      </g>
     </g>
     <g id="text_7">
      <!-- $\mathdefault{700}$ -->
      <g transform="translate(555.770426 264.445108) scale(0.145 -0.145)">
       <defs>
        <path id="CMR17-37" d="M 2886 3941 
L 2886 4081 
L 1382 4081 
C 634 4081 621 4165 595 4288 
L 480 4288 
L 294 3094 
L 410 3094 
C 429 3215 474 3540 550 3661 
C 589 3712 1062 3712 1171 3712 
L 2579 3712 
L 1869 2661 
C 1395 1954 1069 999 1069 165 
C 1069 89 1069 -128 1299 -128 
C 1530 -128 1530 89 1530 171 
L 1530 465 
C 1530 1508 1709 2196 2003 2636 
L 2886 3941 
z
" transform="scale(0.015625)"/>
       </defs>
       <use xlink:href="#CMR17-37" transform="scale(0.996264)"/>
       <use xlink:href="#CMR17-30" transform="translate(45.690477 0) scale(0.996264)"/>
       <use xlink:href="#CMR17-30" transform="translate(91.380954 0) scale(0.996264)"/>
      </g>
     </g>
    </g>
    <g id="text_8">
     <!-- time -->
     <g transform="translate(315.161058 281.285811) scale(0.145 -0.145)">
      <defs>
       <path id="CMSS17-74" d="M 1069 2368 
L 1901 2368 
L 1901 2737 
L 1069 2737 
L 1069 3520 
L 614 3520 
L 614 2737 
L 109 2737 
L 109 2368 
L 602 2368 
L 602 749 
C 602 384 685 -64 1107 -64 
C 1427 -64 1722 25 2003 172 
L 1901 548 
C 1747 414 1562 337 1363 337 
C 1082 337 1069 696 1069 856 
L 1069 2368 
z
" transform="scale(0.015625)"/>
       <path id="CMSS17-69" d="M 979 4183 
L 442 4183 
L 442 3648 
L 979 3648 
L 979 4183 
z
M 947 2739 
L 474 2739 
L 474 0 
L 947 0 
L 947 2739 
z
" transform="scale(0.015625)"/>
       <path id="CMSS17-6d" d="M 4288 1877 
C 4288 2308 4179 2816 3462 2816 
C 2982 2816 2694 2516 2566 2331 
C 2451 2670 2182 2816 1798 2816 
C 1363 2816 1088 2568 941 2389 
L 941 2758 
L 474 2758 
L 474 0 
L 960 0 
L 960 1559 
C 960 1939 1101 2428 1555 2428 
C 2138 2428 2138 2016 2138 1829 
L 2138 0 
L 2624 0 
L 2624 1559 
C 2624 1939 2765 2428 3219 2428 
C 3802 2428 3802 2016 3802 1829 
L 3802 0 
L 4288 0 
L 4288 1877 
z
" transform="scale(0.015625)"/>
       <path id="CMSS17-65" d="M 2502 1377 
C 2502 1590 2490 2003 2285 2345 
C 2061 2713 1696 2816 1421 2816 
C 755 2816 192 2188 192 1375 
C 192 582 774 -64 1510 -64 
C 1798 -64 2150 19 2470 248 
C 2470 274 2458 414 2451 420 
C 2451 433 2432 630 2432 656 
C 2125 407 1773 325 1517 325 
C 1107 325 666 667 646 1377 
L 2502 1377 
z
M 698 1728 
C 781 2084 1062 2421 1421 2421 
C 1517 2421 1965 2421 2080 1728 
L 698 1728 
z
" transform="scale(0.015625)"/>
      </defs>
      <use xlink:href="#CMSS17-74" transform="scale(0.996264)"/>
      <use xlink:href="#CMSS17-69" transform="translate(33.831567 0) scale(0.996264)"/>
      <use xlink:href="#CMSS17-6d" transform="translate(56.01229 0) scale(0.996264)"/>
      <use xlink:href="#CMSS17-65" transform="translate(130.241544 0) scale(0.996264)"/>
     </g>
    </g>
   </g>
   <g id="matplotlib.axis_2">
    <g id="ytick_1">
     <g id="line2d_8">
      <path d="M 49.114497 247.4133 
L 607.114497 247.4133 
" clip-path="url(#p0de8d0de77)" style="fill: none; stroke-dasharray: 1.85,0.8; stroke-dashoffset: 0; stroke: #808080; stroke-width: 0.5"/>
     </g>
     <g id="line2d_9">
      <defs>
       <path id="m7cbe0a3662" d="M 0 0 
L -3.5 0 
" style="stroke: #000000; stroke-width: 0.8"/>
      </defs>
      <g>
       <use xlink:href="#m7cbe0a3662" x="49.114497" y="247.4133" style="stroke: #000000; stroke-width: 0.8"/>
      </g>
     </g>
     <g id="text_9">
      <!-- $\mathdefault{0.0}$ -->
      <g transform="translate(24.040702 252.429204) scale(0.145 -0.145)">
       <defs>
        <path id="CMMI12-3a" d="M 1178 307 
C 1178 492 1024 619 870 619 
C 685 619 557 466 557 313 
C 557 128 710 0 864 0 
C 1050 0 1178 153 1178 307 
z
" transform="scale(0.015625)"/>
       </defs>
       <use xlink:href="#CMR17-30" transform="scale(0.996264)"/>
       <use xlink:href="#CMMI12-3a" transform="translate(45.690477 0) scale(0.996264)"/>
       <use xlink:href="#CMR17-30" transform="translate(72.787654 0) scale(0.996264)"/>
      </g>
     </g>
    </g>
    <g id="ytick_2">
     <g id="line2d_10">
      <path d="M 49.114497 203.0613 
L 607.114497 203.0613 
" clip-path="url(#p0de8d0de77)" style="fill: none; stroke-dasharray: 1.85,0.8; stroke-dashoffset: 0; stroke: #808080; stroke-width: 0.5"/>
     </g>
     <g id="line2d_11">
      <g>
       <use xlink:href="#m7cbe0a3662" x="49.114497" y="203.0613" style="stroke: #000000; stroke-width: 0.8"/>
      </g>
     </g>
     <g id="text_10">
      <!-- $\mathdefault{0.1}$ -->
      <g transform="translate(24.040702 208.077204) scale(0.145 -0.145)">
       <use xlink:href="#CMR17-30" transform="scale(0.996264)"/>
       <use xlink:href="#CMMI12-3a" transform="translate(45.690477 0) scale(0.996264)"/>
       <use xlink:href="#CMR17-31" transform="translate(72.787654 0) scale(0.996264)"/>
      </g>
     </g>
    </g>
    <g id="ytick_3">
     <g id="line2d_12">
      <path d="M 49.114497 158.7093 
L 607.114497 158.7093 
" clip-path="url(#p0de8d0de77)" style="fill: none; stroke-dasharray: 1.85,0.8; stroke-dashoffset: 0; stroke: #808080; stroke-width: 0.5"/>
     </g>
     <g id="line2d_13">
      <g>
       <use xlink:href="#m7cbe0a3662" x="49.114497" y="158.7093" style="stroke: #000000; stroke-width: 0.8"/>
      </g>
     </g>
     <g id="text_11">
      <!-- $\mathdefault{0.2}$ -->
      <g transform="translate(24.040702 163.725204) scale(0.145 -0.145)">
       <use xlink:href="#CMR17-30" transform="scale(0.996264)"/>
       <use xlink:href="#CMMI12-3a" transform="translate(45.690477 0) scale(0.996264)"/>
       <use xlink:href="#CMR17-32" transform="translate(72.787654 0) scale(0.996264)"/>
      </g>
     </g>
    </g>
    <g id="ytick_4">
     <g id="line2d_14">
      <path d="M 49.114497 114.3573 
L 607.114497 114.3573 
" clip-path="url(#p0de8d0de77)" style="fill: none; stroke-dasharray: 1.85,0.8; stroke-dashoffset: 0; stroke: #808080; stroke-width: 0.5"/>
     </g>
     <g id="line2d_15">
      <g>
       <use xlink:href="#m7cbe0a3662" x="49.114497" y="114.3573" style="stroke: #000000; stroke-width: 0.8"/>
      </g>
     </g>
     <g id="text_12">
      <!-- $\mathdefault{0.3}$ -->
      <g transform="translate(24.040702 119.373204) scale(0.145 -0.145)">
       <use xlink:href="#CMR17-30" transform="scale(0.996264)"/>
       <use xlink:href="#CMMI12-3a" transform="translate(45.690477 0) scale(0.996264)"/>
       <use xlink:href="#CMR17-33" transform="translate(72.787654 0) scale(0.996264)"/>
      </g>
     </g>
    </g>
    <g id="ytick_5">
     <g id="line2d_16">
      <path d="M 49.114497 70.0053 
L 607.114497 70.0053 
" clip-path="url(#p0de8d0de77)" style="fill: none; stroke-dasharray: 1.85,0.8; stroke-dashoffset: 0; stroke: #808080; stroke-width: 0.5"/>
     </g>
     <g id="line2d_17">
      <g>
       <use xlink:href="#m7cbe0a3662" x="49.114497" y="70.0053" style="stroke: #000000; stroke-width: 0.8"/>
      </g>
     </g>
     <g id="text_13">
      <!-- $\mathdefault{0.4}$ -->
      <g transform="translate(24.040702 75.021204) scale(0.145 -0.145)">
       <use xlink:href="#CMR17-30" transform="scale(0.996264)"/>
       <use xlink:href="#CMMI12-3a" transform="translate(45.690477 0) scale(0.996264)"/>
       <use xlink:href="#CMR17-34" transform="translate(72.787654 0) scale(0.996264)"/>
      </g>
     </g>
    </g>
    <g id="ytick_6">
     <g id="line2d_18">
      <path d="M 49.114497 25.6533 
L 607.114497 25.6533 
" clip-path="url(#p0de8d0de77)" style="fill: none; stroke-dasharray: 1.85,0.8; stroke-dashoffset: 0; stroke: #808080; stroke-width: 0.5"/>
     </g>
     <g id="line2d_19">
      <g>
       <use xlink:href="#m7cbe0a3662" x="49.114497" y="25.6533" style="stroke: #000000; stroke-width: 0.8"/>
      </g>
     </g>
     <g id="text_14">
      <!-- $\mathdefault{0.5}$ -->
      <g transform="translate(24.040702 30.669204) scale(0.145 -0.145)">
       <use xlink:href="#CMR17-30" transform="scale(0.996264)"/>
       <use xlink:href="#CMMI12-3a" transform="translate(45.690477 0) scale(0.996264)"/>
       <use xlink:href="#CMR17-35" transform="translate(72.787654 0) scale(0.996264)"/>
      </g>
     </g>
    </g>
    <g id="text_15">
     <!-- QoS -->
     <g transform="translate(17.231808 149.215053) rotate(-90) scale(0.145 -0.145)">
      <defs>
       <path id="CMSS17-51" d="M 3200 202 
C 3981 833 4096 1689 4096 2174 
C 4096 3501 3219 4497 2214 4497 
C 1210 4497 333 3497 333 2178 
C 333 847 1222 -128 2214 -128 
C 2438 -128 2630 -77 2765 -26 
L 3302 -832 
L 3930 -832 
L 3200 202 
z
M 2528 324 
C 2438 293 2330 273 2214 273 
C 1523 273 858 993 858 2178 
C 858 3357 1517 4096 2214 4096 
C 2918 4096 3571 3350 3571 2178 
C 3571 1771 3507 1089 2950 566 
L 2490 1210 
L 1939 1210 
L 2528 324 
z
" transform="scale(0.015625)"/>
       <path id="CMSS17-6f" d="M 2829 1356 
C 2829 2176 2221 2816 1504 2816 
C 768 2816 173 2157 173 1356 
C 173 544 787 -64 1498 -64 
C 2227 -64 2829 563 2829 1356 
z
M 1504 337 
C 1050 337 659 709 659 1408 
C 659 2151 1114 2427 1498 2427 
C 1914 2427 2342 2126 2342 1408 
C 2342 683 1926 337 1504 337 
z
" transform="scale(0.015625)"/>
       <path id="CMSS17-53" d="M 2797 4169 
C 2515 4334 2208 4480 1690 4480 
C 864 4480 333 3879 333 3266 
C 333 3025 403 2753 653 2475 
C 902 2196 1184 2121 1542 2033 
C 1690 1994 1939 1924 1984 1906 
C 2342 1767 2515 1444 2515 1140 
C 2515 742 2202 318 1645 318 
C 1453 318 890 318 358 819 
L 269 318 
C 794 -64 1363 -128 1651 -128 
C 2438 -128 3002 488 3002 1186 
C 3002 1440 2925 1763 2656 2061 
C 2394 2347 2163 2410 1638 2549 
C 1338 2626 1146 2677 986 2873 
C 877 3013 819 3146 819 3317 
C 819 3673 1126 4060 1690 4060 
C 1971 4060 2336 4002 2707 3660 
L 2797 4169 
z
" transform="scale(0.015625)"/>
      </defs>
      <use xlink:href="#CMSS17-51" transform="scale(0.996264)"/>
      <use xlink:href="#CMSS17-6f" transform="translate(69.024255 0) scale(0.996264)"/>
      <use xlink:href="#CMSS17-53" transform="translate(115.867879 0) scale(0.996264)"/>
     </g>
    </g>
   </g>
   <g id="line2d_20">
    <path d="M 74.478133 148.018251 
L 108.390516 148.06482 
L 109.803532 166.599077 
L 115.455596 166.599077 
L 116.868612 171.874748 
L 123.933691 171.874748 
L 125.346707 171.6419 
L 169.150202 171.688469 
L 170.563218 171.501747 
L 177.628298 171.501747 
L 179.041314 171.6419 
L 184.693377 171.6419 
L 186.106393 184.246295 
L 193.171473 184.246295 
L 194.584489 195.12451 
L 200.236553 195.12451 
L 201.649569 194.611357 
L 262.409255 194.704496 
L 263.822271 198.999987 
L 269.474335 198.999987 
L 270.887351 217.300643 
L 277.95243 217.300643 
L 279.365446 219.214742 
L 285.01751 219.214742 
L 286.430526 219.68168 
L 293.495606 219.68168 
L 294.908622 219.821744 
L 347.190212 219.821744 
L 348.603228 202.781572 
L 354.255292 202.781572 
L 355.668308 198.859392 
L 361.320372 198.859392 
L 362.733388 198.298782 
L 369.798467 198.298782 
L 371.211483 198.159074 
L 385.341643 198.159074 
L 386.754659 198.532517 
L 392.406723 198.532517 
L 393.819738 198.345795 
L 423.493074 198.392365 
L 424.906089 186.626667 
L 430.558153 186.626667 
L 431.971169 178.925385 
L 439.036249 178.925385 
L 440.449265 178.317763 
L 492.730855 178.317763 
L 494.143871 178.457472 
L 499.795935 178.457472 
L 501.208951 177.243557 
L 508.274031 177.243557 
L 509.687047 162.957778 
L 515.33911 162.957778 
L 516.752126 161.557142 
L 523.817206 161.557142 
L 525.230222 161.323407 
L 569.033717 161.37042 
L 570.446733 161.510572 
L 577.511812 161.510572 
L 578.924828 161.230268 
L 581.75086 161.230268 
L 581.75086 161.230268 
" clip-path="url(#p0de8d0de77)" style="fill: none; stroke: #482475; stroke-width: 2.5; stroke-linecap: square"/>
   </g>
   <g id="line2d_21">
    <path d="M 74.478133 191.062754 
L 77.304165 191.062754 
L 78.717181 188.775077 
L 85.782261 188.775077 
L 87.195277 180.791274 
L 92.84734 180.791274 
L 94.260356 163.19107 
L 101.325436 163.19107 
L 102.738452 136.5333 
L 108.390516 136.5333 
L 109.803532 141.481653 
L 115.455596 141.481653 
L 116.868612 139.61399 
L 123.933691 139.61399 
L 125.346707 139.381586 
L 130.998771 139.381586 
L 132.411787 139.661447 
L 139.476867 139.661447 
L 140.889883 139.801155 
L 184.693377 139.801155 
L 186.106393 167.251939 
L 193.171473 167.251939 
L 194.584489 175.844252 
L 200.236553 175.844252 
L 201.649569 175.329325 
L 208.714649 175.329325 
L 210.127665 175.93606 
L 231.322904 175.93606 
L 232.73592 175.795908 
L 262.409255 175.842478 
L 263.822271 183.779712 
L 269.474335 183.779712 
L 270.887351 208.943795 
L 277.95243 208.943795 
L 279.365446 207.683266 
L 285.01751 207.683266 
L 286.430526 208.196774 
L 293.495606 208.196774 
L 294.908622 208.476857 
L 323.168941 208.523559 
L 325.994973 208.61692 
L 331.647037 208.61692 
L 333.060052 208.476857 
L 347.190212 208.476857 
L 348.603228 181.165605 
L 354.255292 181.165605 
L 355.668308 175.889934 
L 423.493074 175.796352 
L 424.906089 158.19526 
L 430.558153 158.19526 
L 431.971169 140.407891 
L 439.036249 140.407891 
L 440.449265 139.707573 
L 477.18768 139.661003 
L 478.600696 139.894295 
L 485.665775 139.894295 
L 487.078791 139.661003 
L 492.730855 139.661003 
L 494.143871 139.941751 
L 508.274031 139.988764 
L 509.687047 113.797578 
L 515.33911 113.797578 
L 516.752126 112.116194 
L 581.75086 112.069624 
L 581.75086 112.069624 
" clip-path="url(#p0de8d0de77)" style="fill: none; stroke: #bddf26; stroke-width: 2.5; stroke-linecap: square"/>
   </g>
   <g id="patch_3">
    <path d="M 49.114497 247.4133 
L 49.114497 25.6533 
" style="fill: none; stroke: #000000; stroke-width: 0.8; stroke-linejoin: miter; stroke-linecap: square"/>
   </g>
   <g id="patch_4">
    <path d="M 607.114497 247.4133 
L 607.114497 25.6533 
" style="fill: none; stroke: #000000; stroke-width: 0.8; stroke-linejoin: miter; stroke-linecap: square"/>
   </g>
   <g id="patch_5">
    <path d="M 49.114497 247.4133 
L 607.114497 247.4133 
" style="fill: none; stroke: #000000; stroke-width: 0.8; stroke-linejoin: miter; stroke-linecap: square"/>
   </g>
   <g id="text_16">
    <!-- $Scale\textrm{- -}free\ topology\ -\ graceful\ degradation\ and\ recovery$ -->
    <g transform="translate(96.351459 19.6533) scale(0.18 -0.18)">
     <defs>
      <path id="CMMI12-53" d="M 4064 4423 
C 4064 4480 4019 4480 4006 4480 
C 3981 4480 3974 4474 3898 4378 
C 3859 4333 3597 4001 3590 3995 
C 3379 4410 2957 4480 2688 4480 
C 1875 4480 1139 3743 1139 3025 
C 1139 2549 1427 2269 1741 2161 
C 1811 2135 2189 2033 2381 1989 
C 2707 1900 2790 1875 2925 1735 
C 2950 1703 3078 1557 3078 1258 
C 3078 667 2528 57 1888 57 
C 1363 57 781 280 781 991 
C 781 1112 806 1265 826 1328 
C 826 1348 832 1378 832 1391 
C 832 1417 819 1449 768 1449 
C 710 1449 704 1436 678 1328 
L 352 24 
C 352 18 326 -64 326 -71 
C 326 -128 378 -128 390 -128 
C 416 -128 422 -122 499 -26 
L 794 356 
C 947 126 1280 -128 1875 -128 
C 2701 -128 3456 666 3456 1460 
C 3456 1728 3392 1963 3149 2197 
C 3014 2331 2899 2363 2310 2516 
C 1882 2630 1824 2649 1709 2751 
C 1600 2858 1517 3011 1517 3227 
C 1517 3761 2061 4308 2669 4308 
C 3296 4308 3590 3926 3590 3323 
C 3590 3158 3558 2986 3558 2961 
C 3558 2903 3610 2903 3629 2903 
C 3686 2903 3693 2922 3718 3024 
L 4064 4423 
z
" transform="scale(0.015625)"/>
      <path id="CMMI12-63" d="M 2502 2431 
C 2381 2431 2323 2431 2234 2355 
C 2195 2323 2125 2227 2125 2125 
C 2125 1997 2221 1920 2342 1920 
C 2496 1920 2669 2044 2669 2292 
C 2669 2588 2374 2816 1933 2816 
C 1094 2816 256 1903 256 996 
C 256 441 602 -64 1254 -64 
C 2125 -64 2675 622 2675 706 
C 2675 744 2637 776 2611 776 
C 2592 776 2586 770 2528 713 
C 2118 162 1510 64 1267 64 
C 826 64 685 446 685 764 
C 685 988 794 1605 1024 2039 
C 1190 2338 1536 2682 1939 2682 
C 2022 2682 2374 2682 2502 2431 
z
" transform="scale(0.015625)"/>
      <path id="CMMI12-61" d="M 1926 760 
C 1894 651 1894 639 1805 517 
C 1664 338 1382 64 1082 64 
C 819 64 672 300 672 677 
C 672 1028 870 1743 992 2012 
C 1210 2459 1510 2689 1760 2689 
C 2182 2689 2266 2165 2266 2114 
C 2266 2108 2246 2024 2240 2012 
L 1926 760 
z
M 2336 2395 
C 2266 2561 2093 2816 1760 2816 
C 1037 2816 256 1884 256 939 
C 256 307 627 -64 1062 -64 
C 1414 -64 1715 211 1894 422 
C 1958 45 2259 -64 2451 -64 
C 2643 -64 2797 51 2912 281 
C 3014 498 3104 888 3104 913 
C 3104 945 3078 971 3040 971 
C 2982 971 2976 939 2950 843 
C 2854 466 2733 64 2470 64 
C 2285 64 2272 230 2272 358 
C 2272 505 2291 575 2349 824 
C 2394 984 2426 1124 2477 1309 
C 2714 2267 2771 2497 2771 2535 
C 2771 2625 2701 2695 2605 2695 
C 2400 2695 2349 2472 2336 2395 
z
" transform="scale(0.015625)"/>
      <path id="CMMI12-6c" d="M 1626 4257 
C 1632 4282 1645 4320 1645 4352 
C 1645 4416 1581 4416 1568 4416 
C 1562 4416 1331 4393 1216 4377 
C 1107 4377 1011 4358 896 4358 
C 742 4345 698 4339 698 4224 
C 698 4160 762 4160 826 4160 
C 1152 4160 1152 4102 1152 4039 
C 1152 4014 1152 4001 1120 3887 
L 326 731 
C 307 661 294 610 294 509 
C 294 191 531 -64 858 -64 
C 1069 -64 1210 76 1312 274 
C 1421 483 1510 884 1510 909 
C 1510 941 1485 967 1446 967 
C 1389 967 1382 935 1357 840 
C 1242 401 1126 64 870 64 
C 678 64 678 267 678 357 
C 678 382 678 515 723 694 
L 1626 4257 
z
" transform="scale(0.015625)"/>
      <path id="CMMI12-65" d="M 1146 1479 
C 1318 1479 1754 1479 2061 1595 
C 2547 1783 2592 2158 2592 2274 
C 2592 2558 2349 2816 1926 2816 
C 1254 2816 288 2210 288 1073 
C 288 402 672 -64 1254 -64 
C 2125 -64 2675 609 2675 692 
C 2675 730 2637 762 2611 762 
C 2592 762 2586 756 2528 699 
C 2118 159 1510 64 1267 64 
C 902 64 710 350 710 822 
C 710 911 710 1071 806 1479 
L 1146 1479 
z
M 838 1600 
C 1114 2592 1722 2689 1926 2689 
C 2208 2689 2400 2522 2400 2277 
C 2400 1600 1376 1600 1107 1600 
L 838 1600 
z
" transform="scale(0.015625)"/>
      <path id="CMR17-7b" d="M 2970 1664 
L 2970 1766 
L -38 1766 
L -38 1664 
L 2970 1664 
z
" transform="scale(0.015625)"/>
      <path id="CMMI12-66" d="M 2854 2566 
C 2982 2566 3034 2566 3034 2688 
C 3034 2752 2982 2752 2867 2752 
L 2349 2752 
C 2470 3429 2560 3897 2611 4107 
C 2650 4265 2784 4416 2950 4416 
C 3085 4416 3219 4358 3283 4298 
C 3034 4272 2957 4082 2957 3969 
C 2957 3837 3053 3759 3174 3759 
C 3302 3759 3494 3870 3494 4119 
C 3494 4393 3226 4544 2944 4544 
C 2669 4544 2400 4334 2272 4078 
C 2157 3848 2093 3611 1946 2752 
L 1517 2752 
C 1395 2752 1331 2752 1331 2637 
C 1331 2566 1370 2566 1498 2566 
L 1907 2566 
C 1792 1976 1530 542 1382 -137 
C 1274 -689 1178 -1152 858 -1152 
C 838 -1152 653 -1152 538 -1031 
C 864 -1005 864 -726 864 -720 
C 864 -593 768 -517 646 -517 
C 518 -517 326 -625 326 -867 
C 326 -1140 608 -1280 858 -1280 
C 1510 -1280 1779 -118 1850 199 
C 1965 688 2278 2376 2310 2566 
L 2854 2566 
z
" transform="scale(0.015625)"/>
      <path id="CMMI12-72" d="M 2490 2612 
C 2291 2574 2189 2433 2189 2293 
C 2189 2139 2310 2088 2400 2088 
C 2579 2088 2726 2242 2726 2433 
C 2726 2638 2528 2816 2208 2816 
C 1952 2816 1658 2701 1389 2312 
C 1344 2650 1088 2816 832 2816 
C 582 2816 454 2625 378 2484 
C 269 2254 173 1871 173 1839 
C 173 1814 198 1782 243 1782 
C 294 1782 301 1788 339 1935 
C 435 2318 557 2689 813 2689 
C 966 2689 1011 2580 1011 2395 
C 1011 2254 947 2005 902 1807 
L 723 1118 
C 698 996 627 709 595 594 
C 550 428 480 128 480 96 
C 480 6 550 -64 646 -64 
C 717 -64 838 -19 877 109 
C 896 160 1133 1124 1171 1271 
C 1203 1411 1242 1546 1274 1686 
C 1299 1775 1325 1878 1344 1961 
C 1363 2018 1536 2331 1696 2472 
C 1773 2542 1939 2689 2202 2689 
C 2304 2689 2406 2670 2490 2612 
z
" transform="scale(0.015625)"/>
      <path id="CMMI12-74" d="M 1286 2566 
L 1875 2566 
C 1997 2566 2061 2566 2061 2681 
C 2061 2752 2022 2752 1894 2752 
L 1331 2752 
L 1568 3692 
C 1594 3781 1594 3794 1594 3840 
C 1594 3943 1510 4000 1427 4000 
C 1376 4000 1229 3981 1178 3775 
L 928 2752 
L 326 2752 
C 198 2752 141 2752 141 2630 
C 141 2566 186 2566 307 2566 
L 877 2566 
L 454 881 
C 403 658 384 594 384 511 
C 384 211 595 -64 954 -64 
C 1600 -64 1946 868 1946 912 
C 1946 951 1920 970 1882 970 
C 1869 970 1843 970 1830 944 
C 1824 938 1818 931 1773 829 
C 1638 511 1344 64 973 64 
C 781 64 768 224 768 364 
C 768 370 768 492 787 568 
L 1286 2566 
z
" transform="scale(0.015625)"/>
      <path id="CMMI12-6f" d="M 2918 1756 
C 2918 2363 2522 2816 1939 2816 
C 1094 2816 262 1897 262 996 
C 262 390 659 -64 1242 -64 
C 2093 -64 2918 856 2918 1756 
z
M 1248 64 
C 928 64 691 319 691 766 
C 691 1060 845 1712 1024 2031 
C 1312 2523 1670 2689 1933 2689 
C 2246 2689 2490 2433 2490 1986 
C 2490 1731 2355 1047 2112 658 
C 1850 230 1498 64 1248 64 
z
" transform="scale(0.015625)"/>
      <path id="CMMI12-70" d="M 275 -789 
C 230 -980 205 -1031 -58 -1031 
C -134 -1031 -198 -1031 -198 -1152 
C -198 -1165 -192 -1216 -122 -1216 
C -38 -1216 51 -1216 134 -1216 
L 410 -1216 
C 544 -1216 870 -1216 1005 -1216 
C 1043 -1216 1120 -1216 1120 -1101 
C 1120 -1031 1075 -1031 966 -1031 
C 672 -1031 653 -987 653 -937 
C 653 -861 941 219 979 364 
C 1050 185 1222 -64 1555 -64 
C 2278 -64 3059 875 3059 1814 
C 3059 2401 2726 2816 2246 2816 
C 1837 2816 1491 2420 1421 2331 
C 1370 2650 1120 2816 864 2816 
C 678 2816 531 2727 410 2484 
C 294 2254 205 1865 205 1839 
C 205 1814 230 1782 275 1782 
C 326 1782 333 1788 371 1935 
C 467 2312 589 2689 845 2689 
C 992 2689 1043 2587 1043 2397 
C 1043 2245 1024 2181 998 2067 
L 275 -789 
z
M 1382 1993 
C 1427 2171 1606 2357 1709 2446 
C 1779 2510 1990 2689 2234 2689 
C 2515 2689 2643 2408 2643 2076 
C 2643 1769 2464 1047 2304 715 
C 2144 370 1850 64 1555 64 
C 1120 64 1050 613 1050 639 
C 1050 658 1062 709 1069 741 
L 1382 1993 
z
" transform="scale(0.015625)"/>
      <path id="CMMI12-67" d="M 2163 811 
C 2138 709 2125 683 2042 588 
C 1779 249 1510 128 1312 128 
C 1101 128 902 294 902 734 
C 902 1073 1094 1788 1235 2076 
C 1421 2433 1709 2689 1978 2689 
C 2400 2689 2483 2165 2483 2127 
L 2464 2037 
L 2163 811 
z
M 2560 2395 
C 2477 2580 2298 2816 1978 2816 
C 1280 2816 486 1941 486 990 
C 486 326 890 0 1299 0 
C 1638 0 1939 268 2054 396 
L 1914 -171 
C 1824 -516 1786 -674 1555 -894 
C 1293 -1152 1050 -1152 909 -1152 
C 717 -1152 557 -1139 397 -1089 
C 602 -1033 653 -858 653 -789 
C 653 -689 576 -588 435 -588 
C 282 -588 115 -714 115 -922 
C 115 -1180 378 -1280 922 -1280 
C 1747 -1280 2176 -753 2259 -410 
L 2970 2435 
C 2989 2511 2989 2524 2989 2536 
C 2989 2625 2918 2695 2822 2695 
C 2669 2695 2579 2567 2560 2395 
z
" transform="scale(0.015625)"/>
      <path id="CMMI12-79" d="M 1683 -700 
C 1510 -939 1261 -1152 947 -1152 
C 870 -1152 563 -1152 467 -889 
C 486 -895 518 -895 531 -895 
C 723 -895 851 -729 851 -582 
C 851 -435 730 -384 634 -384 
C 531 -384 307 -458 307 -759 
C 307 -1071 582 -1286 947 -1286 
C 1587 -1286 2234 -700 2413 6 
L 3040 2485 
C 3046 2517 3059 2556 3059 2594 
C 3059 2689 2982 2753 2886 2753 
C 2829 2753 2694 2727 2643 2535 
L 2170 658 
C 2138 543 2138 530 2086 460 
C 1958 281 1747 64 1440 64 
C 1082 64 1050 415 1050 588 
C 1050 952 1222 1443 1395 1903 
C 1466 2088 1504 2178 1504 2305 
C 1504 2574 1312 2816 998 2816 
C 410 2816 173 1890 173 1839 
C 173 1814 198 1782 243 1782 
C 301 1782 307 1807 333 1897 
C 486 2433 730 2689 979 2689 
C 1037 2689 1146 2689 1146 2478 
C 1146 2312 1075 2127 979 1884 
C 666 1047 666 837 666 683 
C 666 77 1101 -64 1421 -64 
C 1606 -64 1837 -6 2061 230 
L 2067 224 
C 1971 -147 1907 -392 1683 -700 
z
" transform="scale(0.015625)"/>
      <path id="CMSY10-0" d="M 4218 1472 
C 4326 1472 4442 1472 4442 1600 
C 4442 1728 4326 1728 4218 1728 
L 755 1728 
C 646 1728 531 1728 531 1600 
C 531 1472 646 1472 755 1472 
L 4218 1472 
z
" transform="scale(0.015625)"/>
      <path id="CMMI12-75" d="M 2182 370 
C 2266 13 2573 -64 2726 -64 
C 2931 -64 3085 70 3187 287 
C 3296 517 3379 894 3379 913 
C 3379 945 3354 971 3315 971 
C 3258 971 3251 939 3226 843 
C 3110 402 2995 64 2739 64 
C 2547 64 2547 275 2547 358 
C 2547 505 2566 568 2630 837 
C 2675 1009 2720 1181 2758 1360 
L 3021 2401 
C 3066 2561 3066 2574 3066 2593 
C 3066 2689 2989 2753 2893 2753 
C 2707 2753 2662 2593 2624 2433 
C 2560 2184 2214 811 2170 588 
C 2163 588 1914 64 1446 64 
C 1114 64 1050 351 1050 588 
C 1050 952 1229 1462 1395 1890 
C 1472 2095 1504 2178 1504 2305 
C 1504 2580 1306 2816 998 2816 
C 410 2816 173 1890 173 1839 
C 173 1814 198 1782 243 1782 
C 301 1782 307 1807 333 1896 
C 486 2441 736 2682 979 2682 
C 1043 2682 1146 2682 1146 2478 
C 1146 2312 1075 2127 979 1884 
C 698 1124 666 881 666 690 
C 666 38 1158 -64 1421 -64 
C 1830 -64 2054 217 2182 370 
z
" transform="scale(0.015625)"/>
      <path id="CMMI12-64" d="M 3219 4257 
C 3226 4282 3238 4320 3238 4352 
C 3238 4416 3174 4416 3162 4416 
C 3155 4416 2842 4388 2810 4380 
C 2701 4373 2605 4358 2490 4358 
C 2330 4345 2285 4339 2285 4224 
C 2285 4160 2336 4160 2426 4160 
C 2739 4160 2746 4103 2746 4040 
C 2746 4002 2733 3952 2726 3933 
L 2336 2395 
C 2266 2561 2093 2816 1760 2816 
C 1037 2816 256 1884 256 939 
C 256 307 627 -64 1062 -64 
C 1414 -64 1715 211 1894 422 
C 1958 45 2259 -64 2451 -64 
C 2643 -64 2797 51 2912 281 
C 3014 498 3104 888 3104 913 
C 3104 945 3078 971 3040 971 
C 2982 971 2976 939 2950 843 
C 2854 466 2733 64 2470 64 
C 2285 64 2272 229 2272 357 
C 2272 382 2272 515 2317 694 
L 3219 4257 
z
M 1926 760 
C 1894 651 1894 639 1805 517 
C 1664 338 1382 64 1082 64 
C 819 64 672 300 672 677 
C 672 1028 870 1743 992 2012 
C 1210 2459 1510 2689 1760 2689 
C 2182 2689 2266 2165 2266 2114 
C 2266 2108 2246 2024 2240 2012 
L 1926 760 
z
" transform="scale(0.015625)"/>
      <path id="CMMI12-69" d="M 1811 913 
C 1811 945 1786 971 1747 971 
C 1690 971 1683 952 1651 843 
C 1485 262 1222 64 1011 64 
C 934 64 845 83 845 275 
C 845 447 922 639 992 830 
L 1440 2018 
C 1459 2069 1504 2184 1504 2305 
C 1504 2574 1312 2816 998 2816 
C 410 2816 173 1890 173 1839 
C 173 1814 198 1782 243 1782 
C 301 1782 307 1807 333 1896 
C 486 2428 730 2682 979 2682 
C 1037 2682 1146 2682 1146 2478 
C 1146 2312 1062 2101 1011 1961 
L 563 773 
C 525 671 486 568 486 453 
C 486 166 685 -64 992 -64 
C 1581 -64 1811 869 1811 913 
z
M 1760 4013 
C 1760 4109 1683 4224 1542 4224 
C 1395 4224 1229 4083 1229 3917 
C 1229 3758 1363 3707 1440 3707 
C 1613 3707 1760 3873 1760 4013 
z
" transform="scale(0.015625)"/>
      <path id="CMMI12-6e" d="M 1318 1871 
C 1331 1910 1491 2229 1728 2433 
C 1894 2586 2112 2689 2362 2689 
C 2618 2689 2707 2497 2707 2242 
C 2707 1878 2445 1150 2317 805 
C 2259 651 2227 568 2227 453 
C 2227 166 2426 -64 2733 -64 
C 3328 -64 3552 875 3552 913 
C 3552 945 3526 971 3488 971 
C 3430 971 3424 952 3392 843 
C 3245 319 3002 64 2752 64 
C 2688 64 2586 64 2586 269 
C 2586 429 2656 621 2694 710 
C 2822 1063 3091 1780 3091 2145 
C 3091 2528 2867 2816 2381 2816 
C 1811 2816 1510 2415 1395 2255 
C 1376 2618 1114 2816 832 2816 
C 627 2816 486 2695 378 2478 
C 262 2248 173 1865 173 1839 
C 173 1814 198 1782 243 1782 
C 294 1782 301 1788 339 1935 
C 442 2325 557 2689 813 2689 
C 960 2689 1011 2586 1011 2395 
C 1011 2254 947 2005 902 1807 
L 723 1118 
C 698 996 627 709 595 594 
C 550 428 480 128 480 96 
C 480 6 550 -64 646 -64 
C 723 -64 813 -26 864 70 
C 877 102 934 326 966 453 
L 1107 1028 
L 1318 1871 
z
" transform="scale(0.015625)"/>
      <path id="CMMI12-76" d="M 2925 2389 
C 2925 2791 2720 2816 2669 2816 
C 2515 2816 2374 2663 2374 2535 
C 2374 2459 2419 2414 2445 2389 
C 2509 2331 2675 2159 2675 1827 
C 2675 1558 2291 64 1523 64 
C 1133 64 1056 390 1056 626 
C 1056 945 1203 1392 1376 1852 
C 1478 2114 1504 2178 1504 2305 
C 1504 2574 1312 2816 998 2816 
C 410 2816 173 1890 173 1839 
C 173 1814 198 1782 243 1782 
C 301 1782 307 1807 333 1897 
C 486 2446 736 2689 979 2689 
C 1037 2689 1146 2689 1146 2478 
C 1146 2312 1075 2127 979 1884 
C 672 1067 672 869 672 715 
C 672 575 691 313 890 134 
C 1120 -64 1440 -64 1498 -64 
C 2560 -64 2925 2024 2925 2389 
z
" transform="scale(0.015625)"/>
     </defs>
     <use xlink:href="#CMMI12-53" transform="scale(0.996264)"/>
     <use xlink:href="#CMMI12-63" transform="translate(65.794439 0) scale(0.996264)"/>
     <use xlink:href="#CMMI12-61" transform="translate(107.777673 0) scale(0.996264)"/>
     <use xlink:href="#CMMI12-6c" transform="translate(158.98553 0) scale(0.996264)"/>
     <use xlink:href="#CMMI12-65" transform="translate(190.233934 0) scale(0.996264)"/>
     <use xlink:href="#CMR17-7b" transform="translate(235.445935 0) scale(0.996264)"/>
     <use xlink:href="#CMMI12-66" transform="translate(281.136412 0) scale(0.996264)"/>
     <use xlink:href="#CMMI12-72" transform="translate(339.856717 0) scale(0.996264)"/>
     <use xlink:href="#CMMI12-65" transform="translate(386.527329 0) scale(0.996264)"/>
     <use xlink:href="#CMMI12-65" transform="translate(431.73933 0) scale(0.996264)"/>
     <use xlink:href="#CMMI12-74" transform="translate(508.180444 0) scale(0.996264)"/>
     <use xlink:href="#CMMI12-6f" transform="translate(543.406774 0) scale(0.996264)"/>
     <use xlink:href="#CMMI12-70" transform="translate(590.302084 0) scale(0.996264)"/>
     <use xlink:href="#CMMI12-6f" transform="translate(639.261598 0) scale(0.996264)"/>
     <use xlink:href="#CMMI12-6c" transform="translate(686.156907 0) scale(0.996264)"/>
     <use xlink:href="#CMMI12-6f" transform="translate(717.405311 0) scale(0.996264)"/>
     <use xlink:href="#CMMI12-67" transform="translate(764.300621 0) scale(0.996264)"/>
     <use xlink:href="#CMMI12-79" transform="translate(814.58611 0) scale(0.996264)"/>
     <use xlink:href="#CMSY10-0" transform="translate(919.093211 0) scale(0.996264)"/>
     <use xlink:href="#CMMI12-67" transform="translate(1049.948998 0) scale(0.996264)"/>
     <use xlink:href="#CMMI12-72" transform="translate(1100.234487 0) scale(0.996264)"/>
     <use xlink:href="#CMMI12-61" transform="translate(1146.9051 0) scale(0.996264)"/>
     <use xlink:href="#CMMI12-63" transform="translate(1198.112957 0) scale(0.996264)"/>
     <use xlink:href="#CMMI12-65" transform="translate(1240.096191 0) scale(0.996264)"/>
     <use xlink:href="#CMMI12-66" transform="translate(1285.308192 0) scale(0.996264)"/>
     <use xlink:href="#CMMI12-75" transform="translate(1344.028497 0) scale(0.996264)"/>
     <use xlink:href="#CMMI12-6c" transform="translate(1399.548826 0) scale(0.996264)"/>
     <use xlink:href="#CMMI12-64" transform="translate(1462.026343 0) scale(0.996264)"/>
     <use xlink:href="#CMMI12-65" transform="translate(1512.71544 0) scale(0.996264)"/>
     <use xlink:href="#CMMI12-67" transform="translate(1557.927441 0) scale(0.996264)"/>
     <use xlink:href="#CMMI12-72" transform="translate(1608.21293 0) scale(0.996264)"/>
     <use xlink:href="#CMMI12-61" transform="translate(1654.883542 0) scale(0.996264)"/>
     <use xlink:href="#CMMI12-64" transform="translate(1706.0914 0) scale(0.996264)"/>
     <use xlink:href="#CMMI12-61" transform="translate(1756.780497 0) scale(0.996264)"/>
     <use xlink:href="#CMMI12-74" transform="translate(1807.988354 0) scale(0.996264)"/>
     <use xlink:href="#CMMI12-69" transform="translate(1843.214684 0) scale(0.996264)"/>
     <use xlink:href="#CMMI12-6f" transform="translate(1876.493286 0) scale(0.996264)"/>
     <use xlink:href="#CMMI12-6e" transform="translate(1923.388596 0) scale(0.996264)"/>
     <use xlink:href="#CMMI12-61" transform="translate(2012.847756 0) scale(0.996264)"/>
     <use xlink:href="#CMMI12-6e" transform="translate(2064.055614 0) scale(0.996264)"/>
     <use xlink:href="#CMMI12-64" transform="translate(2122.285661 0) scale(0.996264)"/>
     <use xlink:href="#CMMI12-72" transform="translate(2204.20387 0) scale(0.996264)"/>
     <use xlink:href="#CMMI12-65" transform="translate(2250.874483 0) scale(0.996264)"/>
     <use xlink:href="#CMMI12-63" transform="translate(2296.086484 0) scale(0.996264)"/>
     <use xlink:href="#CMMI12-6f" transform="translate(2338.069717 0) scale(0.996264)"/>
     <use xlink:href="#CMMI12-76" transform="translate(2384.965027 0) scale(0.996264)"/>
     <use xlink:href="#CMMI12-65" transform="translate(2435.7002 0) scale(0.996264)"/>
     <use xlink:href="#CMMI12-72" transform="translate(2480.912201 0) scale(0.996264)"/>
     <use xlink:href="#CMMI12-79" transform="translate(2527.582813 0) scale(0.996264)"/>
    </g>
   </g>
   <g id="legend_1">
    <g id="patch_6">
     <path d="M 463.756755 80.644956 
L 596.964497 80.644956 
Q 599.864497 80.644956 599.864497 77.744956 
L 599.864497 35.8033 
Q 599.864497 32.9033 596.964497 32.9033 
L 463.756755 32.9033 
Q 460.856755 32.9033 460.856755 35.8033 
L 460.856755 77.744956 
Q 460.856755 80.644956 463.756755 80.644956 
z
" style="fill: #ffffff; opacity: 0.8; stroke: #cccccc; stroke-linejoin: miter"/>
    </g>
    <g id="line2d_22">
     <path d="M 466.656755 44.462671 
L 481.156755 44.462671 
L 495.656755 44.462671 
" style="fill: none; stroke: #482475; stroke-width: 2.5; stroke-linecap: square"/>
    </g>
    <g id="text_17">
     <!-- QoS [static] -->
     <g transform="translate(507.256755 49.537671) scale(0.145 -0.145)">
      <defs>
       <path id="CMSS17-5b" d="M 1613 -1600 
L 1613 -1212 
L 1062 -1212 
L 1062 4352 
L 1613 4352 
L 1613 4741 
L 595 4741 
L 595 -1600 
L 1613 -1600 
z
" transform="scale(0.015625)"/>
       <path id="CMSS17-73" d="M 2061 2627 
C 1683 2807 1389 2807 1197 2807 
C 742 2807 198 2648 198 2003 
C 198 1359 902 1218 1094 1179 
C 1389 1122 1715 1058 1715 740 
C 1715 337 1254 337 1171 337 
C 915 337 563 407 243 638 
L 166 210 
C 531 0 883 -64 1178 -64 
C 1965 -64 2163 416 2163 781 
C 2163 1094 1984 1305 1862 1401 
C 1651 1568 1574 1587 1050 1696 
C 960 1709 646 1779 646 2066 
C 646 2432 1050 2432 1139 2432 
C 1555 2432 1811 2303 1984 2208 
L 2061 2627 
z
" transform="scale(0.015625)"/>
       <path id="CMSS17-61" d="M 2406 1791 
C 2406 2392 1978 2808 1402 2808 
C 1120 2808 813 2757 461 2553 
L 499 2135 
C 659 2248 934 2432 1395 2432 
C 1722 2432 1920 2180 1920 1782 
L 1920 1536 
C 896 1536 256 1238 256 726 
C 256 461 416 -64 947 -64 
C 1043 -64 1562 -64 1933 217 
L 1933 -19 
L 2406 -19 
L 2406 1791 
z
M 1920 816 
C 1920 701 1920 548 1728 434 
C 1562 325 1350 325 1261 325 
C 941 325 723 511 723 744 
C 723 1211 1722 1211 1920 1211 
L 1920 816 
z
" transform="scale(0.015625)"/>
       <path id="CMSS17-63" d="M 2464 2541 
C 2464 2585 2170 2714 2093 2739 
C 1882 2816 1613 2816 1542 2816 
C 710 2816 211 2093 211 1363 
C 211 595 768 -64 1517 -64 
C 1946 -64 2253 76 2502 242 
L 2464 664 
C 2189 453 1869 337 1523 337 
C 1024 337 698 774 698 1369 
C 698 1831 909 2414 1549 2414 
C 1901 2414 2099 2343 2394 2145 
L 2464 2541 
z
" transform="scale(0.015625)"/>
       <path id="CMSS17-5d" d="M 1146 4741 
L 128 4741 
L 128 4352 
L 678 4352 
L 678 -1212 
L 128 -1212 
L 128 -1600 
L 1146 -1600 
L 1146 4741 
z
" transform="scale(0.015625)"/>
      </defs>
      <use xlink:href="#CMSS17-51" transform="scale(0.996264)"/>
      <use xlink:href="#CMSS17-6f" transform="translate(69.024255 0) scale(0.996264)"/>
      <use xlink:href="#CMSS17-53" transform="translate(115.867879 0) scale(0.996264)"/>
      <use xlink:href="#CMSS17-5b" transform="translate(199.145508 0) scale(0.996264)"/>
      <use xlink:href="#CMSS17-73" transform="translate(226.330946 0) scale(0.996264)"/>
      <use xlink:href="#CMSS17-74" transform="translate(262.244488 0) scale(0.996264)"/>
      <use xlink:href="#CMSS17-61" transform="translate(296.076055 0) scale(0.996264)"/>
      <use xlink:href="#CMSS17-74" transform="translate(340.997976 0) scale(0.996264)"/>
      <use xlink:href="#CMSS17-69" transform="translate(374.829542 0) scale(0.996264)"/>
      <use xlink:href="#CMSS17-63" transform="translate(397.010265 0) scale(0.996264)"/>
      <use xlink:href="#CMSS17-5d" transform="translate(438.649088 0) scale(0.996264)"/>
     </g>
    </g>
    <g id="line2d_23">
     <path d="M 466.656755 66.158499 
L 481.156755 66.158499 
L 495.656755 66.158499 
" style="fill: none; stroke: #bddf26; stroke-width: 2.5; stroke-linecap: square"/>
    </g>
    <g id="text_18">
     <!-- QoS [dynamic] -->
     <g transform="translate(507.256755 71.233499) scale(0.145 -0.145)">
      <defs>
       <path id="CMSS17-64" d="M 2611 4416 
L 2138 4416 
L 2138 2438 
C 1939 2603 1613 2756 1254 2756 
C 672 2756 211 2131 211 1347 
C 211 562 666 -64 1235 -64 
C 1677 -64 1971 172 2125 306 
L 2125 -13 
L 2611 -13 
L 2611 4416 
z
M 2125 836 
C 2125 747 2125 653 1926 482 
C 1798 375 1645 325 1498 325 
C 1152 325 698 576 698 1340 
C 698 2134 1210 2368 1562 2368 
C 1798 2368 1990 2254 2125 2065 
L 2125 836 
z
" transform="scale(0.015625)"/>
       <path id="CMSS17-79" d="M 2675 2752 
L 2176 2752 
C 1632 1294 1446 702 1434 383 
L 1427 383 
C 1408 696 1126 1460 902 2007 
L 602 2752 
L 83 2752 
L 1216 13 
C 1146 -178 1043 -465 1011 -529 
C 870 -885 774 -885 672 -885 
C 646 -885 442 -885 211 -809 
L 250 -1229 
C 410 -1261 570 -1280 685 -1280 
C 845 -1280 1165 -1280 1459 -497 
L 2675 2752 
z
" transform="scale(0.015625)"/>
       <path id="CMSS17-6e" d="M 2618 1877 
C 2618 2283 2522 2816 1798 2816 
C 1389 2816 1120 2606 941 2389 
L 941 2758 
L 474 2758 
L 474 0 
L 960 0 
L 960 1559 
C 960 1964 1114 2428 1549 2428 
C 2112 2428 2131 2048 2131 1829 
L 2131 0 
L 2618 0 
L 2618 1877 
z
" transform="scale(0.015625)"/>
      </defs>
      <use xlink:href="#CMSS17-51" transform="scale(0.996264)"/>
      <use xlink:href="#CMSS17-6f" transform="translate(69.024255 0) scale(0.996264)"/>
      <use xlink:href="#CMSS17-53" transform="translate(115.867879 0) scale(0.996264)"/>
      <use xlink:href="#CMSS17-5b" transform="translate(199.145508 0) scale(0.996264)"/>
      <use xlink:href="#CMSS17-64" transform="translate(226.330946 0) scale(0.996264)"/>
      <use xlink:href="#CMSS17-79" transform="translate(274.53589 0) scale(0.996264)"/>
      <use xlink:href="#CMSS17-6e" transform="translate(317.536031 0) scale(0.996264)"/>
      <use xlink:href="#CMSS17-61" transform="translate(365.740974 0) scale(0.996264)"/>
      <use xlink:href="#CMSS17-6d" transform="translate(410.662895 0) scale(0.996264)"/>
      <use xlink:href="#CMSS17-69" transform="translate(484.892149 0) scale(0.996264)"/>
      <use xlink:href="#CMSS17-63" transform="translate(507.072872 0) scale(0.996264)"/>
      <use xlink:href="#CMSS17-5d" transform="translate(548.711695 0) scale(0.996264)"/>
     </g>
    </g>
   </g>
  </g>
 </g>
 <defs>
  <clipPath id="p0de8d0de77">
   <rect x="49.114497" y="25.6533" width="558" height="221.76"/>
  </clipPath>
 </defs>
</svg>
