<?xml version="1.0" encoding="utf-8" standalone="no"?>
<!DOCTYPE svg PUBLIC "-//W3C//DTD SVG 1.1//EN"
  "http://www.w3.org/Graphics/SVG/1.1/DTD/svg11.dtd">
<svg xmlns:xlink="http://www.w3.org/1999/xlink" width="720pt" height="360pt" viewBox="0 0 720 360" xmlns="http://www.w3.org/2000/svg" version="1.1">
 <metadata>
  <rdf:RDF xmlns:dc="http://purl.org/dc/elements/1.1/" xmlns:cc="http://creativecommons.org/ns#" xmlns:rdf="http://www.w3.org/1999/02/22-rdf-syntax-ns#">
   <cc:Work>
    <dc:type rdf:resource="http://purl.org/dc/dcmitype/StillImage"/>
    <dc:date>2024-06-13T14:26:54.932458</dc:date>
    <dc:format>image/svg+xml</dc:format>
    <dc:creator>
     <cc:Agent>
      <dc:title>Matplotlib v3.9.0, https://matplotlib.org/</dc:title>
     </cc:Agent>
    </dc:creator>
   </cc:Work>
  </rdf:RDF>
 </metadata>
 <defs>
  <style type="text/css">*{stroke-linejoin: round; stroke-linecap: butt}</style>
 </defs>
 <g id="figure_1">
  <g id="patch_1">
   <path d="M 0 360 
L 720 360 
L 720 0 
L 0 0 
z
" style="fill: #ffffff"/>
  </g>
  <g id="axes_1">
   <g id="patch_2">
    <path d="M 90 320.4 
L 648 320.4 
L 648 43.2 
L 90 43.2 
z
" style="fill: #ffffff"/>
   </g>
   <g id="PolyCollection_1">
    <defs>
     <path id="m057c516a93" d="M 115.363636 -116.000016 
L 115.363636 -183.584016 
L 116.776652 -183.584016 
L 118.189668 -183.584016 
L 119.602684 -183.584016 
L 121.0157 -183.584016 
L 122.428716 -183.584016 
L 123.841732 -183.584016 
L 125.254748 -183.584016 
L 126.667764 -183.584016 
L 128.08078 -183.584016 
L 129.493796 -183.584016 
L 130.906812 -183.584016 
L 132.319828 -183.584016 
L 133.732844 -183.584016 
L 135.14586 -183.584016 
L 136.558876 -183.584016 
L 137.971892 -183.584016 
L 139.384908 -183.584016 
L 140.797924 -183.584016 
L 142.210939 -183.584016 
L 143.623955 -183.584016 
L 145.036971 -183.584016 
L 146.449987 -183.584016 
L 147.863003 -183.584016 
L 149.276019 -183.584016 
L 150.689035 -183.584016 
L 152.102051 -183.584016 
L 153.515067 -183.584016 
L 154.928083 -183.584016 
L 156.341099 -183.584016 
L 157.754115 -183.584016 
L 159.167131 -183.584016 
L 160.580147 -183.584016 
L 161.993163 -183.584016 
L 163.406179 -183.584016 
L 164.819195 -183.584016 
L 166.232211 -183.584016 
L 167.645227 -183.584016 
L 169.058243 -183.584016 
L 170.471259 -183.584016 
L 171.884274 -183.584016 
L 173.29729 -183.584016 
L 174.710306 -183.584016 
L 176.123322 -183.584016 
L 177.536338 -183.584016 
L 178.949354 -183.584016 
L 180.36237 -183.584016 
L 181.775386 -183.584016 
L 183.188402 -183.584016 
L 184.601418 -183.584016 
L 186.014434 -183.584016 
L 187.42745 -183.584016 
L 188.840466 -183.584016 
L 190.253482 -183.584016 
L 191.666498 -183.584016 
L 193.079514 -183.584016 
L 194.49253 -183.584016 
L 195.905546 -183.584016 
L 197.318562 -183.584016 
L 198.731578 -183.584016 
L 200.144594 -183.584016 
L 201.55761 -183.584016 
L 202.970625 -183.584016 
L 204.383641 -183.584016 
L 205.796657 -183.584016 
L 207.209673 -183.584016 
L 208.622689 -183.584016 
L 210.035705 -183.584016 
L 211.448721 -183.584016 
L 212.861737 -183.584016 
L 214.274753 -183.584016 
L 215.687769 -183.584016 
L 217.100785 -183.584016 
L 218.513801 -183.584016 
L 219.926817 -183.584016 
L 221.339833 -183.584016 
L 222.752849 -183.584016 
L 224.165865 -183.584016 
L 225.578881 -183.584016 
L 226.991897 -171.63109 
L 228.404913 -171.63109 
L 229.817929 -171.63109 
L 231.230945 -171.63109 
L 232.64396 -171.63109 
L 234.056976 -171.63109 
L 235.469992 -182.321846 
L 236.883008 -182.321846 
L 238.296024 -182.321846 
L 239.70904 -182.321846 
L 241.122056 -182.321846 
L 242.535072 -178.424369 
L 243.948088 -178.424369 
L 245.361104 -178.424369 
L 246.77412 -178.424369 
L 248.187136 -178.424369 
L 249.600152 -178.424369 
L 251.013168 -149.881348 
L 252.426184 -149.881348 
L 253.8392 -149.881348 
L 255.252216 -149.881348 
L 256.665232 -149.881348 
L 258.078248 -133.355376 
L 259.491264 -133.355376 
L 260.90428 -133.355376 
L 262.317296 -133.355376 
L 263.730311 -133.355376 
L 265.143327 -133.355376 
L 266.556343 -133.355376 
L 267.969359 -133.355376 
L 269.382375 -133.355376 
L 270.795391 -133.355376 
L 272.208407 -133.355376 
L 273.621423 -133.355376 
L 275.034439 -133.355376 
L 276.447455 -133.355376 
L 277.860471 -133.355376 
L 279.273487 -133.355376 
L 280.686503 -133.355376 
L 282.099519 -133.355376 
L 283.512535 -133.355376 
L 284.925551 -133.355376 
L 286.338567 -133.355376 
L 287.751583 -133.355376 
L 289.164599 -133.355376 
L 290.577615 -133.355376 
L 291.990631 -133.355376 
L 293.403646 -133.355376 
L 294.816662 -133.355376 
L 296.229678 -133.355376 
L 297.642694 -133.355376 
L 299.05571 -133.355376 
L 300.468726 -133.355376 
L 301.881742 -133.355376 
L 303.294758 -133.355376 
L 304.707774 -133.355376 
L 306.12079 -133.355376 
L 307.533806 -133.355376 
L 308.946822 -133.355376 
L 310.359838 -133.355376 
L 311.772854 -133.355376 
L 313.18587 -133.355376 
L 314.598886 -133.355376 
L 316.011902 -133.355376 
L 317.424918 -133.355376 
L 318.837934 -133.355376 
L 320.25095 -133.355376 
L 321.663966 -133.355376 
L 323.076982 -133.355376 
L 324.489997 -133.355376 
L 325.903013 -133.355376 
L 327.316029 -133.355376 
L 328.729045 -133.355376 
L 330.142061 -133.355376 
L 331.555077 -133.355376 
L 332.968093 -133.355376 
L 334.381109 -133.355376 
L 335.794125 -133.355376 
L 337.207141 -133.355376 
L 338.620157 -133.355376 
L 340.033173 -133.355376 
L 341.446189 -133.355376 
L 342.859205 -133.355376 
L 344.272221 -133.355376 
L 345.685237 -133.355376 
L 347.098253 -133.355376 
L 348.511269 -133.355376 
L 349.924285 -133.355376 
L 351.337301 -133.355376 
L 352.750317 -133.355376 
L 354.163332 -133.355376 
L 355.576348 -133.355376 
L 356.989364 -133.355376 
L 358.40238 -133.355376 
L 359.815396 -133.355376 
L 361.228412 -133.355376 
L 362.641428 -133.355376 
L 364.054444 -133.355376 
L 365.46746 -133.355376 
L 366.880476 -133.355376 
L 368.293492 -133.355376 
L 369.706508 -133.355376 
L 371.119524 -133.355376 
L 372.53254 -133.355376 
L 373.945556 -133.355376 
L 375.358572 -133.355376 
L 376.771588 -133.355376 
L 378.184604 -133.355376 
L 379.59762 -133.355376 
L 381.010636 -133.355376 
L 382.423652 -133.355376 
L 383.836668 -133.355376 
L 385.249683 -133.355376 
L 386.662699 -133.355376 
L 388.075715 -133.355376 
L 389.488731 -133.355376 
L 390.901747 -133.355376 
L 392.314763 -133.355376 
L 393.727779 -133.355376 
L 395.140795 -133.355376 
L 396.553811 -133.355376 
L 397.966827 -133.355376 
L 399.379843 -133.355376 
L 400.792859 -133.355376 
L 402.205875 -133.355376 
L 403.618891 -133.355376 
L 405.031907 -133.355376 
L 406.444923 -133.355376 
L 407.857939 -133.355376 
L 409.270955 -133.355376 
L 410.683971 -133.355376 
L 412.096987 -133.355376 
L 413.510003 -133.355376 
L 414.923018 -133.355376 
L 416.336034 -133.355376 
L 417.74905 -133.355376 
L 419.162066 -133.355376 
L 420.575082 -133.355376 
L 421.988098 -133.355376 
L 423.401114 -133.355376 
L 424.81413 -133.355376 
L 426.227146 -133.355376 
L 427.640162 -133.355376 
L 429.053178 -133.355376 
L 430.466194 -133.355376 
L 431.87921 -133.355376 
L 433.292226 -133.355376 
L 434.705242 -133.355376 
L 436.118258 -133.355376 
L 437.531274 -133.355376 
L 438.94429 -133.355376 
L 440.357306 -133.355376 
L 441.770322 -133.355376 
L 443.183338 -133.355376 
L 444.596354 -133.355376 
L 446.009369 -133.355376 
L 447.422385 -133.355376 
L 448.835401 -133.355376 
L 450.248417 -133.355376 
L 451.661433 -133.355376 
L 453.074449 -133.355376 
L 454.487465 -133.355376 
L 455.900481 -133.355376 
L 457.313497 -133.355376 
L 458.726513 -133.355376 
L 460.139529 -133.355376 
L 461.552545 -133.355376 
L 462.965561 -133.355376 
L 464.378577 -133.355376 
L 465.791593 -159.318279 
L 467.204609 -159.318279 
L 468.617625 -159.318279 
L 470.030641 -159.318279 
L 471.443657 -159.318279 
L 472.856673 -165.409198 
L 474.269689 -165.409198 
L 475.682704 -165.409198 
L 477.09572 -165.409198 
L 478.508736 -165.409198 
L 479.921752 -165.409198 
L 481.334768 -177.439304 
L 482.747784 -177.439304 
L 484.1608 -177.439304 
L 485.573816 -177.439304 
L 486.986832 -177.439304 
L 488.399848 -177.439304 
L 489.812864 -177.439304 
L 491.22588 -177.439304 
L 492.638896 -177.439304 
L 494.051912 -177.439304 
L 495.464928 -177.439304 
L 496.877944 -177.439304 
L 498.29096 -177.439304 
L 499.703976 -177.439304 
L 501.116992 -177.439304 
L 502.530008 -177.439304 
L 503.943024 -177.439304 
L 505.35604 -177.439304 
L 506.769055 -177.439304 
L 508.182071 -177.439304 
L 509.595087 -177.439304 
L 511.008103 -177.439304 
L 512.421119 -177.439304 
L 513.834135 -177.439304 
L 515.247151 -177.439304 
L 516.660167 -177.439304 
L 518.073183 -177.439304 
L 519.486199 -177.439304 
L 520.899215 -177.439304 
L 522.312231 -177.439304 
L 523.725247 -177.439304 
L 525.138263 -177.439304 
L 526.551279 -177.439304 
L 527.964295 -177.439304 
L 529.377311 -177.439304 
L 530.790327 -177.439304 
L 532.203343 -177.439304 
L 533.616359 -177.439304 
L 535.029375 -177.439304 
L 536.44239 -177.439304 
L 537.855406 -177.439304 
L 539.268422 -177.439304 
L 540.681438 -177.439304 
L 542.094454 -177.439304 
L 543.50747 -177.439304 
L 544.920486 -177.439304 
L 546.333502 -177.439304 
L 547.746518 -177.439304 
L 549.159534 -177.439304 
L 550.57255 -177.439304 
L 551.985566 -177.439304 
L 553.398582 -177.439304 
L 554.811598 -177.439304 
L 556.224614 -177.439304 
L 557.63763 -177.439304 
L 559.050646 -177.439304 
L 560.463662 -177.439304 
L 561.876678 -177.439304 
L 563.289694 -177.439304 
L 564.70271 -177.439304 
L 566.115726 -177.439304 
L 567.528741 -177.439304 
L 568.941757 -177.439304 
L 570.354773 -177.439304 
L 571.767789 -177.439304 
L 573.180805 -177.439304 
L 574.593821 -177.439304 
L 576.006837 -177.439304 
L 577.419853 -177.439304 
L 578.832869 -177.439304 
L 580.245885 -177.439304 
L 581.658901 -177.439304 
L 583.071917 -177.439304 
L 584.484933 -177.439304 
L 585.897949 -177.439304 
L 587.310965 -177.439304 
L 588.723981 -177.439304 
L 590.136997 -177.439304 
L 591.550013 -177.439304 
L 592.963029 -177.439304 
L 594.376045 -177.439304 
L 595.789061 -177.439304 
L 597.202076 -177.439304 
L 598.615092 -177.439304 
L 600.028108 -177.439304 
L 601.441124 -177.439304 
L 602.85414 -177.439304 
L 604.267156 -177.439304 
L 605.680172 -177.439304 
L 607.093188 -177.439304 
L 608.506204 -177.439304 
L 609.91922 -177.439304 
L 611.332236 -177.439304 
L 612.745252 -177.439304 
L 614.158268 -177.439304 
L 615.571284 -177.439304 
L 616.9843 -177.439304 
L 618.397316 -177.439304 
L 619.810332 -177.439304 
L 621.223348 -177.439304 
L 622.636364 -177.439304 
L 622.636364 -117.553768 
L 622.636364 -117.553768 
L 621.223348 -117.553768 
L 619.810332 -117.553768 
L 618.397316 -117.553768 
L 616.9843 -117.553768 
L 615.571284 -117.553768 
L 614.158268 -117.553768 
L 612.745252 -117.553768 
L 611.332236 -117.553768 
L 609.91922 -117.553768 
L 608.506204 -117.553768 
L 607.093188 -117.553768 
L 605.680172 -117.553768 
L 604.267156 -117.553768 
L 602.85414 -117.553768 
L 601.441124 -117.553768 
L 600.028108 -117.553768 
L 598.615092 -117.553768 
L 597.202076 -117.553768 
L 595.789061 -117.553768 
L 594.376045 -117.553768 
L 592.963029 -117.553768 
L 591.550013 -117.553768 
L 590.136997 -117.553768 
L 588.723981 -117.553768 
L 587.310965 -117.553768 
L 585.897949 -117.553768 
L 584.484933 -117.553768 
L 583.071917 -117.553768 
L 581.658901 -117.553768 
L 580.245885 -117.553768 
L 578.832869 -117.553768 
L 577.419853 -117.553768 
L 576.006837 -117.553768 
L 574.593821 -117.553768 
L 573.180805 -117.553768 
L 571.767789 -117.553768 
L 570.354773 -117.553768 
L 568.941757 -117.553768 
L 567.528741 -117.553768 
L 566.115726 -117.553768 
L 564.70271 -117.553768 
L 563.289694 -117.553768 
L 561.876678 -117.553768 
L 560.463662 -117.553768 
L 559.050646 -117.553768 
L 557.63763 -117.553768 
L 556.224614 -117.553768 
L 554.811598 -117.553768 
L 553.398582 -117.553768 
L 551.985566 -117.553768 
L 550.57255 -117.553768 
L 549.159534 -117.553768 
L 547.746518 -117.553768 
L 546.333502 -117.553768 
L 544.920486 -117.553768 
L 543.50747 -117.553768 
L 542.094454 -117.553768 
L 540.681438 -117.553768 
L 539.268422 -117.553768 
L 537.855406 -117.553768 
L 536.44239 -117.553768 
L 535.029375 -117.553768 
L 533.616359 -117.553768 
L 532.203343 -117.553768 
L 530.790327 -117.553768 
L 529.377311 -117.553768 
L 527.964295 -117.553768 
L 526.551279 -117.553768 
L 525.138263 -117.553768 
L 523.725247 -117.553768 
L 522.312231 -117.553768 
L 520.899215 -117.553768 
L 519.486199 -117.553768 
L 518.073183 -117.553768 
L 516.660167 -117.553768 
L 515.247151 -117.553768 
L 513.834135 -117.553768 
L 512.421119 -117.553768 
L 511.008103 -117.553768 
L 509.595087 -117.553768 
L 508.182071 -117.553768 
L 506.769055 -117.553768 
L 505.35604 -117.553768 
L 503.943024 -117.553768 
L 502.530008 -117.553768 
L 501.116992 -117.553768 
L 499.703976 -117.553768 
L 498.29096 -117.553768 
L 496.877944 -117.553768 
L 495.464928 -117.553768 
L 494.051912 -117.553768 
L 492.638896 -117.553768 
L 491.22588 -117.553768 
L 489.812864 -117.553768 
L 488.399848 -117.553768 
L 486.986832 -117.553768 
L 485.573816 -117.553768 
L 484.1608 -117.553768 
L 482.747784 -117.553768 
L 481.334768 -117.553768 
L 479.921752 -122.696642 
L 478.508736 -122.696642 
L 477.09572 -122.696642 
L 475.682704 -122.696642 
L 474.269689 -122.696642 
L 472.856673 -122.696642 
L 471.443657 -128.785449 
L 470.030641 -128.785449 
L 468.617625 -128.785449 
L 467.204609 -128.785449 
L 465.791593 -128.785449 
L 464.378577 -124.907376 
L 462.965561 -124.907376 
L 461.552545 -124.907376 
L 460.139529 -124.907376 
L 458.726513 -124.907376 
L 457.313497 -124.907376 
L 455.900481 -124.907376 
L 454.487465 -124.907376 
L 453.074449 -124.907376 
L 451.661433 -124.907376 
L 450.248417 -124.907376 
L 448.835401 -124.907376 
L 447.422385 -124.907376 
L 446.009369 -124.907376 
L 444.596354 -124.907376 
L 443.183338 -124.907376 
L 441.770322 -124.907376 
L 440.357306 -124.907376 
L 438.94429 -124.907376 
L 437.531274 -124.907376 
L 436.118258 -124.907376 
L 434.705242 -124.907376 
L 433.292226 -124.907376 
L 431.87921 -124.907376 
L 430.466194 -124.907376 
L 429.053178 -124.907376 
L 427.640162 -124.907376 
L 426.227146 -124.907376 
L 424.81413 -124.907376 
L 423.401114 -124.907376 
L 421.988098 -124.907376 
L 420.575082 -124.907376 
L 419.162066 -124.907376 
L 417.74905 -124.907376 
L 416.336034 -124.907376 
L 414.923018 -124.907376 
L 413.510003 -124.907376 
L 412.096987 -124.907376 
L 410.683971 -124.907376 
L 409.270955 -124.907376 
L 407.857939 -124.907376 
L 406.444923 -124.907376 
L 405.031907 -124.907376 
L 403.618891 -124.907376 
L 402.205875 -124.907376 
L 400.792859 -124.907376 
L 399.379843 -124.907376 
L 397.966827 -124.907376 
L 396.553811 -124.907376 
L 395.140795 -124.907376 
L 393.727779 -124.907376 
L 392.314763 -124.907376 
L 390.901747 -124.907376 
L 389.488731 -124.907376 
L 388.075715 -124.907376 
L 386.662699 -124.907376 
L 385.249683 -124.907376 
L 383.836668 -124.907376 
L 382.423652 -124.907376 
L 381.010636 -124.907376 
L 379.59762 -124.907376 
L 378.184604 -124.907376 
L 376.771588 -124.907376 
L 375.358572 -124.907376 
L 373.945556 -124.907376 
L 372.53254 -124.907376 
L 371.119524 -124.907376 
L 369.706508 -124.907376 
L 368.293492 -124.907376 
L 366.880476 -124.907376 
L 365.46746 -124.907376 
L 364.054444 -124.907376 
L 362.641428 -124.907376 
L 361.228412 -124.907376 
L 359.815396 -124.907376 
L 358.40238 -124.907376 
L 356.989364 -124.907376 
L 355.576348 -124.907376 
L 354.163332 -124.907376 
L 352.750317 -124.907376 
L 351.337301 -124.907376 
L 349.924285 -124.907376 
L 348.511269 -124.907376 
L 347.098253 -124.907376 
L 345.685237 -124.907376 
L 344.272221 -124.907376 
L 342.859205 -124.907376 
L 341.446189 -124.907376 
L 340.033173 -124.907376 
L 338.620157 -124.907376 
L 337.207141 -124.907376 
L 335.794125 -124.907376 
L 334.381109 -124.907376 
L 332.968093 -124.907376 
L 331.555077 -124.907376 
L 330.142061 -124.907376 
L 328.729045 -124.907376 
L 327.316029 -124.907376 
L 325.903013 -124.907376 
L 324.489997 -124.907376 
L 323.076982 -124.907376 
L 321.663966 -124.907376 
L 320.25095 -124.907376 
L 318.837934 -124.907376 
L 317.424918 -124.907376 
L 316.011902 -124.907376 
L 314.598886 -124.907376 
L 313.18587 -124.907376 
L 311.772854 -124.907376 
L 310.359838 -124.907376 
L 308.946822 -124.907376 
L 307.533806 -124.907376 
L 306.12079 -124.907376 
L 304.707774 -124.907376 
L 303.294758 -124.907376 
L 301.881742 -124.907376 
L 300.468726 -124.907376 
L 299.05571 -124.907376 
L 297.642694 -124.907376 
L 296.229678 -124.907376 
L 294.816662 -124.907376 
L 293.403646 -124.907376 
L 291.990631 -124.907376 
L 290.577615 -124.907376 
L 289.164599 -124.907376 
L 287.751583 -124.907376 
L 286.338567 -124.907376 
L 284.925551 -124.907376 
L 283.512535 -124.907376 
L 282.099519 -124.907376 
L 280.686503 -124.907376 
L 279.273487 -124.907376 
L 277.860471 -124.907376 
L 276.447455 -124.907376 
L 275.034439 -124.907376 
L 273.621423 -124.907376 
L 272.208407 -124.907376 
L 270.795391 -124.907376 
L 269.382375 -124.907376 
L 267.969359 -124.907376 
L 266.556343 -124.907376 
L 265.143327 -124.907376 
L 263.730311 -124.907376 
L 262.317296 -124.907376 
L 260.90428 -124.907376 
L 259.491264 -124.907376 
L 258.078248 -124.907376 
L 256.665232 -124.4495 
L 255.252216 -124.4495 
L 253.8392 -124.4495 
L 252.426184 -124.4495 
L 251.013168 -124.4495 
L 249.600152 -128.045311 
L 248.187136 -128.045311 
L 246.77412 -128.045311 
L 245.361104 -128.045311 
L 243.948088 -128.045311 
L 242.535072 -128.045311 
L 241.122056 -126.443578 
L 239.70904 -126.443578 
L 238.296024 -126.443578 
L 236.883008 -126.443578 
L 235.469992 -126.443578 
L 234.056976 -114.178478 
L 232.64396 -114.178478 
L 231.230945 -114.178478 
L 229.817929 -114.178478 
L 228.404913 -114.178478 
L 226.991897 -114.178478 
L 225.578881 -116.000016 
L 224.165865 -116.000016 
L 222.752849 -116.000016 
L 221.339833 -116.000016 
L 219.926817 -116.000016 
L 218.513801 -116.000016 
L 217.100785 -116.000016 
L 215.687769 -116.000016 
L 214.274753 -116.000016 
L 212.861737 -116.000016 
L 211.448721 -116.000016 
L 210.035705 -116.000016 
L 208.622689 -116.000016 
L 207.209673 -116.000016 
L 205.796657 -116.000016 
L 204.383641 -116.000016 
L 202.970625 -116.000016 
L 201.55761 -116.000016 
L 200.144594 -116.000016 
L 198.731578 -116.000016 
L 197.318562 -116.000016 
L 195.905546 -116.000016 
L 194.49253 -116.000016 
L 193.079514 -116.000016 
L 191.666498 -116.000016 
L 190.253482 -116.000016 
L 188.840466 -116.000016 
L 187.42745 -116.000016 
L 186.014434 -116.000016 
L 184.601418 -116.000016 
L 183.188402 -116.000016 
L 181.775386 -116.000016 
L 180.36237 -116.000016 
L 178.949354 -116.000016 
L 177.536338 -116.000016 
L 176.123322 -116.000016 
L 174.710306 -116.000016 
L 173.29729 -116.000016 
L 171.884274 -116.000016 
L 170.471259 -116.000016 
L 169.058243 -116.000016 
L 167.645227 -116.000016 
L 166.232211 -116.000016 
L 164.819195 -116.000016 
L 163.406179 -116.000016 
L 161.993163 -116.000016 
L 160.580147 -116.000016 
L 159.167131 -116.000016 
L 157.754115 -116.000016 
L 156.341099 -116.000016 
L 154.928083 -116.000016 
L 153.515067 -116.000016 
L 152.102051 -116.000016 
L 150.689035 -116.000016 
L 149.276019 -116.000016 
L 147.863003 -116.000016 
L 146.449987 -116.000016 
L 145.036971 -116.000016 
L 143.623955 -116.000016 
L 142.210939 -116.000016 
L 140.797924 -116.000016 
L 139.384908 -116.000016 
L 137.971892 -116.000016 
L 136.558876 -116.000016 
L 135.14586 -116.000016 
L 133.732844 -116.000016 
L 132.319828 -116.000016 
L 130.906812 -116.000016 
L 129.493796 -116.000016 
L 128.08078 -116.000016 
L 126.667764 -116.000016 
L 125.254748 -116.000016 
L 123.841732 -116.000016 
L 122.428716 -116.000016 
L 121.0157 -116.000016 
L 119.602684 -116.000016 
L 118.189668 -116.000016 
L 116.776652 -116.000016 
L 115.363636 -116.000016 
z
" style="stroke: #482475; stroke-opacity: 0.2"/>
    </defs>
    <g clip-path="url(#pc5c0741ec2)">
     <use xlink:href="#m057c516a93" x="0" y="360" style="fill: #482475; fill-opacity: 0.2; stroke: #482475; stroke-opacity: 0.2"/>
    </g>
   </g>
   <g id="PolyCollection_2">
    <defs>
     <path id="m0164931541" d="M 115.363636 -180.823538 
L 115.363636 -219.766894 
L 116.776652 -219.766894 
L 118.189668 -219.766894 
L 119.602684 -219.766894 
L 121.0157 -219.766894 
L 122.428716 -219.766894 
L 123.841732 -219.766894 
L 125.254748 -219.766894 
L 126.667764 -219.766894 
L 128.08078 -219.766894 
L 129.493796 -219.766894 
L 130.906812 -219.766894 
L 132.319828 -219.766894 
L 133.732844 -219.766894 
L 135.14586 -219.766894 
L 136.558876 -219.766894 
L 137.971892 -219.766894 
L 139.384908 -219.766894 
L 140.797924 -219.766894 
L 142.210939 -219.766894 
L 143.623955 -219.766894 
L 145.036971 -219.766894 
L 146.449987 -219.766894 
L 147.863003 -219.766894 
L 149.276019 -219.766894 
L 150.689035 -219.766894 
L 152.102051 -219.766894 
L 153.515067 -219.766894 
L 154.928083 -219.766894 
L 156.341099 -219.766894 
L 157.754115 -219.766894 
L 159.167131 -219.766894 
L 160.580147 -219.766894 
L 161.993163 -219.766894 
L 163.406179 -219.766894 
L 164.819195 -219.766894 
L 166.232211 -219.766894 
L 167.645227 -219.766894 
L 169.058243 -219.766894 
L 170.471259 -219.766894 
L 171.884274 -219.766894 
L 173.29729 -219.766894 
L 174.710306 -219.766894 
L 176.123322 -219.766894 
L 177.536338 -219.766894 
L 178.949354 -219.766894 
L 180.36237 -219.766894 
L 181.775386 -219.766894 
L 183.188402 -219.766894 
L 184.601418 -219.766894 
L 186.014434 -219.766894 
L 187.42745 -219.766894 
L 188.840466 -219.766894 
L 190.253482 -219.766894 
L 191.666498 -219.766894 
L 193.079514 -219.766894 
L 194.49253 -219.766894 
L 195.905546 -219.766894 
L 197.318562 -219.766894 
L 198.731578 -219.766894 
L 200.144594 -219.766894 
L 201.55761 -219.766894 
L 202.970625 -219.766894 
L 204.383641 -219.766894 
L 205.796657 -219.766894 
L 207.209673 -219.766894 
L 208.622689 -219.766894 
L 210.035705 -219.766894 
L 211.448721 -219.766894 
L 212.861737 -219.766894 
L 214.274753 -219.766894 
L 215.687769 -219.766894 
L 217.100785 -219.766894 
L 218.513801 -219.766894 
L 219.926817 -219.766894 
L 221.339833 -219.766894 
L 222.752849 -219.766894 
L 224.165865 -219.766894 
L 225.578881 -219.766894 
L 226.991897 -214.983156 
L 228.404913 -214.983156 
L 229.817929 -214.983156 
L 231.230945 -214.983156 
L 232.64396 -214.983156 
L 234.056976 -214.983156 
L 235.469992 -213.977808 
L 236.883008 -213.977808 
L 238.296024 -213.977808 
L 239.70904 -213.977808 
L 241.122056 -213.977808 
L 242.535072 -204.88636 
L 243.948088 -204.88636 
L 245.361104 -204.88636 
L 246.77412 -204.88636 
L 248.187136 -204.88636 
L 249.600152 -204.88636 
L 251.013168 -172.672905 
L 252.426184 -172.672905 
L 253.8392 -172.672905 
L 255.252216 -172.672905 
L 256.665232 -172.672905 
L 258.078248 -141.631907 
L 259.491264 -141.631907 
L 260.90428 -141.631907 
L 262.317296 -141.631907 
L 263.730311 -141.631907 
L 265.143327 -141.631907 
L 266.556343 -135.742728 
L 267.969359 -135.742728 
L 269.382375 -135.742728 
L 270.795391 -135.742728 
L 272.208407 -135.742728 
L 273.621423 -131.42712 
L 275.034439 -131.42712 
L 276.447455 -131.42712 
L 277.860471 -131.42712 
L 279.273487 -131.42712 
L 280.686503 -131.42712 
L 282.099519 -131.42712 
L 283.512535 -131.42712 
L 284.925551 -131.42712 
L 286.338567 -131.42712 
L 287.751583 -131.42712 
L 289.164599 -131.42712 
L 290.577615 -131.42712 
L 291.990631 -131.42712 
L 293.403646 -131.42712 
L 294.816662 -131.42712 
L 296.229678 -131.42712 
L 297.642694 -131.42712 
L 299.05571 -131.42712 
L 300.468726 -131.42712 
L 301.881742 -131.42712 
L 303.294758 -131.42712 
L 304.707774 -131.42712 
L 306.12079 -131.42712 
L 307.533806 -131.42712 
L 308.946822 -131.42712 
L 310.359838 -131.42712 
L 311.772854 -131.42712 
L 313.18587 -131.42712 
L 314.598886 -131.42712 
L 316.011902 -131.42712 
L 317.424918 -131.42712 
L 318.837934 -131.42712 
L 320.25095 -131.42712 
L 321.663966 -131.42712 
L 323.076982 -131.42712 
L 324.489997 -131.42712 
L 325.903013 -131.42712 
L 327.316029 -131.42712 
L 328.729045 -131.42712 
L 330.142061 -131.42712 
L 331.555077 -131.42712 
L 332.968093 -131.42712 
L 334.381109 -131.42712 
L 335.794125 -131.42712 
L 337.207141 -131.42712 
L 338.620157 -131.42712 
L 340.033173 -131.42712 
L 341.446189 -131.42712 
L 342.859205 -131.42712 
L 344.272221 -131.42712 
L 345.685237 -131.42712 
L 347.098253 -131.42712 
L 348.511269 -131.42712 
L 349.924285 -131.42712 
L 351.337301 -131.42712 
L 352.750317 -131.42712 
L 354.163332 -131.42712 
L 355.576348 -131.42712 
L 356.989364 -131.42712 
L 358.40238 -131.42712 
L 359.815396 -131.42712 
L 361.228412 -131.42712 
L 362.641428 -131.42712 
L 364.054444 -131.42712 
L 365.46746 -131.42712 
L 366.880476 -131.42712 
L 368.293492 -131.42712 
L 369.706508 -131.42712 
L 371.119524 -131.42712 
L 372.53254 -131.42712 
L 373.945556 -131.42712 
L 375.358572 -131.42712 
L 376.771588 -131.42712 
L 378.184604 -131.42712 
L 379.59762 -131.42712 
L 381.010636 -131.42712 
L 382.423652 -131.42712 
L 383.836668 -131.42712 
L 385.249683 -131.42712 
L 386.662699 -131.42712 
L 388.075715 -131.42712 
L 389.488731 -131.42712 
L 390.901747 -131.42712 
L 392.314763 -131.42712 
L 393.727779 -131.42712 
L 395.140795 -131.42712 
L 396.553811 -131.42712 
L 397.966827 -131.42712 
L 399.379843 -131.42712 
L 400.792859 -131.42712 
L 402.205875 -131.42712 
L 403.618891 -131.42712 
L 405.031907 -131.42712 
L 406.444923 -131.42712 
L 407.857939 -131.42712 
L 409.270955 -131.42712 
L 410.683971 -131.42712 
L 412.096987 -131.42712 
L 413.510003 -131.42712 
L 414.923018 -131.42712 
L 416.336034 -131.42712 
L 417.74905 -131.42712 
L 419.162066 -131.42712 
L 420.575082 -131.42712 
L 421.988098 -131.42712 
L 423.401114 -131.42712 
L 424.81413 -131.42712 
L 426.227146 -131.42712 
L 427.640162 -131.42712 
L 429.053178 -131.42712 
L 430.466194 -131.42712 
L 431.87921 -131.42712 
L 433.292226 -131.42712 
L 434.705242 -131.42712 
L 436.118258 -131.42712 
L 437.531274 -131.42712 
L 438.94429 -131.42712 
L 440.357306 -131.42712 
L 441.770322 -131.42712 
L 443.183338 -131.42712 
L 444.596354 -131.42712 
L 446.009369 -131.42712 
L 447.422385 -131.42712 
L 448.835401 -131.42712 
L 450.248417 -131.42712 
L 451.661433 -131.42712 
L 453.074449 -131.42712 
L 454.487465 -131.42712 
L 455.900481 -131.42712 
L 457.313497 -131.42712 
L 458.726513 -131.42712 
L 460.139529 -131.42712 
L 461.552545 -131.42712 
L 462.965561 -131.42712 
L 464.378577 -131.42712 
L 465.791593 -194.375168 
L 467.204609 -194.375168 
L 468.617625 -194.375168 
L 470.030641 -194.375168 
L 471.443657 -194.375168 
L 472.856673 -218.301713 
L 474.269689 -218.301713 
L 475.682704 -218.301713 
L 477.09572 -218.301713 
L 478.508736 -218.301713 
L 479.921752 -218.301713 
L 481.334768 -219.766894 
L 482.747784 -219.766894 
L 484.1608 -219.766894 
L 485.573816 -219.766894 
L 486.986832 -219.766894 
L 488.399848 -219.766894 
L 489.812864 -219.766894 
L 491.22588 -219.766894 
L 492.638896 -219.766894 
L 494.051912 -219.766894 
L 495.464928 -219.766894 
L 496.877944 -219.766894 
L 498.29096 -219.766894 
L 499.703976 -219.766894 
L 501.116992 -219.766894 
L 502.530008 -219.766894 
L 503.943024 -219.766894 
L 505.35604 -219.766894 
L 506.769055 -219.766894 
L 508.182071 -219.766894 
L 509.595087 -219.766894 
L 511.008103 -219.766894 
L 512.421119 -219.766894 
L 513.834135 -219.766894 
L 515.247151 -219.766894 
L 516.660167 -219.766894 
L 518.073183 -219.766894 
L 519.486199 -219.766894 
L 520.899215 -219.766894 
L 522.312231 -219.766894 
L 523.725247 -219.766894 
L 525.138263 -219.766894 
L 526.551279 -219.766894 
L 527.964295 -219.766894 
L 529.377311 -219.766894 
L 530.790327 -219.766894 
L 532.203343 -219.766894 
L 533.616359 -219.766894 
L 535.029375 -219.766894 
L 536.44239 -219.766894 
L 537.855406 -219.766894 
L 539.268422 -219.766894 
L 540.681438 -219.766894 
L 542.094454 -219.766894 
L 543.50747 -219.766894 
L 544.920486 -219.766894 
L 546.333502 -219.766894 
L 547.746518 -219.766894 
L 549.159534 -219.766894 
L 550.57255 -219.766894 
L 551.985566 -219.766894 
L 553.398582 -219.766894 
L 554.811598 -219.766894 
L 556.224614 -219.766894 
L 557.63763 -219.766894 
L 559.050646 -219.766894 
L 560.463662 -219.766894 
L 561.876678 -219.766894 
L 563.289694 -219.766894 
L 564.70271 -219.766894 
L 566.115726 -219.766894 
L 567.528741 -219.766894 
L 568.941757 -219.766894 
L 570.354773 -219.766894 
L 571.767789 -219.766894 
L 573.180805 -219.766894 
L 574.593821 -219.766894 
L 576.006837 -219.766894 
L 577.419853 -219.766894 
L 578.832869 -219.766894 
L 580.245885 -219.766894 
L 581.658901 -219.766894 
L 583.071917 -219.766894 
L 584.484933 -219.766894 
L 585.897949 -219.766894 
L 587.310965 -219.766894 
L 588.723981 -219.766894 
L 590.136997 -219.766894 
L 591.550013 -219.766894 
L 592.963029 -219.766894 
L 594.376045 -219.766894 
L 595.789061 -219.766894 
L 597.202076 -219.766894 
L 598.615092 -219.766894 
L 600.028108 -219.766894 
L 601.441124 -219.766894 
L 602.85414 -219.766894 
L 604.267156 -219.766894 
L 605.680172 -219.766894 
L 607.093188 -219.766894 
L 608.506204 -219.766894 
L 609.91922 -219.766894 
L 611.332236 -219.766894 
L 612.745252 -219.766894 
L 614.158268 -219.766894 
L 615.571284 -219.766894 
L 616.9843 -219.766894 
L 618.397316 -219.766894 
L 619.810332 -219.766894 
L 621.223348 -219.766894 
L 622.636364 -219.766894 
L 622.636364 -180.823538 
L 622.636364 -180.823538 
L 621.223348 -180.823538 
L 619.810332 -180.823538 
L 618.397316 -180.823538 
L 616.9843 -180.823538 
L 615.571284 -180.823538 
L 614.158268 -180.823538 
L 612.745252 -180.823538 
L 611.332236 -180.823538 
L 609.91922 -180.823538 
L 608.506204 -180.823538 
L 607.093188 -180.823538 
L 605.680172 -180.823538 
L 604.267156 -180.823538 
L 602.85414 -180.823538 
L 601.441124 -180.823538 
L 600.028108 -180.823538 
L 598.615092 -180.823538 
L 597.202076 -180.823538 
L 595.789061 -180.823538 
L 594.376045 -180.823538 
L 592.963029 -180.823538 
L 591.550013 -180.823538 
L 590.136997 -180.823538 
L 588.723981 -180.823538 
L 587.310965 -180.823538 
L 585.897949 -180.823538 
L 584.484933 -180.823538 
L 583.071917 -180.823538 
L 581.658901 -180.823538 
L 580.245885 -180.823538 
L 578.832869 -180.823538 
L 577.419853 -180.823538 
L 576.006837 -180.823538 
L 574.593821 -180.823538 
L 573.180805 -180.823538 
L 571.767789 -180.823538 
L 570.354773 -180.823538 
L 568.941757 -180.823538 
L 567.528741 -180.823538 
L 566.115726 -180.823538 
L 564.70271 -180.823538 
L 563.289694 -180.823538 
L 561.876678 -180.823538 
L 560.463662 -180.823538 
L 559.050646 -180.823538 
L 557.63763 -180.823538 
L 556.224614 -180.823538 
L 554.811598 -180.823538 
L 553.398582 -180.823538 
L 551.985566 -180.823538 
L 550.57255 -180.823538 
L 549.159534 -180.823538 
L 547.746518 -180.823538 
L 546.333502 -180.823538 
L 544.920486 -180.823538 
L 543.50747 -180.823538 
L 542.094454 -180.823538 
L 540.681438 -180.823538 
L 539.268422 -180.823538 
L 537.855406 -180.823538 
L 536.44239 -180.823538 
L 535.029375 -180.823538 
L 533.616359 -180.823538 
L 532.203343 -180.823538 
L 530.790327 -180.823538 
L 529.377311 -180.823538 
L 527.964295 -180.823538 
L 526.551279 -180.823538 
L 525.138263 -180.823538 
L 523.725247 -180.823538 
L 522.312231 -180.823538 
L 520.899215 -180.823538 
L 519.486199 -180.823538 
L 518.073183 -180.823538 
L 516.660167 -180.823538 
L 515.247151 -180.823538 
L 513.834135 -180.823538 
L 512.421119 -180.823538 
L 511.008103 -180.823538 
L 509.595087 -180.823538 
L 508.182071 -180.823538 
L 506.769055 -180.823538 
L 505.35604 -180.823538 
L 503.943024 -180.823538 
L 502.530008 -180.823538 
L 501.116992 -180.823538 
L 499.703976 -180.823538 
L 498.29096 -180.823538 
L 496.877944 -180.823538 
L 495.464928 -180.823538 
L 494.051912 -180.823538 
L 492.638896 -180.823538 
L 491.22588 -180.823538 
L 489.812864 -180.823538 
L 488.399848 -180.823538 
L 486.986832 -180.823538 
L 485.573816 -180.823538 
L 484.1608 -180.823538 
L 482.747784 -180.823538 
L 481.334768 -180.823538 
L 479.921752 -179.993503 
L 478.508736 -179.993503 
L 477.09572 -179.993503 
L 475.682704 -179.993503 
L 474.269689 -179.993503 
L 472.856673 -179.993503 
L 471.443657 -135.050896 
L 470.030641 -135.050896 
L 468.617625 -135.050896 
L 467.204609 -135.050896 
L 465.791593 -135.050896 
L 464.378577 -131.42712 
L 462.965561 -131.42712 
L 461.552545 -131.42712 
L 460.139529 -131.42712 
L 458.726513 -131.42712 
L 457.313497 -131.42712 
L 455.900481 -131.42712 
L 454.487465 -131.42712 
L 453.074449 -131.42712 
L 451.661433 -131.42712 
L 450.248417 -131.42712 
L 448.835401 -131.42712 
L 447.422385 -131.42712 
L 446.009369 -131.42712 
L 444.596354 -131.42712 
L 443.183338 -131.42712 
L 441.770322 -131.42712 
L 440.357306 -131.42712 
L 438.94429 -131.42712 
L 437.531274 -131.42712 
L 436.118258 -131.42712 
L 434.705242 -131.42712 
L 433.292226 -131.42712 
L 431.87921 -131.42712 
L 430.466194 -131.42712 
L 429.053178 -131.42712 
L 427.640162 -131.42712 
L 426.227146 -131.42712 
L 424.81413 -131.42712 
L 423.401114 -131.42712 
L 421.988098 -131.42712 
L 420.575082 -131.42712 
L 419.162066 -131.42712 
L 417.74905 -131.42712 
L 416.336034 -131.42712 
L 414.923018 -131.42712 
L 413.510003 -131.42712 
L 412.096987 -131.42712 
L 410.683971 -131.42712 
L 409.270955 -131.42712 
L 407.857939 -131.42712 
L 406.444923 -131.42712 
L 405.031907 -131.42712 
L 403.618891 -131.42712 
L 402.205875 -131.42712 
L 400.792859 -131.42712 
L 399.379843 -131.42712 
L 397.966827 -131.42712 
L 396.553811 -131.42712 
L 395.140795 -131.42712 
L 393.727779 -131.42712 
L 392.314763 -131.42712 
L 390.901747 -131.42712 
L 389.488731 -131.42712 
L 388.075715 -131.42712 
L 386.662699 -131.42712 
L 385.249683 -131.42712 
L 383.836668 -131.42712 
L 382.423652 -131.42712 
L 381.010636 -131.42712 
L 379.59762 -131.42712 
L 378.184604 -131.42712 
L 376.771588 -131.42712 
L 375.358572 -131.42712 
L 373.945556 -131.42712 
L 372.53254 -131.42712 
L 371.119524 -131.42712 
L 369.706508 -131.42712 
L 368.293492 -131.42712 
L 366.880476 -131.42712 
L 365.46746 -131.42712 
L 364.054444 -131.42712 
L 362.641428 -131.42712 
L 361.228412 -131.42712 
L 359.815396 -131.42712 
L 358.40238 -131.42712 
L 356.989364 -131.42712 
L 355.576348 -131.42712 
L 354.163332 -131.42712 
L 352.750317 -131.42712 
L 351.337301 -131.42712 
L 349.924285 -131.42712 
L 348.511269 -131.42712 
L 347.098253 -131.42712 
L 345.685237 -131.42712 
L 344.272221 -131.42712 
L 342.859205 -131.42712 
L 341.446189 -131.42712 
L 340.033173 -131.42712 
L 338.620157 -131.42712 
L 337.207141 -131.42712 
L 335.794125 -131.42712 
L 334.381109 -131.42712 
L 332.968093 -131.42712 
L 331.555077 -131.42712 
L 330.142061 -131.42712 
L 328.729045 -131.42712 
L 327.316029 -131.42712 
L 325.903013 -131.42712 
L 324.489997 -131.42712 
L 323.076982 -131.42712 
L 321.663966 -131.42712 
L 320.25095 -131.42712 
L 318.837934 -131.42712 
L 317.424918 -131.42712 
L 316.011902 -131.42712 
L 314.598886 -131.42712 
L 313.18587 -131.42712 
L 311.772854 -131.42712 
L 310.359838 -131.42712 
L 308.946822 -131.42712 
L 307.533806 -131.42712 
L 306.12079 -131.42712 
L 304.707774 -131.42712 
L 303.294758 -131.42712 
L 301.881742 -131.42712 
L 300.468726 -131.42712 
L 299.05571 -131.42712 
L 297.642694 -131.42712 
L 296.229678 -131.42712 
L 294.816662 -131.42712 
L 293.403646 -131.42712 
L 291.990631 -131.42712 
L 290.577615 -131.42712 
L 289.164599 -131.42712 
L 287.751583 -131.42712 
L 286.338567 -131.42712 
L 284.925551 -131.42712 
L 283.512535 -131.42712 
L 282.099519 -131.42712 
L 280.686503 -131.42712 
L 279.273487 -131.42712 
L 277.860471 -131.42712 
L 276.447455 -131.42712 
L 275.034439 -131.42712 
L 273.621423 -131.42712 
L 272.208407 -129.406728 
L 270.795391 -129.406728 
L 269.382375 -129.406728 
L 267.969359 -129.406728 
L 266.556343 -129.406728 
L 265.143327 -128.108509 
L 263.730311 -128.108509 
L 262.317296 -128.108509 
L 260.90428 -128.108509 
L 259.491264 -128.108509 
L 258.078248 -128.108509 
L 256.665232 -136.091991 
L 255.252216 -136.091991 
L 253.8392 -136.091991 
L 252.426184 -136.091991 
L 251.013168 -136.091991 
L 249.600152 -156.679064 
L 248.187136 -156.679064 
L 246.77412 -156.679064 
L 245.361104 -156.679064 
L 243.948088 -156.679064 
L 242.535072 -156.679064 
L 241.122056 -159.065808 
L 239.70904 -159.065808 
L 238.296024 -159.065808 
L 236.883008 -159.065808 
L 235.469992 -159.065808 
L 234.056976 -160.356204 
L 232.64396 -160.356204 
L 231.230945 -160.356204 
L 229.817929 -160.356204 
L 228.404913 -160.356204 
L 226.991897 -160.356204 
L 225.578881 -180.823538 
L 224.165865 -180.823538 
L 222.752849 -180.823538 
L 221.339833 -180.823538 
L 219.926817 -180.823538 
L 218.513801 -180.823538 
L 217.100785 -180.823538 
L 215.687769 -180.823538 
L 214.274753 -180.823538 
L 212.861737 -180.823538 
L 211.448721 -180.823538 
L 210.035705 -180.823538 
L 208.622689 -180.823538 
L 207.209673 -180.823538 
L 205.796657 -180.823538 
L 204.383641 -180.823538 
L 202.970625 -180.823538 
L 201.55761 -180.823538 
L 200.144594 -180.823538 
L 198.731578 -180.823538 
L 197.318562 -180.823538 
L 195.905546 -180.823538 
L 194.49253 -180.823538 
L 193.079514 -180.823538 
L 191.666498 -180.823538 
L 190.253482 -180.823538 
L 188.840466 -180.823538 
L 187.42745 -180.823538 
L 186.014434 -180.823538 
L 184.601418 -180.823538 
L 183.188402 -180.823538 
L 181.775386 -180.823538 
L 180.36237 -180.823538 
L 178.949354 -180.823538 
L 177.536338 -180.823538 
L 176.123322 -180.823538 
L 174.710306 -180.823538 
L 173.29729 -180.823538 
L 171.884274 -180.823538 
L 170.471259 -180.823538 
L 169.058243 -180.823538 
L 167.645227 -180.823538 
L 166.232211 -180.823538 
L 164.819195 -180.823538 
L 163.406179 -180.823538 
L 161.993163 -180.823538 
L 160.580147 -180.823538 
L 159.167131 -180.823538 
L 157.754115 -180.823538 
L 156.341099 -180.823538 
L 154.928083 -180.823538 
L 153.515067 -180.823538 
L 152.102051 -180.823538 
L 150.689035 -180.823538 
L 149.276019 -180.823538 
L 147.863003 -180.823538 
L 146.449987 -180.823538 
L 145.036971 -180.823538 
L 143.623955 -180.823538 
L 142.210939 -180.823538 
L 140.797924 -180.823538 
L 139.384908 -180.823538 
L 137.971892 -180.823538 
L 136.558876 -180.823538 
L 135.14586 -180.823538 
L 133.732844 -180.823538 
L 132.319828 -180.823538 
L 130.906812 -180.823538 
L 129.493796 -180.823538 
L 128.08078 -180.823538 
L 126.667764 -180.823538 
L 125.254748 -180.823538 
L 123.841732 -180.823538 
L 122.428716 -180.823538 
L 121.0157 -180.823538 
L 119.602684 -180.823538 
L 118.189668 -180.823538 
L 116.776652 -180.823538 
L 115.363636 -180.823538 
z
" style="stroke: #bddf26; stroke-opacity: 0.2"/>
    </defs>
    <g clip-path="url(#pc5c0741ec2)">
     <use xlink:href="#m0164931541" x="0" y="360" style="fill: #bddf26; fill-opacity: 0.2; stroke: #bddf26; stroke-opacity: 0.2"/>
    </g>
   </g>
   <g id="matplotlib.axis_1">
    <g id="xtick_1">
     <g id="line2d_1">
      <defs>
       <path id="m3a1864030e" d="M 0 0 
L 0 3.5 
" style="stroke: #000000; stroke-width: 0.8"/>
      </defs>
      <g>
       <use xlink:href="#m3a1864030e" x="146.107438" y="320.4" style="stroke: #000000; stroke-width: 0.8"/>
      </g>
     </g>
     <g id="text_1">
      <!-- $\mathdefault{100}$ -->
      <g transform="translate(135.498905 337.431808) scale(0.145 -0.145)">
       <defs>
        <path id="CMR17-31" d="M 1702 4058 
C 1702 4192 1696 4192 1606 4192 
C 1357 3916 979 3827 621 3827 
C 602 3827 570 3827 563 3808 
C 557 3795 557 3782 557 3648 
C 755 3648 1088 3686 1344 3839 
L 1344 461 
C 1344 236 1331 160 781 160 
L 589 160 
L 589 0 
C 896 0 1216 0 1523 0 
C 1830 0 2150 0 2458 0 
L 2458 160 
L 2266 160 
C 1715 160 1702 230 1702 458 
L 1702 4058 
z
" transform="scale(0.015625)"/>
        <path id="CMR17-30" d="M 2688 2025 
C 2688 2416 2682 3080 2413 3591 
C 2176 4039 1798 4198 1466 4198 
C 1158 4198 768 4058 525 3597 
C 269 3118 243 2524 243 2025 
C 243 1661 250 1106 448 619 
C 723 -39 1216 -128 1466 -128 
C 1760 -128 2208 -7 2470 600 
C 2662 1042 2688 1559 2688 2025 
z
M 1466 -26 
C 1056 -26 813 325 723 812 
C 653 1188 653 1738 653 2096 
C 653 2588 653 2997 736 3387 
C 858 3929 1216 4096 1466 4096 
C 1728 4096 2067 3923 2189 3400 
C 2272 3036 2278 2607 2278 2096 
C 2278 1680 2278 1169 2202 792 
C 2067 95 1690 -26 1466 -26 
z
" transform="scale(0.015625)"/>
       </defs>
       <use xlink:href="#CMR17-31" transform="scale(0.996264)"/>
       <use xlink:href="#CMR17-30" transform="translate(45.690477 0) scale(0.996264)"/>
       <use xlink:href="#CMR17-30" transform="translate(91.380954 0) scale(0.996264)"/>
      </g>
     </g>
    </g>
    <g id="xtick_2">
     <g id="line2d_2">
      <g>
       <use xlink:href="#m3a1864030e" x="222.966942" y="320.4" style="stroke: #000000; stroke-width: 0.8"/>
      </g>
     </g>
     <g id="text_2">
      <!-- $\mathdefault{200}$ -->
      <g transform="translate(212.358409 337.431808) scale(0.145 -0.145)">
       <defs>
        <path id="CMR17-32" d="M 2669 989 
L 2554 989 
C 2490 536 2438 459 2413 420 
C 2381 369 1920 369 1830 369 
L 602 369 
C 832 619 1280 1072 1824 1597 
C 2214 1967 2669 2402 2669 3035 
C 2669 3790 2067 4224 1395 4224 
C 691 4224 262 3604 262 3030 
C 262 2780 448 2748 525 2748 
C 589 2748 781 2787 781 3010 
C 781 3207 614 3264 525 3264 
C 486 3264 448 3258 422 3245 
C 544 3790 915 4058 1306 4058 
C 1862 4058 2227 3617 2227 3035 
C 2227 2479 1901 2000 1536 1584 
L 262 146 
L 262 0 
L 2515 0 
L 2669 989 
z
" transform="scale(0.015625)"/>
       </defs>
       <use xlink:href="#CMR17-32" transform="scale(0.996264)"/>
       <use xlink:href="#CMR17-30" transform="translate(45.690477 0) scale(0.996264)"/>
       <use xlink:href="#CMR17-30" transform="translate(91.380954 0) scale(0.996264)"/>
      </g>
     </g>
    </g>
    <g id="xtick_3">
     <g id="line2d_3">
      <g>
       <use xlink:href="#m3a1864030e" x="299.826446" y="320.4" style="stroke: #000000; stroke-width: 0.8"/>
      </g>
     </g>
     <g id="text_3">
      <!-- $\mathdefault{300}$ -->
      <g transform="translate(289.217913 337.431808) scale(0.145 -0.145)">
       <defs>
        <path id="CMR17-33" d="M 1414 2157 
C 1984 2157 2234 1662 2234 1090 
C 2234 320 1824 25 1453 25 
C 1114 25 563 194 390 693 
C 422 680 454 680 486 680 
C 640 680 755 782 755 948 
C 755 1133 614 1216 486 1216 
C 378 1216 211 1165 211 926 
C 211 335 787 -128 1466 -128 
C 2176 -128 2720 430 2720 1085 
C 2720 1707 2208 2157 1600 2227 
C 2086 2328 2554 2756 2554 3329 
C 2554 3820 2048 4179 1472 4179 
C 890 4179 378 3829 378 3329 
C 378 3110 544 3072 627 3072 
C 762 3072 877 3155 877 3321 
C 877 3486 762 3569 627 3569 
C 602 3569 570 3569 544 3557 
C 730 3959 1235 4032 1459 4032 
C 1683 4032 2106 3925 2106 3320 
C 2106 3143 2080 2828 1862 2550 
C 1670 2304 1453 2304 1242 2284 
C 1210 2284 1062 2269 1037 2269 
C 992 2263 966 2257 966 2208 
C 966 2163 973 2157 1101 2157 
L 1414 2157 
z
" transform="scale(0.015625)"/>
       </defs>
       <use xlink:href="#CMR17-33" transform="scale(0.996264)"/>
       <use xlink:href="#CMR17-30" transform="translate(45.690477 0) scale(0.996264)"/>
       <use xlink:href="#CMR17-30" transform="translate(91.380954 0) scale(0.996264)"/>
      </g>
     </g>
    </g>
    <g id="xtick_4">
     <g id="line2d_4">
      <g>
       <use xlink:href="#m3a1864030e" x="376.68595" y="320.4" style="stroke: #000000; stroke-width: 0.8"/>
      </g>
     </g>
     <g id="text_4">
      <!-- $\mathdefault{400}$ -->
      <g transform="translate(366.077417 337.431808) scale(0.145 -0.145)">
       <defs>
        <path id="CMR17-34" d="M 2150 4122 
C 2150 4256 2144 4256 2029 4256 
L 128 1254 
L 128 1088 
L 1779 1088 
L 1779 457 
C 1779 224 1766 160 1318 160 
L 1197 160 
L 1197 0 
C 1402 0 1747 0 1965 0 
C 2182 0 2528 0 2733 0 
L 2733 160 
L 2611 160 
C 2163 160 2150 224 2150 457 
L 2150 1088 
L 2803 1088 
L 2803 1254 
L 2150 1254 
L 2150 4122 
z
M 1798 3703 
L 1798 1254 
L 256 1254 
L 1798 3703 
z
" transform="scale(0.015625)"/>
       </defs>
       <use xlink:href="#CMR17-34" transform="scale(0.996264)"/>
       <use xlink:href="#CMR17-30" transform="translate(45.690477 0) scale(0.996264)"/>
       <use xlink:href="#CMR17-30" transform="translate(91.380954 0) scale(0.996264)"/>
      </g>
     </g>
    </g>
    <g id="xtick_5">
     <g id="line2d_5">
      <g>
       <use xlink:href="#m3a1864030e" x="453.545455" y="320.4" style="stroke: #000000; stroke-width: 0.8"/>
      </g>
     </g>
     <g id="text_5">
      <!-- $\mathdefault{500}$ -->
      <g transform="translate(442.936921 337.431808) scale(0.145 -0.145)">
       <defs>
        <path id="CMR17-35" d="M 730 3692 
C 794 3666 1056 3584 1325 3584 
C 1920 3584 2246 3911 2432 4100 
C 2432 4157 2432 4192 2394 4192 
C 2387 4192 2374 4192 2323 4163 
C 2099 4058 1837 3973 1517 3973 
C 1325 3973 1037 3999 723 4139 
C 653 4171 640 4171 634 4171 
C 602 4171 595 4164 595 4037 
L 595 2203 
C 595 2089 595 2057 659 2057 
C 691 2057 704 2070 736 2114 
C 941 2401 1222 2522 1542 2522 
C 1766 2522 2246 2382 2246 1289 
C 2246 1085 2246 715 2054 421 
C 1894 159 1645 25 1370 25 
C 947 25 518 320 403 814 
C 429 807 480 795 506 795 
C 589 795 749 840 749 1038 
C 749 1210 627 1280 506 1280 
C 358 1280 262 1190 262 1011 
C 262 454 704 -128 1382 -128 
C 2042 -128 2669 440 2669 1264 
C 2669 2030 2170 2624 1549 2624 
C 1222 2624 947 2503 730 2274 
L 730 3692 
z
" transform="scale(0.015625)"/>
       </defs>
       <use xlink:href="#CMR17-35" transform="scale(0.996264)"/>
       <use xlink:href="#CMR17-30" transform="translate(45.690477 0) scale(0.996264)"/>
       <use xlink:href="#CMR17-30" transform="translate(91.380954 0) scale(0.996264)"/>
      </g>
     </g>
    </g>
    <g id="xtick_6">
     <g id="line2d_6">
      <g>
       <use xlink:href="#m3a1864030e" x="530.404959" y="320.4" style="stroke: #000000; stroke-width: 0.8"/>
      </g>
     </g>
     <g id="text_6">
      <!-- $\mathdefault{600}$ -->
      <g transform="translate(519.796425 337.431808) scale(0.145 -0.145)">
       <defs>
        <path id="CMR17-36" d="M 678 2176 
C 678 3690 1395 4032 1811 4032 
C 1946 4032 2272 4009 2400 3776 
C 2298 3776 2106 3776 2106 3553 
C 2106 3381 2246 3323 2336 3323 
C 2394 3323 2566 3348 2566 3560 
C 2566 3954 2246 4179 1805 4179 
C 1043 4179 243 3390 243 1984 
C 243 253 966 -128 1478 -128 
C 2099 -128 2688 427 2688 1283 
C 2688 2081 2170 2662 1517 2662 
C 1126 2662 838 2407 678 1960 
L 678 2176 
z
M 1478 25 
C 691 25 691 1200 691 1436 
C 691 1896 909 2560 1504 2560 
C 1613 2560 1926 2560 2138 2120 
C 2253 1870 2253 1609 2253 1289 
C 2253 944 2253 690 2118 434 
C 1978 171 1773 25 1478 25 
z
" transform="scale(0.015625)"/>
       </defs>
       <use xlink:href="#CMR17-36" transform="scale(0.996264)"/>
       <use xlink:href="#CMR17-30" transform="translate(45.690477 0) scale(0.996264)"/>
       <use xlink:href="#CMR17-30" transform="translate(91.380954 0) scale(0.996264)"/>
      </g>
     </g>
    </g>
    <g id="xtick_7">
     <g id="line2d_7">
      <g>
       <use xlink:href="#m3a1864030e" x="607.264463" y="320.4" style="stroke: #000000; stroke-width: 0.8"/>
      </g>
     </g>
     <g id="text_7">
      <!-- $\mathdefault{700}$ -->
      <g transform="translate(596.655929 337.431808) scale(0.145 -0.145)">
       <defs>
        <path id="CMR17-37" d="M 2886 3941 
L 2886 4081 
L 1382 4081 
C 634 4081 621 4165 595 4288 
L 480 4288 
L 294 3094 
L 410 3094 
C 429 3215 474 3540 550 3661 
C 589 3712 1062 3712 1171 3712 
L 2579 3712 
L 1869 2661 
C 1395 1954 1069 999 1069 165 
C 1069 89 1069 -128 1299 -128 
C 1530 -128 1530 89 1530 171 
L 1530 465 
C 1530 1508 1709 2196 2003 2636 
L 2886 3941 
z
" transform="scale(0.015625)"/>
       </defs>
       <use xlink:href="#CMR17-37" transform="scale(0.996264)"/>
       <use xlink:href="#CMR17-30" transform="translate(45.690477 0) scale(0.996264)"/>
       <use xlink:href="#CMR17-30" transform="translate(91.380954 0) scale(0.996264)"/>
      </g>
     </g>
    </g>
    <g id="text_8">
     <!-- time (s) -->
     <g transform="translate(345.477317 355.075073) scale(0.145 -0.145)">
      <defs>
       <path id="CMSS17-74" d="M 1069 2368 
L 1901 2368 
L 1901 2737 
L 1069 2737 
L 1069 3520 
L 614 3520 
L 614 2737 
L 109 2737 
L 109 2368 
L 602 2368 
L 602 749 
C 602 384 685 -64 1107 -64 
C 1427 -64 1722 25 2003 172 
L 1901 548 
C 1747 414 1562 337 1363 337 
C 1082 337 1069 696 1069 856 
L 1069 2368 
z
" transform="scale(0.015625)"/>
       <path id="CMSS17-69" d="M 979 4183 
L 442 4183 
L 442 3648 
L 979 3648 
L 979 4183 
z
M 947 2739 
L 474 2739 
L 474 0 
L 947 0 
L 947 2739 
z
" transform="scale(0.015625)"/>
       <path id="CMSS17-6d" d="M 4288 1877 
C 4288 2308 4179 2816 3462 2816 
C 2982 2816 2694 2516 2566 2331 
C 2451 2670 2182 2816 1798 2816 
C 1363 2816 1088 2568 941 2389 
L 941 2758 
L 474 2758 
L 474 0 
L 960 0 
L 960 1559 
C 960 1939 1101 2428 1555 2428 
C 2138 2428 2138 2016 2138 1829 
L 2138 0 
L 2624 0 
L 2624 1559 
C 2624 1939 2765 2428 3219 2428 
C 3802 2428 3802 2016 3802 1829 
L 3802 0 
L 4288 0 
L 4288 1877 
z
" transform="scale(0.015625)"/>
       <path id="CMSS17-65" d="M 2502 1377 
C 2502 1590 2490 2003 2285 2345 
C 2061 2713 1696 2816 1421 2816 
C 755 2816 192 2188 192 1375 
C 192 582 774 -64 1510 -64 
C 1798 -64 2150 19 2470 248 
C 2470 274 2458 414 2451 420 
C 2451 433 2432 630 2432 656 
C 2125 407 1773 325 1517 325 
C 1107 325 666 667 646 1377 
L 2502 1377 
z
M 698 1728 
C 781 2084 1062 2421 1421 2421 
C 1517 2421 1965 2421 2080 1728 
L 698 1728 
z
" transform="scale(0.015625)"/>
       <path id="CMSS17-28" d="M 1613 4768 
C 1267 4417 474 3601 474 1588 
C 474 -433 1267 -1243 1613 -1600 
L 2003 -1600 
C 1216 -784 960 357 960 1581 
C 960 2798 1203 3946 2003 4768 
L 1613 4768 
z
" transform="scale(0.015625)"/>
       <path id="CMSS17-73" d="M 2061 2627 
C 1683 2807 1389 2807 1197 2807 
C 742 2807 198 2648 198 2003 
C 198 1359 902 1218 1094 1179 
C 1389 1122 1715 1058 1715 740 
C 1715 337 1254 337 1171 337 
C 915 337 563 407 243 638 
L 166 210 
C 531 0 883 -64 1178 -64 
C 1965 -64 2163 416 2163 781 
C 2163 1094 1984 1305 1862 1401 
C 1651 1568 1574 1587 1050 1696 
C 960 1709 646 1779 646 2066 
C 646 2432 1050 2432 1139 2432 
C 1555 2432 1811 2303 1984 2208 
L 2061 2627 
z
" transform="scale(0.015625)"/>
       <path id="CMSS17-29" d="M 723 -1600 
C 1069 -1249 1862 -433 1862 1581 
C 1862 3601 1069 4411 723 4768 
L 333 4768 
C 1120 3952 1376 2811 1376 1588 
C 1376 370 1133 -778 333 -1600 
L 723 -1600 
z
" transform="scale(0.015625)"/>
      </defs>
      <use xlink:href="#CMSS17-74" transform="scale(0.996264)"/>
      <use xlink:href="#CMSS17-69" transform="translate(33.831567 0) scale(0.996264)"/>
      <use xlink:href="#CMSS17-6d" transform="translate(56.01229 0) scale(0.996264)"/>
      <use xlink:href="#CMSS17-65" transform="translate(130.241544 0) scale(0.996264)"/>
      <use xlink:href="#CMSS17-28" transform="translate(203.109479 0) scale(0.996264)"/>
      <use xlink:href="#CMSS17-73" transform="translate(239.543393 0) scale(0.996264)"/>
      <use xlink:href="#CMSS17-29" transform="translate(275.456935 0) scale(0.996264)"/>
     </g>
    </g>
   </g>
   <g id="matplotlib.axis_2">
    <g id="ytick_1">
     <g id="line2d_8">
      <path d="M 90 320.4 
L 648 320.4 
" clip-path="url(#pc5c0741ec2)" style="fill: none; stroke-dasharray: 1.85,0.8; stroke-dashoffset: 0; stroke: #808080; stroke-width: 0.5"/>
     </g>
     <g id="line2d_9">
      <defs>
       <path id="m5c3df36d59" d="M 0 0 
L -3.5 0 
" style="stroke: #000000; stroke-width: 0.8"/>
      </defs>
      <g>
       <use xlink:href="#m5c3df36d59" x="90" y="320.4" style="stroke: #000000; stroke-width: 0.8"/>
      </g>
     </g>
     <g id="text_9">
      <!-- $\mathdefault{0.0}$ -->
      <g transform="translate(64.926206 325.415904) scale(0.145 -0.145)">
       <defs>
        <path id="CMMI12-3a" d="M 1178 307 
C 1178 492 1024 619 870 619 
C 685 619 557 466 557 313 
C 557 128 710 0 864 0 
C 1050 0 1178 153 1178 307 
z
" transform="scale(0.015625)"/>
       </defs>
       <use xlink:href="#CMR17-30" transform="scale(0.996264)"/>
       <use xlink:href="#CMMI12-3a" transform="translate(45.690477 0) scale(0.996264)"/>
       <use xlink:href="#CMR17-30" transform="translate(72.787654 0) scale(0.996264)"/>
      </g>
     </g>
    </g>
    <g id="ytick_2">
     <g id="line2d_10">
      <path d="M 90 267.6 
L 648 267.6 
" clip-path="url(#pc5c0741ec2)" style="fill: none; stroke-dasharray: 1.85,0.8; stroke-dashoffset: 0; stroke: #808080; stroke-width: 0.5"/>
     </g>
     <g id="line2d_11">
      <g>
       <use xlink:href="#m5c3df36d59" x="90" y="267.6" style="stroke: #000000; stroke-width: 0.8"/>
      </g>
     </g>
     <g id="text_10">
      <!-- $\mathdefault{0.2}$ -->
      <g transform="translate(64.926206 272.615904) scale(0.145 -0.145)">
       <use xlink:href="#CMR17-30" transform="scale(0.996264)"/>
       <use xlink:href="#CMMI12-3a" transform="translate(45.690477 0) scale(0.996264)"/>
       <use xlink:href="#CMR17-32" transform="translate(72.787654 0) scale(0.996264)"/>
      </g>
     </g>
    </g>
    <g id="ytick_3">
     <g id="line2d_12">
      <path d="M 90 214.8 
L 648 214.8 
" clip-path="url(#pc5c0741ec2)" style="fill: none; stroke-dasharray: 1.85,0.8; stroke-dashoffset: 0; stroke: #808080; stroke-width: 0.5"/>
     </g>
     <g id="line2d_13">
      <g>
       <use xlink:href="#m5c3df36d59" x="90" y="214.8" style="stroke: #000000; stroke-width: 0.8"/>
      </g>
     </g>
     <g id="text_11">
      <!-- $\mathdefault{0.4}$ -->
      <g transform="translate(64.926206 219.815904) scale(0.145 -0.145)">
       <use xlink:href="#CMR17-30" transform="scale(0.996264)"/>
       <use xlink:href="#CMMI12-3a" transform="translate(45.690477 0) scale(0.996264)"/>
       <use xlink:href="#CMR17-34" transform="translate(72.787654 0) scale(0.996264)"/>
      </g>
     </g>
    </g>
    <g id="ytick_4">
     <g id="line2d_14">
      <path d="M 90 162 
L 648 162 
" clip-path="url(#pc5c0741ec2)" style="fill: none; stroke-dasharray: 1.85,0.8; stroke-dashoffset: 0; stroke: #808080; stroke-width: 0.5"/>
     </g>
     <g id="line2d_15">
      <g>
       <use xlink:href="#m5c3df36d59" x="90" y="162" style="stroke: #000000; stroke-width: 0.8"/>
      </g>
     </g>
     <g id="text_12">
      <!-- $\mathdefault{0.6}$ -->
      <g transform="translate(64.926206 167.015904) scale(0.145 -0.145)">
       <use xlink:href="#CMR17-30" transform="scale(0.996264)"/>
       <use xlink:href="#CMMI12-3a" transform="translate(45.690477 0) scale(0.996264)"/>
       <use xlink:href="#CMR17-36" transform="translate(72.787654 0) scale(0.996264)"/>
      </g>
     </g>
    </g>
    <g id="ytick_5">
     <g id="line2d_16">
      <path d="M 90 109.2 
L 648 109.2 
" clip-path="url(#pc5c0741ec2)" style="fill: none; stroke-dasharray: 1.85,0.8; stroke-dashoffset: 0; stroke: #808080; stroke-width: 0.5"/>
     </g>
     <g id="line2d_17">
      <g>
       <use xlink:href="#m5c3df36d59" x="90" y="109.2" style="stroke: #000000; stroke-width: 0.8"/>
      </g>
     </g>
     <g id="text_13">
      <!-- $\mathdefault{0.8}$ -->
      <g transform="translate(64.926206 114.215904) scale(0.145 -0.145)">
       <defs>
        <path id="CMR17-38" d="M 1741 2264 
C 2144 2467 2554 2773 2554 3263 
C 2554 3841 1990 4179 1472 4179 
C 890 4179 378 3759 378 3180 
C 378 3021 416 2747 666 2505 
C 730 2442 998 2251 1171 2130 
C 883 1983 211 1634 211 934 
C 211 279 838 -128 1459 -128 
C 2144 -128 2720 362 2720 1010 
C 2720 1590 2330 1857 2074 2029 
L 1741 2264 
z
M 902 2822 
C 851 2854 595 3051 595 3351 
C 595 3739 998 4032 1459 4032 
C 1965 4032 2336 3676 2336 3262 
C 2336 2669 1670 2331 1638 2331 
C 1632 2331 1626 2331 1574 2370 
L 902 2822 
z
M 2080 1519 
C 2176 1449 2483 1240 2483 851 
C 2483 381 2010 25 1472 25 
C 890 25 448 438 448 940 
C 448 1443 838 1862 1280 2060 
L 2080 1519 
z
" transform="scale(0.015625)"/>
       </defs>
       <use xlink:href="#CMR17-30" transform="scale(0.996264)"/>
       <use xlink:href="#CMMI12-3a" transform="translate(45.690477 0) scale(0.996264)"/>
       <use xlink:href="#CMR17-38" transform="translate(72.787654 0) scale(0.996264)"/>
      </g>
     </g>
    </g>
    <g id="ytick_6">
     <g id="line2d_18">
      <path d="M 90 56.4 
L 648 56.4 
" clip-path="url(#pc5c0741ec2)" style="fill: none; stroke-dasharray: 1.85,0.8; stroke-dashoffset: 0; stroke: #808080; stroke-width: 0.5"/>
     </g>
     <g id="line2d_19">
      <g>
       <use xlink:href="#m5c3df36d59" x="90" y="56.4" style="stroke: #000000; stroke-width: 0.8"/>
      </g>
     </g>
     <g id="text_14">
      <!-- $\mathdefault{1.0}$ -->
      <g transform="translate(64.926206 61.415904) scale(0.145 -0.145)">
       <use xlink:href="#CMR17-31" transform="scale(0.996264)"/>
       <use xlink:href="#CMMI12-3a" transform="translate(45.690477 0) scale(0.996264)"/>
       <use xlink:href="#CMR17-30" transform="translate(72.787654 0) scale(0.996264)"/>
      </g>
     </g>
    </g>
    <g id="text_15">
     <!-- QoS -->
     <g transform="translate(58.117312 194.481753) rotate(-90) scale(0.145 -0.145)">
      <defs>
       <path id="CMSS17-51" d="M 3200 202 
C 3981 833 4096 1689 4096 2174 
C 4096 3501 3219 4497 2214 4497 
C 1210 4497 333 3497 333 2178 
C 333 847 1222 -128 2214 -128 
C 2438 -128 2630 -77 2765 -26 
L 3302 -832 
L 3930 -832 
L 3200 202 
z
M 2528 324 
C 2438 293 2330 273 2214 273 
C 1523 273 858 993 858 2178 
C 858 3357 1517 4096 2214 4096 
C 2918 4096 3571 3350 3571 2178 
C 3571 1771 3507 1089 2950 566 
L 2490 1210 
L 1939 1210 
L 2528 324 
z
" transform="scale(0.015625)"/>
       <path id="CMSS17-6f" d="M 2829 1356 
C 2829 2176 2221 2816 1504 2816 
C 768 2816 173 2157 173 1356 
C 173 544 787 -64 1498 -64 
C 2227 -64 2829 563 2829 1356 
z
M 1504 337 
C 1050 337 659 709 659 1408 
C 659 2151 1114 2427 1498 2427 
C 1914 2427 2342 2126 2342 1408 
C 2342 683 1926 337 1504 337 
z
" transform="scale(0.015625)"/>
       <path id="CMSS17-53" d="M 2797 4169 
C 2515 4334 2208 4480 1690 4480 
C 864 4480 333 3879 333 3266 
C 333 3025 403 2753 653 2475 
C 902 2196 1184 2121 1542 2033 
C 1690 1994 1939 1924 1984 1906 
C 2342 1767 2515 1444 2515 1140 
C 2515 742 2202 318 1645 318 
C 1453 318 890 318 358 819 
L 269 318 
C 794 -64 1363 -128 1651 -128 
C 2438 -128 3002 488 3002 1186 
C 3002 1440 2925 1763 2656 2061 
C 2394 2347 2163 2410 1638 2549 
C 1338 2626 1146 2677 986 2873 
C 877 3013 819 3146 819 3317 
C 819 3673 1126 4060 1690 4060 
C 1971 4060 2336 4002 2707 3660 
L 2797 4169 
z
" transform="scale(0.015625)"/>
      </defs>
      <use xlink:href="#CMSS17-51" transform="scale(0.996264)"/>
      <use xlink:href="#CMSS17-6f" transform="translate(69.024255 0) scale(0.996264)"/>
      <use xlink:href="#CMSS17-53" transform="translate(115.867879 0) scale(0.996264)"/>
     </g>
    </g>
   </g>
   <g id="line2d_20">
    <path d="M 115.363636 210.207984 
L 225.578881 210.207984 
L 226.991897 217.095216 
L 234.056976 217.095216 
L 235.469992 205.617288 
L 241.122056 205.617288 
L 242.535072 206.76516 
L 249.600152 206.76516 
L 251.013168 222.834576 
L 256.665232 222.834576 
L 258.078248 230.868624 
L 464.378577 230.868624 
L 465.791593 215.948136 
L 479.921752 215.94708 
L 481.334768 212.503464 
L 622.636364 212.503464 
L 622.636364 212.503464 
" clip-path="url(#pc5c0741ec2)" style="fill: none; stroke: #482475; stroke-width: 2.5; stroke-linecap: square"/>
   </g>
   <g id="line2d_21">
    <path d="M 115.363636 159.704784 
L 225.578881 159.704784 
L 226.991897 172.33032 
L 234.056976 172.33032 
L 235.469992 173.478192 
L 241.122056 173.478192 
L 242.535072 179.217288 
L 249.600152 179.217288 
L 251.013168 205.617552 
L 256.665232 205.617552 
L 258.078248 225.129792 
L 265.143327 225.129792 
L 266.556343 227.425272 
L 272.208407 227.425272 
L 273.621423 228.57288 
L 464.378577 228.57288 
L 465.791593 195.286968 
L 471.443657 195.286968 
L 472.856673 160.852392 
L 479.921752 160.852392 
L 481.334768 159.704784 
L 622.636364 159.704784 
L 622.636364 159.704784 
" clip-path="url(#pc5c0741ec2)" style="fill: none; stroke: #bddf26; stroke-width: 2.5; stroke-linecap: square"/>
   </g>
   <g id="patch_3">
    <path d="M 90 320.4 
L 90 43.2 
" style="fill: none; stroke: #000000; stroke-width: 0.8; stroke-linejoin: miter; stroke-linecap: square"/>
   </g>
   <g id="patch_4">
    <path d="M 648 320.4 
L 648 43.2 
" style="fill: none; stroke: #000000; stroke-width: 0.8; stroke-linejoin: miter; stroke-linecap: square"/>
   </g>
   <g id="patch_5">
    <path d="M 90 320.4 
L 648 320.4 
" style="fill: none; stroke: #000000; stroke-width: 0.8; stroke-linejoin: miter; stroke-linecap: square"/>
   </g>
   <g id="text_16">
    <!-- $nt=Lobster$ $d=25$ $oc=3\%$ $l=local$ -->
    <g transform="translate(224.244493 37.2) scale(0.18 -0.18)">
     <defs>
      <path id="CMMI12-6e" d="M 1318 1871 
C 1331 1910 1491 2229 1728 2433 
C 1894 2586 2112 2689 2362 2689 
C 2618 2689 2707 2497 2707 2242 
C 2707 1878 2445 1150 2317 805 
C 2259 651 2227 568 2227 453 
C 2227 166 2426 -64 2733 -64 
C 3328 -64 3552 875 3552 913 
C 3552 945 3526 971 3488 971 
C 3430 971 3424 952 3392 843 
C 3245 319 3002 64 2752 64 
C 2688 64 2586 64 2586 269 
C 2586 429 2656 621 2694 710 
C 2822 1063 3091 1780 3091 2145 
C 3091 2528 2867 2816 2381 2816 
C 1811 2816 1510 2415 1395 2255 
C 1376 2618 1114 2816 832 2816 
C 627 2816 486 2695 378 2478 
C 262 2248 173 1865 173 1839 
C 173 1814 198 1782 243 1782 
C 294 1782 301 1788 339 1935 
C 442 2325 557 2689 813 2689 
C 960 2689 1011 2586 1011 2395 
C 1011 2254 947 2005 902 1807 
L 723 1118 
C 698 996 627 709 595 594 
C 550 428 480 128 480 96 
C 480 6 550 -64 646 -64 
C 723 -64 813 -26 864 70 
C 877 102 934 326 966 453 
L 1107 1028 
L 1318 1871 
z
" transform="scale(0.015625)"/>
      <path id="CMMI12-74" d="M 1286 2566 
L 1875 2566 
C 1997 2566 2061 2566 2061 2681 
C 2061 2752 2022 2752 1894 2752 
L 1331 2752 
L 1568 3692 
C 1594 3781 1594 3794 1594 3840 
C 1594 3943 1510 4000 1427 4000 
C 1376 4000 1229 3981 1178 3775 
L 928 2752 
L 326 2752 
C 198 2752 141 2752 141 2630 
C 141 2566 186 2566 307 2566 
L 877 2566 
L 454 881 
C 403 658 384 594 384 511 
C 384 211 595 -64 954 -64 
C 1600 -64 1946 868 1946 912 
C 1946 951 1920 970 1882 970 
C 1869 970 1843 970 1830 944 
C 1824 938 1818 931 1773 829 
C 1638 511 1344 64 973 64 
C 781 64 768 224 768 364 
C 768 370 768 492 787 568 
L 1286 2566 
z
" transform="scale(0.015625)"/>
      <path id="CMR17-3d" d="M 4115 2017 
C 4211 2017 4307 2017 4307 2125 
C 4307 2240 4198 2240 4090 2240 
L 512 2240 
C 403 2240 294 2240 294 2125 
C 294 2017 390 2017 486 2017 
L 4115 2017 
z
M 4090 896 
C 4198 896 4307 896 4307 1011 
C 4307 1119 4211 1119 4115 1119 
L 486 1119 
C 390 1119 294 1119 294 1011 
C 294 896 403 896 512 896 
L 4090 896 
z
" transform="scale(0.015625)"/>
      <path id="CMMI12-4c" d="M 2349 3861 
C 2406 4103 2426 4167 2989 4167 
C 3162 4167 3206 4167 3206 4288 
C 3206 4352 3136 4352 3110 4352 
C 2982 4352 2835 4352 2707 4352 
L 1850 4352 
C 1728 4352 1587 4352 1466 4352 
C 1414 4352 1344 4352 1344 4231 
C 1344 4167 1402 4167 1498 4167 
C 1888 4167 1888 4116 1888 4046 
C 1888 4034 1888 3995 1862 3899 
L 998 472 
C 941 249 928 185 480 185 
C 358 185 294 185 294 70 
C 294 0 333 0 461 0 
L 3328 0 
C 3469 0 3475 6 3520 121 
L 4013 1478 
C 4026 1510 4038 1548 4038 1567 
C 4038 1605 4006 1631 3974 1631 
C 3968 1631 3936 1631 3923 1605 
C 3910 1599 3910 1586 3859 1465 
C 3654 905 3366 185 2285 185 
L 1670 185 
C 1581 185 1568 185 1530 192 
C 1459 198 1453 211 1453 262 
C 1453 307 1466 345 1478 401 
L 2349 3861 
z
" transform="scale(0.015625)"/>
      <path id="CMMI12-6f" d="M 2918 1756 
C 2918 2363 2522 2816 1939 2816 
C 1094 2816 262 1897 262 996 
C 262 390 659 -64 1242 -64 
C 2093 -64 2918 856 2918 1756 
z
M 1248 64 
C 928 64 691 319 691 766 
C 691 1060 845 1712 1024 2031 
C 1312 2523 1670 2689 1933 2689 
C 2246 2689 2490 2433 2490 1986 
C 2490 1731 2355 1047 2112 658 
C 1850 230 1498 64 1248 64 
z
" transform="scale(0.015625)"/>
      <path id="CMMI12-62" d="M 1478 4257 
C 1485 4283 1498 4321 1498 4352 
C 1498 4416 1434 4416 1421 4416 
C 1414 4416 1184 4393 1069 4377 
C 960 4377 864 4358 749 4358 
C 595 4345 550 4339 550 4224 
C 550 4160 614 4160 678 4160 
C 1005 4160 1005 4103 1005 4040 
C 1005 3996 954 3811 928 3696 
L 774 3085 
C 710 2831 346 1387 320 1272 
C 288 1114 288 1005 288 922 
C 288 274 653 -64 1069 -64 
C 1811 -64 2579 888 2579 1814 
C 2579 2401 2246 2816 1766 2816 
C 1434 2816 1133 2542 1011 2414 
L 1478 4257 
z
M 1075 64 
C 870 64 646 217 646 715 
C 646 926 666 1047 781 1494 
C 800 1577 902 1986 928 2069 
C 941 2120 1318 2689 1754 2689 
C 2035 2689 2163 2408 2163 2076 
C 2163 1769 1984 1047 1824 715 
C 1664 370 1370 64 1075 64 
z
" transform="scale(0.015625)"/>
      <path id="CMMI12-73" d="M 1459 1280 
C 1568 1261 1741 1223 1779 1216 
C 1862 1192 2150 1090 2150 783 
C 2150 586 1971 70 1229 70 
C 1094 70 614 70 486 436 
C 742 404 870 603 870 745 
C 870 880 781 950 653 950 
C 512 950 326 841 326 552 
C 326 173 710 -64 1222 -64 
C 2195 -64 2483 651 2483 984 
C 2483 1079 2483 1258 2278 1462 
C 2118 1616 1965 1648 1619 1718 
C 1446 1756 1171 1814 1171 2101 
C 1171 2229 1286 2689 1894 2689 
C 2163 2689 2426 2589 2490 2368 
C 2208 2368 2195 2125 2195 2119 
C 2195 1984 2317 1946 2374 1946 
C 2464 1946 2643 2015 2643 2281 
C 2643 2545 2400 2816 1901 2816 
C 1062 2816 838 2160 838 1899 
C 838 1414 1312 1312 1459 1280 
z
" transform="scale(0.015625)"/>
      <path id="CMMI12-65" d="M 1146 1479 
C 1318 1479 1754 1479 2061 1595 
C 2547 1783 2592 2158 2592 2274 
C 2592 2558 2349 2816 1926 2816 
C 1254 2816 288 2210 288 1073 
C 288 402 672 -64 1254 -64 
C 2125 -64 2675 609 2675 692 
C 2675 730 2637 762 2611 762 
C 2592 762 2586 756 2528 699 
C 2118 159 1510 64 1267 64 
C 902 64 710 350 710 822 
C 710 911 710 1071 806 1479 
L 1146 1479 
z
M 838 1600 
C 1114 2592 1722 2689 1926 2689 
C 2208 2689 2400 2522 2400 2277 
C 2400 1600 1376 1600 1107 1600 
L 838 1600 
z
" transform="scale(0.015625)"/>
      <path id="CMMI12-72" d="M 2490 2612 
C 2291 2574 2189 2433 2189 2293 
C 2189 2139 2310 2088 2400 2088 
C 2579 2088 2726 2242 2726 2433 
C 2726 2638 2528 2816 2208 2816 
C 1952 2816 1658 2701 1389 2312 
C 1344 2650 1088 2816 832 2816 
C 582 2816 454 2625 378 2484 
C 269 2254 173 1871 173 1839 
C 173 1814 198 1782 243 1782 
C 294 1782 301 1788 339 1935 
C 435 2318 557 2689 813 2689 
C 966 2689 1011 2580 1011 2395 
C 1011 2254 947 2005 902 1807 
L 723 1118 
C 698 996 627 709 595 594 
C 550 428 480 128 480 96 
C 480 6 550 -64 646 -64 
C 717 -64 838 -19 877 109 
C 896 160 1133 1124 1171 1271 
C 1203 1411 1242 1546 1274 1686 
C 1299 1775 1325 1878 1344 1961 
C 1363 2018 1536 2331 1696 2472 
C 1773 2542 1939 2689 2202 2689 
C 2304 2689 2406 2670 2490 2612 
z
" transform="scale(0.015625)"/>
      <path id="CMMI12-64" d="M 3219 4257 
C 3226 4282 3238 4320 3238 4352 
C 3238 4416 3174 4416 3162 4416 
C 3155 4416 2842 4388 2810 4380 
C 2701 4373 2605 4358 2490 4358 
C 2330 4345 2285 4339 2285 4224 
C 2285 4160 2336 4160 2426 4160 
C 2739 4160 2746 4103 2746 4040 
C 2746 4002 2733 3952 2726 3933 
L 2336 2395 
C 2266 2561 2093 2816 1760 2816 
C 1037 2816 256 1884 256 939 
C 256 307 627 -64 1062 -64 
C 1414 -64 1715 211 1894 422 
C 1958 45 2259 -64 2451 -64 
C 2643 -64 2797 51 2912 281 
C 3014 498 3104 888 3104 913 
C 3104 945 3078 971 3040 971 
C 2982 971 2976 939 2950 843 
C 2854 466 2733 64 2470 64 
C 2285 64 2272 229 2272 357 
C 2272 382 2272 515 2317 694 
L 3219 4257 
z
M 1926 760 
C 1894 651 1894 639 1805 517 
C 1664 338 1382 64 1082 64 
C 819 64 672 300 672 677 
C 672 1028 870 1743 992 2012 
C 1210 2459 1510 2689 1760 2689 
C 2182 2689 2266 2165 2266 2114 
C 2266 2108 2246 2024 2240 2012 
L 1926 760 
z
" transform="scale(0.015625)"/>
      <path id="CMMI12-63" d="M 2502 2431 
C 2381 2431 2323 2431 2234 2355 
C 2195 2323 2125 2227 2125 2125 
C 2125 1997 2221 1920 2342 1920 
C 2496 1920 2669 2044 2669 2292 
C 2669 2588 2374 2816 1933 2816 
C 1094 2816 256 1903 256 996 
C 256 441 602 -64 1254 -64 
C 2125 -64 2675 622 2675 706 
C 2675 744 2637 776 2611 776 
C 2592 776 2586 770 2528 713 
C 2118 162 1510 64 1267 64 
C 826 64 685 446 685 764 
C 685 988 794 1605 1024 2039 
C 1190 2338 1536 2682 1939 2682 
C 2022 2682 2374 2682 2502 2431 
z
" transform="scale(0.015625)"/>
      <path id="CMR17-25" d="M 4640 959 
C 4640 1698 4275 2240 3846 2240 
C 3411 2240 2970 1736 2970 959 
C 2970 183 3405 -320 3846 -320 
C 4275 -320 4640 215 4640 959 
z
M 3853 -218 
C 3686 -218 3270 -66 3270 959 
C 3270 1991 3686 2138 3853 2138 
C 4205 2138 4525 1634 4525 959 
C 4525 285 4205 -218 3853 -218 
z
M 4083 4577 
C 4128 4647 4134 4653 4134 4685 
C 4134 4761 4077 4800 4026 4800 
C 3962 4800 3936 4756 3891 4706 
C 3520 4190 3008 4134 2746 4134 
C 2106 4134 1715 4494 1594 4607 
C 1510 4682 1389 4800 1171 4800 
C 736 4800 294 4296 294 3519 
C 294 2743 730 2240 1171 2240 
C 1600 2240 1965 2778 1965 3527 
C 1965 3969 1830 4270 1811 4308 
C 2202 4064 2586 4032 2752 4032 
C 3162 4032 3456 4183 3616 4289 
L 3622 4283 
L 858 -84 
C 800 -174 800 -187 800 -206 
C 800 -276 858 -320 915 -320 
C 973 -320 992 -289 1037 -218 
L 4083 4577 
z
M 1178 2342 
C 1011 2342 595 2494 595 3519 
C 595 4551 1011 4698 1178 4698 
C 1530 4698 1850 4194 1850 3519 
C 1850 2845 1530 2342 1178 2342 
z
" transform="scale(0.015625)"/>
      <path id="CMMI12-6c" d="M 1626 4257 
C 1632 4282 1645 4320 1645 4352 
C 1645 4416 1581 4416 1568 4416 
C 1562 4416 1331 4393 1216 4377 
C 1107 4377 1011 4358 896 4358 
C 742 4345 698 4339 698 4224 
C 698 4160 762 4160 826 4160 
C 1152 4160 1152 4102 1152 4039 
C 1152 4014 1152 4001 1120 3887 
L 326 731 
C 307 661 294 610 294 509 
C 294 191 531 -64 858 -64 
C 1069 -64 1210 76 1312 274 
C 1421 483 1510 884 1510 909 
C 1510 941 1485 967 1446 967 
C 1389 967 1382 935 1357 840 
C 1242 401 1126 64 870 64 
C 678 64 678 267 678 357 
C 678 382 678 515 723 694 
L 1626 4257 
z
" transform="scale(0.015625)"/>
      <path id="CMMI12-61" d="M 1926 760 
C 1894 651 1894 639 1805 517 
C 1664 338 1382 64 1082 64 
C 819 64 672 300 672 677 
C 672 1028 870 1743 992 2012 
C 1210 2459 1510 2689 1760 2689 
C 2182 2689 2266 2165 2266 2114 
C 2266 2108 2246 2024 2240 2012 
L 1926 760 
z
M 2336 2395 
C 2266 2561 2093 2816 1760 2816 
C 1037 2816 256 1884 256 939 
C 256 307 627 -64 1062 -64 
C 1414 -64 1715 211 1894 422 
C 1958 45 2259 -64 2451 -64 
C 2643 -64 2797 51 2912 281 
C 3014 498 3104 888 3104 913 
C 3104 945 3078 971 3040 971 
C 2982 971 2976 939 2950 843 
C 2854 466 2733 64 2470 64 
C 2285 64 2272 230 2272 358 
C 2272 505 2291 575 2349 824 
C 2394 984 2426 1124 2477 1309 
C 2714 2267 2771 2497 2771 2535 
C 2771 2625 2701 2695 2605 2695 
C 2400 2695 2349 2472 2336 2395 
z
" transform="scale(0.015625)"/>
     </defs>
     <use xlink:href="#CMMI12-6e" transform="scale(0.996264)"/>
     <use xlink:href="#CMMI12-74" transform="translate(58.230047 0) scale(0.996264)"/>
     <use xlink:href="#CMR17-3d" transform="translate(121.130386 0) scale(0.996264)"/>
     <use xlink:href="#CMMI12-4c" transform="translate(220.519183 0) scale(0.996264)"/>
     <use xlink:href="#CMMI12-6f" transform="translate(286.890059 0) scale(0.996264)"/>
     <use xlink:href="#CMMI12-62" transform="translate(333.785368 0) scale(0.996264)"/>
     <use xlink:href="#CMMI12-73" transform="translate(375.261243 0) scale(0.996264)"/>
     <use xlink:href="#CMMI12-74" transform="translate(421.21129 0) scale(0.996264)"/>
     <use xlink:href="#CMMI12-65" transform="translate(456.43762 0) scale(0.996264)"/>
     <use xlink:href="#CMMI12-72" transform="translate(501.649621 0) scale(0.996264)"/>
     <use xlink:href="#CMMI12-64" transform="translate(579.549346 0) scale(0.996264)"/>
     <use xlink:href="#CMR17-3d" transform="translate(657.912452 0) scale(0.996264)"/>
     <use xlink:href="#CMR17-32" transform="translate(757.301249 0) scale(0.996264)"/>
     <use xlink:href="#CMR17-35" transform="translate(802.991726 0) scale(0.996264)"/>
     <use xlink:href="#CMMI12-6f" transform="translate(879.911316 0) scale(0.996264)"/>
     <use xlink:href="#CMMI12-63" transform="translate(926.806625 0) scale(0.996264)"/>
     <use xlink:href="#CMR17-3d" transform="translate(996.463868 0) scale(0.996264)"/>
     <use xlink:href="#CMR17-33" transform="translate(1095.852665 0) scale(0.996264)"/>
     <use xlink:href="#CMR17-25" transform="translate(1141.543142 0) scale(0.996264)"/>
     <use xlink:href="#CMMI12-6c" transform="translate(1249.691845 0) scale(0.996264)"/>
     <use xlink:href="#CMR17-3d" transform="translate(1308.614257 0) scale(0.996264)"/>
     <use xlink:href="#CMMI12-6c" transform="translate(1408.003054 0) scale(0.996264)"/>
     <use xlink:href="#CMMI12-6f" transform="translate(1439.251458 0) scale(0.996264)"/>
     <use xlink:href="#CMMI12-63" transform="translate(1486.146768 0) scale(0.996264)"/>
     <use xlink:href="#CMMI12-61" transform="translate(1528.130001 0) scale(0.996264)"/>
     <use xlink:href="#CMMI12-6c" transform="translate(1579.337859 0) scale(0.996264)"/>
    </g>
   </g>
  </g>
  <g id="axes_2">
   <g id="matplotlib.axis_3">
    <g id="ytick_7">
     <g id="line2d_22">
      <defs>
       <path id="m4280af4a85" d="M 0 0 
L 3.5 0 
" style="stroke: #000000; stroke-width: 0.8"/>
      </defs>
      <g>
       <use xlink:href="#m4280af4a85" x="648" y="320.4" style="stroke: #000000; stroke-width: 0.8"/>
      </g>
     </g>
     <g id="text_17">
      <!-- $\mathdefault{0}$ -->
      <g transform="translate(655 325.415904) scale(0.145 -0.145)">
       <use xlink:href="#CMR17-30" transform="scale(0.996264)"/>
      </g>
     </g>
    </g>
    <g id="ytick_8">
     <g id="line2d_23">
      <g>
       <use xlink:href="#m4280af4a85" x="648" y="264.987706" style="stroke: #000000; stroke-width: 0.8"/>
      </g>
     </g>
     <g id="text_18">
      <!-- $\mathdefault{20}$ -->
      <g transform="translate(655 270.00361) scale(0.145 -0.145)">
       <use xlink:href="#CMR17-32" transform="scale(0.996264)"/>
       <use xlink:href="#CMR17-30" transform="translate(45.690477 0) scale(0.996264)"/>
      </g>
     </g>
    </g>
    <g id="ytick_9">
     <g id="line2d_24">
      <g>
       <use xlink:href="#m4280af4a85" x="648" y="209.575412" style="stroke: #000000; stroke-width: 0.8"/>
      </g>
     </g>
     <g id="text_19">
      <!-- $\mathdefault{40}$ -->
      <g transform="translate(655 214.591316) scale(0.145 -0.145)">
       <use xlink:href="#CMR17-34" transform="scale(0.996264)"/>
       <use xlink:href="#CMR17-30" transform="translate(45.690477 0) scale(0.996264)"/>
      </g>
     </g>
    </g>
    <g id="ytick_10">
     <g id="line2d_25">
      <g>
       <use xlink:href="#m4280af4a85" x="648" y="154.163118" style="stroke: #000000; stroke-width: 0.8"/>
      </g>
     </g>
     <g id="text_20">
      <!-- $\mathdefault{60}$ -->
      <g transform="translate(655 159.179023) scale(0.145 -0.145)">
       <use xlink:href="#CMR17-36" transform="scale(0.996264)"/>
       <use xlink:href="#CMR17-30" transform="translate(45.690477 0) scale(0.996264)"/>
      </g>
     </g>
    </g>
    <g id="ytick_11">
     <g id="line2d_26">
      <g>
       <use xlink:href="#m4280af4a85" x="648" y="98.750825" style="stroke: #000000; stroke-width: 0.8"/>
      </g>
     </g>
     <g id="text_21">
      <!-- $\mathdefault{80}$ -->
      <g transform="translate(655 103.766729) scale(0.145 -0.145)">
       <use xlink:href="#CMR17-38" transform="scale(0.996264)"/>
       <use xlink:href="#CMR17-30" transform="translate(45.690477 0) scale(0.996264)"/>
      </g>
     </g>
    </g>
    <g id="ytick_12">
     <g id="line2d_27">
      <g>
       <use xlink:href="#m4280af4a85" x="648" y="43.338531" style="stroke: #000000; stroke-width: 0.8"/>
      </g>
     </g>
     <g id="text_22">
      <!-- $\mathdefault{100}$ -->
      <g transform="translate(655 48.354435) scale(0.145 -0.145)">
       <use xlink:href="#CMR17-31" transform="scale(0.996264)"/>
       <use xlink:href="#CMR17-30" transform="translate(45.690477 0) scale(0.996264)"/>
       <use xlink:href="#CMR17-30" transform="translate(91.380954 0) scale(0.996264)"/>
      </g>
     </g>
    </g>
    <g id="text_23">
     <!-- CPU load in \% -->
     <g transform="translate(690.248875 226.102524) rotate(-90) scale(0.145 -0.145)">
      <defs>
       <path id="CMSS17-43" d="M 3501 714 
C 3072 427 2874 344 2355 344 
C 1459 344 934 1303 934 2179 
C 934 3112 1472 4032 2381 4032 
C 2790 4032 3059 3918 3386 3715 
L 3475 4217 
C 3168 4370 2778 4440 2387 4440 
C 1158 4440 397 3316 397 2179 
C 397 927 1299 -64 2323 -64 
C 2874 -64 3066 -19 3539 280 
L 3501 714 
z
" transform="scale(0.015625)"/>
       <path id="CMSS17-50" d="M 2106 1856 
C 2874 1856 3501 2453 3501 3158 
C 3501 3850 2899 4453 2067 4453 
L 570 4453 
L 570 0 
L 1107 0 
L 1107 1856 
L 2106 1856 
z
M 1926 4096 
C 2669 4096 2995 3627 2995 3157 
C 2995 2720 2694 2226 1926 2226 
L 1094 2226 
L 1094 4096 
L 1926 4096 
z
" transform="scale(0.015625)"/>
       <path id="CMSS17-55" d="M 3552 4384 
L 3066 4384 
L 3066 1449 
C 3066 604 2547 229 2074 229 
C 1587 229 1101 623 1101 1443 
L 1101 4384 
L 563 4384 
L 563 1454 
C 563 539 1274 -128 2067 -128 
C 2861 -128 3552 539 3552 1454 
L 3552 4384 
z
" transform="scale(0.015625)"/>
       <path id="CMSS17-6c" d="M 947 4416 
L 474 4416 
L 474 0 
L 947 0 
L 947 4416 
z
" transform="scale(0.015625)"/>
       <path id="CMSS17-61" d="M 2406 1791 
C 2406 2392 1978 2808 1402 2808 
C 1120 2808 813 2757 461 2553 
L 499 2135 
C 659 2248 934 2432 1395 2432 
C 1722 2432 1920 2180 1920 1782 
L 1920 1536 
C 896 1536 256 1238 256 726 
C 256 461 416 -64 947 -64 
C 1043 -64 1562 -64 1933 217 
L 1933 -19 
L 2406 -19 
L 2406 1791 
z
M 1920 816 
C 1920 701 1920 548 1728 434 
C 1562 325 1350 325 1261 325 
C 941 325 723 511 723 744 
C 723 1211 1722 1211 1920 1211 
L 1920 816 
z
" transform="scale(0.015625)"/>
       <path id="CMSS17-64" d="M 2611 4416 
L 2138 4416 
L 2138 2438 
C 1939 2603 1613 2756 1254 2756 
C 672 2756 211 2131 211 1347 
C 211 562 666 -64 1235 -64 
C 1677 -64 1971 172 2125 306 
L 2125 -13 
L 2611 -13 
L 2611 4416 
z
M 2125 836 
C 2125 747 2125 653 1926 482 
C 1798 375 1645 325 1498 325 
C 1152 325 698 576 698 1340 
C 698 2134 1210 2368 1562 2368 
C 1798 2368 1990 2254 2125 2065 
L 2125 836 
z
" transform="scale(0.015625)"/>
       <path id="CMSS17-6e" d="M 2618 1877 
C 2618 2283 2522 2816 1798 2816 
C 1389 2816 1120 2606 941 2389 
L 941 2758 
L 474 2758 
L 474 0 
L 960 0 
L 960 1559 
C 960 1964 1114 2428 1549 2428 
C 2112 2428 2131 2048 2131 1829 
L 2131 0 
L 2618 0 
L 2618 1877 
z
" transform="scale(0.015625)"/>
       <path id="CMSS17-25" d="M 3923 4583 
C 3962 4647 3962 4679 3962 4685 
C 3962 4755 3904 4800 3853 4800 
C 3782 4800 3750 4749 3718 4685 
L 1101 -104 
C 1088 -129 1062 -167 1062 -206 
C 1062 -276 1120 -320 1178 -320 
C 1235 -320 1248 -295 1299 -206 
L 3923 4583 
z
M 4678 959 
C 4678 1698 4282 2240 3846 2240 
C 3418 2240 3008 1711 3008 959 
C 3008 208 3418 -320 3846 -320 
C 4288 -320 4678 221 4678 959 
z
M 3846 68 
C 3712 68 3494 189 3494 959 
C 3494 1724 3712 1851 3846 1851 
C 4083 1851 4211 1386 4211 959 
C 4211 533 4083 68 3846 68 
z
M 2003 3519 
C 2003 4258 1606 4800 1171 4800 
C 742 4800 333 4271 333 3519 
C 333 2768 742 2240 1171 2240 
C 1613 2240 2003 2781 2003 3519 
z
M 1171 2628 
C 1037 2628 819 2749 819 3519 
C 819 4284 1037 4411 1171 4411 
C 1408 4411 1536 3946 1536 3519 
C 1536 3093 1408 2628 1171 2628 
z
" transform="scale(0.015625)"/>
      </defs>
      <use xlink:href="#CMSS17-43" transform="scale(0.996264)"/>
      <use xlink:href="#CMSS17-50" transform="translate(59.855772 0) scale(0.996264)"/>
      <use xlink:href="#CMSS17-55" transform="translate(119.591358 0) scale(0.996264)"/>
      <use xlink:href="#CMSS17-6c" transform="translate(214.960211 0) scale(0.996264)"/>
      <use xlink:href="#CMSS17-6f" transform="translate(237.140934 0) scale(0.996264)"/>
      <use xlink:href="#CMSS17-61" transform="translate(283.984557 0) scale(0.996264)"/>
      <use xlink:href="#CMSS17-64" transform="translate(328.906478 0) scale(0.996264)"/>
      <use xlink:href="#CMSS17-69" transform="translate(408.340534 0) scale(0.996264)"/>
      <use xlink:href="#CMSS17-6e" transform="translate(430.521257 0) scale(0.996264)"/>
      <use xlink:href="#CMSS17-25" transform="translate(509.955313 0) scale(0.996264)"/>
     </g>
    </g>
   </g>
   <g id="line2d_28">
    <path d="M 115.363636 112.603898 
L 622.636364 112.603898 
L 622.636364 112.603898 
" clip-path="url(#pc5c0741ec2)" style="fill: none; stroke-dasharray: 5.55,2.4; stroke-dashoffset: 0; stroke: #140e36; stroke-width: 1.5"/>
   </g>
   <g id="patch_6">
    <path d="M 90 320.4 
L 90 43.2 
" style="fill: none; stroke: #000000; stroke-width: 0.8; stroke-linejoin: miter; stroke-linecap: square"/>
   </g>
   <g id="patch_7">
    <path d="M 648 320.4 
L 648 43.2 
" style="fill: none; stroke: #000000; stroke-width: 0.8; stroke-linejoin: miter; stroke-linecap: square"/>
   </g>
   <g id="patch_8">
    <path d="M 90 320.4 
L 648 320.4 
" style="fill: none; stroke: #000000; stroke-width: 0.8; stroke-linejoin: miter; stroke-linecap: square"/>
   </g>
   <g id="patch_9">
    <path d="M 90 43.2 
L 648 43.2 
" style="fill: none; stroke: #000000; stroke-width: 0.8; stroke-linejoin: miter; stroke-linecap: square"/>
   </g>
   <g id="legend_1">
    <g id="patch_10">
     <path d="M 481.7533 313.15 
L 637.85 313.15 
Q 640.75 313.15 640.75 310.25 
L 640.75 246.612516 
Q 640.75 243.712516 637.85 243.712516 
L 481.7533 243.712516 
Q 478.8533 243.712516 478.8533 246.612516 
L 478.8533 310.25 
Q 478.8533 313.15 481.7533 313.15 
z
" style="fill: #ffffff; opacity: 0.7; stroke: #cccccc; stroke-linejoin: miter"/>
    </g>
    <g id="line2d_29">
     <path d="M 484.6533 255.271887 
L 499.1533 255.271887 
L 513.6533 255.271887 
" style="fill: none; stroke: #482475; stroke-width: 2.5; stroke-linecap: square"/>
    </g>
    <g id="text_24">
     <!-- QoS [local] -->
     <g transform="translate(525.2533 260.346887) scale(0.145 -0.145)">
      <defs>
       <path id="CMSS17-5b" d="M 1613 -1600 
L 1613 -1212 
L 1062 -1212 
L 1062 4352 
L 1613 4352 
L 1613 4741 
L 595 4741 
L 595 -1600 
L 1613 -1600 
z
" transform="scale(0.015625)"/>
       <path id="CMSS17-63" d="M 2464 2541 
C 2464 2585 2170 2714 2093 2739 
C 1882 2816 1613 2816 1542 2816 
C 710 2816 211 2093 211 1363 
C 211 595 768 -64 1517 -64 
C 1946 -64 2253 76 2502 242 
L 2464 664 
C 2189 453 1869 337 1523 337 
C 1024 337 698 774 698 1369 
C 698 1831 909 2414 1549 2414 
C 1901 2414 2099 2343 2394 2145 
L 2464 2541 
z
" transform="scale(0.015625)"/>
       <path id="CMSS17-5d" d="M 1146 4741 
L 128 4741 
L 128 4352 
L 678 4352 
L 678 -1212 
L 128 -1212 
L 128 -1600 
L 1146 -1600 
L 1146 4741 
z
" transform="scale(0.015625)"/>
      </defs>
      <use xlink:href="#CMSS17-51" transform="scale(0.996264)"/>
      <use xlink:href="#CMSS17-6f" transform="translate(69.024255 0) scale(0.996264)"/>
      <use xlink:href="#CMSS17-53" transform="translate(115.867879 0) scale(0.996264)"/>
      <use xlink:href="#CMSS17-5b" transform="translate(199.145508 0) scale(0.996264)"/>
      <use xlink:href="#CMSS17-6c" transform="translate(226.330946 0) scale(0.996264)"/>
      <use xlink:href="#CMSS17-6f" transform="translate(248.511669 0) scale(0.996264)"/>
      <use xlink:href="#CMSS17-63" transform="translate(297.957732 0) scale(0.996264)"/>
      <use xlink:href="#CMSS17-61" transform="translate(339.596554 0) scale(0.996264)"/>
      <use xlink:href="#CMSS17-6c" transform="translate(384.518474 0) scale(0.996264)"/>
      <use xlink:href="#CMSS17-5d" transform="translate(406.699197 0) scale(0.996264)"/>
     </g>
    </g>
    <g id="line2d_30">
     <path d="M 484.6533 276.967715 
L 499.1533 276.967715 
L 513.6533 276.967715 
" style="fill: none; stroke: #bddf26; stroke-width: 2.5; stroke-linecap: square"/>
    </g>
    <g id="text_25">
     <!-- QoS [collective] -->
     <g transform="translate(525.2533 282.042715) scale(0.145 -0.145)">
      <defs>
       <path id="CMSS17-76" d="M 2675 2752 
L 2176 2752 
L 1747 1556 
C 1613 1165 1421 627 1389 352 
L 1382 352 
C 1370 468 1318 634 1286 749 
C 1248 890 1197 1056 1158 1172 
L 595 2752 
L 83 2752 
L 1094 0 
L 1664 0 
L 2675 2752 
z
" transform="scale(0.015625)"/>
      </defs>
      <use xlink:href="#CMSS17-51" transform="scale(0.996264)"/>
      <use xlink:href="#CMSS17-6f" transform="translate(69.024255 0) scale(0.996264)"/>
      <use xlink:href="#CMSS17-53" transform="translate(115.867879 0) scale(0.996264)"/>
      <use xlink:href="#CMSS17-5b" transform="translate(199.145508 0) scale(0.996264)"/>
      <use xlink:href="#CMSS17-63" transform="translate(226.330946 0) scale(0.996264)"/>
      <use xlink:href="#CMSS17-6f" transform="translate(267.969769 0) scale(0.996264)"/>
      <use xlink:href="#CMSS17-6c" transform="translate(314.813392 0) scale(0.996264)"/>
      <use xlink:href="#CMSS17-6c" transform="translate(336.994115 0) scale(0.996264)"/>
      <use xlink:href="#CMSS17-65" transform="translate(359.174838 0) scale(0.996264)"/>
      <use xlink:href="#CMSS17-63" transform="translate(400.81366 0) scale(0.996264)"/>
      <use xlink:href="#CMSS17-74" transform="translate(442.452482 0) scale(0.996264)"/>
      <use xlink:href="#CMSS17-69" transform="translate(476.284049 0) scale(0.996264)"/>
      <use xlink:href="#CMSS17-76" transform="translate(498.464772 0) scale(0.996264)"/>
      <use xlink:href="#CMSS17-65" transform="translate(541.464914 0) scale(0.996264)"/>
      <use xlink:href="#CMSS17-5d" transform="translate(583.103736 0) scale(0.996264)"/>
     </g>
    </g>
    <g id="line2d_31">
     <path d="M 484.6533 298.663543 
L 499.1533 298.663543 
L 513.6533 298.663543 
" style="fill: none; stroke-dasharray: 5.55,2.4; stroke-dashoffset: 0; stroke: #140e36; stroke-width: 1.5"/>
    </g>
    <g id="text_26">
     <!-- Load driver (right) -->
     <g transform="translate(525.2533 303.738543) scale(0.145 -0.145)">
      <defs>
       <path id="CMSS17-4c" d="M 1670 414 
C 1594 414 1517 414 1440 414 
L 1101 414 
L 1101 4416 
L 563 4416 
L 563 0 
L 3002 0 
L 3002 414 
L 1670 414 
z
" transform="scale(0.015625)"/>
       <path id="CMSS17-72" d="M 954 1363 
C 954 1965 1395 2368 1958 2368 
L 1958 2789 
C 1549 2789 1165 2585 934 2253 
L 934 2758 
L 480 2758 
L 480 0 
L 954 0 
L 954 1363 
z
" transform="scale(0.015625)"/>
       <path id="CMSS17-67" d="M 2848 2808 
C 2483 2808 2170 2738 1914 2617 
C 1702 2777 1485 2808 1338 2808 
C 781 2808 358 2349 358 1814 
C 358 1468 550 1207 563 1195 
C 448 1035 384 863 384 672 
C 384 448 474 289 544 200 
C 211 -3 166 -314 166 -435 
C 166 -898 749 -1280 1498 -1280 
C 2253 -1280 2835 -898 2835 -428 
C 2835 448 1856 448 1587 448 
L 1069 448 
C 973 448 717 448 717 791 
C 717 921 774 1004 781 1010 
C 877 940 1075 832 1338 832 
C 1869 832 2310 1278 2310 1827 
C 2310 2132 2170 2355 2112 2432 
L 2131 2432 
C 2150 2432 2419 2432 2515 2432 
C 2720 2432 2739 2429 2918 2419 
L 2848 2808 
z
M 1338 1182 
C 1120 1182 813 1315 813 1823 
C 813 2375 1165 2464 1331 2464 
C 1549 2464 1856 2331 1856 1823 
C 1856 1271 1504 1182 1338 1182 
z
M 1581 -10 
C 1734 -10 2381 -10 2381 -442 
C 2381 -714 1984 -929 1504 -929 
C 1018 -929 621 -720 621 -435 
C 621 -403 621 -10 1062 -10 
L 1581 -10 
z
" transform="scale(0.015625)"/>
       <path id="CMSS17-68" d="M 2618 1891 
C 2618 2292 2522 2820 1798 2820 
C 1395 2820 1133 2623 947 2407 
L 947 4448 
L 474 4448 
L 474 32 
L 960 32 
L 960 1573 
C 960 1973 1114 2432 1549 2432 
C 2112 2432 2131 2056 2131 1839 
L 2131 32 
L 2618 32 
L 2618 1891 
z
" transform="scale(0.015625)"/>
      </defs>
      <use xlink:href="#CMSS17-4c" transform="scale(0.996264)"/>
      <use xlink:href="#CMSS17-6f" transform="translate(50.687105 0) scale(0.996264)"/>
      <use xlink:href="#CMSS17-61" transform="translate(97.530729 0) scale(0.996264)"/>
      <use xlink:href="#CMSS17-64" transform="translate(142.452649 0) scale(0.996264)"/>
      <use xlink:href="#CMSS17-64" transform="translate(221.886705 0) scale(0.996264)"/>
      <use xlink:href="#CMSS17-72" transform="translate(270.091649 0) scale(0.996264)"/>
      <use xlink:href="#CMSS17-69" transform="translate(302.001421 0) scale(0.996264)"/>
      <use xlink:href="#CMSS17-76" transform="translate(324.182144 0) scale(0.996264)"/>
      <use xlink:href="#CMSS17-65" transform="translate(367.182286 0) scale(0.996264)"/>
      <use xlink:href="#CMSS17-72" transform="translate(408.821108 0) scale(0.996264)"/>
      <use xlink:href="#CMSS17-28" transform="translate(471.959993 0) scale(0.996264)"/>
      <use xlink:href="#CMSS17-72" transform="translate(508.393907 0) scale(0.996264)"/>
      <use xlink:href="#CMSS17-69" transform="translate(540.30368 0) scale(0.996264)"/>
      <use xlink:href="#CMSS17-67" transform="translate(562.484403 0) scale(0.996264)"/>
      <use xlink:href="#CMSS17-68" transform="translate(609.328026 0) scale(0.996264)"/>
      <use xlink:href="#CMSS17-74" transform="translate(657.53297 0) scale(0.996264)"/>
      <use xlink:href="#CMSS17-29" transform="translate(691.364536 0) scale(0.996264)"/>
     </g>
    </g>
   </g>
  </g>
 </g>
 <defs>
  <clipPath id="pc5c0741ec2">
   <rect x="90" y="43.2" width="558" height="277.2"/>
  </clipPath>
 </defs>
</svg>
