<?xml version="1.0" encoding="utf-8" standalone="no"?>
<!DOCTYPE svg PUBLIC "-//W3C//DTD SVG 1.1//EN"
  "http://www.w3.org/Graphics/SVG/1.1/DTD/svg11.dtd">
<svg xmlns:xlink="http://www.w3.org/1999/xlink" width="720pt" height="360pt" viewBox="0 0 720 360" xmlns="http://www.w3.org/2000/svg" version="1.1">
 <metadata>
  <rdf:RDF xmlns:dc="http://purl.org/dc/elements/1.1/" xmlns:cc="http://creativecommons.org/ns#" xmlns:rdf="http://www.w3.org/1999/02/22-rdf-syntax-ns#">
   <cc:Work>
    <dc:type rdf:resource="http://purl.org/dc/dcmitype/StillImage"/>
    <dc:date>2024-03-20T17:20:33.283475</dc:date>
    <dc:format>image/svg+xml</dc:format>
    <dc:creator>
     <cc:Agent>
      <dc:title>Matplotlib v3.8.0, https://matplotlib.org/</dc:title>
     </cc:Agent>
    </dc:creator>
   </cc:Work>
  </rdf:RDF>
 </metadata>
 <defs>
  <style type="text/css">*{stroke-linejoin: round; stroke-linecap: butt}</style>
 </defs>
 <g id="figure_1">
  <g id="patch_1">
   <path d="M 0 360 
L 720 360 
L 720 0 
L 0 0 
z
" style="fill: #ffffff"/>
  </g>
  <g id="axes_1">
   <g id="patch_2">
    <path d="M 90 320.4 
L 648 320.4 
L 648 43.2 
L 90 43.2 
z
" style="fill: #ffffff"/>
   </g>
   <g id="PolyCollection_1">
    <defs>
     <path id="mbb37b86fcc" d="M 115.363636 -236.902834 
L 115.363636 -258.694334 
L 116.776652 -258.694334 
L 118.189668 -258.694334 
L 119.602684 -258.694334 
L 121.0157 -258.694334 
L 122.428716 -258.694334 
L 123.841732 -258.694334 
L 125.254748 -258.694334 
L 126.667764 -258.694334 
L 128.08078 -258.694334 
L 129.493796 -258.694334 
L 130.906812 -258.694334 
L 132.319828 -258.694334 
L 133.732844 -258.694334 
L 135.14586 -258.694334 
L 136.558876 -258.694334 
L 137.971892 -258.694334 
L 139.384908 -258.694334 
L 140.797924 -258.694334 
L 142.210939 -258.694334 
L 143.623955 -258.694334 
L 145.036971 -258.694334 
L 146.449987 -258.694334 
L 147.863003 -258.694334 
L 149.276019 -258.694334 
L 150.689035 -242.639957 
L 152.102051 -242.639957 
L 153.515067 -242.639957 
L 154.928083 -242.639957 
L 156.341099 -242.639957 
L 157.754115 -241.279542 
L 159.167131 -241.279542 
L 160.580147 -241.279542 
L 161.993163 -241.279542 
L 163.406179 -241.279542 
L 164.819195 -241.279542 
L 166.232211 -234.686226 
L 167.645227 -234.686226 
L 169.058243 -234.686226 
L 170.471259 -234.686226 
L 171.884274 -234.686226 
L 173.29729 -223.099924 
L 174.710306 -223.099924 
L 176.123322 -223.099924 
L 177.536338 -223.099924 
L 178.949354 -223.099924 
L 180.36237 -223.099924 
L 181.775386 -219.244204 
L 183.188402 -219.244204 
L 184.601418 -219.244204 
L 186.014434 -219.244204 
L 187.42745 -219.244204 
L 188.840466 -219.030196 
L 190.253482 -219.030196 
L 191.666498 -219.030196 
L 193.079514 -219.030196 
L 194.49253 -219.030196 
L 195.905546 -219.030196 
L 197.318562 -218.655265 
L 198.731578 -218.655265 
L 200.144594 -218.655265 
L 201.55761 -218.655265 
L 202.970625 -218.655265 
L 204.383641 -218.58599 
L 205.796657 -218.58599 
L 207.209673 -218.58599 
L 208.622689 -218.58599 
L 210.035705 -218.58599 
L 211.448721 -218.5264 
L 212.861737 -218.5264 
L 214.274753 -218.5264 
L 215.687769 -218.5264 
L 217.100785 -218.5264 
L 218.513801 -218.5264 
L 219.926817 -218.412574 
L 221.339833 -218.412574 
L 222.752849 -218.412574 
L 224.165865 -218.412574 
L 225.578881 -218.412574 
L 226.991897 -207.346403 
L 228.404913 -207.346403 
L 229.817929 -207.346403 
L 231.230945 -207.346403 
L 232.64396 -207.346403 
L 234.056976 -207.346403 
L 235.469992 -204.368392 
L 236.883008 -204.368392 
L 238.296024 -204.368392 
L 239.70904 -204.368392 
L 241.122056 -204.368392 
L 242.535072 -198.214174 
L 243.948088 -198.214174 
L 245.361104 -198.214174 
L 246.77412 -198.214174 
L 248.187136 -198.214174 
L 249.600152 -198.214174 
L 251.013168 -179.207852 
L 252.426184 -179.207852 
L 253.8392 -179.207852 
L 255.252216 -179.207852 
L 256.665232 -179.207852 
L 258.078248 -168.427177 
L 259.491264 -168.427177 
L 260.90428 -168.427177 
L 262.317296 -168.427177 
L 263.730311 -168.427177 
L 265.143327 -168.427177 
L 266.556343 -166.434939 
L 267.969359 -166.434939 
L 269.382375 -166.434939 
L 270.795391 -166.434939 
L 272.208407 -166.434939 
L 273.621423 -165.979111 
L 275.034439 -165.979111 
L 276.447455 -165.979111 
L 277.860471 -165.979111 
L 279.273487 -165.979111 
L 280.686503 -165.975817 
L 282.099519 -165.975817 
L 283.512535 -165.975817 
L 284.925551 -165.975817 
L 286.338567 -165.975817 
L 287.751583 -165.975817 
L 289.164599 -165.690421 
L 290.577615 -165.690421 
L 291.990631 -165.690421 
L 293.403646 -165.690421 
L 294.816662 -165.690421 
L 296.229678 -165.617774 
L 297.642694 -165.617774 
L 299.05571 -165.617774 
L 300.468726 -165.617774 
L 301.881742 -165.617774 
L 303.294758 -165.617774 
L 304.707774 -163.007635 
L 306.12079 -163.007635 
L 307.533806 -163.007635 
L 308.946822 -163.007635 
L 310.359838 -163.007635 
L 311.772854 -153.716675 
L 313.18587 -153.716675 
L 314.598886 -153.716675 
L 316.011902 -153.716675 
L 317.424918 -153.716675 
L 318.837934 -153.716675 
L 320.25095 -151.677975 
L 321.663966 -151.677975 
L 323.076982 -151.677975 
L 324.489997 -151.677975 
L 325.903013 -151.677975 
L 327.316029 -136.857006 
L 328.729045 -136.857006 
L 330.142061 -136.857006 
L 331.555077 -136.857006 
L 332.968093 -136.857006 
L 334.381109 -136.857006 
L 335.794125 -124.921781 
L 337.207141 -124.921781 
L 338.620157 -124.921781 
L 340.033173 -124.921781 
L 341.446189 -124.921781 
L 342.859205 -119.968117 
L 344.272221 -119.968117 
L 345.685237 -119.968117 
L 347.098253 -119.968117 
L 348.511269 -119.968117 
L 349.924285 -118.414603 
L 351.337301 -118.414603 
L 352.750317 -118.414603 
L 354.163332 -118.414603 
L 355.576348 -118.414603 
L 356.989364 -118.414603 
L 358.40238 -117.996165 
L 359.815396 -117.996165 
L 361.228412 -117.996165 
L 362.641428 -117.996165 
L 364.054444 -117.996165 
L 365.46746 -117.885586 
L 366.880476 -117.885586 
L 368.293492 -117.885586 
L 369.706508 -117.885586 
L 371.119524 -117.885586 
L 372.53254 -117.885586 
L 373.945556 -117.780943 
L 375.358572 -117.780943 
L 376.771588 -117.780943 
L 378.184604 -117.780943 
L 379.59762 -117.780943 
L 381.010636 -117.742728 
L 382.423652 -117.742728 
L 383.836668 -117.742728 
L 385.249683 -117.742728 
L 386.662699 -117.742728 
L 388.075715 -117.742728 
L 389.488731 -149.72838 
L 390.901747 -149.72838 
L 392.314763 -149.72838 
L 393.727779 -149.72838 
L 395.140795 -149.72838 
L 396.553811 -162.159773 
L 397.966827 -162.159773 
L 399.379843 -162.159773 
L 400.792859 -162.159773 
L 402.205875 -162.159773 
L 403.618891 -162.634804 
L 405.031907 -162.634804 
L 406.444923 -162.634804 
L 407.857939 -162.634804 
L 409.270955 -162.634804 
L 410.683971 -162.634804 
L 412.096987 -162.618113 
L 413.510003 -162.618113 
L 414.923018 -162.618113 
L 416.336034 -162.618113 
L 417.74905 -162.618113 
L 419.162066 -162.619138 
L 420.575082 -162.619138 
L 421.988098 -162.619138 
L 423.401114 -162.619138 
L 424.81413 -162.619138 
L 426.227146 -162.619138 
L 427.640162 -162.454409 
L 429.053178 -162.454409 
L 430.466194 -162.454409 
L 431.87921 -162.454409 
L 433.292226 -162.454409 
L 434.705242 -162.619138 
L 436.118258 -162.619138 
L 437.531274 -162.619138 
L 438.94429 -162.619138 
L 440.357306 -162.619138 
L 441.770322 -162.619138 
L 443.183338 -162.619138 
L 444.596354 -162.619138 
L 446.009369 -162.619138 
L 447.422385 -162.619138 
L 448.835401 -162.619138 
L 450.248417 -162.507242 
L 451.661433 -162.507242 
L 453.074449 -162.507242 
L 454.487465 -162.507242 
L 455.900481 -162.507242 
L 457.313497 -162.507242 
L 458.726513 -162.619138 
L 460.139529 -162.619138 
L 461.552545 -162.619138 
L 462.965561 -162.619138 
L 464.378577 -162.619138 
L 465.791593 -183.380727 
L 467.204609 -183.380727 
L 468.617625 -183.380727 
L 470.030641 -183.380727 
L 471.443657 -183.380727 
L 472.856673 -210.37229 
L 474.269689 -210.37229 
L 475.682704 -210.37229 
L 477.09572 -210.37229 
L 478.508736 -210.37229 
L 479.921752 -210.37229 
L 481.334768 -211.482345 
L 482.747784 -211.482345 
L 484.1608 -211.482345 
L 485.573816 -211.482345 
L 486.986832 -211.482345 
L 488.399848 -211.513384 
L 489.812864 -211.513384 
L 491.22588 -211.513384 
L 492.638896 -211.513384 
L 494.051912 -211.513384 
L 495.464928 -211.513384 
L 496.877944 -211.541116 
L 498.29096 -211.541116 
L 499.703976 -211.541116 
L 501.116992 -211.541116 
L 502.530008 -211.541116 
L 503.943024 -211.578589 
L 505.35604 -211.578589 
L 506.769055 -211.578589 
L 508.182071 -211.578589 
L 509.595087 -211.578589 
L 511.008103 -211.578589 
L 512.421119 -211.541116 
L 513.834135 -211.541116 
L 515.247151 -211.541116 
L 516.660167 -211.541116 
L 518.073183 -211.541116 
L 519.486199 -210.767563 
L 520.899215 -210.767563 
L 522.312231 -210.767563 
L 523.725247 -210.767563 
L 525.138263 -210.767563 
L 526.551279 -210.767563 
L 527.964295 -210.980558 
L 529.377311 -210.980558 
L 530.790327 -210.980558 
L 532.203343 -210.980558 
L 533.616359 -210.980558 
L 535.029375 -211.1981 
L 536.44239 -211.1981 
L 537.855406 -211.1981 
L 539.268422 -211.1981 
L 540.681438 -211.1981 
L 542.094454 -213.885263 
L 543.50747 -213.885263 
L 544.920486 -213.885263 
L 546.333502 -213.885263 
L 547.746518 -213.885263 
L 549.159534 -213.885263 
L 550.57255 -245.837863 
L 551.985566 -245.837863 
L 553.398582 -245.837863 
L 554.811598 -245.837863 
L 556.224614 -245.837863 
L 557.63763 -246.855603 
L 559.050646 -246.855603 
L 560.463662 -246.855603 
L 561.876678 -246.855603 
L 563.289694 -246.855603 
L 564.70271 -246.855603 
L 566.115726 -246.934217 
L 567.528741 -246.934217 
L 568.941757 -246.934217 
L 570.354773 -246.934217 
L 571.767789 -246.934217 
L 573.180805 -246.979604 
L 574.593821 -246.979604 
L 576.006837 -246.979604 
L 577.419853 -246.979604 
L 578.832869 -246.979604 
L 580.245885 -246.979604 
L 581.658901 -247.072336 
L 583.071917 -247.072336 
L 584.484933 -247.072336 
L 585.897949 -247.072336 
L 587.310965 -247.072336 
L 588.723981 -247.072336 
L 590.136997 -247.072336 
L 591.550013 -247.072336 
L 592.963029 -247.072336 
L 594.376045 -247.072336 
L 595.789061 -247.072336 
L 597.202076 -247.072336 
L 598.615092 -247.072336 
L 600.028108 -247.072336 
L 601.441124 -247.072336 
L 602.85414 -247.072336 
L 604.267156 -247.072336 
L 605.680172 -247.072336 
L 607.093188 -247.072336 
L 608.506204 -247.072336 
L 609.91922 -247.072336 
L 611.332236 -247.035574 
L 612.745252 -247.035574 
L 614.158268 -247.035574 
L 615.571284 -247.035574 
L 616.9843 -247.035574 
L 618.397316 -247.035574 
L 619.810332 -247.101051 
L 621.223348 -247.101051 
L 622.636364 -247.101051 
L 622.636364 -228.987573 
L 622.636364 -228.987573 
L 621.223348 -228.987573 
L 619.810332 -228.987573 
L 618.397316 -228.775322 
L 616.9843 -228.775322 
L 615.571284 -228.775322 
L 614.158268 -228.775322 
L 612.745252 -228.775322 
L 611.332236 -228.775322 
L 609.91922 -228.794 
L 608.506204 -228.794 
L 607.093188 -228.794 
L 605.680172 -228.794 
L 604.267156 -228.794 
L 602.85414 -228.794 
L 601.441124 -228.794 
L 600.028108 -228.794 
L 598.615092 -228.794 
L 597.202076 -228.794 
L 595.789061 -228.794 
L 594.376045 -228.794 
L 592.963029 -228.794 
L 591.550013 -228.794 
L 590.136997 -228.794 
L 588.723981 -228.794 
L 587.310965 -228.794 
L 585.897949 -228.794 
L 584.484933 -228.794 
L 583.071917 -228.794 
L 581.658901 -228.794 
L 580.245885 -228.775852 
L 578.832869 -228.775852 
L 577.419853 -228.775852 
L 576.006837 -228.775852 
L 574.593821 -228.775852 
L 573.180805 -228.775852 
L 571.767789 -228.765799 
L 570.354773 -228.765799 
L 568.941757 -228.765799 
L 567.528741 -228.765799 
L 566.115726 -228.765799 
L 564.70271 -228.788973 
L 563.289694 -228.788973 
L 561.876678 -228.788973 
L 560.463662 -228.788973 
L 559.050646 -228.788973 
L 557.63763 -228.788973 
L 556.224614 -226.528361 
L 554.811598 -226.528361 
L 553.398582 -226.528361 
L 551.985566 -226.528361 
L 550.57255 -226.528361 
L 549.159534 -195.453601 
L 547.746518 -195.453601 
L 546.333502 -195.453601 
L 544.920486 -195.453601 
L 543.50747 -195.453601 
L 542.094454 -195.453601 
L 540.681438 -192.194428 
L 539.268422 -192.194428 
L 537.855406 -192.194428 
L 536.44239 -192.194428 
L 535.029375 -192.194428 
L 533.616359 -192.19021 
L 532.203343 -192.19021 
L 530.790327 -192.19021 
L 529.377311 -192.19021 
L 527.964295 -192.19021 
L 526.551279 -192.180389 
L 525.138263 -192.180389 
L 523.725247 -192.180389 
L 522.312231 -192.180389 
L 520.899215 -192.180389 
L 519.486199 -192.180389 
L 518.073183 -192.185108 
L 516.660167 -192.185108 
L 515.247151 -192.185108 
L 513.834135 -192.185108 
L 512.421119 -192.185108 
L 511.008103 -192.203075 
L 509.595087 -192.203075 
L 508.182071 -192.203075 
L 506.769055 -192.203075 
L 505.35604 -192.203075 
L 503.943024 -192.203075 
L 502.530008 -192.185108 
L 501.116992 -192.185108 
L 499.703976 -192.185108 
L 498.29096 -192.185108 
L 496.877944 -192.185108 
L 495.464928 -192.156872 
L 494.051912 -192.156872 
L 492.638896 -192.156872 
L 491.22588 -192.156872 
L 489.812864 -192.156872 
L 488.399848 -192.156872 
L 486.986832 -191.743335 
L 485.573816 -191.743335 
L 484.1608 -191.743335 
L 482.747784 -191.743335 
L 481.334768 -191.743335 
L 479.921752 -190.796302 
L 478.508736 -190.796302 
L 477.09572 -190.796302 
L 475.682704 -190.796302 
L 474.269689 -190.796302 
L 472.856673 -190.796302 
L 471.443657 -165.042777 
L 470.030641 -165.042777 
L 468.617625 -165.042777 
L 467.204609 -165.042777 
L 465.791593 -165.042777 
L 464.378577 -147.78995 
L 462.965561 -147.78995 
L 461.552545 -147.78995 
L 460.139529 -147.78995 
L 458.726513 -147.78995 
L 457.313497 -147.679558 
L 455.900481 -147.679558 
L 454.487465 -147.679558 
L 453.074449 -147.679558 
L 451.661433 -147.679558 
L 450.248417 -147.679558 
L 448.835401 -147.78995 
L 447.422385 -147.78995 
L 446.009369 -147.78995 
L 444.596354 -147.78995 
L 443.183338 -147.78995 
L 441.770322 -147.78995 
L 440.357306 -147.78995 
L 438.94429 -147.78995 
L 437.531274 -147.78995 
L 436.118258 -147.78995 
L 434.705242 -147.78995 
L 433.292226 -147.732391 
L 431.87921 -147.732391 
L 430.466194 -147.732391 
L 429.053178 -147.732391 
L 427.640162 -147.732391 
L 426.227146 -147.78995 
L 424.81413 -147.78995 
L 423.401114 -147.78995 
L 421.988098 -147.78995 
L 420.575082 -147.78995 
L 419.162066 -147.78995 
L 417.74905 -147.735535 
L 416.336034 -147.735535 
L 414.923018 -147.735535 
L 413.510003 -147.735535 
L 412.096987 -147.735535 
L 410.683971 -147.885164 
L 409.270955 -147.885164 
L 407.857939 -147.885164 
L 406.444923 -147.885164 
L 405.031907 -147.885164 
L 403.618891 -147.885164 
L 402.205875 -147.304195 
L 400.792859 -147.304195 
L 399.379843 -147.304195 
L 397.966827 -147.304195 
L 396.553811 -147.304195 
L 395.140795 -136.837284 
L 393.727779 -136.837284 
L 392.314763 -136.837284 
L 390.901747 -136.837284 
L 389.488731 -136.837284 
L 388.075715 -104.239032 
L 386.662699 -104.239032 
L 385.249683 -104.239032 
L 383.836668 -104.239032 
L 382.423652 -104.239032 
L 381.010636 -104.239032 
L 379.59762 -104.367665 
L 378.184604 -104.367665 
L 376.771588 -104.367665 
L 375.358572 -104.367665 
L 373.945556 -104.367665 
L 372.53254 -104.42987 
L 371.119524 -104.42987 
L 369.706508 -104.42987 
L 368.293492 -104.42987 
L 366.880476 -104.42987 
L 365.46746 -104.42987 
L 364.054444 -104.542107 
L 362.641428 -104.542107 
L 361.228412 -104.542107 
L 359.815396 -104.542107 
L 358.40238 -104.542107 
L 356.989364 -104.901413 
L 355.576348 -104.901413 
L 354.163332 -104.901413 
L 352.750317 -104.901413 
L 351.337301 -104.901413 
L 349.924285 -104.901413 
L 348.511269 -106.403963 
L 347.098253 -106.403963 
L 345.685237 -106.403963 
L 344.272221 -106.403963 
L 342.859205 -106.403963 
L 341.446189 -110.066203 
L 340.033173 -110.066203 
L 338.620157 -110.066203 
L 337.207141 -110.066203 
L 335.794125 -110.066203 
L 334.381109 -121.19613 
L 332.968093 -121.19613 
L 331.555077 -121.19613 
L 330.142061 -121.19613 
L 328.729045 -121.19613 
L 327.316029 -121.19613 
L 325.903013 -132.552345 
L 324.489997 -132.552345 
L 323.076982 -132.552345 
L 321.663966 -132.552345 
L 320.25095 -132.552345 
L 318.837934 -133.459357 
L 317.424918 -133.459357 
L 316.011902 -133.459357 
L 314.598886 -133.459357 
L 313.18587 -133.459357 
L 311.772854 -133.459357 
L 310.359838 -144.843821 
L 308.946822 -144.843821 
L 307.533806 -144.843821 
L 306.12079 -144.843821 
L 304.707774 -144.843821 
L 303.294758 -150.237106 
L 301.881742 -150.237106 
L 300.468726 -150.237106 
L 299.05571 -150.237106 
L 297.642694 -150.237106 
L 296.229678 -150.237106 
L 294.816662 -150.442187 
L 293.403646 -150.442187 
L 291.990631 -150.442187 
L 290.577615 -150.442187 
L 289.164599 -150.442187 
L 287.751583 -150.545927 
L 286.338567 -150.545927 
L 284.925551 -150.545927 
L 283.512535 -150.545927 
L 282.099519 -150.545927 
L 280.686503 -150.545927 
L 279.273487 -150.708953 
L 277.860471 -150.708953 
L 276.447455 -150.708953 
L 275.034439 -150.708953 
L 273.621423 -150.708953 
L 272.208407 -151.365093 
L 270.795391 -151.365093 
L 269.382375 -151.365093 
L 267.969359 -151.365093 
L 266.556343 -151.365093 
L 265.143327 -152.874551 
L 263.730311 -152.874551 
L 262.317296 -152.874551 
L 260.90428 -152.874551 
L 259.491264 -152.874551 
L 258.078248 -152.874551 
L 256.665232 -160.602388 
L 255.252216 -160.602388 
L 253.8392 -160.602388 
L 252.426184 -160.602388 
L 251.013168 -160.602388 
L 249.600152 -175.609298 
L 248.187136 -175.609298 
L 246.77412 -175.609298 
L 245.361104 -175.609298 
L 243.948088 -175.609298 
L 242.535072 -175.609298 
L 241.122056 -179.960168 
L 239.70904 -179.960168 
L 238.296024 -179.960168 
L 236.883008 -179.960168 
L 235.469992 -179.960168 
L 234.056976 -182.373565 
L 232.64396 -182.373565 
L 231.230945 -182.373565 
L 229.817929 -182.373565 
L 228.404913 -182.373565 
L 226.991897 -182.373565 
L 225.578881 -196.984034 
L 224.165865 -196.984034 
L 222.752849 -196.984034 
L 221.339833 -196.984034 
L 219.926817 -196.984034 
L 218.513801 -196.981088 
L 217.100785 -196.981088 
L 215.687769 -196.981088 
L 214.274753 -196.981088 
L 212.861737 -196.981088 
L 211.448721 -196.981088 
L 210.035705 -197.033434 
L 208.622689 -197.033434 
L 207.209673 -197.033434 
L 205.796657 -197.033434 
L 204.383641 -197.033434 
L 202.970625 -197.241887 
L 201.55761 -197.241887 
L 200.144594 -197.241887 
L 198.731578 -197.241887 
L 197.318562 -197.241887 
L 195.905546 -197.422412 
L 194.49253 -197.422412 
L 193.079514 -197.422412 
L 191.666498 -197.422412 
L 190.253482 -197.422412 
L 188.840466 -197.422412 
L 187.42745 -198.097556 
L 186.014434 -198.097556 
L 184.601418 -198.097556 
L 183.188402 -198.097556 
L 181.775386 -198.097556 
L 180.36237 -201.301196 
L 178.949354 -201.301196 
L 177.536338 -201.301196 
L 176.123322 -201.301196 
L 174.710306 -201.301196 
L 173.29729 -201.301196 
L 171.884274 -212.168094 
L 170.471259 -212.168094 
L 169.058243 -212.168094 
L 167.645227 -212.168094 
L 166.232211 -212.168094 
L 164.819195 -218.41257 
L 163.406179 -218.41257 
L 161.993163 -218.41257 
L 160.580147 -218.41257 
L 159.167131 -218.41257 
L 157.754115 -218.41257 
L 156.341099 -219.276091 
L 154.928083 -219.276091 
L 153.515067 -219.276091 
L 152.102051 -219.276091 
L 150.689035 -219.276091 
L 149.276019 -236.902834 
L 147.863003 -236.902834 
L 146.449987 -236.902834 
L 145.036971 -236.902834 
L 143.623955 -236.902834 
L 142.210939 -236.902834 
L 140.797924 -236.902834 
L 139.384908 -236.902834 
L 137.971892 -236.902834 
L 136.558876 -236.902834 
L 135.14586 -236.902834 
L 133.732844 -236.902834 
L 132.319828 -236.902834 
L 130.906812 -236.902834 
L 129.493796 -236.902834 
L 128.08078 -236.902834 
L 126.667764 -236.902834 
L 125.254748 -236.902834 
L 123.841732 -236.902834 
L 122.428716 -236.902834 
L 121.0157 -236.902834 
L 119.602684 -236.902834 
L 118.189668 -236.902834 
L 116.776652 -236.902834 
L 115.363636 -236.902834 
z
" style="stroke: #482475; stroke-opacity: 0.2"/>
    </defs>
    <g clip-path="url(#p666cec4bc7)">
     <use xlink:href="#mbb37b86fcc" x="0" y="360" style="fill: #482475; fill-opacity: 0.2; stroke: #482475; stroke-opacity: 0.2"/>
    </g>
   </g>
   <g id="PolyCollection_2">
    <defs>
     <path id="m933df2b6ca" d="M 115.363636 -226.68421 
L 115.363636 -239.844974 
L 116.776652 -239.844974 
L 118.189668 -239.844974 
L 119.602684 -239.962837 
L 121.0157 -239.962837 
L 122.428716 -239.962837 
L 123.841732 -239.962837 
L 125.254748 -239.962837 
L 126.667764 -239.962837 
L 128.08078 -240.303344 
L 129.493796 -240.303344 
L 130.906812 -240.303344 
L 132.319828 -240.303344 
L 133.732844 -240.303344 
L 135.14586 -240.808129 
L 136.558876 -240.808129 
L 137.971892 -240.808129 
L 139.384908 -240.808129 
L 140.797924 -240.808129 
L 142.210939 -240.808129 
L 143.623955 -241.03075 
L 145.036971 -241.03075 
L 146.449987 -241.03075 
L 147.863003 -241.03075 
L 149.276019 -241.03075 
L 150.689035 -228.798398 
L 152.102051 -228.798398 
L 153.515067 -228.798398 
L 154.928083 -228.798398 
L 156.341099 -228.798398 
L 157.754115 -231.23075 
L 159.167131 -231.23075 
L 160.580147 -231.23075 
L 161.993163 -231.23075 
L 163.406179 -231.23075 
L 164.819195 -231.23075 
L 166.232211 -226.136218 
L 167.645227 -226.136218 
L 169.058243 -226.136218 
L 170.471259 -226.136218 
L 171.884274 -226.136218 
L 173.29729 -215.434816 
L 174.710306 -215.434816 
L 176.123322 -215.434816 
L 177.536338 -215.434816 
L 178.949354 -215.434816 
L 180.36237 -215.434816 
L 181.775386 -212.752974 
L 183.188402 -212.752974 
L 184.601418 -212.752974 
L 186.014434 -212.752974 
L 187.42745 -212.752974 
L 188.840466 -212.272743 
L 190.253482 -212.272743 
L 191.666498 -212.272743 
L 193.079514 -212.272743 
L 194.49253 -212.272743 
L 195.905546 -212.272743 
L 197.318562 -212.16422 
L 198.731578 -212.16422 
L 200.144594 -212.16422 
L 201.55761 -212.16422 
L 202.970625 -212.16422 
L 204.383641 -212.324965 
L 205.796657 -212.324965 
L 207.209673 -212.324965 
L 208.622689 -212.324965 
L 210.035705 -212.324965 
L 211.448721 -212.887914 
L 212.861737 -212.887914 
L 214.274753 -212.887914 
L 215.687769 -212.887914 
L 217.100785 -212.887914 
L 218.513801 -212.887914 
L 219.926817 -212.873625 
L 221.339833 -212.873625 
L 222.752849 -212.873625 
L 224.165865 -212.873625 
L 225.578881 -212.873625 
L 226.991897 -203.794109 
L 228.404913 -203.794109 
L 229.817929 -203.794109 
L 231.230945 -203.794109 
L 232.64396 -203.794109 
L 234.056976 -203.794109 
L 235.469992 -201.645342 
L 236.883008 -201.645342 
L 238.296024 -201.645342 
L 239.70904 -201.645342 
L 241.122056 -201.645342 
L 242.535072 -197.253052 
L 243.948088 -197.253052 
L 245.361104 -197.253052 
L 246.77412 -197.253052 
L 248.187136 -197.253052 
L 249.600152 -197.253052 
L 251.013168 -179.30052 
L 252.426184 -179.30052 
L 253.8392 -179.30052 
L 255.252216 -179.30052 
L 256.665232 -179.30052 
L 258.078248 -168.093769 
L 259.491264 -168.093769 
L 260.90428 -168.093769 
L 262.317296 -168.093769 
L 263.730311 -168.093769 
L 265.143327 -168.093769 
L 266.556343 -165.136209 
L 267.969359 -165.136209 
L 269.382375 -165.136209 
L 270.795391 -165.136209 
L 272.208407 -165.136209 
L 273.621423 -164.730386 
L 275.034439 -164.730386 
L 276.447455 -164.730386 
L 277.860471 -164.730386 
L 279.273487 -164.730386 
L 280.686503 -164.302304 
L 282.099519 -164.302304 
L 283.512535 -164.302304 
L 284.925551 -164.302304 
L 286.338567 -164.302304 
L 287.751583 -164.302304 
L 289.164599 -164.222964 
L 290.577615 -164.222964 
L 291.990631 -164.222964 
L 293.403646 -164.222964 
L 294.816662 -164.222964 
L 296.229678 -164.027229 
L 297.642694 -164.027229 
L 299.05571 -164.027229 
L 300.468726 -164.027229 
L 301.881742 -164.027229 
L 303.294758 -164.027229 
L 304.707774 -161.377651 
L 306.12079 -161.377651 
L 307.533806 -161.377651 
L 308.946822 -161.377651 
L 310.359838 -161.377651 
L 311.772854 -154.745833 
L 313.18587 -154.745833 
L 314.598886 -154.745833 
L 316.011902 -154.745833 
L 317.424918 -154.745833 
L 318.837934 -154.745833 
L 320.25095 -152.833666 
L 321.663966 -152.833666 
L 323.076982 -152.833666 
L 324.489997 -152.833666 
L 325.903013 -152.833666 
L 327.316029 -137.01707 
L 328.729045 -137.01707 
L 330.142061 -137.01707 
L 331.555077 -137.01707 
L 332.968093 -137.01707 
L 334.381109 -137.01707 
L 335.794125 -123.520788 
L 337.207141 -123.520788 
L 338.620157 -123.520788 
L 340.033173 -123.520788 
L 341.446189 -123.520788 
L 342.859205 -119.270795 
L 344.272221 -119.270795 
L 345.685237 -119.270795 
L 347.098253 -119.270795 
L 348.511269 -119.270795 
L 349.924285 -117.83682 
L 351.337301 -117.83682 
L 352.750317 -117.83682 
L 354.163332 -117.83682 
L 355.576348 -117.83682 
L 356.989364 -117.83682 
L 358.40238 -117.620005 
L 359.815396 -117.620005 
L 361.228412 -117.620005 
L 362.641428 -117.620005 
L 364.054444 -117.620005 
L 365.46746 -117.552443 
L 366.880476 -117.552443 
L 368.293492 -117.552443 
L 369.706508 -117.552443 
L 371.119524 -117.552443 
L 372.53254 -117.552443 
L 373.945556 -117.456684 
L 375.358572 -117.456684 
L 376.771588 -117.456684 
L 378.184604 -117.456684 
L 379.59762 -117.456684 
L 381.010636 -117.432674 
L 382.423652 -117.432674 
L 383.836668 -117.432674 
L 385.249683 -117.432674 
L 386.662699 -117.432674 
L 388.075715 -117.432674 
L 389.488731 -152.269622 
L 390.901747 -152.269622 
L 392.314763 -152.269622 
L 393.727779 -152.269622 
L 395.140795 -152.269622 
L 396.553811 -163.909874 
L 397.966827 -163.909874 
L 399.379843 -163.909874 
L 400.792859 -163.909874 
L 402.205875 -163.909874 
L 403.618891 -164.002152 
L 405.031907 -164.002152 
L 406.444923 -164.002152 
L 407.857939 -164.002152 
L 409.270955 -164.002152 
L 410.683971 -164.002152 
L 412.096987 -164.057829 
L 413.510003 -164.057829 
L 414.923018 -164.057829 
L 416.336034 -164.057829 
L 417.74905 -164.057829 
L 419.162066 -164.057829 
L 420.575082 -164.057829 
L 421.988098 -164.057829 
L 423.401114 -164.057829 
L 424.81413 -164.057829 
L 426.227146 -164.057829 
L 427.640162 -163.997176 
L 429.053178 -163.997176 
L 430.466194 -163.997176 
L 431.87921 -163.997176 
L 433.292226 -163.997176 
L 434.705242 -164.057829 
L 436.118258 -164.057829 
L 437.531274 -164.057829 
L 438.94429 -164.057829 
L 440.357306 -164.057829 
L 441.770322 -164.057829 
L 443.183338 -164.057829 
L 444.596354 -164.057829 
L 446.009369 -164.057829 
L 447.422385 -164.057829 
L 448.835401 -164.057829 
L 450.248417 -163.99713 
L 451.661433 -163.99713 
L 453.074449 -163.99713 
L 454.487465 -163.99713 
L 455.900481 -163.99713 
L 457.313497 -163.99713 
L 458.726513 -164.057829 
L 460.139529 -164.057829 
L 461.552545 -164.057829 
L 462.965561 -164.057829 
L 464.378577 -164.057829 
L 465.791593 -186.351132 
L 467.204609 -186.351132 
L 468.617625 -186.351132 
L 470.030641 -186.351132 
L 471.443657 -186.351132 
L 472.856673 -213.00687 
L 474.269689 -213.00687 
L 475.682704 -213.00687 
L 477.09572 -213.00687 
L 478.508736 -213.00687 
L 479.921752 -213.00687 
L 481.334768 -213.416127 
L 482.747784 -213.416127 
L 484.1608 -213.416127 
L 485.573816 -213.416127 
L 486.986832 -213.416127 
L 488.399848 -213.37627 
L 489.812864 -213.37627 
L 491.22588 -213.37627 
L 492.638896 -213.37627 
L 494.051912 -213.37627 
L 495.464928 -213.37627 
L 496.877944 -213.309161 
L 498.29096 -213.309161 
L 499.703976 -213.309161 
L 501.116992 -213.309161 
L 502.530008 -213.309161 
L 503.943024 -213.415362 
L 505.35604 -213.415362 
L 506.769055 -213.415362 
L 508.182071 -213.415362 
L 509.595087 -213.415362 
L 511.008103 -213.415362 
L 512.421119 -213.304543 
L 513.834135 -213.304543 
L 515.247151 -213.304543 
L 516.660167 -213.304543 
L 518.073183 -213.304543 
L 519.486199 -213.481838 
L 520.899215 -213.481838 
L 522.312231 -213.481838 
L 523.725247 -213.481838 
L 525.138263 -213.481838 
L 526.551279 -213.481838 
L 527.964295 -213.768565 
L 529.377311 -213.768565 
L 530.790327 -213.768565 
L 532.203343 -213.768565 
L 533.616359 -213.768565 
L 535.029375 -213.824852 
L 536.44239 -213.824852 
L 537.855406 -213.824852 
L 539.268422 -213.824852 
L 540.681438 -213.824852 
L 542.094454 -216.537122 
L 543.50747 -216.537122 
L 544.920486 -216.537122 
L 546.333502 -216.537122 
L 547.746518 -216.537122 
L 549.159534 -216.537122 
L 550.57255 -247.904226 
L 551.985566 -247.904226 
L 553.398582 -247.904226 
L 554.811598 -247.904226 
L 556.224614 -247.904226 
L 557.63763 -248.478152 
L 559.050646 -248.478152 
L 560.463662 -248.478152 
L 561.876678 -248.478152 
L 563.289694 -248.478152 
L 564.70271 -248.478152 
L 566.115726 -248.417623 
L 567.528741 -248.417623 
L 568.941757 -248.417623 
L 570.354773 -248.417623 
L 571.767789 -248.417623 
L 573.180805 -248.436583 
L 574.593821 -248.436583 
L 576.006837 -248.436583 
L 577.419853 -248.436583 
L 578.832869 -248.436583 
L 580.245885 -248.436583 
L 581.658901 -248.335305 
L 583.071917 -248.335305 
L 584.484933 -248.335305 
L 585.897949 -248.335305 
L 587.310965 -248.335305 
L 588.723981 -248.443011 
L 590.136997 -248.443011 
L 591.550013 -248.443011 
L 592.963029 -248.443011 
L 594.376045 -248.443011 
L 595.789061 -248.500382 
L 597.202076 -248.500382 
L 598.615092 -248.500382 
L 600.028108 -248.500382 
L 601.441124 -248.500382 
L 602.85414 -248.500382 
L 604.267156 -248.500382 
L 605.680172 -248.500382 
L 607.093188 -248.500382 
L 608.506204 -248.500382 
L 609.91922 -248.500382 
L 611.332236 -248.456821 
L 612.745252 -248.456821 
L 614.158268 -248.456821 
L 615.571284 -248.456821 
L 616.9843 -248.456821 
L 618.397316 -248.456821 
L 619.810332 -248.35743 
L 621.223348 -248.35743 
L 622.636364 -248.35743 
L 622.636364 -233.400858 
L 622.636364 -233.400858 
L 621.223348 -233.400858 
L 619.810332 -233.400858 
L 618.397316 -233.468315 
L 616.9843 -233.468315 
L 615.571284 -233.468315 
L 614.158268 -233.468315 
L 612.745252 -233.468315 
L 611.332236 -233.468315 
L 609.91922 -233.591602 
L 608.506204 -233.591602 
L 607.093188 -233.591602 
L 605.680172 -233.591602 
L 604.267156 -233.591602 
L 602.85414 -233.591602 
L 601.441124 -233.591602 
L 600.028108 -233.591602 
L 598.615092 -233.591602 
L 597.202076 -233.591602 
L 595.789061 -233.591602 
L 594.376045 -233.593533 
L 592.963029 -233.593533 
L 591.550013 -233.593533 
L 590.136997 -233.593533 
L 588.723981 -233.593533 
L 587.310965 -233.645799 
L 585.897949 -233.645799 
L 584.484933 -233.645799 
L 583.071917 -233.645799 
L 581.658901 -233.645799 
L 580.245885 -233.433113 
L 578.832869 -233.433113 
L 577.419853 -233.433113 
L 576.006837 -233.433113 
L 574.593821 -233.433113 
L 573.180805 -233.433113 
L 571.767789 -233.618921 
L 570.354773 -233.618921 
L 568.941757 -233.618921 
L 567.528741 -233.618921 
L 566.115726 -233.618921 
L 564.70271 -233.502952 
L 563.289694 -233.502952 
L 561.876678 -233.502952 
L 560.463662 -233.502952 
L 559.050646 -233.502952 
L 557.63763 -233.502952 
L 556.224614 -232.075758 
L 554.811598 -232.075758 
L 553.398582 -232.075758 
L 551.985566 -232.075758 
L 550.57255 -232.075758 
L 549.159534 -198.470878 
L 547.746518 -198.470878 
L 546.333502 -198.470878 
L 544.920486 -198.470878 
L 543.50747 -198.470878 
L 542.094454 -198.470878 
L 540.681438 -195.180844 
L 539.268422 -195.180844 
L 537.855406 -195.180844 
L 536.44239 -195.180844 
L 535.029375 -195.180844 
L 533.616359 -195.181691 
L 532.203343 -195.181691 
L 530.790327 -195.181691 
L 529.377311 -195.181691 
L 527.964295 -195.181691 
L 526.551279 -195.190162 
L 525.138263 -195.190162 
L 523.725247 -195.190162 
L 522.312231 -195.190162 
L 520.899215 -195.190162 
L 519.486199 -195.190162 
L 518.073183 -195.200609 
L 516.660167 -195.200609 
L 515.247151 -195.200609 
L 513.834135 -195.200609 
L 512.421119 -195.200609 
L 511.008103 -195.201198 
L 509.595087 -195.201198 
L 508.182071 -195.201198 
L 506.769055 -195.201198 
L 505.35604 -195.201198 
L 503.943024 -195.201198 
L 502.530008 -195.195991 
L 501.116992 -195.195991 
L 499.703976 -195.195991 
L 498.29096 -195.195991 
L 496.877944 -195.195991 
L 495.464928 -195.18485 
L 494.051912 -195.18485 
L 492.638896 -195.18485 
L 491.22588 -195.18485 
L 489.812864 -195.18485 
L 488.399848 -195.18485 
L 486.986832 -195.200433 
L 485.573816 -195.200433 
L 484.1608 -195.200433 
L 482.747784 -195.200433 
L 481.334768 -195.200433 
L 479.921752 -194.442282 
L 478.508736 -194.442282 
L 477.09572 -194.442282 
L 475.682704 -194.442282 
L 474.269689 -194.442282 
L 472.856673 -194.442282 
L 471.443657 -168.24258 
L 470.030641 -168.24258 
L 468.617625 -168.24258 
L 467.204609 -168.24258 
L 465.791593 -168.24258 
L 464.378577 -149.407851 
L 462.965561 -149.407851 
L 461.552545 -149.407851 
L 460.139529 -149.407851 
L 458.726513 -149.407851 
L 457.313497 -149.246262 
L 455.900481 -149.246262 
L 454.487465 -149.246262 
L 453.074449 -149.246262 
L 451.661433 -149.246262 
L 450.248417 -149.246262 
L 448.835401 -149.407851 
L 447.422385 -149.407851 
L 446.009369 -149.407851 
L 444.596354 -149.407851 
L 443.183338 -149.407851 
L 441.770322 -149.407851 
L 440.357306 -149.407851 
L 438.94429 -149.407851 
L 437.531274 -149.407851 
L 436.118258 -149.407851 
L 434.705242 -149.407851 
L 433.292226 -149.357096 
L 431.87921 -149.357096 
L 430.466194 -149.357096 
L 429.053178 -149.357096 
L 427.640162 -149.357096 
L 426.227146 -149.407851 
L 424.81413 -149.407851 
L 423.401114 -149.407851 
L 421.988098 -149.407851 
L 420.575082 -149.407851 
L 419.162066 -149.407851 
L 417.74905 -149.407851 
L 416.336034 -149.407851 
L 414.923018 -149.407851 
L 413.510003 -149.407851 
L 412.096987 -149.407851 
L 410.683971 -149.40756 
L 409.270955 -149.40756 
L 407.857939 -149.40756 
L 406.444923 -149.40756 
L 405.031907 -149.40756 
L 403.618891 -149.40756 
L 402.205875 -149.110702 
L 400.792859 -149.110702 
L 399.379843 -149.110702 
L 397.966827 -149.110702 
L 396.553811 -149.110702 
L 395.140795 -139.241818 
L 393.727779 -139.241818 
L 392.314763 -139.241818 
L 390.901747 -139.241818 
L 389.488731 -139.241818 
L 388.075715 -105.438238 
L 386.662699 -105.438238 
L 385.249683 -105.438238 
L 383.836668 -105.438238 
L 382.423652 -105.438238 
L 381.010636 -105.438238 
L 379.59762 -105.525636 
L 378.184604 -105.525636 
L 376.771588 -105.525636 
L 375.358572 -105.525636 
L 373.945556 -105.525636 
L 372.53254 -105.541285 
L 371.119524 -105.541285 
L 369.706508 -105.541285 
L 368.293492 -105.541285 
L 366.880476 -105.541285 
L 365.46746 -105.541285 
L 364.054444 -105.640571 
L 362.641428 -105.640571 
L 361.228412 -105.640571 
L 359.815396 -105.640571 
L 358.40238 -105.640571 
L 356.989364 -106.14606 
L 355.576348 -106.14606 
L 354.163332 -106.14606 
L 352.750317 -106.14606 
L 351.337301 -106.14606 
L 349.924285 -106.14606 
L 348.511269 -107.768149 
L 347.098253 -107.768149 
L 345.685237 -107.768149 
L 344.272221 -107.768149 
L 342.859205 -107.768149 
L 341.446189 -111.077004 
L 340.033173 -111.077004 
L 338.620157 -111.077004 
L 337.207141 -111.077004 
L 335.794125 -111.077004 
L 334.381109 -122.591554 
L 332.968093 -122.591554 
L 331.555077 -122.591554 
L 330.142061 -122.591554 
L 328.729045 -122.591554 
L 327.316029 -122.591554 
L 325.903013 -133.898846 
L 324.489997 -133.898846 
L 323.076982 -133.898846 
L 321.663966 -133.898846 
L 320.25095 -133.898846 
L 318.837934 -135.210119 
L 317.424918 -135.210119 
L 316.011902 -135.210119 
L 314.598886 -135.210119 
L 313.18587 -135.210119 
L 311.772854 -135.210119 
L 310.359838 -143.972141 
L 308.946822 -143.972141 
L 307.533806 -143.972141 
L 306.12079 -143.972141 
L 304.707774 -143.972141 
L 303.294758 -149.493891 
L 301.881742 -149.493891 
L 300.468726 -149.493891 
L 299.05571 -149.493891 
L 297.642694 -149.493891 
L 296.229678 -149.493891 
L 294.816662 -149.576412 
L 293.403646 -149.576412 
L 291.990631 -149.576412 
L 290.577615 -149.576412 
L 289.164599 -149.576412 
L 287.751583 -149.830768 
L 286.338567 -149.830768 
L 284.925551 -149.830768 
L 283.512535 -149.830768 
L 282.099519 -149.830768 
L 280.686503 -149.830768 
L 279.273487 -149.902702 
L 277.860471 -149.902702 
L 276.447455 -149.902702 
L 275.034439 -149.902702 
L 273.621423 -149.902702 
L 272.208407 -150.719199 
L 270.795391 -150.719199 
L 269.382375 -150.719199 
L 267.969359 -150.719199 
L 266.556343 -150.719199 
L 265.143327 -153.040583 
L 263.730311 -153.040583 
L 262.317296 -153.040583 
L 260.90428 -153.040583 
L 259.491264 -153.040583 
L 258.078248 -153.040583 
L 256.665232 -161.676072 
L 255.252216 -161.676072 
L 253.8392 -161.676072 
L 252.426184 -161.676072 
L 251.013168 -161.676072 
L 249.600152 -175.959524 
L 248.187136 -175.959524 
L 246.77412 -175.959524 
L 245.361104 -175.959524 
L 243.948088 -175.959524 
L 242.535072 -175.959524 
L 241.122056 -180.349458 
L 239.70904 -180.349458 
L 238.296024 -180.349458 
L 236.883008 -180.349458 
L 235.469992 -180.349458 
L 234.056976 -181.202371 
L 232.64396 -181.202371 
L 231.230945 -181.202371 
L 229.817929 -181.202371 
L 228.404913 -181.202371 
L 226.991897 -181.202371 
L 225.578881 -194.353239 
L 224.165865 -194.353239 
L 222.752849 -194.353239 
L 221.339833 -194.353239 
L 219.926817 -194.353239 
L 218.513801 -194.33895 
L 217.100785 -194.33895 
L 215.687769 -194.33895 
L 214.274753 -194.33895 
L 212.861737 -194.33895 
L 211.448721 -194.33895 
L 210.035705 -193.734491 
L 208.622689 -193.734491 
L 207.209673 -193.734491 
L 205.796657 -193.734491 
L 204.383641 -193.734491 
L 202.970625 -193.33978 
L 201.55761 -193.33978 
L 200.144594 -193.33978 
L 198.731578 -193.33978 
L 197.318562 -193.33978 
L 195.905546 -192.786681 
L 194.49253 -192.786681 
L 193.079514 -192.786681 
L 191.666498 -192.786681 
L 190.253482 -192.786681 
L 188.840466 -192.786681 
L 187.42745 -193.52877 
L 186.014434 -193.52877 
L 184.601418 -193.52877 
L 183.188402 -193.52877 
L 181.775386 -193.52877 
L 180.36237 -197.516624 
L 178.949354 -197.516624 
L 177.536338 -197.516624 
L 176.123322 -197.516624 
L 174.710306 -197.516624 
L 173.29729 -197.516624 
L 171.884274 -208.602086 
L 170.471259 -208.602086 
L 169.058243 -208.602086 
L 167.645227 -208.602086 
L 166.232211 -208.602086 
L 164.819195 -213.51157 
L 163.406179 -213.51157 
L 161.993163 -213.51157 
L 160.580147 -213.51157 
L 159.167131 -213.51157 
L 157.754115 -213.51157 
L 156.341099 -213.165586 
L 154.928083 -213.165586 
L 153.515067 -213.165586 
L 152.102051 -213.165586 
L 150.689035 -213.165586 
L 149.276019 -228.611522 
L 147.863003 -228.611522 
L 146.449987 -228.611522 
L 145.036971 -228.611522 
L 143.623955 -228.611522 
L 142.210939 -227.555855 
L 140.797924 -227.555855 
L 139.384908 -227.555855 
L 137.971892 -227.555855 
L 136.558876 -227.555855 
L 135.14586 -227.555855 
L 133.732844 -226.837792 
L 132.319828 -226.837792 
L 130.906812 -226.837792 
L 129.493796 -226.837792 
L 128.08078 -226.837792 
L 126.667764 -226.733723 
L 125.254748 -226.733723 
L 123.841732 -226.733723 
L 122.428716 -226.733723 
L 121.0157 -226.733723 
L 119.602684 -226.733723 
L 118.189668 -226.68421 
L 116.776652 -226.68421 
L 115.363636 -226.68421 
z
" style="stroke: #bddf26; stroke-opacity: 0.2"/>
    </defs>
    <g clip-path="url(#p666cec4bc7)">
     <use xlink:href="#m933df2b6ca" x="0" y="360" style="fill: #bddf26; fill-opacity: 0.2; stroke: #bddf26; stroke-opacity: 0.2"/>
    </g>
   </g>
   <g id="matplotlib.axis_1">
    <g id="xtick_1">
     <g id="line2d_1">
      <defs>
       <path id="m4f7d4e34a7" d="M 0 0 
L 0 3.5 
" style="stroke: #000000; stroke-width: 0.8"/>
      </defs>
      <g>
       <use xlink:href="#m4f7d4e34a7" x="146.107438" y="320.4" style="stroke: #000000; stroke-width: 0.8"/>
      </g>
     </g>
     <g id="text_1">
      <!-- $\mathdefault{100}$ -->
      <g transform="translate(135.498905 337.431808) scale(0.145 -0.145)">
       <defs>
        <path id="CMR17-31" d="M 1702 4058 
C 1702 4192 1696 4192 1606 4192 
C 1357 3916 979 3827 621 3827 
C 602 3827 570 3827 563 3808 
C 557 3795 557 3782 557 3648 
C 755 3648 1088 3686 1344 3839 
L 1344 461 
C 1344 236 1331 160 781 160 
L 589 160 
L 589 0 
C 896 0 1216 0 1523 0 
C 1830 0 2150 0 2458 0 
L 2458 160 
L 2266 160 
C 1715 160 1702 230 1702 458 
L 1702 4058 
z
" transform="scale(0.015625)"/>
        <path id="CMR17-30" d="M 2688 2025 
C 2688 2416 2682 3080 2413 3591 
C 2176 4039 1798 4198 1466 4198 
C 1158 4198 768 4058 525 3597 
C 269 3118 243 2524 243 2025 
C 243 1661 250 1106 448 619 
C 723 -39 1216 -128 1466 -128 
C 1760 -128 2208 -7 2470 600 
C 2662 1042 2688 1559 2688 2025 
z
M 1466 -26 
C 1056 -26 813 325 723 812 
C 653 1188 653 1738 653 2096 
C 653 2588 653 2997 736 3387 
C 858 3929 1216 4096 1466 4096 
C 1728 4096 2067 3923 2189 3400 
C 2272 3036 2278 2607 2278 2096 
C 2278 1680 2278 1169 2202 792 
C 2067 95 1690 -26 1466 -26 
z
" transform="scale(0.015625)"/>
       </defs>
       <use xlink:href="#CMR17-31" transform="scale(0.996264)"/>
       <use xlink:href="#CMR17-30" transform="translate(45.690477 0) scale(0.996264)"/>
       <use xlink:href="#CMR17-30" transform="translate(91.380954 0) scale(0.996264)"/>
      </g>
     </g>
    </g>
    <g id="xtick_2">
     <g id="line2d_2">
      <g>
       <use xlink:href="#m4f7d4e34a7" x="222.966942" y="320.4" style="stroke: #000000; stroke-width: 0.8"/>
      </g>
     </g>
     <g id="text_2">
      <!-- $\mathdefault{200}$ -->
      <g transform="translate(212.358409 337.431808) scale(0.145 -0.145)">
       <defs>
        <path id="CMR17-32" d="M 2669 989 
L 2554 989 
C 2490 536 2438 459 2413 420 
C 2381 369 1920 369 1830 369 
L 602 369 
C 832 619 1280 1072 1824 1597 
C 2214 1967 2669 2402 2669 3035 
C 2669 3790 2067 4224 1395 4224 
C 691 4224 262 3604 262 3030 
C 262 2780 448 2748 525 2748 
C 589 2748 781 2787 781 3010 
C 781 3207 614 3264 525 3264 
C 486 3264 448 3258 422 3245 
C 544 3790 915 4058 1306 4058 
C 1862 4058 2227 3617 2227 3035 
C 2227 2479 1901 2000 1536 1584 
L 262 146 
L 262 0 
L 2515 0 
L 2669 989 
z
" transform="scale(0.015625)"/>
       </defs>
       <use xlink:href="#CMR17-32" transform="scale(0.996264)"/>
       <use xlink:href="#CMR17-30" transform="translate(45.690477 0) scale(0.996264)"/>
       <use xlink:href="#CMR17-30" transform="translate(91.380954 0) scale(0.996264)"/>
      </g>
     </g>
    </g>
    <g id="xtick_3">
     <g id="line2d_3">
      <g>
       <use xlink:href="#m4f7d4e34a7" x="299.826446" y="320.4" style="stroke: #000000; stroke-width: 0.8"/>
      </g>
     </g>
     <g id="text_3">
      <!-- $\mathdefault{300}$ -->
      <g transform="translate(289.217913 337.431808) scale(0.145 -0.145)">
       <defs>
        <path id="CMR17-33" d="M 1414 2157 
C 1984 2157 2234 1662 2234 1090 
C 2234 320 1824 25 1453 25 
C 1114 25 563 194 390 693 
C 422 680 454 680 486 680 
C 640 680 755 782 755 948 
C 755 1133 614 1216 486 1216 
C 378 1216 211 1165 211 926 
C 211 335 787 -128 1466 -128 
C 2176 -128 2720 430 2720 1085 
C 2720 1707 2208 2157 1600 2227 
C 2086 2328 2554 2756 2554 3329 
C 2554 3820 2048 4179 1472 4179 
C 890 4179 378 3829 378 3329 
C 378 3110 544 3072 627 3072 
C 762 3072 877 3155 877 3321 
C 877 3486 762 3569 627 3569 
C 602 3569 570 3569 544 3557 
C 730 3959 1235 4032 1459 4032 
C 1683 4032 2106 3925 2106 3320 
C 2106 3143 2080 2828 1862 2550 
C 1670 2304 1453 2304 1242 2284 
C 1210 2284 1062 2269 1037 2269 
C 992 2263 966 2257 966 2208 
C 966 2163 973 2157 1101 2157 
L 1414 2157 
z
" transform="scale(0.015625)"/>
       </defs>
       <use xlink:href="#CMR17-33" transform="scale(0.996264)"/>
       <use xlink:href="#CMR17-30" transform="translate(45.690477 0) scale(0.996264)"/>
       <use xlink:href="#CMR17-30" transform="translate(91.380954 0) scale(0.996264)"/>
      </g>
     </g>
    </g>
    <g id="xtick_4">
     <g id="line2d_4">
      <g>
       <use xlink:href="#m4f7d4e34a7" x="376.68595" y="320.4" style="stroke: #000000; stroke-width: 0.8"/>
      </g>
     </g>
     <g id="text_4">
      <!-- $\mathdefault{400}$ -->
      <g transform="translate(366.077417 337.431808) scale(0.145 -0.145)">
       <defs>
        <path id="CMR17-34" d="M 2150 4122 
C 2150 4256 2144 4256 2029 4256 
L 128 1254 
L 128 1088 
L 1779 1088 
L 1779 457 
C 1779 224 1766 160 1318 160 
L 1197 160 
L 1197 0 
C 1402 0 1747 0 1965 0 
C 2182 0 2528 0 2733 0 
L 2733 160 
L 2611 160 
C 2163 160 2150 224 2150 457 
L 2150 1088 
L 2803 1088 
L 2803 1254 
L 2150 1254 
L 2150 4122 
z
M 1798 3703 
L 1798 1254 
L 256 1254 
L 1798 3703 
z
" transform="scale(0.015625)"/>
       </defs>
       <use xlink:href="#CMR17-34" transform="scale(0.996264)"/>
       <use xlink:href="#CMR17-30" transform="translate(45.690477 0) scale(0.996264)"/>
       <use xlink:href="#CMR17-30" transform="translate(91.380954 0) scale(0.996264)"/>
      </g>
     </g>
    </g>
    <g id="xtick_5">
     <g id="line2d_5">
      <g>
       <use xlink:href="#m4f7d4e34a7" x="453.545455" y="320.4" style="stroke: #000000; stroke-width: 0.8"/>
      </g>
     </g>
     <g id="text_5">
      <!-- $\mathdefault{500}$ -->
      <g transform="translate(442.936921 337.431808) scale(0.145 -0.145)">
       <defs>
        <path id="CMR17-35" d="M 730 3692 
C 794 3666 1056 3584 1325 3584 
C 1920 3584 2246 3911 2432 4100 
C 2432 4157 2432 4192 2394 4192 
C 2387 4192 2374 4192 2323 4163 
C 2099 4058 1837 3973 1517 3973 
C 1325 3973 1037 3999 723 4139 
C 653 4171 640 4171 634 4171 
C 602 4171 595 4164 595 4037 
L 595 2203 
C 595 2089 595 2057 659 2057 
C 691 2057 704 2070 736 2114 
C 941 2401 1222 2522 1542 2522 
C 1766 2522 2246 2382 2246 1289 
C 2246 1085 2246 715 2054 421 
C 1894 159 1645 25 1370 25 
C 947 25 518 320 403 814 
C 429 807 480 795 506 795 
C 589 795 749 840 749 1038 
C 749 1210 627 1280 506 1280 
C 358 1280 262 1190 262 1011 
C 262 454 704 -128 1382 -128 
C 2042 -128 2669 440 2669 1264 
C 2669 2030 2170 2624 1549 2624 
C 1222 2624 947 2503 730 2274 
L 730 3692 
z
" transform="scale(0.015625)"/>
       </defs>
       <use xlink:href="#CMR17-35" transform="scale(0.996264)"/>
       <use xlink:href="#CMR17-30" transform="translate(45.690477 0) scale(0.996264)"/>
       <use xlink:href="#CMR17-30" transform="translate(91.380954 0) scale(0.996264)"/>
      </g>
     </g>
    </g>
    <g id="xtick_6">
     <g id="line2d_6">
      <g>
       <use xlink:href="#m4f7d4e34a7" x="530.404959" y="320.4" style="stroke: #000000; stroke-width: 0.8"/>
      </g>
     </g>
     <g id="text_6">
      <!-- $\mathdefault{600}$ -->
      <g transform="translate(519.796425 337.431808) scale(0.145 -0.145)">
       <defs>
        <path id="CMR17-36" d="M 678 2176 
C 678 3690 1395 4032 1811 4032 
C 1946 4032 2272 4009 2400 3776 
C 2298 3776 2106 3776 2106 3553 
C 2106 3381 2246 3323 2336 3323 
C 2394 3323 2566 3348 2566 3560 
C 2566 3954 2246 4179 1805 4179 
C 1043 4179 243 3390 243 1984 
C 243 253 966 -128 1478 -128 
C 2099 -128 2688 427 2688 1283 
C 2688 2081 2170 2662 1517 2662 
C 1126 2662 838 2407 678 1960 
L 678 2176 
z
M 1478 25 
C 691 25 691 1200 691 1436 
C 691 1896 909 2560 1504 2560 
C 1613 2560 1926 2560 2138 2120 
C 2253 1870 2253 1609 2253 1289 
C 2253 944 2253 690 2118 434 
C 1978 171 1773 25 1478 25 
z
" transform="scale(0.015625)"/>
       </defs>
       <use xlink:href="#CMR17-36" transform="scale(0.996264)"/>
       <use xlink:href="#CMR17-30" transform="translate(45.690477 0) scale(0.996264)"/>
       <use xlink:href="#CMR17-30" transform="translate(91.380954 0) scale(0.996264)"/>
      </g>
     </g>
    </g>
    <g id="xtick_7">
     <g id="line2d_7">
      <g>
       <use xlink:href="#m4f7d4e34a7" x="607.264463" y="320.4" style="stroke: #000000; stroke-width: 0.8"/>
      </g>
     </g>
     <g id="text_7">
      <!-- $\mathdefault{700}$ -->
      <g transform="translate(596.655929 337.431808) scale(0.145 -0.145)">
       <defs>
        <path id="CMR17-37" d="M 2886 3941 
L 2886 4081 
L 1382 4081 
C 634 4081 621 4165 595 4288 
L 480 4288 
L 294 3094 
L 410 3094 
C 429 3215 474 3540 550 3661 
C 589 3712 1062 3712 1171 3712 
L 2579 3712 
L 1869 2661 
C 1395 1954 1069 999 1069 165 
C 1069 89 1069 -128 1299 -128 
C 1530 -128 1530 89 1530 171 
L 1530 465 
C 1530 1508 1709 2196 2003 2636 
L 2886 3941 
z
" transform="scale(0.015625)"/>
       </defs>
       <use xlink:href="#CMR17-37" transform="scale(0.996264)"/>
       <use xlink:href="#CMR17-30" transform="translate(45.690477 0) scale(0.996264)"/>
       <use xlink:href="#CMR17-30" transform="translate(91.380954 0) scale(0.996264)"/>
      </g>
     </g>
    </g>
    <g id="text_8">
     <!-- time (s) -->
     <g transform="translate(345.477317 355.075073) scale(0.145 -0.145)">
      <defs>
       <path id="CMSS17-74" d="M 1069 2368 
L 1901 2368 
L 1901 2737 
L 1069 2737 
L 1069 3520 
L 614 3520 
L 614 2737 
L 109 2737 
L 109 2368 
L 602 2368 
L 602 749 
C 602 384 685 -64 1107 -64 
C 1427 -64 1722 25 2003 172 
L 1901 548 
C 1747 414 1562 337 1363 337 
C 1082 337 1069 696 1069 856 
L 1069 2368 
z
" transform="scale(0.015625)"/>
       <path id="CMSS17-69" d="M 979 4183 
L 442 4183 
L 442 3648 
L 979 3648 
L 979 4183 
z
M 947 2739 
L 474 2739 
L 474 0 
L 947 0 
L 947 2739 
z
" transform="scale(0.015625)"/>
       <path id="CMSS17-6d" d="M 4288 1877 
C 4288 2308 4179 2816 3462 2816 
C 2982 2816 2694 2516 2566 2331 
C 2451 2670 2182 2816 1798 2816 
C 1363 2816 1088 2568 941 2389 
L 941 2758 
L 474 2758 
L 474 0 
L 960 0 
L 960 1559 
C 960 1939 1101 2428 1555 2428 
C 2138 2428 2138 2016 2138 1829 
L 2138 0 
L 2624 0 
L 2624 1559 
C 2624 1939 2765 2428 3219 2428 
C 3802 2428 3802 2016 3802 1829 
L 3802 0 
L 4288 0 
L 4288 1877 
z
" transform="scale(0.015625)"/>
       <path id="CMSS17-65" d="M 2502 1377 
C 2502 1590 2490 2003 2285 2345 
C 2061 2713 1696 2816 1421 2816 
C 755 2816 192 2188 192 1375 
C 192 582 774 -64 1510 -64 
C 1798 -64 2150 19 2470 248 
C 2470 274 2458 414 2451 420 
C 2451 433 2432 630 2432 656 
C 2125 407 1773 325 1517 325 
C 1107 325 666 667 646 1377 
L 2502 1377 
z
M 698 1728 
C 781 2084 1062 2421 1421 2421 
C 1517 2421 1965 2421 2080 1728 
L 698 1728 
z
" transform="scale(0.015625)"/>
       <path id="CMSS17-28" d="M 1613 4768 
C 1267 4417 474 3601 474 1588 
C 474 -433 1267 -1243 1613 -1600 
L 2003 -1600 
C 1216 -784 960 357 960 1581 
C 960 2798 1203 3946 2003 4768 
L 1613 4768 
z
" transform="scale(0.015625)"/>
       <path id="CMSS17-73" d="M 2061 2627 
C 1683 2807 1389 2807 1197 2807 
C 742 2807 198 2648 198 2003 
C 198 1359 902 1218 1094 1179 
C 1389 1122 1715 1058 1715 740 
C 1715 337 1254 337 1171 337 
C 915 337 563 407 243 638 
L 166 210 
C 531 0 883 -64 1178 -64 
C 1965 -64 2163 416 2163 781 
C 2163 1094 1984 1305 1862 1401 
C 1651 1568 1574 1587 1050 1696 
C 960 1709 646 1779 646 2066 
C 646 2432 1050 2432 1139 2432 
C 1555 2432 1811 2303 1984 2208 
L 2061 2627 
z
" transform="scale(0.015625)"/>
       <path id="CMSS17-29" d="M 723 -1600 
C 1069 -1249 1862 -433 1862 1581 
C 1862 3601 1069 4411 723 4768 
L 333 4768 
C 1120 3952 1376 2811 1376 1588 
C 1376 370 1133 -778 333 -1600 
L 723 -1600 
z
" transform="scale(0.015625)"/>
      </defs>
      <use xlink:href="#CMSS17-74" transform="scale(0.996264)"/>
      <use xlink:href="#CMSS17-69" transform="translate(33.831567 0) scale(0.996264)"/>
      <use xlink:href="#CMSS17-6d" transform="translate(56.01229 0) scale(0.996264)"/>
      <use xlink:href="#CMSS17-65" transform="translate(130.241544 0) scale(0.996264)"/>
      <use xlink:href="#CMSS17-28" transform="translate(203.109479 0) scale(0.996264)"/>
      <use xlink:href="#CMSS17-73" transform="translate(239.543393 0) scale(0.996264)"/>
      <use xlink:href="#CMSS17-29" transform="translate(275.456935 0) scale(0.996264)"/>
     </g>
    </g>
   </g>
   <g id="matplotlib.axis_2">
    <g id="ytick_1">
     <g id="line2d_8">
      <path d="M 90 320.4 
L 648 320.4 
" clip-path="url(#p666cec4bc7)" style="fill: none; stroke-dasharray: 1.85,0.8; stroke-dashoffset: 0; stroke: #808080; stroke-width: 0.5"/>
     </g>
     <g id="line2d_9">
      <defs>
       <path id="m7226ab9679" d="M 0 0 
L -3.5 0 
" style="stroke: #000000; stroke-width: 0.8"/>
      </defs>
      <g>
       <use xlink:href="#m7226ab9679" x="90" y="320.4" style="stroke: #000000; stroke-width: 0.8"/>
      </g>
     </g>
     <g id="text_9">
      <!-- $\mathdefault{0.0}$ -->
      <g transform="translate(64.926206 325.415904) scale(0.145 -0.145)">
       <defs>
        <path id="CMMI12-3a" d="M 1178 307 
C 1178 492 1024 619 870 619 
C 685 619 557 466 557 313 
C 557 128 710 0 864 0 
C 1050 0 1178 153 1178 307 
z
" transform="scale(0.015625)"/>
       </defs>
       <use xlink:href="#CMR17-30" transform="scale(0.996264)"/>
       <use xlink:href="#CMMI12-3a" transform="translate(45.690477 0) scale(0.996264)"/>
       <use xlink:href="#CMR17-30" transform="translate(72.787654 0) scale(0.996264)"/>
      </g>
     </g>
    </g>
    <g id="ytick_2">
     <g id="line2d_10">
      <path d="M 90 267.6 
L 648 267.6 
" clip-path="url(#p666cec4bc7)" style="fill: none; stroke-dasharray: 1.85,0.8; stroke-dashoffset: 0; stroke: #808080; stroke-width: 0.5"/>
     </g>
     <g id="line2d_11">
      <g>
       <use xlink:href="#m7226ab9679" x="90" y="267.6" style="stroke: #000000; stroke-width: 0.8"/>
      </g>
     </g>
     <g id="text_10">
      <!-- $\mathdefault{0.2}$ -->
      <g transform="translate(64.926206 272.615904) scale(0.145 -0.145)">
       <use xlink:href="#CMR17-30" transform="scale(0.996264)"/>
       <use xlink:href="#CMMI12-3a" transform="translate(45.690477 0) scale(0.996264)"/>
       <use xlink:href="#CMR17-32" transform="translate(72.787654 0) scale(0.996264)"/>
      </g>
     </g>
    </g>
    <g id="ytick_3">
     <g id="line2d_12">
      <path d="M 90 214.8 
L 648 214.8 
" clip-path="url(#p666cec4bc7)" style="fill: none; stroke-dasharray: 1.85,0.8; stroke-dashoffset: 0; stroke: #808080; stroke-width: 0.5"/>
     </g>
     <g id="line2d_13">
      <g>
       <use xlink:href="#m7226ab9679" x="90" y="214.8" style="stroke: #000000; stroke-width: 0.8"/>
      </g>
     </g>
     <g id="text_11">
      <!-- $\mathdefault{0.4}$ -->
      <g transform="translate(64.926206 219.815904) scale(0.145 -0.145)">
       <use xlink:href="#CMR17-30" transform="scale(0.996264)"/>
       <use xlink:href="#CMMI12-3a" transform="translate(45.690477 0) scale(0.996264)"/>
       <use xlink:href="#CMR17-34" transform="translate(72.787654 0) scale(0.996264)"/>
      </g>
     </g>
    </g>
    <g id="ytick_4">
     <g id="line2d_14">
      <path d="M 90 162 
L 648 162 
" clip-path="url(#p666cec4bc7)" style="fill: none; stroke-dasharray: 1.85,0.8; stroke-dashoffset: 0; stroke: #808080; stroke-width: 0.5"/>
     </g>
     <g id="line2d_15">
      <g>
       <use xlink:href="#m7226ab9679" x="90" y="162" style="stroke: #000000; stroke-width: 0.8"/>
      </g>
     </g>
     <g id="text_12">
      <!-- $\mathdefault{0.6}$ -->
      <g transform="translate(64.926206 167.015904) scale(0.145 -0.145)">
       <use xlink:href="#CMR17-30" transform="scale(0.996264)"/>
       <use xlink:href="#CMMI12-3a" transform="translate(45.690477 0) scale(0.996264)"/>
       <use xlink:href="#CMR17-36" transform="translate(72.787654 0) scale(0.996264)"/>
      </g>
     </g>
    </g>
    <g id="ytick_5">
     <g id="line2d_16">
      <path d="M 90 109.2 
L 648 109.2 
" clip-path="url(#p666cec4bc7)" style="fill: none; stroke-dasharray: 1.85,0.8; stroke-dashoffset: 0; stroke: #808080; stroke-width: 0.5"/>
     </g>
     <g id="line2d_17">
      <g>
       <use xlink:href="#m7226ab9679" x="90" y="109.2" style="stroke: #000000; stroke-width: 0.8"/>
      </g>
     </g>
     <g id="text_13">
      <!-- $\mathdefault{0.8}$ -->
      <g transform="translate(64.926206 114.215904) scale(0.145 -0.145)">
       <defs>
        <path id="CMR17-38" d="M 1741 2264 
C 2144 2467 2554 2773 2554 3263 
C 2554 3841 1990 4179 1472 4179 
C 890 4179 378 3759 378 3180 
C 378 3021 416 2747 666 2505 
C 730 2442 998 2251 1171 2130 
C 883 1983 211 1634 211 934 
C 211 279 838 -128 1459 -128 
C 2144 -128 2720 362 2720 1010 
C 2720 1590 2330 1857 2074 2029 
L 1741 2264 
z
M 902 2822 
C 851 2854 595 3051 595 3351 
C 595 3739 998 4032 1459 4032 
C 1965 4032 2336 3676 2336 3262 
C 2336 2669 1670 2331 1638 2331 
C 1632 2331 1626 2331 1574 2370 
L 902 2822 
z
M 2080 1519 
C 2176 1449 2483 1240 2483 851 
C 2483 381 2010 25 1472 25 
C 890 25 448 438 448 940 
C 448 1443 838 1862 1280 2060 
L 2080 1519 
z
" transform="scale(0.015625)"/>
       </defs>
       <use xlink:href="#CMR17-30" transform="scale(0.996264)"/>
       <use xlink:href="#CMMI12-3a" transform="translate(45.690477 0) scale(0.996264)"/>
       <use xlink:href="#CMR17-38" transform="translate(72.787654 0) scale(0.996264)"/>
      </g>
     </g>
    </g>
    <g id="ytick_6">
     <g id="line2d_18">
      <path d="M 90 56.4 
L 648 56.4 
" clip-path="url(#p666cec4bc7)" style="fill: none; stroke-dasharray: 1.85,0.8; stroke-dashoffset: 0; stroke: #808080; stroke-width: 0.5"/>
     </g>
     <g id="line2d_19">
      <g>
       <use xlink:href="#m7226ab9679" x="90" y="56.4" style="stroke: #000000; stroke-width: 0.8"/>
      </g>
     </g>
     <g id="text_14">
      <!-- $\mathdefault{1.0}$ -->
      <g transform="translate(64.926206 61.415904) scale(0.145 -0.145)">
       <use xlink:href="#CMR17-31" transform="scale(0.996264)"/>
       <use xlink:href="#CMMI12-3a" transform="translate(45.690477 0) scale(0.996264)"/>
       <use xlink:href="#CMR17-30" transform="translate(72.787654 0) scale(0.996264)"/>
      </g>
     </g>
    </g>
    <g id="text_15">
     <!-- QoS -->
     <g transform="translate(58.117312 194.481753) rotate(-90) scale(0.145 -0.145)">
      <defs>
       <path id="CMSS17-51" d="M 3200 202 
C 3981 833 4096 1689 4096 2174 
C 4096 3501 3219 4497 2214 4497 
C 1210 4497 333 3497 333 2178 
C 333 847 1222 -128 2214 -128 
C 2438 -128 2630 -77 2765 -26 
L 3302 -832 
L 3930 -832 
L 3200 202 
z
M 2528 324 
C 2438 293 2330 273 2214 273 
C 1523 273 858 993 858 2178 
C 858 3357 1517 4096 2214 4096 
C 2918 4096 3571 3350 3571 2178 
C 3571 1771 3507 1089 2950 566 
L 2490 1210 
L 1939 1210 
L 2528 324 
z
" transform="scale(0.015625)"/>
       <path id="CMSS17-6f" d="M 2829 1356 
C 2829 2176 2221 2816 1504 2816 
C 768 2816 173 2157 173 1356 
C 173 544 787 -64 1498 -64 
C 2227 -64 2829 563 2829 1356 
z
M 1504 337 
C 1050 337 659 709 659 1408 
C 659 2151 1114 2427 1498 2427 
C 1914 2427 2342 2126 2342 1408 
C 2342 683 1926 337 1504 337 
z
" transform="scale(0.015625)"/>
       <path id="CMSS17-53" d="M 2797 4169 
C 2515 4334 2208 4480 1690 4480 
C 864 4480 333 3879 333 3266 
C 333 3025 403 2753 653 2475 
C 902 2196 1184 2121 1542 2033 
C 1690 1994 1939 1924 1984 1906 
C 2342 1767 2515 1444 2515 1140 
C 2515 742 2202 318 1645 318 
C 1453 318 890 318 358 819 
L 269 318 
C 794 -64 1363 -128 1651 -128 
C 2438 -128 3002 488 3002 1186 
C 3002 1440 2925 1763 2656 2061 
C 2394 2347 2163 2410 1638 2549 
C 1338 2626 1146 2677 986 2873 
C 877 3013 819 3146 819 3317 
C 819 3673 1126 4060 1690 4060 
C 1971 4060 2336 4002 2707 3660 
L 2797 4169 
z
" transform="scale(0.015625)"/>
      </defs>
      <use xlink:href="#CMSS17-51" transform="scale(0.996264)"/>
      <use xlink:href="#CMSS17-6f" transform="translate(69.024255 0) scale(0.996264)"/>
      <use xlink:href="#CMSS17-53" transform="translate(115.867879 0) scale(0.996264)"/>
     </g>
    </g>
   </g>
   <g id="line2d_20">
    <path d="M 115.363636 112.201416 
L 149.276019 112.201416 
L 150.689035 129.041976 
L 156.341099 129.041976 
L 157.754115 130.153944 
L 164.819195 130.153944 
L 166.232211 136.57284 
L 171.884274 136.57284 
L 173.29729 147.79944 
L 180.36237 147.79944 
L 181.775386 151.32912 
L 187.42745 151.32912 
L 188.840466 151.773696 
L 195.905546 151.773696 
L 197.318562 152.051424 
L 202.970625 152.051424 
L 204.383641 152.190288 
L 218.513801 152.246256 
L 222.752849 152.301696 
L 225.578881 152.301696 
L 226.991897 165.140016 
L 234.056976 165.140016 
L 235.469992 167.83572 
L 241.122056 167.83572 
L 242.535072 173.088264 
L 249.600152 173.088264 
L 251.013168 190.09488 
L 256.665232 190.09488 
L 258.078248 199.349136 
L 265.143327 199.349136 
L 266.556343 201.099984 
L 272.208407 201.099984 
L 273.621423 201.655968 
L 287.751583 201.739128 
L 289.164599 201.933696 
L 294.816662 201.933696 
L 296.229678 202.07256 
L 303.294758 202.07256 
L 304.707774 206.074272 
L 310.359838 206.074272 
L 311.772854 216.411984 
L 318.837934 216.411984 
L 320.25095 217.88484 
L 325.903013 217.88484 
L 327.316029 230.973432 
L 334.381109 230.973432 
L 335.794125 242.506008 
L 341.446189 242.506008 
L 342.859205 246.81396 
L 348.511269 246.81396 
L 349.924285 248.341992 
L 356.989364 248.341992 
L 358.40238 248.730864 
L 364.054444 248.730864 
L 366.880476 248.842272 
L 379.59762 248.925696 
L 382.423652 249.00912 
L 388.075715 249.00912 
L 389.488731 216.717168 
L 395.140795 216.717168 
L 396.553811 205.268016 
L 402.205875 205.268016 
L 403.618891 204.740016 
L 426.227146 204.795456 
L 429.053178 204.9066 
L 433.292226 204.9066 
L 436.118258 204.795456 
L 448.835401 204.795456 
L 451.661433 204.9066 
L 457.313497 204.9066 
L 460.139529 204.795456 
L 464.378577 204.795456 
L 465.791593 185.788248 
L 471.443657 185.788248 
L 472.856673 159.415704 
L 479.921752 159.415704 
L 481.334768 158.38716 
L 486.986832 158.38716 
L 488.399848 158.164872 
L 518.073183 158.136888 
L 519.486199 158.526024 
L 526.551279 158.526024 
L 529.377311 158.414616 
L 540.681438 158.303736 
L 542.094454 155.330568 
L 549.159534 155.330568 
L 550.57255 123.816888 
L 556.224614 123.816888 
L 557.63763 122.177712 
L 618.397316 122.094552 
L 619.810332 121.955688 
L 622.636364 121.955688 
L 622.636364 121.955688 
" clip-path="url(#p666cec4bc7)" style="fill: none; stroke: #482475; stroke-width: 2.5; stroke-linecap: square"/>
   </g>
   <g id="line2d_21">
    <path d="M 115.363636 126.735408 
L 126.667764 126.65172 
L 128.08078 126.429432 
L 133.732844 126.429432 
L 135.14586 125.818008 
L 142.210939 125.818008 
L 143.623955 125.178864 
L 149.276019 125.178864 
L 150.689035 139.018008 
L 156.341099 139.018008 
L 157.754115 137.62884 
L 164.819195 137.62884 
L 166.232211 142.630848 
L 171.884274 142.630848 
L 173.29729 153.52428 
L 180.36237 153.52428 
L 181.775386 156.859128 
L 187.42745 156.859128 
L 188.840466 157.470288 
L 195.905546 157.470288 
L 197.318562 157.248 
L 202.970625 157.248 
L 204.383641 156.970272 
L 210.035705 156.970272 
L 211.448721 156.386568 
L 225.578881 156.386568 
L 226.991897 167.50176 
L 234.056976 167.50176 
L 235.469992 169.0026 
L 241.122056 169.0026 
L 242.535072 173.393712 
L 249.600152 173.393712 
L 251.013168 189.511704 
L 256.665232 189.511704 
L 258.078248 199.432824 
L 265.143327 199.432824 
L 266.556343 202.072296 
L 272.208407 202.072296 
L 273.621423 202.683456 
L 279.273487 202.683456 
L 280.686503 202.933464 
L 287.751583 202.933464 
L 289.164599 203.100312 
L 294.816662 203.100312 
L 296.229678 203.23944 
L 303.294758 203.23944 
L 304.707774 207.325104 
L 310.359838 207.325104 
L 311.772854 215.022024 
L 318.837934 215.022024 
L 320.25095 216.633744 
L 325.903013 216.633744 
L 327.316029 230.195688 
L 334.381109 230.195688 
L 335.794125 242.701104 
L 341.446189 242.701104 
L 342.859205 246.480528 
L 348.511269 246.480528 
L 349.924285 248.00856 
L 356.989364 248.00856 
L 358.40238 248.369712 
L 372.53254 248.453136 
L 375.358572 248.50884 
L 388.075715 248.564544 
L 389.488731 214.24428 
L 395.140795 214.24428 
L 396.553811 203.489712 
L 402.205875 203.489712 
L 403.618891 203.295144 
L 464.378577 203.26716 
L 465.791593 182.703144 
L 471.443657 182.703144 
L 472.856673 156.275424 
L 479.921752 156.275424 
L 481.334768 155.69172 
L 526.551279 155.664 
L 527.964295 155.524872 
L 540.681438 155.497152 
L 542.094454 152.496 
L 549.159534 152.496 
L 550.57255 120.010008 
L 556.224614 120.010008 
L 557.63763 119.009448 
L 618.397316 119.037432 
L 621.223348 119.120856 
L 622.636364 119.120856 
L 622.636364 119.120856 
" clip-path="url(#p666cec4bc7)" style="fill: none; stroke: #bddf26; stroke-width: 2.5; stroke-linecap: square"/>
   </g>
   <g id="patch_3">
    <path d="M 90 320.4 
L 90 43.2 
" style="fill: none; stroke: #000000; stroke-width: 0.8; stroke-linejoin: miter; stroke-linecap: square"/>
   </g>
   <g id="patch_4">
    <path d="M 648 320.4 
L 648 43.2 
" style="fill: none; stroke: #000000; stroke-width: 0.8; stroke-linejoin: miter; stroke-linecap: square"/>
   </g>
   <g id="patch_5">
    <path d="M 90 320.4 
L 648 320.4 
" style="fill: none; stroke: #000000; stroke-width: 0.8; stroke-linejoin: miter; stroke-linecap: square"/>
   </g>
   <g id="text_16">
    <!-- $nt=Lobster$ $d=1000$ $oc=1\%$ $l=costant$ -->
    <g transform="translate(205.73079 37.2) scale(0.18 -0.18)">
     <defs>
      <path id="CMMI12-6e" d="M 1318 1871 
C 1331 1910 1491 2229 1728 2433 
C 1894 2586 2112 2689 2362 2689 
C 2618 2689 2707 2497 2707 2242 
C 2707 1878 2445 1150 2317 805 
C 2259 651 2227 568 2227 453 
C 2227 166 2426 -64 2733 -64 
C 3328 -64 3552 875 3552 913 
C 3552 945 3526 971 3488 971 
C 3430 971 3424 952 3392 843 
C 3245 319 3002 64 2752 64 
C 2688 64 2586 64 2586 269 
C 2586 429 2656 621 2694 710 
C 2822 1063 3091 1780 3091 2145 
C 3091 2528 2867 2816 2381 2816 
C 1811 2816 1510 2415 1395 2255 
C 1376 2618 1114 2816 832 2816 
C 627 2816 486 2695 378 2478 
C 262 2248 173 1865 173 1839 
C 173 1814 198 1782 243 1782 
C 294 1782 301 1788 339 1935 
C 442 2325 557 2689 813 2689 
C 960 2689 1011 2586 1011 2395 
C 1011 2254 947 2005 902 1807 
L 723 1118 
C 698 996 627 709 595 594 
C 550 428 480 128 480 96 
C 480 6 550 -64 646 -64 
C 723 -64 813 -26 864 70 
C 877 102 934 326 966 453 
L 1107 1028 
L 1318 1871 
z
" transform="scale(0.015625)"/>
      <path id="CMMI12-74" d="M 1286 2566 
L 1875 2566 
C 1997 2566 2061 2566 2061 2681 
C 2061 2752 2022 2752 1894 2752 
L 1331 2752 
L 1568 3692 
C 1594 3781 1594 3794 1594 3840 
C 1594 3943 1510 4000 1427 4000 
C 1376 4000 1229 3981 1178 3775 
L 928 2752 
L 326 2752 
C 198 2752 141 2752 141 2630 
C 141 2566 186 2566 307 2566 
L 877 2566 
L 454 881 
C 403 658 384 594 384 511 
C 384 211 595 -64 954 -64 
C 1600 -64 1946 868 1946 912 
C 1946 951 1920 970 1882 970 
C 1869 970 1843 970 1830 944 
C 1824 938 1818 931 1773 829 
C 1638 511 1344 64 973 64 
C 781 64 768 224 768 364 
C 768 370 768 492 787 568 
L 1286 2566 
z
" transform="scale(0.015625)"/>
      <path id="CMR17-3d" d="M 4115 2017 
C 4211 2017 4307 2017 4307 2125 
C 4307 2240 4198 2240 4090 2240 
L 512 2240 
C 403 2240 294 2240 294 2125 
C 294 2017 390 2017 486 2017 
L 4115 2017 
z
M 4090 896 
C 4198 896 4307 896 4307 1011 
C 4307 1119 4211 1119 4115 1119 
L 486 1119 
C 390 1119 294 1119 294 1011 
C 294 896 403 896 512 896 
L 4090 896 
z
" transform="scale(0.015625)"/>
      <path id="CMMI12-4c" d="M 2349 3861 
C 2406 4103 2426 4167 2989 4167 
C 3162 4167 3206 4167 3206 4288 
C 3206 4352 3136 4352 3110 4352 
C 2982 4352 2835 4352 2707 4352 
L 1850 4352 
C 1728 4352 1587 4352 1466 4352 
C 1414 4352 1344 4352 1344 4231 
C 1344 4167 1402 4167 1498 4167 
C 1888 4167 1888 4116 1888 4046 
C 1888 4034 1888 3995 1862 3899 
L 998 472 
C 941 249 928 185 480 185 
C 358 185 294 185 294 70 
C 294 0 333 0 461 0 
L 3328 0 
C 3469 0 3475 6 3520 121 
L 4013 1478 
C 4026 1510 4038 1548 4038 1567 
C 4038 1605 4006 1631 3974 1631 
C 3968 1631 3936 1631 3923 1605 
C 3910 1599 3910 1586 3859 1465 
C 3654 905 3366 185 2285 185 
L 1670 185 
C 1581 185 1568 185 1530 192 
C 1459 198 1453 211 1453 262 
C 1453 307 1466 345 1478 401 
L 2349 3861 
z
" transform="scale(0.015625)"/>
      <path id="CMMI12-6f" d="M 2918 1756 
C 2918 2363 2522 2816 1939 2816 
C 1094 2816 262 1897 262 996 
C 262 390 659 -64 1242 -64 
C 2093 -64 2918 856 2918 1756 
z
M 1248 64 
C 928 64 691 319 691 766 
C 691 1060 845 1712 1024 2031 
C 1312 2523 1670 2689 1933 2689 
C 2246 2689 2490 2433 2490 1986 
C 2490 1731 2355 1047 2112 658 
C 1850 230 1498 64 1248 64 
z
" transform="scale(0.015625)"/>
      <path id="CMMI12-62" d="M 1478 4257 
C 1485 4283 1498 4321 1498 4352 
C 1498 4416 1434 4416 1421 4416 
C 1414 4416 1184 4393 1069 4377 
C 960 4377 864 4358 749 4358 
C 595 4345 550 4339 550 4224 
C 550 4160 614 4160 678 4160 
C 1005 4160 1005 4103 1005 4040 
C 1005 3996 954 3811 928 3696 
L 774 3085 
C 710 2831 346 1387 320 1272 
C 288 1114 288 1005 288 922 
C 288 274 653 -64 1069 -64 
C 1811 -64 2579 888 2579 1814 
C 2579 2401 2246 2816 1766 2816 
C 1434 2816 1133 2542 1011 2414 
L 1478 4257 
z
M 1075 64 
C 870 64 646 217 646 715 
C 646 926 666 1047 781 1494 
C 800 1577 902 1986 928 2069 
C 941 2120 1318 2689 1754 2689 
C 2035 2689 2163 2408 2163 2076 
C 2163 1769 1984 1047 1824 715 
C 1664 370 1370 64 1075 64 
z
" transform="scale(0.015625)"/>
      <path id="CMMI12-73" d="M 1459 1280 
C 1568 1261 1741 1223 1779 1216 
C 1862 1192 2150 1090 2150 783 
C 2150 586 1971 70 1229 70 
C 1094 70 614 70 486 436 
C 742 404 870 603 870 745 
C 870 880 781 950 653 950 
C 512 950 326 841 326 552 
C 326 173 710 -64 1222 -64 
C 2195 -64 2483 651 2483 984 
C 2483 1079 2483 1258 2278 1462 
C 2118 1616 1965 1648 1619 1718 
C 1446 1756 1171 1814 1171 2101 
C 1171 2229 1286 2689 1894 2689 
C 2163 2689 2426 2589 2490 2368 
C 2208 2368 2195 2125 2195 2119 
C 2195 1984 2317 1946 2374 1946 
C 2464 1946 2643 2015 2643 2281 
C 2643 2545 2400 2816 1901 2816 
C 1062 2816 838 2160 838 1899 
C 838 1414 1312 1312 1459 1280 
z
" transform="scale(0.015625)"/>
      <path id="CMMI12-65" d="M 1146 1479 
C 1318 1479 1754 1479 2061 1595 
C 2547 1783 2592 2158 2592 2274 
C 2592 2558 2349 2816 1926 2816 
C 1254 2816 288 2210 288 1073 
C 288 402 672 -64 1254 -64 
C 2125 -64 2675 609 2675 692 
C 2675 730 2637 762 2611 762 
C 2592 762 2586 756 2528 699 
C 2118 159 1510 64 1267 64 
C 902 64 710 350 710 822 
C 710 911 710 1071 806 1479 
L 1146 1479 
z
M 838 1600 
C 1114 2592 1722 2689 1926 2689 
C 2208 2689 2400 2522 2400 2277 
C 2400 1600 1376 1600 1107 1600 
L 838 1600 
z
" transform="scale(0.015625)"/>
      <path id="CMMI12-72" d="M 2490 2612 
C 2291 2574 2189 2433 2189 2293 
C 2189 2139 2310 2088 2400 2088 
C 2579 2088 2726 2242 2726 2433 
C 2726 2638 2528 2816 2208 2816 
C 1952 2816 1658 2701 1389 2312 
C 1344 2650 1088 2816 832 2816 
C 582 2816 454 2625 378 2484 
C 269 2254 173 1871 173 1839 
C 173 1814 198 1782 243 1782 
C 294 1782 301 1788 339 1935 
C 435 2318 557 2689 813 2689 
C 966 2689 1011 2580 1011 2395 
C 1011 2254 947 2005 902 1807 
L 723 1118 
C 698 996 627 709 595 594 
C 550 428 480 128 480 96 
C 480 6 550 -64 646 -64 
C 717 -64 838 -19 877 109 
C 896 160 1133 1124 1171 1271 
C 1203 1411 1242 1546 1274 1686 
C 1299 1775 1325 1878 1344 1961 
C 1363 2018 1536 2331 1696 2472 
C 1773 2542 1939 2689 2202 2689 
C 2304 2689 2406 2670 2490 2612 
z
" transform="scale(0.015625)"/>
      <path id="CMMI12-64" d="M 3219 4257 
C 3226 4282 3238 4320 3238 4352 
C 3238 4416 3174 4416 3162 4416 
C 3155 4416 2842 4388 2810 4380 
C 2701 4373 2605 4358 2490 4358 
C 2330 4345 2285 4339 2285 4224 
C 2285 4160 2336 4160 2426 4160 
C 2739 4160 2746 4103 2746 4040 
C 2746 4002 2733 3952 2726 3933 
L 2336 2395 
C 2266 2561 2093 2816 1760 2816 
C 1037 2816 256 1884 256 939 
C 256 307 627 -64 1062 -64 
C 1414 -64 1715 211 1894 422 
C 1958 45 2259 -64 2451 -64 
C 2643 -64 2797 51 2912 281 
C 3014 498 3104 888 3104 913 
C 3104 945 3078 971 3040 971 
C 2982 971 2976 939 2950 843 
C 2854 466 2733 64 2470 64 
C 2285 64 2272 229 2272 357 
C 2272 382 2272 515 2317 694 
L 3219 4257 
z
M 1926 760 
C 1894 651 1894 639 1805 517 
C 1664 338 1382 64 1082 64 
C 819 64 672 300 672 677 
C 672 1028 870 1743 992 2012 
C 1210 2459 1510 2689 1760 2689 
C 2182 2689 2266 2165 2266 2114 
C 2266 2108 2246 2024 2240 2012 
L 1926 760 
z
" transform="scale(0.015625)"/>
      <path id="CMMI12-63" d="M 2502 2431 
C 2381 2431 2323 2431 2234 2355 
C 2195 2323 2125 2227 2125 2125 
C 2125 1997 2221 1920 2342 1920 
C 2496 1920 2669 2044 2669 2292 
C 2669 2588 2374 2816 1933 2816 
C 1094 2816 256 1903 256 996 
C 256 441 602 -64 1254 -64 
C 2125 -64 2675 622 2675 706 
C 2675 744 2637 776 2611 776 
C 2592 776 2586 770 2528 713 
C 2118 162 1510 64 1267 64 
C 826 64 685 446 685 764 
C 685 988 794 1605 1024 2039 
C 1190 2338 1536 2682 1939 2682 
C 2022 2682 2374 2682 2502 2431 
z
" transform="scale(0.015625)"/>
      <path id="CMR17-25" d="M 4640 959 
C 4640 1698 4275 2240 3846 2240 
C 3411 2240 2970 1736 2970 959 
C 2970 183 3405 -320 3846 -320 
C 4275 -320 4640 215 4640 959 
z
M 3853 -218 
C 3686 -218 3270 -66 3270 959 
C 3270 1991 3686 2138 3853 2138 
C 4205 2138 4525 1634 4525 959 
C 4525 285 4205 -218 3853 -218 
z
M 4083 4577 
C 4128 4647 4134 4653 4134 4685 
C 4134 4761 4077 4800 4026 4800 
C 3962 4800 3936 4756 3891 4706 
C 3520 4190 3008 4134 2746 4134 
C 2106 4134 1715 4494 1594 4607 
C 1510 4682 1389 4800 1171 4800 
C 736 4800 294 4296 294 3519 
C 294 2743 730 2240 1171 2240 
C 1600 2240 1965 2778 1965 3527 
C 1965 3969 1830 4270 1811 4308 
C 2202 4064 2586 4032 2752 4032 
C 3162 4032 3456 4183 3616 4289 
L 3622 4283 
L 858 -84 
C 800 -174 800 -187 800 -206 
C 800 -276 858 -320 915 -320 
C 973 -320 992 -289 1037 -218 
L 4083 4577 
z
M 1178 2342 
C 1011 2342 595 2494 595 3519 
C 595 4551 1011 4698 1178 4698 
C 1530 4698 1850 4194 1850 3519 
C 1850 2845 1530 2342 1178 2342 
z
" transform="scale(0.015625)"/>
      <path id="CMMI12-6c" d="M 1626 4257 
C 1632 4282 1645 4320 1645 4352 
C 1645 4416 1581 4416 1568 4416 
C 1562 4416 1331 4393 1216 4377 
C 1107 4377 1011 4358 896 4358 
C 742 4345 698 4339 698 4224 
C 698 4160 762 4160 826 4160 
C 1152 4160 1152 4102 1152 4039 
C 1152 4014 1152 4001 1120 3887 
L 326 731 
C 307 661 294 610 294 509 
C 294 191 531 -64 858 -64 
C 1069 -64 1210 76 1312 274 
C 1421 483 1510 884 1510 909 
C 1510 941 1485 967 1446 967 
C 1389 967 1382 935 1357 840 
C 1242 401 1126 64 870 64 
C 678 64 678 267 678 357 
C 678 382 678 515 723 694 
L 1626 4257 
z
" transform="scale(0.015625)"/>
      <path id="CMMI12-61" d="M 1926 760 
C 1894 651 1894 639 1805 517 
C 1664 338 1382 64 1082 64 
C 819 64 672 300 672 677 
C 672 1028 870 1743 992 2012 
C 1210 2459 1510 2689 1760 2689 
C 2182 2689 2266 2165 2266 2114 
C 2266 2108 2246 2024 2240 2012 
L 1926 760 
z
M 2336 2395 
C 2266 2561 2093 2816 1760 2816 
C 1037 2816 256 1884 256 939 
C 256 307 627 -64 1062 -64 
C 1414 -64 1715 211 1894 422 
C 1958 45 2259 -64 2451 -64 
C 2643 -64 2797 51 2912 281 
C 3014 498 3104 888 3104 913 
C 3104 945 3078 971 3040 971 
C 2982 971 2976 939 2950 843 
C 2854 466 2733 64 2470 64 
C 2285 64 2272 230 2272 358 
C 2272 505 2291 575 2349 824 
C 2394 984 2426 1124 2477 1309 
C 2714 2267 2771 2497 2771 2535 
C 2771 2625 2701 2695 2605 2695 
C 2400 2695 2349 2472 2336 2395 
z
" transform="scale(0.015625)"/>
     </defs>
     <use xlink:href="#CMMI12-6e" transform="scale(0.996264)"/>
     <use xlink:href="#CMMI12-74" transform="translate(58.230047 0) scale(0.996264)"/>
     <use xlink:href="#CMR17-3d" transform="translate(121.130386 0) scale(0.996264)"/>
     <use xlink:href="#CMMI12-4c" transform="translate(220.519183 0) scale(0.996264)"/>
     <use xlink:href="#CMMI12-6f" transform="translate(286.890059 0) scale(0.996264)"/>
     <use xlink:href="#CMMI12-62" transform="translate(333.785368 0) scale(0.996264)"/>
     <use xlink:href="#CMMI12-73" transform="translate(375.261243 0) scale(0.996264)"/>
     <use xlink:href="#CMMI12-74" transform="translate(421.21129 0) scale(0.996264)"/>
     <use xlink:href="#CMMI12-65" transform="translate(456.43762 0) scale(0.996264)"/>
     <use xlink:href="#CMMI12-72" transform="translate(501.649621 0) scale(0.996264)"/>
     <use xlink:href="#CMMI12-64" transform="translate(579.549346 0) scale(0.996264)"/>
     <use xlink:href="#CMR17-3d" transform="translate(657.912452 0) scale(0.996264)"/>
     <use xlink:href="#CMR17-31" transform="translate(757.301249 0) scale(0.996264)"/>
     <use xlink:href="#CMR17-30" transform="translate(802.991726 0) scale(0.996264)"/>
     <use xlink:href="#CMR17-30" transform="translate(848.682203 0) scale(0.996264)"/>
     <use xlink:href="#CMR17-30" transform="translate(894.37268 0) scale(0.996264)"/>
     <use xlink:href="#CMMI12-6f" transform="translate(971.29227 0) scale(0.996264)"/>
     <use xlink:href="#CMMI12-63" transform="translate(1018.18758 0) scale(0.996264)"/>
     <use xlink:href="#CMR17-3d" transform="translate(1087.844822 0) scale(0.996264)"/>
     <use xlink:href="#CMR17-31" transform="translate(1187.233619 0) scale(0.996264)"/>
     <use xlink:href="#CMR17-25" transform="translate(1232.924096 0) scale(0.996264)"/>
     <use xlink:href="#CMMI12-6c" transform="translate(1341.072799 0) scale(0.996264)"/>
     <use xlink:href="#CMR17-3d" transform="translate(1399.995211 0) scale(0.996264)"/>
     <use xlink:href="#CMMI12-63" transform="translate(1499.384009 0) scale(0.996264)"/>
     <use xlink:href="#CMMI12-6f" transform="translate(1541.367242 0) scale(0.996264)"/>
     <use xlink:href="#CMMI12-73" transform="translate(1588.262552 0) scale(0.996264)"/>
     <use xlink:href="#CMMI12-74" transform="translate(1634.212599 0) scale(0.996264)"/>
     <use xlink:href="#CMMI12-61" transform="translate(1669.43893 0) scale(0.996264)"/>
     <use xlink:href="#CMMI12-6e" transform="translate(1720.646787 0) scale(0.996264)"/>
     <use xlink:href="#CMMI12-74" transform="translate(1778.876835 0) scale(0.996264)"/>
    </g>
   </g>
  </g>
  <g id="axes_2">
   <g id="matplotlib.axis_3">
    <g id="ytick_7">
     <g id="line2d_22">
      <defs>
       <path id="m39131df999" d="M 0 0 
L 3.5 0 
" style="stroke: #000000; stroke-width: 0.8"/>
      </defs>
      <g>
       <use xlink:href="#m39131df999" x="648" y="320.4" style="stroke: #000000; stroke-width: 0.8"/>
      </g>
     </g>
     <g id="text_17">
      <!-- $\mathdefault{0}$ -->
      <g transform="translate(655 325.415904) scale(0.145 -0.145)">
       <use xlink:href="#CMR17-30" transform="scale(0.996264)"/>
      </g>
     </g>
    </g>
    <g id="ytick_8">
     <g id="line2d_23">
      <g>
       <use xlink:href="#m39131df999" x="648" y="264.987706" style="stroke: #000000; stroke-width: 0.8"/>
      </g>
     </g>
     <g id="text_18">
      <!-- $\mathdefault{20}$ -->
      <g transform="translate(655 270.00361) scale(0.145 -0.145)">
       <use xlink:href="#CMR17-32" transform="scale(0.996264)"/>
       <use xlink:href="#CMR17-30" transform="translate(45.690477 0) scale(0.996264)"/>
      </g>
     </g>
    </g>
    <g id="ytick_9">
     <g id="line2d_24">
      <g>
       <use xlink:href="#m39131df999" x="648" y="209.575412" style="stroke: #000000; stroke-width: 0.8"/>
      </g>
     </g>
     <g id="text_19">
      <!-- $\mathdefault{40}$ -->
      <g transform="translate(655 214.591316) scale(0.145 -0.145)">
       <use xlink:href="#CMR17-34" transform="scale(0.996264)"/>
       <use xlink:href="#CMR17-30" transform="translate(45.690477 0) scale(0.996264)"/>
      </g>
     </g>
    </g>
    <g id="ytick_10">
     <g id="line2d_25">
      <g>
       <use xlink:href="#m39131df999" x="648" y="154.163118" style="stroke: #000000; stroke-width: 0.8"/>
      </g>
     </g>
     <g id="text_20">
      <!-- $\mathdefault{60}$ -->
      <g transform="translate(655 159.179023) scale(0.145 -0.145)">
       <use xlink:href="#CMR17-36" transform="scale(0.996264)"/>
       <use xlink:href="#CMR17-30" transform="translate(45.690477 0) scale(0.996264)"/>
      </g>
     </g>
    </g>
    <g id="ytick_11">
     <g id="line2d_26">
      <g>
       <use xlink:href="#m39131df999" x="648" y="98.750825" style="stroke: #000000; stroke-width: 0.8"/>
      </g>
     </g>
     <g id="text_21">
      <!-- $\mathdefault{80}$ -->
      <g transform="translate(655 103.766729) scale(0.145 -0.145)">
       <use xlink:href="#CMR17-38" transform="scale(0.996264)"/>
       <use xlink:href="#CMR17-30" transform="translate(45.690477 0) scale(0.996264)"/>
      </g>
     </g>
    </g>
    <g id="ytick_12">
     <g id="line2d_27">
      <g>
       <use xlink:href="#m39131df999" x="648" y="43.338531" style="stroke: #000000; stroke-width: 0.8"/>
      </g>
     </g>
     <g id="text_22">
      <!-- $\mathdefault{100}$ -->
      <g transform="translate(655 48.354435) scale(0.145 -0.145)">
       <use xlink:href="#CMR17-31" transform="scale(0.996264)"/>
       <use xlink:href="#CMR17-30" transform="translate(45.690477 0) scale(0.996264)"/>
       <use xlink:href="#CMR17-30" transform="translate(91.380954 0) scale(0.996264)"/>
      </g>
     </g>
    </g>
    <g id="text_23">
     <!-- CPU load in \% -->
     <g transform="translate(690.248875 226.102524) rotate(-90) scale(0.145 -0.145)">
      <defs>
       <path id="CMSS17-43" d="M 3501 714 
C 3072 427 2874 344 2355 344 
C 1459 344 934 1303 934 2179 
C 934 3112 1472 4032 2381 4032 
C 2790 4032 3059 3918 3386 3715 
L 3475 4217 
C 3168 4370 2778 4440 2387 4440 
C 1158 4440 397 3316 397 2179 
C 397 927 1299 -64 2323 -64 
C 2874 -64 3066 -19 3539 280 
L 3501 714 
z
" transform="scale(0.015625)"/>
       <path id="CMSS17-50" d="M 2106 1856 
C 2874 1856 3501 2453 3501 3158 
C 3501 3850 2899 4453 2067 4453 
L 570 4453 
L 570 0 
L 1107 0 
L 1107 1856 
L 2106 1856 
z
M 1926 4096 
C 2669 4096 2995 3627 2995 3157 
C 2995 2720 2694 2226 1926 2226 
L 1094 2226 
L 1094 4096 
L 1926 4096 
z
" transform="scale(0.015625)"/>
       <path id="CMSS17-55" d="M 3552 4384 
L 3066 4384 
L 3066 1449 
C 3066 604 2547 229 2074 229 
C 1587 229 1101 623 1101 1443 
L 1101 4384 
L 563 4384 
L 563 1454 
C 563 539 1274 -128 2067 -128 
C 2861 -128 3552 539 3552 1454 
L 3552 4384 
z
" transform="scale(0.015625)"/>
       <path id="CMSS17-6c" d="M 947 4416 
L 474 4416 
L 474 0 
L 947 0 
L 947 4416 
z
" transform="scale(0.015625)"/>
       <path id="CMSS17-61" d="M 2406 1791 
C 2406 2392 1978 2808 1402 2808 
C 1120 2808 813 2757 461 2553 
L 499 2135 
C 659 2248 934 2432 1395 2432 
C 1722 2432 1920 2180 1920 1782 
L 1920 1536 
C 896 1536 256 1238 256 726 
C 256 461 416 -64 947 -64 
C 1043 -64 1562 -64 1933 217 
L 1933 -19 
L 2406 -19 
L 2406 1791 
z
M 1920 816 
C 1920 701 1920 548 1728 434 
C 1562 325 1350 325 1261 325 
C 941 325 723 511 723 744 
C 723 1211 1722 1211 1920 1211 
L 1920 816 
z
" transform="scale(0.015625)"/>
       <path id="CMSS17-64" d="M 2611 4416 
L 2138 4416 
L 2138 2438 
C 1939 2603 1613 2756 1254 2756 
C 672 2756 211 2131 211 1347 
C 211 562 666 -64 1235 -64 
C 1677 -64 1971 172 2125 306 
L 2125 -13 
L 2611 -13 
L 2611 4416 
z
M 2125 836 
C 2125 747 2125 653 1926 482 
C 1798 375 1645 325 1498 325 
C 1152 325 698 576 698 1340 
C 698 2134 1210 2368 1562 2368 
C 1798 2368 1990 2254 2125 2065 
L 2125 836 
z
" transform="scale(0.015625)"/>
       <path id="CMSS17-6e" d="M 2618 1877 
C 2618 2283 2522 2816 1798 2816 
C 1389 2816 1120 2606 941 2389 
L 941 2758 
L 474 2758 
L 474 0 
L 960 0 
L 960 1559 
C 960 1964 1114 2428 1549 2428 
C 2112 2428 2131 2048 2131 1829 
L 2131 0 
L 2618 0 
L 2618 1877 
z
" transform="scale(0.015625)"/>
       <path id="CMSS17-25" d="M 3923 4583 
C 3962 4647 3962 4679 3962 4685 
C 3962 4755 3904 4800 3853 4800 
C 3782 4800 3750 4749 3718 4685 
L 1101 -104 
C 1088 -129 1062 -167 1062 -206 
C 1062 -276 1120 -320 1178 -320 
C 1235 -320 1248 -295 1299 -206 
L 3923 4583 
z
M 4678 959 
C 4678 1698 4282 2240 3846 2240 
C 3418 2240 3008 1711 3008 959 
C 3008 208 3418 -320 3846 -320 
C 4288 -320 4678 221 4678 959 
z
M 3846 68 
C 3712 68 3494 189 3494 959 
C 3494 1724 3712 1851 3846 1851 
C 4083 1851 4211 1386 4211 959 
C 4211 533 4083 68 3846 68 
z
M 2003 3519 
C 2003 4258 1606 4800 1171 4800 
C 742 4800 333 4271 333 3519 
C 333 2768 742 2240 1171 2240 
C 1613 2240 2003 2781 2003 3519 
z
M 1171 2628 
C 1037 2628 819 2749 819 3519 
C 819 4284 1037 4411 1171 4411 
C 1408 4411 1536 3946 1536 3519 
C 1536 3093 1408 2628 1171 2628 
z
" transform="scale(0.015625)"/>
      </defs>
      <use xlink:href="#CMSS17-43" transform="scale(0.996264)"/>
      <use xlink:href="#CMSS17-50" transform="translate(59.855772 0) scale(0.996264)"/>
      <use xlink:href="#CMSS17-55" transform="translate(119.591358 0) scale(0.996264)"/>
      <use xlink:href="#CMSS17-6c" transform="translate(214.960211 0) scale(0.996264)"/>
      <use xlink:href="#CMSS17-6f" transform="translate(237.140934 0) scale(0.996264)"/>
      <use xlink:href="#CMSS17-61" transform="translate(283.984557 0) scale(0.996264)"/>
      <use xlink:href="#CMSS17-64" transform="translate(328.906478 0) scale(0.996264)"/>
      <use xlink:href="#CMSS17-69" transform="translate(408.340534 0) scale(0.996264)"/>
      <use xlink:href="#CMSS17-6e" transform="translate(430.521257 0) scale(0.996264)"/>
      <use xlink:href="#CMSS17-25" transform="translate(509.955313 0) scale(0.996264)"/>
     </g>
    </g>
   </g>
   <g id="line2d_28">
    <path d="M 115.363636 112.603898 
L 622.636364 112.603898 
L 622.636364 112.603898 
" clip-path="url(#p666cec4bc7)" style="fill: none; stroke-dasharray: 5.55,2.4; stroke-dashoffset: 0; stroke: #140e36; stroke-width: 1.5"/>
   </g>
   <g id="patch_6">
    <path d="M 90 320.4 
L 90 43.2 
" style="fill: none; stroke: #000000; stroke-width: 0.8; stroke-linejoin: miter; stroke-linecap: square"/>
   </g>
   <g id="patch_7">
    <path d="M 648 320.4 
L 648 43.2 
" style="fill: none; stroke: #000000; stroke-width: 0.8; stroke-linejoin: miter; stroke-linecap: square"/>
   </g>
   <g id="patch_8">
    <path d="M 90 320.4 
L 648 320.4 
" style="fill: none; stroke: #000000; stroke-width: 0.8; stroke-linejoin: miter; stroke-linecap: square"/>
   </g>
   <g id="patch_9">
    <path d="M 90 43.2 
L 648 43.2 
" style="fill: none; stroke: #000000; stroke-width: 0.8; stroke-linejoin: miter; stroke-linecap: square"/>
   </g>
   <g id="legend_1">
    <g id="patch_10">
     <path d="M 481.7533 313.15 
L 637.85 313.15 
Q 640.75 313.15 640.75 310.25 
L 640.75 246.612516 
Q 640.75 243.712516 637.85 243.712516 
L 481.7533 243.712516 
Q 478.8533 243.712516 478.8533 246.612516 
L 478.8533 310.25 
Q 478.8533 313.15 481.7533 313.15 
z
" style="fill: #ffffff; opacity: 0.7; stroke: #cccccc; stroke-linejoin: miter"/>
    </g>
    <g id="line2d_29">
     <path d="M 484.6533 255.271887 
L 499.1533 255.271887 
L 513.6533 255.271887 
" style="fill: none; stroke: #482475; stroke-width: 2.5; stroke-linecap: square"/>
    </g>
    <g id="text_24">
     <!-- QoS [static] -->
     <g transform="translate(525.2533 260.346887) scale(0.145 -0.145)">
      <defs>
       <path id="CMSS17-5b" d="M 1613 -1600 
L 1613 -1212 
L 1062 -1212 
L 1062 4352 
L 1613 4352 
L 1613 4741 
L 595 4741 
L 595 -1600 
L 1613 -1600 
z
" transform="scale(0.015625)"/>
       <path id="CMSS17-63" d="M 2464 2541 
C 2464 2585 2170 2714 2093 2739 
C 1882 2816 1613 2816 1542 2816 
C 710 2816 211 2093 211 1363 
C 211 595 768 -64 1517 -64 
C 1946 -64 2253 76 2502 242 
L 2464 664 
C 2189 453 1869 337 1523 337 
C 1024 337 698 774 698 1369 
C 698 1831 909 2414 1549 2414 
C 1901 2414 2099 2343 2394 2145 
L 2464 2541 
z
" transform="scale(0.015625)"/>
       <path id="CMSS17-5d" d="M 1146 4741 
L 128 4741 
L 128 4352 
L 678 4352 
L 678 -1212 
L 128 -1212 
L 128 -1600 
L 1146 -1600 
L 1146 4741 
z
" transform="scale(0.015625)"/>
      </defs>
      <use xlink:href="#CMSS17-51" transform="scale(0.996264)"/>
      <use xlink:href="#CMSS17-6f" transform="translate(69.024255 0) scale(0.996264)"/>
      <use xlink:href="#CMSS17-53" transform="translate(115.867879 0) scale(0.996264)"/>
      <use xlink:href="#CMSS17-5b" transform="translate(199.145508 0) scale(0.996264)"/>
      <use xlink:href="#CMSS17-73" transform="translate(226.330946 0) scale(0.996264)"/>
      <use xlink:href="#CMSS17-74" transform="translate(262.244488 0) scale(0.996264)"/>
      <use xlink:href="#CMSS17-61" transform="translate(296.076055 0) scale(0.996264)"/>
      <use xlink:href="#CMSS17-74" transform="translate(340.997976 0) scale(0.996264)"/>
      <use xlink:href="#CMSS17-69" transform="translate(374.829542 0) scale(0.996264)"/>
      <use xlink:href="#CMSS17-63" transform="translate(397.010265 0) scale(0.996264)"/>
      <use xlink:href="#CMSS17-5d" transform="translate(438.649088 0) scale(0.996264)"/>
     </g>
    </g>
    <g id="line2d_30">
     <path d="M 484.6533 276.967715 
L 499.1533 276.967715 
L 513.6533 276.967715 
" style="fill: none; stroke: #bddf26; stroke-width: 2.5; stroke-linecap: square"/>
    </g>
    <g id="text_25">
     <!-- QoS [dynamic] -->
     <g transform="translate(525.2533 282.042715) scale(0.145 -0.145)">
      <defs>
       <path id="CMSS17-79" d="M 2675 2752 
L 2176 2752 
C 1632 1294 1446 702 1434 383 
L 1427 383 
C 1408 696 1126 1460 902 2007 
L 602 2752 
L 83 2752 
L 1216 13 
C 1146 -178 1043 -465 1011 -529 
C 870 -885 774 -885 672 -885 
C 646 -885 442 -885 211 -809 
L 250 -1229 
C 410 -1261 570 -1280 685 -1280 
C 845 -1280 1165 -1280 1459 -497 
L 2675 2752 
z
" transform="scale(0.015625)"/>
      </defs>
      <use xlink:href="#CMSS17-51" transform="scale(0.996264)"/>
      <use xlink:href="#CMSS17-6f" transform="translate(69.024255 0) scale(0.996264)"/>
      <use xlink:href="#CMSS17-53" transform="translate(115.867879 0) scale(0.996264)"/>
      <use xlink:href="#CMSS17-5b" transform="translate(199.145508 0) scale(0.996264)"/>
      <use xlink:href="#CMSS17-64" transform="translate(226.330946 0) scale(0.996264)"/>
      <use xlink:href="#CMSS17-79" transform="translate(274.53589 0) scale(0.996264)"/>
      <use xlink:href="#CMSS17-6e" transform="translate(317.536031 0) scale(0.996264)"/>
      <use xlink:href="#CMSS17-61" transform="translate(365.740974 0) scale(0.996264)"/>
      <use xlink:href="#CMSS17-6d" transform="translate(410.662895 0) scale(0.996264)"/>
      <use xlink:href="#CMSS17-69" transform="translate(484.892149 0) scale(0.996264)"/>
      <use xlink:href="#CMSS17-63" transform="translate(507.072872 0) scale(0.996264)"/>
      <use xlink:href="#CMSS17-5d" transform="translate(548.711695 0) scale(0.996264)"/>
     </g>
    </g>
    <g id="line2d_31">
     <path d="M 484.6533 298.663543 
L 499.1533 298.663543 
L 513.6533 298.663543 
" style="fill: none; stroke-dasharray: 5.55,2.4; stroke-dashoffset: 0; stroke: #140e36; stroke-width: 1.5"/>
    </g>
    <g id="text_26">
     <!-- Load driver (right) -->
     <g transform="translate(525.2533 303.738543) scale(0.145 -0.145)">
      <defs>
       <path id="CMSS17-4c" d="M 1670 414 
C 1594 414 1517 414 1440 414 
L 1101 414 
L 1101 4416 
L 563 4416 
L 563 0 
L 3002 0 
L 3002 414 
L 1670 414 
z
" transform="scale(0.015625)"/>
       <path id="CMSS17-72" d="M 954 1363 
C 954 1965 1395 2368 1958 2368 
L 1958 2789 
C 1549 2789 1165 2585 934 2253 
L 934 2758 
L 480 2758 
L 480 0 
L 954 0 
L 954 1363 
z
" transform="scale(0.015625)"/>
       <path id="CMSS17-76" d="M 2675 2752 
L 2176 2752 
L 1747 1556 
C 1613 1165 1421 627 1389 352 
L 1382 352 
C 1370 468 1318 634 1286 749 
C 1248 890 1197 1056 1158 1172 
L 595 2752 
L 83 2752 
L 1094 0 
L 1664 0 
L 2675 2752 
z
" transform="scale(0.015625)"/>
       <path id="CMSS17-67" d="M 2848 2808 
C 2483 2808 2170 2738 1914 2617 
C 1702 2777 1485 2808 1338 2808 
C 781 2808 358 2349 358 1814 
C 358 1468 550 1207 563 1195 
C 448 1035 384 863 384 672 
C 384 448 474 289 544 200 
C 211 -3 166 -314 166 -435 
C 166 -898 749 -1280 1498 -1280 
C 2253 -1280 2835 -898 2835 -428 
C 2835 448 1856 448 1587 448 
L 1069 448 
C 973 448 717 448 717 791 
C 717 921 774 1004 781 1010 
C 877 940 1075 832 1338 832 
C 1869 832 2310 1278 2310 1827 
C 2310 2132 2170 2355 2112 2432 
L 2131 2432 
C 2150 2432 2419 2432 2515 2432 
C 2720 2432 2739 2429 2918 2419 
L 2848 2808 
z
M 1338 1182 
C 1120 1182 813 1315 813 1823 
C 813 2375 1165 2464 1331 2464 
C 1549 2464 1856 2331 1856 1823 
C 1856 1271 1504 1182 1338 1182 
z
M 1581 -10 
C 1734 -10 2381 -10 2381 -442 
C 2381 -714 1984 -929 1504 -929 
C 1018 -929 621 -720 621 -435 
C 621 -403 621 -10 1062 -10 
L 1581 -10 
z
" transform="scale(0.015625)"/>
       <path id="CMSS17-68" d="M 2618 1891 
C 2618 2292 2522 2820 1798 2820 
C 1395 2820 1133 2623 947 2407 
L 947 4448 
L 474 4448 
L 474 32 
L 960 32 
L 960 1573 
C 960 1973 1114 2432 1549 2432 
C 2112 2432 2131 2056 2131 1839 
L 2131 32 
L 2618 32 
L 2618 1891 
z
" transform="scale(0.015625)"/>
      </defs>
      <use xlink:href="#CMSS17-4c" transform="scale(0.996264)"/>
      <use xlink:href="#CMSS17-6f" transform="translate(50.687105 0) scale(0.996264)"/>
      <use xlink:href="#CMSS17-61" transform="translate(97.530729 0) scale(0.996264)"/>
      <use xlink:href="#CMSS17-64" transform="translate(142.452649 0) scale(0.996264)"/>
      <use xlink:href="#CMSS17-64" transform="translate(221.886705 0) scale(0.996264)"/>
      <use xlink:href="#CMSS17-72" transform="translate(270.091649 0) scale(0.996264)"/>
      <use xlink:href="#CMSS17-69" transform="translate(302.001421 0) scale(0.996264)"/>
      <use xlink:href="#CMSS17-76" transform="translate(324.182144 0) scale(0.996264)"/>
      <use xlink:href="#CMSS17-65" transform="translate(367.182286 0) scale(0.996264)"/>
      <use xlink:href="#CMSS17-72" transform="translate(408.821108 0) scale(0.996264)"/>
      <use xlink:href="#CMSS17-28" transform="translate(471.959993 0) scale(0.996264)"/>
      <use xlink:href="#CMSS17-72" transform="translate(508.393907 0) scale(0.996264)"/>
      <use xlink:href="#CMSS17-69" transform="translate(540.30368 0) scale(0.996264)"/>
      <use xlink:href="#CMSS17-67" transform="translate(562.484403 0) scale(0.996264)"/>
      <use xlink:href="#CMSS17-68" transform="translate(609.328026 0) scale(0.996264)"/>
      <use xlink:href="#CMSS17-74" transform="translate(657.53297 0) scale(0.996264)"/>
      <use xlink:href="#CMSS17-29" transform="translate(691.364536 0) scale(0.996264)"/>
     </g>
    </g>
   </g>
  </g>
 </g>
 <defs>
  <clipPath id="p666cec4bc7">
   <rect x="90" y="43.2" width="558" height="277.2"/>
  </clipPath>
 </defs>
</svg>
