<?xml version="1.0" encoding="utf-8" standalone="no"?>
<!DOCTYPE svg PUBLIC "-//W3C//DTD SVG 1.1//EN"
  "http://www.w3.org/Graphics/SVG/1.1/DTD/svg11.dtd">
<svg xmlns:xlink="http://www.w3.org/1999/xlink" width="576pt" height="360pt" viewBox="0 0 576 360" xmlns="http://www.w3.org/2000/svg" version="1.1">
 <metadata>
  <rdf:RDF xmlns:dc="http://purl.org/dc/elements/1.1/" xmlns:cc="http://creativecommons.org/ns#" xmlns:rdf="http://www.w3.org/1999/02/22-rdf-syntax-ns#">
   <cc:Work>
    <dc:type rdf:resource="http://purl.org/dc/dcmitype/StillImage"/>
    <dc:date>2023-12-15T16:06:03.895072</dc:date>
    <dc:format>image/svg+xml</dc:format>
    <dc:creator>
     <cc:Agent>
      <dc:title>Matplotlib v3.8.0, https://matplotlib.org/</dc:title>
     </cc:Agent>
    </dc:creator>
   </cc:Work>
  </rdf:RDF>
 </metadata>
 <defs>
  <style type="text/css">*{stroke-linejoin: round; stroke-linecap: butt}</style>
 </defs>
 <g id="figure_1">
  <g id="patch_1">
   <path d="M 0 360 
L 576 360 
L 576 0 
L 0 0 
z
" style="fill: #ffffff"/>
  </g>
  <g id="axes_1">
   <g id="patch_2">
    <path d="M 72 320.4 
L 518.4 320.4 
L 518.4 43.2 
L 72 43.2 
z
" style="fill: #ffffff"/>
   </g>
   <g id="PolyCollection_1">
    <defs>
     <path id="m26d6d7e0ca" d="M 92.290909 -126.239974 
L 92.290909 -132.868634 
L 93.421322 -132.868634 
L 94.551735 -132.868634 
L 95.682147 -132.868634 
L 96.81256 -132.868634 
L 97.942973 -132.868634 
L 99.073386 -132.868634 
L 100.203798 -132.868634 
L 101.334211 -132.868634 
L 102.464624 -132.868634 
L 103.595037 -132.868634 
L 104.725449 -132.868634 
L 105.855862 -132.868634 
L 106.986275 -132.868634 
L 108.116688 -132.868634 
L 109.247101 -132.868634 
L 110.377513 -132.868634 
L 111.507926 -132.868634 
L 112.638339 -132.868634 
L 113.768752 -132.868634 
L 114.899164 -132.868634 
L 116.029577 -132.868634 
L 117.15999 -132.868634 
L 118.290403 -132.868634 
L 119.420815 -132.868634 
L 120.551228 -124.638764 
L 121.681641 -124.638764 
L 122.812054 -124.638764 
L 123.942466 -124.638764 
L 125.072879 -124.638764 
L 126.203292 -123.372259 
L 127.333705 -123.372259 
L 128.464117 -123.372259 
L 129.59453 -123.372259 
L 130.724943 -123.372259 
L 131.855356 -123.372259 
L 132.985769 -120.209167 
L 134.116181 -120.209167 
L 135.246594 -120.209167 
L 136.377007 -120.209167 
L 137.50742 -120.209167 
L 138.637832 -116.453514 
L 139.768245 -116.453514 
L 140.898658 -116.453514 
L 142.029071 -116.453514 
L 143.159483 -116.453514 
L 144.289896 -116.453514 
L 145.420309 -114.726761 
L 146.550722 -114.726761 
L 147.681134 -114.726761 
L 148.811547 -114.726761 
L 149.94196 -114.726761 
L 151.072373 -114.6638 
L 152.202786 -114.6638 
L 153.333198 -114.6638 
L 154.463611 -114.6638 
L 155.594024 -114.6638 
L 156.724437 -114.6638 
L 157.854849 -114.6638 
L 158.985262 -114.6638 
L 160.115675 -114.6638 
L 161.246088 -114.6638 
L 162.3765 -114.6638 
L 163.506913 -114.632383 
L 164.637326 -114.632383 
L 165.767739 -114.632383 
L 166.898151 -114.632383 
L 168.028564 -114.632383 
L 169.158977 -114.635382 
L 170.28939 -114.635382 
L 171.419802 -114.635382 
L 172.550215 -114.635382 
L 173.680628 -114.635382 
L 174.811041 -114.635382 
L 175.941454 -114.571769 
L 177.071866 -114.571769 
L 178.202279 -114.571769 
L 179.332692 -114.571769 
L 180.463105 -114.571769 
L 181.593517 -107.949034 
L 182.72393 -107.949034 
L 183.854343 -107.949034 
L 184.984756 -107.949034 
L 186.115168 -107.949034 
L 187.245581 -107.949034 
L 188.375994 -106.64031 
L 189.506407 -106.64031 
L 190.636819 -106.64031 
L 191.767232 -106.64031 
L 192.897645 -106.64031 
L 194.028058 -104.290897 
L 195.15847 -104.290897 
L 196.288883 -104.290897 
L 197.419296 -104.290897 
L 198.549709 -104.290897 
L 199.680122 -104.290897 
L 200.810534 -95.850148 
L 201.940947 -95.850148 
L 203.07136 -95.850148 
L 204.201773 -95.850148 
L 205.332185 -95.850148 
L 206.462598 -91.822806 
L 207.593011 -91.822806 
L 208.723424 -91.822806 
L 209.853836 -91.822806 
L 210.984249 -91.822806 
L 212.114662 -91.822806 
L 213.245075 -91.470428 
L 214.375487 -91.470428 
L 215.5059 -91.470428 
L 216.636313 -91.470428 
L 217.766726 -91.470428 
L 218.897139 -91.220089 
L 220.027551 -91.220089 
L 221.157964 -91.220089 
L 222.288377 -91.220089 
L 223.41879 -91.220089 
L 224.549202 -91.197052 
L 225.679615 -91.197052 
L 226.810028 -91.197052 
L 227.940441 -91.197052 
L 229.070853 -91.197052 
L 230.201266 -91.197052 
L 231.331679 -91.079246 
L 232.462092 -91.079246 
L 233.592504 -91.079246 
L 234.722917 -91.079246 
L 235.85333 -91.079246 
L 236.983743 -91.066698 
L 238.114155 -91.066698 
L 239.244568 -91.066698 
L 240.374981 -91.066698 
L 241.505394 -91.066698 
L 242.635807 -91.066698 
L 243.766219 -88.459963 
L 244.896632 -88.459963 
L 246.027045 -88.459963 
L 247.157458 -88.459963 
L 248.28787 -88.459963 
L 249.418283 -83.457385 
L 250.548696 -83.457385 
L 251.679109 -83.457385 
L 252.809521 -83.457385 
L 253.939934 -83.457385 
L 255.070347 -83.457385 
L 256.20076 -82.29016 
L 257.331172 -82.29016 
L 258.461585 -82.29016 
L 259.591998 -82.29016 
L 260.722411 -82.29016 
L 261.852823 -76.169238 
L 262.983236 -76.169238 
L 264.113649 -76.169238 
L 265.244062 -76.169238 
L 266.374475 -76.169238 
L 267.504887 -76.169238 
L 268.6353 -71.19164 
L 269.765713 -71.19164 
L 270.896126 -71.19164 
L 272.026538 -71.19164 
L 273.156951 -71.19164 
L 274.287364 -69.454931 
L 275.417777 -69.454931 
L 276.548189 -69.454931 
L 277.678602 -69.454931 
L 278.809015 -69.454931 
L 279.939428 -68.636512 
L 281.06984 -68.636512 
L 282.200253 -68.636512 
L 283.330666 -68.636512 
L 284.461079 -68.636512 
L 285.591492 -68.636512 
L 286.721904 -68.528651 
L 287.852317 -68.528651 
L 288.98273 -68.528651 
L 290.113143 -68.528651 
L 291.243555 -68.528651 
L 292.373968 -68.499558 
L 293.504381 -68.499558 
L 294.634794 -68.499558 
L 295.765206 -68.499558 
L 296.895619 -68.499558 
L 298.026032 -68.499558 
L 299.156445 -68.324305 
L 300.286857 -68.324305 
L 301.41727 -68.324305 
L 302.547683 -68.324305 
L 303.678096 -68.324305 
L 304.808508 -68.357792 
L 305.938921 -68.357792 
L 307.069334 -68.357792 
L 308.199747 -68.357792 
L 309.33016 -68.357792 
L 310.460572 -68.357792 
L 311.590985 -87.352056 
L 312.721398 -87.352056 
L 313.851811 -87.352056 
L 314.982223 -87.352056 
L 316.112636 -87.352056 
L 317.243049 -90.922399 
L 318.373462 -90.922399 
L 319.503874 -90.922399 
L 320.634287 -90.922399 
L 321.7647 -90.922399 
L 322.895113 -91.111706 
L 324.025525 -91.111706 
L 325.155938 -91.111706 
L 326.286351 -91.111706 
L 327.416764 -91.111706 
L 328.547177 -91.111706 
L 329.677589 -91.050686 
L 330.808002 -91.050686 
L 331.938415 -91.050686 
L 333.068828 -91.050686 
L 334.19924 -91.050686 
L 335.329653 -91.061428 
L 336.460066 -91.061428 
L 337.590479 -91.061428 
L 338.720891 -91.061428 
L 339.851304 -91.061428 
L 340.981717 -91.061428 
L 342.11213 -91.027379 
L 343.242542 -91.027379 
L 344.372955 -91.027379 
L 345.503368 -91.027379 
L 346.633781 -91.027379 
L 347.764193 -91.061428 
L 348.894606 -91.061428 
L 350.025019 -91.061428 
L 351.155432 -91.061428 
L 352.285845 -91.061428 
L 353.416257 -91.061428 
L 354.54667 -91.061428 
L 355.677083 -91.061428 
L 356.807496 -91.061428 
L 357.937908 -91.061428 
L 359.068321 -91.061428 
L 360.198734 -91.035377 
L 361.329147 -91.035377 
L 362.459559 -91.035377 
L 363.589972 -91.035377 
L 364.720385 -91.035377 
L 365.850798 -91.035377 
L 366.98121 -91.061428 
L 368.111623 -91.061428 
L 369.242036 -91.061428 
L 370.372449 -91.061428 
L 371.502861 -91.061428 
L 372.633274 -103.900444 
L 373.763687 -103.900444 
L 374.8941 -103.900444 
L 376.024513 -103.900444 
L 377.154925 -103.900444 
L 378.285338 -112.662614 
L 379.415751 -112.662614 
L 380.546164 -112.662614 
L 381.676576 -112.662614 
L 382.806989 -112.662614 
L 383.937402 -112.662614 
L 385.067815 -112.869845 
L 386.198227 -112.869845 
L 387.32864 -112.869845 
L 388.459053 -112.869845 
L 389.589466 -112.869845 
L 390.719878 -112.940606 
L 391.850291 -112.940606 
L 392.980704 -112.940606 
L 394.111117 -112.940606 
L 395.24153 -112.940606 
L 396.371942 -112.940606 
L 397.502355 -112.888262 
L 398.632768 -112.888262 
L 399.763181 -112.888262 
L 400.893593 -112.888262 
L 402.024006 -112.888262 
L 403.154419 -112.933522 
L 404.284832 -112.933522 
L 405.415244 -112.933522 
L 406.545657 -112.933522 
L 407.67607 -112.933522 
L 408.806483 -112.933522 
L 409.936895 -112.888262 
L 411.067308 -112.888262 
L 412.197721 -112.888262 
L 413.328134 -112.888262 
L 414.458546 -112.888262 
L 415.588959 -112.803913 
L 416.719372 -112.803913 
L 417.849785 -112.803913 
L 418.980198 -112.803913 
L 420.11061 -112.803913 
L 421.241023 -112.803913 
L 422.371436 -112.856791 
L 423.501849 -112.856791 
L 424.632261 -112.856791 
L 425.762674 -112.856791 
L 426.893087 -112.856791 
L 428.0235 -112.888262 
L 429.153912 -112.888262 
L 430.284325 -112.888262 
L 431.414738 -112.888262 
L 432.545151 -112.888262 
L 433.675563 -115.147591 
L 434.805976 -115.147591 
L 435.936389 -115.147591 
L 437.066802 -115.147591 
L 438.197214 -115.147591 
L 439.327627 -115.147591 
L 440.45804 -128.635967 
L 441.588453 -128.635967 
L 442.718866 -128.635967 
L 443.849278 -128.635967 
L 444.979691 -128.635967 
L 446.110104 -128.385389 
L 447.240517 -128.385389 
L 448.370929 -128.385389 
L 449.501342 -128.385389 
L 450.631755 -128.385389 
L 451.762168 -128.385389 
L 452.89258 -128.423851 
L 454.022993 -128.423851 
L 455.153406 -128.423851 
L 456.283819 -128.423851 
L 457.414231 -128.423851 
L 458.544644 -128.459375 
L 459.675057 -128.459375 
L 460.80547 -128.459375 
L 461.935883 -128.459375 
L 463.066295 -128.459375 
L 464.196708 -128.459375 
L 465.327121 -128.459375 
L 466.457534 -128.459375 
L 467.587946 -128.459375 
L 468.718359 -128.459375 
L 469.848772 -128.459375 
L 470.979185 -128.459375 
L 472.109597 -128.459375 
L 473.24001 -128.459375 
L 474.370423 -128.459375 
L 475.500836 -128.459375 
L 476.631248 -128.459375 
L 477.761661 -128.459375 
L 478.892074 -128.459375 
L 480.022487 -128.459375 
L 481.152899 -128.459375 
L 482.283312 -128.459375 
L 483.413725 -128.459375 
L 484.544138 -128.459375 
L 485.674551 -128.459375 
L 486.804963 -128.459375 
L 487.935376 -128.459375 
L 489.065789 -128.706421 
L 490.196202 -128.706421 
L 491.326614 -128.706421 
L 492.457027 -128.706421 
L 493.58744 -128.706421 
L 494.717853 -128.706421 
L 495.848265 -128.584275 
L 496.978678 -128.584275 
L 498.109091 -128.584275 
L 498.109091 -122.632845 
L 498.109091 -122.632845 
L 496.978678 -122.632845 
L 495.848265 -122.632845 
L 494.717853 -122.621579 
L 493.58744 -122.621579 
L 492.457027 -122.621579 
L 491.326614 -122.621579 
L 490.196202 -122.621579 
L 489.065789 -122.621579 
L 487.935376 -122.646337 
L 486.804963 -122.646337 
L 485.674551 -122.646337 
L 484.544138 -122.646337 
L 483.413725 -122.646337 
L 482.283312 -122.646337 
L 481.152899 -122.646337 
L 480.022487 -122.646337 
L 478.892074 -122.646337 
L 477.761661 -122.646337 
L 476.631248 -122.646337 
L 475.500836 -122.646337 
L 474.370423 -122.646337 
L 473.24001 -122.646337 
L 472.109597 -122.646337 
L 470.979185 -122.646337 
L 469.848772 -122.646337 
L 468.718359 -122.646337 
L 467.587946 -122.646337 
L 466.457534 -122.646337 
L 465.327121 -122.646337 
L 464.196708 -122.646337 
L 463.066295 -122.646337 
L 461.935883 -122.646337 
L 460.80547 -122.646337 
L 459.675057 -122.646337 
L 458.544644 -122.646337 
L 457.414231 -122.626421 
L 456.283819 -122.626421 
L 455.153406 -122.626421 
L 454.022993 -122.626421 
L 452.89258 -122.626421 
L 451.762168 -122.608915 
L 450.631755 -122.608915 
L 449.501342 -122.608915 
L 448.370929 -122.608915 
L 447.240517 -122.608915 
L 446.110104 -122.608915 
L 444.979691 -121.636033 
L 443.849278 -121.636033 
L 442.718866 -121.636033 
L 441.588453 -121.636033 
L 440.45804 -121.636033 
L 439.327627 -105.167273 
L 438.197214 -105.167273 
L 437.066802 -105.167273 
L 435.936389 -105.167273 
L 434.805976 -105.167273 
L 433.675563 -105.167273 
L 432.545151 -103.091194 
L 431.414738 -103.091194 
L 430.284325 -103.091194 
L 429.153912 -103.091194 
L 428.0235 -103.091194 
L 426.893087 -103.066697 
L 425.762674 -103.066697 
L 424.632261 -103.066697 
L 423.501849 -103.066697 
L 422.371436 -103.066697 
L 421.241023 -103.008695 
L 420.11061 -103.008695 
L 418.980198 -103.008695 
L 417.849785 -103.008695 
L 416.719372 -103.008695 
L 415.588959 -103.008695 
L 414.458546 -103.091194 
L 413.328134 -103.091194 
L 412.197721 -103.091194 
L 411.067308 -103.091194 
L 409.936895 -103.091194 
L 408.806483 -103.101374 
L 407.67607 -103.101374 
L 406.545657 -103.101374 
L 405.415244 -103.101374 
L 404.284832 -103.101374 
L 403.154419 -103.101374 
L 402.024006 -103.091194 
L 400.893593 -103.091194 
L 399.763181 -103.091194 
L 398.632768 -103.091194 
L 397.502355 -103.091194 
L 396.371942 -103.09429 
L 395.24153 -103.09429 
L 394.111117 -103.09429 
L 392.980704 -103.09429 
L 391.850291 -103.09429 
L 390.719878 -103.09429 
L 389.589466 -102.887851 
L 388.459053 -102.887851 
L 387.32864 -102.887851 
L 386.198227 -102.887851 
L 385.067815 -102.887851 
L 383.937402 -102.816298 
L 382.806989 -102.816298 
L 381.676576 -102.816298 
L 380.546164 -102.816298 
L 379.415751 -102.816298 
L 378.285338 -102.816298 
L 377.154925 -94.794932 
L 376.024513 -94.794932 
L 374.8941 -94.794932 
L 373.763687 -94.794932 
L 372.633274 -94.794932 
L 371.502861 -84.735116 
L 370.372449 -84.735116 
L 369.242036 -84.735116 
L 368.111623 -84.735116 
L 366.98121 -84.735116 
L 365.850798 -84.650287 
L 364.720385 -84.650287 
L 363.589972 -84.650287 
L 362.459559 -84.650287 
L 361.329147 -84.650287 
L 360.198734 -84.650287 
L 359.068321 -84.735116 
L 357.937908 -84.735116 
L 356.807496 -84.735116 
L 355.677083 -84.735116 
L 354.54667 -84.735116 
L 353.416257 -84.735116 
L 352.285845 -84.735116 
L 351.155432 -84.735116 
L 350.025019 -84.735116 
L 348.894606 -84.735116 
L 347.764193 -84.735116 
L 346.633781 -84.713197 
L 345.503368 -84.713197 
L 344.372955 -84.713197 
L 343.242542 -84.713197 
L 342.11213 -84.713197 
L 340.981717 -84.735116 
L 339.851304 -84.735116 
L 338.720891 -84.735116 
L 337.590479 -84.735116 
L 336.460066 -84.735116 
L 335.329653 -84.735116 
L 334.19924 -84.801298 
L 333.068828 -84.801298 
L 331.938415 -84.801298 
L 330.808002 -84.801298 
L 329.677589 -84.801298 
L 328.547177 -84.684838 
L 327.416764 -84.684838 
L 326.286351 -84.684838 
L 325.155938 -84.684838 
L 324.025525 -84.684838 
L 322.895113 -84.684838 
L 321.7647 -84.651857 
L 320.634287 -84.651857 
L 319.503874 -84.651857 
L 318.373462 -84.651857 
L 317.243049 -84.651857 
L 316.112636 -81.385656 
L 314.982223 -81.385656 
L 313.851811 -81.385656 
L 312.721398 -81.385656 
L 311.590985 -81.385656 
L 310.460572 -64.586748 
L 309.33016 -64.586748 
L 308.199747 -64.586748 
L 307.069334 -64.586748 
L 305.938921 -64.586748 
L 304.808508 -64.586748 
L 303.678096 -64.620393 
L 302.547683 -64.620393 
L 301.41727 -64.620393 
L 300.286857 -64.620393 
L 299.156445 -64.620393 
L 298.026032 -64.722973 
L 296.895619 -64.722973 
L 295.765206 -64.722973 
L 294.634794 -64.722973 
L 293.504381 -64.722973 
L 292.373968 -64.722973 
L 291.243555 -64.861045 
L 290.113143 -64.861045 
L 288.98273 -64.861045 
L 287.852317 -64.861045 
L 286.721904 -64.861045 
L 285.591492 -64.919452 
L 284.461079 -64.919452 
L 283.330666 -64.919452 
L 282.200253 -64.919452 
L 281.06984 -64.919452 
L 279.939428 -64.919452 
L 278.809015 -65.601978 
L 277.678602 -65.601978 
L 276.548189 -65.601978 
L 275.417777 -65.601978 
L 274.287364 -65.601978 
L 273.156951 -66.977882 
L 272.026538 -66.977882 
L 270.896126 -66.977882 
L 269.765713 -66.977882 
L 268.6353 -66.977882 
L 267.504887 -71.170218 
L 266.374475 -71.170218 
L 265.244062 -71.170218 
L 264.113649 -71.170218 
L 262.983236 -71.170218 
L 261.852823 -71.170218 
L 260.722411 -75.331568 
L 259.591998 -75.331568 
L 258.461585 -75.331568 
L 257.331172 -75.331568 
L 256.20076 -75.331568 
L 255.070347 -76.110023 
L 253.939934 -76.110023 
L 252.809521 -76.110023 
L 251.679109 -76.110023 
L 250.548696 -76.110023 
L 249.418283 -76.110023 
L 248.28787 -82.945205 
L 247.157458 -82.945205 
L 246.027045 -82.945205 
L 244.896632 -82.945205 
L 243.766219 -82.945205 
L 242.635807 -85.564086 
L 241.505394 -85.564086 
L 240.374981 -85.564086 
L 239.244568 -85.564086 
L 238.114155 -85.564086 
L 236.983743 -85.564086 
L 235.85333 -85.662418 
L 234.722917 -85.662418 
L 233.592504 -85.662418 
L 232.462092 -85.662418 
L 231.331679 -85.662418 
L 230.201266 -85.710932 
L 229.070853 -85.710932 
L 227.940441 -85.710932 
L 226.810028 -85.710932 
L 225.679615 -85.710932 
L 224.549202 -85.710932 
L 223.41879 -85.688423 
L 222.288377 -85.688423 
L 221.157964 -85.688423 
L 220.027551 -85.688423 
L 218.897139 -85.688423 
L 217.766726 -85.881604 
L 216.636313 -85.881604 
L 215.5059 -85.881604 
L 214.375487 -85.881604 
L 213.245075 -85.881604 
L 212.114662 -86.474346 
L 210.984249 -86.474346 
L 209.853836 -86.474346 
L 208.723424 -86.474346 
L 207.593011 -86.474346 
L 206.462598 -86.474346 
L 205.332185 -89.894972 
L 204.201773 -89.894972 
L 203.07136 -89.894972 
L 201.940947 -89.894972 
L 200.810534 -89.894972 
L 199.680122 -96.293135 
L 198.549709 -96.293135 
L 197.419296 -96.293135 
L 196.288883 -96.293135 
L 195.15847 -96.293135 
L 194.028058 -96.293135 
L 192.897645 -97.889994 
L 191.767232 -97.889994 
L 190.636819 -97.889994 
L 189.506407 -97.889994 
L 188.375994 -97.889994 
L 187.245581 -99.082406 
L 186.115168 -99.082406 
L 184.984756 -99.082406 
L 183.854343 -99.082406 
L 182.72393 -99.082406 
L 181.593517 -99.082406 
L 180.463105 -104.688151 
L 179.332692 -104.688151 
L 178.202279 -104.688151 
L 177.071866 -104.688151 
L 175.941454 -104.688151 
L 174.811041 -104.735418 
L 173.680628 -104.735418 
L 172.550215 -104.735418 
L 171.419802 -104.735418 
L 170.28939 -104.735418 
L 169.158977 -104.735418 
L 168.028564 -104.793857 
L 166.898151 -104.793857 
L 165.767739 -104.793857 
L 164.637326 -104.793857 
L 163.506913 -104.793857 
L 162.3765 -104.985256 
L 161.246088 -104.985256 
L 160.115675 -104.985256 
L 158.985262 -104.985256 
L 157.854849 -104.985256 
L 156.724437 -104.985256 
L 155.594024 -104.985256 
L 154.463611 -104.985256 
L 153.333198 -104.985256 
L 152.202786 -104.985256 
L 151.072373 -104.985256 
L 149.94196 -105.254935 
L 148.811547 -105.254935 
L 147.681134 -105.254935 
L 146.550722 -105.254935 
L 145.420309 -105.254935 
L 144.289896 -106.473894 
L 143.159483 -106.473894 
L 142.029071 -106.473894 
L 140.898658 -106.473894 
L 139.768245 -106.473894 
L 138.637832 -106.473894 
L 137.50742 -111.165713 
L 136.377007 -111.165713 
L 135.246594 -111.165713 
L 134.116181 -111.165713 
L 132.985769 -111.165713 
L 131.855356 -113.505437 
L 130.724943 -113.505437 
L 129.59453 -113.505437 
L 128.464117 -113.505437 
L 127.333705 -113.505437 
L 126.203292 -113.505437 
L 125.072879 -114.850948 
L 123.942466 -114.850948 
L 122.812054 -114.850948 
L 121.681641 -114.850948 
L 120.551228 -114.850948 
L 119.420815 -126.239974 
L 118.290403 -126.239974 
L 117.15999 -126.239974 
L 116.029577 -126.239974 
L 114.899164 -126.239974 
L 113.768752 -126.239974 
L 112.638339 -126.239974 
L 111.507926 -126.239974 
L 110.377513 -126.239974 
L 109.247101 -126.239974 
L 108.116688 -126.239974 
L 106.986275 -126.239974 
L 105.855862 -126.239974 
L 104.725449 -126.239974 
L 103.595037 -126.239974 
L 102.464624 -126.239974 
L 101.334211 -126.239974 
L 100.203798 -126.239974 
L 99.073386 -126.239974 
L 97.942973 -126.239974 
L 96.81256 -126.239974 
L 95.682147 -126.239974 
L 94.551735 -126.239974 
L 93.421322 -126.239974 
L 92.290909 -126.239974 
z
" style="stroke: #482475; stroke-opacity: 0.2"/>
    </defs>
    <g clip-path="url(#p1287f532a7)">
     <use xlink:href="#m26d6d7e0ca" x="0" y="360" style="fill: #482475; fill-opacity: 0.2; stroke: #482475; stroke-opacity: 0.2"/>
    </g>
   </g>
   <g id="PolyCollection_2">
    <defs>
     <path id="m9a0abc99e6" d="M 92.290909 -139.666222 
L 92.290909 -141.953138 
L 93.421322 -141.953138 
L 94.551735 -141.953138 
L 95.682147 -142.532411 
L 96.81256 -142.532411 
L 97.942973 -142.532411 
L 99.073386 -142.532411 
L 100.203798 -142.532411 
L 101.334211 -142.532411 
L 102.464624 -142.642171 
L 103.595037 -142.642171 
L 104.725449 -142.642171 
L 105.855862 -142.642171 
L 106.986275 -142.642171 
L 108.116688 -142.686886 
L 109.247101 -142.686886 
L 110.377513 -142.686886 
L 111.507926 -142.686886 
L 112.638339 -142.686886 
L 113.768752 -142.686886 
L 114.899164 -142.59863 
L 116.029577 -142.59863 
L 117.15999 -142.59863 
L 118.290403 -142.59863 
L 119.420815 -142.59863 
L 120.551228 -132.473448 
L 121.681641 -132.473448 
L 122.812054 -132.473448 
L 123.942466 -132.473448 
L 125.072879 -132.473448 
L 126.203292 -132.223649 
L 127.333705 -132.223649 
L 128.464117 -132.223649 
L 129.59453 -132.223649 
L 130.724943 -132.223649 
L 131.855356 -132.223649 
L 132.985769 -128.625129 
L 134.116181 -128.625129 
L 135.246594 -128.625129 
L 136.377007 -128.625129 
L 137.50742 -128.625129 
L 138.637832 -121.552765 
L 139.768245 -121.552765 
L 140.898658 -121.552765 
L 142.029071 -121.552765 
L 143.159483 -121.552765 
L 144.289896 -121.552765 
L 145.420309 -119.534314 
L 146.550722 -119.534314 
L 147.681134 -119.534314 
L 148.811547 -119.534314 
L 149.94196 -119.534314 
L 151.072373 -119.312172 
L 152.202786 -119.312172 
L 153.333198 -119.312172 
L 154.463611 -119.312172 
L 155.594024 -119.312172 
L 156.724437 -119.312172 
L 157.854849 -119.312172 
L 158.985262 -119.312172 
L 160.115675 -119.312172 
L 161.246088 -119.312172 
L 162.3765 -119.312172 
L 163.506913 -119.344352 
L 164.637326 -119.344352 
L 165.767739 -119.344352 
L 166.898151 -119.344352 
L 168.028564 -119.344352 
L 169.158977 -119.344352 
L 170.28939 -119.344352 
L 171.419802 -119.344352 
L 172.550215 -119.344352 
L 173.680628 -119.344352 
L 174.811041 -119.344352 
L 175.941454 -119.344352 
L 177.071866 -119.344352 
L 178.202279 -119.344352 
L 179.332692 -119.344352 
L 180.463105 -119.344352 
L 181.593517 -111.731727 
L 182.72393 -111.731727 
L 183.854343 -111.731727 
L 184.984756 -111.731727 
L 186.115168 -111.731727 
L 187.245581 -111.731727 
L 188.375994 -110.503262 
L 189.506407 -110.503262 
L 190.636819 -110.503262 
L 191.767232 -110.503262 
L 192.897645 -110.503262 
L 194.028058 -108.861702 
L 195.15847 -108.861702 
L 196.288883 -108.861702 
L 197.419296 -108.861702 
L 198.549709 -108.861702 
L 199.680122 -108.861702 
L 200.810534 -99.795093 
L 201.940947 -99.795093 
L 203.07136 -99.795093 
L 204.201773 -99.795093 
L 205.332185 -99.795093 
L 206.462598 -95.039909 
L 207.593011 -95.039909 
L 208.723424 -95.039909 
L 209.853836 -95.039909 
L 210.984249 -95.039909 
L 212.114662 -95.039909 
L 213.245075 -93.820615 
L 214.375487 -93.820615 
L 215.5059 -93.820615 
L 216.636313 -93.820615 
L 217.766726 -93.820615 
L 218.897139 -93.675142 
L 220.027551 -93.675142 
L 221.157964 -93.675142 
L 222.288377 -93.675142 
L 223.41879 -93.675142 
L 224.549202 -93.530025 
L 225.679615 -93.530025 
L 226.810028 -93.530025 
L 227.940441 -93.530025 
L 229.070853 -93.530025 
L 230.201266 -93.530025 
L 231.331679 -93.449379 
L 232.462092 -93.449379 
L 233.592504 -93.449379 
L 234.722917 -93.449379 
L 235.85333 -93.449379 
L 236.983743 -93.404848 
L 238.114155 -93.404848 
L 239.244568 -93.404848 
L 240.374981 -93.404848 
L 241.505394 -93.404848 
L 242.635807 -93.404848 
L 243.766219 -91.884165 
L 244.896632 -91.884165 
L 246.027045 -91.884165 
L 247.157458 -91.884165 
L 248.28787 -91.884165 
L 249.418283 -86.484349 
L 250.548696 -86.484349 
L 251.679109 -86.484349 
L 252.809521 -86.484349 
L 253.939934 -86.484349 
L 255.070347 -86.484349 
L 256.20076 -85.826659 
L 257.331172 -85.826659 
L 258.461585 -85.826659 
L 259.591998 -85.826659 
L 260.722411 -85.826659 
L 261.852823 -78.344561 
L 262.983236 -78.344561 
L 264.113649 -78.344561 
L 265.244062 -78.344561 
L 266.374475 -78.344561 
L 267.504887 -78.344561 
L 268.6353 -71.281849 
L 269.765713 -71.281849 
L 270.896126 -71.281849 
L 272.026538 -71.281849 
L 273.156951 -71.281849 
L 274.287364 -69.547224 
L 275.417777 -69.547224 
L 276.548189 -69.547224 
L 277.678602 -69.547224 
L 278.809015 -69.547224 
L 279.939428 -68.762504 
L 281.06984 -68.762504 
L 282.200253 -68.762504 
L 283.330666 -68.762504 
L 284.461079 -68.762504 
L 285.591492 -68.762504 
L 286.721904 -68.498706 
L 287.852317 -68.498706 
L 288.98273 -68.498706 
L 290.113143 -68.498706 
L 291.243555 -68.498706 
L 292.373968 -68.525945 
L 293.504381 -68.525945 
L 294.634794 -68.525945 
L 295.765206 -68.525945 
L 296.895619 -68.525945 
L 298.026032 -68.525945 
L 299.156445 -68.501224 
L 300.286857 -68.501224 
L 301.41727 -68.501224 
L 302.547683 -68.501224 
L 303.678096 -68.501224 
L 304.808508 -68.524896 
L 305.938921 -68.524896 
L 307.069334 -68.524896 
L 308.199747 -68.524896 
L 309.33016 -68.524896 
L 310.460572 -68.524896 
L 311.590985 -90.443761 
L 312.721398 -90.443761 
L 313.851811 -90.443761 
L 314.982223 -90.443761 
L 316.112636 -90.443761 
L 317.243049 -93.346439 
L 318.373462 -93.346439 
L 319.503874 -93.346439 
L 320.634287 -93.346439 
L 321.7647 -93.346439 
L 322.895113 -93.411314 
L 324.025525 -93.411314 
L 325.155938 -93.411314 
L 326.286351 -93.411314 
L 327.416764 -93.411314 
L 328.547177 -93.411314 
L 329.677589 -93.411314 
L 330.808002 -93.411314 
L 331.938415 -93.411314 
L 333.068828 -93.411314 
L 334.19924 -93.411314 
L 335.329653 -93.399239 
L 336.460066 -93.399239 
L 337.590479 -93.399239 
L 338.720891 -93.399239 
L 339.851304 -93.399239 
L 340.981717 -93.399239 
L 342.11213 -93.352747 
L 343.242542 -93.352747 
L 344.372955 -93.352747 
L 345.503368 -93.352747 
L 346.633781 -93.352747 
L 347.764193 -93.399239 
L 348.894606 -93.399239 
L 350.025019 -93.399239 
L 351.155432 -93.399239 
L 352.285845 -93.399239 
L 353.416257 -93.399239 
L 354.54667 -93.399239 
L 355.677083 -93.399239 
L 356.807496 -93.399239 
L 357.937908 -93.399239 
L 359.068321 -93.399239 
L 360.198734 -93.299243 
L 361.329147 -93.299243 
L 362.459559 -93.299243 
L 363.589972 -93.299243 
L 364.720385 -93.299243 
L 365.850798 -93.299243 
L 366.98121 -93.399239 
L 368.111623 -93.399239 
L 369.242036 -93.399239 
L 370.372449 -93.399239 
L 371.502861 -93.399239 
L 372.633274 -108.53107 
L 373.763687 -108.53107 
L 374.8941 -108.53107 
L 376.024513 -108.53107 
L 377.154925 -108.53107 
L 378.285338 -119.384105 
L 379.415751 -119.384105 
L 380.546164 -119.384105 
L 381.676576 -119.384105 
L 382.806989 -119.384105 
L 383.937402 -119.384105 
L 385.067815 -119.344352 
L 386.198227 -119.344352 
L 387.32864 -119.344352 
L 388.459053 -119.344352 
L 389.589466 -119.344352 
L 390.719878 -119.382673 
L 391.850291 -119.382673 
L 392.980704 -119.382673 
L 394.111117 -119.382673 
L 395.24153 -119.382673 
L 396.371942 -119.382673 
L 397.502355 -119.287799 
L 398.632768 -119.287799 
L 399.763181 -119.287799 
L 400.893593 -119.287799 
L 402.024006 -119.287799 
L 403.154419 -119.399671 
L 404.284832 -119.399671 
L 405.415244 -119.399671 
L 406.545657 -119.399671 
L 407.67607 -119.399671 
L 408.806483 -119.399671 
L 409.936895 -119.305356 
L 411.067308 -119.305356 
L 412.197721 -119.305356 
L 413.328134 -119.305356 
L 414.458546 -119.305356 
L 415.588959 -119.328373 
L 416.719372 -119.328373 
L 417.849785 -119.328373 
L 418.980198 -119.328373 
L 420.11061 -119.328373 
L 421.241023 -119.328373 
L 422.371436 -119.344352 
L 423.501849 -119.344352 
L 424.632261 -119.344352 
L 425.762674 -119.344352 
L 426.893087 -119.344352 
L 428.0235 -119.344352 
L 429.153912 -119.344352 
L 430.284325 -119.344352 
L 431.414738 -119.344352 
L 432.545151 -119.344352 
L 433.675563 -122.382144 
L 434.805976 -122.382144 
L 435.936389 -122.382144 
L 437.066802 -122.382144 
L 438.197214 -122.382144 
L 439.327627 -122.382144 
L 440.45804 -142.473224 
L 441.588453 -142.473224 
L 442.718866 -142.473224 
L 443.849278 -142.473224 
L 444.979691 -142.473224 
L 446.110104 -142.701396 
L 447.240517 -142.701396 
L 448.370929 -142.701396 
L 449.501342 -142.701396 
L 450.631755 -142.701396 
L 451.762168 -142.701396 
L 452.89258 -142.691914 
L 454.022993 -142.691914 
L 455.153406 -142.691914 
L 456.283819 -142.691914 
L 457.414231 -142.691914 
L 458.544644 -142.774897 
L 459.675057 -142.774897 
L 460.80547 -142.774897 
L 461.935883 -142.774897 
L 463.066295 -142.774897 
L 464.196708 -142.774897 
L 465.327121 -142.691914 
L 466.457534 -142.691914 
L 467.587946 -142.691914 
L 468.718359 -142.691914 
L 469.848772 -142.691914 
L 470.979185 -142.737363 
L 472.109597 -142.737363 
L 473.24001 -142.737363 
L 474.370423 -142.737363 
L 475.500836 -142.737363 
L 476.631248 -142.737363 
L 477.761661 -142.737363 
L 478.892074 -142.737363 
L 480.022487 -142.737363 
L 481.152899 -142.737363 
L 482.283312 -142.737363 
L 483.413725 -142.737363 
L 484.544138 -142.737363 
L 485.674551 -142.737363 
L 486.804963 -142.737363 
L 487.935376 -142.737363 
L 489.065789 -142.701396 
L 490.196202 -142.701396 
L 491.326614 -142.701396 
L 492.457027 -142.701396 
L 493.58744 -142.701396 
L 494.717853 -142.701396 
L 495.848265 -142.6698 
L 496.978678 -142.6698 
L 498.109091 -142.6698 
L 498.109091 -139.671336 
L 498.109091 -139.671336 
L 496.978678 -139.671336 
L 495.848265 -139.671336 
L 494.717853 -139.751676 
L 493.58744 -139.751676 
L 492.457027 -139.751676 
L 491.326614 -139.751676 
L 490.196202 -139.751676 
L 489.065789 -139.751676 
L 487.935376 -139.771149 
L 486.804963 -139.771149 
L 485.674551 -139.771149 
L 484.544138 -139.771149 
L 483.413725 -139.771149 
L 482.283312 -139.771149 
L 481.152899 -139.771149 
L 480.022487 -139.771149 
L 478.892074 -139.771149 
L 477.761661 -139.771149 
L 476.631248 -139.771149 
L 475.500836 -139.771149 
L 474.370423 -139.771149 
L 473.24001 -139.771149 
L 472.109597 -139.771149 
L 470.979185 -139.771149 
L 469.848772 -139.761158 
L 468.718359 -139.761158 
L 467.587946 -139.761158 
L 466.457534 -139.761158 
L 465.327121 -139.761158 
L 464.196708 -139.677647 
L 463.066295 -139.677647 
L 461.935883 -139.677647 
L 460.80547 -139.677647 
L 459.675057 -139.677647 
L 458.544644 -139.677647 
L 457.414231 -139.761158 
L 456.283819 -139.761158 
L 455.153406 -139.761158 
L 454.022993 -139.761158 
L 452.89258 -139.761158 
L 451.762168 -139.751676 
L 450.631755 -139.751676 
L 449.501342 -139.751676 
L 448.370929 -139.751676 
L 447.240517 -139.751676 
L 446.110104 -139.751676 
L 444.979691 -139.645096 
L 443.849278 -139.645096 
L 442.718866 -139.645096 
L 441.588453 -139.645096 
L 440.45804 -139.645096 
L 439.327627 -118.608144 
L 438.197214 -118.608144 
L 437.066802 -118.608144 
L 435.936389 -118.608144 
L 434.805976 -118.608144 
L 433.675563 -118.608144 
L 432.545151 -116.922448 
L 431.414738 -116.922448 
L 430.284325 -116.922448 
L 429.153912 -116.922448 
L 428.0235 -116.922448 
L 426.893087 -116.922448 
L 425.762674 -116.922448 
L 424.632261 -116.922448 
L 423.501849 -116.922448 
L 422.371436 -116.922448 
L 421.241023 -116.882987 
L 420.11061 -116.882987 
L 418.980198 -116.882987 
L 417.849785 -116.882987 
L 416.719372 -116.882987 
L 415.588959 -116.882987 
L 414.458546 -116.906004 
L 413.328134 -116.906004 
L 412.197721 -116.906004 
L 411.067308 -116.906004 
L 409.936895 -116.906004 
L 408.806483 -116.922569 
L 407.67607 -116.922569 
L 406.545657 -116.922569 
L 405.415244 -116.922569 
L 404.284832 -116.922569 
L 403.154419 -116.922569 
L 402.024006 -116.923561 
L 400.893593 -116.923561 
L 399.763181 -116.923561 
L 398.632768 -116.923561 
L 397.502355 -116.923561 
L 396.371942 -116.939567 
L 395.24153 -116.939567 
L 394.111117 -116.939567 
L 392.980704 -116.939567 
L 391.850291 -116.939567 
L 390.719878 -116.939567 
L 389.589466 -116.922448 
L 388.459053 -116.922448 
L 387.32864 -116.922448 
L 386.198227 -116.922448 
L 385.067815 -116.922448 
L 383.937402 -116.827255 
L 382.806989 -116.827255 
L 381.676576 -116.827255 
L 380.546164 -116.827255 
L 379.415751 -116.827255 
L 378.285338 -116.827255 
L 377.154925 -103.55861 
L 376.024513 -103.55861 
L 374.8941 -103.55861 
L 373.763687 -103.55861 
L 372.633274 -103.55861 
L 371.502861 -91.289881 
L 370.372449 -91.289881 
L 369.242036 -91.289881 
L 368.111623 -91.289881 
L 366.98121 -91.289881 
L 365.850798 -91.278997 
L 364.720385 -91.278997 
L 363.589972 -91.278997 
L 362.459559 -91.278997 
L 361.329147 -91.278997 
L 360.198734 -91.278997 
L 359.068321 -91.289881 
L 357.937908 -91.289881 
L 356.807496 -91.289881 
L 355.677083 -91.289881 
L 354.54667 -91.289881 
L 353.416257 -91.289881 
L 352.285845 -91.289881 
L 351.155432 -91.289881 
L 350.025019 -91.289881 
L 348.894606 -91.289881 
L 347.764193 -91.289881 
L 346.633781 -91.224965 
L 345.503368 -91.224965 
L 344.372955 -91.224965 
L 343.242542 -91.224965 
L 342.11213 -91.224965 
L 340.981717 -91.289881 
L 339.851304 -91.289881 
L 338.720891 -91.289881 
L 337.590479 -91.289881 
L 336.460066 -91.289881 
L 335.329653 -91.289881 
L 334.19924 -91.333246 
L 333.068828 -91.333246 
L 331.938415 -91.333246 
L 330.808002 -91.333246 
L 329.677589 -91.333246 
L 328.547177 -91.333246 
L 327.416764 -91.333246 
L 326.286351 -91.333246 
L 325.155938 -91.333246 
L 324.025525 -91.333246 
L 322.895113 -91.333246 
L 321.7647 -91.231801 
L 320.634287 -91.231801 
L 319.503874 -91.231801 
L 318.373462 -91.231801 
L 317.243049 -91.231801 
L 316.112636 -87.242495 
L 314.982223 -87.242495 
L 313.851811 -87.242495 
L 312.721398 -87.242495 
L 311.590985 -87.242495 
L 310.460572 -67.310496 
L 309.33016 -67.310496 
L 308.199747 -67.310496 
L 307.069334 -67.310496 
L 305.938921 -67.310496 
L 304.808508 -67.310496 
L 303.678096 -67.33364 
L 302.547683 -67.33364 
L 301.41727 -67.33364 
L 300.286857 -67.33364 
L 299.156445 -67.33364 
L 298.026032 -67.475239 
L 296.895619 -67.475239 
L 295.765206 -67.475239 
L 294.634794 -67.475239 
L 293.504381 -67.475239 
L 292.373968 -67.475239 
L 291.243555 -67.502478 
L 290.113143 -67.502478 
L 288.98273 -67.502478 
L 287.852317 -67.502478 
L 286.721904 -67.502478 
L 285.591492 -67.794664 
L 284.461079 -67.794664 
L 283.330666 -67.794664 
L 282.200253 -67.794664 
L 281.06984 -67.794664 
L 279.939428 -67.794664 
L 278.809015 -67.843656 
L 277.678602 -67.843656 
L 276.548189 -67.843656 
L 275.417777 -67.843656 
L 274.287364 -67.843656 
L 273.156951 -69.054215 
L 272.026538 -69.054215 
L 270.896126 -69.054215 
L 269.765713 -69.054215 
L 268.6353 -69.054215 
L 267.504887 -72.830815 
L 266.374475 -72.830815 
L 265.244062 -72.830815 
L 264.113649 -72.830815 
L 262.983236 -72.830815 
L 261.852823 -72.830815 
L 260.722411 -77.464733 
L 259.591998 -77.464733 
L 258.461585 -77.464733 
L 257.331172 -77.464733 
L 256.20076 -77.464733 
L 255.070347 -78.085331 
L 253.939934 -78.085331 
L 252.809521 -78.085331 
L 251.679109 -78.085331 
L 250.548696 -78.085331 
L 249.418283 -78.085331 
L 248.28787 -86.246667 
L 247.157458 -86.246667 
L 246.027045 -86.246667 
L 244.896632 -86.246667 
L 243.766219 -86.246667 
L 242.635807 -91.34024 
L 241.505394 -91.34024 
L 240.374981 -91.34024 
L 239.244568 -91.34024 
L 238.114155 -91.34024 
L 236.983743 -91.34024 
L 235.85333 -91.350621 
L 234.722917 -91.350621 
L 233.592504 -91.350621 
L 232.462092 -91.350621 
L 231.331679 -91.350621 
L 230.201266 -91.381383 
L 229.070853 -91.381383 
L 227.940441 -91.381383 
L 226.810028 -91.381383 
L 225.679615 -91.381383 
L 224.549202 -91.381383 
L 223.41879 -91.347146 
L 222.288377 -91.347146 
L 221.157964 -91.347146 
L 220.027551 -91.347146 
L 218.897139 -91.347146 
L 217.766726 -91.979417 
L 216.636313 -91.979417 
L 215.5059 -91.979417 
L 214.375487 -91.979417 
L 213.245075 -91.979417 
L 212.114662 -92.873179 
L 210.984249 -92.873179 
L 209.853836 -92.873179 
L 208.723424 -92.873179 
L 207.593011 -92.873179 
L 206.462598 -92.873179 
L 205.332185 -96.454059 
L 204.201773 -96.454059 
L 203.07136 -96.454059 
L 201.940947 -96.454059 
L 200.810534 -96.454059 
L 199.680122 -102.504618 
L 198.549709 -102.504618 
L 197.419296 -102.504618 
L 196.288883 -102.504618 
L 195.15847 -102.504618 
L 194.028058 -102.504618 
L 192.897645 -104.253874 
L 191.767232 -104.253874 
L 190.636819 -104.253874 
L 189.506407 -104.253874 
L 188.375994 -104.253874 
L 187.245581 -105.081441 
L 186.115168 -105.081441 
L 184.984756 -105.081441 
L 183.854343 -105.081441 
L 182.72393 -105.081441 
L 181.593517 -105.081441 
L 180.463105 -116.922448 
L 179.332692 -116.922448 
L 178.202279 -116.922448 
L 177.071866 -116.922448 
L 175.941454 -116.922448 
L 174.811041 -116.922448 
L 173.680628 -116.922448 
L 172.550215 -116.922448 
L 171.419802 -116.922448 
L 170.28939 -116.922448 
L 169.158977 -116.922448 
L 168.028564 -116.922448 
L 166.898151 -116.922448 
L 165.767739 -116.922448 
L 164.637326 -116.922448 
L 163.506913 -116.922448 
L 162.3765 -117.010068 
L 161.246088 -117.010068 
L 160.115675 -117.010068 
L 158.985262 -117.010068 
L 157.854849 -117.010068 
L 156.724437 -117.010068 
L 155.594024 -117.010068 
L 154.463611 -117.010068 
L 153.333198 -117.010068 
L 152.202786 -117.010068 
L 151.072373 -117.010068 
L 149.94196 -117.34391 
L 148.811547 -117.34391 
L 147.681134 -117.34391 
L 146.550722 -117.34391 
L 145.420309 -117.34391 
L 144.289896 -118.660307 
L 143.159483 -118.660307 
L 142.029071 -118.660307 
L 140.898658 -118.660307 
L 139.768245 -118.660307 
L 138.637832 -118.660307 
L 137.50742 -123.203415 
L 136.377007 -123.203415 
L 135.246594 -123.203415 
L 134.116181 -123.203415 
L 132.985769 -123.203415 
L 131.855356 -125.774047 
L 130.724943 -125.774047 
L 129.59453 -125.774047 
L 128.464117 -125.774047 
L 127.333705 -125.774047 
L 126.203292 -125.774047 
L 125.072879 -125.857416 
L 123.942466 -125.857416 
L 122.812054 -125.857416 
L 121.681641 -125.857416 
L 120.551228 -125.857416 
L 119.420815 -139.743034 
L 118.290403 -139.743034 
L 117.15999 -139.743034 
L 116.029577 -139.743034 
L 114.899164 -139.743034 
L 113.768752 -139.765658 
L 112.638339 -139.765658 
L 111.507926 -139.765658 
L 110.377513 -139.765658 
L 109.247101 -139.765658 
L 108.116688 -139.765658 
L 106.986275 -139.700021 
L 105.855862 -139.700021 
L 104.725449 -139.700021 
L 103.595037 -139.700021 
L 102.464624 -139.700021 
L 101.334211 -139.698373 
L 100.203798 -139.698373 
L 99.073386 -139.698373 
L 97.942973 -139.698373 
L 96.81256 -139.698373 
L 95.682147 -139.698373 
L 94.551735 -139.666222 
L 93.421322 -139.666222 
L 92.290909 -139.666222 
z
" style="stroke: #bddf26; stroke-opacity: 0.2"/>
    </defs>
    <g clip-path="url(#p1287f532a7)">
     <use xlink:href="#m9a0abc99e6" x="0" y="360" style="fill: #bddf26; fill-opacity: 0.2; stroke: #bddf26; stroke-opacity: 0.2"/>
    </g>
   </g>
   <g id="matplotlib.axis_1">
    <g id="xtick_1">
     <g id="line2d_1">
      <defs>
       <path id="m3756476c0a" d="M 0 0 
L 0 3.5 
" style="stroke: #000000; stroke-width: 0.8"/>
      </defs>
      <g>
       <use xlink:href="#m3756476c0a" x="116.88595" y="320.4" style="stroke: #000000; stroke-width: 0.8"/>
      </g>
     </g>
     <g id="text_1">
      <!-- $\mathdefault{100}$ -->
      <g transform="translate(106.277417 337.431808) scale(0.145 -0.145)">
       <defs>
        <path id="CMR17-31" d="M 1702 4058 
C 1702 4192 1696 4192 1606 4192 
C 1357 3916 979 3827 621 3827 
C 602 3827 570 3827 563 3808 
C 557 3795 557 3782 557 3648 
C 755 3648 1088 3686 1344 3839 
L 1344 461 
C 1344 236 1331 160 781 160 
L 589 160 
L 589 0 
C 896 0 1216 0 1523 0 
C 1830 0 2150 0 2458 0 
L 2458 160 
L 2266 160 
C 1715 160 1702 230 1702 458 
L 1702 4058 
z
" transform="scale(0.015625)"/>
        <path id="CMR17-30" d="M 2688 2025 
C 2688 2416 2682 3080 2413 3591 
C 2176 4039 1798 4198 1466 4198 
C 1158 4198 768 4058 525 3597 
C 269 3118 243 2524 243 2025 
C 243 1661 250 1106 448 619 
C 723 -39 1216 -128 1466 -128 
C 1760 -128 2208 -7 2470 600 
C 2662 1042 2688 1559 2688 2025 
z
M 1466 -26 
C 1056 -26 813 325 723 812 
C 653 1188 653 1738 653 2096 
C 653 2588 653 2997 736 3387 
C 858 3929 1216 4096 1466 4096 
C 1728 4096 2067 3923 2189 3400 
C 2272 3036 2278 2607 2278 2096 
C 2278 1680 2278 1169 2202 792 
C 2067 95 1690 -26 1466 -26 
z
" transform="scale(0.015625)"/>
       </defs>
       <use xlink:href="#CMR17-31" transform="scale(0.996264)"/>
       <use xlink:href="#CMR17-30" transform="translate(45.690477 0) scale(0.996264)"/>
       <use xlink:href="#CMR17-30" transform="translate(91.380954 0) scale(0.996264)"/>
      </g>
     </g>
    </g>
    <g id="xtick_2">
     <g id="line2d_2">
      <g>
       <use xlink:href="#m3756476c0a" x="178.373554" y="320.4" style="stroke: #000000; stroke-width: 0.8"/>
      </g>
     </g>
     <g id="text_2">
      <!-- $\mathdefault{200}$ -->
      <g transform="translate(167.76502 337.431808) scale(0.145 -0.145)">
       <defs>
        <path id="CMR17-32" d="M 2669 989 
L 2554 989 
C 2490 536 2438 459 2413 420 
C 2381 369 1920 369 1830 369 
L 602 369 
C 832 619 1280 1072 1824 1597 
C 2214 1967 2669 2402 2669 3035 
C 2669 3790 2067 4224 1395 4224 
C 691 4224 262 3604 262 3030 
C 262 2780 448 2748 525 2748 
C 589 2748 781 2787 781 3010 
C 781 3207 614 3264 525 3264 
C 486 3264 448 3258 422 3245 
C 544 3790 915 4058 1306 4058 
C 1862 4058 2227 3617 2227 3035 
C 2227 2479 1901 2000 1536 1584 
L 262 146 
L 262 0 
L 2515 0 
L 2669 989 
z
" transform="scale(0.015625)"/>
       </defs>
       <use xlink:href="#CMR17-32" transform="scale(0.996264)"/>
       <use xlink:href="#CMR17-30" transform="translate(45.690477 0) scale(0.996264)"/>
       <use xlink:href="#CMR17-30" transform="translate(91.380954 0) scale(0.996264)"/>
      </g>
     </g>
    </g>
    <g id="xtick_3">
     <g id="line2d_3">
      <g>
       <use xlink:href="#m3756476c0a" x="239.861157" y="320.4" style="stroke: #000000; stroke-width: 0.8"/>
      </g>
     </g>
     <g id="text_3">
      <!-- $\mathdefault{300}$ -->
      <g transform="translate(229.252624 337.431808) scale(0.145 -0.145)">
       <defs>
        <path id="CMR17-33" d="M 1414 2157 
C 1984 2157 2234 1662 2234 1090 
C 2234 320 1824 25 1453 25 
C 1114 25 563 194 390 693 
C 422 680 454 680 486 680 
C 640 680 755 782 755 948 
C 755 1133 614 1216 486 1216 
C 378 1216 211 1165 211 926 
C 211 335 787 -128 1466 -128 
C 2176 -128 2720 430 2720 1085 
C 2720 1707 2208 2157 1600 2227 
C 2086 2328 2554 2756 2554 3329 
C 2554 3820 2048 4179 1472 4179 
C 890 4179 378 3829 378 3329 
C 378 3110 544 3072 627 3072 
C 762 3072 877 3155 877 3321 
C 877 3486 762 3569 627 3569 
C 602 3569 570 3569 544 3557 
C 730 3959 1235 4032 1459 4032 
C 1683 4032 2106 3925 2106 3320 
C 2106 3143 2080 2828 1862 2550 
C 1670 2304 1453 2304 1242 2284 
C 1210 2284 1062 2269 1037 2269 
C 992 2263 966 2257 966 2208 
C 966 2163 973 2157 1101 2157 
L 1414 2157 
z
" transform="scale(0.015625)"/>
       </defs>
       <use xlink:href="#CMR17-33" transform="scale(0.996264)"/>
       <use xlink:href="#CMR17-30" transform="translate(45.690477 0) scale(0.996264)"/>
       <use xlink:href="#CMR17-30" transform="translate(91.380954 0) scale(0.996264)"/>
      </g>
     </g>
    </g>
    <g id="xtick_4">
     <g id="line2d_4">
      <g>
       <use xlink:href="#m3756476c0a" x="301.34876" y="320.4" style="stroke: #000000; stroke-width: 0.8"/>
      </g>
     </g>
     <g id="text_4">
      <!-- $\mathdefault{400}$ -->
      <g transform="translate(290.740227 337.431808) scale(0.145 -0.145)">
       <defs>
        <path id="CMR17-34" d="M 2150 4122 
C 2150 4256 2144 4256 2029 4256 
L 128 1254 
L 128 1088 
L 1779 1088 
L 1779 457 
C 1779 224 1766 160 1318 160 
L 1197 160 
L 1197 0 
C 1402 0 1747 0 1965 0 
C 2182 0 2528 0 2733 0 
L 2733 160 
L 2611 160 
C 2163 160 2150 224 2150 457 
L 2150 1088 
L 2803 1088 
L 2803 1254 
L 2150 1254 
L 2150 4122 
z
M 1798 3703 
L 1798 1254 
L 256 1254 
L 1798 3703 
z
" transform="scale(0.015625)"/>
       </defs>
       <use xlink:href="#CMR17-34" transform="scale(0.996264)"/>
       <use xlink:href="#CMR17-30" transform="translate(45.690477 0) scale(0.996264)"/>
       <use xlink:href="#CMR17-30" transform="translate(91.380954 0) scale(0.996264)"/>
      </g>
     </g>
    </g>
    <g id="xtick_5">
     <g id="line2d_5">
      <g>
       <use xlink:href="#m3756476c0a" x="362.836364" y="320.4" style="stroke: #000000; stroke-width: 0.8"/>
      </g>
     </g>
     <g id="text_5">
      <!-- $\mathdefault{500}$ -->
      <g transform="translate(352.22783 337.431808) scale(0.145 -0.145)">
       <defs>
        <path id="CMR17-35" d="M 730 3692 
C 794 3666 1056 3584 1325 3584 
C 1920 3584 2246 3911 2432 4100 
C 2432 4157 2432 4192 2394 4192 
C 2387 4192 2374 4192 2323 4163 
C 2099 4058 1837 3973 1517 3973 
C 1325 3973 1037 3999 723 4139 
C 653 4171 640 4171 634 4171 
C 602 4171 595 4164 595 4037 
L 595 2203 
C 595 2089 595 2057 659 2057 
C 691 2057 704 2070 736 2114 
C 941 2401 1222 2522 1542 2522 
C 1766 2522 2246 2382 2246 1289 
C 2246 1085 2246 715 2054 421 
C 1894 159 1645 25 1370 25 
C 947 25 518 320 403 814 
C 429 807 480 795 506 795 
C 589 795 749 840 749 1038 
C 749 1210 627 1280 506 1280 
C 358 1280 262 1190 262 1011 
C 262 454 704 -128 1382 -128 
C 2042 -128 2669 440 2669 1264 
C 2669 2030 2170 2624 1549 2624 
C 1222 2624 947 2503 730 2274 
L 730 3692 
z
" transform="scale(0.015625)"/>
       </defs>
       <use xlink:href="#CMR17-35" transform="scale(0.996264)"/>
       <use xlink:href="#CMR17-30" transform="translate(45.690477 0) scale(0.996264)"/>
       <use xlink:href="#CMR17-30" transform="translate(91.380954 0) scale(0.996264)"/>
      </g>
     </g>
    </g>
    <g id="xtick_6">
     <g id="line2d_6">
      <g>
       <use xlink:href="#m3756476c0a" x="424.323967" y="320.4" style="stroke: #000000; stroke-width: 0.8"/>
      </g>
     </g>
     <g id="text_6">
      <!-- $\mathdefault{600}$ -->
      <g transform="translate(413.715434 337.431808) scale(0.145 -0.145)">
       <defs>
        <path id="CMR17-36" d="M 678 2176 
C 678 3690 1395 4032 1811 4032 
C 1946 4032 2272 4009 2400 3776 
C 2298 3776 2106 3776 2106 3553 
C 2106 3381 2246 3323 2336 3323 
C 2394 3323 2566 3348 2566 3560 
C 2566 3954 2246 4179 1805 4179 
C 1043 4179 243 3390 243 1984 
C 243 253 966 -128 1478 -128 
C 2099 -128 2688 427 2688 1283 
C 2688 2081 2170 2662 1517 2662 
C 1126 2662 838 2407 678 1960 
L 678 2176 
z
M 1478 25 
C 691 25 691 1200 691 1436 
C 691 1896 909 2560 1504 2560 
C 1613 2560 1926 2560 2138 2120 
C 2253 1870 2253 1609 2253 1289 
C 2253 944 2253 690 2118 434 
C 1978 171 1773 25 1478 25 
z
" transform="scale(0.015625)"/>
       </defs>
       <use xlink:href="#CMR17-36" transform="scale(0.996264)"/>
       <use xlink:href="#CMR17-30" transform="translate(45.690477 0) scale(0.996264)"/>
       <use xlink:href="#CMR17-30" transform="translate(91.380954 0) scale(0.996264)"/>
      </g>
     </g>
    </g>
    <g id="xtick_7">
     <g id="line2d_7">
      <g>
       <use xlink:href="#m3756476c0a" x="485.81157" y="320.4" style="stroke: #000000; stroke-width: 0.8"/>
      </g>
     </g>
     <g id="text_7">
      <!-- $\mathdefault{700}$ -->
      <g transform="translate(475.203037 337.431808) scale(0.145 -0.145)">
       <defs>
        <path id="CMR17-37" d="M 2886 3941 
L 2886 4081 
L 1382 4081 
C 634 4081 621 4165 595 4288 
L 480 4288 
L 294 3094 
L 410 3094 
C 429 3215 474 3540 550 3661 
C 589 3712 1062 3712 1171 3712 
L 2579 3712 
L 1869 2661 
C 1395 1954 1069 999 1069 165 
C 1069 89 1069 -128 1299 -128 
C 1530 -128 1530 89 1530 171 
L 1530 465 
C 1530 1508 1709 2196 2003 2636 
L 2886 3941 
z
" transform="scale(0.015625)"/>
       </defs>
       <use xlink:href="#CMR17-37" transform="scale(0.996264)"/>
       <use xlink:href="#CMR17-30" transform="translate(45.690477 0) scale(0.996264)"/>
       <use xlink:href="#CMR17-30" transform="translate(91.380954 0) scale(0.996264)"/>
      </g>
     </g>
    </g>
    <g id="text_8">
     <!-- time (s) -->
     <g transform="translate(271.677317 355.075073) scale(0.145 -0.145)">
      <defs>
       <path id="CMSS17-74" d="M 1069 2368 
L 1901 2368 
L 1901 2737 
L 1069 2737 
L 1069 3520 
L 614 3520 
L 614 2737 
L 109 2737 
L 109 2368 
L 602 2368 
L 602 749 
C 602 384 685 -64 1107 -64 
C 1427 -64 1722 25 2003 172 
L 1901 548 
C 1747 414 1562 337 1363 337 
C 1082 337 1069 696 1069 856 
L 1069 2368 
z
" transform="scale(0.015625)"/>
       <path id="CMSS17-69" d="M 979 4183 
L 442 4183 
L 442 3648 
L 979 3648 
L 979 4183 
z
M 947 2739 
L 474 2739 
L 474 0 
L 947 0 
L 947 2739 
z
" transform="scale(0.015625)"/>
       <path id="CMSS17-6d" d="M 4288 1877 
C 4288 2308 4179 2816 3462 2816 
C 2982 2816 2694 2516 2566 2331 
C 2451 2670 2182 2816 1798 2816 
C 1363 2816 1088 2568 941 2389 
L 941 2758 
L 474 2758 
L 474 0 
L 960 0 
L 960 1559 
C 960 1939 1101 2428 1555 2428 
C 2138 2428 2138 2016 2138 1829 
L 2138 0 
L 2624 0 
L 2624 1559 
C 2624 1939 2765 2428 3219 2428 
C 3802 2428 3802 2016 3802 1829 
L 3802 0 
L 4288 0 
L 4288 1877 
z
" transform="scale(0.015625)"/>
       <path id="CMSS17-65" d="M 2502 1377 
C 2502 1590 2490 2003 2285 2345 
C 2061 2713 1696 2816 1421 2816 
C 755 2816 192 2188 192 1375 
C 192 582 774 -64 1510 -64 
C 1798 -64 2150 19 2470 248 
C 2470 274 2458 414 2451 420 
C 2451 433 2432 630 2432 656 
C 2125 407 1773 325 1517 325 
C 1107 325 666 667 646 1377 
L 2502 1377 
z
M 698 1728 
C 781 2084 1062 2421 1421 2421 
C 1517 2421 1965 2421 2080 1728 
L 698 1728 
z
" transform="scale(0.015625)"/>
       <path id="CMSS17-28" d="M 1613 4768 
C 1267 4417 474 3601 474 1588 
C 474 -433 1267 -1243 1613 -1600 
L 2003 -1600 
C 1216 -784 960 357 960 1581 
C 960 2798 1203 3946 2003 4768 
L 1613 4768 
z
" transform="scale(0.015625)"/>
       <path id="CMSS17-73" d="M 2061 2627 
C 1683 2807 1389 2807 1197 2807 
C 742 2807 198 2648 198 2003 
C 198 1359 902 1218 1094 1179 
C 1389 1122 1715 1058 1715 740 
C 1715 337 1254 337 1171 337 
C 915 337 563 407 243 638 
L 166 210 
C 531 0 883 -64 1178 -64 
C 1965 -64 2163 416 2163 781 
C 2163 1094 1984 1305 1862 1401 
C 1651 1568 1574 1587 1050 1696 
C 960 1709 646 1779 646 2066 
C 646 2432 1050 2432 1139 2432 
C 1555 2432 1811 2303 1984 2208 
L 2061 2627 
z
" transform="scale(0.015625)"/>
       <path id="CMSS17-29" d="M 723 -1600 
C 1069 -1249 1862 -433 1862 1581 
C 1862 3601 1069 4411 723 4768 
L 333 4768 
C 1120 3952 1376 2811 1376 1588 
C 1376 370 1133 -778 333 -1600 
L 723 -1600 
z
" transform="scale(0.015625)"/>
      </defs>
      <use xlink:href="#CMSS17-74" transform="scale(0.996264)"/>
      <use xlink:href="#CMSS17-69" transform="translate(33.831567 0) scale(0.996264)"/>
      <use xlink:href="#CMSS17-6d" transform="translate(56.01229 0) scale(0.996264)"/>
      <use xlink:href="#CMSS17-65" transform="translate(130.241544 0) scale(0.996264)"/>
      <use xlink:href="#CMSS17-28" transform="translate(203.109479 0) scale(0.996264)"/>
      <use xlink:href="#CMSS17-73" transform="translate(239.543393 0) scale(0.996264)"/>
      <use xlink:href="#CMSS17-29" transform="translate(275.456935 0) scale(0.996264)"/>
     </g>
    </g>
   </g>
   <g id="matplotlib.axis_2">
    <g id="ytick_1">
     <g id="line2d_8">
      <path d="M 72 320.4 
L 518.4 320.4 
" clip-path="url(#p1287f532a7)" style="fill: none; stroke-dasharray: 1.85,0.8; stroke-dashoffset: 0; stroke: #808080; stroke-width: 0.5"/>
     </g>
     <g id="line2d_9">
      <defs>
       <path id="m1b9616a443" d="M 0 0 
L -3.5 0 
" style="stroke: #000000; stroke-width: 0.8"/>
      </defs>
      <g>
       <use xlink:href="#m1b9616a443" x="72" y="320.4" style="stroke: #000000; stroke-width: 0.8"/>
      </g>
     </g>
     <g id="text_9">
      <!-- $\mathdefault{0.0}$ -->
      <g transform="translate(46.926206 325.415904) scale(0.145 -0.145)">
       <defs>
        <path id="CMMI12-3a" d="M 1178 307 
C 1178 492 1024 619 870 619 
C 685 619 557 466 557 313 
C 557 128 710 0 864 0 
C 1050 0 1178 153 1178 307 
z
" transform="scale(0.015625)"/>
       </defs>
       <use xlink:href="#CMR17-30" transform="scale(0.996264)"/>
       <use xlink:href="#CMMI12-3a" transform="translate(45.690477 0) scale(0.996264)"/>
       <use xlink:href="#CMR17-30" transform="translate(72.787654 0) scale(0.996264)"/>
      </g>
     </g>
    </g>
    <g id="ytick_2">
     <g id="line2d_10">
      <path d="M 72 267.6 
L 518.4 267.6 
" clip-path="url(#p1287f532a7)" style="fill: none; stroke-dasharray: 1.85,0.8; stroke-dashoffset: 0; stroke: #808080; stroke-width: 0.5"/>
     </g>
     <g id="line2d_11">
      <g>
       <use xlink:href="#m1b9616a443" x="72" y="267.6" style="stroke: #000000; stroke-width: 0.8"/>
      </g>
     </g>
     <g id="text_10">
      <!-- $\mathdefault{0.2}$ -->
      <g transform="translate(46.926206 272.615904) scale(0.145 -0.145)">
       <use xlink:href="#CMR17-30" transform="scale(0.996264)"/>
       <use xlink:href="#CMMI12-3a" transform="translate(45.690477 0) scale(0.996264)"/>
       <use xlink:href="#CMR17-32" transform="translate(72.787654 0) scale(0.996264)"/>
      </g>
     </g>
    </g>
    <g id="ytick_3">
     <g id="line2d_12">
      <path d="M 72 214.8 
L 518.4 214.8 
" clip-path="url(#p1287f532a7)" style="fill: none; stroke-dasharray: 1.85,0.8; stroke-dashoffset: 0; stroke: #808080; stroke-width: 0.5"/>
     </g>
     <g id="line2d_13">
      <g>
       <use xlink:href="#m1b9616a443" x="72" y="214.8" style="stroke: #000000; stroke-width: 0.8"/>
      </g>
     </g>
     <g id="text_11">
      <!-- $\mathdefault{0.4}$ -->
      <g transform="translate(46.926206 219.815904) scale(0.145 -0.145)">
       <use xlink:href="#CMR17-30" transform="scale(0.996264)"/>
       <use xlink:href="#CMMI12-3a" transform="translate(45.690477 0) scale(0.996264)"/>
       <use xlink:href="#CMR17-34" transform="translate(72.787654 0) scale(0.996264)"/>
      </g>
     </g>
    </g>
    <g id="ytick_4">
     <g id="line2d_14">
      <path d="M 72 162 
L 518.4 162 
" clip-path="url(#p1287f532a7)" style="fill: none; stroke-dasharray: 1.85,0.8; stroke-dashoffset: 0; stroke: #808080; stroke-width: 0.5"/>
     </g>
     <g id="line2d_15">
      <g>
       <use xlink:href="#m1b9616a443" x="72" y="162" style="stroke: #000000; stroke-width: 0.8"/>
      </g>
     </g>
     <g id="text_12">
      <!-- $\mathdefault{0.6}$ -->
      <g transform="translate(46.926206 167.015904) scale(0.145 -0.145)">
       <use xlink:href="#CMR17-30" transform="scale(0.996264)"/>
       <use xlink:href="#CMMI12-3a" transform="translate(45.690477 0) scale(0.996264)"/>
       <use xlink:href="#CMR17-36" transform="translate(72.787654 0) scale(0.996264)"/>
      </g>
     </g>
    </g>
    <g id="ytick_5">
     <g id="line2d_16">
      <path d="M 72 109.2 
L 518.4 109.2 
" clip-path="url(#p1287f532a7)" style="fill: none; stroke-dasharray: 1.85,0.8; stroke-dashoffset: 0; stroke: #808080; stroke-width: 0.5"/>
     </g>
     <g id="line2d_17">
      <g>
       <use xlink:href="#m1b9616a443" x="72" y="109.2" style="stroke: #000000; stroke-width: 0.8"/>
      </g>
     </g>
     <g id="text_13">
      <!-- $\mathdefault{0.8}$ -->
      <g transform="translate(46.926206 114.215904) scale(0.145 -0.145)">
       <defs>
        <path id="CMR17-38" d="M 1741 2264 
C 2144 2467 2554 2773 2554 3263 
C 2554 3841 1990 4179 1472 4179 
C 890 4179 378 3759 378 3180 
C 378 3021 416 2747 666 2505 
C 730 2442 998 2251 1171 2130 
C 883 1983 211 1634 211 934 
C 211 279 838 -128 1459 -128 
C 2144 -128 2720 362 2720 1010 
C 2720 1590 2330 1857 2074 2029 
L 1741 2264 
z
M 902 2822 
C 851 2854 595 3051 595 3351 
C 595 3739 998 4032 1459 4032 
C 1965 4032 2336 3676 2336 3262 
C 2336 2669 1670 2331 1638 2331 
C 1632 2331 1626 2331 1574 2370 
L 902 2822 
z
M 2080 1519 
C 2176 1449 2483 1240 2483 851 
C 2483 381 2010 25 1472 25 
C 890 25 448 438 448 940 
C 448 1443 838 1862 1280 2060 
L 2080 1519 
z
" transform="scale(0.015625)"/>
       </defs>
       <use xlink:href="#CMR17-30" transform="scale(0.996264)"/>
       <use xlink:href="#CMMI12-3a" transform="translate(45.690477 0) scale(0.996264)"/>
       <use xlink:href="#CMR17-38" transform="translate(72.787654 0) scale(0.996264)"/>
      </g>
     </g>
    </g>
    <g id="ytick_6">
     <g id="line2d_18">
      <path d="M 72 56.4 
L 518.4 56.4 
" clip-path="url(#p1287f532a7)" style="fill: none; stroke-dasharray: 1.85,0.8; stroke-dashoffset: 0; stroke: #808080; stroke-width: 0.5"/>
     </g>
     <g id="line2d_19">
      <g>
       <use xlink:href="#m1b9616a443" x="72" y="56.4" style="stroke: #000000; stroke-width: 0.8"/>
      </g>
     </g>
     <g id="text_14">
      <!-- $\mathdefault{1.0}$ -->
      <g transform="translate(46.926206 61.415904) scale(0.145 -0.145)">
       <use xlink:href="#CMR17-31" transform="scale(0.996264)"/>
       <use xlink:href="#CMMI12-3a" transform="translate(45.690477 0) scale(0.996264)"/>
       <use xlink:href="#CMR17-30" transform="translate(72.787654 0) scale(0.996264)"/>
      </g>
     </g>
    </g>
    <g id="text_15">
     <!-- QoS -->
     <g transform="translate(40.117312 194.481753) rotate(-90) scale(0.145 -0.145)">
      <defs>
       <path id="CMSS17-51" d="M 3200 202 
C 3981 833 4096 1689 4096 2174 
C 4096 3501 3219 4497 2214 4497 
C 1210 4497 333 3497 333 2178 
C 333 847 1222 -128 2214 -128 
C 2438 -128 2630 -77 2765 -26 
L 3302 -832 
L 3930 -832 
L 3200 202 
z
M 2528 324 
C 2438 293 2330 273 2214 273 
C 1523 273 858 993 858 2178 
C 858 3357 1517 4096 2214 4096 
C 2918 4096 3571 3350 3571 2178 
C 3571 1771 3507 1089 2950 566 
L 2490 1210 
L 1939 1210 
L 2528 324 
z
" transform="scale(0.015625)"/>
       <path id="CMSS17-6f" d="M 2829 1356 
C 2829 2176 2221 2816 1504 2816 
C 768 2816 173 2157 173 1356 
C 173 544 787 -64 1498 -64 
C 2227 -64 2829 563 2829 1356 
z
M 1504 337 
C 1050 337 659 709 659 1408 
C 659 2151 1114 2427 1498 2427 
C 1914 2427 2342 2126 2342 1408 
C 2342 683 1926 337 1504 337 
z
" transform="scale(0.015625)"/>
       <path id="CMSS17-53" d="M 2797 4169 
C 2515 4334 2208 4480 1690 4480 
C 864 4480 333 3879 333 3266 
C 333 3025 403 2753 653 2475 
C 902 2196 1184 2121 1542 2033 
C 1690 1994 1939 1924 1984 1906 
C 2342 1767 2515 1444 2515 1140 
C 2515 742 2202 318 1645 318 
C 1453 318 890 318 358 819 
L 269 318 
C 794 -64 1363 -128 1651 -128 
C 2438 -128 3002 488 3002 1186 
C 3002 1440 2925 1763 2656 2061 
C 2394 2347 2163 2410 1638 2549 
C 1338 2626 1146 2677 986 2873 
C 877 3013 819 3146 819 3317 
C 819 3673 1126 4060 1690 4060 
C 1971 4060 2336 4002 2707 3660 
L 2797 4169 
z
" transform="scale(0.015625)"/>
      </defs>
      <use xlink:href="#CMSS17-51" transform="scale(0.996264)"/>
      <use xlink:href="#CMSS17-6f" transform="translate(69.024255 0) scale(0.996264)"/>
      <use xlink:href="#CMSS17-53" transform="translate(115.867879 0) scale(0.996264)"/>
     </g>
    </g>
   </g>
   <g id="line2d_20">
    <path d="M 92.290909 230.445696 
L 119.420815 230.445696 
L 120.551228 240.255144 
L 125.072879 240.255144 
L 126.203292 241.561152 
L 131.855356 241.561152 
L 132.985769 244.31256 
L 137.50742 244.31256 
L 138.637832 248.536296 
L 144.289896 248.536296 
L 145.420309 250.009152 
L 149.94196 250.009152 
L 151.072373 250.175472 
L 162.3765 250.175472 
L 164.637326 250.28688 
L 180.463105 250.37004 
L 181.593517 256.48428 
L 187.245581 256.48428 
L 188.375994 257.734848 
L 192.897645 257.734848 
L 194.028058 259.707984 
L 199.680122 259.707984 
L 200.810534 267.12744 
L 205.332185 267.12744 
L 206.462598 270.851424 
L 212.114662 270.851424 
L 213.245075 271.323984 
L 217.766726 271.323984 
L 218.897139 271.545744 
L 235.85333 271.629168 
L 239.244568 271.684608 
L 242.635807 271.684608 
L 243.766219 274.297416 
L 248.28787 274.297416 
L 249.418283 280.216296 
L 255.070347 280.216296 
L 256.20076 281.189136 
L 260.722411 281.189136 
L 261.852823 286.330272 
L 267.504887 286.330272 
L 268.6353 290.915239 
L 273.156951 290.915239 
L 274.287364 292.471546 
L 278.809015 292.471546 
L 279.939428 293.222018 
L 291.243555 293.305152 
L 293.504381 293.388734 
L 298.026032 293.388734 
L 299.156445 293.527651 
L 310.460572 293.52773 
L 311.590985 275.631144 
L 316.112636 275.631144 
L 317.243049 272.212872 
L 321.7647 272.212872 
L 324.025525 272.101728 
L 371.502861 272.101728 
L 372.633274 260.652312 
L 377.154925 260.652312 
L 378.285338 252.260544 
L 383.937402 252.260544 
L 385.067815 252.121152 
L 389.589466 252.121152 
L 390.719878 251.982552 
L 414.458546 252.010272 
L 416.719372 252.093696 
L 432.545151 252.010272 
L 433.675563 249.842568 
L 439.327627 249.842568 
L 440.45804 234.864 
L 444.979691 234.864 
L 446.110104 234.502848 
L 487.935376 234.447144 
L 490.196202 234.336 
L 498.109091 234.39144 
L 498.109091 234.39144 
" clip-path="url(#p1287f532a7)" style="fill: none; stroke: #482475; stroke-width: 2.5; stroke-linecap: square"/>
   </g>
   <g id="line2d_21">
    <path d="M 92.290909 219.19032 
L 94.551735 219.19032 
L 95.682147 218.884608 
L 119.420815 218.829168 
L 120.551228 230.834568 
L 125.072879 230.834568 
L 126.203292 231.001152 
L 131.855356 231.001152 
L 132.985769 234.085728 
L 137.50742 234.085728 
L 138.637832 239.893464 
L 144.289896 239.893464 
L 145.420309 241.560888 
L 149.94196 241.560888 
L 151.072373 241.83888 
L 180.463105 241.8666 
L 181.593517 251.593416 
L 187.245581 251.593416 
L 188.375994 252.621432 
L 192.897645 252.621432 
L 194.028058 254.31684 
L 199.680122 254.31684 
L 200.810534 261.875424 
L 205.332185 261.875424 
L 206.462598 266.043456 
L 212.114662 266.043456 
L 213.245075 267.099984 
L 217.766726 267.099984 
L 218.897139 267.488856 
L 230.201266 267.544296 
L 232.462092 267.6 
L 242.635807 267.627456 
L 243.766219 270.934584 
L 248.28787 270.934584 
L 249.418283 277.71516 
L 255.070347 277.71516 
L 256.20076 278.354304 
L 260.722411 278.354304 
L 261.852823 284.412312 
L 267.504887 284.412312 
L 268.6353 289.831968 
L 273.156951 289.831968 
L 274.287364 291.30456 
L 278.809015 291.30456 
L 279.939428 291.721416 
L 285.591492 291.721416 
L 286.721904 291.999408 
L 310.460572 292.082304 
L 311.590985 271.156872 
L 316.112636 271.156872 
L 317.243049 267.71088 
L 371.502861 267.65544 
L 372.633274 253.95516 
L 377.154925 253.95516 
L 378.285338 241.89432 
L 432.545151 241.8666 
L 433.675563 239.504856 
L 439.327627 239.504856 
L 440.45804 218.94084 
L 444.979691 218.94084 
L 446.110104 218.773464 
L 498.109091 218.829432 
L 498.109091 218.829432 
" clip-path="url(#p1287f532a7)" style="fill: none; stroke: #bddf26; stroke-width: 2.5; stroke-linecap: square"/>
   </g>
   <g id="patch_3">
    <path d="M 72 320.4 
L 72 43.2 
" style="fill: none; stroke: #000000; stroke-width: 0.8; stroke-linejoin: miter; stroke-linecap: square"/>
   </g>
   <g id="patch_4">
    <path d="M 518.4 320.4 
L 518.4 43.2 
" style="fill: none; stroke: #000000; stroke-width: 0.8; stroke-linejoin: miter; stroke-linecap: square"/>
   </g>
   <g id="patch_5">
    <path d="M 72 320.4 
L 518.4 320.4 
" style="fill: none; stroke: #000000; stroke-width: 0.8; stroke-linejoin: miter; stroke-linecap: square"/>
   </g>
   <g id="text_16">
    <!-- $nt=Lobster$ $d=1000$ $oc=3\%$ $l=costant$ -->
    <g transform="translate(131.93079 37.2) scale(0.18 -0.18)">
     <defs>
      <path id="CMMI12-6e" d="M 1318 1871 
C 1331 1910 1491 2229 1728 2433 
C 1894 2586 2112 2689 2362 2689 
C 2618 2689 2707 2497 2707 2242 
C 2707 1878 2445 1150 2317 805 
C 2259 651 2227 568 2227 453 
C 2227 166 2426 -64 2733 -64 
C 3328 -64 3552 875 3552 913 
C 3552 945 3526 971 3488 971 
C 3430 971 3424 952 3392 843 
C 3245 319 3002 64 2752 64 
C 2688 64 2586 64 2586 269 
C 2586 429 2656 621 2694 710 
C 2822 1063 3091 1780 3091 2145 
C 3091 2528 2867 2816 2381 2816 
C 1811 2816 1510 2415 1395 2255 
C 1376 2618 1114 2816 832 2816 
C 627 2816 486 2695 378 2478 
C 262 2248 173 1865 173 1839 
C 173 1814 198 1782 243 1782 
C 294 1782 301 1788 339 1935 
C 442 2325 557 2689 813 2689 
C 960 2689 1011 2586 1011 2395 
C 1011 2254 947 2005 902 1807 
L 723 1118 
C 698 996 627 709 595 594 
C 550 428 480 128 480 96 
C 480 6 550 -64 646 -64 
C 723 -64 813 -26 864 70 
C 877 102 934 326 966 453 
L 1107 1028 
L 1318 1871 
z
" transform="scale(0.015625)"/>
      <path id="CMMI12-74" d="M 1286 2566 
L 1875 2566 
C 1997 2566 2061 2566 2061 2681 
C 2061 2752 2022 2752 1894 2752 
L 1331 2752 
L 1568 3692 
C 1594 3781 1594 3794 1594 3840 
C 1594 3943 1510 4000 1427 4000 
C 1376 4000 1229 3981 1178 3775 
L 928 2752 
L 326 2752 
C 198 2752 141 2752 141 2630 
C 141 2566 186 2566 307 2566 
L 877 2566 
L 454 881 
C 403 658 384 594 384 511 
C 384 211 595 -64 954 -64 
C 1600 -64 1946 868 1946 912 
C 1946 951 1920 970 1882 970 
C 1869 970 1843 970 1830 944 
C 1824 938 1818 931 1773 829 
C 1638 511 1344 64 973 64 
C 781 64 768 224 768 364 
C 768 370 768 492 787 568 
L 1286 2566 
z
" transform="scale(0.015625)"/>
      <path id="CMR17-3d" d="M 4115 2017 
C 4211 2017 4307 2017 4307 2125 
C 4307 2240 4198 2240 4090 2240 
L 512 2240 
C 403 2240 294 2240 294 2125 
C 294 2017 390 2017 486 2017 
L 4115 2017 
z
M 4090 896 
C 4198 896 4307 896 4307 1011 
C 4307 1119 4211 1119 4115 1119 
L 486 1119 
C 390 1119 294 1119 294 1011 
C 294 896 403 896 512 896 
L 4090 896 
z
" transform="scale(0.015625)"/>
      <path id="CMMI12-4c" d="M 2349 3861 
C 2406 4103 2426 4167 2989 4167 
C 3162 4167 3206 4167 3206 4288 
C 3206 4352 3136 4352 3110 4352 
C 2982 4352 2835 4352 2707 4352 
L 1850 4352 
C 1728 4352 1587 4352 1466 4352 
C 1414 4352 1344 4352 1344 4231 
C 1344 4167 1402 4167 1498 4167 
C 1888 4167 1888 4116 1888 4046 
C 1888 4034 1888 3995 1862 3899 
L 998 472 
C 941 249 928 185 480 185 
C 358 185 294 185 294 70 
C 294 0 333 0 461 0 
L 3328 0 
C 3469 0 3475 6 3520 121 
L 4013 1478 
C 4026 1510 4038 1548 4038 1567 
C 4038 1605 4006 1631 3974 1631 
C 3968 1631 3936 1631 3923 1605 
C 3910 1599 3910 1586 3859 1465 
C 3654 905 3366 185 2285 185 
L 1670 185 
C 1581 185 1568 185 1530 192 
C 1459 198 1453 211 1453 262 
C 1453 307 1466 345 1478 401 
L 2349 3861 
z
" transform="scale(0.015625)"/>
      <path id="CMMI12-6f" d="M 2918 1756 
C 2918 2363 2522 2816 1939 2816 
C 1094 2816 262 1897 262 996 
C 262 390 659 -64 1242 -64 
C 2093 -64 2918 856 2918 1756 
z
M 1248 64 
C 928 64 691 319 691 766 
C 691 1060 845 1712 1024 2031 
C 1312 2523 1670 2689 1933 2689 
C 2246 2689 2490 2433 2490 1986 
C 2490 1731 2355 1047 2112 658 
C 1850 230 1498 64 1248 64 
z
" transform="scale(0.015625)"/>
      <path id="CMMI12-62" d="M 1478 4257 
C 1485 4283 1498 4321 1498 4352 
C 1498 4416 1434 4416 1421 4416 
C 1414 4416 1184 4393 1069 4377 
C 960 4377 864 4358 749 4358 
C 595 4345 550 4339 550 4224 
C 550 4160 614 4160 678 4160 
C 1005 4160 1005 4103 1005 4040 
C 1005 3996 954 3811 928 3696 
L 774 3085 
C 710 2831 346 1387 320 1272 
C 288 1114 288 1005 288 922 
C 288 274 653 -64 1069 -64 
C 1811 -64 2579 888 2579 1814 
C 2579 2401 2246 2816 1766 2816 
C 1434 2816 1133 2542 1011 2414 
L 1478 4257 
z
M 1075 64 
C 870 64 646 217 646 715 
C 646 926 666 1047 781 1494 
C 800 1577 902 1986 928 2069 
C 941 2120 1318 2689 1754 2689 
C 2035 2689 2163 2408 2163 2076 
C 2163 1769 1984 1047 1824 715 
C 1664 370 1370 64 1075 64 
z
" transform="scale(0.015625)"/>
      <path id="CMMI12-73" d="M 1459 1280 
C 1568 1261 1741 1223 1779 1216 
C 1862 1192 2150 1090 2150 783 
C 2150 586 1971 70 1229 70 
C 1094 70 614 70 486 436 
C 742 404 870 603 870 745 
C 870 880 781 950 653 950 
C 512 950 326 841 326 552 
C 326 173 710 -64 1222 -64 
C 2195 -64 2483 651 2483 984 
C 2483 1079 2483 1258 2278 1462 
C 2118 1616 1965 1648 1619 1718 
C 1446 1756 1171 1814 1171 2101 
C 1171 2229 1286 2689 1894 2689 
C 2163 2689 2426 2589 2490 2368 
C 2208 2368 2195 2125 2195 2119 
C 2195 1984 2317 1946 2374 1946 
C 2464 1946 2643 2015 2643 2281 
C 2643 2545 2400 2816 1901 2816 
C 1062 2816 838 2160 838 1899 
C 838 1414 1312 1312 1459 1280 
z
" transform="scale(0.015625)"/>
      <path id="CMMI12-65" d="M 1146 1479 
C 1318 1479 1754 1479 2061 1595 
C 2547 1783 2592 2158 2592 2274 
C 2592 2558 2349 2816 1926 2816 
C 1254 2816 288 2210 288 1073 
C 288 402 672 -64 1254 -64 
C 2125 -64 2675 609 2675 692 
C 2675 730 2637 762 2611 762 
C 2592 762 2586 756 2528 699 
C 2118 159 1510 64 1267 64 
C 902 64 710 350 710 822 
C 710 911 710 1071 806 1479 
L 1146 1479 
z
M 838 1600 
C 1114 2592 1722 2689 1926 2689 
C 2208 2689 2400 2522 2400 2277 
C 2400 1600 1376 1600 1107 1600 
L 838 1600 
z
" transform="scale(0.015625)"/>
      <path id="CMMI12-72" d="M 2490 2612 
C 2291 2574 2189 2433 2189 2293 
C 2189 2139 2310 2088 2400 2088 
C 2579 2088 2726 2242 2726 2433 
C 2726 2638 2528 2816 2208 2816 
C 1952 2816 1658 2701 1389 2312 
C 1344 2650 1088 2816 832 2816 
C 582 2816 454 2625 378 2484 
C 269 2254 173 1871 173 1839 
C 173 1814 198 1782 243 1782 
C 294 1782 301 1788 339 1935 
C 435 2318 557 2689 813 2689 
C 966 2689 1011 2580 1011 2395 
C 1011 2254 947 2005 902 1807 
L 723 1118 
C 698 996 627 709 595 594 
C 550 428 480 128 480 96 
C 480 6 550 -64 646 -64 
C 717 -64 838 -19 877 109 
C 896 160 1133 1124 1171 1271 
C 1203 1411 1242 1546 1274 1686 
C 1299 1775 1325 1878 1344 1961 
C 1363 2018 1536 2331 1696 2472 
C 1773 2542 1939 2689 2202 2689 
C 2304 2689 2406 2670 2490 2612 
z
" transform="scale(0.015625)"/>
      <path id="CMMI12-64" d="M 3219 4257 
C 3226 4282 3238 4320 3238 4352 
C 3238 4416 3174 4416 3162 4416 
C 3155 4416 2842 4388 2810 4380 
C 2701 4373 2605 4358 2490 4358 
C 2330 4345 2285 4339 2285 4224 
C 2285 4160 2336 4160 2426 4160 
C 2739 4160 2746 4103 2746 4040 
C 2746 4002 2733 3952 2726 3933 
L 2336 2395 
C 2266 2561 2093 2816 1760 2816 
C 1037 2816 256 1884 256 939 
C 256 307 627 -64 1062 -64 
C 1414 -64 1715 211 1894 422 
C 1958 45 2259 -64 2451 -64 
C 2643 -64 2797 51 2912 281 
C 3014 498 3104 888 3104 913 
C 3104 945 3078 971 3040 971 
C 2982 971 2976 939 2950 843 
C 2854 466 2733 64 2470 64 
C 2285 64 2272 229 2272 357 
C 2272 382 2272 515 2317 694 
L 3219 4257 
z
M 1926 760 
C 1894 651 1894 639 1805 517 
C 1664 338 1382 64 1082 64 
C 819 64 672 300 672 677 
C 672 1028 870 1743 992 2012 
C 1210 2459 1510 2689 1760 2689 
C 2182 2689 2266 2165 2266 2114 
C 2266 2108 2246 2024 2240 2012 
L 1926 760 
z
" transform="scale(0.015625)"/>
      <path id="CMMI12-63" d="M 2502 2431 
C 2381 2431 2323 2431 2234 2355 
C 2195 2323 2125 2227 2125 2125 
C 2125 1997 2221 1920 2342 1920 
C 2496 1920 2669 2044 2669 2292 
C 2669 2588 2374 2816 1933 2816 
C 1094 2816 256 1903 256 996 
C 256 441 602 -64 1254 -64 
C 2125 -64 2675 622 2675 706 
C 2675 744 2637 776 2611 776 
C 2592 776 2586 770 2528 713 
C 2118 162 1510 64 1267 64 
C 826 64 685 446 685 764 
C 685 988 794 1605 1024 2039 
C 1190 2338 1536 2682 1939 2682 
C 2022 2682 2374 2682 2502 2431 
z
" transform="scale(0.015625)"/>
      <path id="CMR17-25" d="M 4640 959 
C 4640 1698 4275 2240 3846 2240 
C 3411 2240 2970 1736 2970 959 
C 2970 183 3405 -320 3846 -320 
C 4275 -320 4640 215 4640 959 
z
M 3853 -218 
C 3686 -218 3270 -66 3270 959 
C 3270 1991 3686 2138 3853 2138 
C 4205 2138 4525 1634 4525 959 
C 4525 285 4205 -218 3853 -218 
z
M 4083 4577 
C 4128 4647 4134 4653 4134 4685 
C 4134 4761 4077 4800 4026 4800 
C 3962 4800 3936 4756 3891 4706 
C 3520 4190 3008 4134 2746 4134 
C 2106 4134 1715 4494 1594 4607 
C 1510 4682 1389 4800 1171 4800 
C 736 4800 294 4296 294 3519 
C 294 2743 730 2240 1171 2240 
C 1600 2240 1965 2778 1965 3527 
C 1965 3969 1830 4270 1811 4308 
C 2202 4064 2586 4032 2752 4032 
C 3162 4032 3456 4183 3616 4289 
L 3622 4283 
L 858 -84 
C 800 -174 800 -187 800 -206 
C 800 -276 858 -320 915 -320 
C 973 -320 992 -289 1037 -218 
L 4083 4577 
z
M 1178 2342 
C 1011 2342 595 2494 595 3519 
C 595 4551 1011 4698 1178 4698 
C 1530 4698 1850 4194 1850 3519 
C 1850 2845 1530 2342 1178 2342 
z
" transform="scale(0.015625)"/>
      <path id="CMMI12-6c" d="M 1626 4257 
C 1632 4282 1645 4320 1645 4352 
C 1645 4416 1581 4416 1568 4416 
C 1562 4416 1331 4393 1216 4377 
C 1107 4377 1011 4358 896 4358 
C 742 4345 698 4339 698 4224 
C 698 4160 762 4160 826 4160 
C 1152 4160 1152 4102 1152 4039 
C 1152 4014 1152 4001 1120 3887 
L 326 731 
C 307 661 294 610 294 509 
C 294 191 531 -64 858 -64 
C 1069 -64 1210 76 1312 274 
C 1421 483 1510 884 1510 909 
C 1510 941 1485 967 1446 967 
C 1389 967 1382 935 1357 840 
C 1242 401 1126 64 870 64 
C 678 64 678 267 678 357 
C 678 382 678 515 723 694 
L 1626 4257 
z
" transform="scale(0.015625)"/>
      <path id="CMMI12-61" d="M 1926 760 
C 1894 651 1894 639 1805 517 
C 1664 338 1382 64 1082 64 
C 819 64 672 300 672 677 
C 672 1028 870 1743 992 2012 
C 1210 2459 1510 2689 1760 2689 
C 2182 2689 2266 2165 2266 2114 
C 2266 2108 2246 2024 2240 2012 
L 1926 760 
z
M 2336 2395 
C 2266 2561 2093 2816 1760 2816 
C 1037 2816 256 1884 256 939 
C 256 307 627 -64 1062 -64 
C 1414 -64 1715 211 1894 422 
C 1958 45 2259 -64 2451 -64 
C 2643 -64 2797 51 2912 281 
C 3014 498 3104 888 3104 913 
C 3104 945 3078 971 3040 971 
C 2982 971 2976 939 2950 843 
C 2854 466 2733 64 2470 64 
C 2285 64 2272 230 2272 358 
C 2272 505 2291 575 2349 824 
C 2394 984 2426 1124 2477 1309 
C 2714 2267 2771 2497 2771 2535 
C 2771 2625 2701 2695 2605 2695 
C 2400 2695 2349 2472 2336 2395 
z
" transform="scale(0.015625)"/>
     </defs>
     <use xlink:href="#CMMI12-6e" transform="scale(0.996264)"/>
     <use xlink:href="#CMMI12-74" transform="translate(58.230047 0) scale(0.996264)"/>
     <use xlink:href="#CMR17-3d" transform="translate(121.130386 0) scale(0.996264)"/>
     <use xlink:href="#CMMI12-4c" transform="translate(220.519183 0) scale(0.996264)"/>
     <use xlink:href="#CMMI12-6f" transform="translate(286.890059 0) scale(0.996264)"/>
     <use xlink:href="#CMMI12-62" transform="translate(333.785368 0) scale(0.996264)"/>
     <use xlink:href="#CMMI12-73" transform="translate(375.261243 0) scale(0.996264)"/>
     <use xlink:href="#CMMI12-74" transform="translate(421.21129 0) scale(0.996264)"/>
     <use xlink:href="#CMMI12-65" transform="translate(456.43762 0) scale(0.996264)"/>
     <use xlink:href="#CMMI12-72" transform="translate(501.649621 0) scale(0.996264)"/>
     <use xlink:href="#CMMI12-64" transform="translate(579.549346 0) scale(0.996264)"/>
     <use xlink:href="#CMR17-3d" transform="translate(657.912452 0) scale(0.996264)"/>
     <use xlink:href="#CMR17-31" transform="translate(757.301249 0) scale(0.996264)"/>
     <use xlink:href="#CMR17-30" transform="translate(802.991726 0) scale(0.996264)"/>
     <use xlink:href="#CMR17-30" transform="translate(848.682203 0) scale(0.996264)"/>
     <use xlink:href="#CMR17-30" transform="translate(894.37268 0) scale(0.996264)"/>
     <use xlink:href="#CMMI12-6f" transform="translate(971.29227 0) scale(0.996264)"/>
     <use xlink:href="#CMMI12-63" transform="translate(1018.18758 0) scale(0.996264)"/>
     <use xlink:href="#CMR17-3d" transform="translate(1087.844822 0) scale(0.996264)"/>
     <use xlink:href="#CMR17-33" transform="translate(1187.233619 0) scale(0.996264)"/>
     <use xlink:href="#CMR17-25" transform="translate(1232.924096 0) scale(0.996264)"/>
     <use xlink:href="#CMMI12-6c" transform="translate(1341.072799 0) scale(0.996264)"/>
     <use xlink:href="#CMR17-3d" transform="translate(1399.995211 0) scale(0.996264)"/>
     <use xlink:href="#CMMI12-63" transform="translate(1499.384009 0) scale(0.996264)"/>
     <use xlink:href="#CMMI12-6f" transform="translate(1541.367242 0) scale(0.996264)"/>
     <use xlink:href="#CMMI12-73" transform="translate(1588.262552 0) scale(0.996264)"/>
     <use xlink:href="#CMMI12-74" transform="translate(1634.212599 0) scale(0.996264)"/>
     <use xlink:href="#CMMI12-61" transform="translate(1669.43893 0) scale(0.996264)"/>
     <use xlink:href="#CMMI12-6e" transform="translate(1720.646787 0) scale(0.996264)"/>
     <use xlink:href="#CMMI12-74" transform="translate(1778.876835 0) scale(0.996264)"/>
    </g>
   </g>
  </g>
  <g id="axes_2">
   <g id="matplotlib.axis_3">
    <g id="ytick_7">
     <g id="line2d_22">
      <defs>
       <path id="mc1ec9df603" d="M 0 0 
L 3.5 0 
" style="stroke: #000000; stroke-width: 0.8"/>
      </defs>
      <g>
       <use xlink:href="#mc1ec9df603" x="518.4" y="320.4" style="stroke: #000000; stroke-width: 0.8"/>
      </g>
     </g>
     <g id="text_17">
      <!-- $\mathdefault{0}$ -->
      <g transform="translate(525.4 325.415904) scale(0.145 -0.145)">
       <use xlink:href="#CMR17-30" transform="scale(0.996264)"/>
      </g>
     </g>
    </g>
    <g id="ytick_8">
     <g id="line2d_23">
      <g>
       <use xlink:href="#mc1ec9df603" x="518.4" y="264.987706" style="stroke: #000000; stroke-width: 0.8"/>
      </g>
     </g>
     <g id="text_18">
      <!-- $\mathdefault{20}$ -->
      <g transform="translate(525.4 270.00361) scale(0.145 -0.145)">
       <use xlink:href="#CMR17-32" transform="scale(0.996264)"/>
       <use xlink:href="#CMR17-30" transform="translate(45.690477 0) scale(0.996264)"/>
      </g>
     </g>
    </g>
    <g id="ytick_9">
     <g id="line2d_24">
      <g>
       <use xlink:href="#mc1ec9df603" x="518.4" y="209.575412" style="stroke: #000000; stroke-width: 0.8"/>
      </g>
     </g>
     <g id="text_19">
      <!-- $\mathdefault{40}$ -->
      <g transform="translate(525.4 214.591316) scale(0.145 -0.145)">
       <use xlink:href="#CMR17-34" transform="scale(0.996264)"/>
       <use xlink:href="#CMR17-30" transform="translate(45.690477 0) scale(0.996264)"/>
      </g>
     </g>
    </g>
    <g id="ytick_10">
     <g id="line2d_25">
      <g>
       <use xlink:href="#mc1ec9df603" x="518.4" y="154.163118" style="stroke: #000000; stroke-width: 0.8"/>
      </g>
     </g>
     <g id="text_20">
      <!-- $\mathdefault{60}$ -->
      <g transform="translate(525.4 159.179023) scale(0.145 -0.145)">
       <use xlink:href="#CMR17-36" transform="scale(0.996264)"/>
       <use xlink:href="#CMR17-30" transform="translate(45.690477 0) scale(0.996264)"/>
      </g>
     </g>
    </g>
    <g id="ytick_11">
     <g id="line2d_26">
      <g>
       <use xlink:href="#mc1ec9df603" x="518.4" y="98.750825" style="stroke: #000000; stroke-width: 0.8"/>
      </g>
     </g>
     <g id="text_21">
      <!-- $\mathdefault{80}$ -->
      <g transform="translate(525.4 103.766729) scale(0.145 -0.145)">
       <use xlink:href="#CMR17-38" transform="scale(0.996264)"/>
       <use xlink:href="#CMR17-30" transform="translate(45.690477 0) scale(0.996264)"/>
      </g>
     </g>
    </g>
    <g id="ytick_12">
     <g id="line2d_27">
      <g>
       <use xlink:href="#mc1ec9df603" x="518.4" y="43.338531" style="stroke: #000000; stroke-width: 0.8"/>
      </g>
     </g>
     <g id="text_22">
      <!-- $\mathdefault{100}$ -->
      <g transform="translate(525.4 48.354435) scale(0.145 -0.145)">
       <use xlink:href="#CMR17-31" transform="scale(0.996264)"/>
       <use xlink:href="#CMR17-30" transform="translate(45.690477 0) scale(0.996264)"/>
       <use xlink:href="#CMR17-30" transform="translate(91.380954 0) scale(0.996264)"/>
      </g>
     </g>
    </g>
    <g id="text_23">
     <!-- CPU load in \% -->
     <g transform="translate(560.648875 226.102524) rotate(-90) scale(0.145 -0.145)">
      <defs>
       <path id="CMSS17-43" d="M 3501 714 
C 3072 427 2874 344 2355 344 
C 1459 344 934 1303 934 2179 
C 934 3112 1472 4032 2381 4032 
C 2790 4032 3059 3918 3386 3715 
L 3475 4217 
C 3168 4370 2778 4440 2387 4440 
C 1158 4440 397 3316 397 2179 
C 397 927 1299 -64 2323 -64 
C 2874 -64 3066 -19 3539 280 
L 3501 714 
z
" transform="scale(0.015625)"/>
       <path id="CMSS17-50" d="M 2106 1856 
C 2874 1856 3501 2453 3501 3158 
C 3501 3850 2899 4453 2067 4453 
L 570 4453 
L 570 0 
L 1107 0 
L 1107 1856 
L 2106 1856 
z
M 1926 4096 
C 2669 4096 2995 3627 2995 3157 
C 2995 2720 2694 2226 1926 2226 
L 1094 2226 
L 1094 4096 
L 1926 4096 
z
" transform="scale(0.015625)"/>
       <path id="CMSS17-55" d="M 3552 4384 
L 3066 4384 
L 3066 1449 
C 3066 604 2547 229 2074 229 
C 1587 229 1101 623 1101 1443 
L 1101 4384 
L 563 4384 
L 563 1454 
C 563 539 1274 -128 2067 -128 
C 2861 -128 3552 539 3552 1454 
L 3552 4384 
z
" transform="scale(0.015625)"/>
       <path id="CMSS17-6c" d="M 947 4416 
L 474 4416 
L 474 0 
L 947 0 
L 947 4416 
z
" transform="scale(0.015625)"/>
       <path id="CMSS17-61" d="M 2406 1791 
C 2406 2392 1978 2808 1402 2808 
C 1120 2808 813 2757 461 2553 
L 499 2135 
C 659 2248 934 2432 1395 2432 
C 1722 2432 1920 2180 1920 1782 
L 1920 1536 
C 896 1536 256 1238 256 726 
C 256 461 416 -64 947 -64 
C 1043 -64 1562 -64 1933 217 
L 1933 -19 
L 2406 -19 
L 2406 1791 
z
M 1920 816 
C 1920 701 1920 548 1728 434 
C 1562 325 1350 325 1261 325 
C 941 325 723 511 723 744 
C 723 1211 1722 1211 1920 1211 
L 1920 816 
z
" transform="scale(0.015625)"/>
       <path id="CMSS17-64" d="M 2611 4416 
L 2138 4416 
L 2138 2438 
C 1939 2603 1613 2756 1254 2756 
C 672 2756 211 2131 211 1347 
C 211 562 666 -64 1235 -64 
C 1677 -64 1971 172 2125 306 
L 2125 -13 
L 2611 -13 
L 2611 4416 
z
M 2125 836 
C 2125 747 2125 653 1926 482 
C 1798 375 1645 325 1498 325 
C 1152 325 698 576 698 1340 
C 698 2134 1210 2368 1562 2368 
C 1798 2368 1990 2254 2125 2065 
L 2125 836 
z
" transform="scale(0.015625)"/>
       <path id="CMSS17-6e" d="M 2618 1877 
C 2618 2283 2522 2816 1798 2816 
C 1389 2816 1120 2606 941 2389 
L 941 2758 
L 474 2758 
L 474 0 
L 960 0 
L 960 1559 
C 960 1964 1114 2428 1549 2428 
C 2112 2428 2131 2048 2131 1829 
L 2131 0 
L 2618 0 
L 2618 1877 
z
" transform="scale(0.015625)"/>
       <path id="CMSS17-25" d="M 3923 4583 
C 3962 4647 3962 4679 3962 4685 
C 3962 4755 3904 4800 3853 4800 
C 3782 4800 3750 4749 3718 4685 
L 1101 -104 
C 1088 -129 1062 -167 1062 -206 
C 1062 -276 1120 -320 1178 -320 
C 1235 -320 1248 -295 1299 -206 
L 3923 4583 
z
M 4678 959 
C 4678 1698 4282 2240 3846 2240 
C 3418 2240 3008 1711 3008 959 
C 3008 208 3418 -320 3846 -320 
C 4288 -320 4678 221 4678 959 
z
M 3846 68 
C 3712 68 3494 189 3494 959 
C 3494 1724 3712 1851 3846 1851 
C 4083 1851 4211 1386 4211 959 
C 4211 533 4083 68 3846 68 
z
M 2003 3519 
C 2003 4258 1606 4800 1171 4800 
C 742 4800 333 4271 333 3519 
C 333 2768 742 2240 1171 2240 
C 1613 2240 2003 2781 2003 3519 
z
M 1171 2628 
C 1037 2628 819 2749 819 3519 
C 819 4284 1037 4411 1171 4411 
C 1408 4411 1536 3946 1536 3519 
C 1536 3093 1408 2628 1171 2628 
z
" transform="scale(0.015625)"/>
      </defs>
      <use xlink:href="#CMSS17-43" transform="scale(0.996264)"/>
      <use xlink:href="#CMSS17-50" transform="translate(59.855772 0) scale(0.996264)"/>
      <use xlink:href="#CMSS17-55" transform="translate(119.591358 0) scale(0.996264)"/>
      <use xlink:href="#CMSS17-6c" transform="translate(214.960211 0) scale(0.996264)"/>
      <use xlink:href="#CMSS17-6f" transform="translate(237.140934 0) scale(0.996264)"/>
      <use xlink:href="#CMSS17-61" transform="translate(283.984557 0) scale(0.996264)"/>
      <use xlink:href="#CMSS17-64" transform="translate(328.906478 0) scale(0.996264)"/>
      <use xlink:href="#CMSS17-69" transform="translate(408.340534 0) scale(0.996264)"/>
      <use xlink:href="#CMSS17-6e" transform="translate(430.521257 0) scale(0.996264)"/>
      <use xlink:href="#CMSS17-25" transform="translate(509.955313 0) scale(0.996264)"/>
     </g>
    </g>
   </g>
   <g id="line2d_28">
    <path d="M 92.290909 112.603898 
L 498.109091 112.603898 
L 498.109091 112.603898 
" clip-path="url(#p1287f532a7)" style="fill: none; stroke-dasharray: 5.55,2.4; stroke-dashoffset: 0; stroke: #140e36; stroke-width: 1.5"/>
   </g>
   <g id="line2d_29">
    <path d="M 92.290909 47.987622 
L 180.463105 47.987622 
L 181.593517 47.871256 
L 248.28787 47.804762 
L 251.679109 47.754891 
L 310.460572 47.754891 
L 311.590985 47.904504 
L 316.112636 47.904504 
L 317.243049 47.754891 
L 371.502861 47.754891 
L 372.633274 48.153859 
L 377.154925 48.153859 
L 378.285338 47.771514 
L 432.545151 47.771514 
L 433.675563 52.57576 
L 439.327627 52.57576 
L 440.45804 47.871256 
L 498.109091 47.871256 
L 498.109091 47.871256 
" clip-path="url(#p1287f532a7)" style="fill: none; stroke-dasharray: 5.55,2.4; stroke-dashoffset: 0; stroke: #fecf92; stroke-width: 1.5"/>
   </g>
   <g id="patch_6">
    <path d="M 72 320.4 
L 72 43.2 
" style="fill: none; stroke: #000000; stroke-width: 0.8; stroke-linejoin: miter; stroke-linecap: square"/>
   </g>
   <g id="patch_7">
    <path d="M 518.4 320.4 
L 518.4 43.2 
" style="fill: none; stroke: #000000; stroke-width: 0.8; stroke-linejoin: miter; stroke-linecap: square"/>
   </g>
   <g id="patch_8">
    <path d="M 72 320.4 
L 518.4 320.4 
" style="fill: none; stroke: #000000; stroke-width: 0.8; stroke-linejoin: miter; stroke-linecap: square"/>
   </g>
   <g id="patch_9">
    <path d="M 72 43.2 
L 518.4 43.2 
" style="fill: none; stroke: #000000; stroke-width: 0.8; stroke-linejoin: miter; stroke-linecap: square"/>
   </g>
   <g id="legend_1">
    <g id="patch_10">
     <path d="M 347.090605 313.15 
L 508.25 313.15 
Q 511.15 313.15 511.15 310.25 
L 511.15 224.916687 
Q 511.15 222.016687 508.25 222.016687 
L 347.090605 222.016687 
Q 344.190605 222.016687 344.190605 224.916687 
L 344.190605 310.25 
Q 344.190605 313.15 347.090605 313.15 
z
" style="fill: #ffffff; opacity: 0.7; stroke: #cccccc; stroke-linejoin: miter"/>
    </g>
    <g id="line2d_30">
     <path d="M 349.990605 233.576059 
L 364.490605 233.576059 
L 378.990605 233.576059 
" style="fill: none; stroke: #482475; stroke-width: 2.5; stroke-linecap: square"/>
    </g>
    <g id="text_24">
     <!-- QoS [static] -->
     <g transform="translate(390.590605 238.651059) scale(0.145 -0.145)">
      <defs>
       <path id="CMSS17-5b" d="M 1613 -1600 
L 1613 -1212 
L 1062 -1212 
L 1062 4352 
L 1613 4352 
L 1613 4741 
L 595 4741 
L 595 -1600 
L 1613 -1600 
z
" transform="scale(0.015625)"/>
       <path id="CMSS17-63" d="M 2464 2541 
C 2464 2585 2170 2714 2093 2739 
C 1882 2816 1613 2816 1542 2816 
C 710 2816 211 2093 211 1363 
C 211 595 768 -64 1517 -64 
C 1946 -64 2253 76 2502 242 
L 2464 664 
C 2189 453 1869 337 1523 337 
C 1024 337 698 774 698 1369 
C 698 1831 909 2414 1549 2414 
C 1901 2414 2099 2343 2394 2145 
L 2464 2541 
z
" transform="scale(0.015625)"/>
       <path id="CMSS17-5d" d="M 1146 4741 
L 128 4741 
L 128 4352 
L 678 4352 
L 678 -1212 
L 128 -1212 
L 128 -1600 
L 1146 -1600 
L 1146 4741 
z
" transform="scale(0.015625)"/>
      </defs>
      <use xlink:href="#CMSS17-51" transform="scale(0.996264)"/>
      <use xlink:href="#CMSS17-6f" transform="translate(69.024255 0) scale(0.996264)"/>
      <use xlink:href="#CMSS17-53" transform="translate(115.867879 0) scale(0.996264)"/>
      <use xlink:href="#CMSS17-5b" transform="translate(199.145508 0) scale(0.996264)"/>
      <use xlink:href="#CMSS17-73" transform="translate(226.330946 0) scale(0.996264)"/>
      <use xlink:href="#CMSS17-74" transform="translate(262.244488 0) scale(0.996264)"/>
      <use xlink:href="#CMSS17-61" transform="translate(296.076055 0) scale(0.996264)"/>
      <use xlink:href="#CMSS17-74" transform="translate(340.997976 0) scale(0.996264)"/>
      <use xlink:href="#CMSS17-69" transform="translate(374.829542 0) scale(0.996264)"/>
      <use xlink:href="#CMSS17-63" transform="translate(397.010265 0) scale(0.996264)"/>
      <use xlink:href="#CMSS17-5d" transform="translate(438.649088 0) scale(0.996264)"/>
     </g>
    </g>
    <g id="line2d_31">
     <path d="M 349.990605 255.271887 
L 364.490605 255.271887 
L 378.990605 255.271887 
" style="fill: none; stroke: #bddf26; stroke-width: 2.5; stroke-linecap: square"/>
    </g>
    <g id="text_25">
     <!-- QoS [dynamic] -->
     <g transform="translate(390.590605 260.346887) scale(0.145 -0.145)">
      <defs>
       <path id="CMSS17-79" d="M 2675 2752 
L 2176 2752 
C 1632 1294 1446 702 1434 383 
L 1427 383 
C 1408 696 1126 1460 902 2007 
L 602 2752 
L 83 2752 
L 1216 13 
C 1146 -178 1043 -465 1011 -529 
C 870 -885 774 -885 672 -885 
C 646 -885 442 -885 211 -809 
L 250 -1229 
C 410 -1261 570 -1280 685 -1280 
C 845 -1280 1165 -1280 1459 -497 
L 2675 2752 
z
" transform="scale(0.015625)"/>
      </defs>
      <use xlink:href="#CMSS17-51" transform="scale(0.996264)"/>
      <use xlink:href="#CMSS17-6f" transform="translate(69.024255 0) scale(0.996264)"/>
      <use xlink:href="#CMSS17-53" transform="translate(115.867879 0) scale(0.996264)"/>
      <use xlink:href="#CMSS17-5b" transform="translate(199.145508 0) scale(0.996264)"/>
      <use xlink:href="#CMSS17-64" transform="translate(226.330946 0) scale(0.996264)"/>
      <use xlink:href="#CMSS17-79" transform="translate(274.53589 0) scale(0.996264)"/>
      <use xlink:href="#CMSS17-6e" transform="translate(317.536031 0) scale(0.996264)"/>
      <use xlink:href="#CMSS17-61" transform="translate(365.740974 0) scale(0.996264)"/>
      <use xlink:href="#CMSS17-6d" transform="translate(410.662895 0) scale(0.996264)"/>
      <use xlink:href="#CMSS17-69" transform="translate(484.892149 0) scale(0.996264)"/>
      <use xlink:href="#CMSS17-63" transform="translate(507.072872 0) scale(0.996264)"/>
      <use xlink:href="#CMSS17-5d" transform="translate(548.711695 0) scale(0.996264)"/>
     </g>
    </g>
    <g id="line2d_32">
     <path d="M 349.990605 276.967715 
L 364.490605 276.967715 
L 378.990605 276.967715 
" style="fill: none; stroke-dasharray: 5.55,2.4; stroke-dashoffset: 0; stroke: #140e36; stroke-width: 1.5"/>
    </g>
    <g id="text_26">
     <!-- Load driver (right) -->
     <g transform="translate(390.590605 282.042715) scale(0.145 -0.145)">
      <defs>
       <path id="CMSS17-4c" d="M 1670 414 
C 1594 414 1517 414 1440 414 
L 1101 414 
L 1101 4416 
L 563 4416 
L 563 0 
L 3002 0 
L 3002 414 
L 1670 414 
z
" transform="scale(0.015625)"/>
       <path id="CMSS17-72" d="M 954 1363 
C 954 1965 1395 2368 1958 2368 
L 1958 2789 
C 1549 2789 1165 2585 934 2253 
L 934 2758 
L 480 2758 
L 480 0 
L 954 0 
L 954 1363 
z
" transform="scale(0.015625)"/>
       <path id="CMSS17-76" d="M 2675 2752 
L 2176 2752 
L 1747 1556 
C 1613 1165 1421 627 1389 352 
L 1382 352 
C 1370 468 1318 634 1286 749 
C 1248 890 1197 1056 1158 1172 
L 595 2752 
L 83 2752 
L 1094 0 
L 1664 0 
L 2675 2752 
z
" transform="scale(0.015625)"/>
       <path id="CMSS17-67" d="M 2848 2808 
C 2483 2808 2170 2738 1914 2617 
C 1702 2777 1485 2808 1338 2808 
C 781 2808 358 2349 358 1814 
C 358 1468 550 1207 563 1195 
C 448 1035 384 863 384 672 
C 384 448 474 289 544 200 
C 211 -3 166 -314 166 -435 
C 166 -898 749 -1280 1498 -1280 
C 2253 -1280 2835 -898 2835 -428 
C 2835 448 1856 448 1587 448 
L 1069 448 
C 973 448 717 448 717 791 
C 717 921 774 1004 781 1010 
C 877 940 1075 832 1338 832 
C 1869 832 2310 1278 2310 1827 
C 2310 2132 2170 2355 2112 2432 
L 2131 2432 
C 2150 2432 2419 2432 2515 2432 
C 2720 2432 2739 2429 2918 2419 
L 2848 2808 
z
M 1338 1182 
C 1120 1182 813 1315 813 1823 
C 813 2375 1165 2464 1331 2464 
C 1549 2464 1856 2331 1856 1823 
C 1856 1271 1504 1182 1338 1182 
z
M 1581 -10 
C 1734 -10 2381 -10 2381 -442 
C 2381 -714 1984 -929 1504 -929 
C 1018 -929 621 -720 621 -435 
C 621 -403 621 -10 1062 -10 
L 1581 -10 
z
" transform="scale(0.015625)"/>
       <path id="CMSS17-68" d="M 2618 1891 
C 2618 2292 2522 2820 1798 2820 
C 1395 2820 1133 2623 947 2407 
L 947 4448 
L 474 4448 
L 474 32 
L 960 32 
L 960 1573 
C 960 1973 1114 2432 1549 2432 
C 2112 2432 2131 2056 2131 1839 
L 2131 32 
L 2618 32 
L 2618 1891 
z
" transform="scale(0.015625)"/>
      </defs>
      <use xlink:href="#CMSS17-4c" transform="scale(0.996264)"/>
      <use xlink:href="#CMSS17-6f" transform="translate(50.687105 0) scale(0.996264)"/>
      <use xlink:href="#CMSS17-61" transform="translate(97.530729 0) scale(0.996264)"/>
      <use xlink:href="#CMSS17-64" transform="translate(142.452649 0) scale(0.996264)"/>
      <use xlink:href="#CMSS17-64" transform="translate(221.886705 0) scale(0.996264)"/>
      <use xlink:href="#CMSS17-72" transform="translate(270.091649 0) scale(0.996264)"/>
      <use xlink:href="#CMSS17-69" transform="translate(302.001421 0) scale(0.996264)"/>
      <use xlink:href="#CMSS17-76" transform="translate(324.182144 0) scale(0.996264)"/>
      <use xlink:href="#CMSS17-65" transform="translate(367.182286 0) scale(0.996264)"/>
      <use xlink:href="#CMSS17-72" transform="translate(408.821108 0) scale(0.996264)"/>
      <use xlink:href="#CMSS17-28" transform="translate(471.959993 0) scale(0.996264)"/>
      <use xlink:href="#CMSS17-72" transform="translate(508.393907 0) scale(0.996264)"/>
      <use xlink:href="#CMSS17-69" transform="translate(540.30368 0) scale(0.996264)"/>
      <use xlink:href="#CMSS17-67" transform="translate(562.484403 0) scale(0.996264)"/>
      <use xlink:href="#CMSS17-68" transform="translate(609.328026 0) scale(0.996264)"/>
      <use xlink:href="#CMSS17-74" transform="translate(657.53297 0) scale(0.996264)"/>
      <use xlink:href="#CMSS17-29" transform="translate(691.364536 0) scale(0.996264)"/>
     </g>
    </g>
    <g id="line2d_33">
     <path d="M 349.990605 298.663543 
L 364.490605 298.663543 
L 378.990605 298.663543 
" style="fill: none; stroke-dasharray: 5.55,2.4; stroke-dashoffset: 0; stroke: #fecf92; stroke-width: 1.5"/>
    </g>
    <g id="text_27">
     <!-- System load (right) -->
     <g transform="translate(390.590605 303.738543) scale(0.145 -0.145)">
      <use xlink:href="#CMSS17-53" transform="scale(0.996264)"/>
      <use xlink:href="#CMSS17-79" transform="translate(52.048516 0) scale(0.996264)"/>
      <use xlink:href="#CMSS17-73" transform="translate(95.048658 0) scale(0.996264)"/>
      <use xlink:href="#CMSS17-74" transform="translate(130.9622 0) scale(0.996264)"/>
      <use xlink:href="#CMSS17-65" transform="translate(164.793767 0) scale(0.996264)"/>
      <use xlink:href="#CMSS17-6d" transform="translate(206.432589 0) scale(0.996264)"/>
      <use xlink:href="#CMSS17-6c" transform="translate(311.890956 0) scale(0.996264)"/>
      <use xlink:href="#CMSS17-6f" transform="translate(334.071679 0) scale(0.996264)"/>
      <use xlink:href="#CMSS17-61" transform="translate(380.915302 0) scale(0.996264)"/>
      <use xlink:href="#CMSS17-64" transform="translate(425.837223 0) scale(0.996264)"/>
      <use xlink:href="#CMSS17-28" transform="translate(505.271279 0) scale(0.996264)"/>
      <use xlink:href="#CMSS17-72" transform="translate(541.705193 0) scale(0.996264)"/>
      <use xlink:href="#CMSS17-69" transform="translate(573.614966 0) scale(0.996264)"/>
      <use xlink:href="#CMSS17-67" transform="translate(595.795689 0) scale(0.996264)"/>
      <use xlink:href="#CMSS17-68" transform="translate(642.639312 0) scale(0.996264)"/>
      <use xlink:href="#CMSS17-74" transform="translate(690.844255 0) scale(0.996264)"/>
      <use xlink:href="#CMSS17-29" transform="translate(724.675822 0) scale(0.996264)"/>
     </g>
    </g>
   </g>
  </g>
 </g>
 <defs>
  <clipPath id="p1287f532a7">
   <rect x="72" y="43.2" width="446.4" height="277.2"/>
  </clipPath>
 </defs>
</svg>
