<?xml version="1.0" encoding="utf-8" standalone="no"?>
<!DOCTYPE svg PUBLIC "-//W3C//DTD SVG 1.1//EN"
  "http://www.w3.org/Graphics/SVG/1.1/DTD/svg11.dtd">
<svg xmlns:xlink="http://www.w3.org/1999/xlink" width="576pt" height="360pt" viewBox="0 0 576 360" xmlns="http://www.w3.org/2000/svg" version="1.1">
 <metadata>
  <rdf:RDF xmlns:dc="http://purl.org/dc/elements/1.1/" xmlns:cc="http://creativecommons.org/ns#" xmlns:rdf="http://www.w3.org/1999/02/22-rdf-syntax-ns#">
   <cc:Work>
    <dc:type rdf:resource="http://purl.org/dc/dcmitype/StillImage"/>
    <dc:date>2023-12-15T16:06:04.367761</dc:date>
    <dc:format>image/svg+xml</dc:format>
    <dc:creator>
     <cc:Agent>
      <dc:title>Matplotlib v3.8.0, https://matplotlib.org/</dc:title>
     </cc:Agent>
    </dc:creator>
   </cc:Work>
  </rdf:RDF>
 </metadata>
 <defs>
  <style type="text/css">*{stroke-linejoin: round; stroke-linecap: butt}</style>
 </defs>
 <g id="figure_1">
  <g id="patch_1">
   <path d="M 0 360 
L 576 360 
L 576 0 
L 0 0 
z
" style="fill: #ffffff"/>
  </g>
  <g id="axes_1">
   <g id="patch_2">
    <path d="M 72 320.4 
L 518.4 320.4 
L 518.4 43.2 
L 72 43.2 
z
" style="fill: #ffffff"/>
   </g>
   <g id="PolyCollection_1">
    <defs>
     <path id="m56497002df" d="M 92.290909 -55.402693 
L 92.290909 -57.366966 
L 93.421322 -57.366966 
L 94.551735 -57.366966 
L 95.682147 -57.366966 
L 96.81256 -57.366966 
L 97.942973 -57.366966 
L 99.073386 -57.366966 
L 100.203798 -57.366966 
L 101.334211 -57.366966 
L 102.464624 -57.366966 
L 103.595037 -57.366966 
L 104.725449 -57.366966 
L 105.855862 -57.366966 
L 106.986275 -57.366966 
L 108.116688 -57.366966 
L 109.247101 -57.366966 
L 110.377513 -57.366966 
L 111.507926 -57.366966 
L 112.638339 -57.366966 
L 113.768752 -57.366966 
L 114.899164 -57.366966 
L 116.029577 -57.366966 
L 117.15999 -57.366966 
L 118.290403 -57.366966 
L 119.420815 -57.366966 
L 120.551228 -57.366966 
L 121.681641 -57.366966 
L 122.812054 -57.366966 
L 123.942466 -57.366966 
L 125.072879 -57.366966 
L 126.203292 -57.366966 
L 127.333705 -57.366966 
L 128.464117 -57.366966 
L 129.59453 -57.366966 
L 130.724943 -57.366966 
L 131.855356 -57.366966 
L 132.985769 -57.366966 
L 134.116181 -57.366966 
L 135.246594 -57.366966 
L 136.377007 -57.366966 
L 137.50742 -57.366966 
L 138.637832 -57.366966 
L 139.768245 -57.366966 
L 140.898658 -57.366966 
L 142.029071 -57.366966 
L 143.159483 -57.366966 
L 144.289896 -57.366966 
L 145.420309 -87.101577 
L 146.550722 -87.101577 
L 147.681134 -87.101577 
L 148.811547 -87.101577 
L 149.94196 -87.101577 
L 151.072373 -105.049555 
L 152.202786 -105.049555 
L 153.333198 -105.049555 
L 154.463611 -105.049555 
L 155.594024 -105.049555 
L 156.724437 -105.049555 
L 157.854849 -105.349226 
L 158.985262 -105.349226 
L 160.115675 -105.349226 
L 161.246088 -105.349226 
L 162.3765 -105.349226 
L 163.506913 -105.349226 
L 164.637326 -105.349226 
L 165.767739 -105.349226 
L 166.898151 -105.349226 
L 168.028564 -105.349226 
L 169.158977 -105.349226 
L 170.28939 -105.349226 
L 171.419802 -105.349226 
L 172.550215 -105.349226 
L 173.680628 -105.349226 
L 174.811041 -105.349226 
L 175.941454 -105.349226 
L 177.071866 -105.349226 
L 178.202279 -105.349226 
L 179.332692 -105.349226 
L 180.463105 -105.349226 
L 181.593517 -105.349226 
L 182.72393 -105.349226 
L 183.854343 -105.349226 
L 184.984756 -105.349226 
L 186.115168 -105.349226 
L 187.245581 -105.349226 
L 188.375994 -105.349226 
L 189.506407 -105.349226 
L 190.636819 -105.349226 
L 191.767232 -105.349226 
L 192.897645 -105.349226 
L 194.028058 -105.349226 
L 195.15847 -105.349226 
L 196.288883 -105.349226 
L 197.419296 -105.349226 
L 198.549709 -105.349226 
L 199.680122 -105.349226 
L 200.810534 -105.349226 
L 201.940947 -105.349226 
L 203.07136 -105.349226 
L 204.201773 -105.349226 
L 205.332185 -105.349226 
L 206.462598 -105.349226 
L 207.593011 -105.349226 
L 208.723424 -105.349226 
L 209.853836 -105.349226 
L 210.984249 -105.349226 
L 212.114662 -105.349226 
L 213.245075 -105.349226 
L 214.375487 -105.349226 
L 215.5059 -105.349226 
L 216.636313 -105.349226 
L 217.766726 -105.349226 
L 218.897139 -105.321882 
L 220.027551 -105.321882 
L 221.157964 -105.321882 
L 222.288377 -105.321882 
L 223.41879 -105.321882 
L 224.549202 -105.349226 
L 225.679615 -105.349226 
L 226.810028 -105.349226 
L 227.940441 -105.349226 
L 229.070853 -105.349226 
L 230.201266 -105.349226 
L 231.331679 -104.130023 
L 232.462092 -104.130023 
L 233.592504 -104.130023 
L 234.722917 -104.130023 
L 235.85333 -104.130023 
L 236.983743 -83.124832 
L 238.114155 -83.124832 
L 239.244568 -83.124832 
L 240.374981 -83.124832 
L 241.505394 -83.124832 
L 242.635807 -83.124832 
L 243.766219 -81.769062 
L 244.896632 -81.769062 
L 246.027045 -81.769062 
L 247.157458 -81.769062 
L 248.28787 -81.769062 
L 249.418283 -81.731835 
L 250.548696 -81.731835 
L 251.679109 -81.731835 
L 252.809521 -81.731835 
L 253.939934 -81.731835 
L 255.070347 -81.731835 
L 256.20076 -81.731835 
L 257.331172 -81.731835 
L 258.461585 -81.731835 
L 259.591998 -81.731835 
L 260.722411 -81.731835 
L 261.852823 -81.731835 
L 262.983236 -81.731835 
L 264.113649 -81.731835 
L 265.244062 -81.731835 
L 266.374475 -81.731835 
L 267.504887 -81.731835 
L 268.6353 -81.731835 
L 269.765713 -81.731835 
L 270.896126 -81.731835 
L 272.026538 -81.731835 
L 273.156951 -81.731835 
L 274.287364 -81.667139 
L 275.417777 -81.667139 
L 276.548189 -81.667139 
L 277.678602 -81.667139 
L 278.809015 -81.667139 
L 279.939428 -81.712614 
L 281.06984 -81.712614 
L 282.200253 -81.712614 
L 283.330666 -81.712614 
L 284.461079 -81.712614 
L 285.591492 -81.712614 
L 286.721904 -81.731835 
L 287.852317 -81.731835 
L 288.98273 -81.731835 
L 290.113143 -81.731835 
L 291.243555 -81.731835 
L 292.373968 -81.731835 
L 293.504381 -81.731835 
L 294.634794 -81.731835 
L 295.765206 -81.731835 
L 296.895619 -81.731835 
L 298.026032 -81.731835 
L 299.156445 -81.731835 
L 300.286857 -81.731835 
L 301.41727 -81.731835 
L 302.547683 -81.731835 
L 303.678096 -81.731835 
L 304.808508 -81.731835 
L 305.938921 -81.731835 
L 307.069334 -81.731835 
L 308.199747 -81.731835 
L 309.33016 -81.731835 
L 310.460572 -81.731835 
L 311.590985 -81.731835 
L 312.721398 -81.731835 
L 313.851811 -81.731835 
L 314.982223 -81.731835 
L 316.112636 -81.731835 
L 317.243049 -81.696946 
L 318.373462 -81.696946 
L 319.503874 -81.696946 
L 320.634287 -81.696946 
L 321.7647 -81.696946 
L 322.895113 -118.733965 
L 324.025525 -118.733965 
L 325.155938 -118.733965 
L 326.286351 -118.733965 
L 327.416764 -118.733965 
L 328.547177 -118.733965 
L 329.677589 -127.305015 
L 330.808002 -127.305015 
L 331.938415 -127.305015 
L 333.068828 -127.305015 
L 334.19924 -127.305015 
L 335.329653 -127.42523 
L 336.460066 -127.42523 
L 337.590479 -127.42523 
L 338.720891 -127.42523 
L 339.851304 -127.42523 
L 340.981717 -127.42523 
L 342.11213 -127.42523 
L 343.242542 -127.42523 
L 344.372955 -127.42523 
L 345.503368 -127.42523 
L 346.633781 -127.42523 
L 347.764193 -127.42523 
L 348.894606 -127.42523 
L 350.025019 -127.42523 
L 351.155432 -127.42523 
L 352.285845 -127.42523 
L 353.416257 -127.42523 
L 354.54667 -127.42523 
L 355.677083 -127.42523 
L 356.807496 -127.42523 
L 357.937908 -127.42523 
L 359.068321 -127.42523 
L 360.198734 -127.438129 
L 361.329147 -127.438129 
L 362.459559 -127.438129 
L 363.589972 -127.438129 
L 364.720385 -127.438129 
L 365.850798 -127.438129 
L 366.98121 -127.379252 
L 368.111623 -127.379252 
L 369.242036 -127.379252 
L 370.372449 -127.379252 
L 371.502861 -127.379252 
L 372.633274 -127.42523 
L 373.763687 -127.42523 
L 374.8941 -127.42523 
L 376.024513 -127.42523 
L 377.154925 -127.42523 
L 378.285338 -127.42523 
L 379.415751 -127.42523 
L 380.546164 -127.42523 
L 381.676576 -127.42523 
L 382.806989 -127.42523 
L 383.937402 -127.42523 
L 385.067815 -127.42523 
L 386.198227 -127.42523 
L 387.32864 -127.42523 
L 388.459053 -127.42523 
L 389.589466 -127.42523 
L 390.719878 -127.42523 
L 391.850291 -127.42523 
L 392.980704 -127.42523 
L 394.111117 -127.42523 
L 395.24153 -127.42523 
L 396.371942 -127.42523 
L 397.502355 -127.350839 
L 398.632768 -127.350839 
L 399.763181 -127.350839 
L 400.893593 -127.350839 
L 402.024006 -127.350839 
L 403.154419 -127.437725 
L 404.284832 -127.437725 
L 405.415244 -127.437725 
L 406.545657 -127.437725 
L 407.67607 -127.437725 
L 408.806483 -127.437725 
L 409.936895 -124.716011 
L 411.067308 -124.716011 
L 412.197721 -124.716011 
L 413.328134 -124.716011 
L 414.458546 -124.716011 
L 415.588959 -117.099237 
L 416.719372 -117.099237 
L 417.849785 -117.099237 
L 418.980198 -117.099237 
L 420.11061 -117.099237 
L 421.241023 -117.099237 
L 422.371436 -116.907647 
L 423.501849 -116.907647 
L 424.632261 -116.907647 
L 425.762674 -116.907647 
L 426.893087 -116.907647 
L 428.0235 -116.869187 
L 429.153912 -116.869187 
L 430.284325 -116.869187 
L 431.414738 -116.869187 
L 432.545151 -116.869187 
L 433.675563 -116.907647 
L 434.805976 -116.907647 
L 435.936389 -116.907647 
L 437.066802 -116.907647 
L 438.197214 -116.907647 
L 439.327627 -116.907647 
L 440.45804 -116.907647 
L 441.588453 -116.907647 
L 442.718866 -116.907647 
L 443.849278 -116.907647 
L 444.979691 -116.907647 
L 446.110104 -116.937062 
L 447.240517 -116.937062 
L 448.370929 -116.937062 
L 449.501342 -116.937062 
L 450.631755 -116.937062 
L 451.762168 -116.937062 
L 452.89258 -116.855288 
L 454.022993 -116.855288 
L 455.153406 -116.855288 
L 456.283819 -116.855288 
L 457.414231 -116.855288 
L 458.544644 -116.907647 
L 459.675057 -116.907647 
L 460.80547 -116.907647 
L 461.935883 -116.907647 
L 463.066295 -116.907647 
L 464.196708 -116.907647 
L 465.327121 -116.907647 
L 466.457534 -116.907647 
L 467.587946 -116.907647 
L 468.718359 -116.907647 
L 469.848772 -116.907647 
L 470.979185 -116.907647 
L 472.109597 -116.907647 
L 473.24001 -116.907647 
L 474.370423 -116.907647 
L 475.500836 -116.907647 
L 476.631248 -116.907647 
L 477.761661 -116.907647 
L 478.892074 -116.907647 
L 480.022487 -116.907647 
L 481.152899 -116.907647 
L 482.283312 -116.907647 
L 483.413725 -116.887075 
L 484.544138 -116.887075 
L 485.674551 -116.887075 
L 486.804963 -116.887075 
L 487.935376 -116.887075 
L 489.065789 -116.907647 
L 490.196202 -116.907647 
L 491.326614 -116.907647 
L 492.457027 -116.907647 
L 493.58744 -116.907647 
L 494.717853 -116.907647 
L 495.848265 -116.907647 
L 496.978678 -116.907647 
L 498.109091 -116.907647 
L 498.109091 -110.576929 
L 498.109091 -110.576929 
L 496.978678 -110.576929 
L 495.848265 -110.576929 
L 494.717853 -110.576929 
L 493.58744 -110.576929 
L 492.457027 -110.576929 
L 491.326614 -110.576929 
L 490.196202 -110.576929 
L 489.065789 -110.576929 
L 487.935376 -110.542061 
L 486.804963 -110.542061 
L 485.674551 -110.542061 
L 484.544138 -110.542061 
L 483.413725 -110.542061 
L 482.283312 -110.576929 
L 481.152899 -110.576929 
L 480.022487 -110.576929 
L 478.892074 -110.576929 
L 477.761661 -110.576929 
L 476.631248 -110.576929 
L 475.500836 -110.576929 
L 474.370423 -110.576929 
L 473.24001 -110.576929 
L 472.109597 -110.576929 
L 470.979185 -110.576929 
L 469.848772 -110.576929 
L 468.718359 -110.576929 
L 467.587946 -110.576929 
L 466.457534 -110.576929 
L 465.327121 -110.576929 
L 464.196708 -110.576929 
L 463.066295 -110.576929 
L 461.935883 -110.576929 
L 460.80547 -110.576929 
L 459.675057 -110.576929 
L 458.544644 -110.576929 
L 457.414231 -110.518408 
L 456.283819 -110.518408 
L 455.153406 -110.518408 
L 454.022993 -110.518408 
L 452.89258 -110.518408 
L 451.762168 -110.603482 
L 450.631755 -110.603482 
L 449.501342 -110.603482 
L 448.370929 -110.603482 
L 447.240517 -110.603482 
L 446.110104 -110.603482 
L 444.979691 -110.576929 
L 443.849278 -110.576929 
L 442.718866 -110.576929 
L 441.588453 -110.576929 
L 440.45804 -110.576929 
L 439.327627 -110.576929 
L 438.197214 -110.576929 
L 437.066802 -110.576929 
L 435.936389 -110.576929 
L 434.805976 -110.576929 
L 433.675563 -110.576929 
L 432.545151 -110.559421 
L 431.414738 -110.559421 
L 430.284325 -110.559421 
L 429.153912 -110.559421 
L 428.0235 -110.559421 
L 426.893087 -110.576929 
L 425.762674 -110.576929 
L 424.632261 -110.576929 
L 423.501849 -110.576929 
L 422.371436 -110.576929 
L 421.241023 -110.607627 
L 420.11061 -110.607627 
L 418.980198 -110.607627 
L 417.849785 -110.607627 
L 416.719372 -110.607627 
L 415.588959 -110.607627 
L 414.458546 -117.553093 
L 413.328134 -117.553093 
L 412.197721 -117.553093 
L 411.067308 -117.553093 
L 409.936895 -117.553093 
L 408.806483 -120.388579 
L 407.67607 -120.388579 
L 406.545657 -120.388579 
L 405.415244 -120.388579 
L 404.284832 -120.388579 
L 403.154419 -120.388579 
L 402.024006 -120.308617 
L 400.893593 -120.308617 
L 399.763181 -120.308617 
L 398.632768 -120.308617 
L 397.502355 -120.308617 
L 396.371942 -120.345106 
L 395.24153 -120.345106 
L 394.111117 -120.345106 
L 392.980704 -120.345106 
L 391.850291 -120.345106 
L 390.719878 -120.345106 
L 389.589466 -120.345106 
L 388.459053 -120.345106 
L 387.32864 -120.345106 
L 386.198227 -120.345106 
L 385.067815 -120.345106 
L 383.937402 -120.345106 
L 382.806989 -120.345106 
L 381.676576 -120.345106 
L 380.546164 -120.345106 
L 379.415751 -120.345106 
L 378.285338 -120.345106 
L 377.154925 -120.345106 
L 376.024513 -120.345106 
L 374.8941 -120.345106 
L 373.763687 -120.345106 
L 372.633274 -120.345106 
L 371.502861 -120.335644 
L 370.372449 -120.335644 
L 369.242036 -120.335644 
L 368.111623 -120.335644 
L 366.98121 -120.335644 
L 365.850798 -120.276767 
L 364.720385 -120.276767 
L 363.589972 -120.276767 
L 362.459559 -120.276767 
L 361.329147 -120.276767 
L 360.198734 -120.276767 
L 359.068321 -120.345106 
L 357.937908 -120.345106 
L 356.807496 -120.345106 
L 355.677083 -120.345106 
L 354.54667 -120.345106 
L 353.416257 -120.345106 
L 352.285845 -120.345106 
L 351.155432 -120.345106 
L 350.025019 -120.345106 
L 348.894606 -120.345106 
L 347.764193 -120.345106 
L 346.633781 -120.345106 
L 345.503368 -120.345106 
L 344.372955 -120.345106 
L 343.242542 -120.345106 
L 342.11213 -120.345106 
L 340.981717 -120.345106 
L 339.851304 -120.345106 
L 338.720891 -120.345106 
L 337.590479 -120.345106 
L 336.460066 -120.345106 
L 335.329653 -120.345106 
L 334.19924 -120.354441 
L 333.068828 -120.354441 
L 331.938415 -120.354441 
L 330.808002 -120.354441 
L 329.677589 -120.354441 
L 328.547177 -111.363683 
L 327.416764 -111.363683 
L 326.286351 -111.363683 
L 325.155938 -111.363683 
L 324.025525 -111.363683 
L 322.895113 -111.363683 
L 321.7647 -77.925902 
L 320.634287 -77.925902 
L 319.503874 -77.925902 
L 318.373462 -77.925902 
L 317.243049 -77.925902 
L 316.112636 -78.002421 
L 314.982223 -78.002421 
L 313.851811 -78.002421 
L 312.721398 -78.002421 
L 311.590985 -78.002421 
L 310.460572 -78.002421 
L 309.33016 -78.002421 
L 308.199747 -78.002421 
L 307.069334 -78.002421 
L 305.938921 -78.002421 
L 304.808508 -78.002421 
L 303.678096 -78.002421 
L 302.547683 -78.002421 
L 301.41727 -78.002421 
L 300.286857 -78.002421 
L 299.156445 -78.002421 
L 298.026032 -78.002421 
L 296.895619 -78.002421 
L 295.765206 -78.002421 
L 294.634794 -78.002421 
L 293.504381 -78.002421 
L 292.373968 -78.002421 
L 291.243555 -78.002421 
L 290.113143 -78.002421 
L 288.98273 -78.002421 
L 287.852317 -78.002421 
L 286.721904 -78.002421 
L 285.591492 -77.965674 
L 284.461079 -77.965674 
L 283.330666 -77.965674 
L 282.200253 -77.965674 
L 281.06984 -77.965674 
L 279.939428 -77.965674 
L 278.809015 -77.955709 
L 277.678602 -77.955709 
L 276.548189 -77.955709 
L 275.417777 -77.955709 
L 274.287364 -77.955709 
L 273.156951 -78.002421 
L 272.026538 -78.002421 
L 270.896126 -78.002421 
L 269.765713 -78.002421 
L 268.6353 -78.002421 
L 267.504887 -78.002421 
L 266.374475 -78.002421 
L 265.244062 -78.002421 
L 264.113649 -78.002421 
L 262.983236 -78.002421 
L 261.852823 -78.002421 
L 260.722411 -78.002421 
L 259.591998 -78.002421 
L 258.461585 -78.002421 
L 257.331172 -78.002421 
L 256.20076 -78.002421 
L 255.070347 -78.002421 
L 253.939934 -78.002421 
L 252.809521 -78.002421 
L 251.679109 -78.002421 
L 250.548696 -78.002421 
L 249.418283 -78.002421 
L 248.28787 -78.020634 
L 247.157458 -78.020634 
L 246.027045 -78.020634 
L 244.896632 -78.020634 
L 243.766219 -78.020634 
L 242.635807 -79.05512 
L 241.505394 -79.05512 
L 240.374981 -79.05512 
L 239.244568 -79.05512 
L 238.114155 -79.05512 
L 236.983743 -79.05512 
L 235.85333 -98.288281 
L 234.722917 -98.288281 
L 233.592504 -98.288281 
L 232.462092 -98.288281 
L 231.331679 -98.288281 
L 230.201266 -99.90391 
L 229.070853 -99.90391 
L 227.940441 -99.90391 
L 226.810028 -99.90391 
L 225.679615 -99.90391 
L 224.549202 -99.90391 
L 223.41879 -99.875286 
L 222.288377 -99.875286 
L 221.157964 -99.875286 
L 220.027551 -99.875286 
L 218.897139 -99.875286 
L 217.766726 -99.90391 
L 216.636313 -99.90391 
L 215.5059 -99.90391 
L 214.375487 -99.90391 
L 213.245075 -99.90391 
L 212.114662 -99.90391 
L 210.984249 -99.90391 
L 209.853836 -99.90391 
L 208.723424 -99.90391 
L 207.593011 -99.90391 
L 206.462598 -99.90391 
L 205.332185 -99.90391 
L 204.201773 -99.90391 
L 203.07136 -99.90391 
L 201.940947 -99.90391 
L 200.810534 -99.90391 
L 199.680122 -99.90391 
L 198.549709 -99.90391 
L 197.419296 -99.90391 
L 196.288883 -99.90391 
L 195.15847 -99.90391 
L 194.028058 -99.90391 
L 192.897645 -99.90391 
L 191.767232 -99.90391 
L 190.636819 -99.90391 
L 189.506407 -99.90391 
L 188.375994 -99.90391 
L 187.245581 -99.90391 
L 186.115168 -99.90391 
L 184.984756 -99.90391 
L 183.854343 -99.90391 
L 182.72393 -99.90391 
L 181.593517 -99.90391 
L 180.463105 -99.90391 
L 179.332692 -99.90391 
L 178.202279 -99.90391 
L 177.071866 -99.90391 
L 175.941454 -99.90391 
L 174.811041 -99.90391 
L 173.680628 -99.90391 
L 172.550215 -99.90391 
L 171.419802 -99.90391 
L 170.28939 -99.90391 
L 169.158977 -99.90391 
L 168.028564 -99.90391 
L 166.898151 -99.90391 
L 165.767739 -99.90391 
L 164.637326 -99.90391 
L 163.506913 -99.90391 
L 162.3765 -99.90391 
L 161.246088 -99.90391 
L 160.115675 -99.90391 
L 158.985262 -99.90391 
L 157.854849 -99.90391 
L 156.724437 -99.759005 
L 155.594024 -99.759005 
L 154.463611 -99.759005 
L 153.333198 -99.759005 
L 152.202786 -99.759005 
L 151.072373 -99.759005 
L 149.94196 -80.969271 
L 148.811547 -80.969271 
L 147.681134 -80.969271 
L 146.550722 -80.969271 
L 145.420309 -80.969271 
L 144.289896 -55.402693 
L 143.159483 -55.402693 
L 142.029071 -55.402693 
L 140.898658 -55.402693 
L 139.768245 -55.402693 
L 138.637832 -55.402693 
L 137.50742 -55.402693 
L 136.377007 -55.402693 
L 135.246594 -55.402693 
L 134.116181 -55.402693 
L 132.985769 -55.402693 
L 131.855356 -55.402693 
L 130.724943 -55.402693 
L 129.59453 -55.402693 
L 128.464117 -55.402693 
L 127.333705 -55.402693 
L 126.203292 -55.402693 
L 125.072879 -55.402693 
L 123.942466 -55.402693 
L 122.812054 -55.402693 
L 121.681641 -55.402693 
L 120.551228 -55.402693 
L 119.420815 -55.402693 
L 118.290403 -55.402693 
L 117.15999 -55.402693 
L 116.029577 -55.402693 
L 114.899164 -55.402693 
L 113.768752 -55.402693 
L 112.638339 -55.402693 
L 111.507926 -55.402693 
L 110.377513 -55.402693 
L 109.247101 -55.402693 
L 108.116688 -55.402693 
L 106.986275 -55.402693 
L 105.855862 -55.402693 
L 104.725449 -55.402693 
L 103.595037 -55.402693 
L 102.464624 -55.402693 
L 101.334211 -55.402693 
L 100.203798 -55.402693 
L 99.073386 -55.402693 
L 97.942973 -55.402693 
L 96.81256 -55.402693 
L 95.682147 -55.402693 
L 94.551735 -55.402693 
L 93.421322 -55.402693 
L 92.290909 -55.402693 
z
" style="stroke: #482475; stroke-opacity: 0.2"/>
    </defs>
    <g clip-path="url(#p1904254e50)">
     <use xlink:href="#m56497002df" x="0" y="360" style="fill: #482475; fill-opacity: 0.2; stroke: #482475; stroke-opacity: 0.2"/>
    </g>
   </g>
   <g id="PolyCollection_2">
    <defs>
     <path id="m3b94c472ff" d="M 92.290909 -58.717857 
L 92.290909 -60.665741 
L 93.421322 -60.665741 
L 94.551735 -60.665741 
L 95.682147 -60.665741 
L 96.81256 -60.665741 
L 97.942973 -60.665741 
L 99.073386 -60.665741 
L 100.203798 -60.665741 
L 101.334211 -60.665741 
L 102.464624 -60.665741 
L 103.595037 -60.665741 
L 104.725449 -60.665741 
L 105.855862 -60.665741 
L 106.986275 -60.665741 
L 108.116688 -60.665741 
L 109.247101 -60.665741 
L 110.377513 -60.665741 
L 111.507926 -60.665741 
L 112.638339 -60.665741 
L 113.768752 -60.665741 
L 114.899164 -60.665741 
L 116.029577 -60.665741 
L 117.15999 -60.665741 
L 118.290403 -60.665741 
L 119.420815 -60.665741 
L 120.551228 -60.665741 
L 121.681641 -60.665741 
L 122.812054 -60.665741 
L 123.942466 -60.665741 
L 125.072879 -60.665741 
L 126.203292 -60.665741 
L 127.333705 -60.665741 
L 128.464117 -60.665741 
L 129.59453 -60.665741 
L 130.724943 -60.665741 
L 131.855356 -60.665741 
L 132.985769 -60.665741 
L 134.116181 -60.665741 
L 135.246594 -60.665741 
L 136.377007 -60.665741 
L 137.50742 -60.665741 
L 138.637832 -60.665741 
L 139.768245 -60.665741 
L 140.898658 -60.665741 
L 142.029071 -60.665741 
L 143.159483 -60.665741 
L 144.289896 -60.665741 
L 145.420309 -95.847929 
L 146.550722 -95.847929 
L 147.681134 -95.847929 
L 148.811547 -95.847929 
L 149.94196 -95.847929 
L 151.072373 -115.391255 
L 152.202786 -115.391255 
L 153.333198 -115.391255 
L 154.463611 -115.391255 
L 155.594024 -115.391255 
L 156.724437 -115.391255 
L 157.854849 -115.55155 
L 158.985262 -115.55155 
L 160.115675 -115.55155 
L 161.246088 -115.55155 
L 162.3765 -115.55155 
L 163.506913 -115.55155 
L 164.637326 -115.55155 
L 165.767739 -115.55155 
L 166.898151 -115.55155 
L 168.028564 -115.55155 
L 169.158977 -115.562121 
L 170.28939 -115.562121 
L 171.419802 -115.562121 
L 172.550215 -115.562121 
L 173.680628 -115.562121 
L 174.811041 -115.562121 
L 175.941454 -115.681887 
L 177.071866 -115.681887 
L 178.202279 -115.681887 
L 179.332692 -115.681887 
L 180.463105 -115.681887 
L 181.593517 -115.545963 
L 182.72393 -115.545963 
L 183.854343 -115.545963 
L 184.984756 -115.545963 
L 186.115168 -115.545963 
L 187.245581 -115.545963 
L 188.375994 -115.55155 
L 189.506407 -115.55155 
L 190.636819 -115.55155 
L 191.767232 -115.55155 
L 192.897645 -115.55155 
L 194.028058 -115.553552 
L 195.15847 -115.553552 
L 196.288883 -115.553552 
L 197.419296 -115.553552 
L 198.549709 -115.553552 
L 199.680122 -115.553552 
L 200.810534 -115.519038 
L 201.940947 -115.519038 
L 203.07136 -115.519038 
L 204.201773 -115.519038 
L 205.332185 -115.519038 
L 206.462598 -115.55155 
L 207.593011 -115.55155 
L 208.723424 -115.55155 
L 209.853836 -115.55155 
L 210.984249 -115.55155 
L 212.114662 -115.55155 
L 213.245075 -115.55155 
L 214.375487 -115.55155 
L 215.5059 -115.55155 
L 216.636313 -115.55155 
L 217.766726 -115.55155 
L 218.897139 -115.555294 
L 220.027551 -115.555294 
L 221.157964 -115.555294 
L 222.288377 -115.555294 
L 223.41879 -115.555294 
L 224.549202 -115.577106 
L 225.679615 -115.577106 
L 226.810028 -115.577106 
L 227.940441 -115.577106 
L 229.070853 -115.577106 
L 230.201266 -115.577106 
L 231.331679 -113.912985 
L 232.462092 -113.912985 
L 233.592504 -113.912985 
L 234.722917 -113.912985 
L 235.85333 -113.912985 
L 236.983743 -94.129527 
L 238.114155 -94.129527 
L 239.244568 -94.129527 
L 240.374981 -94.129527 
L 241.505394 -94.129527 
L 242.635807 -94.129527 
L 243.766219 -88.476108 
L 244.896632 -88.476108 
L 246.027045 -88.476108 
L 247.157458 -88.476108 
L 248.28787 -88.476108 
L 249.418283 -88.536036 
L 250.548696 -88.536036 
L 251.679109 -88.536036 
L 252.809521 -88.536036 
L 253.939934 -88.536036 
L 255.070347 -88.536036 
L 256.20076 -88.439817 
L 257.331172 -88.439817 
L 258.461585 -88.439817 
L 259.591998 -88.439817 
L 260.722411 -88.439817 
L 261.852823 -88.453992 
L 262.983236 -88.453992 
L 264.113649 -88.453992 
L 265.244062 -88.453992 
L 266.374475 -88.453992 
L 267.504887 -88.453992 
L 268.6353 -88.444424 
L 269.765713 -88.444424 
L 270.896126 -88.444424 
L 272.026538 -88.444424 
L 273.156951 -88.444424 
L 274.287364 -88.415728 
L 275.417777 -88.415728 
L 276.548189 -88.415728 
L 277.678602 -88.415728 
L 278.809015 -88.415728 
L 279.939428 -88.406735 
L 281.06984 -88.406735 
L 282.200253 -88.406735 
L 283.330666 -88.406735 
L 284.461079 -88.406735 
L 285.591492 -88.406735 
L 286.721904 -88.444424 
L 287.852317 -88.444424 
L 288.98273 -88.444424 
L 290.113143 -88.444424 
L 291.243555 -88.444424 
L 292.373968 -88.385526 
L 293.504381 -88.385526 
L 294.634794 -88.385526 
L 295.765206 -88.385526 
L 296.895619 -88.385526 
L 298.026032 -88.385526 
L 299.156445 -88.444424 
L 300.286857 -88.444424 
L 301.41727 -88.444424 
L 302.547683 -88.444424 
L 303.678096 -88.444424 
L 304.808508 -88.444424 
L 305.938921 -88.444424 
L 307.069334 -88.444424 
L 308.199747 -88.444424 
L 309.33016 -88.444424 
L 310.460572 -88.444424 
L 311.590985 -88.439817 
L 312.721398 -88.439817 
L 313.851811 -88.439817 
L 314.982223 -88.439817 
L 316.112636 -88.439817 
L 317.243049 -88.374943 
L 318.373462 -88.374943 
L 319.503874 -88.374943 
L 320.634287 -88.374943 
L 321.7647 -88.374943 
L 322.895113 -129.388542 
L 324.025525 -129.388542 
L 325.155938 -129.388542 
L 326.286351 -129.388542 
L 327.416764 -129.388542 
L 328.547177 -129.388542 
L 329.677589 -138.742601 
L 330.808002 -138.742601 
L 331.938415 -138.742601 
L 333.068828 -138.742601 
L 334.19924 -138.742601 
L 335.329653 -138.901745 
L 336.460066 -138.901745 
L 337.590479 -138.901745 
L 338.720891 -138.901745 
L 339.851304 -138.901745 
L 340.981717 -138.901745 
L 342.11213 -138.939228 
L 343.242542 -138.939228 
L 344.372955 -138.939228 
L 345.503368 -138.939228 
L 346.633781 -138.939228 
L 347.764193 -138.939228 
L 348.894606 -138.939228 
L 350.025019 -138.939228 
L 351.155432 -138.939228 
L 352.285845 -138.939228 
L 353.416257 -138.939228 
L 354.54667 -138.939228 
L 355.677083 -138.939228 
L 356.807496 -138.939228 
L 357.937908 -138.939228 
L 359.068321 -138.939228 
L 360.198734 -138.938052 
L 361.329147 -138.938052 
L 362.459559 -138.938052 
L 363.589972 -138.938052 
L 364.720385 -138.938052 
L 365.850798 -138.938052 
L 366.98121 -138.891108 
L 368.111623 -138.891108 
L 369.242036 -138.891108 
L 370.372449 -138.891108 
L 371.502861 -138.891108 
L 372.633274 -138.939228 
L 373.763687 -138.939228 
L 374.8941 -138.939228 
L 376.024513 -138.939228 
L 377.154925 -138.939228 
L 378.285338 -138.928264 
L 379.415751 -138.928264 
L 380.546164 -138.928264 
L 381.676576 -138.928264 
L 382.806989 -138.928264 
L 383.937402 -138.928264 
L 385.067815 -138.89103 
L 386.198227 -138.89103 
L 387.32864 -138.89103 
L 388.459053 -138.89103 
L 389.589466 -138.89103 
L 390.719878 -138.939228 
L 391.850291 -138.939228 
L 392.980704 -138.939228 
L 394.111117 -138.939228 
L 395.24153 -138.939228 
L 396.371942 -138.939228 
L 397.502355 -138.901745 
L 398.632768 -138.901745 
L 399.763181 -138.901745 
L 400.893593 -138.901745 
L 402.024006 -138.901745 
L 403.154419 -138.901745 
L 404.284832 -138.901745 
L 405.415244 -138.901745 
L 406.545657 -138.901745 
L 407.67607 -138.901745 
L 408.806483 -138.901745 
L 409.936895 -135.151365 
L 411.067308 -135.151365 
L 412.197721 -135.151365 
L 413.328134 -135.151365 
L 414.458546 -135.151365 
L 415.588959 -127.637997 
L 416.719372 -127.637997 
L 417.849785 -127.637997 
L 418.980198 -127.637997 
L 420.11061 -127.637997 
L 421.241023 -127.637997 
L 422.371436 -127.85575 
L 423.501849 -127.85575 
L 424.632261 -127.85575 
L 425.762674 -127.85575 
L 426.893087 -127.85575 
L 428.0235 -127.7844 
L 429.153912 -127.7844 
L 430.284325 -127.7844 
L 431.414738 -127.7844 
L 432.545151 -127.7844 
L 433.675563 -127.85575 
L 434.805976 -127.85575 
L 435.936389 -127.85575 
L 437.066802 -127.85575 
L 438.197214 -127.85575 
L 439.327627 -127.85575 
L 440.45804 -127.85575 
L 441.588453 -127.85575 
L 442.718866 -127.85575 
L 443.849278 -127.85575 
L 444.979691 -127.85575 
L 446.110104 -127.833108 
L 447.240517 -127.833108 
L 448.370929 -127.833108 
L 449.501342 -127.833108 
L 450.631755 -127.833108 
L 451.762168 -127.833108 
L 452.89258 -127.815219 
L 454.022993 -127.815219 
L 455.153406 -127.815219 
L 456.283819 -127.815219 
L 457.414231 -127.815219 
L 458.544644 -127.85575 
L 459.675057 -127.85575 
L 460.80547 -127.85575 
L 461.935883 -127.85575 
L 463.066295 -127.85575 
L 464.196708 -127.85575 
L 465.327121 -127.85575 
L 466.457534 -127.85575 
L 467.587946 -127.85575 
L 468.718359 -127.85575 
L 469.848772 -127.85575 
L 470.979185 -127.85575 
L 472.109597 -127.85575 
L 473.24001 -127.85575 
L 474.370423 -127.85575 
L 475.500836 -127.85575 
L 476.631248 -127.849746 
L 477.761661 -127.849746 
L 478.892074 -127.849746 
L 480.022487 -127.849746 
L 481.152899 -127.849746 
L 482.283312 -127.849746 
L 483.413725 -127.862545 
L 484.544138 -127.862545 
L 485.674551 -127.862545 
L 486.804963 -127.862545 
L 487.935376 -127.862545 
L 489.065789 -127.85575 
L 490.196202 -127.85575 
L 491.326614 -127.85575 
L 492.457027 -127.85575 
L 493.58744 -127.85575 
L 494.717853 -127.85575 
L 495.848265 -127.85575 
L 496.978678 -127.85575 
L 498.109091 -127.85575 
L 498.109091 -125.527754 
L 498.109091 -125.527754 
L 496.978678 -125.527754 
L 495.848265 -125.527754 
L 494.717853 -125.527754 
L 493.58744 -125.527754 
L 492.457027 -125.527754 
L 491.326614 -125.527754 
L 490.196202 -125.527754 
L 489.065789 -125.527754 
L 487.935376 -125.465519 
L 486.804963 -125.465519 
L 485.674551 -125.465519 
L 484.544138 -125.465519 
L 483.413725 -125.465519 
L 482.283312 -125.533758 
L 481.152899 -125.533758 
L 480.022487 -125.533758 
L 478.892074 -125.533758 
L 477.761661 -125.533758 
L 476.631248 -125.533758 
L 475.500836 -125.527754 
L 474.370423 -125.527754 
L 473.24001 -125.527754 
L 472.109597 -125.527754 
L 470.979185 -125.527754 
L 469.848772 -125.527754 
L 468.718359 -125.527754 
L 467.587946 -125.527754 
L 466.457534 -125.527754 
L 465.327121 -125.527754 
L 464.196708 -125.527754 
L 463.066295 -125.527754 
L 461.935883 -125.527754 
L 460.80547 -125.527754 
L 459.675057 -125.527754 
L 458.544644 -125.527754 
L 457.414231 -125.401965 
L 456.283819 -125.401965 
L 455.153406 -125.401965 
L 454.022993 -125.401965 
L 452.89258 -125.401965 
L 451.762168 -125.494956 
L 450.631755 -125.494956 
L 449.501342 -125.494956 
L 448.370929 -125.494956 
L 447.240517 -125.494956 
L 446.110104 -125.494956 
L 444.979691 -125.527754 
L 443.849278 -125.527754 
L 442.718866 -125.527754 
L 441.588453 -125.527754 
L 440.45804 -125.527754 
L 439.327627 -125.527754 
L 438.197214 -125.527754 
L 437.066802 -125.527754 
L 435.936389 -125.527754 
L 434.805976 -125.527754 
L 433.675563 -125.527754 
L 432.545151 -125.543664 
L 431.414738 -125.543664 
L 430.284325 -125.543664 
L 429.153912 -125.543664 
L 428.0235 -125.543664 
L 426.893087 -125.527754 
L 425.762674 -125.527754 
L 424.632261 -125.527754 
L 423.501849 -125.527754 
L 422.371436 -125.527754 
L 421.241023 -125.412867 
L 420.11061 -125.412867 
L 418.980198 -125.412867 
L 417.849785 -125.412867 
L 416.719372 -125.412867 
L 415.588959 -125.412867 
L 414.458546 -132.517179 
L 413.328134 -132.517179 
L 412.197721 -132.517179 
L 411.067308 -132.517179 
L 409.936895 -132.517179 
L 408.806483 -136.270207 
L 407.67607 -136.270207 
L 406.545657 -136.270207 
L 405.415244 -136.270207 
L 404.284832 -136.270207 
L 403.154419 -136.270207 
L 402.024006 -136.270207 
L 400.893593 -136.270207 
L 399.763181 -136.270207 
L 398.632768 -136.270207 
L 397.502355 -136.270207 
L 396.371942 -136.288164 
L 395.24153 -136.288164 
L 394.111117 -136.288164 
L 392.980704 -136.288164 
L 391.850291 -136.288164 
L 390.719878 -136.288164 
L 389.589466 -136.336362 
L 388.459053 -136.336362 
L 387.32864 -136.336362 
L 386.198227 -136.336362 
L 385.067815 -136.336362 
L 383.937402 -136.354568 
L 382.806989 -136.354568 
L 381.676576 -136.354568 
L 380.546164 -136.354568 
L 379.415751 -136.354568 
L 378.285338 -136.354568 
L 377.154925 -136.288164 
L 376.024513 -136.288164 
L 374.8941 -136.288164 
L 373.763687 -136.288164 
L 372.633274 -136.288164 
L 371.502861 -136.280844 
L 370.372449 -136.280844 
L 369.242036 -136.280844 
L 368.111623 -136.280844 
L 366.98121 -136.280844 
L 365.850798 -136.233372 
L 364.720385 -136.233372 
L 363.589972 -136.233372 
L 362.459559 -136.233372 
L 361.329147 -136.233372 
L 360.198734 -136.233372 
L 359.068321 -136.288164 
L 357.937908 -136.288164 
L 356.807496 -136.288164 
L 355.677083 -136.288164 
L 354.54667 -136.288164 
L 353.416257 -136.288164 
L 352.285845 -136.288164 
L 351.155432 -136.288164 
L 350.025019 -136.288164 
L 348.894606 -136.288164 
L 347.764193 -136.288164 
L 346.633781 -136.288164 
L 345.503368 -136.288164 
L 344.372955 -136.288164 
L 343.242542 -136.288164 
L 342.11213 -136.288164 
L 340.981717 -136.270207 
L 339.851304 -136.270207 
L 338.720891 -136.270207 
L 337.590479 -136.270207 
L 336.460066 -136.270207 
L 335.329653 -136.270207 
L 334.19924 -136.151095 
L 333.068828 -136.151095 
L 331.938415 -136.151095 
L 330.808002 -136.151095 
L 329.677589 -136.151095 
L 328.547177 -126.441186 
L 327.416764 -126.441186 
L 326.286351 -126.441186 
L 325.155938 -126.441186 
L 324.025525 -126.441186 
L 322.895113 -126.441186 
L 321.7647 -86.365073 
L 320.634287 -86.365073 
L 319.503874 -86.365073 
L 318.373462 -86.365073 
L 317.243049 -86.365073 
L 316.112636 -86.467047 
L 314.982223 -86.467047 
L 313.851811 -86.467047 
L 312.721398 -86.467047 
L 311.590985 -86.467047 
L 310.460572 -86.407 
L 309.33016 -86.407 
L 308.199747 -86.407 
L 307.069334 -86.407 
L 305.938921 -86.407 
L 304.808508 -86.407 
L 303.678096 -86.407 
L 302.547683 -86.407 
L 301.41727 -86.407 
L 300.286857 -86.407 
L 299.156445 -86.407 
L 298.026032 -86.40993 
L 296.895619 -86.40993 
L 295.765206 -86.40993 
L 294.634794 -86.40993 
L 293.504381 -86.40993 
L 292.373968 -86.40993 
L 291.243555 -86.407 
L 290.113143 -86.407 
L 288.98273 -86.407 
L 287.852317 -86.407 
L 286.721904 -86.407 
L 285.591492 -86.389249 
L 284.461079 -86.389249 
L 283.330666 -86.389249 
L 282.200253 -86.389249 
L 281.06984 -86.389249 
L 279.939428 -86.389249 
L 278.809015 -86.324288 
L 277.678602 -86.324288 
L 276.548189 -86.324288 
L 275.417777 -86.324288 
L 274.287364 -86.324288 
L 273.156951 -86.407 
L 272.026538 -86.407 
L 270.896126 -86.407 
L 269.765713 -86.407 
L 268.6353 -86.407 
L 267.504887 -86.341992 
L 266.374475 -86.341992 
L 265.244062 -86.341992 
L 264.113649 -86.341992 
L 262.983236 -86.341992 
L 261.852823 -86.341992 
L 260.722411 -86.467047 
L 259.591998 -86.467047 
L 258.461585 -86.467047 
L 257.331172 -86.467047 
L 256.20076 -86.467047 
L 255.070347 -86.258892 
L 253.939934 -86.258892 
L 252.809521 -86.258892 
L 251.679109 -86.258892 
L 250.548696 -86.258892 
L 249.418283 -86.258892 
L 248.28787 -86.042148 
L 247.157458 -86.042148 
L 246.027045 -86.042148 
L 244.896632 -86.042148 
L 243.766219 -86.042148 
L 242.635807 -90.447129 
L 241.505394 -90.447129 
L 240.374981 -90.447129 
L 239.244568 -90.447129 
L 238.114155 -90.447129 
L 236.983743 -90.447129 
L 235.85333 -111.459063 
L 234.722917 -111.459063 
L 233.592504 -111.459063 
L 232.462092 -111.459063 
L 231.331679 -111.459063 
L 230.201266 -113.741214 
L 229.070853 -113.741214 
L 227.940441 -113.741214 
L 226.810028 -113.741214 
L 225.679615 -113.741214 
L 224.549202 -113.741214 
L 223.41879 -113.596706 
L 222.288377 -113.596706 
L 221.157964 -113.596706 
L 220.027551 -113.596706 
L 218.897139 -113.596706 
L 217.766726 -113.65589 
L 216.636313 -113.65589 
L 215.5059 -113.65589 
L 214.375487 -113.65589 
L 213.245075 -113.65589 
L 212.114662 -113.65589 
L 210.984249 -113.65589 
L 209.853836 -113.65589 
L 208.723424 -113.65589 
L 207.593011 -113.65589 
L 206.462598 -113.65589 
L 205.332185 -113.632962 
L 204.201773 -113.632962 
L 203.07136 -113.632962 
L 201.940947 -113.632962 
L 200.810534 -113.632962 
L 199.680122 -113.709328 
L 198.549709 -113.709328 
L 197.419296 -113.709328 
L 196.288883 -113.709328 
L 195.15847 -113.709328 
L 194.028058 -113.709328 
L 192.897645 -113.65589 
L 191.767232 -113.65589 
L 190.636819 -113.65589 
L 189.506407 -113.65589 
L 188.375994 -113.65589 
L 187.245581 -113.716917 
L 186.115168 -113.716917 
L 184.984756 -113.716917 
L 183.854343 -113.716917 
L 182.72393 -113.716917 
L 181.593517 -113.716917 
L 180.463105 -113.748369 
L 179.332692 -113.748369 
L 178.202279 -113.748369 
L 177.071866 -113.748369 
L 175.941454 -113.748369 
L 174.811041 -113.589351 
L 173.680628 -113.589351 
L 172.550215 -113.589351 
L 171.419802 -113.589351 
L 170.28939 -113.589351 
L 169.158977 -113.589351 
L 168.028564 -113.65589 
L 166.898151 -113.65589 
L 165.767739 -113.65589 
L 164.637326 -113.65589 
L 163.506913 -113.65589 
L 162.3765 -113.65589 
L 161.246088 -113.65589 
L 160.115675 -113.65589 
L 158.985262 -113.65589 
L 157.854849 -113.65589 
L 156.724437 -113.260201 
L 155.594024 -113.260201 
L 154.463611 -113.260201 
L 153.333198 -113.260201 
L 152.202786 -113.260201 
L 151.072373 -113.260201 
L 149.94196 -91.564615 
L 148.811547 -91.564615 
L 147.681134 -91.564615 
L 146.550722 -91.564615 
L 145.420309 -91.564615 
L 144.289896 -58.717857 
L 143.159483 -58.717857 
L 142.029071 -58.717857 
L 140.898658 -58.717857 
L 139.768245 -58.717857 
L 138.637832 -58.717857 
L 137.50742 -58.717857 
L 136.377007 -58.717857 
L 135.246594 -58.717857 
L 134.116181 -58.717857 
L 132.985769 -58.717857 
L 131.855356 -58.717857 
L 130.724943 -58.717857 
L 129.59453 -58.717857 
L 128.464117 -58.717857 
L 127.333705 -58.717857 
L 126.203292 -58.717857 
L 125.072879 -58.717857 
L 123.942466 -58.717857 
L 122.812054 -58.717857 
L 121.681641 -58.717857 
L 120.551228 -58.717857 
L 119.420815 -58.717857 
L 118.290403 -58.717857 
L 117.15999 -58.717857 
L 116.029577 -58.717857 
L 114.899164 -58.717857 
L 113.768752 -58.717857 
L 112.638339 -58.717857 
L 111.507926 -58.717857 
L 110.377513 -58.717857 
L 109.247101 -58.717857 
L 108.116688 -58.717857 
L 106.986275 -58.717857 
L 105.855862 -58.717857 
L 104.725449 -58.717857 
L 103.595037 -58.717857 
L 102.464624 -58.717857 
L 101.334211 -58.717857 
L 100.203798 -58.717857 
L 99.073386 -58.717857 
L 97.942973 -58.717857 
L 96.81256 -58.717857 
L 95.682147 -58.717857 
L 94.551735 -58.717857 
L 93.421322 -58.717857 
L 92.290909 -58.717857 
z
" style="stroke: #bddf26; stroke-opacity: 0.2"/>
    </defs>
    <g clip-path="url(#p1904254e50)">
     <use xlink:href="#m3b94c472ff" x="0" y="360" style="fill: #bddf26; fill-opacity: 0.2; stroke: #bddf26; stroke-opacity: 0.2"/>
    </g>
   </g>
   <g id="matplotlib.axis_1">
    <g id="xtick_1">
     <g id="line2d_1">
      <defs>
       <path id="me70189e92c" d="M 0 0 
L 0 3.5 
" style="stroke: #000000; stroke-width: 0.8"/>
      </defs>
      <g>
       <use xlink:href="#me70189e92c" x="116.88595" y="320.4" style="stroke: #000000; stroke-width: 0.8"/>
      </g>
     </g>
     <g id="text_1">
      <!-- $\mathdefault{100}$ -->
      <g transform="translate(106.277417 337.431808) scale(0.145 -0.145)">
       <defs>
        <path id="CMR17-31" d="M 1702 4058 
C 1702 4192 1696 4192 1606 4192 
C 1357 3916 979 3827 621 3827 
C 602 3827 570 3827 563 3808 
C 557 3795 557 3782 557 3648 
C 755 3648 1088 3686 1344 3839 
L 1344 461 
C 1344 236 1331 160 781 160 
L 589 160 
L 589 0 
C 896 0 1216 0 1523 0 
C 1830 0 2150 0 2458 0 
L 2458 160 
L 2266 160 
C 1715 160 1702 230 1702 458 
L 1702 4058 
z
" transform="scale(0.015625)"/>
        <path id="CMR17-30" d="M 2688 2025 
C 2688 2416 2682 3080 2413 3591 
C 2176 4039 1798 4198 1466 4198 
C 1158 4198 768 4058 525 3597 
C 269 3118 243 2524 243 2025 
C 243 1661 250 1106 448 619 
C 723 -39 1216 -128 1466 -128 
C 1760 -128 2208 -7 2470 600 
C 2662 1042 2688 1559 2688 2025 
z
M 1466 -26 
C 1056 -26 813 325 723 812 
C 653 1188 653 1738 653 2096 
C 653 2588 653 2997 736 3387 
C 858 3929 1216 4096 1466 4096 
C 1728 4096 2067 3923 2189 3400 
C 2272 3036 2278 2607 2278 2096 
C 2278 1680 2278 1169 2202 792 
C 2067 95 1690 -26 1466 -26 
z
" transform="scale(0.015625)"/>
       </defs>
       <use xlink:href="#CMR17-31" transform="scale(0.996264)"/>
       <use xlink:href="#CMR17-30" transform="translate(45.690477 0) scale(0.996264)"/>
       <use xlink:href="#CMR17-30" transform="translate(91.380954 0) scale(0.996264)"/>
      </g>
     </g>
    </g>
    <g id="xtick_2">
     <g id="line2d_2">
      <g>
       <use xlink:href="#me70189e92c" x="178.373554" y="320.4" style="stroke: #000000; stroke-width: 0.8"/>
      </g>
     </g>
     <g id="text_2">
      <!-- $\mathdefault{200}$ -->
      <g transform="translate(167.76502 337.431808) scale(0.145 -0.145)">
       <defs>
        <path id="CMR17-32" d="M 2669 989 
L 2554 989 
C 2490 536 2438 459 2413 420 
C 2381 369 1920 369 1830 369 
L 602 369 
C 832 619 1280 1072 1824 1597 
C 2214 1967 2669 2402 2669 3035 
C 2669 3790 2067 4224 1395 4224 
C 691 4224 262 3604 262 3030 
C 262 2780 448 2748 525 2748 
C 589 2748 781 2787 781 3010 
C 781 3207 614 3264 525 3264 
C 486 3264 448 3258 422 3245 
C 544 3790 915 4058 1306 4058 
C 1862 4058 2227 3617 2227 3035 
C 2227 2479 1901 2000 1536 1584 
L 262 146 
L 262 0 
L 2515 0 
L 2669 989 
z
" transform="scale(0.015625)"/>
       </defs>
       <use xlink:href="#CMR17-32" transform="scale(0.996264)"/>
       <use xlink:href="#CMR17-30" transform="translate(45.690477 0) scale(0.996264)"/>
       <use xlink:href="#CMR17-30" transform="translate(91.380954 0) scale(0.996264)"/>
      </g>
     </g>
    </g>
    <g id="xtick_3">
     <g id="line2d_3">
      <g>
       <use xlink:href="#me70189e92c" x="239.861157" y="320.4" style="stroke: #000000; stroke-width: 0.8"/>
      </g>
     </g>
     <g id="text_3">
      <!-- $\mathdefault{300}$ -->
      <g transform="translate(229.252624 337.431808) scale(0.145 -0.145)">
       <defs>
        <path id="CMR17-33" d="M 1414 2157 
C 1984 2157 2234 1662 2234 1090 
C 2234 320 1824 25 1453 25 
C 1114 25 563 194 390 693 
C 422 680 454 680 486 680 
C 640 680 755 782 755 948 
C 755 1133 614 1216 486 1216 
C 378 1216 211 1165 211 926 
C 211 335 787 -128 1466 -128 
C 2176 -128 2720 430 2720 1085 
C 2720 1707 2208 2157 1600 2227 
C 2086 2328 2554 2756 2554 3329 
C 2554 3820 2048 4179 1472 4179 
C 890 4179 378 3829 378 3329 
C 378 3110 544 3072 627 3072 
C 762 3072 877 3155 877 3321 
C 877 3486 762 3569 627 3569 
C 602 3569 570 3569 544 3557 
C 730 3959 1235 4032 1459 4032 
C 1683 4032 2106 3925 2106 3320 
C 2106 3143 2080 2828 1862 2550 
C 1670 2304 1453 2304 1242 2284 
C 1210 2284 1062 2269 1037 2269 
C 992 2263 966 2257 966 2208 
C 966 2163 973 2157 1101 2157 
L 1414 2157 
z
" transform="scale(0.015625)"/>
       </defs>
       <use xlink:href="#CMR17-33" transform="scale(0.996264)"/>
       <use xlink:href="#CMR17-30" transform="translate(45.690477 0) scale(0.996264)"/>
       <use xlink:href="#CMR17-30" transform="translate(91.380954 0) scale(0.996264)"/>
      </g>
     </g>
    </g>
    <g id="xtick_4">
     <g id="line2d_4">
      <g>
       <use xlink:href="#me70189e92c" x="301.34876" y="320.4" style="stroke: #000000; stroke-width: 0.8"/>
      </g>
     </g>
     <g id="text_4">
      <!-- $\mathdefault{400}$ -->
      <g transform="translate(290.740227 337.431808) scale(0.145 -0.145)">
       <defs>
        <path id="CMR17-34" d="M 2150 4122 
C 2150 4256 2144 4256 2029 4256 
L 128 1254 
L 128 1088 
L 1779 1088 
L 1779 457 
C 1779 224 1766 160 1318 160 
L 1197 160 
L 1197 0 
C 1402 0 1747 0 1965 0 
C 2182 0 2528 0 2733 0 
L 2733 160 
L 2611 160 
C 2163 160 2150 224 2150 457 
L 2150 1088 
L 2803 1088 
L 2803 1254 
L 2150 1254 
L 2150 4122 
z
M 1798 3703 
L 1798 1254 
L 256 1254 
L 1798 3703 
z
" transform="scale(0.015625)"/>
       </defs>
       <use xlink:href="#CMR17-34" transform="scale(0.996264)"/>
       <use xlink:href="#CMR17-30" transform="translate(45.690477 0) scale(0.996264)"/>
       <use xlink:href="#CMR17-30" transform="translate(91.380954 0) scale(0.996264)"/>
      </g>
     </g>
    </g>
    <g id="xtick_5">
     <g id="line2d_5">
      <g>
       <use xlink:href="#me70189e92c" x="362.836364" y="320.4" style="stroke: #000000; stroke-width: 0.8"/>
      </g>
     </g>
     <g id="text_5">
      <!-- $\mathdefault{500}$ -->
      <g transform="translate(352.22783 337.431808) scale(0.145 -0.145)">
       <defs>
        <path id="CMR17-35" d="M 730 3692 
C 794 3666 1056 3584 1325 3584 
C 1920 3584 2246 3911 2432 4100 
C 2432 4157 2432 4192 2394 4192 
C 2387 4192 2374 4192 2323 4163 
C 2099 4058 1837 3973 1517 3973 
C 1325 3973 1037 3999 723 4139 
C 653 4171 640 4171 634 4171 
C 602 4171 595 4164 595 4037 
L 595 2203 
C 595 2089 595 2057 659 2057 
C 691 2057 704 2070 736 2114 
C 941 2401 1222 2522 1542 2522 
C 1766 2522 2246 2382 2246 1289 
C 2246 1085 2246 715 2054 421 
C 1894 159 1645 25 1370 25 
C 947 25 518 320 403 814 
C 429 807 480 795 506 795 
C 589 795 749 840 749 1038 
C 749 1210 627 1280 506 1280 
C 358 1280 262 1190 262 1011 
C 262 454 704 -128 1382 -128 
C 2042 -128 2669 440 2669 1264 
C 2669 2030 2170 2624 1549 2624 
C 1222 2624 947 2503 730 2274 
L 730 3692 
z
" transform="scale(0.015625)"/>
       </defs>
       <use xlink:href="#CMR17-35" transform="scale(0.996264)"/>
       <use xlink:href="#CMR17-30" transform="translate(45.690477 0) scale(0.996264)"/>
       <use xlink:href="#CMR17-30" transform="translate(91.380954 0) scale(0.996264)"/>
      </g>
     </g>
    </g>
    <g id="xtick_6">
     <g id="line2d_6">
      <g>
       <use xlink:href="#me70189e92c" x="424.323967" y="320.4" style="stroke: #000000; stroke-width: 0.8"/>
      </g>
     </g>
     <g id="text_6">
      <!-- $\mathdefault{600}$ -->
      <g transform="translate(413.715434 337.431808) scale(0.145 -0.145)">
       <defs>
        <path id="CMR17-36" d="M 678 2176 
C 678 3690 1395 4032 1811 4032 
C 1946 4032 2272 4009 2400 3776 
C 2298 3776 2106 3776 2106 3553 
C 2106 3381 2246 3323 2336 3323 
C 2394 3323 2566 3348 2566 3560 
C 2566 3954 2246 4179 1805 4179 
C 1043 4179 243 3390 243 1984 
C 243 253 966 -128 1478 -128 
C 2099 -128 2688 427 2688 1283 
C 2688 2081 2170 2662 1517 2662 
C 1126 2662 838 2407 678 1960 
L 678 2176 
z
M 1478 25 
C 691 25 691 1200 691 1436 
C 691 1896 909 2560 1504 2560 
C 1613 2560 1926 2560 2138 2120 
C 2253 1870 2253 1609 2253 1289 
C 2253 944 2253 690 2118 434 
C 1978 171 1773 25 1478 25 
z
" transform="scale(0.015625)"/>
       </defs>
       <use xlink:href="#CMR17-36" transform="scale(0.996264)"/>
       <use xlink:href="#CMR17-30" transform="translate(45.690477 0) scale(0.996264)"/>
       <use xlink:href="#CMR17-30" transform="translate(91.380954 0) scale(0.996264)"/>
      </g>
     </g>
    </g>
    <g id="xtick_7">
     <g id="line2d_7">
      <g>
       <use xlink:href="#me70189e92c" x="485.81157" y="320.4" style="stroke: #000000; stroke-width: 0.8"/>
      </g>
     </g>
     <g id="text_7">
      <!-- $\mathdefault{700}$ -->
      <g transform="translate(475.203037 337.431808) scale(0.145 -0.145)">
       <defs>
        <path id="CMR17-37" d="M 2886 3941 
L 2886 4081 
L 1382 4081 
C 634 4081 621 4165 595 4288 
L 480 4288 
L 294 3094 
L 410 3094 
C 429 3215 474 3540 550 3661 
C 589 3712 1062 3712 1171 3712 
L 2579 3712 
L 1869 2661 
C 1395 1954 1069 999 1069 165 
C 1069 89 1069 -128 1299 -128 
C 1530 -128 1530 89 1530 171 
L 1530 465 
C 1530 1508 1709 2196 2003 2636 
L 2886 3941 
z
" transform="scale(0.015625)"/>
       </defs>
       <use xlink:href="#CMR17-37" transform="scale(0.996264)"/>
       <use xlink:href="#CMR17-30" transform="translate(45.690477 0) scale(0.996264)"/>
       <use xlink:href="#CMR17-30" transform="translate(91.380954 0) scale(0.996264)"/>
      </g>
     </g>
    </g>
    <g id="text_8">
     <!-- time (s) -->
     <g transform="translate(271.677317 355.075073) scale(0.145 -0.145)">
      <defs>
       <path id="CMSS17-74" d="M 1069 2368 
L 1901 2368 
L 1901 2737 
L 1069 2737 
L 1069 3520 
L 614 3520 
L 614 2737 
L 109 2737 
L 109 2368 
L 602 2368 
L 602 749 
C 602 384 685 -64 1107 -64 
C 1427 -64 1722 25 2003 172 
L 1901 548 
C 1747 414 1562 337 1363 337 
C 1082 337 1069 696 1069 856 
L 1069 2368 
z
" transform="scale(0.015625)"/>
       <path id="CMSS17-69" d="M 979 4183 
L 442 4183 
L 442 3648 
L 979 3648 
L 979 4183 
z
M 947 2739 
L 474 2739 
L 474 0 
L 947 0 
L 947 2739 
z
" transform="scale(0.015625)"/>
       <path id="CMSS17-6d" d="M 4288 1877 
C 4288 2308 4179 2816 3462 2816 
C 2982 2816 2694 2516 2566 2331 
C 2451 2670 2182 2816 1798 2816 
C 1363 2816 1088 2568 941 2389 
L 941 2758 
L 474 2758 
L 474 0 
L 960 0 
L 960 1559 
C 960 1939 1101 2428 1555 2428 
C 2138 2428 2138 2016 2138 1829 
L 2138 0 
L 2624 0 
L 2624 1559 
C 2624 1939 2765 2428 3219 2428 
C 3802 2428 3802 2016 3802 1829 
L 3802 0 
L 4288 0 
L 4288 1877 
z
" transform="scale(0.015625)"/>
       <path id="CMSS17-65" d="M 2502 1377 
C 2502 1590 2490 2003 2285 2345 
C 2061 2713 1696 2816 1421 2816 
C 755 2816 192 2188 192 1375 
C 192 582 774 -64 1510 -64 
C 1798 -64 2150 19 2470 248 
C 2470 274 2458 414 2451 420 
C 2451 433 2432 630 2432 656 
C 2125 407 1773 325 1517 325 
C 1107 325 666 667 646 1377 
L 2502 1377 
z
M 698 1728 
C 781 2084 1062 2421 1421 2421 
C 1517 2421 1965 2421 2080 1728 
L 698 1728 
z
" transform="scale(0.015625)"/>
       <path id="CMSS17-28" d="M 1613 4768 
C 1267 4417 474 3601 474 1588 
C 474 -433 1267 -1243 1613 -1600 
L 2003 -1600 
C 1216 -784 960 357 960 1581 
C 960 2798 1203 3946 2003 4768 
L 1613 4768 
z
" transform="scale(0.015625)"/>
       <path id="CMSS17-73" d="M 2061 2627 
C 1683 2807 1389 2807 1197 2807 
C 742 2807 198 2648 198 2003 
C 198 1359 902 1218 1094 1179 
C 1389 1122 1715 1058 1715 740 
C 1715 337 1254 337 1171 337 
C 915 337 563 407 243 638 
L 166 210 
C 531 0 883 -64 1178 -64 
C 1965 -64 2163 416 2163 781 
C 2163 1094 1984 1305 1862 1401 
C 1651 1568 1574 1587 1050 1696 
C 960 1709 646 1779 646 2066 
C 646 2432 1050 2432 1139 2432 
C 1555 2432 1811 2303 1984 2208 
L 2061 2627 
z
" transform="scale(0.015625)"/>
       <path id="CMSS17-29" d="M 723 -1600 
C 1069 -1249 1862 -433 1862 1581 
C 1862 3601 1069 4411 723 4768 
L 333 4768 
C 1120 3952 1376 2811 1376 1588 
C 1376 370 1133 -778 333 -1600 
L 723 -1600 
z
" transform="scale(0.015625)"/>
      </defs>
      <use xlink:href="#CMSS17-74" transform="scale(0.996264)"/>
      <use xlink:href="#CMSS17-69" transform="translate(33.831567 0) scale(0.996264)"/>
      <use xlink:href="#CMSS17-6d" transform="translate(56.01229 0) scale(0.996264)"/>
      <use xlink:href="#CMSS17-65" transform="translate(130.241544 0) scale(0.996264)"/>
      <use xlink:href="#CMSS17-28" transform="translate(203.109479 0) scale(0.996264)"/>
      <use xlink:href="#CMSS17-73" transform="translate(239.543393 0) scale(0.996264)"/>
      <use xlink:href="#CMSS17-29" transform="translate(275.456935 0) scale(0.996264)"/>
     </g>
    </g>
   </g>
   <g id="matplotlib.axis_2">
    <g id="ytick_1">
     <g id="line2d_8">
      <path d="M 72 320.4 
L 518.4 320.4 
" clip-path="url(#p1904254e50)" style="fill: none; stroke-dasharray: 1.85,0.8; stroke-dashoffset: 0; stroke: #808080; stroke-width: 0.5"/>
     </g>
     <g id="line2d_9">
      <defs>
       <path id="mef80b7989f" d="M 0 0 
L -3.5 0 
" style="stroke: #000000; stroke-width: 0.8"/>
      </defs>
      <g>
       <use xlink:href="#mef80b7989f" x="72" y="320.4" style="stroke: #000000; stroke-width: 0.8"/>
      </g>
     </g>
     <g id="text_9">
      <!-- $\mathdefault{0.0}$ -->
      <g transform="translate(46.926206 325.415904) scale(0.145 -0.145)">
       <defs>
        <path id="CMMI12-3a" d="M 1178 307 
C 1178 492 1024 619 870 619 
C 685 619 557 466 557 313 
C 557 128 710 0 864 0 
C 1050 0 1178 153 1178 307 
z
" transform="scale(0.015625)"/>
       </defs>
       <use xlink:href="#CMR17-30" transform="scale(0.996264)"/>
       <use xlink:href="#CMMI12-3a" transform="translate(45.690477 0) scale(0.996264)"/>
       <use xlink:href="#CMR17-30" transform="translate(72.787654 0) scale(0.996264)"/>
      </g>
     </g>
    </g>
    <g id="ytick_2">
     <g id="line2d_10">
      <path d="M 72 267.6 
L 518.4 267.6 
" clip-path="url(#p1904254e50)" style="fill: none; stroke-dasharray: 1.85,0.8; stroke-dashoffset: 0; stroke: #808080; stroke-width: 0.5"/>
     </g>
     <g id="line2d_11">
      <g>
       <use xlink:href="#mef80b7989f" x="72" y="267.6" style="stroke: #000000; stroke-width: 0.8"/>
      </g>
     </g>
     <g id="text_10">
      <!-- $\mathdefault{0.2}$ -->
      <g transform="translate(46.926206 272.615904) scale(0.145 -0.145)">
       <use xlink:href="#CMR17-30" transform="scale(0.996264)"/>
       <use xlink:href="#CMMI12-3a" transform="translate(45.690477 0) scale(0.996264)"/>
       <use xlink:href="#CMR17-32" transform="translate(72.787654 0) scale(0.996264)"/>
      </g>
     </g>
    </g>
    <g id="ytick_3">
     <g id="line2d_12">
      <path d="M 72 214.8 
L 518.4 214.8 
" clip-path="url(#p1904254e50)" style="fill: none; stroke-dasharray: 1.85,0.8; stroke-dashoffset: 0; stroke: #808080; stroke-width: 0.5"/>
     </g>
     <g id="line2d_13">
      <g>
       <use xlink:href="#mef80b7989f" x="72" y="214.8" style="stroke: #000000; stroke-width: 0.8"/>
      </g>
     </g>
     <g id="text_11">
      <!-- $\mathdefault{0.4}$ -->
      <g transform="translate(46.926206 219.815904) scale(0.145 -0.145)">
       <use xlink:href="#CMR17-30" transform="scale(0.996264)"/>
       <use xlink:href="#CMMI12-3a" transform="translate(45.690477 0) scale(0.996264)"/>
       <use xlink:href="#CMR17-34" transform="translate(72.787654 0) scale(0.996264)"/>
      </g>
     </g>
    </g>
    <g id="ytick_4">
     <g id="line2d_14">
      <path d="M 72 162 
L 518.4 162 
" clip-path="url(#p1904254e50)" style="fill: none; stroke-dasharray: 1.85,0.8; stroke-dashoffset: 0; stroke: #808080; stroke-width: 0.5"/>
     </g>
     <g id="line2d_15">
      <g>
       <use xlink:href="#mef80b7989f" x="72" y="162" style="stroke: #000000; stroke-width: 0.8"/>
      </g>
     </g>
     <g id="text_12">
      <!-- $\mathdefault{0.6}$ -->
      <g transform="translate(46.926206 167.015904) scale(0.145 -0.145)">
       <use xlink:href="#CMR17-30" transform="scale(0.996264)"/>
       <use xlink:href="#CMMI12-3a" transform="translate(45.690477 0) scale(0.996264)"/>
       <use xlink:href="#CMR17-36" transform="translate(72.787654 0) scale(0.996264)"/>
      </g>
     </g>
    </g>
    <g id="ytick_5">
     <g id="line2d_16">
      <path d="M 72 109.2 
L 518.4 109.2 
" clip-path="url(#p1904254e50)" style="fill: none; stroke-dasharray: 1.85,0.8; stroke-dashoffset: 0; stroke: #808080; stroke-width: 0.5"/>
     </g>
     <g id="line2d_17">
      <g>
       <use xlink:href="#mef80b7989f" x="72" y="109.2" style="stroke: #000000; stroke-width: 0.8"/>
      </g>
     </g>
     <g id="text_13">
      <!-- $\mathdefault{0.8}$ -->
      <g transform="translate(46.926206 114.215904) scale(0.145 -0.145)">
       <defs>
        <path id="CMR17-38" d="M 1741 2264 
C 2144 2467 2554 2773 2554 3263 
C 2554 3841 1990 4179 1472 4179 
C 890 4179 378 3759 378 3180 
C 378 3021 416 2747 666 2505 
C 730 2442 998 2251 1171 2130 
C 883 1983 211 1634 211 934 
C 211 279 838 -128 1459 -128 
C 2144 -128 2720 362 2720 1010 
C 2720 1590 2330 1857 2074 2029 
L 1741 2264 
z
M 902 2822 
C 851 2854 595 3051 595 3351 
C 595 3739 998 4032 1459 4032 
C 1965 4032 2336 3676 2336 3262 
C 2336 2669 1670 2331 1638 2331 
C 1632 2331 1626 2331 1574 2370 
L 902 2822 
z
M 2080 1519 
C 2176 1449 2483 1240 2483 851 
C 2483 381 2010 25 1472 25 
C 890 25 448 438 448 940 
C 448 1443 838 1862 1280 2060 
L 2080 1519 
z
" transform="scale(0.015625)"/>
       </defs>
       <use xlink:href="#CMR17-30" transform="scale(0.996264)"/>
       <use xlink:href="#CMMI12-3a" transform="translate(45.690477 0) scale(0.996264)"/>
       <use xlink:href="#CMR17-38" transform="translate(72.787654 0) scale(0.996264)"/>
      </g>
     </g>
    </g>
    <g id="ytick_6">
     <g id="line2d_18">
      <path d="M 72 56.4 
L 518.4 56.4 
" clip-path="url(#p1904254e50)" style="fill: none; stroke-dasharray: 1.85,0.8; stroke-dashoffset: 0; stroke: #808080; stroke-width: 0.5"/>
     </g>
     <g id="line2d_19">
      <g>
       <use xlink:href="#mef80b7989f" x="72" y="56.4" style="stroke: #000000; stroke-width: 0.8"/>
      </g>
     </g>
     <g id="text_14">
      <!-- $\mathdefault{1.0}$ -->
      <g transform="translate(46.926206 61.415904) scale(0.145 -0.145)">
       <use xlink:href="#CMR17-31" transform="scale(0.996264)"/>
       <use xlink:href="#CMMI12-3a" transform="translate(45.690477 0) scale(0.996264)"/>
       <use xlink:href="#CMR17-30" transform="translate(72.787654 0) scale(0.996264)"/>
      </g>
     </g>
    </g>
    <g id="text_15">
     <!-- QoS -->
     <g transform="translate(40.117312 194.481753) rotate(-90) scale(0.145 -0.145)">
      <defs>
       <path id="CMSS17-51" d="M 3200 202 
C 3981 833 4096 1689 4096 2174 
C 4096 3501 3219 4497 2214 4497 
C 1210 4497 333 3497 333 2178 
C 333 847 1222 -128 2214 -128 
C 2438 -128 2630 -77 2765 -26 
L 3302 -832 
L 3930 -832 
L 3200 202 
z
M 2528 324 
C 2438 293 2330 273 2214 273 
C 1523 273 858 993 858 2178 
C 858 3357 1517 4096 2214 4096 
C 2918 4096 3571 3350 3571 2178 
C 3571 1771 3507 1089 2950 566 
L 2490 1210 
L 1939 1210 
L 2528 324 
z
" transform="scale(0.015625)"/>
       <path id="CMSS17-6f" d="M 2829 1356 
C 2829 2176 2221 2816 1504 2816 
C 768 2816 173 2157 173 1356 
C 173 544 787 -64 1498 -64 
C 2227 -64 2829 563 2829 1356 
z
M 1504 337 
C 1050 337 659 709 659 1408 
C 659 2151 1114 2427 1498 2427 
C 1914 2427 2342 2126 2342 1408 
C 2342 683 1926 337 1504 337 
z
" transform="scale(0.015625)"/>
       <path id="CMSS17-53" d="M 2797 4169 
C 2515 4334 2208 4480 1690 4480 
C 864 4480 333 3879 333 3266 
C 333 3025 403 2753 653 2475 
C 902 2196 1184 2121 1542 2033 
C 1690 1994 1939 1924 1984 1906 
C 2342 1767 2515 1444 2515 1140 
C 2515 742 2202 318 1645 318 
C 1453 318 890 318 358 819 
L 269 318 
C 794 -64 1363 -128 1651 -128 
C 2438 -128 3002 488 3002 1186 
C 3002 1440 2925 1763 2656 2061 
C 2394 2347 2163 2410 1638 2549 
C 1338 2626 1146 2677 986 2873 
C 877 3013 819 3146 819 3317 
C 819 3673 1126 4060 1690 4060 
C 1971 4060 2336 4002 2707 3660 
L 2797 4169 
z
" transform="scale(0.015625)"/>
      </defs>
      <use xlink:href="#CMSS17-51" transform="scale(0.996264)"/>
      <use xlink:href="#CMSS17-6f" transform="translate(69.024255 0) scale(0.996264)"/>
      <use xlink:href="#CMSS17-53" transform="translate(115.867879 0) scale(0.996264)"/>
     </g>
    </g>
   </g>
   <g id="line2d_20">
    <path d="M 92.290909 303.61517 
L 144.289896 303.61517 
L 145.420309 275.964576 
L 149.94196 275.964576 
L 151.072373 257.59572 
L 156.724437 257.59572 
L 157.854849 257.373432 
L 230.201266 257.373432 
L 231.331679 258.790848 
L 235.85333 258.790848 
L 236.983743 278.910024 
L 242.635807 278.910024 
L 243.766219 280.105152 
L 321.7647 280.188576 
L 322.895113 244.951176 
L 328.547177 244.951176 
L 329.677589 236.170272 
L 408.806483 236.086848 
L 409.936895 238.865448 
L 414.458546 238.865448 
L 415.588959 246.146568 
L 421.241023 246.146568 
L 423.501849 246.257712 
L 498.109091 246.257712 
L 498.109091 246.257712 
" clip-path="url(#p1904254e50)" style="fill: none; stroke: #482475; stroke-width: 2.5; stroke-linecap: square"/>
   </g>
   <g id="line2d_21">
    <path d="M 92.290909 300.308201 
L 144.289896 300.308201 
L 145.420309 266.293728 
L 149.94196 266.293728 
L 151.072373 245.674272 
L 156.724437 245.674272 
L 157.854849 245.39628 
L 174.811041 245.424264 
L 175.941454 245.284872 
L 187.245581 245.36856 
L 192.897645 245.39628 
L 198.549709 245.36856 
L 230.201266 245.34084 
L 231.331679 247.313976 
L 235.85333 247.313976 
L 236.983743 267.711672 
L 242.635807 267.711672 
L 243.766219 272.740872 
L 248.28787 272.740872 
L 249.418283 272.602536 
L 321.7647 272.629992 
L 322.895113 232.085136 
L 328.547177 232.085136 
L 329.677589 222.553152 
L 334.19924 222.553152 
L 335.329653 222.414024 
L 408.806483 222.414024 
L 409.936895 226.165728 
L 414.458546 226.165728 
L 415.588959 233.474568 
L 421.241023 233.474568 
L 422.371436 233.308248 
L 498.109091 233.308248 
L 498.109091 233.308248 
" clip-path="url(#p1904254e50)" style="fill: none; stroke: #bddf26; stroke-width: 2.5; stroke-linecap: square"/>
   </g>
   <g id="patch_3">
    <path d="M 72 320.4 
L 72 43.2 
" style="fill: none; stroke: #000000; stroke-width: 0.8; stroke-linejoin: miter; stroke-linecap: square"/>
   </g>
   <g id="patch_4">
    <path d="M 518.4 320.4 
L 518.4 43.2 
" style="fill: none; stroke: #000000; stroke-width: 0.8; stroke-linejoin: miter; stroke-linecap: square"/>
   </g>
   <g id="patch_5">
    <path d="M 72 320.4 
L 518.4 320.4 
" style="fill: none; stroke: #000000; stroke-width: 0.8; stroke-linejoin: miter; stroke-linecap: square"/>
   </g>
   <g id="text_16">
    <!-- $nt=Lobster$ $d=1000$ $oc=10\%$ $l=dynamic$ -->
    <g transform="translate(122.676446 37.2) scale(0.18 -0.18)">
     <defs>
      <path id="CMMI12-6e" d="M 1318 1871 
C 1331 1910 1491 2229 1728 2433 
C 1894 2586 2112 2689 2362 2689 
C 2618 2689 2707 2497 2707 2242 
C 2707 1878 2445 1150 2317 805 
C 2259 651 2227 568 2227 453 
C 2227 166 2426 -64 2733 -64 
C 3328 -64 3552 875 3552 913 
C 3552 945 3526 971 3488 971 
C 3430 971 3424 952 3392 843 
C 3245 319 3002 64 2752 64 
C 2688 64 2586 64 2586 269 
C 2586 429 2656 621 2694 710 
C 2822 1063 3091 1780 3091 2145 
C 3091 2528 2867 2816 2381 2816 
C 1811 2816 1510 2415 1395 2255 
C 1376 2618 1114 2816 832 2816 
C 627 2816 486 2695 378 2478 
C 262 2248 173 1865 173 1839 
C 173 1814 198 1782 243 1782 
C 294 1782 301 1788 339 1935 
C 442 2325 557 2689 813 2689 
C 960 2689 1011 2586 1011 2395 
C 1011 2254 947 2005 902 1807 
L 723 1118 
C 698 996 627 709 595 594 
C 550 428 480 128 480 96 
C 480 6 550 -64 646 -64 
C 723 -64 813 -26 864 70 
C 877 102 934 326 966 453 
L 1107 1028 
L 1318 1871 
z
" transform="scale(0.015625)"/>
      <path id="CMMI12-74" d="M 1286 2566 
L 1875 2566 
C 1997 2566 2061 2566 2061 2681 
C 2061 2752 2022 2752 1894 2752 
L 1331 2752 
L 1568 3692 
C 1594 3781 1594 3794 1594 3840 
C 1594 3943 1510 4000 1427 4000 
C 1376 4000 1229 3981 1178 3775 
L 928 2752 
L 326 2752 
C 198 2752 141 2752 141 2630 
C 141 2566 186 2566 307 2566 
L 877 2566 
L 454 881 
C 403 658 384 594 384 511 
C 384 211 595 -64 954 -64 
C 1600 -64 1946 868 1946 912 
C 1946 951 1920 970 1882 970 
C 1869 970 1843 970 1830 944 
C 1824 938 1818 931 1773 829 
C 1638 511 1344 64 973 64 
C 781 64 768 224 768 364 
C 768 370 768 492 787 568 
L 1286 2566 
z
" transform="scale(0.015625)"/>
      <path id="CMR17-3d" d="M 4115 2017 
C 4211 2017 4307 2017 4307 2125 
C 4307 2240 4198 2240 4090 2240 
L 512 2240 
C 403 2240 294 2240 294 2125 
C 294 2017 390 2017 486 2017 
L 4115 2017 
z
M 4090 896 
C 4198 896 4307 896 4307 1011 
C 4307 1119 4211 1119 4115 1119 
L 486 1119 
C 390 1119 294 1119 294 1011 
C 294 896 403 896 512 896 
L 4090 896 
z
" transform="scale(0.015625)"/>
      <path id="CMMI12-4c" d="M 2349 3861 
C 2406 4103 2426 4167 2989 4167 
C 3162 4167 3206 4167 3206 4288 
C 3206 4352 3136 4352 3110 4352 
C 2982 4352 2835 4352 2707 4352 
L 1850 4352 
C 1728 4352 1587 4352 1466 4352 
C 1414 4352 1344 4352 1344 4231 
C 1344 4167 1402 4167 1498 4167 
C 1888 4167 1888 4116 1888 4046 
C 1888 4034 1888 3995 1862 3899 
L 998 472 
C 941 249 928 185 480 185 
C 358 185 294 185 294 70 
C 294 0 333 0 461 0 
L 3328 0 
C 3469 0 3475 6 3520 121 
L 4013 1478 
C 4026 1510 4038 1548 4038 1567 
C 4038 1605 4006 1631 3974 1631 
C 3968 1631 3936 1631 3923 1605 
C 3910 1599 3910 1586 3859 1465 
C 3654 905 3366 185 2285 185 
L 1670 185 
C 1581 185 1568 185 1530 192 
C 1459 198 1453 211 1453 262 
C 1453 307 1466 345 1478 401 
L 2349 3861 
z
" transform="scale(0.015625)"/>
      <path id="CMMI12-6f" d="M 2918 1756 
C 2918 2363 2522 2816 1939 2816 
C 1094 2816 262 1897 262 996 
C 262 390 659 -64 1242 -64 
C 2093 -64 2918 856 2918 1756 
z
M 1248 64 
C 928 64 691 319 691 766 
C 691 1060 845 1712 1024 2031 
C 1312 2523 1670 2689 1933 2689 
C 2246 2689 2490 2433 2490 1986 
C 2490 1731 2355 1047 2112 658 
C 1850 230 1498 64 1248 64 
z
" transform="scale(0.015625)"/>
      <path id="CMMI12-62" d="M 1478 4257 
C 1485 4283 1498 4321 1498 4352 
C 1498 4416 1434 4416 1421 4416 
C 1414 4416 1184 4393 1069 4377 
C 960 4377 864 4358 749 4358 
C 595 4345 550 4339 550 4224 
C 550 4160 614 4160 678 4160 
C 1005 4160 1005 4103 1005 4040 
C 1005 3996 954 3811 928 3696 
L 774 3085 
C 710 2831 346 1387 320 1272 
C 288 1114 288 1005 288 922 
C 288 274 653 -64 1069 -64 
C 1811 -64 2579 888 2579 1814 
C 2579 2401 2246 2816 1766 2816 
C 1434 2816 1133 2542 1011 2414 
L 1478 4257 
z
M 1075 64 
C 870 64 646 217 646 715 
C 646 926 666 1047 781 1494 
C 800 1577 902 1986 928 2069 
C 941 2120 1318 2689 1754 2689 
C 2035 2689 2163 2408 2163 2076 
C 2163 1769 1984 1047 1824 715 
C 1664 370 1370 64 1075 64 
z
" transform="scale(0.015625)"/>
      <path id="CMMI12-73" d="M 1459 1280 
C 1568 1261 1741 1223 1779 1216 
C 1862 1192 2150 1090 2150 783 
C 2150 586 1971 70 1229 70 
C 1094 70 614 70 486 436 
C 742 404 870 603 870 745 
C 870 880 781 950 653 950 
C 512 950 326 841 326 552 
C 326 173 710 -64 1222 -64 
C 2195 -64 2483 651 2483 984 
C 2483 1079 2483 1258 2278 1462 
C 2118 1616 1965 1648 1619 1718 
C 1446 1756 1171 1814 1171 2101 
C 1171 2229 1286 2689 1894 2689 
C 2163 2689 2426 2589 2490 2368 
C 2208 2368 2195 2125 2195 2119 
C 2195 1984 2317 1946 2374 1946 
C 2464 1946 2643 2015 2643 2281 
C 2643 2545 2400 2816 1901 2816 
C 1062 2816 838 2160 838 1899 
C 838 1414 1312 1312 1459 1280 
z
" transform="scale(0.015625)"/>
      <path id="CMMI12-65" d="M 1146 1479 
C 1318 1479 1754 1479 2061 1595 
C 2547 1783 2592 2158 2592 2274 
C 2592 2558 2349 2816 1926 2816 
C 1254 2816 288 2210 288 1073 
C 288 402 672 -64 1254 -64 
C 2125 -64 2675 609 2675 692 
C 2675 730 2637 762 2611 762 
C 2592 762 2586 756 2528 699 
C 2118 159 1510 64 1267 64 
C 902 64 710 350 710 822 
C 710 911 710 1071 806 1479 
L 1146 1479 
z
M 838 1600 
C 1114 2592 1722 2689 1926 2689 
C 2208 2689 2400 2522 2400 2277 
C 2400 1600 1376 1600 1107 1600 
L 838 1600 
z
" transform="scale(0.015625)"/>
      <path id="CMMI12-72" d="M 2490 2612 
C 2291 2574 2189 2433 2189 2293 
C 2189 2139 2310 2088 2400 2088 
C 2579 2088 2726 2242 2726 2433 
C 2726 2638 2528 2816 2208 2816 
C 1952 2816 1658 2701 1389 2312 
C 1344 2650 1088 2816 832 2816 
C 582 2816 454 2625 378 2484 
C 269 2254 173 1871 173 1839 
C 173 1814 198 1782 243 1782 
C 294 1782 301 1788 339 1935 
C 435 2318 557 2689 813 2689 
C 966 2689 1011 2580 1011 2395 
C 1011 2254 947 2005 902 1807 
L 723 1118 
C 698 996 627 709 595 594 
C 550 428 480 128 480 96 
C 480 6 550 -64 646 -64 
C 717 -64 838 -19 877 109 
C 896 160 1133 1124 1171 1271 
C 1203 1411 1242 1546 1274 1686 
C 1299 1775 1325 1878 1344 1961 
C 1363 2018 1536 2331 1696 2472 
C 1773 2542 1939 2689 2202 2689 
C 2304 2689 2406 2670 2490 2612 
z
" transform="scale(0.015625)"/>
      <path id="CMMI12-64" d="M 3219 4257 
C 3226 4282 3238 4320 3238 4352 
C 3238 4416 3174 4416 3162 4416 
C 3155 4416 2842 4388 2810 4380 
C 2701 4373 2605 4358 2490 4358 
C 2330 4345 2285 4339 2285 4224 
C 2285 4160 2336 4160 2426 4160 
C 2739 4160 2746 4103 2746 4040 
C 2746 4002 2733 3952 2726 3933 
L 2336 2395 
C 2266 2561 2093 2816 1760 2816 
C 1037 2816 256 1884 256 939 
C 256 307 627 -64 1062 -64 
C 1414 -64 1715 211 1894 422 
C 1958 45 2259 -64 2451 -64 
C 2643 -64 2797 51 2912 281 
C 3014 498 3104 888 3104 913 
C 3104 945 3078 971 3040 971 
C 2982 971 2976 939 2950 843 
C 2854 466 2733 64 2470 64 
C 2285 64 2272 229 2272 357 
C 2272 382 2272 515 2317 694 
L 3219 4257 
z
M 1926 760 
C 1894 651 1894 639 1805 517 
C 1664 338 1382 64 1082 64 
C 819 64 672 300 672 677 
C 672 1028 870 1743 992 2012 
C 1210 2459 1510 2689 1760 2689 
C 2182 2689 2266 2165 2266 2114 
C 2266 2108 2246 2024 2240 2012 
L 1926 760 
z
" transform="scale(0.015625)"/>
      <path id="CMMI12-63" d="M 2502 2431 
C 2381 2431 2323 2431 2234 2355 
C 2195 2323 2125 2227 2125 2125 
C 2125 1997 2221 1920 2342 1920 
C 2496 1920 2669 2044 2669 2292 
C 2669 2588 2374 2816 1933 2816 
C 1094 2816 256 1903 256 996 
C 256 441 602 -64 1254 -64 
C 2125 -64 2675 622 2675 706 
C 2675 744 2637 776 2611 776 
C 2592 776 2586 770 2528 713 
C 2118 162 1510 64 1267 64 
C 826 64 685 446 685 764 
C 685 988 794 1605 1024 2039 
C 1190 2338 1536 2682 1939 2682 
C 2022 2682 2374 2682 2502 2431 
z
" transform="scale(0.015625)"/>
      <path id="CMR17-25" d="M 4640 959 
C 4640 1698 4275 2240 3846 2240 
C 3411 2240 2970 1736 2970 959 
C 2970 183 3405 -320 3846 -320 
C 4275 -320 4640 215 4640 959 
z
M 3853 -218 
C 3686 -218 3270 -66 3270 959 
C 3270 1991 3686 2138 3853 2138 
C 4205 2138 4525 1634 4525 959 
C 4525 285 4205 -218 3853 -218 
z
M 4083 4577 
C 4128 4647 4134 4653 4134 4685 
C 4134 4761 4077 4800 4026 4800 
C 3962 4800 3936 4756 3891 4706 
C 3520 4190 3008 4134 2746 4134 
C 2106 4134 1715 4494 1594 4607 
C 1510 4682 1389 4800 1171 4800 
C 736 4800 294 4296 294 3519 
C 294 2743 730 2240 1171 2240 
C 1600 2240 1965 2778 1965 3527 
C 1965 3969 1830 4270 1811 4308 
C 2202 4064 2586 4032 2752 4032 
C 3162 4032 3456 4183 3616 4289 
L 3622 4283 
L 858 -84 
C 800 -174 800 -187 800 -206 
C 800 -276 858 -320 915 -320 
C 973 -320 992 -289 1037 -218 
L 4083 4577 
z
M 1178 2342 
C 1011 2342 595 2494 595 3519 
C 595 4551 1011 4698 1178 4698 
C 1530 4698 1850 4194 1850 3519 
C 1850 2845 1530 2342 1178 2342 
z
" transform="scale(0.015625)"/>
      <path id="CMMI12-6c" d="M 1626 4257 
C 1632 4282 1645 4320 1645 4352 
C 1645 4416 1581 4416 1568 4416 
C 1562 4416 1331 4393 1216 4377 
C 1107 4377 1011 4358 896 4358 
C 742 4345 698 4339 698 4224 
C 698 4160 762 4160 826 4160 
C 1152 4160 1152 4102 1152 4039 
C 1152 4014 1152 4001 1120 3887 
L 326 731 
C 307 661 294 610 294 509 
C 294 191 531 -64 858 -64 
C 1069 -64 1210 76 1312 274 
C 1421 483 1510 884 1510 909 
C 1510 941 1485 967 1446 967 
C 1389 967 1382 935 1357 840 
C 1242 401 1126 64 870 64 
C 678 64 678 267 678 357 
C 678 382 678 515 723 694 
L 1626 4257 
z
" transform="scale(0.015625)"/>
      <path id="CMMI12-79" d="M 1683 -700 
C 1510 -939 1261 -1152 947 -1152 
C 870 -1152 563 -1152 467 -889 
C 486 -895 518 -895 531 -895 
C 723 -895 851 -729 851 -582 
C 851 -435 730 -384 634 -384 
C 531 -384 307 -458 307 -759 
C 307 -1071 582 -1286 947 -1286 
C 1587 -1286 2234 -700 2413 6 
L 3040 2485 
C 3046 2517 3059 2556 3059 2594 
C 3059 2689 2982 2753 2886 2753 
C 2829 2753 2694 2727 2643 2535 
L 2170 658 
C 2138 543 2138 530 2086 460 
C 1958 281 1747 64 1440 64 
C 1082 64 1050 415 1050 588 
C 1050 952 1222 1443 1395 1903 
C 1466 2088 1504 2178 1504 2305 
C 1504 2574 1312 2816 998 2816 
C 410 2816 173 1890 173 1839 
C 173 1814 198 1782 243 1782 
C 301 1782 307 1807 333 1897 
C 486 2433 730 2689 979 2689 
C 1037 2689 1146 2689 1146 2478 
C 1146 2312 1075 2127 979 1884 
C 666 1047 666 837 666 683 
C 666 77 1101 -64 1421 -64 
C 1606 -64 1837 -6 2061 230 
L 2067 224 
C 1971 -147 1907 -392 1683 -700 
z
" transform="scale(0.015625)"/>
      <path id="CMMI12-61" d="M 1926 760 
C 1894 651 1894 639 1805 517 
C 1664 338 1382 64 1082 64 
C 819 64 672 300 672 677 
C 672 1028 870 1743 992 2012 
C 1210 2459 1510 2689 1760 2689 
C 2182 2689 2266 2165 2266 2114 
C 2266 2108 2246 2024 2240 2012 
L 1926 760 
z
M 2336 2395 
C 2266 2561 2093 2816 1760 2816 
C 1037 2816 256 1884 256 939 
C 256 307 627 -64 1062 -64 
C 1414 -64 1715 211 1894 422 
C 1958 45 2259 -64 2451 -64 
C 2643 -64 2797 51 2912 281 
C 3014 498 3104 888 3104 913 
C 3104 945 3078 971 3040 971 
C 2982 971 2976 939 2950 843 
C 2854 466 2733 64 2470 64 
C 2285 64 2272 230 2272 358 
C 2272 505 2291 575 2349 824 
C 2394 984 2426 1124 2477 1309 
C 2714 2267 2771 2497 2771 2535 
C 2771 2625 2701 2695 2605 2695 
C 2400 2695 2349 2472 2336 2395 
z
" transform="scale(0.015625)"/>
      <path id="CMMI12-6d" d="M 1318 1871 
C 1331 1910 1491 2229 1728 2433 
C 1894 2586 2112 2689 2362 2689 
C 2618 2689 2707 2497 2707 2242 
C 2707 2203 2707 2076 2630 1775 
L 2470 1118 
C 2419 926 2298 453 2285 383 
C 2259 287 2221 121 2221 96 
C 2221 6 2291 -64 2387 -64 
C 2579 -64 2611 83 2669 313 
L 3053 1839 
C 3066 1890 3398 2689 4102 2689 
C 4358 2689 4448 2497 4448 2242 
C 4448 1884 4198 1188 4058 805 
C 4000 651 3968 568 3968 453 
C 3968 166 4166 -64 4474 -64 
C 5069 -64 5293 875 5293 913 
C 5293 945 5267 971 5229 971 
C 5171 971 5165 952 5133 843 
C 4986 332 4749 64 4493 64 
C 4429 64 4326 64 4326 269 
C 4326 436 4403 640 4429 710 
C 4544 1018 4832 1773 4832 2145 
C 4832 2528 4608 2816 4122 2816 
C 3693 2816 3347 2574 3091 2197 
C 3072 2542 2861 2816 2381 2816 
C 1811 2816 1510 2415 1395 2255 
C 1376 2618 1114 2816 832 2816 
C 646 2816 499 2727 378 2484 
C 262 2254 173 1865 173 1839 
C 173 1814 198 1782 243 1782 
C 294 1782 301 1788 339 1935 
C 435 2312 557 2689 813 2689 
C 960 2689 1011 2586 1011 2395 
C 1011 2254 947 2005 902 1807 
L 723 1118 
C 698 996 627 709 595 594 
C 550 428 480 128 480 96 
C 480 6 550 -64 646 -64 
C 723 -64 813 -26 864 70 
C 877 102 934 326 966 453 
L 1107 1028 
L 1318 1871 
z
" transform="scale(0.015625)"/>
      <path id="CMMI12-69" d="M 1811 913 
C 1811 945 1786 971 1747 971 
C 1690 971 1683 952 1651 843 
C 1485 262 1222 64 1011 64 
C 934 64 845 83 845 275 
C 845 447 922 639 992 830 
L 1440 2018 
C 1459 2069 1504 2184 1504 2305 
C 1504 2574 1312 2816 998 2816 
C 410 2816 173 1890 173 1839 
C 173 1814 198 1782 243 1782 
C 301 1782 307 1807 333 1896 
C 486 2428 730 2682 979 2682 
C 1037 2682 1146 2682 1146 2478 
C 1146 2312 1062 2101 1011 1961 
L 563 773 
C 525 671 486 568 486 453 
C 486 166 685 -64 992 -64 
C 1581 -64 1811 869 1811 913 
z
M 1760 4013 
C 1760 4109 1683 4224 1542 4224 
C 1395 4224 1229 4083 1229 3917 
C 1229 3758 1363 3707 1440 3707 
C 1613 3707 1760 3873 1760 4013 
z
" transform="scale(0.015625)"/>
     </defs>
     <use xlink:href="#CMMI12-6e" transform="scale(0.996264)"/>
     <use xlink:href="#CMMI12-74" transform="translate(58.230047 0) scale(0.996264)"/>
     <use xlink:href="#CMR17-3d" transform="translate(121.130386 0) scale(0.996264)"/>
     <use xlink:href="#CMMI12-4c" transform="translate(220.519183 0) scale(0.996264)"/>
     <use xlink:href="#CMMI12-6f" transform="translate(286.890059 0) scale(0.996264)"/>
     <use xlink:href="#CMMI12-62" transform="translate(333.785368 0) scale(0.996264)"/>
     <use xlink:href="#CMMI12-73" transform="translate(375.261243 0) scale(0.996264)"/>
     <use xlink:href="#CMMI12-74" transform="translate(421.21129 0) scale(0.996264)"/>
     <use xlink:href="#CMMI12-65" transform="translate(456.43762 0) scale(0.996264)"/>
     <use xlink:href="#CMMI12-72" transform="translate(501.649621 0) scale(0.996264)"/>
     <use xlink:href="#CMMI12-64" transform="translate(579.549346 0) scale(0.996264)"/>
     <use xlink:href="#CMR17-3d" transform="translate(657.912452 0) scale(0.996264)"/>
     <use xlink:href="#CMR17-31" transform="translate(757.301249 0) scale(0.996264)"/>
     <use xlink:href="#CMR17-30" transform="translate(802.991726 0) scale(0.996264)"/>
     <use xlink:href="#CMR17-30" transform="translate(848.682203 0) scale(0.996264)"/>
     <use xlink:href="#CMR17-30" transform="translate(894.37268 0) scale(0.996264)"/>
     <use xlink:href="#CMMI12-6f" transform="translate(971.29227 0) scale(0.996264)"/>
     <use xlink:href="#CMMI12-63" transform="translate(1018.18758 0) scale(0.996264)"/>
     <use xlink:href="#CMR17-3d" transform="translate(1087.844822 0) scale(0.996264)"/>
     <use xlink:href="#CMR17-31" transform="translate(1187.233619 0) scale(0.996264)"/>
     <use xlink:href="#CMR17-30" transform="translate(1232.924096 0) scale(0.996264)"/>
     <use xlink:href="#CMR17-25" transform="translate(1278.614573 0) scale(0.996264)"/>
     <use xlink:href="#CMMI12-6c" transform="translate(1386.763276 0) scale(0.996264)"/>
     <use xlink:href="#CMR17-3d" transform="translate(1445.685689 0) scale(0.996264)"/>
     <use xlink:href="#CMMI12-64" transform="translate(1545.074486 0) scale(0.996264)"/>
     <use xlink:href="#CMMI12-79" transform="translate(1595.763582 0) scale(0.996264)"/>
     <use xlink:href="#CMMI12-6e" transform="translate(1646.902363 0) scale(0.996264)"/>
     <use xlink:href="#CMMI12-61" transform="translate(1705.132411 0) scale(0.996264)"/>
     <use xlink:href="#CMMI12-6d" transform="translate(1756.340268 0) scale(0.996264)"/>
     <use xlink:href="#CMMI12-69" transform="translate(1841.667493 0) scale(0.996264)"/>
     <use xlink:href="#CMMI12-63" transform="translate(1874.946094 0) scale(0.996264)"/>
    </g>
   </g>
  </g>
  <g id="axes_2">
   <g id="matplotlib.axis_3">
    <g id="ytick_7">
     <g id="line2d_22">
      <defs>
       <path id="mba6b9aeb5f" d="M 0 0 
L 3.5 0 
" style="stroke: #000000; stroke-width: 0.8"/>
      </defs>
      <g>
       <use xlink:href="#mba6b9aeb5f" x="518.4" y="320.4" style="stroke: #000000; stroke-width: 0.8"/>
      </g>
     </g>
     <g id="text_17">
      <!-- $\mathdefault{0}$ -->
      <g transform="translate(525.4 325.415904) scale(0.145 -0.145)">
       <use xlink:href="#CMR17-30" transform="scale(0.996264)"/>
      </g>
     </g>
    </g>
    <g id="ytick_8">
     <g id="line2d_23">
      <g>
       <use xlink:href="#mba6b9aeb5f" x="518.4" y="264.987706" style="stroke: #000000; stroke-width: 0.8"/>
      </g>
     </g>
     <g id="text_18">
      <!-- $\mathdefault{20}$ -->
      <g transform="translate(525.4 270.00361) scale(0.145 -0.145)">
       <use xlink:href="#CMR17-32" transform="scale(0.996264)"/>
       <use xlink:href="#CMR17-30" transform="translate(45.690477 0) scale(0.996264)"/>
      </g>
     </g>
    </g>
    <g id="ytick_9">
     <g id="line2d_24">
      <g>
       <use xlink:href="#mba6b9aeb5f" x="518.4" y="209.575412" style="stroke: #000000; stroke-width: 0.8"/>
      </g>
     </g>
     <g id="text_19">
      <!-- $\mathdefault{40}$ -->
      <g transform="translate(525.4 214.591316) scale(0.145 -0.145)">
       <use xlink:href="#CMR17-34" transform="scale(0.996264)"/>
       <use xlink:href="#CMR17-30" transform="translate(45.690477 0) scale(0.996264)"/>
      </g>
     </g>
    </g>
    <g id="ytick_10">
     <g id="line2d_25">
      <g>
       <use xlink:href="#mba6b9aeb5f" x="518.4" y="154.163118" style="stroke: #000000; stroke-width: 0.8"/>
      </g>
     </g>
     <g id="text_20">
      <!-- $\mathdefault{60}$ -->
      <g transform="translate(525.4 159.179023) scale(0.145 -0.145)">
       <use xlink:href="#CMR17-36" transform="scale(0.996264)"/>
       <use xlink:href="#CMR17-30" transform="translate(45.690477 0) scale(0.996264)"/>
      </g>
     </g>
    </g>
    <g id="ytick_11">
     <g id="line2d_26">
      <g>
       <use xlink:href="#mba6b9aeb5f" x="518.4" y="98.750825" style="stroke: #000000; stroke-width: 0.8"/>
      </g>
     </g>
     <g id="text_21">
      <!-- $\mathdefault{80}$ -->
      <g transform="translate(525.4 103.766729) scale(0.145 -0.145)">
       <use xlink:href="#CMR17-38" transform="scale(0.996264)"/>
       <use xlink:href="#CMR17-30" transform="translate(45.690477 0) scale(0.996264)"/>
      </g>
     </g>
    </g>
    <g id="ytick_12">
     <g id="line2d_27">
      <g>
       <use xlink:href="#mba6b9aeb5f" x="518.4" y="43.338531" style="stroke: #000000; stroke-width: 0.8"/>
      </g>
     </g>
     <g id="text_22">
      <!-- $\mathdefault{100}$ -->
      <g transform="translate(525.4 48.354435) scale(0.145 -0.145)">
       <use xlink:href="#CMR17-31" transform="scale(0.996264)"/>
       <use xlink:href="#CMR17-30" transform="translate(45.690477 0) scale(0.996264)"/>
       <use xlink:href="#CMR17-30" transform="translate(91.380954 0) scale(0.996264)"/>
      </g>
     </g>
    </g>
    <g id="text_23">
     <!-- CPU load in \% -->
     <g transform="translate(560.648875 226.102524) rotate(-90) scale(0.145 -0.145)">
      <defs>
       <path id="CMSS17-43" d="M 3501 714 
C 3072 427 2874 344 2355 344 
C 1459 344 934 1303 934 2179 
C 934 3112 1472 4032 2381 4032 
C 2790 4032 3059 3918 3386 3715 
L 3475 4217 
C 3168 4370 2778 4440 2387 4440 
C 1158 4440 397 3316 397 2179 
C 397 927 1299 -64 2323 -64 
C 2874 -64 3066 -19 3539 280 
L 3501 714 
z
" transform="scale(0.015625)"/>
       <path id="CMSS17-50" d="M 2106 1856 
C 2874 1856 3501 2453 3501 3158 
C 3501 3850 2899 4453 2067 4453 
L 570 4453 
L 570 0 
L 1107 0 
L 1107 1856 
L 2106 1856 
z
M 1926 4096 
C 2669 4096 2995 3627 2995 3157 
C 2995 2720 2694 2226 1926 2226 
L 1094 2226 
L 1094 4096 
L 1926 4096 
z
" transform="scale(0.015625)"/>
       <path id="CMSS17-55" d="M 3552 4384 
L 3066 4384 
L 3066 1449 
C 3066 604 2547 229 2074 229 
C 1587 229 1101 623 1101 1443 
L 1101 4384 
L 563 4384 
L 563 1454 
C 563 539 1274 -128 2067 -128 
C 2861 -128 3552 539 3552 1454 
L 3552 4384 
z
" transform="scale(0.015625)"/>
       <path id="CMSS17-6c" d="M 947 4416 
L 474 4416 
L 474 0 
L 947 0 
L 947 4416 
z
" transform="scale(0.015625)"/>
       <path id="CMSS17-61" d="M 2406 1791 
C 2406 2392 1978 2808 1402 2808 
C 1120 2808 813 2757 461 2553 
L 499 2135 
C 659 2248 934 2432 1395 2432 
C 1722 2432 1920 2180 1920 1782 
L 1920 1536 
C 896 1536 256 1238 256 726 
C 256 461 416 -64 947 -64 
C 1043 -64 1562 -64 1933 217 
L 1933 -19 
L 2406 -19 
L 2406 1791 
z
M 1920 816 
C 1920 701 1920 548 1728 434 
C 1562 325 1350 325 1261 325 
C 941 325 723 511 723 744 
C 723 1211 1722 1211 1920 1211 
L 1920 816 
z
" transform="scale(0.015625)"/>
       <path id="CMSS17-64" d="M 2611 4416 
L 2138 4416 
L 2138 2438 
C 1939 2603 1613 2756 1254 2756 
C 672 2756 211 2131 211 1347 
C 211 562 666 -64 1235 -64 
C 1677 -64 1971 172 2125 306 
L 2125 -13 
L 2611 -13 
L 2611 4416 
z
M 2125 836 
C 2125 747 2125 653 1926 482 
C 1798 375 1645 325 1498 325 
C 1152 325 698 576 698 1340 
C 698 2134 1210 2368 1562 2368 
C 1798 2368 1990 2254 2125 2065 
L 2125 836 
z
" transform="scale(0.015625)"/>
       <path id="CMSS17-6e" d="M 2618 1877 
C 2618 2283 2522 2816 1798 2816 
C 1389 2816 1120 2606 941 2389 
L 941 2758 
L 474 2758 
L 474 0 
L 960 0 
L 960 1559 
C 960 1964 1114 2428 1549 2428 
C 2112 2428 2131 2048 2131 1829 
L 2131 0 
L 2618 0 
L 2618 1877 
z
" transform="scale(0.015625)"/>
       <path id="CMSS17-25" d="M 3923 4583 
C 3962 4647 3962 4679 3962 4685 
C 3962 4755 3904 4800 3853 4800 
C 3782 4800 3750 4749 3718 4685 
L 1101 -104 
C 1088 -129 1062 -167 1062 -206 
C 1062 -276 1120 -320 1178 -320 
C 1235 -320 1248 -295 1299 -206 
L 3923 4583 
z
M 4678 959 
C 4678 1698 4282 2240 3846 2240 
C 3418 2240 3008 1711 3008 959 
C 3008 208 3418 -320 3846 -320 
C 4288 -320 4678 221 4678 959 
z
M 3846 68 
C 3712 68 3494 189 3494 959 
C 3494 1724 3712 1851 3846 1851 
C 4083 1851 4211 1386 4211 959 
C 4211 533 4083 68 3846 68 
z
M 2003 3519 
C 2003 4258 1606 4800 1171 4800 
C 742 4800 333 4271 333 3519 
C 333 2768 742 2240 1171 2240 
C 1613 2240 2003 2781 2003 3519 
z
M 1171 2628 
C 1037 2628 819 2749 819 3519 
C 819 4284 1037 4411 1171 4411 
C 1408 4411 1536 3946 1536 3519 
C 1536 3093 1408 2628 1171 2628 
z
" transform="scale(0.015625)"/>
      </defs>
      <use xlink:href="#CMSS17-43" transform="scale(0.996264)"/>
      <use xlink:href="#CMSS17-50" transform="translate(59.855772 0) scale(0.996264)"/>
      <use xlink:href="#CMSS17-55" transform="translate(119.591358 0) scale(0.996264)"/>
      <use xlink:href="#CMSS17-6c" transform="translate(214.960211 0) scale(0.996264)"/>
      <use xlink:href="#CMSS17-6f" transform="translate(237.140934 0) scale(0.996264)"/>
      <use xlink:href="#CMSS17-61" transform="translate(283.984557 0) scale(0.996264)"/>
      <use xlink:href="#CMSS17-64" transform="translate(328.906478 0) scale(0.996264)"/>
      <use xlink:href="#CMSS17-69" transform="translate(408.340534 0) scale(0.996264)"/>
      <use xlink:href="#CMSS17-6e" transform="translate(430.521257 0) scale(0.996264)"/>
      <use xlink:href="#CMSS17-25" transform="translate(509.955313 0) scale(0.996264)"/>
     </g>
    </g>
   </g>
   <g id="line2d_28">
    <path d="M 92.290909 97.463401 
L 144.289896 97.463401 
L 145.420309 208.931701 
L 230.201266 208.931701 
L 231.331679 160.194814 
L 235.85333 160.194814 
L 236.983743 153.197551 
L 321.7647 153.197551 
L 322.895113 264.66585 
L 408.806483 264.66585 
L 409.936895 237.120086 
L 414.458546 237.120086 
L 415.588959 236.798776 
L 498.109091 236.798776 
L 498.109091 236.798776 
" clip-path="url(#p1904254e50)" style="fill: none; stroke-dasharray: 5.55,2.4; stroke-dashoffset: 0; stroke: #140e36; stroke-width: 1.5"/>
   </g>
   <g id="line2d_29">
    <path d="M 92.290909 57.455725 
L 144.289896 57.455725 
L 145.420309 58.909638 
L 230.201266 58.986034 
L 231.331679 58.278653 
L 235.85333 58.278653 
L 236.983743 57.888406 
L 321.7647 57.888406 
L 322.895113 63.242162 
L 408.806483 63.242162 
L 409.936895 60.704419 
L 414.458546 60.704419 
L 415.588959 60.532269 
L 451.762168 60.532269 
L 452.89258 60.80933 
L 457.414231 60.80933 
L 458.544644 60.532269 
L 482.283312 60.532269 
L 483.413725 60.920155 
L 487.935376 60.920155 
L 489.065789 60.532269 
L 498.109091 60.532269 
L 498.109091 60.532269 
" clip-path="url(#p1904254e50)" style="fill: none; stroke-dasharray: 5.55,2.4; stroke-dashoffset: 0; stroke: #fecf92; stroke-width: 1.5"/>
   </g>
   <g id="patch_6">
    <path d="M 72 320.4 
L 72 43.2 
" style="fill: none; stroke: #000000; stroke-width: 0.8; stroke-linejoin: miter; stroke-linecap: square"/>
   </g>
   <g id="patch_7">
    <path d="M 518.4 320.4 
L 518.4 43.2 
" style="fill: none; stroke: #000000; stroke-width: 0.8; stroke-linejoin: miter; stroke-linecap: square"/>
   </g>
   <g id="patch_8">
    <path d="M 72 320.4 
L 518.4 320.4 
" style="fill: none; stroke: #000000; stroke-width: 0.8; stroke-linejoin: miter; stroke-linecap: square"/>
   </g>
   <g id="patch_9">
    <path d="M 72 43.2 
L 518.4 43.2 
" style="fill: none; stroke: #000000; stroke-width: 0.8; stroke-linejoin: miter; stroke-linecap: square"/>
   </g>
   <g id="legend_1">
    <g id="patch_10">
     <path d="M 347.090605 313.15 
L 508.25 313.15 
Q 511.15 313.15 511.15 310.25 
L 511.15 224.916687 
Q 511.15 222.016687 508.25 222.016687 
L 347.090605 222.016687 
Q 344.190605 222.016687 344.190605 224.916687 
L 344.190605 310.25 
Q 344.190605 313.15 347.090605 313.15 
z
" style="fill: #ffffff; opacity: 0.7; stroke: #cccccc; stroke-linejoin: miter"/>
    </g>
    <g id="line2d_30">
     <path d="M 349.990605 233.576059 
L 364.490605 233.576059 
L 378.990605 233.576059 
" style="fill: none; stroke: #482475; stroke-width: 2.5; stroke-linecap: square"/>
    </g>
    <g id="text_24">
     <!-- QoS [static] -->
     <g transform="translate(390.590605 238.651059) scale(0.145 -0.145)">
      <defs>
       <path id="CMSS17-5b" d="M 1613 -1600 
L 1613 -1212 
L 1062 -1212 
L 1062 4352 
L 1613 4352 
L 1613 4741 
L 595 4741 
L 595 -1600 
L 1613 -1600 
z
" transform="scale(0.015625)"/>
       <path id="CMSS17-63" d="M 2464 2541 
C 2464 2585 2170 2714 2093 2739 
C 1882 2816 1613 2816 1542 2816 
C 710 2816 211 2093 211 1363 
C 211 595 768 -64 1517 -64 
C 1946 -64 2253 76 2502 242 
L 2464 664 
C 2189 453 1869 337 1523 337 
C 1024 337 698 774 698 1369 
C 698 1831 909 2414 1549 2414 
C 1901 2414 2099 2343 2394 2145 
L 2464 2541 
z
" transform="scale(0.015625)"/>
       <path id="CMSS17-5d" d="M 1146 4741 
L 128 4741 
L 128 4352 
L 678 4352 
L 678 -1212 
L 128 -1212 
L 128 -1600 
L 1146 -1600 
L 1146 4741 
z
" transform="scale(0.015625)"/>
      </defs>
      <use xlink:href="#CMSS17-51" transform="scale(0.996264)"/>
      <use xlink:href="#CMSS17-6f" transform="translate(69.024255 0) scale(0.996264)"/>
      <use xlink:href="#CMSS17-53" transform="translate(115.867879 0) scale(0.996264)"/>
      <use xlink:href="#CMSS17-5b" transform="translate(199.145508 0) scale(0.996264)"/>
      <use xlink:href="#CMSS17-73" transform="translate(226.330946 0) scale(0.996264)"/>
      <use xlink:href="#CMSS17-74" transform="translate(262.244488 0) scale(0.996264)"/>
      <use xlink:href="#CMSS17-61" transform="translate(296.076055 0) scale(0.996264)"/>
      <use xlink:href="#CMSS17-74" transform="translate(340.997976 0) scale(0.996264)"/>
      <use xlink:href="#CMSS17-69" transform="translate(374.829542 0) scale(0.996264)"/>
      <use xlink:href="#CMSS17-63" transform="translate(397.010265 0) scale(0.996264)"/>
      <use xlink:href="#CMSS17-5d" transform="translate(438.649088 0) scale(0.996264)"/>
     </g>
    </g>
    <g id="line2d_31">
     <path d="M 349.990605 255.271887 
L 364.490605 255.271887 
L 378.990605 255.271887 
" style="fill: none; stroke: #bddf26; stroke-width: 2.5; stroke-linecap: square"/>
    </g>
    <g id="text_25">
     <!-- QoS [dynamic] -->
     <g transform="translate(390.590605 260.346887) scale(0.145 -0.145)">
      <defs>
       <path id="CMSS17-79" d="M 2675 2752 
L 2176 2752 
C 1632 1294 1446 702 1434 383 
L 1427 383 
C 1408 696 1126 1460 902 2007 
L 602 2752 
L 83 2752 
L 1216 13 
C 1146 -178 1043 -465 1011 -529 
C 870 -885 774 -885 672 -885 
C 646 -885 442 -885 211 -809 
L 250 -1229 
C 410 -1261 570 -1280 685 -1280 
C 845 -1280 1165 -1280 1459 -497 
L 2675 2752 
z
" transform="scale(0.015625)"/>
      </defs>
      <use xlink:href="#CMSS17-51" transform="scale(0.996264)"/>
      <use xlink:href="#CMSS17-6f" transform="translate(69.024255 0) scale(0.996264)"/>
      <use xlink:href="#CMSS17-53" transform="translate(115.867879 0) scale(0.996264)"/>
      <use xlink:href="#CMSS17-5b" transform="translate(199.145508 0) scale(0.996264)"/>
      <use xlink:href="#CMSS17-64" transform="translate(226.330946 0) scale(0.996264)"/>
      <use xlink:href="#CMSS17-79" transform="translate(274.53589 0) scale(0.996264)"/>
      <use xlink:href="#CMSS17-6e" transform="translate(317.536031 0) scale(0.996264)"/>
      <use xlink:href="#CMSS17-61" transform="translate(365.740974 0) scale(0.996264)"/>
      <use xlink:href="#CMSS17-6d" transform="translate(410.662895 0) scale(0.996264)"/>
      <use xlink:href="#CMSS17-69" transform="translate(484.892149 0) scale(0.996264)"/>
      <use xlink:href="#CMSS17-63" transform="translate(507.072872 0) scale(0.996264)"/>
      <use xlink:href="#CMSS17-5d" transform="translate(548.711695 0) scale(0.996264)"/>
     </g>
    </g>
    <g id="line2d_32">
     <path d="M 349.990605 276.967715 
L 364.490605 276.967715 
L 378.990605 276.967715 
" style="fill: none; stroke-dasharray: 5.55,2.4; stroke-dashoffset: 0; stroke: #140e36; stroke-width: 1.5"/>
    </g>
    <g id="text_26">
     <!-- Load driver (right) -->
     <g transform="translate(390.590605 282.042715) scale(0.145 -0.145)">
      <defs>
       <path id="CMSS17-4c" d="M 1670 414 
C 1594 414 1517 414 1440 414 
L 1101 414 
L 1101 4416 
L 563 4416 
L 563 0 
L 3002 0 
L 3002 414 
L 1670 414 
z
" transform="scale(0.015625)"/>
       <path id="CMSS17-72" d="M 954 1363 
C 954 1965 1395 2368 1958 2368 
L 1958 2789 
C 1549 2789 1165 2585 934 2253 
L 934 2758 
L 480 2758 
L 480 0 
L 954 0 
L 954 1363 
z
" transform="scale(0.015625)"/>
       <path id="CMSS17-76" d="M 2675 2752 
L 2176 2752 
L 1747 1556 
C 1613 1165 1421 627 1389 352 
L 1382 352 
C 1370 468 1318 634 1286 749 
C 1248 890 1197 1056 1158 1172 
L 595 2752 
L 83 2752 
L 1094 0 
L 1664 0 
L 2675 2752 
z
" transform="scale(0.015625)"/>
       <path id="CMSS17-67" d="M 2848 2808 
C 2483 2808 2170 2738 1914 2617 
C 1702 2777 1485 2808 1338 2808 
C 781 2808 358 2349 358 1814 
C 358 1468 550 1207 563 1195 
C 448 1035 384 863 384 672 
C 384 448 474 289 544 200 
C 211 -3 166 -314 166 -435 
C 166 -898 749 -1280 1498 -1280 
C 2253 -1280 2835 -898 2835 -428 
C 2835 448 1856 448 1587 448 
L 1069 448 
C 973 448 717 448 717 791 
C 717 921 774 1004 781 1010 
C 877 940 1075 832 1338 832 
C 1869 832 2310 1278 2310 1827 
C 2310 2132 2170 2355 2112 2432 
L 2131 2432 
C 2150 2432 2419 2432 2515 2432 
C 2720 2432 2739 2429 2918 2419 
L 2848 2808 
z
M 1338 1182 
C 1120 1182 813 1315 813 1823 
C 813 2375 1165 2464 1331 2464 
C 1549 2464 1856 2331 1856 1823 
C 1856 1271 1504 1182 1338 1182 
z
M 1581 -10 
C 1734 -10 2381 -10 2381 -442 
C 2381 -714 1984 -929 1504 -929 
C 1018 -929 621 -720 621 -435 
C 621 -403 621 -10 1062 -10 
L 1581 -10 
z
" transform="scale(0.015625)"/>
       <path id="CMSS17-68" d="M 2618 1891 
C 2618 2292 2522 2820 1798 2820 
C 1395 2820 1133 2623 947 2407 
L 947 4448 
L 474 4448 
L 474 32 
L 960 32 
L 960 1573 
C 960 1973 1114 2432 1549 2432 
C 2112 2432 2131 2056 2131 1839 
L 2131 32 
L 2618 32 
L 2618 1891 
z
" transform="scale(0.015625)"/>
      </defs>
      <use xlink:href="#CMSS17-4c" transform="scale(0.996264)"/>
      <use xlink:href="#CMSS17-6f" transform="translate(50.687105 0) scale(0.996264)"/>
      <use xlink:href="#CMSS17-61" transform="translate(97.530729 0) scale(0.996264)"/>
      <use xlink:href="#CMSS17-64" transform="translate(142.452649 0) scale(0.996264)"/>
      <use xlink:href="#CMSS17-64" transform="translate(221.886705 0) scale(0.996264)"/>
      <use xlink:href="#CMSS17-72" transform="translate(270.091649 0) scale(0.996264)"/>
      <use xlink:href="#CMSS17-69" transform="translate(302.001421 0) scale(0.996264)"/>
      <use xlink:href="#CMSS17-76" transform="translate(324.182144 0) scale(0.996264)"/>
      <use xlink:href="#CMSS17-65" transform="translate(367.182286 0) scale(0.996264)"/>
      <use xlink:href="#CMSS17-72" transform="translate(408.821108 0) scale(0.996264)"/>
      <use xlink:href="#CMSS17-28" transform="translate(471.959993 0) scale(0.996264)"/>
      <use xlink:href="#CMSS17-72" transform="translate(508.393907 0) scale(0.996264)"/>
      <use xlink:href="#CMSS17-69" transform="translate(540.30368 0) scale(0.996264)"/>
      <use xlink:href="#CMSS17-67" transform="translate(562.484403 0) scale(0.996264)"/>
      <use xlink:href="#CMSS17-68" transform="translate(609.328026 0) scale(0.996264)"/>
      <use xlink:href="#CMSS17-74" transform="translate(657.53297 0) scale(0.996264)"/>
      <use xlink:href="#CMSS17-29" transform="translate(691.364536 0) scale(0.996264)"/>
     </g>
    </g>
    <g id="line2d_33">
     <path d="M 349.990605 298.663543 
L 364.490605 298.663543 
L 378.990605 298.663543 
" style="fill: none; stroke-dasharray: 5.55,2.4; stroke-dashoffset: 0; stroke: #fecf92; stroke-width: 1.5"/>
    </g>
    <g id="text_27">
     <!-- System load (right) -->
     <g transform="translate(390.590605 303.738543) scale(0.145 -0.145)">
      <use xlink:href="#CMSS17-53" transform="scale(0.996264)"/>
      <use xlink:href="#CMSS17-79" transform="translate(52.048516 0) scale(0.996264)"/>
      <use xlink:href="#CMSS17-73" transform="translate(95.048658 0) scale(0.996264)"/>
      <use xlink:href="#CMSS17-74" transform="translate(130.9622 0) scale(0.996264)"/>
      <use xlink:href="#CMSS17-65" transform="translate(164.793767 0) scale(0.996264)"/>
      <use xlink:href="#CMSS17-6d" transform="translate(206.432589 0) scale(0.996264)"/>
      <use xlink:href="#CMSS17-6c" transform="translate(311.890956 0) scale(0.996264)"/>
      <use xlink:href="#CMSS17-6f" transform="translate(334.071679 0) scale(0.996264)"/>
      <use xlink:href="#CMSS17-61" transform="translate(380.915302 0) scale(0.996264)"/>
      <use xlink:href="#CMSS17-64" transform="translate(425.837223 0) scale(0.996264)"/>
      <use xlink:href="#CMSS17-28" transform="translate(505.271279 0) scale(0.996264)"/>
      <use xlink:href="#CMSS17-72" transform="translate(541.705193 0) scale(0.996264)"/>
      <use xlink:href="#CMSS17-69" transform="translate(573.614966 0) scale(0.996264)"/>
      <use xlink:href="#CMSS17-67" transform="translate(595.795689 0) scale(0.996264)"/>
      <use xlink:href="#CMSS17-68" transform="translate(642.639312 0) scale(0.996264)"/>
      <use xlink:href="#CMSS17-74" transform="translate(690.844255 0) scale(0.996264)"/>
      <use xlink:href="#CMSS17-29" transform="translate(724.675822 0) scale(0.996264)"/>
     </g>
    </g>
   </g>
  </g>
 </g>
 <defs>
  <clipPath id="p1904254e50">
   <rect x="72" y="43.2" width="446.4" height="277.2"/>
  </clipPath>
 </defs>
</svg>
