<?xml version="1.0" encoding="utf-8" standalone="no"?>
<!DOCTYPE svg PUBLIC "-//W3C//DTD SVG 1.1//EN"
  "http://www.w3.org/Graphics/SVG/1.1/DTD/svg11.dtd">
<svg xmlns:xlink="http://www.w3.org/1999/xlink" width="576pt" height="360pt" viewBox="0 0 576 360" xmlns="http://www.w3.org/2000/svg" version="1.1">
 <metadata>
  <rdf:RDF xmlns:dc="http://purl.org/dc/elements/1.1/" xmlns:cc="http://creativecommons.org/ns#" xmlns:rdf="http://www.w3.org/1999/02/22-rdf-syntax-ns#">
   <cc:Work>
    <dc:type rdf:resource="http://purl.org/dc/dcmitype/StillImage"/>
    <dc:date>2023-12-15T16:06:02.970210</dc:date>
    <dc:format>image/svg+xml</dc:format>
    <dc:creator>
     <cc:Agent>
      <dc:title>Matplotlib v3.8.0, https://matplotlib.org/</dc:title>
     </cc:Agent>
    </dc:creator>
   </cc:Work>
  </rdf:RDF>
 </metadata>
 <defs>
  <style type="text/css">*{stroke-linejoin: round; stroke-linecap: butt}</style>
 </defs>
 <g id="figure_1">
  <g id="patch_1">
   <path d="M 0 360 
L 576 360 
L 576 0 
L 0 0 
z
" style="fill: #ffffff"/>
  </g>
  <g id="axes_1">
   <g id="patch_2">
    <path d="M 72 320.4 
L 518.4 320.4 
L 518.4 43.2 
L 72 43.2 
z
" style="fill: #ffffff"/>
   </g>
   <g id="PolyCollection_1">
    <defs>
     <path id="mcc52fa6422" d="M 92.290909 -255.00111 
L 92.290909 -298.28745 
L 93.421322 -298.28745 
L 94.551735 -298.28745 
L 95.682147 -298.28745 
L 96.81256 -298.28745 
L 97.942973 -298.28745 
L 99.073386 -298.28745 
L 100.203798 -298.28745 
L 101.334211 -298.28745 
L 102.464624 -298.28745 
L 103.595037 -298.28745 
L 104.725449 -298.28745 
L 105.855862 -298.28745 
L 106.986275 -298.28745 
L 108.116688 -298.28745 
L 109.247101 -298.28745 
L 110.377513 -298.28745 
L 111.507926 -298.28745 
L 112.638339 -298.28745 
L 113.768752 -298.28745 
L 114.899164 -298.28745 
L 116.029577 -298.28745 
L 117.15999 -298.28745 
L 118.290403 -298.28745 
L 119.420815 -298.28745 
L 120.551228 -282.58164 
L 121.681641 -282.58164 
L 122.812054 -282.58164 
L 123.942466 -282.58164 
L 125.072879 -282.58164 
L 126.203292 -281.169551 
L 127.333705 -281.169551 
L 128.464117 -281.169551 
L 129.59453 -281.169551 
L 130.724943 -281.169551 
L 131.855356 -281.169551 
L 132.985769 -269.546135 
L 134.116181 -269.546135 
L 135.246594 -269.546135 
L 136.377007 -269.546135 
L 137.50742 -269.546135 
L 138.637832 -264.232415 
L 139.768245 -264.232415 
L 140.898658 -264.232415 
L 142.029071 -264.232415 
L 143.159483 -264.232415 
L 144.289896 -264.232415 
L 145.420309 -258.734256 
L 146.550722 -258.734256 
L 147.681134 -258.734256 
L 148.811547 -258.734256 
L 149.94196 -258.734256 
L 151.072373 -256.976209 
L 152.202786 -256.976209 
L 153.333198 -256.976209 
L 154.463611 -256.976209 
L 155.594024 -256.976209 
L 156.724437 -256.976209 
L 157.854849 -256.976209 
L 158.985262 -256.976209 
L 160.115675 -256.976209 
L 161.246088 -256.976209 
L 162.3765 -256.976209 
L 163.506913 -256.976209 
L 164.637326 -256.976209 
L 165.767739 -256.976209 
L 166.898151 -256.976209 
L 168.028564 -256.976209 
L 169.158977 -256.976209 
L 170.28939 -256.976209 
L 171.419802 -256.976209 
L 172.550215 -256.976209 
L 173.680628 -256.976209 
L 174.811041 -256.976209 
L 175.941454 -256.976209 
L 177.071866 -256.976209 
L 178.202279 -256.976209 
L 179.332692 -256.976209 
L 180.463105 -256.976209 
L 181.593517 -250.793143 
L 182.72393 -250.793143 
L 183.854343 -250.793143 
L 184.984756 -250.793143 
L 186.115168 -250.793143 
L 187.245581 -250.793143 
L 188.375994 -249.55203 
L 189.506407 -249.55203 
L 190.636819 -249.55203 
L 191.767232 -249.55203 
L 192.897645 -249.55203 
L 194.028058 -243.633659 
L 195.15847 -243.633659 
L 196.288883 -243.633659 
L 197.419296 -243.633659 
L 198.549709 -243.633659 
L 199.680122 -243.633659 
L 200.810534 -232.182786 
L 201.940947 -232.182786 
L 203.07136 -232.182786 
L 204.201773 -232.182786 
L 205.332185 -232.182786 
L 206.462598 -227.749957 
L 207.593011 -227.749957 
L 208.723424 -227.749957 
L 209.853836 -227.749957 
L 210.984249 -227.749957 
L 212.114662 -227.749957 
L 213.245075 -225.180497 
L 214.375487 -225.180497 
L 215.5059 -225.180497 
L 216.636313 -225.180497 
L 217.766726 -225.180497 
L 218.897139 -223.428083 
L 220.027551 -223.428083 
L 221.157964 -223.428083 
L 222.288377 -223.428083 
L 223.41879 -223.428083 
L 224.549202 -223.539871 
L 225.679615 -223.539871 
L 226.810028 -223.539871 
L 227.940441 -223.539871 
L 229.070853 -223.539871 
L 230.201266 -223.539871 
L 231.331679 -223.428083 
L 232.462092 -223.428083 
L 233.592504 -223.428083 
L 234.722917 -223.428083 
L 235.85333 -223.428083 
L 236.983743 -222.8228 
L 238.114155 -222.8228 
L 239.244568 -222.8228 
L 240.374981 -222.8228 
L 241.505394 -222.8228 
L 242.635807 -222.8228 
L 243.766219 -222.890777 
L 244.896632 -222.890777 
L 246.027045 -222.890777 
L 247.157458 -222.890777 
L 248.28787 -222.890777 
L 249.418283 -218.824383 
L 250.548696 -218.824383 
L 251.679109 -218.824383 
L 252.809521 -218.824383 
L 253.939934 -218.824383 
L 255.070347 -218.824383 
L 256.20076 -218.349616 
L 257.331172 -218.349616 
L 258.461585 -218.349616 
L 259.591998 -218.349616 
L 260.722411 -218.349616 
L 261.852823 -201.439921 
L 262.983236 -201.439921 
L 264.113649 -201.439921 
L 265.244062 -201.439921 
L 266.374475 -201.439921 
L 267.504887 -201.439921 
L 268.6353 -186.280771 
L 269.765713 -186.280771 
L 270.896126 -186.280771 
L 272.026538 -186.280771 
L 273.156951 -186.280771 
L 274.287364 -185.718929 
L 275.417777 -185.718929 
L 276.548189 -185.718929 
L 277.678602 -185.718929 
L 278.809015 -185.718929 
L 279.939428 -185.718929 
L 281.06984 -185.718929 
L 282.200253 -185.718929 
L 283.330666 -185.718929 
L 284.461079 -185.718929 
L 285.591492 -185.718929 
L 286.721904 -184.881065 
L 287.852317 -184.881065 
L 288.98273 -184.881065 
L 290.113143 -184.881065 
L 291.243555 -184.881065 
L 292.373968 -184.504778 
L 293.504381 -184.504778 
L 294.634794 -184.504778 
L 295.765206 -184.504778 
L 296.895619 -184.504778 
L 298.026032 -184.504778 
L 299.156445 -184.504778 
L 300.286857 -184.504778 
L 301.41727 -184.504778 
L 302.547683 -184.504778 
L 303.678096 -184.504778 
L 304.808508 -184.504778 
L 305.938921 -184.504778 
L 307.069334 -184.504778 
L 308.199747 -184.504778 
L 309.33016 -184.504778 
L 310.460572 -184.504778 
L 311.590985 -215.174729 
L 312.721398 -215.174729 
L 313.851811 -215.174729 
L 314.982223 -215.174729 
L 316.112636 -215.174729 
L 317.243049 -221.88021 
L 318.373462 -221.88021 
L 319.503874 -221.88021 
L 320.634287 -221.88021 
L 321.7647 -221.88021 
L 322.895113 -221.797014 
L 324.025525 -221.797014 
L 325.155938 -221.797014 
L 326.286351 -221.797014 
L 327.416764 -221.797014 
L 328.547177 -221.797014 
L 329.677589 -221.581191 
L 330.808002 -221.581191 
L 331.938415 -221.581191 
L 333.068828 -221.581191 
L 334.19924 -221.581191 
L 335.329653 -221.797014 
L 336.460066 -221.797014 
L 337.590479 -221.797014 
L 338.720891 -221.797014 
L 339.851304 -221.797014 
L 340.981717 -221.797014 
L 342.11213 -221.797014 
L 343.242542 -221.797014 
L 344.372955 -221.797014 
L 345.503368 -221.797014 
L 346.633781 -221.797014 
L 347.764193 -221.797014 
L 348.894606 -221.797014 
L 350.025019 -221.797014 
L 351.155432 -221.797014 
L 352.285845 -221.797014 
L 353.416257 -221.797014 
L 354.54667 -221.88021 
L 355.677083 -221.88021 
L 356.807496 -221.88021 
L 357.937908 -221.88021 
L 359.068321 -221.88021 
L 360.198734 -221.797014 
L 361.329147 -221.797014 
L 362.459559 -221.797014 
L 363.589972 -221.797014 
L 364.720385 -221.797014 
L 365.850798 -221.797014 
L 366.98121 -221.797014 
L 368.111623 -221.797014 
L 369.242036 -221.797014 
L 370.372449 -221.797014 
L 371.502861 -221.797014 
L 372.633274 -229.95255 
L 373.763687 -229.95255 
L 374.8941 -229.95255 
L 376.024513 -229.95255 
L 377.154925 -229.95255 
L 378.285338 -251.35071 
L 379.415751 -251.35071 
L 380.546164 -251.35071 
L 381.676576 -251.35071 
L 382.806989 -251.35071 
L 383.937402 -251.35071 
L 385.067815 -253.939474 
L 386.198227 -253.939474 
L 387.32864 -253.939474 
L 388.459053 -253.939474 
L 389.589466 -253.939474 
L 390.719878 -253.939474 
L 391.850291 -253.939474 
L 392.980704 -253.939474 
L 394.111117 -253.939474 
L 395.24153 -253.939474 
L 396.371942 -253.939474 
L 397.502355 -253.939474 
L 398.632768 -253.939474 
L 399.763181 -253.939474 
L 400.893593 -253.939474 
L 402.024006 -253.939474 
L 403.154419 -253.939474 
L 404.284832 -253.939474 
L 405.415244 -253.939474 
L 406.545657 -253.939474 
L 407.67607 -253.939474 
L 408.806483 -253.939474 
L 409.936895 -253.939474 
L 411.067308 -253.939474 
L 412.197721 -253.939474 
L 413.328134 -253.939474 
L 414.458546 -253.939474 
L 415.588959 -253.939474 
L 416.719372 -253.939474 
L 417.849785 -253.939474 
L 418.980198 -253.939474 
L 420.11061 -253.939474 
L 421.241023 -253.939474 
L 422.371436 -253.939474 
L 423.501849 -253.939474 
L 424.632261 -253.939474 
L 425.762674 -253.939474 
L 426.893087 -253.939474 
L 428.0235 -253.939474 
L 429.153912 -253.939474 
L 430.284325 -253.939474 
L 431.414738 -253.939474 
L 432.545151 -253.939474 
L 433.675563 -255.402975 
L 434.805976 -255.402975 
L 435.936389 -255.402975 
L 437.066802 -255.402975 
L 438.197214 -255.402975 
L 439.327627 -255.402975 
L 440.45804 -283.911055 
L 441.588453 -283.911055 
L 442.718866 -283.911055 
L 443.849278 -283.911055 
L 444.979691 -283.911055 
L 446.110104 -286.844835 
L 447.240517 -286.844835 
L 448.370929 -286.844835 
L 449.501342 -286.844835 
L 450.631755 -286.844835 
L 451.762168 -286.844835 
L 452.89258 -286.713206 
L 454.022993 -286.713206 
L 455.153406 -286.713206 
L 456.283819 -286.713206 
L 457.414231 -286.713206 
L 458.544644 -286.510495 
L 459.675057 -286.510495 
L 460.80547 -286.510495 
L 461.935883 -286.510495 
L 463.066295 -286.510495 
L 464.196708 -286.510495 
L 465.327121 -286.844835 
L 466.457534 -286.844835 
L 467.587946 -286.844835 
L 468.718359 -286.844835 
L 469.848772 -286.844835 
L 470.979185 -286.844835 
L 472.109597 -286.844835 
L 473.24001 -286.844835 
L 474.370423 -286.844835 
L 475.500836 -286.844835 
L 476.631248 -286.844835 
L 477.761661 -286.844835 
L 478.892074 -286.844835 
L 480.022487 -286.844835 
L 481.152899 -286.844835 
L 482.283312 -286.844835 
L 483.413725 -286.844835 
L 484.544138 -286.844835 
L 485.674551 -286.844835 
L 486.804963 -286.844835 
L 487.935376 -286.844835 
L 489.065789 -286.844835 
L 490.196202 -286.844835 
L 491.326614 -286.844835 
L 492.457027 -286.844835 
L 493.58744 -286.844835 
L 494.717853 -286.844835 
L 495.848265 -286.844835 
L 496.978678 -286.844835 
L 498.109091 -286.844835 
L 498.109091 -250.324941 
L 498.109091 -250.324941 
L 496.978678 -250.324941 
L 495.848265 -250.324941 
L 494.717853 -250.324941 
L 493.58744 -250.324941 
L 492.457027 -250.324941 
L 491.326614 -250.324941 
L 490.196202 -250.324941 
L 489.065789 -250.324941 
L 487.935376 -250.324941 
L 486.804963 -250.324941 
L 485.674551 -250.324941 
L 484.544138 -250.324941 
L 483.413725 -250.324941 
L 482.283312 -250.324941 
L 481.152899 -250.324941 
L 480.022487 -250.324941 
L 478.892074 -250.324941 
L 477.761661 -250.324941 
L 476.631248 -250.324941 
L 475.500836 -250.324941 
L 474.370423 -250.324941 
L 473.24001 -250.324941 
L 472.109597 -250.324941 
L 470.979185 -250.324941 
L 469.848772 -250.324941 
L 468.718359 -250.324941 
L 467.587946 -250.324941 
L 466.457534 -250.324941 
L 465.327121 -250.324941 
L 464.196708 -248.435873 
L 463.066295 -248.435873 
L 461.935883 -248.435873 
L 460.80547 -248.435873 
L 459.675057 -248.435873 
L 458.544644 -248.435873 
L 457.414231 -249.900586 
L 456.283819 -249.900586 
L 455.153406 -249.900586 
L 454.022993 -249.900586 
L 452.89258 -249.900586 
L 451.762168 -250.324941 
L 450.631755 -250.324941 
L 449.501342 -250.324941 
L 448.370929 -250.324941 
L 447.240517 -250.324941 
L 446.110104 -250.324941 
L 444.979691 -250.479857 
L 443.849278 -250.479857 
L 442.718866 -250.479857 
L 441.588453 -250.479857 
L 440.45804 -250.479857 
L 439.327627 -221.743233 
L 438.197214 -221.743233 
L 437.066802 -221.743233 
L 435.936389 -221.743233 
L 434.805976 -221.743233 
L 433.675563 -221.743233 
L 432.545151 -220.982798 
L 431.414738 -220.982798 
L 430.284325 -220.982798 
L 429.153912 -220.982798 
L 428.0235 -220.982798 
L 426.893087 -220.982798 
L 425.762674 -220.982798 
L 424.632261 -220.982798 
L 423.501849 -220.982798 
L 422.371436 -220.982798 
L 421.241023 -220.982798 
L 420.11061 -220.982798 
L 418.980198 -220.982798 
L 417.849785 -220.982798 
L 416.719372 -220.982798 
L 415.588959 -220.982798 
L 414.458546 -220.982798 
L 413.328134 -220.982798 
L 412.197721 -220.982798 
L 411.067308 -220.982798 
L 409.936895 -220.982798 
L 408.806483 -220.982798 
L 407.67607 -220.982798 
L 406.545657 -220.982798 
L 405.415244 -220.982798 
L 404.284832 -220.982798 
L 403.154419 -220.982798 
L 402.024006 -220.982798 
L 400.893593 -220.982798 
L 399.763181 -220.982798 
L 398.632768 -220.982798 
L 397.502355 -220.982798 
L 396.371942 -220.982798 
L 395.24153 -220.982798 
L 394.111117 -220.982798 
L 392.980704 -220.982798 
L 391.850291 -220.982798 
L 390.719878 -220.982798 
L 389.589466 -220.982798 
L 388.459053 -220.982798 
L 387.32864 -220.982798 
L 386.198227 -220.982798 
L 385.067815 -220.982798 
L 383.937402 -214.678458 
L 382.806989 -214.678458 
L 381.676576 -214.678458 
L 380.546164 -214.678458 
L 379.415751 -214.678458 
L 378.285338 -214.678458 
L 377.154925 -189.946314 
L 376.024513 -189.946314 
L 374.8941 -189.946314 
L 373.763687 -189.946314 
L 372.633274 -189.946314 
L 371.502861 -176.425866 
L 370.372449 -176.425866 
L 369.242036 -176.425866 
L 368.111623 -176.425866 
L 366.98121 -176.425866 
L 365.850798 -176.425866 
L 364.720385 -176.425866 
L 363.589972 -176.425866 
L 362.459559 -176.425866 
L 361.329147 -176.425866 
L 360.198734 -176.425866 
L 359.068321 -175.786686 
L 357.937908 -175.786686 
L 356.807496 -175.786686 
L 355.677083 -175.786686 
L 354.54667 -175.786686 
L 353.416257 -176.425866 
L 352.285845 -176.425866 
L 351.155432 -176.425866 
L 350.025019 -176.425866 
L 348.894606 -176.425866 
L 347.764193 -176.425866 
L 346.633781 -176.425866 
L 345.503368 -176.425866 
L 344.372955 -176.425866 
L 343.242542 -176.425866 
L 342.11213 -176.425866 
L 340.981717 -176.425866 
L 339.851304 -176.425866 
L 338.720891 -176.425866 
L 337.590479 -176.425866 
L 336.460066 -176.425866 
L 335.329653 -176.425866 
L 334.19924 -176.642217 
L 333.068828 -176.642217 
L 331.938415 -176.642217 
L 330.808002 -176.642217 
L 329.677589 -176.642217 
L 328.547177 -176.425866 
L 327.416764 -176.425866 
L 326.286351 -176.425866 
L 325.155938 -176.425866 
L 324.025525 -176.425866 
L 322.895113 -176.425866 
L 321.7647 -175.786686 
L 320.634287 -175.786686 
L 319.503874 -175.786686 
L 318.373462 -175.786686 
L 317.243049 -175.786686 
L 316.112636 -171.376183 
L 314.982223 -171.376183 
L 313.851811 -171.376183 
L 312.721398 -171.376183 
L 311.590985 -171.376183 
L 310.460572 -141.46711 
L 309.33016 -141.46711 
L 308.199747 -141.46711 
L 307.069334 -141.46711 
L 305.938921 -141.46711 
L 304.808508 -141.46711 
L 303.678096 -141.46711 
L 302.547683 -141.46711 
L 301.41727 -141.46711 
L 300.286857 -141.46711 
L 299.156445 -141.46711 
L 298.026032 -141.46711 
L 296.895619 -141.46711 
L 295.765206 -141.46711 
L 294.634794 -141.46711 
L 293.504381 -141.46711 
L 292.373968 -141.46711 
L 291.243555 -141.646279 
L 290.113143 -141.646279 
L 288.98273 -141.646279 
L 287.852317 -141.646279 
L 286.721904 -141.646279 
L 285.591492 -141.920383 
L 284.461079 -141.920383 
L 283.330666 -141.920383 
L 282.200253 -141.920383 
L 281.06984 -141.920383 
L 279.939428 -141.920383 
L 278.809015 -141.920383 
L 277.678602 -141.920383 
L 276.548189 -141.920383 
L 275.417777 -141.920383 
L 274.287364 -141.920383 
L 273.156951 -148.027181 
L 272.026538 -148.027181 
L 270.896126 -148.027181 
L 269.765713 -148.027181 
L 268.6353 -148.027181 
L 267.504887 -158.989247 
L 266.374475 -158.989247 
L 265.244062 -158.989247 
L 264.113649 -158.989247 
L 262.983236 -158.989247 
L 261.852823 -158.989247 
L 260.722411 -169.313792 
L 259.591998 -169.313792 
L 258.461585 -169.313792 
L 257.331172 -169.313792 
L 256.20076 -169.313792 
L 255.070347 -169.395009 
L 253.939934 -169.395009 
L 252.809521 -169.395009 
L 251.679109 -169.395009 
L 250.548696 -169.395009 
L 249.418283 -169.395009 
L 248.28787 -172.553239 
L 247.157458 -172.553239 
L 246.027045 -172.553239 
L 244.896632 -172.553239 
L 243.766219 -172.553239 
L 242.635807 -178.179472 
L 241.505394 -178.179472 
L 240.374981 -178.179472 
L 239.244568 -178.179472 
L 238.114155 -178.179472 
L 236.983743 -178.179472 
L 235.85333 -180.908509 
L 234.722917 -180.908509 
L 233.592504 -180.908509 
L 232.462092 -180.908509 
L 231.331679 -180.908509 
L 230.201266 -181.352705 
L 229.070853 -181.352705 
L 227.940441 -181.352705 
L 226.810028 -181.352705 
L 225.679615 -181.352705 
L 224.549202 -181.352705 
L 223.41879 -180.908509 
L 222.288377 -180.908509 
L 221.157964 -180.908509 
L 220.027551 -180.908509 
L 218.897139 -180.908509 
L 217.766726 -183.602383 
L 216.636313 -183.602383 
L 215.5059 -183.602383 
L 214.375487 -183.602383 
L 213.245075 -183.602383 
L 212.114662 -185.480267 
L 210.984249 -185.480267 
L 209.853836 -185.480267 
L 208.723424 -185.480267 
L 207.593011 -185.480267 
L 206.462598 -185.480267 
L 205.332185 -189.939486 
L 204.201773 -189.939486 
L 203.07136 -189.939486 
L 201.940947 -189.939486 
L 200.810534 -189.939486 
L 199.680122 -210.723541 
L 198.549709 -210.723541 
L 197.419296 -210.723541 
L 196.288883 -210.723541 
L 195.15847 -210.723541 
L 194.028058 -210.723541 
L 192.897645 -216.477138 
L 191.767232 -216.477138 
L 190.636819 -216.477138 
L 189.506407 -216.477138 
L 188.375994 -216.477138 
L 187.245581 -216.347465 
L 186.115168 -216.347465 
L 184.984756 -216.347465 
L 183.854343 -216.347465 
L 182.72393 -216.347465 
L 181.593517 -216.347465 
L 180.463105 -221.837423 
L 179.332692 -221.837423 
L 178.202279 -221.837423 
L 177.071866 -221.837423 
L 175.941454 -221.837423 
L 174.811041 -221.837423 
L 173.680628 -221.837423 
L 172.550215 -221.837423 
L 171.419802 -221.837423 
L 170.28939 -221.837423 
L 169.158977 -221.837423 
L 168.028564 -221.837423 
L 166.898151 -221.837423 
L 165.767739 -221.837423 
L 164.637326 -221.837423 
L 163.506913 -221.837423 
L 162.3765 -221.837423 
L 161.246088 -221.837423 
L 160.115675 -221.837423 
L 158.985262 -221.837423 
L 157.854849 -221.837423 
L 156.724437 -221.837423 
L 155.594024 -221.837423 
L 154.463611 -221.837423 
L 153.333198 -221.837423 
L 152.202786 -221.837423 
L 151.072373 -221.837423 
L 149.94196 -222.302256 
L 148.811547 -222.302256 
L 147.681134 -222.302256 
L 146.550722 -222.302256 
L 145.420309 -222.302256 
L 144.289896 -227.363041 
L 143.159483 -227.363041 
L 142.029071 -227.363041 
L 140.898658 -227.363041 
L 139.768245 -227.363041 
L 138.637832 -227.363041 
L 137.50742 -241.502425 
L 136.377007 -241.502425 
L 135.246594 -241.502425 
L 134.116181 -241.502425 
L 132.985769 -241.502425 
L 131.855356 -250.999537 
L 130.724943 -250.999537 
L 129.59453 -250.999537 
L 128.464117 -250.999537 
L 127.333705 -250.999537 
L 126.203292 -250.999537 
L 125.072879 -249.58692 
L 123.942466 -249.58692 
L 122.812054 -249.58692 
L 121.681641 -249.58692 
L 120.551228 -249.58692 
L 119.420815 -255.00111 
L 118.290403 -255.00111 
L 117.15999 -255.00111 
L 116.029577 -255.00111 
L 114.899164 -255.00111 
L 113.768752 -255.00111 
L 112.638339 -255.00111 
L 111.507926 -255.00111 
L 110.377513 -255.00111 
L 109.247101 -255.00111 
L 108.116688 -255.00111 
L 106.986275 -255.00111 
L 105.855862 -255.00111 
L 104.725449 -255.00111 
L 103.595037 -255.00111 
L 102.464624 -255.00111 
L 101.334211 -255.00111 
L 100.203798 -255.00111 
L 99.073386 -255.00111 
L 97.942973 -255.00111 
L 96.81256 -255.00111 
L 95.682147 -255.00111 
L 94.551735 -255.00111 
L 93.421322 -255.00111 
L 92.290909 -255.00111 
z
" style="stroke: #482475; stroke-opacity: 0.2"/>
    </defs>
    <g clip-path="url(#pb424b2097d)">
     <use xlink:href="#mcc52fa6422" x="0" y="360" style="fill: #482475; fill-opacity: 0.2; stroke: #482475; stroke-opacity: 0.2"/>
    </g>
   </g>
   <g id="PolyCollection_2">
    <defs>
     <path id="meac7e67746" d="M 92.290909 -248.259263 
L 92.290909 -295.025281 
L 93.421322 -295.025281 
L 94.551735 -295.025281 
L 95.682147 -295.025281 
L 96.81256 -295.025281 
L 97.942973 -295.025281 
L 99.073386 -295.025281 
L 100.203798 -295.025281 
L 101.334211 -295.025281 
L 102.464624 -295.025281 
L 103.595037 -295.025281 
L 104.725449 -295.025281 
L 105.855862 -295.025281 
L 106.986275 -295.025281 
L 108.116688 -294.356677 
L 109.247101 -294.356677 
L 110.377513 -294.356677 
L 111.507926 -294.356677 
L 112.638339 -294.356677 
L 113.768752 -294.356677 
L 114.899164 -294.507164 
L 116.029577 -294.507164 
L 117.15999 -294.507164 
L 118.290403 -294.507164 
L 119.420815 -294.507164 
L 120.551228 -282.507411 
L 121.681641 -282.507411 
L 122.812054 -282.507411 
L 123.942466 -282.507411 
L 125.072879 -282.507411 
L 126.203292 -278.210832 
L 127.333705 -278.210832 
L 128.464117 -278.210832 
L 129.59453 -278.210832 
L 130.724943 -278.210832 
L 131.855356 -278.210832 
L 132.985769 -274.051843 
L 134.116181 -274.051843 
L 135.246594 -274.051843 
L 136.377007 -274.051843 
L 137.50742 -274.051843 
L 138.637832 -259.8572 
L 139.768245 -259.8572 
L 140.898658 -259.8572 
L 142.029071 -259.8572 
L 143.159483 -259.8572 
L 144.289896 -259.8572 
L 145.420309 -253.422693 
L 146.550722 -253.422693 
L 147.681134 -253.422693 
L 148.811547 -253.422693 
L 149.94196 -253.422693 
L 151.072373 -252.709279 
L 152.202786 -252.709279 
L 153.333198 -252.709279 
L 154.463611 -252.709279 
L 155.594024 -252.709279 
L 156.724437 -252.709279 
L 157.854849 -254.033658 
L 158.985262 -254.033658 
L 160.115675 -254.033658 
L 161.246088 -254.033658 
L 162.3765 -254.033658 
L 163.506913 -254.033658 
L 164.637326 -254.033658 
L 165.767739 -254.033658 
L 166.898151 -254.033658 
L 168.028564 -254.033658 
L 169.158977 -254.033658 
L 170.28939 -254.033658 
L 171.419802 -254.033658 
L 172.550215 -254.033658 
L 173.680628 -254.033658 
L 174.811041 -254.033658 
L 175.941454 -254.033658 
L 177.071866 -254.033658 
L 178.202279 -254.033658 
L 179.332692 -254.033658 
L 180.463105 -254.033658 
L 181.593517 -247.191402 
L 182.72393 -247.191402 
L 183.854343 -247.191402 
L 184.984756 -247.191402 
L 186.115168 -247.191402 
L 187.245581 -247.191402 
L 188.375994 -247.460218 
L 189.506407 -247.460218 
L 190.636819 -247.460218 
L 191.767232 -247.460218 
L 192.897645 -247.460218 
L 194.028058 -243.212748 
L 195.15847 -243.212748 
L 196.288883 -243.212748 
L 197.419296 -243.212748 
L 198.549709 -243.212748 
L 199.680122 -243.212748 
L 200.810534 -230.991611 
L 201.940947 -230.991611 
L 203.07136 -230.991611 
L 204.201773 -230.991611 
L 205.332185 -230.991611 
L 206.462598 -224.395555 
L 207.593011 -224.395555 
L 208.723424 -224.395555 
L 209.853836 -224.395555 
L 210.984249 -224.395555 
L 212.114662 -224.395555 
L 213.245075 -224.109072 
L 214.375487 -224.109072 
L 215.5059 -224.109072 
L 216.636313 -224.109072 
L 217.766726 -224.109072 
L 218.897139 -224.345228 
L 220.027551 -224.345228 
L 221.157964 -224.345228 
L 222.288377 -224.345228 
L 223.41879 -224.345228 
L 224.549202 -224.345228 
L 225.679615 -224.345228 
L 226.810028 -224.345228 
L 227.940441 -224.345228 
L 229.070853 -224.345228 
L 230.201266 -224.345228 
L 231.331679 -224.345228 
L 232.462092 -224.345228 
L 233.592504 -224.345228 
L 234.722917 -224.345228 
L 235.85333 -224.345228 
L 236.983743 -223.911822 
L 238.114155 -223.911822 
L 239.244568 -223.911822 
L 240.374981 -223.911822 
L 241.505394 -223.911822 
L 242.635807 -223.911822 
L 243.766219 -223.262344 
L 244.896632 -223.262344 
L 246.027045 -223.262344 
L 247.157458 -223.262344 
L 248.28787 -223.262344 
L 249.418283 -221.139923 
L 250.548696 -221.139923 
L 251.679109 -221.139923 
L 252.809521 -221.139923 
L 253.939934 -221.139923 
L 255.070347 -221.139923 
L 256.20076 -220.692196 
L 257.331172 -220.692196 
L 258.461585 -220.692196 
L 259.591998 -220.692196 
L 260.722411 -220.692196 
L 261.852823 -202.364909 
L 262.983236 -202.364909 
L 264.113649 -202.364909 
L 265.244062 -202.364909 
L 266.374475 -202.364909 
L 267.504887 -202.364909 
L 268.6353 -184.360138 
L 269.765713 -184.360138 
L 270.896126 -184.360138 
L 272.026538 -184.360138 
L 273.156951 -184.360138 
L 274.287364 -182.708026 
L 275.417777 -182.708026 
L 276.548189 -182.708026 
L 277.678602 -182.708026 
L 278.809015 -182.708026 
L 279.939428 -181.933402 
L 281.06984 -181.933402 
L 282.200253 -181.933402 
L 283.330666 -181.933402 
L 284.461079 -181.933402 
L 285.591492 -181.933402 
L 286.721904 -181.933402 
L 287.852317 -181.933402 
L 288.98273 -181.933402 
L 290.113143 -181.933402 
L 291.243555 -181.933402 
L 292.373968 -181.933402 
L 293.504381 -181.933402 
L 294.634794 -181.933402 
L 295.765206 -181.933402 
L 296.895619 -181.933402 
L 298.026032 -181.933402 
L 299.156445 -181.933402 
L 300.286857 -181.933402 
L 301.41727 -181.933402 
L 302.547683 -181.933402 
L 303.678096 -181.933402 
L 304.808508 -181.933402 
L 305.938921 -181.933402 
L 307.069334 -181.933402 
L 308.199747 -181.933402 
L 309.33016 -181.933402 
L 310.460572 -181.933402 
L 311.590985 -217.765242 
L 312.721398 -217.765242 
L 313.851811 -217.765242 
L 314.982223 -217.765242 
L 316.112636 -217.765242 
L 317.243049 -224.495614 
L 318.373462 -224.495614 
L 319.503874 -224.495614 
L 320.634287 -224.495614 
L 321.7647 -224.495614 
L 322.895113 -224.907478 
L 324.025525 -224.907478 
L 325.155938 -224.907478 
L 326.286351 -224.907478 
L 327.416764 -224.907478 
L 328.547177 -224.907478 
L 329.677589 -224.809582 
L 330.808002 -224.809582 
L 331.938415 -224.809582 
L 333.068828 -224.809582 
L 334.19924 -224.809582 
L 335.329653 -225.36265 
L 336.460066 -225.36265 
L 337.590479 -225.36265 
L 338.720891 -225.36265 
L 339.851304 -225.36265 
L 340.981717 -225.36265 
L 342.11213 -224.345228 
L 343.242542 -224.345228 
L 344.372955 -224.345228 
L 345.503368 -224.345228 
L 346.633781 -224.345228 
L 347.764193 -224.345228 
L 348.894606 -224.345228 
L 350.025019 -224.345228 
L 351.155432 -224.345228 
L 352.285845 -224.345228 
L 353.416257 -224.345228 
L 354.54667 -224.495614 
L 355.677083 -224.495614 
L 356.807496 -224.495614 
L 357.937908 -224.495614 
L 359.068321 -224.495614 
L 360.198734 -224.345228 
L 361.329147 -224.345228 
L 362.459559 -224.345228 
L 363.589972 -224.345228 
L 364.720385 -224.345228 
L 365.850798 -224.345228 
L 366.98121 -224.345228 
L 368.111623 -224.345228 
L 369.242036 -224.345228 
L 370.372449 -224.345228 
L 371.502861 -224.345228 
L 372.633274 -233.303958 
L 373.763687 -233.303958 
L 374.8941 -233.303958 
L 376.024513 -233.303958 
L 377.154925 -233.303958 
L 378.285338 -252.460968 
L 379.415751 -252.460968 
L 380.546164 -252.460968 
L 381.676576 -252.460968 
L 382.806989 -252.460968 
L 383.937402 -252.460968 
L 385.067815 -254.033658 
L 386.198227 -254.033658 
L 387.32864 -254.033658 
L 388.459053 -254.033658 
L 389.589466 -254.033658 
L 390.719878 -254.033658 
L 391.850291 -254.033658 
L 392.980704 -254.033658 
L 394.111117 -254.033658 
L 395.24153 -254.033658 
L 396.371942 -254.033658 
L 397.502355 -254.033658 
L 398.632768 -254.033658 
L 399.763181 -254.033658 
L 400.893593 -254.033658 
L 402.024006 -254.033658 
L 403.154419 -254.033658 
L 404.284832 -254.033658 
L 405.415244 -254.033658 
L 406.545657 -254.033658 
L 407.67607 -254.033658 
L 408.806483 -254.033658 
L 409.936895 -254.033658 
L 411.067308 -254.033658 
L 412.197721 -254.033658 
L 413.328134 -254.033658 
L 414.458546 -254.033658 
L 415.588959 -254.033658 
L 416.719372 -254.033658 
L 417.849785 -254.033658 
L 418.980198 -254.033658 
L 420.11061 -254.033658 
L 421.241023 -254.033658 
L 422.371436 -254.033658 
L 423.501849 -254.033658 
L 424.632261 -254.033658 
L 425.762674 -254.033658 
L 426.893087 -254.033658 
L 428.0235 -254.62515 
L 429.153912 -254.62515 
L 430.284325 -254.62515 
L 431.414738 -254.62515 
L 432.545151 -254.62515 
L 433.675563 -256.212229 
L 434.805976 -256.212229 
L 435.936389 -256.212229 
L 437.066802 -256.212229 
L 438.197214 -256.212229 
L 439.327627 -256.212229 
L 440.45804 -292.415271 
L 441.588453 -292.415271 
L 442.718866 -292.415271 
L 443.849278 -292.415271 
L 444.979691 -292.415271 
L 446.110104 -295.246594 
L 447.240517 -295.246594 
L 448.370929 -295.246594 
L 449.501342 -295.246594 
L 450.631755 -295.246594 
L 451.762168 -295.246594 
L 452.89258 -295.875866 
L 454.022993 -295.875866 
L 455.153406 -295.875866 
L 456.283819 -295.875866 
L 457.414231 -295.875866 
L 458.544644 -295.583287 
L 459.675057 -295.583287 
L 460.80547 -295.583287 
L 461.935883 -295.583287 
L 463.066295 -295.583287 
L 464.196708 -295.583287 
L 465.327121 -296.205851 
L 466.457534 -296.205851 
L 467.587946 -296.205851 
L 468.718359 -296.205851 
L 469.848772 -296.205851 
L 470.979185 -296.00038 
L 472.109597 -296.00038 
L 473.24001 -296.00038 
L 474.370423 -296.00038 
L 475.500836 -296.00038 
L 476.631248 -296.205851 
L 477.761661 -296.205851 
L 478.892074 -296.205851 
L 480.022487 -296.205851 
L 481.152899 -296.205851 
L 482.283312 -296.205851 
L 483.413725 -296.205851 
L 484.544138 -296.205851 
L 485.674551 -296.205851 
L 486.804963 -296.205851 
L 487.935376 -296.205851 
L 489.065789 -296.205851 
L 490.196202 -296.205851 
L 491.326614 -296.205851 
L 492.457027 -296.205851 
L 493.58744 -296.205851 
L 494.717853 -296.205851 
L 495.848265 -296.205851 
L 496.978678 -296.205851 
L 498.109091 -296.205851 
L 498.109091 -262.641493 
L 498.109091 -262.641493 
L 496.978678 -262.641493 
L 495.848265 -262.641493 
L 494.717853 -262.641493 
L 493.58744 -262.641493 
L 492.457027 -262.641493 
L 491.326614 -262.641493 
L 490.196202 -262.641493 
L 489.065789 -262.641493 
L 487.935376 -262.641493 
L 486.804963 -262.641493 
L 485.674551 -262.641493 
L 484.544138 -262.641493 
L 483.413725 -262.641493 
L 482.283312 -262.641493 
L 481.152899 -262.641493 
L 480.022487 -262.641493 
L 478.892074 -262.641493 
L 477.761661 -262.641493 
L 476.631248 -262.641493 
L 475.500836 -262.29098 
L 474.370423 -262.29098 
L 473.24001 -262.29098 
L 472.109597 -262.29098 
L 470.979185 -262.29098 
L 469.848772 -262.641493 
L 468.718359 -262.641493 
L 467.587946 -262.641493 
L 466.457534 -262.641493 
L 465.327121 -262.641493 
L 464.196708 -262.152089 
L 463.066295 -262.152089 
L 461.935883 -262.152089 
L 460.80547 -262.152089 
L 459.675057 -262.152089 
L 458.544644 -262.152089 
L 457.414231 -262.415494 
L 456.283819 -262.415494 
L 455.153406 -262.415494 
L 454.022993 -262.415494 
L 452.89258 -262.415494 
L 451.762168 -262.48931 
L 450.631755 -262.48931 
L 449.501342 -262.48931 
L 448.370929 -262.48931 
L 447.240517 -262.48931 
L 446.110104 -262.48931 
L 444.979691 -261.429273 
L 443.849278 -261.429273 
L 442.718866 -261.429273 
L 441.588453 -261.429273 
L 440.45804 -261.429273 
L 439.327627 -227.602619 
L 438.197214 -227.602619 
L 437.066802 -227.602619 
L 435.936389 -227.602619 
L 434.805976 -227.602619 
L 433.675563 -227.602619 
L 432.545151 -226.966818 
L 431.414738 -226.966818 
L 430.284325 -226.966818 
L 429.153912 -226.966818 
L 428.0235 -226.966818 
L 426.893087 -227.002326 
L 425.762674 -227.002326 
L 424.632261 -227.002326 
L 423.501849 -227.002326 
L 422.371436 -227.002326 
L 421.241023 -227.002326 
L 420.11061 -227.002326 
L 418.980198 -227.002326 
L 417.849785 -227.002326 
L 416.719372 -227.002326 
L 415.588959 -227.002326 
L 414.458546 -227.002326 
L 413.328134 -227.002326 
L 412.197721 -227.002326 
L 411.067308 -227.002326 
L 409.936895 -227.002326 
L 408.806483 -227.002326 
L 407.67607 -227.002326 
L 406.545657 -227.002326 
L 405.415244 -227.002326 
L 404.284832 -227.002326 
L 403.154419 -227.002326 
L 402.024006 -227.002326 
L 400.893593 -227.002326 
L 399.763181 -227.002326 
L 398.632768 -227.002326 
L 397.502355 -227.002326 
L 396.371942 -227.002326 
L 395.24153 -227.002326 
L 394.111117 -227.002326 
L 392.980704 -227.002326 
L 391.850291 -227.002326 
L 390.719878 -227.002326 
L 389.589466 -227.002326 
L 388.459053 -227.002326 
L 387.32864 -227.002326 
L 386.198227 -227.002326 
L 385.067815 -227.002326 
L 383.937402 -221.90532 
L 382.806989 -221.90532 
L 381.676576 -221.90532 
L 380.546164 -221.90532 
L 379.415751 -221.90532 
L 378.285338 -221.90532 
L 377.154925 -196.043466 
L 376.024513 -196.043466 
L 374.8941 -196.043466 
L 373.763687 -196.043466 
L 372.633274 -196.043466 
L 371.502861 -181.658788 
L 370.372449 -181.658788 
L 369.242036 -181.658788 
L 368.111623 -181.658788 
L 366.98121 -181.658788 
L 365.850798 -181.658788 
L 364.720385 -181.658788 
L 363.589972 -181.658788 
L 362.459559 -181.658788 
L 361.329147 -181.658788 
L 360.198734 -181.658788 
L 359.068321 -180.952418 
L 357.937908 -180.952418 
L 356.807496 -180.952418 
L 355.677083 -180.952418 
L 354.54667 -180.952418 
L 353.416257 -181.658788 
L 352.285845 -181.658788 
L 351.155432 -181.658788 
L 350.025019 -181.658788 
L 348.894606 -181.658788 
L 347.764193 -181.658788 
L 346.633781 -181.658788 
L 345.503368 -181.658788 
L 344.372955 -181.658788 
L 343.242542 -181.658788 
L 342.11213 -181.658788 
L 340.981717 -182.30879 
L 339.851304 -182.30879 
L 338.720891 -182.30879 
L 337.590479 -182.30879 
L 336.460066 -182.30879 
L 335.329653 -182.30879 
L 334.19924 -182.306402 
L 333.068828 -182.306402 
L 331.938415 -182.306402 
L 330.808002 -182.306402 
L 329.677589 -182.306402 
L 328.547177 -182.207978 
L 327.416764 -182.207978 
L 326.286351 -182.207978 
L 325.155938 -182.207978 
L 324.025525 -182.207978 
L 322.895113 -182.207978 
L 321.7647 -180.952418 
L 320.634287 -180.952418 
L 319.503874 -180.952418 
L 318.373462 -180.952418 
L 317.243049 -180.952418 
L 316.112636 -178.789686 
L 314.982223 -178.789686 
L 313.851811 -178.789686 
L 312.721398 -178.789686 
L 311.590985 -178.789686 
L 310.460572 -149.04023 
L 309.33016 -149.04023 
L 308.199747 -149.04023 
L 307.069334 -149.04023 
L 305.938921 -149.04023 
L 304.808508 -149.04023 
L 303.678096 -149.04023 
L 302.547683 -149.04023 
L 301.41727 -149.04023 
L 300.286857 -149.04023 
L 299.156445 -149.04023 
L 298.026032 -149.04023 
L 296.895619 -149.04023 
L 295.765206 -149.04023 
L 294.634794 -149.04023 
L 293.504381 -149.04023 
L 292.373968 -149.04023 
L 291.243555 -149.04023 
L 290.113143 -149.04023 
L 288.98273 -149.04023 
L 287.852317 -149.04023 
L 286.721904 -149.04023 
L 285.591492 -149.04023 
L 284.461079 -149.04023 
L 283.330666 -149.04023 
L 282.200253 -149.04023 
L 281.06984 -149.04023 
L 279.939428 -149.04023 
L 278.809015 -149.377046 
L 277.678602 -149.377046 
L 276.548189 -149.377046 
L 275.417777 -149.377046 
L 274.287364 -149.377046 
L 273.156951 -154.394102 
L 272.026538 -154.394102 
L 270.896126 -154.394102 
L 269.765713 -154.394102 
L 268.6353 -154.394102 
L 267.504887 -163.622515 
L 266.374475 -163.622515 
L 265.244062 -163.622515 
L 264.113649 -163.622515 
L 262.983236 -163.622515 
L 261.852823 -163.622515 
L 260.722411 -173.640908 
L 259.591998 -173.640908 
L 258.461585 -173.640908 
L 257.331172 -173.640908 
L 256.20076 -173.640908 
L 255.070347 -173.749165 
L 253.939934 -173.749165 
L 252.809521 -173.749165 
L 251.679109 -173.749165 
L 250.548696 -173.749165 
L 249.418283 -173.749165 
L 248.28787 -177.183944 
L 247.157458 -177.183944 
L 246.027045 -177.183944 
L 244.896632 -177.183944 
L 243.766219 -177.183944 
L 242.635807 -181.536738 
L 241.505394 -181.536738 
L 240.374981 -181.536738 
L 239.244568 -181.536738 
L 238.114155 -181.536738 
L 236.983743 -181.536738 
L 235.85333 -181.658788 
L 234.722917 -181.658788 
L 233.592504 -181.658788 
L 232.462092 -181.658788 
L 231.331679 -181.658788 
L 230.201266 -181.658788 
L 229.070853 -181.658788 
L 227.940441 -181.658788 
L 226.810028 -181.658788 
L 225.679615 -181.658788 
L 224.549202 -181.658788 
L 223.41879 -181.658788 
L 222.288377 -181.658788 
L 221.157964 -181.658788 
L 220.027551 -181.658788 
L 218.897139 -181.658788 
L 217.766726 -183.006384 
L 216.636313 -183.006384 
L 215.5059 -183.006384 
L 214.375487 -183.006384 
L 213.245075 -183.006384 
L 212.114662 -186.611261 
L 210.984249 -186.611261 
L 209.853836 -186.611261 
L 208.723424 -186.611261 
L 207.593011 -186.611261 
L 206.462598 -186.611261 
L 205.332185 -196.687861 
L 204.201773 -196.687861 
L 203.07136 -196.687861 
L 201.940947 -196.687861 
L 200.810534 -196.687861 
L 199.680122 -219.4821 
L 198.549709 -219.4821 
L 197.419296 -219.4821 
L 196.288883 -219.4821 
L 195.15847 -219.4821 
L 194.028058 -219.4821 
L 192.897645 -224.682662 
L 191.767232 -224.682662 
L 190.636819 -224.682662 
L 189.506407 -224.682662 
L 188.375994 -224.682662 
L 187.245581 -224.395494 
L 186.115168 -224.395494 
L 184.984756 -224.395494 
L 183.854343 -224.395494 
L 182.72393 -224.395494 
L 181.593517 -224.395494 
L 180.463105 -227.002326 
L 179.332692 -227.002326 
L 178.202279 -227.002326 
L 177.071866 -227.002326 
L 175.941454 -227.002326 
L 174.811041 -227.002326 
L 173.680628 -227.002326 
L 172.550215 -227.002326 
L 171.419802 -227.002326 
L 170.28939 -227.002326 
L 169.158977 -227.002326 
L 168.028564 -227.002326 
L 166.898151 -227.002326 
L 165.767739 -227.002326 
L 164.637326 -227.002326 
L 163.506913 -227.002326 
L 162.3765 -227.002326 
L 161.246088 -227.002326 
L 160.115675 -227.002326 
L 158.985262 -227.002326 
L 157.854849 -227.002326 
L 156.724437 -222.212993 
L 155.594024 -222.212993 
L 154.463611 -222.212993 
L 153.333198 -222.212993 
L 152.202786 -222.212993 
L 151.072373 -222.212993 
L 149.94196 -223.722987 
L 148.811547 -223.722987 
L 147.681134 -223.722987 
L 146.550722 -223.722987 
L 145.420309 -223.722987 
L 144.289896 -227.291968 
L 143.159483 -227.291968 
L 142.029071 -227.291968 
L 140.898658 -227.291968 
L 139.768245 -227.291968 
L 138.637832 -227.291968 
L 137.50742 -235.885805 
L 136.377007 -235.885805 
L 135.246594 -235.885805 
L 134.116181 -235.885805 
L 132.985769 -235.885805 
L 131.855356 -240.618864 
L 130.724943 -240.618864 
L 129.59453 -240.618864 
L 128.464117 -240.618864 
L 127.333705 -240.618864 
L 126.203292 -240.618864 
L 125.072879 -242.991981 
L 123.942466 -242.991981 
L 122.812054 -242.991981 
L 121.681641 -242.991981 
L 120.551228 -242.991981 
L 119.420815 -249.88882 
L 118.290403 -249.88882 
L 117.15999 -249.88882 
L 116.029577 -249.88882 
L 114.899164 -249.88882 
L 113.768752 -247.260971 
L 112.638339 -247.260971 
L 111.507926 -247.260971 
L 110.377513 -247.260971 
L 109.247101 -247.260971 
L 108.116688 -247.260971 
L 106.986275 -248.259263 
L 105.855862 -248.259263 
L 104.725449 -248.259263 
L 103.595037 -248.259263 
L 102.464624 -248.259263 
L 101.334211 -248.259263 
L 100.203798 -248.259263 
L 99.073386 -248.259263 
L 97.942973 -248.259263 
L 96.81256 -248.259263 
L 95.682147 -248.259263 
L 94.551735 -248.259263 
L 93.421322 -248.259263 
L 92.290909 -248.259263 
z
" style="stroke: #bddf26; stroke-opacity: 0.2"/>
    </defs>
    <g clip-path="url(#pb424b2097d)">
     <use xlink:href="#meac7e67746" x="0" y="360" style="fill: #bddf26; fill-opacity: 0.2; stroke: #bddf26; stroke-opacity: 0.2"/>
    </g>
   </g>
   <g id="matplotlib.axis_1">
    <g id="xtick_1">
     <g id="line2d_1">
      <defs>
       <path id="m78d6dead86" d="M 0 0 
L 0 3.5 
" style="stroke: #000000; stroke-width: 0.8"/>
      </defs>
      <g>
       <use xlink:href="#m78d6dead86" x="116.88595" y="320.4" style="stroke: #000000; stroke-width: 0.8"/>
      </g>
     </g>
     <g id="text_1">
      <!-- $\mathdefault{100}$ -->
      <g transform="translate(106.277417 337.431808) scale(0.145 -0.145)">
       <defs>
        <path id="CMR17-31" d="M 1702 4058 
C 1702 4192 1696 4192 1606 4192 
C 1357 3916 979 3827 621 3827 
C 602 3827 570 3827 563 3808 
C 557 3795 557 3782 557 3648 
C 755 3648 1088 3686 1344 3839 
L 1344 461 
C 1344 236 1331 160 781 160 
L 589 160 
L 589 0 
C 896 0 1216 0 1523 0 
C 1830 0 2150 0 2458 0 
L 2458 160 
L 2266 160 
C 1715 160 1702 230 1702 458 
L 1702 4058 
z
" transform="scale(0.015625)"/>
        <path id="CMR17-30" d="M 2688 2025 
C 2688 2416 2682 3080 2413 3591 
C 2176 4039 1798 4198 1466 4198 
C 1158 4198 768 4058 525 3597 
C 269 3118 243 2524 243 2025 
C 243 1661 250 1106 448 619 
C 723 -39 1216 -128 1466 -128 
C 1760 -128 2208 -7 2470 600 
C 2662 1042 2688 1559 2688 2025 
z
M 1466 -26 
C 1056 -26 813 325 723 812 
C 653 1188 653 1738 653 2096 
C 653 2588 653 2997 736 3387 
C 858 3929 1216 4096 1466 4096 
C 1728 4096 2067 3923 2189 3400 
C 2272 3036 2278 2607 2278 2096 
C 2278 1680 2278 1169 2202 792 
C 2067 95 1690 -26 1466 -26 
z
" transform="scale(0.015625)"/>
       </defs>
       <use xlink:href="#CMR17-31" transform="scale(0.996264)"/>
       <use xlink:href="#CMR17-30" transform="translate(45.690477 0) scale(0.996264)"/>
       <use xlink:href="#CMR17-30" transform="translate(91.380954 0) scale(0.996264)"/>
      </g>
     </g>
    </g>
    <g id="xtick_2">
     <g id="line2d_2">
      <g>
       <use xlink:href="#m78d6dead86" x="178.373554" y="320.4" style="stroke: #000000; stroke-width: 0.8"/>
      </g>
     </g>
     <g id="text_2">
      <!-- $\mathdefault{200}$ -->
      <g transform="translate(167.76502 337.431808) scale(0.145 -0.145)">
       <defs>
        <path id="CMR17-32" d="M 2669 989 
L 2554 989 
C 2490 536 2438 459 2413 420 
C 2381 369 1920 369 1830 369 
L 602 369 
C 832 619 1280 1072 1824 1597 
C 2214 1967 2669 2402 2669 3035 
C 2669 3790 2067 4224 1395 4224 
C 691 4224 262 3604 262 3030 
C 262 2780 448 2748 525 2748 
C 589 2748 781 2787 781 3010 
C 781 3207 614 3264 525 3264 
C 486 3264 448 3258 422 3245 
C 544 3790 915 4058 1306 4058 
C 1862 4058 2227 3617 2227 3035 
C 2227 2479 1901 2000 1536 1584 
L 262 146 
L 262 0 
L 2515 0 
L 2669 989 
z
" transform="scale(0.015625)"/>
       </defs>
       <use xlink:href="#CMR17-32" transform="scale(0.996264)"/>
       <use xlink:href="#CMR17-30" transform="translate(45.690477 0) scale(0.996264)"/>
       <use xlink:href="#CMR17-30" transform="translate(91.380954 0) scale(0.996264)"/>
      </g>
     </g>
    </g>
    <g id="xtick_3">
     <g id="line2d_3">
      <g>
       <use xlink:href="#m78d6dead86" x="239.861157" y="320.4" style="stroke: #000000; stroke-width: 0.8"/>
      </g>
     </g>
     <g id="text_3">
      <!-- $\mathdefault{300}$ -->
      <g transform="translate(229.252624 337.431808) scale(0.145 -0.145)">
       <defs>
        <path id="CMR17-33" d="M 1414 2157 
C 1984 2157 2234 1662 2234 1090 
C 2234 320 1824 25 1453 25 
C 1114 25 563 194 390 693 
C 422 680 454 680 486 680 
C 640 680 755 782 755 948 
C 755 1133 614 1216 486 1216 
C 378 1216 211 1165 211 926 
C 211 335 787 -128 1466 -128 
C 2176 -128 2720 430 2720 1085 
C 2720 1707 2208 2157 1600 2227 
C 2086 2328 2554 2756 2554 3329 
C 2554 3820 2048 4179 1472 4179 
C 890 4179 378 3829 378 3329 
C 378 3110 544 3072 627 3072 
C 762 3072 877 3155 877 3321 
C 877 3486 762 3569 627 3569 
C 602 3569 570 3569 544 3557 
C 730 3959 1235 4032 1459 4032 
C 1683 4032 2106 3925 2106 3320 
C 2106 3143 2080 2828 1862 2550 
C 1670 2304 1453 2304 1242 2284 
C 1210 2284 1062 2269 1037 2269 
C 992 2263 966 2257 966 2208 
C 966 2163 973 2157 1101 2157 
L 1414 2157 
z
" transform="scale(0.015625)"/>
       </defs>
       <use xlink:href="#CMR17-33" transform="scale(0.996264)"/>
       <use xlink:href="#CMR17-30" transform="translate(45.690477 0) scale(0.996264)"/>
       <use xlink:href="#CMR17-30" transform="translate(91.380954 0) scale(0.996264)"/>
      </g>
     </g>
    </g>
    <g id="xtick_4">
     <g id="line2d_4">
      <g>
       <use xlink:href="#m78d6dead86" x="301.34876" y="320.4" style="stroke: #000000; stroke-width: 0.8"/>
      </g>
     </g>
     <g id="text_4">
      <!-- $\mathdefault{400}$ -->
      <g transform="translate(290.740227 337.431808) scale(0.145 -0.145)">
       <defs>
        <path id="CMR17-34" d="M 2150 4122 
C 2150 4256 2144 4256 2029 4256 
L 128 1254 
L 128 1088 
L 1779 1088 
L 1779 457 
C 1779 224 1766 160 1318 160 
L 1197 160 
L 1197 0 
C 1402 0 1747 0 1965 0 
C 2182 0 2528 0 2733 0 
L 2733 160 
L 2611 160 
C 2163 160 2150 224 2150 457 
L 2150 1088 
L 2803 1088 
L 2803 1254 
L 2150 1254 
L 2150 4122 
z
M 1798 3703 
L 1798 1254 
L 256 1254 
L 1798 3703 
z
" transform="scale(0.015625)"/>
       </defs>
       <use xlink:href="#CMR17-34" transform="scale(0.996264)"/>
       <use xlink:href="#CMR17-30" transform="translate(45.690477 0) scale(0.996264)"/>
       <use xlink:href="#CMR17-30" transform="translate(91.380954 0) scale(0.996264)"/>
      </g>
     </g>
    </g>
    <g id="xtick_5">
     <g id="line2d_5">
      <g>
       <use xlink:href="#m78d6dead86" x="362.836364" y="320.4" style="stroke: #000000; stroke-width: 0.8"/>
      </g>
     </g>
     <g id="text_5">
      <!-- $\mathdefault{500}$ -->
      <g transform="translate(352.22783 337.431808) scale(0.145 -0.145)">
       <defs>
        <path id="CMR17-35" d="M 730 3692 
C 794 3666 1056 3584 1325 3584 
C 1920 3584 2246 3911 2432 4100 
C 2432 4157 2432 4192 2394 4192 
C 2387 4192 2374 4192 2323 4163 
C 2099 4058 1837 3973 1517 3973 
C 1325 3973 1037 3999 723 4139 
C 653 4171 640 4171 634 4171 
C 602 4171 595 4164 595 4037 
L 595 2203 
C 595 2089 595 2057 659 2057 
C 691 2057 704 2070 736 2114 
C 941 2401 1222 2522 1542 2522 
C 1766 2522 2246 2382 2246 1289 
C 2246 1085 2246 715 2054 421 
C 1894 159 1645 25 1370 25 
C 947 25 518 320 403 814 
C 429 807 480 795 506 795 
C 589 795 749 840 749 1038 
C 749 1210 627 1280 506 1280 
C 358 1280 262 1190 262 1011 
C 262 454 704 -128 1382 -128 
C 2042 -128 2669 440 2669 1264 
C 2669 2030 2170 2624 1549 2624 
C 1222 2624 947 2503 730 2274 
L 730 3692 
z
" transform="scale(0.015625)"/>
       </defs>
       <use xlink:href="#CMR17-35" transform="scale(0.996264)"/>
       <use xlink:href="#CMR17-30" transform="translate(45.690477 0) scale(0.996264)"/>
       <use xlink:href="#CMR17-30" transform="translate(91.380954 0) scale(0.996264)"/>
      </g>
     </g>
    </g>
    <g id="xtick_6">
     <g id="line2d_6">
      <g>
       <use xlink:href="#m78d6dead86" x="424.323967" y="320.4" style="stroke: #000000; stroke-width: 0.8"/>
      </g>
     </g>
     <g id="text_6">
      <!-- $\mathdefault{600}$ -->
      <g transform="translate(413.715434 337.431808) scale(0.145 -0.145)">
       <defs>
        <path id="CMR17-36" d="M 678 2176 
C 678 3690 1395 4032 1811 4032 
C 1946 4032 2272 4009 2400 3776 
C 2298 3776 2106 3776 2106 3553 
C 2106 3381 2246 3323 2336 3323 
C 2394 3323 2566 3348 2566 3560 
C 2566 3954 2246 4179 1805 4179 
C 1043 4179 243 3390 243 1984 
C 243 253 966 -128 1478 -128 
C 2099 -128 2688 427 2688 1283 
C 2688 2081 2170 2662 1517 2662 
C 1126 2662 838 2407 678 1960 
L 678 2176 
z
M 1478 25 
C 691 25 691 1200 691 1436 
C 691 1896 909 2560 1504 2560 
C 1613 2560 1926 2560 2138 2120 
C 2253 1870 2253 1609 2253 1289 
C 2253 944 2253 690 2118 434 
C 1978 171 1773 25 1478 25 
z
" transform="scale(0.015625)"/>
       </defs>
       <use xlink:href="#CMR17-36" transform="scale(0.996264)"/>
       <use xlink:href="#CMR17-30" transform="translate(45.690477 0) scale(0.996264)"/>
       <use xlink:href="#CMR17-30" transform="translate(91.380954 0) scale(0.996264)"/>
      </g>
     </g>
    </g>
    <g id="xtick_7">
     <g id="line2d_7">
      <g>
       <use xlink:href="#m78d6dead86" x="485.81157" y="320.4" style="stroke: #000000; stroke-width: 0.8"/>
      </g>
     </g>
     <g id="text_7">
      <!-- $\mathdefault{700}$ -->
      <g transform="translate(475.203037 337.431808) scale(0.145 -0.145)">
       <defs>
        <path id="CMR17-37" d="M 2886 3941 
L 2886 4081 
L 1382 4081 
C 634 4081 621 4165 595 4288 
L 480 4288 
L 294 3094 
L 410 3094 
C 429 3215 474 3540 550 3661 
C 589 3712 1062 3712 1171 3712 
L 2579 3712 
L 1869 2661 
C 1395 1954 1069 999 1069 165 
C 1069 89 1069 -128 1299 -128 
C 1530 -128 1530 89 1530 171 
L 1530 465 
C 1530 1508 1709 2196 2003 2636 
L 2886 3941 
z
" transform="scale(0.015625)"/>
       </defs>
       <use xlink:href="#CMR17-37" transform="scale(0.996264)"/>
       <use xlink:href="#CMR17-30" transform="translate(45.690477 0) scale(0.996264)"/>
       <use xlink:href="#CMR17-30" transform="translate(91.380954 0) scale(0.996264)"/>
      </g>
     </g>
    </g>
    <g id="text_8">
     <!-- time (s) -->
     <g transform="translate(271.677317 355.075073) scale(0.145 -0.145)">
      <defs>
       <path id="CMSS17-74" d="M 1069 2368 
L 1901 2368 
L 1901 2737 
L 1069 2737 
L 1069 3520 
L 614 3520 
L 614 2737 
L 109 2737 
L 109 2368 
L 602 2368 
L 602 749 
C 602 384 685 -64 1107 -64 
C 1427 -64 1722 25 2003 172 
L 1901 548 
C 1747 414 1562 337 1363 337 
C 1082 337 1069 696 1069 856 
L 1069 2368 
z
" transform="scale(0.015625)"/>
       <path id="CMSS17-69" d="M 979 4183 
L 442 4183 
L 442 3648 
L 979 3648 
L 979 4183 
z
M 947 2739 
L 474 2739 
L 474 0 
L 947 0 
L 947 2739 
z
" transform="scale(0.015625)"/>
       <path id="CMSS17-6d" d="M 4288 1877 
C 4288 2308 4179 2816 3462 2816 
C 2982 2816 2694 2516 2566 2331 
C 2451 2670 2182 2816 1798 2816 
C 1363 2816 1088 2568 941 2389 
L 941 2758 
L 474 2758 
L 474 0 
L 960 0 
L 960 1559 
C 960 1939 1101 2428 1555 2428 
C 2138 2428 2138 2016 2138 1829 
L 2138 0 
L 2624 0 
L 2624 1559 
C 2624 1939 2765 2428 3219 2428 
C 3802 2428 3802 2016 3802 1829 
L 3802 0 
L 4288 0 
L 4288 1877 
z
" transform="scale(0.015625)"/>
       <path id="CMSS17-65" d="M 2502 1377 
C 2502 1590 2490 2003 2285 2345 
C 2061 2713 1696 2816 1421 2816 
C 755 2816 192 2188 192 1375 
C 192 582 774 -64 1510 -64 
C 1798 -64 2150 19 2470 248 
C 2470 274 2458 414 2451 420 
C 2451 433 2432 630 2432 656 
C 2125 407 1773 325 1517 325 
C 1107 325 666 667 646 1377 
L 2502 1377 
z
M 698 1728 
C 781 2084 1062 2421 1421 2421 
C 1517 2421 1965 2421 2080 1728 
L 698 1728 
z
" transform="scale(0.015625)"/>
       <path id="CMSS17-28" d="M 1613 4768 
C 1267 4417 474 3601 474 1588 
C 474 -433 1267 -1243 1613 -1600 
L 2003 -1600 
C 1216 -784 960 357 960 1581 
C 960 2798 1203 3946 2003 4768 
L 1613 4768 
z
" transform="scale(0.015625)"/>
       <path id="CMSS17-73" d="M 2061 2627 
C 1683 2807 1389 2807 1197 2807 
C 742 2807 198 2648 198 2003 
C 198 1359 902 1218 1094 1179 
C 1389 1122 1715 1058 1715 740 
C 1715 337 1254 337 1171 337 
C 915 337 563 407 243 638 
L 166 210 
C 531 0 883 -64 1178 -64 
C 1965 -64 2163 416 2163 781 
C 2163 1094 1984 1305 1862 1401 
C 1651 1568 1574 1587 1050 1696 
C 960 1709 646 1779 646 2066 
C 646 2432 1050 2432 1139 2432 
C 1555 2432 1811 2303 1984 2208 
L 2061 2627 
z
" transform="scale(0.015625)"/>
       <path id="CMSS17-29" d="M 723 -1600 
C 1069 -1249 1862 -433 1862 1581 
C 1862 3601 1069 4411 723 4768 
L 333 4768 
C 1120 3952 1376 2811 1376 1588 
C 1376 370 1133 -778 333 -1600 
L 723 -1600 
z
" transform="scale(0.015625)"/>
      </defs>
      <use xlink:href="#CMSS17-74" transform="scale(0.996264)"/>
      <use xlink:href="#CMSS17-69" transform="translate(33.831567 0) scale(0.996264)"/>
      <use xlink:href="#CMSS17-6d" transform="translate(56.01229 0) scale(0.996264)"/>
      <use xlink:href="#CMSS17-65" transform="translate(130.241544 0) scale(0.996264)"/>
      <use xlink:href="#CMSS17-28" transform="translate(203.109479 0) scale(0.996264)"/>
      <use xlink:href="#CMSS17-73" transform="translate(239.543393 0) scale(0.996264)"/>
      <use xlink:href="#CMSS17-29" transform="translate(275.456935 0) scale(0.996264)"/>
     </g>
    </g>
   </g>
   <g id="matplotlib.axis_2">
    <g id="ytick_1">
     <g id="line2d_8">
      <path d="M 72 320.4 
L 518.4 320.4 
" clip-path="url(#pb424b2097d)" style="fill: none; stroke-dasharray: 1.85,0.8; stroke-dashoffset: 0; stroke: #808080; stroke-width: 0.5"/>
     </g>
     <g id="line2d_9">
      <defs>
       <path id="mc4a949d102" d="M 0 0 
L -3.5 0 
" style="stroke: #000000; stroke-width: 0.8"/>
      </defs>
      <g>
       <use xlink:href="#mc4a949d102" x="72" y="320.4" style="stroke: #000000; stroke-width: 0.8"/>
      </g>
     </g>
     <g id="text_9">
      <!-- $\mathdefault{0.0}$ -->
      <g transform="translate(46.926206 325.415904) scale(0.145 -0.145)">
       <defs>
        <path id="CMMI12-3a" d="M 1178 307 
C 1178 492 1024 619 870 619 
C 685 619 557 466 557 313 
C 557 128 710 0 864 0 
C 1050 0 1178 153 1178 307 
z
" transform="scale(0.015625)"/>
       </defs>
       <use xlink:href="#CMR17-30" transform="scale(0.996264)"/>
       <use xlink:href="#CMMI12-3a" transform="translate(45.690477 0) scale(0.996264)"/>
       <use xlink:href="#CMR17-30" transform="translate(72.787654 0) scale(0.996264)"/>
      </g>
     </g>
    </g>
    <g id="ytick_2">
     <g id="line2d_10">
      <path d="M 72 267.6 
L 518.4 267.6 
" clip-path="url(#pb424b2097d)" style="fill: none; stroke-dasharray: 1.85,0.8; stroke-dashoffset: 0; stroke: #808080; stroke-width: 0.5"/>
     </g>
     <g id="line2d_11">
      <g>
       <use xlink:href="#mc4a949d102" x="72" y="267.6" style="stroke: #000000; stroke-width: 0.8"/>
      </g>
     </g>
     <g id="text_10">
      <!-- $\mathdefault{0.2}$ -->
      <g transform="translate(46.926206 272.615904) scale(0.145 -0.145)">
       <use xlink:href="#CMR17-30" transform="scale(0.996264)"/>
       <use xlink:href="#CMMI12-3a" transform="translate(45.690477 0) scale(0.996264)"/>
       <use xlink:href="#CMR17-32" transform="translate(72.787654 0) scale(0.996264)"/>
      </g>
     </g>
    </g>
    <g id="ytick_3">
     <g id="line2d_12">
      <path d="M 72 214.8 
L 518.4 214.8 
" clip-path="url(#pb424b2097d)" style="fill: none; stroke-dasharray: 1.85,0.8; stroke-dashoffset: 0; stroke: #808080; stroke-width: 0.5"/>
     </g>
     <g id="line2d_13">
      <g>
       <use xlink:href="#mc4a949d102" x="72" y="214.8" style="stroke: #000000; stroke-width: 0.8"/>
      </g>
     </g>
     <g id="text_11">
      <!-- $\mathdefault{0.4}$ -->
      <g transform="translate(46.926206 219.815904) scale(0.145 -0.145)">
       <use xlink:href="#CMR17-30" transform="scale(0.996264)"/>
       <use xlink:href="#CMMI12-3a" transform="translate(45.690477 0) scale(0.996264)"/>
       <use xlink:href="#CMR17-34" transform="translate(72.787654 0) scale(0.996264)"/>
      </g>
     </g>
    </g>
    <g id="ytick_4">
     <g id="line2d_14">
      <path d="M 72 162 
L 518.4 162 
" clip-path="url(#pb424b2097d)" style="fill: none; stroke-dasharray: 1.85,0.8; stroke-dashoffset: 0; stroke: #808080; stroke-width: 0.5"/>
     </g>
     <g id="line2d_15">
      <g>
       <use xlink:href="#mc4a949d102" x="72" y="162" style="stroke: #000000; stroke-width: 0.8"/>
      </g>
     </g>
     <g id="text_12">
      <!-- $\mathdefault{0.6}$ -->
      <g transform="translate(46.926206 167.015904) scale(0.145 -0.145)">
       <use xlink:href="#CMR17-30" transform="scale(0.996264)"/>
       <use xlink:href="#CMMI12-3a" transform="translate(45.690477 0) scale(0.996264)"/>
       <use xlink:href="#CMR17-36" transform="translate(72.787654 0) scale(0.996264)"/>
      </g>
     </g>
    </g>
    <g id="ytick_5">
     <g id="line2d_16">
      <path d="M 72 109.2 
L 518.4 109.2 
" clip-path="url(#pb424b2097d)" style="fill: none; stroke-dasharray: 1.85,0.8; stroke-dashoffset: 0; stroke: #808080; stroke-width: 0.5"/>
     </g>
     <g id="line2d_17">
      <g>
       <use xlink:href="#mc4a949d102" x="72" y="109.2" style="stroke: #000000; stroke-width: 0.8"/>
      </g>
     </g>
     <g id="text_13">
      <!-- $\mathdefault{0.8}$ -->
      <g transform="translate(46.926206 114.215904) scale(0.145 -0.145)">
       <defs>
        <path id="CMR17-38" d="M 1741 2264 
C 2144 2467 2554 2773 2554 3263 
C 2554 3841 1990 4179 1472 4179 
C 890 4179 378 3759 378 3180 
C 378 3021 416 2747 666 2505 
C 730 2442 998 2251 1171 2130 
C 883 1983 211 1634 211 934 
C 211 279 838 -128 1459 -128 
C 2144 -128 2720 362 2720 1010 
C 2720 1590 2330 1857 2074 2029 
L 1741 2264 
z
M 902 2822 
C 851 2854 595 3051 595 3351 
C 595 3739 998 4032 1459 4032 
C 1965 4032 2336 3676 2336 3262 
C 2336 2669 1670 2331 1638 2331 
C 1632 2331 1626 2331 1574 2370 
L 902 2822 
z
M 2080 1519 
C 2176 1449 2483 1240 2483 851 
C 2483 381 2010 25 1472 25 
C 890 25 448 438 448 940 
C 448 1443 838 1862 1280 2060 
L 2080 1519 
z
" transform="scale(0.015625)"/>
       </defs>
       <use xlink:href="#CMR17-30" transform="scale(0.996264)"/>
       <use xlink:href="#CMMI12-3a" transform="translate(45.690477 0) scale(0.996264)"/>
       <use xlink:href="#CMR17-38" transform="translate(72.787654 0) scale(0.996264)"/>
      </g>
     </g>
    </g>
    <g id="ytick_6">
     <g id="line2d_18">
      <path d="M 72 56.4 
L 518.4 56.4 
" clip-path="url(#pb424b2097d)" style="fill: none; stroke-dasharray: 1.85,0.8; stroke-dashoffset: 0; stroke: #808080; stroke-width: 0.5"/>
     </g>
     <g id="line2d_19">
      <g>
       <use xlink:href="#mc4a949d102" x="72" y="56.4" style="stroke: #000000; stroke-width: 0.8"/>
      </g>
     </g>
     <g id="text_14">
      <!-- $\mathdefault{1.0}$ -->
      <g transform="translate(46.926206 61.415904) scale(0.145 -0.145)">
       <use xlink:href="#CMR17-31" transform="scale(0.996264)"/>
       <use xlink:href="#CMMI12-3a" transform="translate(45.690477 0) scale(0.996264)"/>
       <use xlink:href="#CMR17-30" transform="translate(72.787654 0) scale(0.996264)"/>
      </g>
     </g>
    </g>
    <g id="text_15">
     <!-- QoS -->
     <g transform="translate(40.117312 194.481753) rotate(-90) scale(0.145 -0.145)">
      <defs>
       <path id="CMSS17-51" d="M 3200 202 
C 3981 833 4096 1689 4096 2174 
C 4096 3501 3219 4497 2214 4497 
C 1210 4497 333 3497 333 2178 
C 333 847 1222 -128 2214 -128 
C 2438 -128 2630 -77 2765 -26 
L 3302 -832 
L 3930 -832 
L 3200 202 
z
M 2528 324 
C 2438 293 2330 273 2214 273 
C 1523 273 858 993 858 2178 
C 858 3357 1517 4096 2214 4096 
C 2918 4096 3571 3350 3571 2178 
C 3571 1771 3507 1089 2950 566 
L 2490 1210 
L 1939 1210 
L 2528 324 
z
" transform="scale(0.015625)"/>
       <path id="CMSS17-6f" d="M 2829 1356 
C 2829 2176 2221 2816 1504 2816 
C 768 2816 173 2157 173 1356 
C 173 544 787 -64 1498 -64 
C 2227 -64 2829 563 2829 1356 
z
M 1504 337 
C 1050 337 659 709 659 1408 
C 659 2151 1114 2427 1498 2427 
C 1914 2427 2342 2126 2342 1408 
C 2342 683 1926 337 1504 337 
z
" transform="scale(0.015625)"/>
       <path id="CMSS17-53" d="M 2797 4169 
C 2515 4334 2208 4480 1690 4480 
C 864 4480 333 3879 333 3266 
C 333 3025 403 2753 653 2475 
C 902 2196 1184 2121 1542 2033 
C 1690 1994 1939 1924 1984 1906 
C 2342 1767 2515 1444 2515 1140 
C 2515 742 2202 318 1645 318 
C 1453 318 890 318 358 819 
L 269 318 
C 794 -64 1363 -128 1651 -128 
C 2438 -128 3002 488 3002 1186 
C 3002 1440 2925 1763 2656 2061 
C 2394 2347 2163 2410 1638 2549 
C 1338 2626 1146 2677 986 2873 
C 877 3013 819 3146 819 3317 
C 819 3673 1126 4060 1690 4060 
C 1971 4060 2336 4002 2707 3660 
L 2797 4169 
z
" transform="scale(0.015625)"/>
      </defs>
      <use xlink:href="#CMSS17-51" transform="scale(0.996264)"/>
      <use xlink:href="#CMSS17-6f" transform="translate(69.024255 0) scale(0.996264)"/>
      <use xlink:href="#CMSS17-53" transform="translate(115.867879 0) scale(0.996264)"/>
     </g>
    </g>
   </g>
   <g id="line2d_20">
    <path d="M 92.290909 83.35572 
L 119.420815 83.35572 
L 120.551228 93.91572 
L 131.855356 93.915456 
L 132.985769 104.47572 
L 137.50742 104.47572 
L 138.637832 114.202272 
L 144.289896 114.202272 
L 145.420309 119.481744 
L 149.94196 119.481744 
L 151.072373 120.593184 
L 180.463105 120.593184 
L 181.593517 126.429696 
L 187.245581 126.429696 
L 188.375994 126.985416 
L 192.897645 126.985416 
L 194.028058 132.8214 
L 199.680122 132.8214 
L 200.810534 148.938864 
L 205.332185 148.938864 
L 206.462598 153.384888 
L 212.114662 153.384888 
L 213.245075 155.60856 
L 217.766726 155.60856 
L 218.897139 157.831704 
L 223.41879 157.831704 
L 224.549202 157.553712 
L 230.201266 157.553712 
L 231.331679 157.831704 
L 235.85333 157.831704 
L 236.983743 159.498864 
L 242.635807 159.498864 
L 243.766219 162.277992 
L 248.28787 162.277992 
L 249.418283 165.890304 
L 255.070347 165.890304 
L 256.20076 166.168296 
L 260.722411 166.168296 
L 261.852823 179.785416 
L 267.504887 179.785416 
L 268.6353 192.846024 
L 273.156951 192.846024 
L 274.287364 196.180344 
L 285.591492 196.180344 
L 286.721904 196.736328 
L 291.243555 196.736328 
L 292.373968 197.014056 
L 310.460572 197.014056 
L 311.590985 166.724544 
L 316.112636 166.724544 
L 317.243049 161.166552 
L 321.7647 161.166552 
L 322.895113 160.88856 
L 353.416257 160.88856 
L 354.54667 161.166552 
L 359.068321 161.166552 
L 360.198734 160.88856 
L 371.502861 160.88856 
L 372.633274 150.050568 
L 377.154925 150.050568 
L 378.285338 126.985416 
L 383.937402 126.985416 
L 385.067815 122.538864 
L 432.545151 122.538864 
L 433.675563 121.426896 
L 439.327627 121.426896 
L 440.45804 92.804544 
L 444.979691 92.804544 
L 446.110104 91.415112 
L 451.762168 91.415112 
L 452.89258 91.693104 
L 457.414231 91.693104 
L 458.544644 92.526816 
L 464.196708 92.526816 
L 465.327121 91.415112 
L 498.109091 91.415112 
L 498.109091 91.415112 
" clip-path="url(#pb424b2097d)" style="fill: none; stroke: #482475; stroke-width: 2.5; stroke-linecap: square"/>
   </g>
   <g id="line2d_21">
    <path d="M 92.290909 88.357728 
L 106.986275 88.357728 
L 108.116688 89.191176 
L 113.768752 89.191176 
L 114.899164 87.802008 
L 119.420815 87.802008 
L 120.551228 97.250304 
L 125.072879 97.250304 
L 126.203292 100.585152 
L 131.855356 100.585152 
L 132.985769 105.031176 
L 137.50742 105.031176 
L 138.637832 116.425416 
L 144.289896 116.425416 
L 145.420309 121.42716 
L 149.94196 121.42716 
L 151.072373 122.538864 
L 156.724437 122.538864 
L 157.854849 119.482008 
L 180.463105 119.482008 
L 181.593517 124.206552 
L 187.245581 124.206552 
L 188.375994 123.92856 
L 192.897645 123.92856 
L 194.028058 128.652576 
L 199.680122 128.652576 
L 200.810534 146.160264 
L 205.332185 146.160264 
L 206.462598 154.496592 
L 212.114662 154.496592 
L 213.245075 156.442272 
L 217.766726 156.442272 
L 218.897139 156.997992 
L 235.85333 156.997992 
L 236.983743 157.27572 
L 242.635807 157.27572 
L 243.766219 159.776856 
L 248.28787 159.776856 
L 249.418283 162.555456 
L 255.070347 162.555456 
L 256.20076 162.833448 
L 260.722411 162.833448 
L 261.852823 177.006288 
L 267.504887 177.006288 
L 268.6353 190.62288 
L 273.156951 190.62288 
L 274.287364 193.957464 
L 278.809015 193.957464 
L 279.939428 194.513184 
L 310.460572 194.513184 
L 311.590985 161.722536 
L 316.112636 161.722536 
L 317.243049 157.275984 
L 321.7647 157.275984 
L 322.895113 156.442272 
L 334.19924 156.442008 
L 335.329653 156.16428 
L 340.981717 156.16428 
L 342.11213 156.997992 
L 353.416257 156.997992 
L 354.54667 157.275984 
L 359.068321 157.275984 
L 360.198734 156.997992 
L 371.502861 156.997992 
L 372.633274 145.326288 
L 377.154925 145.326288 
L 378.285338 122.816856 
L 383.937402 122.816856 
L 385.067815 119.482008 
L 426.893087 119.482008 
L 428.0235 119.204016 
L 432.545151 119.204016 
L 433.675563 118.092576 
L 439.327627 118.092576 
L 440.45804 83.077728 
L 444.979691 83.077728 
L 446.110104 81.132048 
L 451.762168 81.132048 
L 452.89258 80.85432 
L 457.414231 80.85432 
L 458.544644 81.132312 
L 464.196708 81.132312 
L 465.327121 80.576328 
L 469.848772 80.576328 
L 470.979185 80.85432 
L 475.500836 80.85432 
L 476.631248 80.576328 
L 498.109091 80.576328 
L 498.109091 80.576328 
" clip-path="url(#pb424b2097d)" style="fill: none; stroke: #bddf26; stroke-width: 2.5; stroke-linecap: square"/>
   </g>
   <g id="patch_3">
    <path d="M 72 320.4 
L 72 43.2 
" style="fill: none; stroke: #000000; stroke-width: 0.8; stroke-linejoin: miter; stroke-linecap: square"/>
   </g>
   <g id="patch_4">
    <path d="M 518.4 320.4 
L 518.4 43.2 
" style="fill: none; stroke: #000000; stroke-width: 0.8; stroke-linejoin: miter; stroke-linecap: square"/>
   </g>
   <g id="patch_5">
    <path d="M 72 320.4 
L 518.4 320.4 
" style="fill: none; stroke: #000000; stroke-width: 0.8; stroke-linejoin: miter; stroke-linecap: square"/>
   </g>
   <g id="text_16">
    <!-- $nt=Lobster$ $d=100$ $oc=1\%$ $l=costant$ -->
    <g transform="translate(136.042933 37.2) scale(0.18 -0.18)">
     <defs>
      <path id="CMMI12-6e" d="M 1318 1871 
C 1331 1910 1491 2229 1728 2433 
C 1894 2586 2112 2689 2362 2689 
C 2618 2689 2707 2497 2707 2242 
C 2707 1878 2445 1150 2317 805 
C 2259 651 2227 568 2227 453 
C 2227 166 2426 -64 2733 -64 
C 3328 -64 3552 875 3552 913 
C 3552 945 3526 971 3488 971 
C 3430 971 3424 952 3392 843 
C 3245 319 3002 64 2752 64 
C 2688 64 2586 64 2586 269 
C 2586 429 2656 621 2694 710 
C 2822 1063 3091 1780 3091 2145 
C 3091 2528 2867 2816 2381 2816 
C 1811 2816 1510 2415 1395 2255 
C 1376 2618 1114 2816 832 2816 
C 627 2816 486 2695 378 2478 
C 262 2248 173 1865 173 1839 
C 173 1814 198 1782 243 1782 
C 294 1782 301 1788 339 1935 
C 442 2325 557 2689 813 2689 
C 960 2689 1011 2586 1011 2395 
C 1011 2254 947 2005 902 1807 
L 723 1118 
C 698 996 627 709 595 594 
C 550 428 480 128 480 96 
C 480 6 550 -64 646 -64 
C 723 -64 813 -26 864 70 
C 877 102 934 326 966 453 
L 1107 1028 
L 1318 1871 
z
" transform="scale(0.015625)"/>
      <path id="CMMI12-74" d="M 1286 2566 
L 1875 2566 
C 1997 2566 2061 2566 2061 2681 
C 2061 2752 2022 2752 1894 2752 
L 1331 2752 
L 1568 3692 
C 1594 3781 1594 3794 1594 3840 
C 1594 3943 1510 4000 1427 4000 
C 1376 4000 1229 3981 1178 3775 
L 928 2752 
L 326 2752 
C 198 2752 141 2752 141 2630 
C 141 2566 186 2566 307 2566 
L 877 2566 
L 454 881 
C 403 658 384 594 384 511 
C 384 211 595 -64 954 -64 
C 1600 -64 1946 868 1946 912 
C 1946 951 1920 970 1882 970 
C 1869 970 1843 970 1830 944 
C 1824 938 1818 931 1773 829 
C 1638 511 1344 64 973 64 
C 781 64 768 224 768 364 
C 768 370 768 492 787 568 
L 1286 2566 
z
" transform="scale(0.015625)"/>
      <path id="CMR17-3d" d="M 4115 2017 
C 4211 2017 4307 2017 4307 2125 
C 4307 2240 4198 2240 4090 2240 
L 512 2240 
C 403 2240 294 2240 294 2125 
C 294 2017 390 2017 486 2017 
L 4115 2017 
z
M 4090 896 
C 4198 896 4307 896 4307 1011 
C 4307 1119 4211 1119 4115 1119 
L 486 1119 
C 390 1119 294 1119 294 1011 
C 294 896 403 896 512 896 
L 4090 896 
z
" transform="scale(0.015625)"/>
      <path id="CMMI12-4c" d="M 2349 3861 
C 2406 4103 2426 4167 2989 4167 
C 3162 4167 3206 4167 3206 4288 
C 3206 4352 3136 4352 3110 4352 
C 2982 4352 2835 4352 2707 4352 
L 1850 4352 
C 1728 4352 1587 4352 1466 4352 
C 1414 4352 1344 4352 1344 4231 
C 1344 4167 1402 4167 1498 4167 
C 1888 4167 1888 4116 1888 4046 
C 1888 4034 1888 3995 1862 3899 
L 998 472 
C 941 249 928 185 480 185 
C 358 185 294 185 294 70 
C 294 0 333 0 461 0 
L 3328 0 
C 3469 0 3475 6 3520 121 
L 4013 1478 
C 4026 1510 4038 1548 4038 1567 
C 4038 1605 4006 1631 3974 1631 
C 3968 1631 3936 1631 3923 1605 
C 3910 1599 3910 1586 3859 1465 
C 3654 905 3366 185 2285 185 
L 1670 185 
C 1581 185 1568 185 1530 192 
C 1459 198 1453 211 1453 262 
C 1453 307 1466 345 1478 401 
L 2349 3861 
z
" transform="scale(0.015625)"/>
      <path id="CMMI12-6f" d="M 2918 1756 
C 2918 2363 2522 2816 1939 2816 
C 1094 2816 262 1897 262 996 
C 262 390 659 -64 1242 -64 
C 2093 -64 2918 856 2918 1756 
z
M 1248 64 
C 928 64 691 319 691 766 
C 691 1060 845 1712 1024 2031 
C 1312 2523 1670 2689 1933 2689 
C 2246 2689 2490 2433 2490 1986 
C 2490 1731 2355 1047 2112 658 
C 1850 230 1498 64 1248 64 
z
" transform="scale(0.015625)"/>
      <path id="CMMI12-62" d="M 1478 4257 
C 1485 4283 1498 4321 1498 4352 
C 1498 4416 1434 4416 1421 4416 
C 1414 4416 1184 4393 1069 4377 
C 960 4377 864 4358 749 4358 
C 595 4345 550 4339 550 4224 
C 550 4160 614 4160 678 4160 
C 1005 4160 1005 4103 1005 4040 
C 1005 3996 954 3811 928 3696 
L 774 3085 
C 710 2831 346 1387 320 1272 
C 288 1114 288 1005 288 922 
C 288 274 653 -64 1069 -64 
C 1811 -64 2579 888 2579 1814 
C 2579 2401 2246 2816 1766 2816 
C 1434 2816 1133 2542 1011 2414 
L 1478 4257 
z
M 1075 64 
C 870 64 646 217 646 715 
C 646 926 666 1047 781 1494 
C 800 1577 902 1986 928 2069 
C 941 2120 1318 2689 1754 2689 
C 2035 2689 2163 2408 2163 2076 
C 2163 1769 1984 1047 1824 715 
C 1664 370 1370 64 1075 64 
z
" transform="scale(0.015625)"/>
      <path id="CMMI12-73" d="M 1459 1280 
C 1568 1261 1741 1223 1779 1216 
C 1862 1192 2150 1090 2150 783 
C 2150 586 1971 70 1229 70 
C 1094 70 614 70 486 436 
C 742 404 870 603 870 745 
C 870 880 781 950 653 950 
C 512 950 326 841 326 552 
C 326 173 710 -64 1222 -64 
C 2195 -64 2483 651 2483 984 
C 2483 1079 2483 1258 2278 1462 
C 2118 1616 1965 1648 1619 1718 
C 1446 1756 1171 1814 1171 2101 
C 1171 2229 1286 2689 1894 2689 
C 2163 2689 2426 2589 2490 2368 
C 2208 2368 2195 2125 2195 2119 
C 2195 1984 2317 1946 2374 1946 
C 2464 1946 2643 2015 2643 2281 
C 2643 2545 2400 2816 1901 2816 
C 1062 2816 838 2160 838 1899 
C 838 1414 1312 1312 1459 1280 
z
" transform="scale(0.015625)"/>
      <path id="CMMI12-65" d="M 1146 1479 
C 1318 1479 1754 1479 2061 1595 
C 2547 1783 2592 2158 2592 2274 
C 2592 2558 2349 2816 1926 2816 
C 1254 2816 288 2210 288 1073 
C 288 402 672 -64 1254 -64 
C 2125 -64 2675 609 2675 692 
C 2675 730 2637 762 2611 762 
C 2592 762 2586 756 2528 699 
C 2118 159 1510 64 1267 64 
C 902 64 710 350 710 822 
C 710 911 710 1071 806 1479 
L 1146 1479 
z
M 838 1600 
C 1114 2592 1722 2689 1926 2689 
C 2208 2689 2400 2522 2400 2277 
C 2400 1600 1376 1600 1107 1600 
L 838 1600 
z
" transform="scale(0.015625)"/>
      <path id="CMMI12-72" d="M 2490 2612 
C 2291 2574 2189 2433 2189 2293 
C 2189 2139 2310 2088 2400 2088 
C 2579 2088 2726 2242 2726 2433 
C 2726 2638 2528 2816 2208 2816 
C 1952 2816 1658 2701 1389 2312 
C 1344 2650 1088 2816 832 2816 
C 582 2816 454 2625 378 2484 
C 269 2254 173 1871 173 1839 
C 173 1814 198 1782 243 1782 
C 294 1782 301 1788 339 1935 
C 435 2318 557 2689 813 2689 
C 966 2689 1011 2580 1011 2395 
C 1011 2254 947 2005 902 1807 
L 723 1118 
C 698 996 627 709 595 594 
C 550 428 480 128 480 96 
C 480 6 550 -64 646 -64 
C 717 -64 838 -19 877 109 
C 896 160 1133 1124 1171 1271 
C 1203 1411 1242 1546 1274 1686 
C 1299 1775 1325 1878 1344 1961 
C 1363 2018 1536 2331 1696 2472 
C 1773 2542 1939 2689 2202 2689 
C 2304 2689 2406 2670 2490 2612 
z
" transform="scale(0.015625)"/>
      <path id="CMMI12-64" d="M 3219 4257 
C 3226 4282 3238 4320 3238 4352 
C 3238 4416 3174 4416 3162 4416 
C 3155 4416 2842 4388 2810 4380 
C 2701 4373 2605 4358 2490 4358 
C 2330 4345 2285 4339 2285 4224 
C 2285 4160 2336 4160 2426 4160 
C 2739 4160 2746 4103 2746 4040 
C 2746 4002 2733 3952 2726 3933 
L 2336 2395 
C 2266 2561 2093 2816 1760 2816 
C 1037 2816 256 1884 256 939 
C 256 307 627 -64 1062 -64 
C 1414 -64 1715 211 1894 422 
C 1958 45 2259 -64 2451 -64 
C 2643 -64 2797 51 2912 281 
C 3014 498 3104 888 3104 913 
C 3104 945 3078 971 3040 971 
C 2982 971 2976 939 2950 843 
C 2854 466 2733 64 2470 64 
C 2285 64 2272 229 2272 357 
C 2272 382 2272 515 2317 694 
L 3219 4257 
z
M 1926 760 
C 1894 651 1894 639 1805 517 
C 1664 338 1382 64 1082 64 
C 819 64 672 300 672 677 
C 672 1028 870 1743 992 2012 
C 1210 2459 1510 2689 1760 2689 
C 2182 2689 2266 2165 2266 2114 
C 2266 2108 2246 2024 2240 2012 
L 1926 760 
z
" transform="scale(0.015625)"/>
      <path id="CMMI12-63" d="M 2502 2431 
C 2381 2431 2323 2431 2234 2355 
C 2195 2323 2125 2227 2125 2125 
C 2125 1997 2221 1920 2342 1920 
C 2496 1920 2669 2044 2669 2292 
C 2669 2588 2374 2816 1933 2816 
C 1094 2816 256 1903 256 996 
C 256 441 602 -64 1254 -64 
C 2125 -64 2675 622 2675 706 
C 2675 744 2637 776 2611 776 
C 2592 776 2586 770 2528 713 
C 2118 162 1510 64 1267 64 
C 826 64 685 446 685 764 
C 685 988 794 1605 1024 2039 
C 1190 2338 1536 2682 1939 2682 
C 2022 2682 2374 2682 2502 2431 
z
" transform="scale(0.015625)"/>
      <path id="CMR17-25" d="M 4640 959 
C 4640 1698 4275 2240 3846 2240 
C 3411 2240 2970 1736 2970 959 
C 2970 183 3405 -320 3846 -320 
C 4275 -320 4640 215 4640 959 
z
M 3853 -218 
C 3686 -218 3270 -66 3270 959 
C 3270 1991 3686 2138 3853 2138 
C 4205 2138 4525 1634 4525 959 
C 4525 285 4205 -218 3853 -218 
z
M 4083 4577 
C 4128 4647 4134 4653 4134 4685 
C 4134 4761 4077 4800 4026 4800 
C 3962 4800 3936 4756 3891 4706 
C 3520 4190 3008 4134 2746 4134 
C 2106 4134 1715 4494 1594 4607 
C 1510 4682 1389 4800 1171 4800 
C 736 4800 294 4296 294 3519 
C 294 2743 730 2240 1171 2240 
C 1600 2240 1965 2778 1965 3527 
C 1965 3969 1830 4270 1811 4308 
C 2202 4064 2586 4032 2752 4032 
C 3162 4032 3456 4183 3616 4289 
L 3622 4283 
L 858 -84 
C 800 -174 800 -187 800 -206 
C 800 -276 858 -320 915 -320 
C 973 -320 992 -289 1037 -218 
L 4083 4577 
z
M 1178 2342 
C 1011 2342 595 2494 595 3519 
C 595 4551 1011 4698 1178 4698 
C 1530 4698 1850 4194 1850 3519 
C 1850 2845 1530 2342 1178 2342 
z
" transform="scale(0.015625)"/>
      <path id="CMMI12-6c" d="M 1626 4257 
C 1632 4282 1645 4320 1645 4352 
C 1645 4416 1581 4416 1568 4416 
C 1562 4416 1331 4393 1216 4377 
C 1107 4377 1011 4358 896 4358 
C 742 4345 698 4339 698 4224 
C 698 4160 762 4160 826 4160 
C 1152 4160 1152 4102 1152 4039 
C 1152 4014 1152 4001 1120 3887 
L 326 731 
C 307 661 294 610 294 509 
C 294 191 531 -64 858 -64 
C 1069 -64 1210 76 1312 274 
C 1421 483 1510 884 1510 909 
C 1510 941 1485 967 1446 967 
C 1389 967 1382 935 1357 840 
C 1242 401 1126 64 870 64 
C 678 64 678 267 678 357 
C 678 382 678 515 723 694 
L 1626 4257 
z
" transform="scale(0.015625)"/>
      <path id="CMMI12-61" d="M 1926 760 
C 1894 651 1894 639 1805 517 
C 1664 338 1382 64 1082 64 
C 819 64 672 300 672 677 
C 672 1028 870 1743 992 2012 
C 1210 2459 1510 2689 1760 2689 
C 2182 2689 2266 2165 2266 2114 
C 2266 2108 2246 2024 2240 2012 
L 1926 760 
z
M 2336 2395 
C 2266 2561 2093 2816 1760 2816 
C 1037 2816 256 1884 256 939 
C 256 307 627 -64 1062 -64 
C 1414 -64 1715 211 1894 422 
C 1958 45 2259 -64 2451 -64 
C 2643 -64 2797 51 2912 281 
C 3014 498 3104 888 3104 913 
C 3104 945 3078 971 3040 971 
C 2982 971 2976 939 2950 843 
C 2854 466 2733 64 2470 64 
C 2285 64 2272 230 2272 358 
C 2272 505 2291 575 2349 824 
C 2394 984 2426 1124 2477 1309 
C 2714 2267 2771 2497 2771 2535 
C 2771 2625 2701 2695 2605 2695 
C 2400 2695 2349 2472 2336 2395 
z
" transform="scale(0.015625)"/>
     </defs>
     <use xlink:href="#CMMI12-6e" transform="scale(0.996264)"/>
     <use xlink:href="#CMMI12-74" transform="translate(58.230047 0) scale(0.996264)"/>
     <use xlink:href="#CMR17-3d" transform="translate(121.130386 0) scale(0.996264)"/>
     <use xlink:href="#CMMI12-4c" transform="translate(220.519183 0) scale(0.996264)"/>
     <use xlink:href="#CMMI12-6f" transform="translate(286.890059 0) scale(0.996264)"/>
     <use xlink:href="#CMMI12-62" transform="translate(333.785368 0) scale(0.996264)"/>
     <use xlink:href="#CMMI12-73" transform="translate(375.261243 0) scale(0.996264)"/>
     <use xlink:href="#CMMI12-74" transform="translate(421.21129 0) scale(0.996264)"/>
     <use xlink:href="#CMMI12-65" transform="translate(456.43762 0) scale(0.996264)"/>
     <use xlink:href="#CMMI12-72" transform="translate(501.649621 0) scale(0.996264)"/>
     <use xlink:href="#CMMI12-64" transform="translate(579.549346 0) scale(0.996264)"/>
     <use xlink:href="#CMR17-3d" transform="translate(657.912452 0) scale(0.996264)"/>
     <use xlink:href="#CMR17-31" transform="translate(757.301249 0) scale(0.996264)"/>
     <use xlink:href="#CMR17-30" transform="translate(802.991726 0) scale(0.996264)"/>
     <use xlink:href="#CMR17-30" transform="translate(848.682203 0) scale(0.996264)"/>
     <use xlink:href="#CMMI12-6f" transform="translate(925.601793 0) scale(0.996264)"/>
     <use xlink:href="#CMMI12-63" transform="translate(972.497103 0) scale(0.996264)"/>
     <use xlink:href="#CMR17-3d" transform="translate(1042.154345 0) scale(0.996264)"/>
     <use xlink:href="#CMR17-31" transform="translate(1141.543142 0) scale(0.996264)"/>
     <use xlink:href="#CMR17-25" transform="translate(1187.233619 0) scale(0.996264)"/>
     <use xlink:href="#CMMI12-6c" transform="translate(1295.382322 0) scale(0.996264)"/>
     <use xlink:href="#CMR17-3d" transform="translate(1354.304734 0) scale(0.996264)"/>
     <use xlink:href="#CMMI12-63" transform="translate(1453.693531 0) scale(0.996264)"/>
     <use xlink:href="#CMMI12-6f" transform="translate(1495.676765 0) scale(0.996264)"/>
     <use xlink:href="#CMMI12-73" transform="translate(1542.572075 0) scale(0.996264)"/>
     <use xlink:href="#CMMI12-74" transform="translate(1588.522122 0) scale(0.996264)"/>
     <use xlink:href="#CMMI12-61" transform="translate(1623.748452 0) scale(0.996264)"/>
     <use xlink:href="#CMMI12-6e" transform="translate(1674.95631 0) scale(0.996264)"/>
     <use xlink:href="#CMMI12-74" transform="translate(1733.186357 0) scale(0.996264)"/>
    </g>
   </g>
  </g>
  <g id="axes_2">
   <g id="matplotlib.axis_3">
    <g id="ytick_7">
     <g id="line2d_22">
      <defs>
       <path id="m7bd107662f" d="M 0 0 
L 3.5 0 
" style="stroke: #000000; stroke-width: 0.8"/>
      </defs>
      <g>
       <use xlink:href="#m7bd107662f" x="518.4" y="320.4" style="stroke: #000000; stroke-width: 0.8"/>
      </g>
     </g>
     <g id="text_17">
      <!-- $\mathdefault{0}$ -->
      <g transform="translate(525.4 325.415904) scale(0.145 -0.145)">
       <use xlink:href="#CMR17-30" transform="scale(0.996264)"/>
      </g>
     </g>
    </g>
    <g id="ytick_8">
     <g id="line2d_23">
      <g>
       <use xlink:href="#m7bd107662f" x="518.4" y="264.987706" style="stroke: #000000; stroke-width: 0.8"/>
      </g>
     </g>
     <g id="text_18">
      <!-- $\mathdefault{20}$ -->
      <g transform="translate(525.4 270.00361) scale(0.145 -0.145)">
       <use xlink:href="#CMR17-32" transform="scale(0.996264)"/>
       <use xlink:href="#CMR17-30" transform="translate(45.690477 0) scale(0.996264)"/>
      </g>
     </g>
    </g>
    <g id="ytick_9">
     <g id="line2d_24">
      <g>
       <use xlink:href="#m7bd107662f" x="518.4" y="209.575412" style="stroke: #000000; stroke-width: 0.8"/>
      </g>
     </g>
     <g id="text_19">
      <!-- $\mathdefault{40}$ -->
      <g transform="translate(525.4 214.591316) scale(0.145 -0.145)">
       <use xlink:href="#CMR17-34" transform="scale(0.996264)"/>
       <use xlink:href="#CMR17-30" transform="translate(45.690477 0) scale(0.996264)"/>
      </g>
     </g>
    </g>
    <g id="ytick_10">
     <g id="line2d_25">
      <g>
       <use xlink:href="#m7bd107662f" x="518.4" y="154.163118" style="stroke: #000000; stroke-width: 0.8"/>
      </g>
     </g>
     <g id="text_20">
      <!-- $\mathdefault{60}$ -->
      <g transform="translate(525.4 159.179023) scale(0.145 -0.145)">
       <use xlink:href="#CMR17-36" transform="scale(0.996264)"/>
       <use xlink:href="#CMR17-30" transform="translate(45.690477 0) scale(0.996264)"/>
      </g>
     </g>
    </g>
    <g id="ytick_11">
     <g id="line2d_26">
      <g>
       <use xlink:href="#m7bd107662f" x="518.4" y="98.750825" style="stroke: #000000; stroke-width: 0.8"/>
      </g>
     </g>
     <g id="text_21">
      <!-- $\mathdefault{80}$ -->
      <g transform="translate(525.4 103.766729) scale(0.145 -0.145)">
       <use xlink:href="#CMR17-38" transform="scale(0.996264)"/>
       <use xlink:href="#CMR17-30" transform="translate(45.690477 0) scale(0.996264)"/>
      </g>
     </g>
    </g>
    <g id="ytick_12">
     <g id="line2d_27">
      <g>
       <use xlink:href="#m7bd107662f" x="518.4" y="43.338531" style="stroke: #000000; stroke-width: 0.8"/>
      </g>
     </g>
     <g id="text_22">
      <!-- $\mathdefault{100}$ -->
      <g transform="translate(525.4 48.354435) scale(0.145 -0.145)">
       <use xlink:href="#CMR17-31" transform="scale(0.996264)"/>
       <use xlink:href="#CMR17-30" transform="translate(45.690477 0) scale(0.996264)"/>
       <use xlink:href="#CMR17-30" transform="translate(91.380954 0) scale(0.996264)"/>
      </g>
     </g>
    </g>
    <g id="text_23">
     <!-- CPU load in \% -->
     <g transform="translate(560.648875 226.102524) rotate(-90) scale(0.145 -0.145)">
      <defs>
       <path id="CMSS17-43" d="M 3501 714 
C 3072 427 2874 344 2355 344 
C 1459 344 934 1303 934 2179 
C 934 3112 1472 4032 2381 4032 
C 2790 4032 3059 3918 3386 3715 
L 3475 4217 
C 3168 4370 2778 4440 2387 4440 
C 1158 4440 397 3316 397 2179 
C 397 927 1299 -64 2323 -64 
C 2874 -64 3066 -19 3539 280 
L 3501 714 
z
" transform="scale(0.015625)"/>
       <path id="CMSS17-50" d="M 2106 1856 
C 2874 1856 3501 2453 3501 3158 
C 3501 3850 2899 4453 2067 4453 
L 570 4453 
L 570 0 
L 1107 0 
L 1107 1856 
L 2106 1856 
z
M 1926 4096 
C 2669 4096 2995 3627 2995 3157 
C 2995 2720 2694 2226 1926 2226 
L 1094 2226 
L 1094 4096 
L 1926 4096 
z
" transform="scale(0.015625)"/>
       <path id="CMSS17-55" d="M 3552 4384 
L 3066 4384 
L 3066 1449 
C 3066 604 2547 229 2074 229 
C 1587 229 1101 623 1101 1443 
L 1101 4384 
L 563 4384 
L 563 1454 
C 563 539 1274 -128 2067 -128 
C 2861 -128 3552 539 3552 1454 
L 3552 4384 
z
" transform="scale(0.015625)"/>
       <path id="CMSS17-6c" d="M 947 4416 
L 474 4416 
L 474 0 
L 947 0 
L 947 4416 
z
" transform="scale(0.015625)"/>
       <path id="CMSS17-61" d="M 2406 1791 
C 2406 2392 1978 2808 1402 2808 
C 1120 2808 813 2757 461 2553 
L 499 2135 
C 659 2248 934 2432 1395 2432 
C 1722 2432 1920 2180 1920 1782 
L 1920 1536 
C 896 1536 256 1238 256 726 
C 256 461 416 -64 947 -64 
C 1043 -64 1562 -64 1933 217 
L 1933 -19 
L 2406 -19 
L 2406 1791 
z
M 1920 816 
C 1920 701 1920 548 1728 434 
C 1562 325 1350 325 1261 325 
C 941 325 723 511 723 744 
C 723 1211 1722 1211 1920 1211 
L 1920 816 
z
" transform="scale(0.015625)"/>
       <path id="CMSS17-64" d="M 2611 4416 
L 2138 4416 
L 2138 2438 
C 1939 2603 1613 2756 1254 2756 
C 672 2756 211 2131 211 1347 
C 211 562 666 -64 1235 -64 
C 1677 -64 1971 172 2125 306 
L 2125 -13 
L 2611 -13 
L 2611 4416 
z
M 2125 836 
C 2125 747 2125 653 1926 482 
C 1798 375 1645 325 1498 325 
C 1152 325 698 576 698 1340 
C 698 2134 1210 2368 1562 2368 
C 1798 2368 1990 2254 2125 2065 
L 2125 836 
z
" transform="scale(0.015625)"/>
       <path id="CMSS17-6e" d="M 2618 1877 
C 2618 2283 2522 2816 1798 2816 
C 1389 2816 1120 2606 941 2389 
L 941 2758 
L 474 2758 
L 474 0 
L 960 0 
L 960 1559 
C 960 1964 1114 2428 1549 2428 
C 2112 2428 2131 2048 2131 1829 
L 2131 0 
L 2618 0 
L 2618 1877 
z
" transform="scale(0.015625)"/>
       <path id="CMSS17-25" d="M 3923 4583 
C 3962 4647 3962 4679 3962 4685 
C 3962 4755 3904 4800 3853 4800 
C 3782 4800 3750 4749 3718 4685 
L 1101 -104 
C 1088 -129 1062 -167 1062 -206 
C 1062 -276 1120 -320 1178 -320 
C 1235 -320 1248 -295 1299 -206 
L 3923 4583 
z
M 4678 959 
C 4678 1698 4282 2240 3846 2240 
C 3418 2240 3008 1711 3008 959 
C 3008 208 3418 -320 3846 -320 
C 4288 -320 4678 221 4678 959 
z
M 3846 68 
C 3712 68 3494 189 3494 959 
C 3494 1724 3712 1851 3846 1851 
C 4083 1851 4211 1386 4211 959 
C 4211 533 4083 68 3846 68 
z
M 2003 3519 
C 2003 4258 1606 4800 1171 4800 
C 742 4800 333 4271 333 3519 
C 333 2768 742 2240 1171 2240 
C 1613 2240 2003 2781 2003 3519 
z
M 1171 2628 
C 1037 2628 819 2749 819 3519 
C 819 4284 1037 4411 1171 4411 
C 1408 4411 1536 3946 1536 3519 
C 1536 3093 1408 2628 1171 2628 
z
" transform="scale(0.015625)"/>
      </defs>
      <use xlink:href="#CMSS17-43" transform="scale(0.996264)"/>
      <use xlink:href="#CMSS17-50" transform="translate(59.855772 0) scale(0.996264)"/>
      <use xlink:href="#CMSS17-55" transform="translate(119.591358 0) scale(0.996264)"/>
      <use xlink:href="#CMSS17-6c" transform="translate(214.960211 0) scale(0.996264)"/>
      <use xlink:href="#CMSS17-6f" transform="translate(237.140934 0) scale(0.996264)"/>
      <use xlink:href="#CMSS17-61" transform="translate(283.984557 0) scale(0.996264)"/>
      <use xlink:href="#CMSS17-64" transform="translate(328.906478 0) scale(0.996264)"/>
      <use xlink:href="#CMSS17-69" transform="translate(408.340534 0) scale(0.996264)"/>
      <use xlink:href="#CMSS17-6e" transform="translate(430.521257 0) scale(0.996264)"/>
      <use xlink:href="#CMSS17-25" transform="translate(509.955313 0) scale(0.996264)"/>
     </g>
    </g>
   </g>
   <g id="line2d_28">
    <path d="M 92.290909 112.603898 
L 498.109091 112.603898 
L 498.109091 112.603898 
" clip-path="url(#pb424b2097d)" style="fill: none; stroke-dasharray: 5.55,2.4; stroke-dashoffset: 0; stroke: #140e36; stroke-width: 1.5"/>
   </g>
   <g id="line2d_29">
    <path d="M 92.290909 56.305007 
L 131.855356 56.305007 
L 132.985769 56.027946 
L 180.463105 56.027946 
L 181.593517 56.471244 
L 187.245581 56.471244 
L 188.375994 56.027946 
L 248.28787 55.972534 
L 249.418283 55.806297 
L 310.460572 55.806297 
L 311.590985 56.083358 
L 371.502861 56.083358 
L 372.633274 59.352684 
L 377.154925 59.352684 
L 378.285338 56.471244 
L 432.545151 56.471244 
L 433.675563 64.727676 
L 439.327627 64.727676 
L 440.45804 54.698051 
L 498.109091 54.587226 
L 498.109091 54.587226 
" clip-path="url(#pb424b2097d)" style="fill: none; stroke-dasharray: 5.55,2.4; stroke-dashoffset: 0; stroke: #fecf92; stroke-width: 1.5"/>
   </g>
   <g id="patch_6">
    <path d="M 72 320.4 
L 72 43.2 
" style="fill: none; stroke: #000000; stroke-width: 0.8; stroke-linejoin: miter; stroke-linecap: square"/>
   </g>
   <g id="patch_7">
    <path d="M 518.4 320.4 
L 518.4 43.2 
" style="fill: none; stroke: #000000; stroke-width: 0.8; stroke-linejoin: miter; stroke-linecap: square"/>
   </g>
   <g id="patch_8">
    <path d="M 72 320.4 
L 518.4 320.4 
" style="fill: none; stroke: #000000; stroke-width: 0.8; stroke-linejoin: miter; stroke-linecap: square"/>
   </g>
   <g id="patch_9">
    <path d="M 72 43.2 
L 518.4 43.2 
" style="fill: none; stroke: #000000; stroke-width: 0.8; stroke-linejoin: miter; stroke-linecap: square"/>
   </g>
   <g id="legend_1">
    <g id="patch_10">
     <path d="M 347.090605 313.15 
L 508.25 313.15 
Q 511.15 313.15 511.15 310.25 
L 511.15 224.916687 
Q 511.15 222.016687 508.25 222.016687 
L 347.090605 222.016687 
Q 344.190605 222.016687 344.190605 224.916687 
L 344.190605 310.25 
Q 344.190605 313.15 347.090605 313.15 
z
" style="fill: #ffffff; opacity: 0.7; stroke: #cccccc; stroke-linejoin: miter"/>
    </g>
    <g id="line2d_30">
     <path d="M 349.990605 233.576059 
L 364.490605 233.576059 
L 378.990605 233.576059 
" style="fill: none; stroke: #482475; stroke-width: 2.5; stroke-linecap: square"/>
    </g>
    <g id="text_24">
     <!-- QoS [static] -->
     <g transform="translate(390.590605 238.651059) scale(0.145 -0.145)">
      <defs>
       <path id="CMSS17-5b" d="M 1613 -1600 
L 1613 -1212 
L 1062 -1212 
L 1062 4352 
L 1613 4352 
L 1613 4741 
L 595 4741 
L 595 -1600 
L 1613 -1600 
z
" transform="scale(0.015625)"/>
       <path id="CMSS17-63" d="M 2464 2541 
C 2464 2585 2170 2714 2093 2739 
C 1882 2816 1613 2816 1542 2816 
C 710 2816 211 2093 211 1363 
C 211 595 768 -64 1517 -64 
C 1946 -64 2253 76 2502 242 
L 2464 664 
C 2189 453 1869 337 1523 337 
C 1024 337 698 774 698 1369 
C 698 1831 909 2414 1549 2414 
C 1901 2414 2099 2343 2394 2145 
L 2464 2541 
z
" transform="scale(0.015625)"/>
       <path id="CMSS17-5d" d="M 1146 4741 
L 128 4741 
L 128 4352 
L 678 4352 
L 678 -1212 
L 128 -1212 
L 128 -1600 
L 1146 -1600 
L 1146 4741 
z
" transform="scale(0.015625)"/>
      </defs>
      <use xlink:href="#CMSS17-51" transform="scale(0.996264)"/>
      <use xlink:href="#CMSS17-6f" transform="translate(69.024255 0) scale(0.996264)"/>
      <use xlink:href="#CMSS17-53" transform="translate(115.867879 0) scale(0.996264)"/>
      <use xlink:href="#CMSS17-5b" transform="translate(199.145508 0) scale(0.996264)"/>
      <use xlink:href="#CMSS17-73" transform="translate(226.330946 0) scale(0.996264)"/>
      <use xlink:href="#CMSS17-74" transform="translate(262.244488 0) scale(0.996264)"/>
      <use xlink:href="#CMSS17-61" transform="translate(296.076055 0) scale(0.996264)"/>
      <use xlink:href="#CMSS17-74" transform="translate(340.997976 0) scale(0.996264)"/>
      <use xlink:href="#CMSS17-69" transform="translate(374.829542 0) scale(0.996264)"/>
      <use xlink:href="#CMSS17-63" transform="translate(397.010265 0) scale(0.996264)"/>
      <use xlink:href="#CMSS17-5d" transform="translate(438.649088 0) scale(0.996264)"/>
     </g>
    </g>
    <g id="line2d_31">
     <path d="M 349.990605 255.271887 
L 364.490605 255.271887 
L 378.990605 255.271887 
" style="fill: none; stroke: #bddf26; stroke-width: 2.5; stroke-linecap: square"/>
    </g>
    <g id="text_25">
     <!-- QoS [dynamic] -->
     <g transform="translate(390.590605 260.346887) scale(0.145 -0.145)">
      <defs>
       <path id="CMSS17-79" d="M 2675 2752 
L 2176 2752 
C 1632 1294 1446 702 1434 383 
L 1427 383 
C 1408 696 1126 1460 902 2007 
L 602 2752 
L 83 2752 
L 1216 13 
C 1146 -178 1043 -465 1011 -529 
C 870 -885 774 -885 672 -885 
C 646 -885 442 -885 211 -809 
L 250 -1229 
C 410 -1261 570 -1280 685 -1280 
C 845 -1280 1165 -1280 1459 -497 
L 2675 2752 
z
" transform="scale(0.015625)"/>
      </defs>
      <use xlink:href="#CMSS17-51" transform="scale(0.996264)"/>
      <use xlink:href="#CMSS17-6f" transform="translate(69.024255 0) scale(0.996264)"/>
      <use xlink:href="#CMSS17-53" transform="translate(115.867879 0) scale(0.996264)"/>
      <use xlink:href="#CMSS17-5b" transform="translate(199.145508 0) scale(0.996264)"/>
      <use xlink:href="#CMSS17-64" transform="translate(226.330946 0) scale(0.996264)"/>
      <use xlink:href="#CMSS17-79" transform="translate(274.53589 0) scale(0.996264)"/>
      <use xlink:href="#CMSS17-6e" transform="translate(317.536031 0) scale(0.996264)"/>
      <use xlink:href="#CMSS17-61" transform="translate(365.740974 0) scale(0.996264)"/>
      <use xlink:href="#CMSS17-6d" transform="translate(410.662895 0) scale(0.996264)"/>
      <use xlink:href="#CMSS17-69" transform="translate(484.892149 0) scale(0.996264)"/>
      <use xlink:href="#CMSS17-63" transform="translate(507.072872 0) scale(0.996264)"/>
      <use xlink:href="#CMSS17-5d" transform="translate(548.711695 0) scale(0.996264)"/>
     </g>
    </g>
    <g id="line2d_32">
     <path d="M 349.990605 276.967715 
L 364.490605 276.967715 
L 378.990605 276.967715 
" style="fill: none; stroke-dasharray: 5.55,2.4; stroke-dashoffset: 0; stroke: #140e36; stroke-width: 1.5"/>
    </g>
    <g id="text_26">
     <!-- Load driver (right) -->
     <g transform="translate(390.590605 282.042715) scale(0.145 -0.145)">
      <defs>
       <path id="CMSS17-4c" d="M 1670 414 
C 1594 414 1517 414 1440 414 
L 1101 414 
L 1101 4416 
L 563 4416 
L 563 0 
L 3002 0 
L 3002 414 
L 1670 414 
z
" transform="scale(0.015625)"/>
       <path id="CMSS17-72" d="M 954 1363 
C 954 1965 1395 2368 1958 2368 
L 1958 2789 
C 1549 2789 1165 2585 934 2253 
L 934 2758 
L 480 2758 
L 480 0 
L 954 0 
L 954 1363 
z
" transform="scale(0.015625)"/>
       <path id="CMSS17-76" d="M 2675 2752 
L 2176 2752 
L 1747 1556 
C 1613 1165 1421 627 1389 352 
L 1382 352 
C 1370 468 1318 634 1286 749 
C 1248 890 1197 1056 1158 1172 
L 595 2752 
L 83 2752 
L 1094 0 
L 1664 0 
L 2675 2752 
z
" transform="scale(0.015625)"/>
       <path id="CMSS17-67" d="M 2848 2808 
C 2483 2808 2170 2738 1914 2617 
C 1702 2777 1485 2808 1338 2808 
C 781 2808 358 2349 358 1814 
C 358 1468 550 1207 563 1195 
C 448 1035 384 863 384 672 
C 384 448 474 289 544 200 
C 211 -3 166 -314 166 -435 
C 166 -898 749 -1280 1498 -1280 
C 2253 -1280 2835 -898 2835 -428 
C 2835 448 1856 448 1587 448 
L 1069 448 
C 973 448 717 448 717 791 
C 717 921 774 1004 781 1010 
C 877 940 1075 832 1338 832 
C 1869 832 2310 1278 2310 1827 
C 2310 2132 2170 2355 2112 2432 
L 2131 2432 
C 2150 2432 2419 2432 2515 2432 
C 2720 2432 2739 2429 2918 2419 
L 2848 2808 
z
M 1338 1182 
C 1120 1182 813 1315 813 1823 
C 813 2375 1165 2464 1331 2464 
C 1549 2464 1856 2331 1856 1823 
C 1856 1271 1504 1182 1338 1182 
z
M 1581 -10 
C 1734 -10 2381 -10 2381 -442 
C 2381 -714 1984 -929 1504 -929 
C 1018 -929 621 -720 621 -435 
C 621 -403 621 -10 1062 -10 
L 1581 -10 
z
" transform="scale(0.015625)"/>
       <path id="CMSS17-68" d="M 2618 1891 
C 2618 2292 2522 2820 1798 2820 
C 1395 2820 1133 2623 947 2407 
L 947 4448 
L 474 4448 
L 474 32 
L 960 32 
L 960 1573 
C 960 1973 1114 2432 1549 2432 
C 2112 2432 2131 2056 2131 1839 
L 2131 32 
L 2618 32 
L 2618 1891 
z
" transform="scale(0.015625)"/>
      </defs>
      <use xlink:href="#CMSS17-4c" transform="scale(0.996264)"/>
      <use xlink:href="#CMSS17-6f" transform="translate(50.687105 0) scale(0.996264)"/>
      <use xlink:href="#CMSS17-61" transform="translate(97.530729 0) scale(0.996264)"/>
      <use xlink:href="#CMSS17-64" transform="translate(142.452649 0) scale(0.996264)"/>
      <use xlink:href="#CMSS17-64" transform="translate(221.886705 0) scale(0.996264)"/>
      <use xlink:href="#CMSS17-72" transform="translate(270.091649 0) scale(0.996264)"/>
      <use xlink:href="#CMSS17-69" transform="translate(302.001421 0) scale(0.996264)"/>
      <use xlink:href="#CMSS17-76" transform="translate(324.182144 0) scale(0.996264)"/>
      <use xlink:href="#CMSS17-65" transform="translate(367.182286 0) scale(0.996264)"/>
      <use xlink:href="#CMSS17-72" transform="translate(408.821108 0) scale(0.996264)"/>
      <use xlink:href="#CMSS17-28" transform="translate(471.959993 0) scale(0.996264)"/>
      <use xlink:href="#CMSS17-72" transform="translate(508.393907 0) scale(0.996264)"/>
      <use xlink:href="#CMSS17-69" transform="translate(540.30368 0) scale(0.996264)"/>
      <use xlink:href="#CMSS17-67" transform="translate(562.484403 0) scale(0.996264)"/>
      <use xlink:href="#CMSS17-68" transform="translate(609.328026 0) scale(0.996264)"/>
      <use xlink:href="#CMSS17-74" transform="translate(657.53297 0) scale(0.996264)"/>
      <use xlink:href="#CMSS17-29" transform="translate(691.364536 0) scale(0.996264)"/>
     </g>
    </g>
    <g id="line2d_33">
     <path d="M 349.990605 298.663543 
L 364.490605 298.663543 
L 378.990605 298.663543 
" style="fill: none; stroke-dasharray: 5.55,2.4; stroke-dashoffset: 0; stroke: #fecf92; stroke-width: 1.5"/>
    </g>
    <g id="text_27">
     <!-- System load (right) -->
     <g transform="translate(390.590605 303.738543) scale(0.145 -0.145)">
      <use xlink:href="#CMSS17-53" transform="scale(0.996264)"/>
      <use xlink:href="#CMSS17-79" transform="translate(52.048516 0) scale(0.996264)"/>
      <use xlink:href="#CMSS17-73" transform="translate(95.048658 0) scale(0.996264)"/>
      <use xlink:href="#CMSS17-74" transform="translate(130.9622 0) scale(0.996264)"/>
      <use xlink:href="#CMSS17-65" transform="translate(164.793767 0) scale(0.996264)"/>
      <use xlink:href="#CMSS17-6d" transform="translate(206.432589 0) scale(0.996264)"/>
      <use xlink:href="#CMSS17-6c" transform="translate(311.890956 0) scale(0.996264)"/>
      <use xlink:href="#CMSS17-6f" transform="translate(334.071679 0) scale(0.996264)"/>
      <use xlink:href="#CMSS17-61" transform="translate(380.915302 0) scale(0.996264)"/>
      <use xlink:href="#CMSS17-64" transform="translate(425.837223 0) scale(0.996264)"/>
      <use xlink:href="#CMSS17-28" transform="translate(505.271279 0) scale(0.996264)"/>
      <use xlink:href="#CMSS17-72" transform="translate(541.705193 0) scale(0.996264)"/>
      <use xlink:href="#CMSS17-69" transform="translate(573.614966 0) scale(0.996264)"/>
      <use xlink:href="#CMSS17-67" transform="translate(595.795689 0) scale(0.996264)"/>
      <use xlink:href="#CMSS17-68" transform="translate(642.639312 0) scale(0.996264)"/>
      <use xlink:href="#CMSS17-74" transform="translate(690.844255 0) scale(0.996264)"/>
      <use xlink:href="#CMSS17-29" transform="translate(724.675822 0) scale(0.996264)"/>
     </g>
    </g>
   </g>
  </g>
 </g>
 <defs>
  <clipPath id="pb424b2097d">
   <rect x="72" y="43.2" width="446.4" height="277.2"/>
  </clipPath>
 </defs>
</svg>
