<?xml version="1.0" encoding="utf-8" standalone="no"?>
<!DOCTYPE svg PUBLIC "-//W3C//DTD SVG 1.1//EN"
  "http://www.w3.org/Graphics/SVG/1.1/DTD/svg11.dtd">
<svg xmlns:xlink="http://www.w3.org/1999/xlink" width="720pt" height="360pt" viewBox="0 0 720 360" xmlns="http://www.w3.org/2000/svg" version="1.1">
 <metadata>
  <rdf:RDF xmlns:dc="http://purl.org/dc/elements/1.1/" xmlns:cc="http://creativecommons.org/ns#" xmlns:rdf="http://www.w3.org/1999/02/22-rdf-syntax-ns#">
   <cc:Work>
    <dc:type rdf:resource="http://purl.org/dc/dcmitype/StillImage"/>
    <dc:date>2024-03-20T17:20:33.094948</dc:date>
    <dc:format>image/svg+xml</dc:format>
    <dc:creator>
     <cc:Agent>
      <dc:title>Matplotlib v3.8.0, https://matplotlib.org/</dc:title>
     </cc:Agent>
    </dc:creator>
   </cc:Work>
  </rdf:RDF>
 </metadata>
 <defs>
  <style type="text/css">*{stroke-linejoin: round; stroke-linecap: butt}</style>
 </defs>
 <g id="figure_1">
  <g id="patch_1">
   <path d="M 0 360 
L 720 360 
L 720 0 
L 0 0 
z
" style="fill: #ffffff"/>
  </g>
  <g id="axes_1">
   <g id="patch_2">
    <path d="M 90 320.4 
L 648 320.4 
L 648 43.2 
L 90 43.2 
z
" style="fill: #ffffff"/>
   </g>
   <g id="PolyCollection_1">
    <defs>
     <path id="m66c3d866d3" d="M 115.363636 -101.06968 
L 115.363636 -125.969792 
L 116.776652 -125.969792 
L 118.189668 -125.969792 
L 119.602684 -125.969792 
L 121.0157 -125.969792 
L 122.428716 -125.969792 
L 123.841732 -125.969792 
L 125.254748 -125.969792 
L 126.667764 -125.969792 
L 128.08078 -125.969792 
L 129.493796 -125.969792 
L 130.906812 -125.969792 
L 132.319828 -125.969792 
L 133.732844 -125.969792 
L 135.14586 -125.969792 
L 136.558876 -125.969792 
L 137.971892 -125.969792 
L 139.384908 -125.969792 
L 140.797924 -125.969792 
L 142.210939 -125.969792 
L 143.623955 -125.969792 
L 145.036971 -125.969792 
L 146.449987 -125.969792 
L 147.863003 -125.969792 
L 149.276019 -125.969792 
L 150.689035 -125.969792 
L 152.102051 -125.969792 
L 153.515067 -125.969792 
L 154.928083 -125.969792 
L 156.341099 -125.969792 
L 157.754115 -125.969792 
L 159.167131 -125.969792 
L 160.580147 -125.969792 
L 161.993163 -125.969792 
L 163.406179 -125.969792 
L 164.819195 -125.969792 
L 166.232211 -125.969792 
L 167.645227 -125.969792 
L 169.058243 -125.969792 
L 170.471259 -125.969792 
L 171.884274 -125.969792 
L 173.29729 -125.969792 
L 174.710306 -125.969792 
L 176.123322 -125.969792 
L 177.536338 -125.969792 
L 178.949354 -125.969792 
L 180.36237 -125.969792 
L 181.775386 -194.419804 
L 183.188402 -194.419804 
L 184.601418 -194.419804 
L 186.014434 -194.419804 
L 187.42745 -194.419804 
L 188.840466 -264.602469 
L 190.253482 -264.602469 
L 191.666498 -264.602469 
L 193.079514 -264.602469 
L 194.49253 -264.602469 
L 195.905546 -264.602469 
L 197.318562 -266.24103 
L 198.731578 -266.24103 
L 200.144594 -266.24103 
L 201.55761 -266.24103 
L 202.970625 -266.24103 
L 204.383641 -266.24103 
L 205.796657 -266.24103 
L 207.209673 -266.24103 
L 208.622689 -266.24103 
L 210.035705 -266.24103 
L 211.448721 -266.24103 
L 212.861737 -266.24103 
L 214.274753 -266.24103 
L 215.687769 -266.24103 
L 217.100785 -266.24103 
L 218.513801 -266.24103 
L 219.926817 -266.24103 
L 221.339833 -266.24103 
L 222.752849 -266.24103 
L 224.165865 -266.24103 
L 225.578881 -266.24103 
L 226.991897 -266.24103 
L 228.404913 -266.24103 
L 229.817929 -266.24103 
L 231.230945 -266.24103 
L 232.64396 -266.24103 
L 234.056976 -266.24103 
L 235.469992 -266.24103 
L 236.883008 -266.24103 
L 238.296024 -266.24103 
L 239.70904 -266.24103 
L 241.122056 -266.24103 
L 242.535072 -266.24103 
L 243.948088 -266.24103 
L 245.361104 -266.24103 
L 246.77412 -266.24103 
L 248.187136 -266.24103 
L 249.600152 -266.24103 
L 251.013168 -266.24103 
L 252.426184 -266.24103 
L 253.8392 -266.24103 
L 255.252216 -266.24103 
L 256.665232 -266.24103 
L 258.078248 -266.24103 
L 259.491264 -266.24103 
L 260.90428 -266.24103 
L 262.317296 -266.24103 
L 263.730311 -266.24103 
L 265.143327 -266.24103 
L 266.556343 -266.24103 
L 267.969359 -266.24103 
L 269.382375 -266.24103 
L 270.795391 -266.24103 
L 272.208407 -266.24103 
L 273.621423 -266.24103 
L 275.034439 -266.24103 
L 276.447455 -266.24103 
L 277.860471 -266.24103 
L 279.273487 -266.24103 
L 280.686503 -266.24103 
L 282.099519 -266.24103 
L 283.512535 -266.24103 
L 284.925551 -266.24103 
L 286.338567 -266.24103 
L 287.751583 -266.24103 
L 289.164599 -266.125907 
L 290.577615 -266.125907 
L 291.990631 -266.125907 
L 293.403646 -266.125907 
L 294.816662 -266.125907 
L 296.229678 -208.422374 
L 297.642694 -208.422374 
L 299.05571 -208.422374 
L 300.468726 -208.422374 
L 301.881742 -208.422374 
L 303.294758 -208.422374 
L 304.707774 -204.58544 
L 306.12079 -204.58544 
L 307.533806 -204.58544 
L 308.946822 -204.58544 
L 310.359838 -204.58544 
L 311.772854 -204.58544 
L 313.18587 -204.58544 
L 314.598886 -204.58544 
L 316.011902 -204.58544 
L 317.424918 -204.58544 
L 318.837934 -204.58544 
L 320.25095 -204.58544 
L 321.663966 -204.58544 
L 323.076982 -204.58544 
L 324.489997 -204.58544 
L 325.903013 -204.58544 
L 327.316029 -204.58544 
L 328.729045 -204.58544 
L 330.142061 -204.58544 
L 331.555077 -204.58544 
L 332.968093 -204.58544 
L 334.381109 -204.58544 
L 335.794125 -204.58544 
L 337.207141 -204.58544 
L 338.620157 -204.58544 
L 340.033173 -204.58544 
L 341.446189 -204.58544 
L 342.859205 -204.58544 
L 344.272221 -204.58544 
L 345.685237 -204.58544 
L 347.098253 -204.58544 
L 348.511269 -204.58544 
L 349.924285 -204.58544 
L 351.337301 -204.58544 
L 352.750317 -204.58544 
L 354.163332 -204.58544 
L 355.576348 -204.58544 
L 356.989364 -204.58544 
L 358.40238 -204.58544 
L 359.815396 -204.58544 
L 361.228412 -204.58544 
L 362.641428 -204.58544 
L 364.054444 -204.58544 
L 365.46746 -204.58544 
L 366.880476 -204.58544 
L 368.293492 -204.58544 
L 369.706508 -204.58544 
L 371.119524 -204.58544 
L 372.53254 -204.58544 
L 373.945556 -204.58544 
L 375.358572 -204.58544 
L 376.771588 -204.58544 
L 378.184604 -204.58544 
L 379.59762 -204.58544 
L 381.010636 -204.58544 
L 382.423652 -204.58544 
L 383.836668 -204.58544 
L 385.249683 -204.58544 
L 386.662699 -204.58544 
L 388.075715 -204.58544 
L 389.488731 -204.58544 
L 390.901747 -204.58544 
L 392.314763 -204.58544 
L 393.727779 -204.58544 
L 395.140795 -204.58544 
L 396.553811 -204.58544 
L 397.966827 -204.58544 
L 399.379843 -204.58544 
L 400.792859 -204.58544 
L 402.205875 -204.58544 
L 403.618891 -276.258557 
L 405.031907 -276.258557 
L 406.444923 -276.258557 
L 407.857939 -276.258557 
L 409.270955 -276.258557 
L 410.683971 -276.258557 
L 412.096987 -298.603962 
L 413.510003 -298.603962 
L 414.923018 -298.603962 
L 416.336034 -298.603962 
L 417.74905 -298.603962 
L 419.162066 -298.283807 
L 420.575082 -298.283807 
L 421.988098 -298.283807 
L 423.401114 -298.283807 
L 424.81413 -298.283807 
L 426.227146 -298.283807 
L 427.640162 -300.404316 
L 429.053178 -300.404316 
L 430.466194 -300.404316 
L 431.87921 -300.404316 
L 433.292226 -300.404316 
L 434.705242 -300.404316 
L 436.118258 -300.404316 
L 437.531274 -300.404316 
L 438.94429 -300.404316 
L 440.357306 -300.404316 
L 441.770322 -300.404316 
L 443.183338 -300.404316 
L 444.596354 -300.404316 
L 446.009369 -300.404316 
L 447.422385 -300.404316 
L 448.835401 -300.404316 
L 450.248417 -300.404316 
L 451.661433 -300.404316 
L 453.074449 -300.404316 
L 454.487465 -300.404316 
L 455.900481 -300.404316 
L 457.313497 -300.404316 
L 458.726513 -300.404316 
L 460.139529 -300.404316 
L 461.552545 -300.404316 
L 462.965561 -300.404316 
L 464.378577 -300.404316 
L 465.791593 -300.404316 
L 467.204609 -300.404316 
L 468.617625 -300.404316 
L 470.030641 -300.404316 
L 471.443657 -300.404316 
L 472.856673 -300.404316 
L 474.269689 -300.404316 
L 475.682704 -300.404316 
L 477.09572 -300.404316 
L 478.508736 -300.404316 
L 479.921752 -300.404316 
L 481.334768 -300.404316 
L 482.747784 -300.404316 
L 484.1608 -300.404316 
L 485.573816 -300.404316 
L 486.986832 -300.404316 
L 488.399848 -300.404316 
L 489.812864 -300.404316 
L 491.22588 -300.404316 
L 492.638896 -300.404316 
L 494.051912 -300.404316 
L 495.464928 -300.404316 
L 496.877944 -300.404316 
L 498.29096 -300.404316 
L 499.703976 -300.404316 
L 501.116992 -300.404316 
L 502.530008 -300.404316 
L 503.943024 -300.404316 
L 505.35604 -300.404316 
L 506.769055 -300.404316 
L 508.182071 -300.404316 
L 509.595087 -300.404316 
L 511.008103 -300.404316 
L 512.421119 -298.823337 
L 513.834135 -298.823337 
L 515.247151 -298.823337 
L 516.660167 -298.823337 
L 518.073183 -298.823337 
L 519.486199 -288.350191 
L 520.899215 -288.350191 
L 522.312231 -288.350191 
L 523.725247 -288.350191 
L 525.138263 -288.350191 
L 526.551279 -288.350191 
L 527.964295 -287.745838 
L 529.377311 -287.745838 
L 530.790327 -287.745838 
L 532.203343 -287.745838 
L 533.616359 -287.745838 
L 535.029375 -287.745838 
L 536.44239 -287.745838 
L 537.855406 -287.745838 
L 539.268422 -287.745838 
L 540.681438 -287.745838 
L 542.094454 -287.745838 
L 543.50747 -287.745838 
L 544.920486 -287.745838 
L 546.333502 -287.745838 
L 547.746518 -287.745838 
L 549.159534 -287.745838 
L 550.57255 -287.745838 
L 551.985566 -287.745838 
L 553.398582 -287.745838 
L 554.811598 -287.745838 
L 556.224614 -287.745838 
L 557.63763 -287.745838 
L 559.050646 -287.745838 
L 560.463662 -287.745838 
L 561.876678 -287.745838 
L 563.289694 -287.745838 
L 564.70271 -287.745838 
L 566.115726 -287.745838 
L 567.528741 -287.745838 
L 568.941757 -287.745838 
L 570.354773 -287.745838 
L 571.767789 -287.745838 
L 573.180805 -287.745838 
L 574.593821 -287.745838 
L 576.006837 -287.745838 
L 577.419853 -287.745838 
L 578.832869 -287.745838 
L 580.245885 -287.745838 
L 581.658901 -287.745838 
L 583.071917 -287.745838 
L 584.484933 -287.745838 
L 585.897949 -287.745838 
L 587.310965 -287.745838 
L 588.723981 -287.745838 
L 590.136997 -287.745838 
L 591.550013 -287.745838 
L 592.963029 -287.745838 
L 594.376045 -287.745838 
L 595.789061 -287.745838 
L 597.202076 -287.745838 
L 598.615092 -287.745838 
L 600.028108 -287.745838 
L 601.441124 -287.745838 
L 602.85414 -287.745838 
L 604.267156 -287.745838 
L 605.680172 -287.745838 
L 607.093188 -287.745838 
L 608.506204 -287.745838 
L 609.91922 -287.745838 
L 611.332236 -287.745838 
L 612.745252 -287.745838 
L 614.158268 -287.745838 
L 615.571284 -287.745838 
L 616.9843 -287.745838 
L 618.397316 -287.745838 
L 619.810332 -287.745838 
L 621.223348 -287.745838 
L 622.636364 -287.745838 
L 622.636364 -240.53189 
L 622.636364 -240.53189 
L 621.223348 -240.53189 
L 619.810332 -240.53189 
L 618.397316 -240.53189 
L 616.9843 -240.53189 
L 615.571284 -240.53189 
L 614.158268 -240.53189 
L 612.745252 -240.53189 
L 611.332236 -240.53189 
L 609.91922 -240.53189 
L 608.506204 -240.53189 
L 607.093188 -240.53189 
L 605.680172 -240.53189 
L 604.267156 -240.53189 
L 602.85414 -240.53189 
L 601.441124 -240.53189 
L 600.028108 -240.53189 
L 598.615092 -240.53189 
L 597.202076 -240.53189 
L 595.789061 -240.53189 
L 594.376045 -240.53189 
L 592.963029 -240.53189 
L 591.550013 -240.53189 
L 590.136997 -240.53189 
L 588.723981 -240.53189 
L 587.310965 -240.53189 
L 585.897949 -240.53189 
L 584.484933 -240.53189 
L 583.071917 -240.53189 
L 581.658901 -240.53189 
L 580.245885 -240.53189 
L 578.832869 -240.53189 
L 577.419853 -240.53189 
L 576.006837 -240.53189 
L 574.593821 -240.53189 
L 573.180805 -240.53189 
L 571.767789 -240.53189 
L 570.354773 -240.53189 
L 568.941757 -240.53189 
L 567.528741 -240.53189 
L 566.115726 -240.53189 
L 564.70271 -240.53189 
L 563.289694 -240.53189 
L 561.876678 -240.53189 
L 560.463662 -240.53189 
L 559.050646 -240.53189 
L 557.63763 -240.53189 
L 556.224614 -240.53189 
L 554.811598 -240.53189 
L 553.398582 -240.53189 
L 551.985566 -240.53189 
L 550.57255 -240.53189 
L 549.159534 -240.53189 
L 547.746518 -240.53189 
L 546.333502 -240.53189 
L 544.920486 -240.53189 
L 543.50747 -240.53189 
L 542.094454 -240.53189 
L 540.681438 -240.53189 
L 539.268422 -240.53189 
L 537.855406 -240.53189 
L 536.44239 -240.53189 
L 535.029375 -240.53189 
L 533.616359 -240.53189 
L 532.203343 -240.53189 
L 530.790327 -240.53189 
L 529.377311 -240.53189 
L 527.964295 -240.53189 
L 526.551279 -242.150945 
L 525.138263 -242.150945 
L 523.725247 -242.150945 
L 522.312231 -242.150945 
L 520.899215 -242.150945 
L 519.486199 -242.150945 
L 518.073183 -259.466967 
L 516.660167 -259.466967 
L 515.247151 -259.466967 
L 513.834135 -259.466967 
L 512.421119 -259.466967 
L 511.008103 -260.109924 
L 509.595087 -260.109924 
L 508.182071 -260.109924 
L 506.769055 -260.109924 
L 505.35604 -260.109924 
L 503.943024 -260.109924 
L 502.530008 -260.109924 
L 501.116992 -260.109924 
L 499.703976 -260.109924 
L 498.29096 -260.109924 
L 496.877944 -260.109924 
L 495.464928 -260.109924 
L 494.051912 -260.109924 
L 492.638896 -260.109924 
L 491.22588 -260.109924 
L 489.812864 -260.109924 
L 488.399848 -260.109924 
L 486.986832 -260.109924 
L 485.573816 -260.109924 
L 484.1608 -260.109924 
L 482.747784 -260.109924 
L 481.334768 -260.109924 
L 479.921752 -260.109924 
L 478.508736 -260.109924 
L 477.09572 -260.109924 
L 475.682704 -260.109924 
L 474.269689 -260.109924 
L 472.856673 -260.109924 
L 471.443657 -260.109924 
L 470.030641 -260.109924 
L 468.617625 -260.109924 
L 467.204609 -260.109924 
L 465.791593 -260.109924 
L 464.378577 -260.109924 
L 462.965561 -260.109924 
L 461.552545 -260.109924 
L 460.139529 -260.109924 
L 458.726513 -260.109924 
L 457.313497 -260.109924 
L 455.900481 -260.109924 
L 454.487465 -260.109924 
L 453.074449 -260.109924 
L 451.661433 -260.109924 
L 450.248417 -260.109924 
L 448.835401 -260.109924 
L 447.422385 -260.109924 
L 446.009369 -260.109924 
L 444.596354 -260.109924 
L 443.183338 -260.109924 
L 441.770322 -260.109924 
L 440.357306 -260.109924 
L 438.94429 -260.109924 
L 437.531274 -260.109924 
L 436.118258 -260.109924 
L 434.705242 -260.109924 
L 433.292226 -260.109924 
L 431.87921 -260.109924 
L 430.466194 -260.109924 
L 429.053178 -260.109924 
L 427.640162 -260.109924 
L 426.227146 -259.451569 
L 424.81413 -259.451569 
L 423.401114 -259.451569 
L 421.988098 -259.451569 
L 420.575082 -259.451569 
L 419.162066 -259.451569 
L 417.74905 -259.130886 
L 416.336034 -259.130886 
L 414.923018 -259.130886 
L 413.510003 -259.130886 
L 412.096987 -259.130886 
L 410.683971 -230.899699 
L 409.270955 -230.899699 
L 407.857939 -230.899699 
L 406.444923 -230.899699 
L 405.031907 -230.899699 
L 403.618891 -230.899699 
L 402.205875 -164.736304 
L 400.792859 -164.736304 
L 399.379843 -164.736304 
L 397.966827 -164.736304 
L 396.553811 -164.736304 
L 395.140795 -164.736304 
L 393.727779 -164.736304 
L 392.314763 -164.736304 
L 390.901747 -164.736304 
L 389.488731 -164.736304 
L 388.075715 -164.736304 
L 386.662699 -164.736304 
L 385.249683 -164.736304 
L 383.836668 -164.736304 
L 382.423652 -164.736304 
L 381.010636 -164.736304 
L 379.59762 -164.736304 
L 378.184604 -164.736304 
L 376.771588 -164.736304 
L 375.358572 -164.736304 
L 373.945556 -164.736304 
L 372.53254 -164.736304 
L 371.119524 -164.736304 
L 369.706508 -164.736304 
L 368.293492 -164.736304 
L 366.880476 -164.736304 
L 365.46746 -164.736304 
L 364.054444 -164.736304 
L 362.641428 -164.736304 
L 361.228412 -164.736304 
L 359.815396 -164.736304 
L 358.40238 -164.736304 
L 356.989364 -164.736304 
L 355.576348 -164.736304 
L 354.163332 -164.736304 
L 352.750317 -164.736304 
L 351.337301 -164.736304 
L 349.924285 -164.736304 
L 348.511269 -164.736304 
L 347.098253 -164.736304 
L 345.685237 -164.736304 
L 344.272221 -164.736304 
L 342.859205 -164.736304 
L 341.446189 -164.736304 
L 340.033173 -164.736304 
L 338.620157 -164.736304 
L 337.207141 -164.736304 
L 335.794125 -164.736304 
L 334.381109 -164.736304 
L 332.968093 -164.736304 
L 331.555077 -164.736304 
L 330.142061 -164.736304 
L 328.729045 -164.736304 
L 327.316029 -164.736304 
L 325.903013 -164.736304 
L 324.489997 -164.736304 
L 323.076982 -164.736304 
L 321.663966 -164.736304 
L 320.25095 -164.736304 
L 318.837934 -164.736304 
L 317.424918 -164.736304 
L 316.011902 -164.736304 
L 314.598886 -164.736304 
L 313.18587 -164.736304 
L 311.772854 -164.736304 
L 310.359838 -164.736304 
L 308.946822 -164.736304 
L 307.533806 -164.736304 
L 306.12079 -164.736304 
L 304.707774 -164.736304 
L 303.294758 -168.124522 
L 301.881742 -168.124522 
L 300.468726 -168.124522 
L 299.05571 -168.124522 
L 297.642694 -168.124522 
L 296.229678 -168.124522 
L 294.816662 -216.021517 
L 293.403646 -216.021517 
L 291.990631 -216.021517 
L 290.577615 -216.021517 
L 289.164599 -216.021517 
L 287.751583 -217.57329 
L 286.338567 -217.57329 
L 284.925551 -217.57329 
L 283.512535 -217.57329 
L 282.099519 -217.57329 
L 280.686503 -217.57329 
L 279.273487 -217.57329 
L 277.860471 -217.57329 
L 276.447455 -217.57329 
L 275.034439 -217.57329 
L 273.621423 -217.57329 
L 272.208407 -217.57329 
L 270.795391 -217.57329 
L 269.382375 -217.57329 
L 267.969359 -217.57329 
L 266.556343 -217.57329 
L 265.143327 -217.57329 
L 263.730311 -217.57329 
L 262.317296 -217.57329 
L 260.90428 -217.57329 
L 259.491264 -217.57329 
L 258.078248 -217.57329 
L 256.665232 -217.57329 
L 255.252216 -217.57329 
L 253.8392 -217.57329 
L 252.426184 -217.57329 
L 251.013168 -217.57329 
L 249.600152 -217.57329 
L 248.187136 -217.57329 
L 246.77412 -217.57329 
L 245.361104 -217.57329 
L 243.948088 -217.57329 
L 242.535072 -217.57329 
L 241.122056 -217.57329 
L 239.70904 -217.57329 
L 238.296024 -217.57329 
L 236.883008 -217.57329 
L 235.469992 -217.57329 
L 234.056976 -217.57329 
L 232.64396 -217.57329 
L 231.230945 -217.57329 
L 229.817929 -217.57329 
L 228.404913 -217.57329 
L 226.991897 -217.57329 
L 225.578881 -217.57329 
L 224.165865 -217.57329 
L 222.752849 -217.57329 
L 221.339833 -217.57329 
L 219.926817 -217.57329 
L 218.513801 -217.57329 
L 217.100785 -217.57329 
L 215.687769 -217.57329 
L 214.274753 -217.57329 
L 212.861737 -217.57329 
L 211.448721 -217.57329 
L 210.035705 -217.57329 
L 208.622689 -217.57329 
L 207.209673 -217.57329 
L 205.796657 -217.57329 
L 204.383641 -217.57329 
L 202.970625 -217.57329 
L 201.55761 -217.57329 
L 200.144594 -217.57329 
L 198.731578 -217.57329 
L 197.318562 -217.57329 
L 195.905546 -214.209579 
L 194.49253 -214.209579 
L 193.079514 -214.209579 
L 191.666498 -214.209579 
L 190.253482 -214.209579 
L 188.840466 -214.209579 
L 187.42745 -150.446564 
L 186.014434 -150.446564 
L 184.601418 -150.446564 
L 183.188402 -150.446564 
L 181.775386 -150.446564 
L 180.36237 -101.06968 
L 178.949354 -101.06968 
L 177.536338 -101.06968 
L 176.123322 -101.06968 
L 174.710306 -101.06968 
L 173.29729 -101.06968 
L 171.884274 -101.06968 
L 170.471259 -101.06968 
L 169.058243 -101.06968 
L 167.645227 -101.06968 
L 166.232211 -101.06968 
L 164.819195 -101.06968 
L 163.406179 -101.06968 
L 161.993163 -101.06968 
L 160.580147 -101.06968 
L 159.167131 -101.06968 
L 157.754115 -101.06968 
L 156.341099 -101.06968 
L 154.928083 -101.06968 
L 153.515067 -101.06968 
L 152.102051 -101.06968 
L 150.689035 -101.06968 
L 149.276019 -101.06968 
L 147.863003 -101.06968 
L 146.449987 -101.06968 
L 145.036971 -101.06968 
L 143.623955 -101.06968 
L 142.210939 -101.06968 
L 140.797924 -101.06968 
L 139.384908 -101.06968 
L 137.971892 -101.06968 
L 136.558876 -101.06968 
L 135.14586 -101.06968 
L 133.732844 -101.06968 
L 132.319828 -101.06968 
L 130.906812 -101.06968 
L 129.493796 -101.06968 
L 128.08078 -101.06968 
L 126.667764 -101.06968 
L 125.254748 -101.06968 
L 123.841732 -101.06968 
L 122.428716 -101.06968 
L 121.0157 -101.06968 
L 119.602684 -101.06968 
L 118.189668 -101.06968 
L 116.776652 -101.06968 
L 115.363636 -101.06968 
z
" style="stroke: #482475; stroke-opacity: 0.2"/>
    </defs>
    <g clip-path="url(#pf6b0f03872)">
     <use xlink:href="#m66c3d866d3" x="0" y="360" style="fill: #482475; fill-opacity: 0.2; stroke: #482475; stroke-opacity: 0.2"/>
    </g>
   </g>
   <g id="PolyCollection_2">
    <defs>
     <path id="mef563e8564" d="M 115.363636 -116.694348 
L 115.363636 -133.68906 
L 116.776652 -133.68906 
L 118.189668 -133.68906 
L 119.602684 -134.66109 
L 121.0157 -134.66109 
L 122.428716 -134.66109 
L 123.841732 -134.66109 
L 125.254748 -134.66109 
L 126.667764 -134.66109 
L 128.08078 -134.66109 
L 129.493796 -134.66109 
L 130.906812 -134.66109 
L 132.319828 -134.66109 
L 133.732844 -134.66109 
L 135.14586 -134.66109 
L 136.558876 -134.66109 
L 137.971892 -134.66109 
L 139.384908 -134.66109 
L 140.797924 -134.66109 
L 142.210939 -134.66109 
L 143.623955 -134.66109 
L 145.036971 -134.66109 
L 146.449987 -134.66109 
L 147.863003 -134.66109 
L 149.276019 -134.66109 
L 150.689035 -134.66109 
L 152.102051 -134.66109 
L 153.515067 -134.66109 
L 154.928083 -134.66109 
L 156.341099 -134.66109 
L 157.754115 -134.66109 
L 159.167131 -134.66109 
L 160.580147 -134.66109 
L 161.993163 -134.66109 
L 163.406179 -134.66109 
L 164.819195 -134.66109 
L 166.232211 -134.66109 
L 167.645227 -134.66109 
L 169.058243 -134.66109 
L 170.471259 -134.66109 
L 171.884274 -134.66109 
L 173.29729 -134.66109 
L 174.710306 -134.66109 
L 176.123322 -134.66109 
L 177.536338 -134.66109 
L 178.949354 -134.66109 
L 180.36237 -134.66109 
L 181.775386 -203.158597 
L 183.188402 -203.158597 
L 184.601418 -203.158597 
L 186.014434 -203.158597 
L 187.42745 -203.158597 
L 188.840466 -271.466138 
L 190.253482 -271.466138 
L 191.666498 -271.466138 
L 193.079514 -271.466138 
L 194.49253 -271.466138 
L 195.905546 -271.466138 
L 197.318562 -275.019561 
L 198.731578 -275.019561 
L 200.144594 -275.019561 
L 201.55761 -275.019561 
L 202.970625 -275.019561 
L 204.383641 -275.019561 
L 205.796657 -275.019561 
L 207.209673 -275.019561 
L 208.622689 -275.019561 
L 210.035705 -275.019561 
L 211.448721 -275.019561 
L 212.861737 -275.019561 
L 214.274753 -275.019561 
L 215.687769 -275.019561 
L 217.100785 -275.019561 
L 218.513801 -275.019561 
L 219.926817 -274.837992 
L 221.339833 -274.837992 
L 222.752849 -274.837992 
L 224.165865 -274.837992 
L 225.578881 -274.837992 
L 226.991897 -275.019561 
L 228.404913 -275.019561 
L 229.817929 -275.019561 
L 231.230945 -275.019561 
L 232.64396 -275.019561 
L 234.056976 -275.019561 
L 235.469992 -275.019561 
L 236.883008 -275.019561 
L 238.296024 -275.019561 
L 239.70904 -275.019561 
L 241.122056 -275.019561 
L 242.535072 -275.019561 
L 243.948088 -275.019561 
L 245.361104 -275.019561 
L 246.77412 -275.019561 
L 248.187136 -275.019561 
L 249.600152 -275.019561 
L 251.013168 -275.234891 
L 252.426184 -275.234891 
L 253.8392 -275.234891 
L 255.252216 -275.234891 
L 256.665232 -275.234891 
L 258.078248 -275.019561 
L 259.491264 -275.019561 
L 260.90428 -275.019561 
L 262.317296 -275.019561 
L 263.730311 -275.019561 
L 265.143327 -275.019561 
L 266.556343 -275.019561 
L 267.969359 -275.019561 
L 269.382375 -275.019561 
L 270.795391 -275.019561 
L 272.208407 -275.019561 
L 273.621423 -275.019561 
L 275.034439 -275.019561 
L 276.447455 -275.019561 
L 277.860471 -275.019561 
L 279.273487 -275.019561 
L 280.686503 -275.019561 
L 282.099519 -275.019561 
L 283.512535 -275.019561 
L 284.925551 -275.019561 
L 286.338567 -275.019561 
L 287.751583 -275.019561 
L 289.164599 -275.019561 
L 290.577615 -275.019561 
L 291.990631 -275.019561 
L 293.403646 -275.019561 
L 294.816662 -275.019561 
L 296.229678 -272.370546 
L 297.642694 -272.370546 
L 299.05571 -272.370546 
L 300.468726 -272.370546 
L 301.881742 -272.370546 
L 303.294758 -272.370546 
L 304.707774 -254.36022 
L 306.12079 -254.36022 
L 307.533806 -254.36022 
L 308.946822 -254.36022 
L 310.359838 -254.36022 
L 311.772854 -220.78028 
L 313.18587 -220.78028 
L 314.598886 -220.78028 
L 316.011902 -220.78028 
L 317.424918 -220.78028 
L 318.837934 -220.78028 
L 320.25095 -215.688 
L 321.663966 -215.688 
L 323.076982 -215.688 
L 324.489997 -215.688 
L 325.903013 -215.688 
L 327.316029 -217.450695 
L 328.729045 -217.450695 
L 330.142061 -217.450695 
L 331.555077 -217.450695 
L 332.968093 -217.450695 
L 334.381109 -217.450695 
L 335.794125 -217.676515 
L 337.207141 -217.676515 
L 338.620157 -217.676515 
L 340.033173 -217.676515 
L 341.446189 -217.676515 
L 342.859205 -217.676515 
L 344.272221 -217.676515 
L 345.685237 -217.676515 
L 347.098253 -217.676515 
L 348.511269 -217.676515 
L 349.924285 -217.676515 
L 351.337301 -217.676515 
L 352.750317 -217.676515 
L 354.163332 -217.676515 
L 355.576348 -217.676515 
L 356.989364 -217.676515 
L 358.40238 -217.676515 
L 359.815396 -217.676515 
L 361.228412 -217.676515 
L 362.641428 -217.676515 
L 364.054444 -217.676515 
L 365.46746 -217.676515 
L 366.880476 -217.676515 
L 368.293492 -217.676515 
L 369.706508 -217.676515 
L 371.119524 -217.676515 
L 372.53254 -217.676515 
L 373.945556 -217.676515 
L 375.358572 -217.676515 
L 376.771588 -217.676515 
L 378.184604 -217.676515 
L 379.59762 -217.676515 
L 381.010636 -217.676515 
L 382.423652 -217.676515 
L 383.836668 -217.676515 
L 385.249683 -217.676515 
L 386.662699 -217.676515 
L 388.075715 -217.676515 
L 389.488731 -217.676515 
L 390.901747 -217.676515 
L 392.314763 -217.676515 
L 393.727779 -217.676515 
L 395.140795 -217.676515 
L 396.553811 -217.676515 
L 397.966827 -217.676515 
L 399.379843 -217.676515 
L 400.792859 -217.676515 
L 402.205875 -217.676515 
L 403.618891 -277.08176 
L 405.031907 -277.08176 
L 406.444923 -277.08176 
L 407.857939 -277.08176 
L 409.270955 -277.08176 
L 410.683971 -277.08176 
L 412.096987 -296.934362 
L 413.510003 -296.934362 
L 414.923018 -296.934362 
L 416.336034 -296.934362 
L 417.74905 -296.934362 
L 419.162066 -301.341379 
L 420.575082 -301.341379 
L 421.988098 -301.341379 
L 423.401114 -301.341379 
L 424.81413 -301.341379 
L 426.227146 -301.341379 
L 427.640162 -301.341379 
L 429.053178 -301.341379 
L 430.466194 -301.341379 
L 431.87921 -301.341379 
L 433.292226 -301.341379 
L 434.705242 -301.341379 
L 436.118258 -301.341379 
L 437.531274 -301.341379 
L 438.94429 -301.341379 
L 440.357306 -301.341379 
L 441.770322 -301.341379 
L 443.183338 -301.341379 
L 444.596354 -301.341379 
L 446.009369 -301.341379 
L 447.422385 -301.341379 
L 448.835401 -301.341379 
L 450.248417 -300.593229 
L 451.661433 -300.593229 
L 453.074449 -300.593229 
L 454.487465 -300.593229 
L 455.900481 -300.593229 
L 457.313497 -300.593229 
L 458.726513 -301.341379 
L 460.139529 -301.341379 
L 461.552545 -301.341379 
L 462.965561 -301.341379 
L 464.378577 -301.341379 
L 465.791593 -301.341379 
L 467.204609 -301.341379 
L 468.617625 -301.341379 
L 470.030641 -301.341379 
L 471.443657 -301.341379 
L 472.856673 -301.341379 
L 474.269689 -301.341379 
L 475.682704 -301.341379 
L 477.09572 -301.341379 
L 478.508736 -301.341379 
L 479.921752 -301.341379 
L 481.334768 -301.341379 
L 482.747784 -301.341379 
L 484.1608 -301.341379 
L 485.573816 -301.341379 
L 486.986832 -301.341379 
L 488.399848 -301.341379 
L 489.812864 -301.341379 
L 491.22588 -301.341379 
L 492.638896 -301.341379 
L 494.051912 -301.341379 
L 495.464928 -301.341379 
L 496.877944 -301.341379 
L 498.29096 -301.341379 
L 499.703976 -301.341379 
L 501.116992 -301.341379 
L 502.530008 -301.341379 
L 503.943024 -301.341379 
L 505.35604 -301.341379 
L 506.769055 -301.341379 
L 508.182071 -301.341379 
L 509.595087 -301.341379 
L 511.008103 -301.341379 
L 512.421119 -299.056589 
L 513.834135 -299.056589 
L 515.247151 -299.056589 
L 516.660167 -299.056589 
L 518.073183 -299.056589 
L 519.486199 -276.93979 
L 520.899215 -276.93979 
L 522.312231 -276.93979 
L 523.725247 -276.93979 
L 525.138263 -276.93979 
L 526.551279 -276.93979 
L 527.964295 -286.323874 
L 529.377311 -286.323874 
L 530.790327 -286.323874 
L 532.203343 -286.323874 
L 533.616359 -286.323874 
L 535.029375 -288.174025 
L 536.44239 -288.174025 
L 537.855406 -288.174025 
L 539.268422 -288.174025 
L 540.681438 -288.174025 
L 542.094454 -290.769484 
L 543.50747 -290.769484 
L 544.920486 -290.769484 
L 546.333502 -290.769484 
L 547.746518 -290.769484 
L 549.159534 -290.769484 
L 550.57255 -291.458331 
L 551.985566 -291.458331 
L 553.398582 -291.458331 
L 554.811598 -291.458331 
L 556.224614 -291.458331 
L 557.63763 -291.458331 
L 559.050646 -291.458331 
L 560.463662 -291.458331 
L 561.876678 -291.458331 
L 563.289694 -291.458331 
L 564.70271 -291.458331 
L 566.115726 -291.458331 
L 567.528741 -291.458331 
L 568.941757 -291.458331 
L 570.354773 -291.458331 
L 571.767789 -291.458331 
L 573.180805 -291.458331 
L 574.593821 -291.458331 
L 576.006837 -291.458331 
L 577.419853 -291.458331 
L 578.832869 -291.458331 
L 580.245885 -291.458331 
L 581.658901 -291.458331 
L 583.071917 -291.458331 
L 584.484933 -291.458331 
L 585.897949 -291.458331 
L 587.310965 -291.458331 
L 588.723981 -291.458331 
L 590.136997 -291.458331 
L 591.550013 -291.458331 
L 592.963029 -291.458331 
L 594.376045 -291.458331 
L 595.789061 -291.458331 
L 597.202076 -291.458331 
L 598.615092 -291.458331 
L 600.028108 -291.458331 
L 601.441124 -291.458331 
L 602.85414 -291.458331 
L 604.267156 -291.458331 
L 605.680172 -291.458331 
L 607.093188 -291.458331 
L 608.506204 -291.458331 
L 609.91922 -291.458331 
L 611.332236 -291.458331 
L 612.745252 -291.458331 
L 614.158268 -291.458331 
L 615.571284 -291.458331 
L 616.9843 -291.458331 
L 618.397316 -291.458331 
L 619.810332 -291.458331 
L 621.223348 -291.458331 
L 622.636364 -291.458331 
L 622.636364 -256.271973 
L 622.636364 -256.271973 
L 621.223348 -256.271973 
L 619.810332 -256.271973 
L 618.397316 -256.271973 
L 616.9843 -256.271973 
L 615.571284 -256.271973 
L 614.158268 -256.271973 
L 612.745252 -256.271973 
L 611.332236 -256.271973 
L 609.91922 -256.271973 
L 608.506204 -256.271973 
L 607.093188 -256.271973 
L 605.680172 -256.271973 
L 604.267156 -256.271973 
L 602.85414 -256.271973 
L 601.441124 -256.271973 
L 600.028108 -256.271973 
L 598.615092 -256.271973 
L 597.202076 -256.271973 
L 595.789061 -256.271973 
L 594.376045 -256.271973 
L 592.963029 -256.271973 
L 591.550013 -256.271973 
L 590.136997 -256.271973 
L 588.723981 -256.271973 
L 587.310965 -256.271973 
L 585.897949 -256.271973 
L 584.484933 -256.271973 
L 583.071917 -256.271973 
L 581.658901 -256.271973 
L 580.245885 -256.271973 
L 578.832869 -256.271973 
L 577.419853 -256.271973 
L 576.006837 -256.271973 
L 574.593821 -256.271973 
L 573.180805 -256.271973 
L 571.767789 -256.271973 
L 570.354773 -256.271973 
L 568.941757 -256.271973 
L 567.528741 -256.271973 
L 566.115726 -256.271973 
L 564.70271 -256.271973 
L 563.289694 -256.271973 
L 561.876678 -256.271973 
L 560.463662 -256.271973 
L 559.050646 -256.271973 
L 557.63763 -256.271973 
L 556.224614 -256.271973 
L 554.811598 -256.271973 
L 553.398582 -256.271973 
L 551.985566 -256.271973 
L 550.57255 -256.271973 
L 549.159534 -256.404836 
L 547.746518 -256.404836 
L 546.333502 -256.404836 
L 544.920486 -256.404836 
L 543.50747 -256.404836 
L 542.094454 -256.404836 
L 540.681438 -256.776887 
L 539.268422 -256.776887 
L 537.855406 -256.776887 
L 536.44239 -256.776887 
L 535.029375 -256.776887 
L 533.616359 -249.179534 
L 532.203343 -249.179534 
L 530.790327 -249.179534 
L 529.377311 -249.179534 
L 527.964295 -249.179534 
L 526.551279 -240.221954 
L 525.138263 -240.221954 
L 523.725247 -240.221954 
L 522.312231 -240.221954 
L 520.899215 -240.221954 
L 519.486199 -240.221954 
L 518.073183 -270.349699 
L 516.660167 -270.349699 
L 515.247151 -270.349699 
L 513.834135 -270.349699 
L 512.421119 -270.349699 
L 511.008103 -273.622637 
L 509.595087 -273.622637 
L 508.182071 -273.622637 
L 506.769055 -273.622637 
L 505.35604 -273.622637 
L 503.943024 -273.622637 
L 502.530008 -273.622637 
L 501.116992 -273.622637 
L 499.703976 -273.622637 
L 498.29096 -273.622637 
L 496.877944 -273.622637 
L 495.464928 -273.622637 
L 494.051912 -273.622637 
L 492.638896 -273.622637 
L 491.22588 -273.622637 
L 489.812864 -273.622637 
L 488.399848 -273.622637 
L 486.986832 -273.622637 
L 485.573816 -273.622637 
L 484.1608 -273.622637 
L 482.747784 -273.622637 
L 481.334768 -273.622637 
L 479.921752 -273.622637 
L 478.508736 -273.622637 
L 477.09572 -273.622637 
L 475.682704 -273.622637 
L 474.269689 -273.622637 
L 472.856673 -273.622637 
L 471.443657 -273.622637 
L 470.030641 -273.622637 
L 468.617625 -273.622637 
L 467.204609 -273.622637 
L 465.791593 -273.622637 
L 464.378577 -273.622637 
L 462.965561 -273.622637 
L 461.552545 -273.622637 
L 460.139529 -273.622637 
L 458.726513 -273.622637 
L 457.313497 -273.259347 
L 455.900481 -273.259347 
L 454.487465 -273.259347 
L 453.074449 -273.259347 
L 451.661433 -273.259347 
L 450.248417 -273.259347 
L 448.835401 -273.622637 
L 447.422385 -273.622637 
L 446.009369 -273.622637 
L 444.596354 -273.622637 
L 443.183338 -273.622637 
L 441.770322 -273.622637 
L 440.357306 -273.622637 
L 438.94429 -273.622637 
L 437.531274 -273.622637 
L 436.118258 -273.622637 
L 434.705242 -273.622637 
L 433.292226 -273.622637 
L 431.87921 -273.622637 
L 430.466194 -273.622637 
L 429.053178 -273.622637 
L 427.640162 -273.622637 
L 426.227146 -273.622637 
L 424.81413 -273.622637 
L 423.401114 -273.622637 
L 421.988098 -273.622637 
L 420.575082 -273.622637 
L 419.162066 -273.622637 
L 417.74905 -270.80503 
L 416.336034 -270.80503 
L 414.923018 -270.80503 
L 413.510003 -270.80503 
L 412.096987 -270.80503 
L 410.683971 -242.859376 
L 409.270955 -242.859376 
L 407.857939 -242.859376 
L 406.444923 -242.859376 
L 405.031907 -242.859376 
L 403.618891 -242.859376 
L 402.205875 -192.217277 
L 400.792859 -192.217277 
L 399.379843 -192.217277 
L 397.966827 -192.217277 
L 396.553811 -192.217277 
L 395.140795 -192.217277 
L 393.727779 -192.217277 
L 392.314763 -192.217277 
L 390.901747 -192.217277 
L 389.488731 -192.217277 
L 388.075715 -192.217277 
L 386.662699 -192.217277 
L 385.249683 -192.217277 
L 383.836668 -192.217277 
L 382.423652 -192.217277 
L 381.010636 -192.217277 
L 379.59762 -192.217277 
L 378.184604 -192.217277 
L 376.771588 -192.217277 
L 375.358572 -192.217277 
L 373.945556 -192.217277 
L 372.53254 -192.217277 
L 371.119524 -192.217277 
L 369.706508 -192.217277 
L 368.293492 -192.217277 
L 366.880476 -192.217277 
L 365.46746 -192.217277 
L 364.054444 -192.217277 
L 362.641428 -192.217277 
L 361.228412 -192.217277 
L 359.815396 -192.217277 
L 358.40238 -192.217277 
L 356.989364 -192.217277 
L 355.576348 -192.217277 
L 354.163332 -192.217277 
L 352.750317 -192.217277 
L 351.337301 -192.217277 
L 349.924285 -192.217277 
L 348.511269 -192.217277 
L 347.098253 -192.217277 
L 345.685237 -192.217277 
L 344.272221 -192.217277 
L 342.859205 -192.217277 
L 341.446189 -192.217277 
L 340.033173 -192.217277 
L 338.620157 -192.217277 
L 337.207141 -192.217277 
L 335.794125 -192.217277 
L 334.381109 -191.887641 
L 332.968093 -191.887641 
L 331.555077 -191.887641 
L 330.142061 -191.887641 
L 328.729045 -191.887641 
L 327.316029 -191.887641 
L 325.903013 -190.872 
L 324.489997 -190.872 
L 323.076982 -190.872 
L 321.663966 -190.872 
L 320.25095 -190.872 
L 318.837934 -194.672296 
L 317.424918 -194.672296 
L 316.011902 -194.672296 
L 314.598886 -194.672296 
L 313.18587 -194.672296 
L 311.772854 -194.672296 
L 310.359838 -209.446068 
L 308.946822 -209.446068 
L 307.533806 -209.446068 
L 306.12079 -209.446068 
L 304.707774 -209.446068 
L 303.294758 -237.566574 
L 301.881742 -237.566574 
L 300.468726 -237.566574 
L 299.05571 -237.566574 
L 297.642694 -237.566574 
L 296.229678 -237.566574 
L 294.816662 -238.252407 
L 293.403646 -238.252407 
L 291.990631 -238.252407 
L 290.577615 -238.252407 
L 289.164599 -238.252407 
L 287.751583 -238.252407 
L 286.338567 -238.252407 
L 284.925551 -238.252407 
L 283.512535 -238.252407 
L 282.099519 -238.252407 
L 280.686503 -238.252407 
L 279.273487 -238.252407 
L 277.860471 -238.252407 
L 276.447455 -238.252407 
L 275.034439 -238.252407 
L 273.621423 -238.252407 
L 272.208407 -238.252407 
L 270.795391 -238.252407 
L 269.382375 -238.252407 
L 267.969359 -238.252407 
L 266.556343 -238.252407 
L 265.143327 -238.252407 
L 263.730311 -238.252407 
L 262.317296 -238.252407 
L 260.90428 -238.252407 
L 259.491264 -238.252407 
L 258.078248 -238.252407 
L 256.665232 -238.593061 
L 255.252216 -238.593061 
L 253.8392 -238.593061 
L 252.426184 -238.593061 
L 251.013168 -238.593061 
L 249.600152 -238.252407 
L 248.187136 -238.252407 
L 246.77412 -238.252407 
L 245.361104 -238.252407 
L 243.948088 -238.252407 
L 242.535072 -238.252407 
L 241.122056 -238.252407 
L 239.70904 -238.252407 
L 238.296024 -238.252407 
L 236.883008 -238.252407 
L 235.469992 -238.252407 
L 234.056976 -238.252407 
L 232.64396 -238.252407 
L 231.230945 -238.252407 
L 229.817929 -238.252407 
L 228.404913 -238.252407 
L 226.991897 -238.252407 
L 225.578881 -237.877992 
L 224.165865 -237.877992 
L 222.752849 -237.877992 
L 221.339833 -237.877992 
L 219.926817 -237.877992 
L 218.513801 -238.252407 
L 217.100785 -238.252407 
L 215.687769 -238.252407 
L 214.274753 -238.252407 
L 212.861737 -238.252407 
L 211.448721 -238.252407 
L 210.035705 -238.252407 
L 208.622689 -238.252407 
L 207.209673 -238.252407 
L 205.796657 -238.252407 
L 204.383641 -238.252407 
L 202.970625 -238.252407 
L 201.55761 -238.252407 
L 200.144594 -238.252407 
L 198.731578 -238.252407 
L 197.318562 -238.252407 
L 195.905546 -236.248102 
L 194.49253 -236.248102 
L 193.079514 -236.248102 
L 191.666498 -236.248102 
L 190.253482 -236.248102 
L 188.840466 -236.248102 
L 187.42745 -170.610491 
L 186.014434 -170.610491 
L 184.601418 -170.610491 
L 183.188402 -170.610491 
L 181.775386 -170.610491 
L 180.36237 -116.833758 
L 178.949354 -116.833758 
L 177.536338 -116.833758 
L 176.123322 -116.833758 
L 174.710306 -116.833758 
L 173.29729 -116.833758 
L 171.884274 -116.833758 
L 170.471259 -116.833758 
L 169.058243 -116.833758 
L 167.645227 -116.833758 
L 166.232211 -116.833758 
L 164.819195 -116.833758 
L 163.406179 -116.833758 
L 161.993163 -116.833758 
L 160.580147 -116.833758 
L 159.167131 -116.833758 
L 157.754115 -116.833758 
L 156.341099 -116.833758 
L 154.928083 -116.833758 
L 153.515067 -116.833758 
L 152.102051 -116.833758 
L 150.689035 -116.833758 
L 149.276019 -116.833758 
L 147.863003 -116.833758 
L 146.449987 -116.833758 
L 145.036971 -116.833758 
L 143.623955 -116.833758 
L 142.210939 -116.833758 
L 140.797924 -116.833758 
L 139.384908 -116.833758 
L 137.971892 -116.833758 
L 136.558876 -116.833758 
L 135.14586 -116.833758 
L 133.732844 -116.833758 
L 132.319828 -116.833758 
L 130.906812 -116.833758 
L 129.493796 -116.833758 
L 128.08078 -116.833758 
L 126.667764 -116.833758 
L 125.254748 -116.833758 
L 123.841732 -116.833758 
L 122.428716 -116.833758 
L 121.0157 -116.833758 
L 119.602684 -116.833758 
L 118.189668 -116.694348 
L 116.776652 -116.694348 
L 115.363636 -116.694348 
z
" style="stroke: #bddf26; stroke-opacity: 0.2"/>
    </defs>
    <g clip-path="url(#pf6b0f03872)">
     <use xlink:href="#mef563e8564" x="0" y="360" style="fill: #bddf26; fill-opacity: 0.2; stroke: #bddf26; stroke-opacity: 0.2"/>
    </g>
   </g>
   <g id="matplotlib.axis_1">
    <g id="xtick_1">
     <g id="line2d_1">
      <defs>
       <path id="me7b2db9301" d="M 0 0 
L 0 3.5 
" style="stroke: #000000; stroke-width: 0.8"/>
      </defs>
      <g>
       <use xlink:href="#me7b2db9301" x="146.107438" y="320.4" style="stroke: #000000; stroke-width: 0.8"/>
      </g>
     </g>
     <g id="text_1">
      <!-- $\mathdefault{100}$ -->
      <g transform="translate(135.498905 337.431808) scale(0.145 -0.145)">
       <defs>
        <path id="CMR17-31" d="M 1702 4058 
C 1702 4192 1696 4192 1606 4192 
C 1357 3916 979 3827 621 3827 
C 602 3827 570 3827 563 3808 
C 557 3795 557 3782 557 3648 
C 755 3648 1088 3686 1344 3839 
L 1344 461 
C 1344 236 1331 160 781 160 
L 589 160 
L 589 0 
C 896 0 1216 0 1523 0 
C 1830 0 2150 0 2458 0 
L 2458 160 
L 2266 160 
C 1715 160 1702 230 1702 458 
L 1702 4058 
z
" transform="scale(0.015625)"/>
        <path id="CMR17-30" d="M 2688 2025 
C 2688 2416 2682 3080 2413 3591 
C 2176 4039 1798 4198 1466 4198 
C 1158 4198 768 4058 525 3597 
C 269 3118 243 2524 243 2025 
C 243 1661 250 1106 448 619 
C 723 -39 1216 -128 1466 -128 
C 1760 -128 2208 -7 2470 600 
C 2662 1042 2688 1559 2688 2025 
z
M 1466 -26 
C 1056 -26 813 325 723 812 
C 653 1188 653 1738 653 2096 
C 653 2588 653 2997 736 3387 
C 858 3929 1216 4096 1466 4096 
C 1728 4096 2067 3923 2189 3400 
C 2272 3036 2278 2607 2278 2096 
C 2278 1680 2278 1169 2202 792 
C 2067 95 1690 -26 1466 -26 
z
" transform="scale(0.015625)"/>
       </defs>
       <use xlink:href="#CMR17-31" transform="scale(0.996264)"/>
       <use xlink:href="#CMR17-30" transform="translate(45.690477 0) scale(0.996264)"/>
       <use xlink:href="#CMR17-30" transform="translate(91.380954 0) scale(0.996264)"/>
      </g>
     </g>
    </g>
    <g id="xtick_2">
     <g id="line2d_2">
      <g>
       <use xlink:href="#me7b2db9301" x="222.966942" y="320.4" style="stroke: #000000; stroke-width: 0.8"/>
      </g>
     </g>
     <g id="text_2">
      <!-- $\mathdefault{200}$ -->
      <g transform="translate(212.358409 337.431808) scale(0.145 -0.145)">
       <defs>
        <path id="CMR17-32" d="M 2669 989 
L 2554 989 
C 2490 536 2438 459 2413 420 
C 2381 369 1920 369 1830 369 
L 602 369 
C 832 619 1280 1072 1824 1597 
C 2214 1967 2669 2402 2669 3035 
C 2669 3790 2067 4224 1395 4224 
C 691 4224 262 3604 262 3030 
C 262 2780 448 2748 525 2748 
C 589 2748 781 2787 781 3010 
C 781 3207 614 3264 525 3264 
C 486 3264 448 3258 422 3245 
C 544 3790 915 4058 1306 4058 
C 1862 4058 2227 3617 2227 3035 
C 2227 2479 1901 2000 1536 1584 
L 262 146 
L 262 0 
L 2515 0 
L 2669 989 
z
" transform="scale(0.015625)"/>
       </defs>
       <use xlink:href="#CMR17-32" transform="scale(0.996264)"/>
       <use xlink:href="#CMR17-30" transform="translate(45.690477 0) scale(0.996264)"/>
       <use xlink:href="#CMR17-30" transform="translate(91.380954 0) scale(0.996264)"/>
      </g>
     </g>
    </g>
    <g id="xtick_3">
     <g id="line2d_3">
      <g>
       <use xlink:href="#me7b2db9301" x="299.826446" y="320.4" style="stroke: #000000; stroke-width: 0.8"/>
      </g>
     </g>
     <g id="text_3">
      <!-- $\mathdefault{300}$ -->
      <g transform="translate(289.217913 337.431808) scale(0.145 -0.145)">
       <defs>
        <path id="CMR17-33" d="M 1414 2157 
C 1984 2157 2234 1662 2234 1090 
C 2234 320 1824 25 1453 25 
C 1114 25 563 194 390 693 
C 422 680 454 680 486 680 
C 640 680 755 782 755 948 
C 755 1133 614 1216 486 1216 
C 378 1216 211 1165 211 926 
C 211 335 787 -128 1466 -128 
C 2176 -128 2720 430 2720 1085 
C 2720 1707 2208 2157 1600 2227 
C 2086 2328 2554 2756 2554 3329 
C 2554 3820 2048 4179 1472 4179 
C 890 4179 378 3829 378 3329 
C 378 3110 544 3072 627 3072 
C 762 3072 877 3155 877 3321 
C 877 3486 762 3569 627 3569 
C 602 3569 570 3569 544 3557 
C 730 3959 1235 4032 1459 4032 
C 1683 4032 2106 3925 2106 3320 
C 2106 3143 2080 2828 1862 2550 
C 1670 2304 1453 2304 1242 2284 
C 1210 2284 1062 2269 1037 2269 
C 992 2263 966 2257 966 2208 
C 966 2163 973 2157 1101 2157 
L 1414 2157 
z
" transform="scale(0.015625)"/>
       </defs>
       <use xlink:href="#CMR17-33" transform="scale(0.996264)"/>
       <use xlink:href="#CMR17-30" transform="translate(45.690477 0) scale(0.996264)"/>
       <use xlink:href="#CMR17-30" transform="translate(91.380954 0) scale(0.996264)"/>
      </g>
     </g>
    </g>
    <g id="xtick_4">
     <g id="line2d_4">
      <g>
       <use xlink:href="#me7b2db9301" x="376.68595" y="320.4" style="stroke: #000000; stroke-width: 0.8"/>
      </g>
     </g>
     <g id="text_4">
      <!-- $\mathdefault{400}$ -->
      <g transform="translate(366.077417 337.431808) scale(0.145 -0.145)">
       <defs>
        <path id="CMR17-34" d="M 2150 4122 
C 2150 4256 2144 4256 2029 4256 
L 128 1254 
L 128 1088 
L 1779 1088 
L 1779 457 
C 1779 224 1766 160 1318 160 
L 1197 160 
L 1197 0 
C 1402 0 1747 0 1965 0 
C 2182 0 2528 0 2733 0 
L 2733 160 
L 2611 160 
C 2163 160 2150 224 2150 457 
L 2150 1088 
L 2803 1088 
L 2803 1254 
L 2150 1254 
L 2150 4122 
z
M 1798 3703 
L 1798 1254 
L 256 1254 
L 1798 3703 
z
" transform="scale(0.015625)"/>
       </defs>
       <use xlink:href="#CMR17-34" transform="scale(0.996264)"/>
       <use xlink:href="#CMR17-30" transform="translate(45.690477 0) scale(0.996264)"/>
       <use xlink:href="#CMR17-30" transform="translate(91.380954 0) scale(0.996264)"/>
      </g>
     </g>
    </g>
    <g id="xtick_5">
     <g id="line2d_5">
      <g>
       <use xlink:href="#me7b2db9301" x="453.545455" y="320.4" style="stroke: #000000; stroke-width: 0.8"/>
      </g>
     </g>
     <g id="text_5">
      <!-- $\mathdefault{500}$ -->
      <g transform="translate(442.936921 337.431808) scale(0.145 -0.145)">
       <defs>
        <path id="CMR17-35" d="M 730 3692 
C 794 3666 1056 3584 1325 3584 
C 1920 3584 2246 3911 2432 4100 
C 2432 4157 2432 4192 2394 4192 
C 2387 4192 2374 4192 2323 4163 
C 2099 4058 1837 3973 1517 3973 
C 1325 3973 1037 3999 723 4139 
C 653 4171 640 4171 634 4171 
C 602 4171 595 4164 595 4037 
L 595 2203 
C 595 2089 595 2057 659 2057 
C 691 2057 704 2070 736 2114 
C 941 2401 1222 2522 1542 2522 
C 1766 2522 2246 2382 2246 1289 
C 2246 1085 2246 715 2054 421 
C 1894 159 1645 25 1370 25 
C 947 25 518 320 403 814 
C 429 807 480 795 506 795 
C 589 795 749 840 749 1038 
C 749 1210 627 1280 506 1280 
C 358 1280 262 1190 262 1011 
C 262 454 704 -128 1382 -128 
C 2042 -128 2669 440 2669 1264 
C 2669 2030 2170 2624 1549 2624 
C 1222 2624 947 2503 730 2274 
L 730 3692 
z
" transform="scale(0.015625)"/>
       </defs>
       <use xlink:href="#CMR17-35" transform="scale(0.996264)"/>
       <use xlink:href="#CMR17-30" transform="translate(45.690477 0) scale(0.996264)"/>
       <use xlink:href="#CMR17-30" transform="translate(91.380954 0) scale(0.996264)"/>
      </g>
     </g>
    </g>
    <g id="xtick_6">
     <g id="line2d_6">
      <g>
       <use xlink:href="#me7b2db9301" x="530.404959" y="320.4" style="stroke: #000000; stroke-width: 0.8"/>
      </g>
     </g>
     <g id="text_6">
      <!-- $\mathdefault{600}$ -->
      <g transform="translate(519.796425 337.431808) scale(0.145 -0.145)">
       <defs>
        <path id="CMR17-36" d="M 678 2176 
C 678 3690 1395 4032 1811 4032 
C 1946 4032 2272 4009 2400 3776 
C 2298 3776 2106 3776 2106 3553 
C 2106 3381 2246 3323 2336 3323 
C 2394 3323 2566 3348 2566 3560 
C 2566 3954 2246 4179 1805 4179 
C 1043 4179 243 3390 243 1984 
C 243 253 966 -128 1478 -128 
C 2099 -128 2688 427 2688 1283 
C 2688 2081 2170 2662 1517 2662 
C 1126 2662 838 2407 678 1960 
L 678 2176 
z
M 1478 25 
C 691 25 691 1200 691 1436 
C 691 1896 909 2560 1504 2560 
C 1613 2560 1926 2560 2138 2120 
C 2253 1870 2253 1609 2253 1289 
C 2253 944 2253 690 2118 434 
C 1978 171 1773 25 1478 25 
z
" transform="scale(0.015625)"/>
       </defs>
       <use xlink:href="#CMR17-36" transform="scale(0.996264)"/>
       <use xlink:href="#CMR17-30" transform="translate(45.690477 0) scale(0.996264)"/>
       <use xlink:href="#CMR17-30" transform="translate(91.380954 0) scale(0.996264)"/>
      </g>
     </g>
    </g>
    <g id="xtick_7">
     <g id="line2d_7">
      <g>
       <use xlink:href="#me7b2db9301" x="607.264463" y="320.4" style="stroke: #000000; stroke-width: 0.8"/>
      </g>
     </g>
     <g id="text_7">
      <!-- $\mathdefault{700}$ -->
      <g transform="translate(596.655929 337.431808) scale(0.145 -0.145)">
       <defs>
        <path id="CMR17-37" d="M 2886 3941 
L 2886 4081 
L 1382 4081 
C 634 4081 621 4165 595 4288 
L 480 4288 
L 294 3094 
L 410 3094 
C 429 3215 474 3540 550 3661 
C 589 3712 1062 3712 1171 3712 
L 2579 3712 
L 1869 2661 
C 1395 1954 1069 999 1069 165 
C 1069 89 1069 -128 1299 -128 
C 1530 -128 1530 89 1530 171 
L 1530 465 
C 1530 1508 1709 2196 2003 2636 
L 2886 3941 
z
" transform="scale(0.015625)"/>
       </defs>
       <use xlink:href="#CMR17-37" transform="scale(0.996264)"/>
       <use xlink:href="#CMR17-30" transform="translate(45.690477 0) scale(0.996264)"/>
       <use xlink:href="#CMR17-30" transform="translate(91.380954 0) scale(0.996264)"/>
      </g>
     </g>
    </g>
    <g id="text_8">
     <!-- time (s) -->
     <g transform="translate(345.477317 355.075073) scale(0.145 -0.145)">
      <defs>
       <path id="CMSS17-74" d="M 1069 2368 
L 1901 2368 
L 1901 2737 
L 1069 2737 
L 1069 3520 
L 614 3520 
L 614 2737 
L 109 2737 
L 109 2368 
L 602 2368 
L 602 749 
C 602 384 685 -64 1107 -64 
C 1427 -64 1722 25 2003 172 
L 1901 548 
C 1747 414 1562 337 1363 337 
C 1082 337 1069 696 1069 856 
L 1069 2368 
z
" transform="scale(0.015625)"/>
       <path id="CMSS17-69" d="M 979 4183 
L 442 4183 
L 442 3648 
L 979 3648 
L 979 4183 
z
M 947 2739 
L 474 2739 
L 474 0 
L 947 0 
L 947 2739 
z
" transform="scale(0.015625)"/>
       <path id="CMSS17-6d" d="M 4288 1877 
C 4288 2308 4179 2816 3462 2816 
C 2982 2816 2694 2516 2566 2331 
C 2451 2670 2182 2816 1798 2816 
C 1363 2816 1088 2568 941 2389 
L 941 2758 
L 474 2758 
L 474 0 
L 960 0 
L 960 1559 
C 960 1939 1101 2428 1555 2428 
C 2138 2428 2138 2016 2138 1829 
L 2138 0 
L 2624 0 
L 2624 1559 
C 2624 1939 2765 2428 3219 2428 
C 3802 2428 3802 2016 3802 1829 
L 3802 0 
L 4288 0 
L 4288 1877 
z
" transform="scale(0.015625)"/>
       <path id="CMSS17-65" d="M 2502 1377 
C 2502 1590 2490 2003 2285 2345 
C 2061 2713 1696 2816 1421 2816 
C 755 2816 192 2188 192 1375 
C 192 582 774 -64 1510 -64 
C 1798 -64 2150 19 2470 248 
C 2470 274 2458 414 2451 420 
C 2451 433 2432 630 2432 656 
C 2125 407 1773 325 1517 325 
C 1107 325 666 667 646 1377 
L 2502 1377 
z
M 698 1728 
C 781 2084 1062 2421 1421 2421 
C 1517 2421 1965 2421 2080 1728 
L 698 1728 
z
" transform="scale(0.015625)"/>
       <path id="CMSS17-28" d="M 1613 4768 
C 1267 4417 474 3601 474 1588 
C 474 -433 1267 -1243 1613 -1600 
L 2003 -1600 
C 1216 -784 960 357 960 1581 
C 960 2798 1203 3946 2003 4768 
L 1613 4768 
z
" transform="scale(0.015625)"/>
       <path id="CMSS17-73" d="M 2061 2627 
C 1683 2807 1389 2807 1197 2807 
C 742 2807 198 2648 198 2003 
C 198 1359 902 1218 1094 1179 
C 1389 1122 1715 1058 1715 740 
C 1715 337 1254 337 1171 337 
C 915 337 563 407 243 638 
L 166 210 
C 531 0 883 -64 1178 -64 
C 1965 -64 2163 416 2163 781 
C 2163 1094 1984 1305 1862 1401 
C 1651 1568 1574 1587 1050 1696 
C 960 1709 646 1779 646 2066 
C 646 2432 1050 2432 1139 2432 
C 1555 2432 1811 2303 1984 2208 
L 2061 2627 
z
" transform="scale(0.015625)"/>
       <path id="CMSS17-29" d="M 723 -1600 
C 1069 -1249 1862 -433 1862 1581 
C 1862 3601 1069 4411 723 4768 
L 333 4768 
C 1120 3952 1376 2811 1376 1588 
C 1376 370 1133 -778 333 -1600 
L 723 -1600 
z
" transform="scale(0.015625)"/>
      </defs>
      <use xlink:href="#CMSS17-74" transform="scale(0.996264)"/>
      <use xlink:href="#CMSS17-69" transform="translate(33.831567 0) scale(0.996264)"/>
      <use xlink:href="#CMSS17-6d" transform="translate(56.01229 0) scale(0.996264)"/>
      <use xlink:href="#CMSS17-65" transform="translate(130.241544 0) scale(0.996264)"/>
      <use xlink:href="#CMSS17-28" transform="translate(203.109479 0) scale(0.996264)"/>
      <use xlink:href="#CMSS17-73" transform="translate(239.543393 0) scale(0.996264)"/>
      <use xlink:href="#CMSS17-29" transform="translate(275.456935 0) scale(0.996264)"/>
     </g>
    </g>
   </g>
   <g id="matplotlib.axis_2">
    <g id="ytick_1">
     <g id="line2d_8">
      <path d="M 90 320.4 
L 648 320.4 
" clip-path="url(#pf6b0f03872)" style="fill: none; stroke-dasharray: 1.85,0.8; stroke-dashoffset: 0; stroke: #808080; stroke-width: 0.5"/>
     </g>
     <g id="line2d_9">
      <defs>
       <path id="m32f60d07a0" d="M 0 0 
L -3.5 0 
" style="stroke: #000000; stroke-width: 0.8"/>
      </defs>
      <g>
       <use xlink:href="#m32f60d07a0" x="90" y="320.4" style="stroke: #000000; stroke-width: 0.8"/>
      </g>
     </g>
     <g id="text_9">
      <!-- $\mathdefault{0.0}$ -->
      <g transform="translate(64.926206 325.415904) scale(0.145 -0.145)">
       <defs>
        <path id="CMMI12-3a" d="M 1178 307 
C 1178 492 1024 619 870 619 
C 685 619 557 466 557 313 
C 557 128 710 0 864 0 
C 1050 0 1178 153 1178 307 
z
" transform="scale(0.015625)"/>
       </defs>
       <use xlink:href="#CMR17-30" transform="scale(0.996264)"/>
       <use xlink:href="#CMMI12-3a" transform="translate(45.690477 0) scale(0.996264)"/>
       <use xlink:href="#CMR17-30" transform="translate(72.787654 0) scale(0.996264)"/>
      </g>
     </g>
    </g>
    <g id="ytick_2">
     <g id="line2d_10">
      <path d="M 90 267.6 
L 648 267.6 
" clip-path="url(#pf6b0f03872)" style="fill: none; stroke-dasharray: 1.85,0.8; stroke-dashoffset: 0; stroke: #808080; stroke-width: 0.5"/>
     </g>
     <g id="line2d_11">
      <g>
       <use xlink:href="#m32f60d07a0" x="90" y="267.6" style="stroke: #000000; stroke-width: 0.8"/>
      </g>
     </g>
     <g id="text_10">
      <!-- $\mathdefault{0.2}$ -->
      <g transform="translate(64.926206 272.615904) scale(0.145 -0.145)">
       <use xlink:href="#CMR17-30" transform="scale(0.996264)"/>
       <use xlink:href="#CMMI12-3a" transform="translate(45.690477 0) scale(0.996264)"/>
       <use xlink:href="#CMR17-32" transform="translate(72.787654 0) scale(0.996264)"/>
      </g>
     </g>
    </g>
    <g id="ytick_3">
     <g id="line2d_12">
      <path d="M 90 214.8 
L 648 214.8 
" clip-path="url(#pf6b0f03872)" style="fill: none; stroke-dasharray: 1.85,0.8; stroke-dashoffset: 0; stroke: #808080; stroke-width: 0.5"/>
     </g>
     <g id="line2d_13">
      <g>
       <use xlink:href="#m32f60d07a0" x="90" y="214.8" style="stroke: #000000; stroke-width: 0.8"/>
      </g>
     </g>
     <g id="text_11">
      <!-- $\mathdefault{0.4}$ -->
      <g transform="translate(64.926206 219.815904) scale(0.145 -0.145)">
       <use xlink:href="#CMR17-30" transform="scale(0.996264)"/>
       <use xlink:href="#CMMI12-3a" transform="translate(45.690477 0) scale(0.996264)"/>
       <use xlink:href="#CMR17-34" transform="translate(72.787654 0) scale(0.996264)"/>
      </g>
     </g>
    </g>
    <g id="ytick_4">
     <g id="line2d_14">
      <path d="M 90 162 
L 648 162 
" clip-path="url(#pf6b0f03872)" style="fill: none; stroke-dasharray: 1.85,0.8; stroke-dashoffset: 0; stroke: #808080; stroke-width: 0.5"/>
     </g>
     <g id="line2d_15">
      <g>
       <use xlink:href="#m32f60d07a0" x="90" y="162" style="stroke: #000000; stroke-width: 0.8"/>
      </g>
     </g>
     <g id="text_12">
      <!-- $\mathdefault{0.6}$ -->
      <g transform="translate(64.926206 167.015904) scale(0.145 -0.145)">
       <use xlink:href="#CMR17-30" transform="scale(0.996264)"/>
       <use xlink:href="#CMMI12-3a" transform="translate(45.690477 0) scale(0.996264)"/>
       <use xlink:href="#CMR17-36" transform="translate(72.787654 0) scale(0.996264)"/>
      </g>
     </g>
    </g>
    <g id="ytick_5">
     <g id="line2d_16">
      <path d="M 90 109.2 
L 648 109.2 
" clip-path="url(#pf6b0f03872)" style="fill: none; stroke-dasharray: 1.85,0.8; stroke-dashoffset: 0; stroke: #808080; stroke-width: 0.5"/>
     </g>
     <g id="line2d_17">
      <g>
       <use xlink:href="#m32f60d07a0" x="90" y="109.2" style="stroke: #000000; stroke-width: 0.8"/>
      </g>
     </g>
     <g id="text_13">
      <!-- $\mathdefault{0.8}$ -->
      <g transform="translate(64.926206 114.215904) scale(0.145 -0.145)">
       <defs>
        <path id="CMR17-38" d="M 1741 2264 
C 2144 2467 2554 2773 2554 3263 
C 2554 3841 1990 4179 1472 4179 
C 890 4179 378 3759 378 3180 
C 378 3021 416 2747 666 2505 
C 730 2442 998 2251 1171 2130 
C 883 1983 211 1634 211 934 
C 211 279 838 -128 1459 -128 
C 2144 -128 2720 362 2720 1010 
C 2720 1590 2330 1857 2074 2029 
L 1741 2264 
z
M 902 2822 
C 851 2854 595 3051 595 3351 
C 595 3739 998 4032 1459 4032 
C 1965 4032 2336 3676 2336 3262 
C 2336 2669 1670 2331 1638 2331 
C 1632 2331 1626 2331 1574 2370 
L 902 2822 
z
M 2080 1519 
C 2176 1449 2483 1240 2483 851 
C 2483 381 2010 25 1472 25 
C 890 25 448 438 448 940 
C 448 1443 838 1862 1280 2060 
L 2080 1519 
z
" transform="scale(0.015625)"/>
       </defs>
       <use xlink:href="#CMR17-30" transform="scale(0.996264)"/>
       <use xlink:href="#CMMI12-3a" transform="translate(45.690477 0) scale(0.996264)"/>
       <use xlink:href="#CMR17-38" transform="translate(72.787654 0) scale(0.996264)"/>
      </g>
     </g>
    </g>
    <g id="ytick_6">
     <g id="line2d_18">
      <path d="M 90 56.4 
L 648 56.4 
" clip-path="url(#pf6b0f03872)" style="fill: none; stroke-dasharray: 1.85,0.8; stroke-dashoffset: 0; stroke: #808080; stroke-width: 0.5"/>
     </g>
     <g id="line2d_19">
      <g>
       <use xlink:href="#m32f60d07a0" x="90" y="56.4" style="stroke: #000000; stroke-width: 0.8"/>
      </g>
     </g>
     <g id="text_14">
      <!-- $\mathdefault{1.0}$ -->
      <g transform="translate(64.926206 61.415904) scale(0.145 -0.145)">
       <use xlink:href="#CMR17-31" transform="scale(0.996264)"/>
       <use xlink:href="#CMMI12-3a" transform="translate(45.690477 0) scale(0.996264)"/>
       <use xlink:href="#CMR17-30" transform="translate(72.787654 0) scale(0.996264)"/>
      </g>
     </g>
    </g>
    <g id="text_15">
     <!-- QoS -->
     <g transform="translate(58.117312 194.481753) rotate(-90) scale(0.145 -0.145)">
      <defs>
       <path id="CMSS17-51" d="M 3200 202 
C 3981 833 4096 1689 4096 2174 
C 4096 3501 3219 4497 2214 4497 
C 1210 4497 333 3497 333 2178 
C 333 847 1222 -128 2214 -128 
C 2438 -128 2630 -77 2765 -26 
L 3302 -832 
L 3930 -832 
L 3200 202 
z
M 2528 324 
C 2438 293 2330 273 2214 273 
C 1523 273 858 993 858 2178 
C 858 3357 1517 4096 2214 4096 
C 2918 4096 3571 3350 3571 2178 
C 3571 1771 3507 1089 2950 566 
L 2490 1210 
L 1939 1210 
L 2528 324 
z
" transform="scale(0.015625)"/>
       <path id="CMSS17-6f" d="M 2829 1356 
C 2829 2176 2221 2816 1504 2816 
C 768 2816 173 2157 173 1356 
C 173 544 787 -64 1498 -64 
C 2227 -64 2829 563 2829 1356 
z
M 1504 337 
C 1050 337 659 709 659 1408 
C 659 2151 1114 2427 1498 2427 
C 1914 2427 2342 2126 2342 1408 
C 2342 683 1926 337 1504 337 
z
" transform="scale(0.015625)"/>
       <path id="CMSS17-53" d="M 2797 4169 
C 2515 4334 2208 4480 1690 4480 
C 864 4480 333 3879 333 3266 
C 333 3025 403 2753 653 2475 
C 902 2196 1184 2121 1542 2033 
C 1690 1994 1939 1924 1984 1906 
C 2342 1767 2515 1444 2515 1140 
C 2515 742 2202 318 1645 318 
C 1453 318 890 318 358 819 
L 269 318 
C 794 -64 1363 -128 1651 -128 
C 2438 -128 3002 488 3002 1186 
C 3002 1440 2925 1763 2656 2061 
C 2394 2347 2163 2410 1638 2549 
C 1338 2626 1146 2677 986 2873 
C 877 3013 819 3146 819 3317 
C 819 3673 1126 4060 1690 4060 
C 1971 4060 2336 4002 2707 3660 
L 2797 4169 
z
" transform="scale(0.015625)"/>
      </defs>
      <use xlink:href="#CMSS17-51" transform="scale(0.996264)"/>
      <use xlink:href="#CMSS17-6f" transform="translate(69.024255 0) scale(0.996264)"/>
      <use xlink:href="#CMSS17-53" transform="translate(115.867879 0) scale(0.996264)"/>
     </g>
    </g>
   </g>
   <g id="line2d_20">
    <path d="M 115.363636 246.480264 
L 180.36237 246.480264 
L 181.775386 187.566816 
L 187.42745 187.566816 
L 188.840466 120.593976 
L 195.905546 120.593976 
L 197.318562 118.09284 
L 287.751583 118.09284 
L 289.164599 118.926288 
L 294.816662 118.926288 
L 296.229678 171.726552 
L 303.294758 171.726552 
L 304.707774 175.339128 
L 402.205875 175.339128 
L 403.618891 106.420872 
L 410.683971 106.420872 
L 412.096987 81.132576 
L 426.227146 81.132312 
L 427.640162 79.74288 
L 511.008103 79.74288 
L 512.421119 80.854848 
L 518.073183 80.854848 
L 519.486199 94.749432 
L 526.551279 94.749432 
L 527.964295 95.861136 
L 622.636364 95.861136 
L 622.636364 95.861136 
" clip-path="url(#pf6b0f03872)" style="fill: none; stroke: #482475; stroke-width: 2.5; stroke-linecap: square"/>
   </g>
   <g id="line2d_21">
    <path d="M 115.363636 234.808296 
L 118.189668 234.808296 
L 119.602684 234.252576 
L 180.36237 234.252576 
L 181.775386 173.115456 
L 187.42745 173.115456 
L 188.840466 106.14288 
L 195.905546 106.14288 
L 197.318562 103.364016 
L 218.513801 103.364016 
L 219.926817 103.642008 
L 225.578881 103.642008 
L 226.991897 103.364016 
L 249.600152 103.364016 
L 251.013168 103.086024 
L 256.665232 103.086024 
L 258.078248 103.364016 
L 294.816662 103.364016 
L 296.229678 105.03144 
L 303.294758 105.03144 
L 304.707774 128.096856 
L 310.359838 128.096856 
L 311.772854 152.273712 
L 318.837934 152.273712 
L 320.25095 156.72 
L 325.903013 156.72 
L 327.316029 155.330832 
L 334.381109 155.330832 
L 335.794125 155.053104 
L 402.205875 155.053104 
L 403.618891 100.029432 
L 410.683971 100.029432 
L 412.096987 76.130304 
L 417.74905 76.130304 
L 419.162066 72.517992 
L 448.835401 72.517992 
L 450.248417 73.073712 
L 457.313497 73.073712 
L 458.726513 72.517992 
L 511.008103 72.517992 
L 512.421119 75.296856 
L 518.073183 75.296856 
L 519.486199 101.419128 
L 526.551279 101.419128 
L 527.964295 92.248296 
L 533.616359 92.248296 
L 535.029375 87.524544 
L 540.681438 87.524544 
L 542.094454 86.41284 
L 549.159534 86.41284 
L 550.57255 86.134848 
L 622.636364 86.134848 
L 622.636364 86.134848 
" clip-path="url(#pf6b0f03872)" style="fill: none; stroke: #bddf26; stroke-width: 2.5; stroke-linecap: square"/>
   </g>
   <g id="patch_3">
    <path d="M 90 320.4 
L 90 43.2 
" style="fill: none; stroke: #000000; stroke-width: 0.8; stroke-linejoin: miter; stroke-linecap: square"/>
   </g>
   <g id="patch_4">
    <path d="M 648 320.4 
L 648 43.2 
" style="fill: none; stroke: #000000; stroke-width: 0.8; stroke-linejoin: miter; stroke-linecap: square"/>
   </g>
   <g id="patch_5">
    <path d="M 90 320.4 
L 648 320.4 
" style="fill: none; stroke: #000000; stroke-width: 0.8; stroke-linejoin: miter; stroke-linecap: square"/>
   </g>
   <g id="text_16">
    <!-- $nt=Lobster$ $d=100$ $oc=3\%$ $l=dynamic$ -->
    <g transform="translate(204.700732 37.2) scale(0.18 -0.18)">
     <defs>
      <path id="CMMI12-6e" d="M 1318 1871 
C 1331 1910 1491 2229 1728 2433 
C 1894 2586 2112 2689 2362 2689 
C 2618 2689 2707 2497 2707 2242 
C 2707 1878 2445 1150 2317 805 
C 2259 651 2227 568 2227 453 
C 2227 166 2426 -64 2733 -64 
C 3328 -64 3552 875 3552 913 
C 3552 945 3526 971 3488 971 
C 3430 971 3424 952 3392 843 
C 3245 319 3002 64 2752 64 
C 2688 64 2586 64 2586 269 
C 2586 429 2656 621 2694 710 
C 2822 1063 3091 1780 3091 2145 
C 3091 2528 2867 2816 2381 2816 
C 1811 2816 1510 2415 1395 2255 
C 1376 2618 1114 2816 832 2816 
C 627 2816 486 2695 378 2478 
C 262 2248 173 1865 173 1839 
C 173 1814 198 1782 243 1782 
C 294 1782 301 1788 339 1935 
C 442 2325 557 2689 813 2689 
C 960 2689 1011 2586 1011 2395 
C 1011 2254 947 2005 902 1807 
L 723 1118 
C 698 996 627 709 595 594 
C 550 428 480 128 480 96 
C 480 6 550 -64 646 -64 
C 723 -64 813 -26 864 70 
C 877 102 934 326 966 453 
L 1107 1028 
L 1318 1871 
z
" transform="scale(0.015625)"/>
      <path id="CMMI12-74" d="M 1286 2566 
L 1875 2566 
C 1997 2566 2061 2566 2061 2681 
C 2061 2752 2022 2752 1894 2752 
L 1331 2752 
L 1568 3692 
C 1594 3781 1594 3794 1594 3840 
C 1594 3943 1510 4000 1427 4000 
C 1376 4000 1229 3981 1178 3775 
L 928 2752 
L 326 2752 
C 198 2752 141 2752 141 2630 
C 141 2566 186 2566 307 2566 
L 877 2566 
L 454 881 
C 403 658 384 594 384 511 
C 384 211 595 -64 954 -64 
C 1600 -64 1946 868 1946 912 
C 1946 951 1920 970 1882 970 
C 1869 970 1843 970 1830 944 
C 1824 938 1818 931 1773 829 
C 1638 511 1344 64 973 64 
C 781 64 768 224 768 364 
C 768 370 768 492 787 568 
L 1286 2566 
z
" transform="scale(0.015625)"/>
      <path id="CMR17-3d" d="M 4115 2017 
C 4211 2017 4307 2017 4307 2125 
C 4307 2240 4198 2240 4090 2240 
L 512 2240 
C 403 2240 294 2240 294 2125 
C 294 2017 390 2017 486 2017 
L 4115 2017 
z
M 4090 896 
C 4198 896 4307 896 4307 1011 
C 4307 1119 4211 1119 4115 1119 
L 486 1119 
C 390 1119 294 1119 294 1011 
C 294 896 403 896 512 896 
L 4090 896 
z
" transform="scale(0.015625)"/>
      <path id="CMMI12-4c" d="M 2349 3861 
C 2406 4103 2426 4167 2989 4167 
C 3162 4167 3206 4167 3206 4288 
C 3206 4352 3136 4352 3110 4352 
C 2982 4352 2835 4352 2707 4352 
L 1850 4352 
C 1728 4352 1587 4352 1466 4352 
C 1414 4352 1344 4352 1344 4231 
C 1344 4167 1402 4167 1498 4167 
C 1888 4167 1888 4116 1888 4046 
C 1888 4034 1888 3995 1862 3899 
L 998 472 
C 941 249 928 185 480 185 
C 358 185 294 185 294 70 
C 294 0 333 0 461 0 
L 3328 0 
C 3469 0 3475 6 3520 121 
L 4013 1478 
C 4026 1510 4038 1548 4038 1567 
C 4038 1605 4006 1631 3974 1631 
C 3968 1631 3936 1631 3923 1605 
C 3910 1599 3910 1586 3859 1465 
C 3654 905 3366 185 2285 185 
L 1670 185 
C 1581 185 1568 185 1530 192 
C 1459 198 1453 211 1453 262 
C 1453 307 1466 345 1478 401 
L 2349 3861 
z
" transform="scale(0.015625)"/>
      <path id="CMMI12-6f" d="M 2918 1756 
C 2918 2363 2522 2816 1939 2816 
C 1094 2816 262 1897 262 996 
C 262 390 659 -64 1242 -64 
C 2093 -64 2918 856 2918 1756 
z
M 1248 64 
C 928 64 691 319 691 766 
C 691 1060 845 1712 1024 2031 
C 1312 2523 1670 2689 1933 2689 
C 2246 2689 2490 2433 2490 1986 
C 2490 1731 2355 1047 2112 658 
C 1850 230 1498 64 1248 64 
z
" transform="scale(0.015625)"/>
      <path id="CMMI12-62" d="M 1478 4257 
C 1485 4283 1498 4321 1498 4352 
C 1498 4416 1434 4416 1421 4416 
C 1414 4416 1184 4393 1069 4377 
C 960 4377 864 4358 749 4358 
C 595 4345 550 4339 550 4224 
C 550 4160 614 4160 678 4160 
C 1005 4160 1005 4103 1005 4040 
C 1005 3996 954 3811 928 3696 
L 774 3085 
C 710 2831 346 1387 320 1272 
C 288 1114 288 1005 288 922 
C 288 274 653 -64 1069 -64 
C 1811 -64 2579 888 2579 1814 
C 2579 2401 2246 2816 1766 2816 
C 1434 2816 1133 2542 1011 2414 
L 1478 4257 
z
M 1075 64 
C 870 64 646 217 646 715 
C 646 926 666 1047 781 1494 
C 800 1577 902 1986 928 2069 
C 941 2120 1318 2689 1754 2689 
C 2035 2689 2163 2408 2163 2076 
C 2163 1769 1984 1047 1824 715 
C 1664 370 1370 64 1075 64 
z
" transform="scale(0.015625)"/>
      <path id="CMMI12-73" d="M 1459 1280 
C 1568 1261 1741 1223 1779 1216 
C 1862 1192 2150 1090 2150 783 
C 2150 586 1971 70 1229 70 
C 1094 70 614 70 486 436 
C 742 404 870 603 870 745 
C 870 880 781 950 653 950 
C 512 950 326 841 326 552 
C 326 173 710 -64 1222 -64 
C 2195 -64 2483 651 2483 984 
C 2483 1079 2483 1258 2278 1462 
C 2118 1616 1965 1648 1619 1718 
C 1446 1756 1171 1814 1171 2101 
C 1171 2229 1286 2689 1894 2689 
C 2163 2689 2426 2589 2490 2368 
C 2208 2368 2195 2125 2195 2119 
C 2195 1984 2317 1946 2374 1946 
C 2464 1946 2643 2015 2643 2281 
C 2643 2545 2400 2816 1901 2816 
C 1062 2816 838 2160 838 1899 
C 838 1414 1312 1312 1459 1280 
z
" transform="scale(0.015625)"/>
      <path id="CMMI12-65" d="M 1146 1479 
C 1318 1479 1754 1479 2061 1595 
C 2547 1783 2592 2158 2592 2274 
C 2592 2558 2349 2816 1926 2816 
C 1254 2816 288 2210 288 1073 
C 288 402 672 -64 1254 -64 
C 2125 -64 2675 609 2675 692 
C 2675 730 2637 762 2611 762 
C 2592 762 2586 756 2528 699 
C 2118 159 1510 64 1267 64 
C 902 64 710 350 710 822 
C 710 911 710 1071 806 1479 
L 1146 1479 
z
M 838 1600 
C 1114 2592 1722 2689 1926 2689 
C 2208 2689 2400 2522 2400 2277 
C 2400 1600 1376 1600 1107 1600 
L 838 1600 
z
" transform="scale(0.015625)"/>
      <path id="CMMI12-72" d="M 2490 2612 
C 2291 2574 2189 2433 2189 2293 
C 2189 2139 2310 2088 2400 2088 
C 2579 2088 2726 2242 2726 2433 
C 2726 2638 2528 2816 2208 2816 
C 1952 2816 1658 2701 1389 2312 
C 1344 2650 1088 2816 832 2816 
C 582 2816 454 2625 378 2484 
C 269 2254 173 1871 173 1839 
C 173 1814 198 1782 243 1782 
C 294 1782 301 1788 339 1935 
C 435 2318 557 2689 813 2689 
C 966 2689 1011 2580 1011 2395 
C 1011 2254 947 2005 902 1807 
L 723 1118 
C 698 996 627 709 595 594 
C 550 428 480 128 480 96 
C 480 6 550 -64 646 -64 
C 717 -64 838 -19 877 109 
C 896 160 1133 1124 1171 1271 
C 1203 1411 1242 1546 1274 1686 
C 1299 1775 1325 1878 1344 1961 
C 1363 2018 1536 2331 1696 2472 
C 1773 2542 1939 2689 2202 2689 
C 2304 2689 2406 2670 2490 2612 
z
" transform="scale(0.015625)"/>
      <path id="CMMI12-64" d="M 3219 4257 
C 3226 4282 3238 4320 3238 4352 
C 3238 4416 3174 4416 3162 4416 
C 3155 4416 2842 4388 2810 4380 
C 2701 4373 2605 4358 2490 4358 
C 2330 4345 2285 4339 2285 4224 
C 2285 4160 2336 4160 2426 4160 
C 2739 4160 2746 4103 2746 4040 
C 2746 4002 2733 3952 2726 3933 
L 2336 2395 
C 2266 2561 2093 2816 1760 2816 
C 1037 2816 256 1884 256 939 
C 256 307 627 -64 1062 -64 
C 1414 -64 1715 211 1894 422 
C 1958 45 2259 -64 2451 -64 
C 2643 -64 2797 51 2912 281 
C 3014 498 3104 888 3104 913 
C 3104 945 3078 971 3040 971 
C 2982 971 2976 939 2950 843 
C 2854 466 2733 64 2470 64 
C 2285 64 2272 229 2272 357 
C 2272 382 2272 515 2317 694 
L 3219 4257 
z
M 1926 760 
C 1894 651 1894 639 1805 517 
C 1664 338 1382 64 1082 64 
C 819 64 672 300 672 677 
C 672 1028 870 1743 992 2012 
C 1210 2459 1510 2689 1760 2689 
C 2182 2689 2266 2165 2266 2114 
C 2266 2108 2246 2024 2240 2012 
L 1926 760 
z
" transform="scale(0.015625)"/>
      <path id="CMMI12-63" d="M 2502 2431 
C 2381 2431 2323 2431 2234 2355 
C 2195 2323 2125 2227 2125 2125 
C 2125 1997 2221 1920 2342 1920 
C 2496 1920 2669 2044 2669 2292 
C 2669 2588 2374 2816 1933 2816 
C 1094 2816 256 1903 256 996 
C 256 441 602 -64 1254 -64 
C 2125 -64 2675 622 2675 706 
C 2675 744 2637 776 2611 776 
C 2592 776 2586 770 2528 713 
C 2118 162 1510 64 1267 64 
C 826 64 685 446 685 764 
C 685 988 794 1605 1024 2039 
C 1190 2338 1536 2682 1939 2682 
C 2022 2682 2374 2682 2502 2431 
z
" transform="scale(0.015625)"/>
      <path id="CMR17-25" d="M 4640 959 
C 4640 1698 4275 2240 3846 2240 
C 3411 2240 2970 1736 2970 959 
C 2970 183 3405 -320 3846 -320 
C 4275 -320 4640 215 4640 959 
z
M 3853 -218 
C 3686 -218 3270 -66 3270 959 
C 3270 1991 3686 2138 3853 2138 
C 4205 2138 4525 1634 4525 959 
C 4525 285 4205 -218 3853 -218 
z
M 4083 4577 
C 4128 4647 4134 4653 4134 4685 
C 4134 4761 4077 4800 4026 4800 
C 3962 4800 3936 4756 3891 4706 
C 3520 4190 3008 4134 2746 4134 
C 2106 4134 1715 4494 1594 4607 
C 1510 4682 1389 4800 1171 4800 
C 736 4800 294 4296 294 3519 
C 294 2743 730 2240 1171 2240 
C 1600 2240 1965 2778 1965 3527 
C 1965 3969 1830 4270 1811 4308 
C 2202 4064 2586 4032 2752 4032 
C 3162 4032 3456 4183 3616 4289 
L 3622 4283 
L 858 -84 
C 800 -174 800 -187 800 -206 
C 800 -276 858 -320 915 -320 
C 973 -320 992 -289 1037 -218 
L 4083 4577 
z
M 1178 2342 
C 1011 2342 595 2494 595 3519 
C 595 4551 1011 4698 1178 4698 
C 1530 4698 1850 4194 1850 3519 
C 1850 2845 1530 2342 1178 2342 
z
" transform="scale(0.015625)"/>
      <path id="CMMI12-6c" d="M 1626 4257 
C 1632 4282 1645 4320 1645 4352 
C 1645 4416 1581 4416 1568 4416 
C 1562 4416 1331 4393 1216 4377 
C 1107 4377 1011 4358 896 4358 
C 742 4345 698 4339 698 4224 
C 698 4160 762 4160 826 4160 
C 1152 4160 1152 4102 1152 4039 
C 1152 4014 1152 4001 1120 3887 
L 326 731 
C 307 661 294 610 294 509 
C 294 191 531 -64 858 -64 
C 1069 -64 1210 76 1312 274 
C 1421 483 1510 884 1510 909 
C 1510 941 1485 967 1446 967 
C 1389 967 1382 935 1357 840 
C 1242 401 1126 64 870 64 
C 678 64 678 267 678 357 
C 678 382 678 515 723 694 
L 1626 4257 
z
" transform="scale(0.015625)"/>
      <path id="CMMI12-79" d="M 1683 -700 
C 1510 -939 1261 -1152 947 -1152 
C 870 -1152 563 -1152 467 -889 
C 486 -895 518 -895 531 -895 
C 723 -895 851 -729 851 -582 
C 851 -435 730 -384 634 -384 
C 531 -384 307 -458 307 -759 
C 307 -1071 582 -1286 947 -1286 
C 1587 -1286 2234 -700 2413 6 
L 3040 2485 
C 3046 2517 3059 2556 3059 2594 
C 3059 2689 2982 2753 2886 2753 
C 2829 2753 2694 2727 2643 2535 
L 2170 658 
C 2138 543 2138 530 2086 460 
C 1958 281 1747 64 1440 64 
C 1082 64 1050 415 1050 588 
C 1050 952 1222 1443 1395 1903 
C 1466 2088 1504 2178 1504 2305 
C 1504 2574 1312 2816 998 2816 
C 410 2816 173 1890 173 1839 
C 173 1814 198 1782 243 1782 
C 301 1782 307 1807 333 1897 
C 486 2433 730 2689 979 2689 
C 1037 2689 1146 2689 1146 2478 
C 1146 2312 1075 2127 979 1884 
C 666 1047 666 837 666 683 
C 666 77 1101 -64 1421 -64 
C 1606 -64 1837 -6 2061 230 
L 2067 224 
C 1971 -147 1907 -392 1683 -700 
z
" transform="scale(0.015625)"/>
      <path id="CMMI12-61" d="M 1926 760 
C 1894 651 1894 639 1805 517 
C 1664 338 1382 64 1082 64 
C 819 64 672 300 672 677 
C 672 1028 870 1743 992 2012 
C 1210 2459 1510 2689 1760 2689 
C 2182 2689 2266 2165 2266 2114 
C 2266 2108 2246 2024 2240 2012 
L 1926 760 
z
M 2336 2395 
C 2266 2561 2093 2816 1760 2816 
C 1037 2816 256 1884 256 939 
C 256 307 627 -64 1062 -64 
C 1414 -64 1715 211 1894 422 
C 1958 45 2259 -64 2451 -64 
C 2643 -64 2797 51 2912 281 
C 3014 498 3104 888 3104 913 
C 3104 945 3078 971 3040 971 
C 2982 971 2976 939 2950 843 
C 2854 466 2733 64 2470 64 
C 2285 64 2272 230 2272 358 
C 2272 505 2291 575 2349 824 
C 2394 984 2426 1124 2477 1309 
C 2714 2267 2771 2497 2771 2535 
C 2771 2625 2701 2695 2605 2695 
C 2400 2695 2349 2472 2336 2395 
z
" transform="scale(0.015625)"/>
      <path id="CMMI12-6d" d="M 1318 1871 
C 1331 1910 1491 2229 1728 2433 
C 1894 2586 2112 2689 2362 2689 
C 2618 2689 2707 2497 2707 2242 
C 2707 2203 2707 2076 2630 1775 
L 2470 1118 
C 2419 926 2298 453 2285 383 
C 2259 287 2221 121 2221 96 
C 2221 6 2291 -64 2387 -64 
C 2579 -64 2611 83 2669 313 
L 3053 1839 
C 3066 1890 3398 2689 4102 2689 
C 4358 2689 4448 2497 4448 2242 
C 4448 1884 4198 1188 4058 805 
C 4000 651 3968 568 3968 453 
C 3968 166 4166 -64 4474 -64 
C 5069 -64 5293 875 5293 913 
C 5293 945 5267 971 5229 971 
C 5171 971 5165 952 5133 843 
C 4986 332 4749 64 4493 64 
C 4429 64 4326 64 4326 269 
C 4326 436 4403 640 4429 710 
C 4544 1018 4832 1773 4832 2145 
C 4832 2528 4608 2816 4122 2816 
C 3693 2816 3347 2574 3091 2197 
C 3072 2542 2861 2816 2381 2816 
C 1811 2816 1510 2415 1395 2255 
C 1376 2618 1114 2816 832 2816 
C 646 2816 499 2727 378 2484 
C 262 2254 173 1865 173 1839 
C 173 1814 198 1782 243 1782 
C 294 1782 301 1788 339 1935 
C 435 2312 557 2689 813 2689 
C 960 2689 1011 2586 1011 2395 
C 1011 2254 947 2005 902 1807 
L 723 1118 
C 698 996 627 709 595 594 
C 550 428 480 128 480 96 
C 480 6 550 -64 646 -64 
C 723 -64 813 -26 864 70 
C 877 102 934 326 966 453 
L 1107 1028 
L 1318 1871 
z
" transform="scale(0.015625)"/>
      <path id="CMMI12-69" d="M 1811 913 
C 1811 945 1786 971 1747 971 
C 1690 971 1683 952 1651 843 
C 1485 262 1222 64 1011 64 
C 934 64 845 83 845 275 
C 845 447 922 639 992 830 
L 1440 2018 
C 1459 2069 1504 2184 1504 2305 
C 1504 2574 1312 2816 998 2816 
C 410 2816 173 1890 173 1839 
C 173 1814 198 1782 243 1782 
C 301 1782 307 1807 333 1896 
C 486 2428 730 2682 979 2682 
C 1037 2682 1146 2682 1146 2478 
C 1146 2312 1062 2101 1011 1961 
L 563 773 
C 525 671 486 568 486 453 
C 486 166 685 -64 992 -64 
C 1581 -64 1811 869 1811 913 
z
M 1760 4013 
C 1760 4109 1683 4224 1542 4224 
C 1395 4224 1229 4083 1229 3917 
C 1229 3758 1363 3707 1440 3707 
C 1613 3707 1760 3873 1760 4013 
z
" transform="scale(0.015625)"/>
     </defs>
     <use xlink:href="#CMMI12-6e" transform="scale(0.996264)"/>
     <use xlink:href="#CMMI12-74" transform="translate(58.230047 0) scale(0.996264)"/>
     <use xlink:href="#CMR17-3d" transform="translate(121.130386 0) scale(0.996264)"/>
     <use xlink:href="#CMMI12-4c" transform="translate(220.519183 0) scale(0.996264)"/>
     <use xlink:href="#CMMI12-6f" transform="translate(286.890059 0) scale(0.996264)"/>
     <use xlink:href="#CMMI12-62" transform="translate(333.785368 0) scale(0.996264)"/>
     <use xlink:href="#CMMI12-73" transform="translate(375.261243 0) scale(0.996264)"/>
     <use xlink:href="#CMMI12-74" transform="translate(421.21129 0) scale(0.996264)"/>
     <use xlink:href="#CMMI12-65" transform="translate(456.43762 0) scale(0.996264)"/>
     <use xlink:href="#CMMI12-72" transform="translate(501.649621 0) scale(0.996264)"/>
     <use xlink:href="#CMMI12-64" transform="translate(579.549346 0) scale(0.996264)"/>
     <use xlink:href="#CMR17-3d" transform="translate(657.912452 0) scale(0.996264)"/>
     <use xlink:href="#CMR17-31" transform="translate(757.301249 0) scale(0.996264)"/>
     <use xlink:href="#CMR17-30" transform="translate(802.991726 0) scale(0.996264)"/>
     <use xlink:href="#CMR17-30" transform="translate(848.682203 0) scale(0.996264)"/>
     <use xlink:href="#CMMI12-6f" transform="translate(925.601793 0) scale(0.996264)"/>
     <use xlink:href="#CMMI12-63" transform="translate(972.497103 0) scale(0.996264)"/>
     <use xlink:href="#CMR17-3d" transform="translate(1042.154345 0) scale(0.996264)"/>
     <use xlink:href="#CMR17-33" transform="translate(1141.543142 0) scale(0.996264)"/>
     <use xlink:href="#CMR17-25" transform="translate(1187.233619 0) scale(0.996264)"/>
     <use xlink:href="#CMMI12-6c" transform="translate(1295.382322 0) scale(0.996264)"/>
     <use xlink:href="#CMR17-3d" transform="translate(1354.304734 0) scale(0.996264)"/>
     <use xlink:href="#CMMI12-64" transform="translate(1453.693531 0) scale(0.996264)"/>
     <use xlink:href="#CMMI12-79" transform="translate(1504.382628 0) scale(0.996264)"/>
     <use xlink:href="#CMMI12-6e" transform="translate(1555.521409 0) scale(0.996264)"/>
     <use xlink:href="#CMMI12-61" transform="translate(1613.751456 0) scale(0.996264)"/>
     <use xlink:href="#CMMI12-6d" transform="translate(1664.959314 0) scale(0.996264)"/>
     <use xlink:href="#CMMI12-69" transform="translate(1750.286538 0) scale(0.996264)"/>
     <use xlink:href="#CMMI12-63" transform="translate(1783.56514 0) scale(0.996264)"/>
    </g>
   </g>
  </g>
  <g id="axes_2">
   <g id="matplotlib.axis_3">
    <g id="ytick_7">
     <g id="line2d_22">
      <defs>
       <path id="m3e2f7f8d54" d="M 0 0 
L 3.5 0 
" style="stroke: #000000; stroke-width: 0.8"/>
      </defs>
      <g>
       <use xlink:href="#m3e2f7f8d54" x="648" y="320.4" style="stroke: #000000; stroke-width: 0.8"/>
      </g>
     </g>
     <g id="text_17">
      <!-- $\mathdefault{0}$ -->
      <g transform="translate(655 325.415904) scale(0.145 -0.145)">
       <use xlink:href="#CMR17-30" transform="scale(0.996264)"/>
      </g>
     </g>
    </g>
    <g id="ytick_8">
     <g id="line2d_23">
      <g>
       <use xlink:href="#m3e2f7f8d54" x="648" y="264.987706" style="stroke: #000000; stroke-width: 0.8"/>
      </g>
     </g>
     <g id="text_18">
      <!-- $\mathdefault{20}$ -->
      <g transform="translate(655 270.00361) scale(0.145 -0.145)">
       <use xlink:href="#CMR17-32" transform="scale(0.996264)"/>
       <use xlink:href="#CMR17-30" transform="translate(45.690477 0) scale(0.996264)"/>
      </g>
     </g>
    </g>
    <g id="ytick_9">
     <g id="line2d_24">
      <g>
       <use xlink:href="#m3e2f7f8d54" x="648" y="209.575412" style="stroke: #000000; stroke-width: 0.8"/>
      </g>
     </g>
     <g id="text_19">
      <!-- $\mathdefault{40}$ -->
      <g transform="translate(655 214.591316) scale(0.145 -0.145)">
       <use xlink:href="#CMR17-34" transform="scale(0.996264)"/>
       <use xlink:href="#CMR17-30" transform="translate(45.690477 0) scale(0.996264)"/>
      </g>
     </g>
    </g>
    <g id="ytick_10">
     <g id="line2d_25">
      <g>
       <use xlink:href="#m3e2f7f8d54" x="648" y="154.163118" style="stroke: #000000; stroke-width: 0.8"/>
      </g>
     </g>
     <g id="text_20">
      <!-- $\mathdefault{60}$ -->
      <g transform="translate(655 159.179023) scale(0.145 -0.145)">
       <use xlink:href="#CMR17-36" transform="scale(0.996264)"/>
       <use xlink:href="#CMR17-30" transform="translate(45.690477 0) scale(0.996264)"/>
      </g>
     </g>
    </g>
    <g id="ytick_11">
     <g id="line2d_26">
      <g>
       <use xlink:href="#m3e2f7f8d54" x="648" y="98.750825" style="stroke: #000000; stroke-width: 0.8"/>
      </g>
     </g>
     <g id="text_21">
      <!-- $\mathdefault{80}$ -->
      <g transform="translate(655 103.766729) scale(0.145 -0.145)">
       <use xlink:href="#CMR17-38" transform="scale(0.996264)"/>
       <use xlink:href="#CMR17-30" transform="translate(45.690477 0) scale(0.996264)"/>
      </g>
     </g>
    </g>
    <g id="ytick_12">
     <g id="line2d_27">
      <g>
       <use xlink:href="#m3e2f7f8d54" x="648" y="43.338531" style="stroke: #000000; stroke-width: 0.8"/>
      </g>
     </g>
     <g id="text_22">
      <!-- $\mathdefault{100}$ -->
      <g transform="translate(655 48.354435) scale(0.145 -0.145)">
       <use xlink:href="#CMR17-31" transform="scale(0.996264)"/>
       <use xlink:href="#CMR17-30" transform="translate(45.690477 0) scale(0.996264)"/>
       <use xlink:href="#CMR17-30" transform="translate(91.380954 0) scale(0.996264)"/>
      </g>
     </g>
    </g>
    <g id="text_23">
     <!-- CPU load in \% -->
     <g transform="translate(690.248875 226.102524) rotate(-90) scale(0.145 -0.145)">
      <defs>
       <path id="CMSS17-43" d="M 3501 714 
C 3072 427 2874 344 2355 344 
C 1459 344 934 1303 934 2179 
C 934 3112 1472 4032 2381 4032 
C 2790 4032 3059 3918 3386 3715 
L 3475 4217 
C 3168 4370 2778 4440 2387 4440 
C 1158 4440 397 3316 397 2179 
C 397 927 1299 -64 2323 -64 
C 2874 -64 3066 -19 3539 280 
L 3501 714 
z
" transform="scale(0.015625)"/>
       <path id="CMSS17-50" d="M 2106 1856 
C 2874 1856 3501 2453 3501 3158 
C 3501 3850 2899 4453 2067 4453 
L 570 4453 
L 570 0 
L 1107 0 
L 1107 1856 
L 2106 1856 
z
M 1926 4096 
C 2669 4096 2995 3627 2995 3157 
C 2995 2720 2694 2226 1926 2226 
L 1094 2226 
L 1094 4096 
L 1926 4096 
z
" transform="scale(0.015625)"/>
       <path id="CMSS17-55" d="M 3552 4384 
L 3066 4384 
L 3066 1449 
C 3066 604 2547 229 2074 229 
C 1587 229 1101 623 1101 1443 
L 1101 4384 
L 563 4384 
L 563 1454 
C 563 539 1274 -128 2067 -128 
C 2861 -128 3552 539 3552 1454 
L 3552 4384 
z
" transform="scale(0.015625)"/>
       <path id="CMSS17-6c" d="M 947 4416 
L 474 4416 
L 474 0 
L 947 0 
L 947 4416 
z
" transform="scale(0.015625)"/>
       <path id="CMSS17-61" d="M 2406 1791 
C 2406 2392 1978 2808 1402 2808 
C 1120 2808 813 2757 461 2553 
L 499 2135 
C 659 2248 934 2432 1395 2432 
C 1722 2432 1920 2180 1920 1782 
L 1920 1536 
C 896 1536 256 1238 256 726 
C 256 461 416 -64 947 -64 
C 1043 -64 1562 -64 1933 217 
L 1933 -19 
L 2406 -19 
L 2406 1791 
z
M 1920 816 
C 1920 701 1920 548 1728 434 
C 1562 325 1350 325 1261 325 
C 941 325 723 511 723 744 
C 723 1211 1722 1211 1920 1211 
L 1920 816 
z
" transform="scale(0.015625)"/>
       <path id="CMSS17-64" d="M 2611 4416 
L 2138 4416 
L 2138 2438 
C 1939 2603 1613 2756 1254 2756 
C 672 2756 211 2131 211 1347 
C 211 562 666 -64 1235 -64 
C 1677 -64 1971 172 2125 306 
L 2125 -13 
L 2611 -13 
L 2611 4416 
z
M 2125 836 
C 2125 747 2125 653 1926 482 
C 1798 375 1645 325 1498 325 
C 1152 325 698 576 698 1340 
C 698 2134 1210 2368 1562 2368 
C 1798 2368 1990 2254 2125 2065 
L 2125 836 
z
" transform="scale(0.015625)"/>
       <path id="CMSS17-6e" d="M 2618 1877 
C 2618 2283 2522 2816 1798 2816 
C 1389 2816 1120 2606 941 2389 
L 941 2758 
L 474 2758 
L 474 0 
L 960 0 
L 960 1559 
C 960 1964 1114 2428 1549 2428 
C 2112 2428 2131 2048 2131 1829 
L 2131 0 
L 2618 0 
L 2618 1877 
z
" transform="scale(0.015625)"/>
       <path id="CMSS17-25" d="M 3923 4583 
C 3962 4647 3962 4679 3962 4685 
C 3962 4755 3904 4800 3853 4800 
C 3782 4800 3750 4749 3718 4685 
L 1101 -104 
C 1088 -129 1062 -167 1062 -206 
C 1062 -276 1120 -320 1178 -320 
C 1235 -320 1248 -295 1299 -206 
L 3923 4583 
z
M 4678 959 
C 4678 1698 4282 2240 3846 2240 
C 3418 2240 3008 1711 3008 959 
C 3008 208 3418 -320 3846 -320 
C 4288 -320 4678 221 4678 959 
z
M 3846 68 
C 3712 68 3494 189 3494 959 
C 3494 1724 3712 1851 3846 1851 
C 4083 1851 4211 1386 4211 959 
C 4211 533 4083 68 3846 68 
z
M 2003 3519 
C 2003 4258 1606 4800 1171 4800 
C 742 4800 333 4271 333 3519 
C 333 2768 742 2240 1171 2240 
C 1613 2240 2003 2781 2003 3519 
z
M 1171 2628 
C 1037 2628 819 2749 819 3519 
C 819 4284 1037 4411 1171 4411 
C 1408 4411 1536 3946 1536 3519 
C 1536 3093 1408 2628 1171 2628 
z
" transform="scale(0.015625)"/>
      </defs>
      <use xlink:href="#CMSS17-43" transform="scale(0.996264)"/>
      <use xlink:href="#CMSS17-50" transform="translate(59.855772 0) scale(0.996264)"/>
      <use xlink:href="#CMSS17-55" transform="translate(119.591358 0) scale(0.996264)"/>
      <use xlink:href="#CMSS17-6c" transform="translate(214.960211 0) scale(0.996264)"/>
      <use xlink:href="#CMSS17-6f" transform="translate(237.140934 0) scale(0.996264)"/>
      <use xlink:href="#CMSS17-61" transform="translate(283.984557 0) scale(0.996264)"/>
      <use xlink:href="#CMSS17-64" transform="translate(328.906478 0) scale(0.996264)"/>
      <use xlink:href="#CMSS17-69" transform="translate(408.340534 0) scale(0.996264)"/>
      <use xlink:href="#CMSS17-6e" transform="translate(430.521257 0) scale(0.996264)"/>
      <use xlink:href="#CMSS17-25" transform="translate(509.955313 0) scale(0.996264)"/>
     </g>
    </g>
   </g>
   <g id="line2d_28">
    <path d="M 115.363636 99.002931 
L 180.36237 99.002931 
L 181.775386 209.701465 
L 287.751583 209.701465 
L 289.164599 162.088586 
L 294.816662 162.088586 
L 296.229678 154.352198 
L 402.205875 154.352198 
L 403.618891 265.050733 
L 511.008103 265.050733 
L 512.421119 237.376099 
L 622.636364 237.376099 
L 622.636364 237.376099 
" clip-path="url(#pf6b0f03872)" style="fill: none; stroke-dasharray: 5.55,2.4; stroke-dashoffset: 0; stroke: #140e36; stroke-width: 1.5"/>
   </g>
   <g id="patch_6">
    <path d="M 90 320.4 
L 90 43.2 
" style="fill: none; stroke: #000000; stroke-width: 0.8; stroke-linejoin: miter; stroke-linecap: square"/>
   </g>
   <g id="patch_7">
    <path d="M 648 320.4 
L 648 43.2 
" style="fill: none; stroke: #000000; stroke-width: 0.8; stroke-linejoin: miter; stroke-linecap: square"/>
   </g>
   <g id="patch_8">
    <path d="M 90 320.4 
L 648 320.4 
" style="fill: none; stroke: #000000; stroke-width: 0.8; stroke-linejoin: miter; stroke-linecap: square"/>
   </g>
   <g id="patch_9">
    <path d="M 90 43.2 
L 648 43.2 
" style="fill: none; stroke: #000000; stroke-width: 0.8; stroke-linejoin: miter; stroke-linecap: square"/>
   </g>
   <g id="legend_1">
    <g id="patch_10">
     <path d="M 481.7533 313.15 
L 637.85 313.15 
Q 640.75 313.15 640.75 310.25 
L 640.75 246.612516 
Q 640.75 243.712516 637.85 243.712516 
L 481.7533 243.712516 
Q 478.8533 243.712516 478.8533 246.612516 
L 478.8533 310.25 
Q 478.8533 313.15 481.7533 313.15 
z
" style="fill: #ffffff; opacity: 0.7; stroke: #cccccc; stroke-linejoin: miter"/>
    </g>
    <g id="line2d_29">
     <path d="M 484.6533 255.271887 
L 499.1533 255.271887 
L 513.6533 255.271887 
" style="fill: none; stroke: #482475; stroke-width: 2.5; stroke-linecap: square"/>
    </g>
    <g id="text_24">
     <!-- QoS [static] -->
     <g transform="translate(525.2533 260.346887) scale(0.145 -0.145)">
      <defs>
       <path id="CMSS17-5b" d="M 1613 -1600 
L 1613 -1212 
L 1062 -1212 
L 1062 4352 
L 1613 4352 
L 1613 4741 
L 595 4741 
L 595 -1600 
L 1613 -1600 
z
" transform="scale(0.015625)"/>
       <path id="CMSS17-63" d="M 2464 2541 
C 2464 2585 2170 2714 2093 2739 
C 1882 2816 1613 2816 1542 2816 
C 710 2816 211 2093 211 1363 
C 211 595 768 -64 1517 -64 
C 1946 -64 2253 76 2502 242 
L 2464 664 
C 2189 453 1869 337 1523 337 
C 1024 337 698 774 698 1369 
C 698 1831 909 2414 1549 2414 
C 1901 2414 2099 2343 2394 2145 
L 2464 2541 
z
" transform="scale(0.015625)"/>
       <path id="CMSS17-5d" d="M 1146 4741 
L 128 4741 
L 128 4352 
L 678 4352 
L 678 -1212 
L 128 -1212 
L 128 -1600 
L 1146 -1600 
L 1146 4741 
z
" transform="scale(0.015625)"/>
      </defs>
      <use xlink:href="#CMSS17-51" transform="scale(0.996264)"/>
      <use xlink:href="#CMSS17-6f" transform="translate(69.024255 0) scale(0.996264)"/>
      <use xlink:href="#CMSS17-53" transform="translate(115.867879 0) scale(0.996264)"/>
      <use xlink:href="#CMSS17-5b" transform="translate(199.145508 0) scale(0.996264)"/>
      <use xlink:href="#CMSS17-73" transform="translate(226.330946 0) scale(0.996264)"/>
      <use xlink:href="#CMSS17-74" transform="translate(262.244488 0) scale(0.996264)"/>
      <use xlink:href="#CMSS17-61" transform="translate(296.076055 0) scale(0.996264)"/>
      <use xlink:href="#CMSS17-74" transform="translate(340.997976 0) scale(0.996264)"/>
      <use xlink:href="#CMSS17-69" transform="translate(374.829542 0) scale(0.996264)"/>
      <use xlink:href="#CMSS17-63" transform="translate(397.010265 0) scale(0.996264)"/>
      <use xlink:href="#CMSS17-5d" transform="translate(438.649088 0) scale(0.996264)"/>
     </g>
    </g>
    <g id="line2d_30">
     <path d="M 484.6533 276.967715 
L 499.1533 276.967715 
L 513.6533 276.967715 
" style="fill: none; stroke: #bddf26; stroke-width: 2.5; stroke-linecap: square"/>
    </g>
    <g id="text_25">
     <!-- QoS [dynamic] -->
     <g transform="translate(525.2533 282.042715) scale(0.145 -0.145)">
      <defs>
       <path id="CMSS17-79" d="M 2675 2752 
L 2176 2752 
C 1632 1294 1446 702 1434 383 
L 1427 383 
C 1408 696 1126 1460 902 2007 
L 602 2752 
L 83 2752 
L 1216 13 
C 1146 -178 1043 -465 1011 -529 
C 870 -885 774 -885 672 -885 
C 646 -885 442 -885 211 -809 
L 250 -1229 
C 410 -1261 570 -1280 685 -1280 
C 845 -1280 1165 -1280 1459 -497 
L 2675 2752 
z
" transform="scale(0.015625)"/>
      </defs>
      <use xlink:href="#CMSS17-51" transform="scale(0.996264)"/>
      <use xlink:href="#CMSS17-6f" transform="translate(69.024255 0) scale(0.996264)"/>
      <use xlink:href="#CMSS17-53" transform="translate(115.867879 0) scale(0.996264)"/>
      <use xlink:href="#CMSS17-5b" transform="translate(199.145508 0) scale(0.996264)"/>
      <use xlink:href="#CMSS17-64" transform="translate(226.330946 0) scale(0.996264)"/>
      <use xlink:href="#CMSS17-79" transform="translate(274.53589 0) scale(0.996264)"/>
      <use xlink:href="#CMSS17-6e" transform="translate(317.536031 0) scale(0.996264)"/>
      <use xlink:href="#CMSS17-61" transform="translate(365.740974 0) scale(0.996264)"/>
      <use xlink:href="#CMSS17-6d" transform="translate(410.662895 0) scale(0.996264)"/>
      <use xlink:href="#CMSS17-69" transform="translate(484.892149 0) scale(0.996264)"/>
      <use xlink:href="#CMSS17-63" transform="translate(507.072872 0) scale(0.996264)"/>
      <use xlink:href="#CMSS17-5d" transform="translate(548.711695 0) scale(0.996264)"/>
     </g>
    </g>
    <g id="line2d_31">
     <path d="M 484.6533 298.663543 
L 499.1533 298.663543 
L 513.6533 298.663543 
" style="fill: none; stroke-dasharray: 5.55,2.4; stroke-dashoffset: 0; stroke: #140e36; stroke-width: 1.5"/>
    </g>
    <g id="text_26">
     <!-- Load driver (right) -->
     <g transform="translate(525.2533 303.738543) scale(0.145 -0.145)">
      <defs>
       <path id="CMSS17-4c" d="M 1670 414 
C 1594 414 1517 414 1440 414 
L 1101 414 
L 1101 4416 
L 563 4416 
L 563 0 
L 3002 0 
L 3002 414 
L 1670 414 
z
" transform="scale(0.015625)"/>
       <path id="CMSS17-72" d="M 954 1363 
C 954 1965 1395 2368 1958 2368 
L 1958 2789 
C 1549 2789 1165 2585 934 2253 
L 934 2758 
L 480 2758 
L 480 0 
L 954 0 
L 954 1363 
z
" transform="scale(0.015625)"/>
       <path id="CMSS17-76" d="M 2675 2752 
L 2176 2752 
L 1747 1556 
C 1613 1165 1421 627 1389 352 
L 1382 352 
C 1370 468 1318 634 1286 749 
C 1248 890 1197 1056 1158 1172 
L 595 2752 
L 83 2752 
L 1094 0 
L 1664 0 
L 2675 2752 
z
" transform="scale(0.015625)"/>
       <path id="CMSS17-67" d="M 2848 2808 
C 2483 2808 2170 2738 1914 2617 
C 1702 2777 1485 2808 1338 2808 
C 781 2808 358 2349 358 1814 
C 358 1468 550 1207 563 1195 
C 448 1035 384 863 384 672 
C 384 448 474 289 544 200 
C 211 -3 166 -314 166 -435 
C 166 -898 749 -1280 1498 -1280 
C 2253 -1280 2835 -898 2835 -428 
C 2835 448 1856 448 1587 448 
L 1069 448 
C 973 448 717 448 717 791 
C 717 921 774 1004 781 1010 
C 877 940 1075 832 1338 832 
C 1869 832 2310 1278 2310 1827 
C 2310 2132 2170 2355 2112 2432 
L 2131 2432 
C 2150 2432 2419 2432 2515 2432 
C 2720 2432 2739 2429 2918 2419 
L 2848 2808 
z
M 1338 1182 
C 1120 1182 813 1315 813 1823 
C 813 2375 1165 2464 1331 2464 
C 1549 2464 1856 2331 1856 1823 
C 1856 1271 1504 1182 1338 1182 
z
M 1581 -10 
C 1734 -10 2381 -10 2381 -442 
C 2381 -714 1984 -929 1504 -929 
C 1018 -929 621 -720 621 -435 
C 621 -403 621 -10 1062 -10 
L 1581 -10 
z
" transform="scale(0.015625)"/>
       <path id="CMSS17-68" d="M 2618 1891 
C 2618 2292 2522 2820 1798 2820 
C 1395 2820 1133 2623 947 2407 
L 947 4448 
L 474 4448 
L 474 32 
L 960 32 
L 960 1573 
C 960 1973 1114 2432 1549 2432 
C 2112 2432 2131 2056 2131 1839 
L 2131 32 
L 2618 32 
L 2618 1891 
z
" transform="scale(0.015625)"/>
      </defs>
      <use xlink:href="#CMSS17-4c" transform="scale(0.996264)"/>
      <use xlink:href="#CMSS17-6f" transform="translate(50.687105 0) scale(0.996264)"/>
      <use xlink:href="#CMSS17-61" transform="translate(97.530729 0) scale(0.996264)"/>
      <use xlink:href="#CMSS17-64" transform="translate(142.452649 0) scale(0.996264)"/>
      <use xlink:href="#CMSS17-64" transform="translate(221.886705 0) scale(0.996264)"/>
      <use xlink:href="#CMSS17-72" transform="translate(270.091649 0) scale(0.996264)"/>
      <use xlink:href="#CMSS17-69" transform="translate(302.001421 0) scale(0.996264)"/>
      <use xlink:href="#CMSS17-76" transform="translate(324.182144 0) scale(0.996264)"/>
      <use xlink:href="#CMSS17-65" transform="translate(367.182286 0) scale(0.996264)"/>
      <use xlink:href="#CMSS17-72" transform="translate(408.821108 0) scale(0.996264)"/>
      <use xlink:href="#CMSS17-28" transform="translate(471.959993 0) scale(0.996264)"/>
      <use xlink:href="#CMSS17-72" transform="translate(508.393907 0) scale(0.996264)"/>
      <use xlink:href="#CMSS17-69" transform="translate(540.30368 0) scale(0.996264)"/>
      <use xlink:href="#CMSS17-67" transform="translate(562.484403 0) scale(0.996264)"/>
      <use xlink:href="#CMSS17-68" transform="translate(609.328026 0) scale(0.996264)"/>
      <use xlink:href="#CMSS17-74" transform="translate(657.53297 0) scale(0.996264)"/>
      <use xlink:href="#CMSS17-29" transform="translate(691.364536 0) scale(0.996264)"/>
     </g>
    </g>
   </g>
  </g>
 </g>
 <defs>
  <clipPath id="pf6b0f03872">
   <rect x="90" y="43.2" width="558" height="277.2"/>
  </clipPath>
 </defs>
</svg>
