<?xml version="1.0" encoding="utf-8" standalone="no"?>
<!DOCTYPE svg PUBLIC "-//W3C//DTD SVG 1.1//EN"
  "http://www.w3.org/Graphics/SVG/1.1/DTD/svg11.dtd">
<svg xmlns:xlink="http://www.w3.org/1999/xlink" width="720pt" height="360pt" viewBox="0 0 720 360" xmlns="http://www.w3.org/2000/svg" version="1.1">
 <metadata>
  <rdf:RDF xmlns:dc="http://purl.org/dc/elements/1.1/" xmlns:cc="http://creativecommons.org/ns#" xmlns:rdf="http://www.w3.org/1999/02/22-rdf-syntax-ns#">
   <cc:Work>
    <dc:type rdf:resource="http://purl.org/dc/dcmitype/StillImage"/>
    <dc:date>2023-12-17T14:14:59.500181</dc:date>
    <dc:format>image/svg+xml</dc:format>
    <dc:creator>
     <cc:Agent>
      <dc:title>Matplotlib v3.8.0, https://matplotlib.org/</dc:title>
     </cc:Agent>
    </dc:creator>
   </cc:Work>
  </rdf:RDF>
 </metadata>
 <defs>
  <style type="text/css">*{stroke-linejoin: round; stroke-linecap: butt}</style>
 </defs>
 <g id="figure_1">
  <g id="patch_1">
   <path d="M 0 360 
L 720 360 
L 720 0 
L 0 0 
z
" style="fill: #ffffff"/>
  </g>
  <g id="axes_1">
   <g id="patch_2">
    <path d="M 90 320.4 
L 648 320.4 
L 648 43.2 
L 90 43.2 
z
" style="fill: #ffffff"/>
   </g>
   <g id="PolyCollection_1">
    <defs>
     <path id="m6d2bcb5f6d" d="M 115.363636 -255.00111 
L 115.363636 -298.28745 
L 116.776652 -298.28745 
L 118.189668 -298.28745 
L 119.602684 -298.28745 
L 121.0157 -298.28745 
L 122.428716 -298.28745 
L 123.841732 -298.28745 
L 125.254748 -298.28745 
L 126.667764 -298.28745 
L 128.08078 -298.28745 
L 129.493796 -298.28745 
L 130.906812 -298.28745 
L 132.319828 -298.28745 
L 133.732844 -298.28745 
L 135.14586 -298.28745 
L 136.558876 -298.28745 
L 137.971892 -298.28745 
L 139.384908 -298.28745 
L 140.797924 -298.28745 
L 142.210939 -298.28745 
L 143.623955 -298.28745 
L 145.036971 -298.28745 
L 146.449987 -298.28745 
L 147.863003 -298.28745 
L 149.276019 -298.28745 
L 150.689035 -282.58164 
L 152.102051 -282.58164 
L 153.515067 -282.58164 
L 154.928083 -282.58164 
L 156.341099 -282.58164 
L 157.754115 -281.169551 
L 159.167131 -281.169551 
L 160.580147 -281.169551 
L 161.993163 -281.169551 
L 163.406179 -281.169551 
L 164.819195 -281.169551 
L 166.232211 -269.546135 
L 167.645227 -269.546135 
L 169.058243 -269.546135 
L 170.471259 -269.546135 
L 171.884274 -269.546135 
L 173.29729 -264.232415 
L 174.710306 -264.232415 
L 176.123322 -264.232415 
L 177.536338 -264.232415 
L 178.949354 -264.232415 
L 180.36237 -264.232415 
L 181.775386 -258.734256 
L 183.188402 -258.734256 
L 184.601418 -258.734256 
L 186.014434 -258.734256 
L 187.42745 -258.734256 
L 188.840466 -256.976209 
L 190.253482 -256.976209 
L 191.666498 -256.976209 
L 193.079514 -256.976209 
L 194.49253 -256.976209 
L 195.905546 -256.976209 
L 197.318562 -256.976209 
L 198.731578 -256.976209 
L 200.144594 -256.976209 
L 201.55761 -256.976209 
L 202.970625 -256.976209 
L 204.383641 -256.976209 
L 205.796657 -256.976209 
L 207.209673 -256.976209 
L 208.622689 -256.976209 
L 210.035705 -256.976209 
L 211.448721 -256.976209 
L 212.861737 -256.976209 
L 214.274753 -256.976209 
L 215.687769 -256.976209 
L 217.100785 -256.976209 
L 218.513801 -256.976209 
L 219.926817 -256.976209 
L 221.339833 -256.976209 
L 222.752849 -256.976209 
L 224.165865 -256.976209 
L 225.578881 -256.976209 
L 226.991897 -250.793143 
L 228.404913 -250.793143 
L 229.817929 -250.793143 
L 231.230945 -250.793143 
L 232.64396 -250.793143 
L 234.056976 -250.793143 
L 235.469992 -249.55203 
L 236.883008 -249.55203 
L 238.296024 -249.55203 
L 239.70904 -249.55203 
L 241.122056 -249.55203 
L 242.535072 -243.633659 
L 243.948088 -243.633659 
L 245.361104 -243.633659 
L 246.77412 -243.633659 
L 248.187136 -243.633659 
L 249.600152 -243.633659 
L 251.013168 -232.182786 
L 252.426184 -232.182786 
L 253.8392 -232.182786 
L 255.252216 -232.182786 
L 256.665232 -232.182786 
L 258.078248 -227.749957 
L 259.491264 -227.749957 
L 260.90428 -227.749957 
L 262.317296 -227.749957 
L 263.730311 -227.749957 
L 265.143327 -227.749957 
L 266.556343 -225.180497 
L 267.969359 -225.180497 
L 269.382375 -225.180497 
L 270.795391 -225.180497 
L 272.208407 -225.180497 
L 273.621423 -223.428083 
L 275.034439 -223.428083 
L 276.447455 -223.428083 
L 277.860471 -223.428083 
L 279.273487 -223.428083 
L 280.686503 -223.539871 
L 282.099519 -223.539871 
L 283.512535 -223.539871 
L 284.925551 -223.539871 
L 286.338567 -223.539871 
L 287.751583 -223.539871 
L 289.164599 -223.428083 
L 290.577615 -223.428083 
L 291.990631 -223.428083 
L 293.403646 -223.428083 
L 294.816662 -223.428083 
L 296.229678 -222.8228 
L 297.642694 -222.8228 
L 299.05571 -222.8228 
L 300.468726 -222.8228 
L 301.881742 -222.8228 
L 303.294758 -222.8228 
L 304.707774 -222.890777 
L 306.12079 -222.890777 
L 307.533806 -222.890777 
L 308.946822 -222.890777 
L 310.359838 -222.890777 
L 311.772854 -218.824383 
L 313.18587 -218.824383 
L 314.598886 -218.824383 
L 316.011902 -218.824383 
L 317.424918 -218.824383 
L 318.837934 -218.824383 
L 320.25095 -218.349616 
L 321.663966 -218.349616 
L 323.076982 -218.349616 
L 324.489997 -218.349616 
L 325.903013 -218.349616 
L 327.316029 -201.439921 
L 328.729045 -201.439921 
L 330.142061 -201.439921 
L 331.555077 -201.439921 
L 332.968093 -201.439921 
L 334.381109 -201.439921 
L 335.794125 -186.280771 
L 337.207141 -186.280771 
L 338.620157 -186.280771 
L 340.033173 -186.280771 
L 341.446189 -186.280771 
L 342.859205 -185.718929 
L 344.272221 -185.718929 
L 345.685237 -185.718929 
L 347.098253 -185.718929 
L 348.511269 -185.718929 
L 349.924285 -185.718929 
L 351.337301 -185.718929 
L 352.750317 -185.718929 
L 354.163332 -185.718929 
L 355.576348 -185.718929 
L 356.989364 -185.718929 
L 358.40238 -184.881065 
L 359.815396 -184.881065 
L 361.228412 -184.881065 
L 362.641428 -184.881065 
L 364.054444 -184.881065 
L 365.46746 -184.504778 
L 366.880476 -184.504778 
L 368.293492 -184.504778 
L 369.706508 -184.504778 
L 371.119524 -184.504778 
L 372.53254 -184.504778 
L 373.945556 -184.504778 
L 375.358572 -184.504778 
L 376.771588 -184.504778 
L 378.184604 -184.504778 
L 379.59762 -184.504778 
L 381.010636 -184.504778 
L 382.423652 -184.504778 
L 383.836668 -184.504778 
L 385.249683 -184.504778 
L 386.662699 -184.504778 
L 388.075715 -184.504778 
L 389.488731 -215.174729 
L 390.901747 -215.174729 
L 392.314763 -215.174729 
L 393.727779 -215.174729 
L 395.140795 -215.174729 
L 396.553811 -221.88021 
L 397.966827 -221.88021 
L 399.379843 -221.88021 
L 400.792859 -221.88021 
L 402.205875 -221.88021 
L 403.618891 -221.797014 
L 405.031907 -221.797014 
L 406.444923 -221.797014 
L 407.857939 -221.797014 
L 409.270955 -221.797014 
L 410.683971 -221.797014 
L 412.096987 -221.581191 
L 413.510003 -221.581191 
L 414.923018 -221.581191 
L 416.336034 -221.581191 
L 417.74905 -221.581191 
L 419.162066 -221.797014 
L 420.575082 -221.797014 
L 421.988098 -221.797014 
L 423.401114 -221.797014 
L 424.81413 -221.797014 
L 426.227146 -221.797014 
L 427.640162 -221.797014 
L 429.053178 -221.797014 
L 430.466194 -221.797014 
L 431.87921 -221.797014 
L 433.292226 -221.797014 
L 434.705242 -221.797014 
L 436.118258 -221.797014 
L 437.531274 -221.797014 
L 438.94429 -221.797014 
L 440.357306 -221.797014 
L 441.770322 -221.797014 
L 443.183338 -221.88021 
L 444.596354 -221.88021 
L 446.009369 -221.88021 
L 447.422385 -221.88021 
L 448.835401 -221.88021 
L 450.248417 -221.797014 
L 451.661433 -221.797014 
L 453.074449 -221.797014 
L 454.487465 -221.797014 
L 455.900481 -221.797014 
L 457.313497 -221.797014 
L 458.726513 -221.797014 
L 460.139529 -221.797014 
L 461.552545 -221.797014 
L 462.965561 -221.797014 
L 464.378577 -221.797014 
L 465.791593 -229.95255 
L 467.204609 -229.95255 
L 468.617625 -229.95255 
L 470.030641 -229.95255 
L 471.443657 -229.95255 
L 472.856673 -251.35071 
L 474.269689 -251.35071 
L 475.682704 -251.35071 
L 477.09572 -251.35071 
L 478.508736 -251.35071 
L 479.921752 -251.35071 
L 481.334768 -253.939474 
L 482.747784 -253.939474 
L 484.1608 -253.939474 
L 485.573816 -253.939474 
L 486.986832 -253.939474 
L 488.399848 -253.939474 
L 489.812864 -253.939474 
L 491.22588 -253.939474 
L 492.638896 -253.939474 
L 494.051912 -253.939474 
L 495.464928 -253.939474 
L 496.877944 -253.939474 
L 498.29096 -253.939474 
L 499.703976 -253.939474 
L 501.116992 -253.939474 
L 502.530008 -253.939474 
L 503.943024 -253.939474 
L 505.35604 -253.939474 
L 506.769055 -253.939474 
L 508.182071 -253.939474 
L 509.595087 -253.939474 
L 511.008103 -253.939474 
L 512.421119 -253.939474 
L 513.834135 -253.939474 
L 515.247151 -253.939474 
L 516.660167 -253.939474 
L 518.073183 -253.939474 
L 519.486199 -253.939474 
L 520.899215 -253.939474 
L 522.312231 -253.939474 
L 523.725247 -253.939474 
L 525.138263 -253.939474 
L 526.551279 -253.939474 
L 527.964295 -253.939474 
L 529.377311 -253.939474 
L 530.790327 -253.939474 
L 532.203343 -253.939474 
L 533.616359 -253.939474 
L 535.029375 -253.939474 
L 536.44239 -253.939474 
L 537.855406 -253.939474 
L 539.268422 -253.939474 
L 540.681438 -253.939474 
L 542.094454 -255.402975 
L 543.50747 -255.402975 
L 544.920486 -255.402975 
L 546.333502 -255.402975 
L 547.746518 -255.402975 
L 549.159534 -255.402975 
L 550.57255 -283.911055 
L 551.985566 -283.911055 
L 553.398582 -283.911055 
L 554.811598 -283.911055 
L 556.224614 -283.911055 
L 557.63763 -286.844835 
L 559.050646 -286.844835 
L 560.463662 -286.844835 
L 561.876678 -286.844835 
L 563.289694 -286.844835 
L 564.70271 -286.844835 
L 566.115726 -286.713206 
L 567.528741 -286.713206 
L 568.941757 -286.713206 
L 570.354773 -286.713206 
L 571.767789 -286.713206 
L 573.180805 -286.510495 
L 574.593821 -286.510495 
L 576.006837 -286.510495 
L 577.419853 -286.510495 
L 578.832869 -286.510495 
L 580.245885 -286.510495 
L 581.658901 -286.844835 
L 583.071917 -286.844835 
L 584.484933 -286.844835 
L 585.897949 -286.844835 
L 587.310965 -286.844835 
L 588.723981 -286.844835 
L 590.136997 -286.844835 
L 591.550013 -286.844835 
L 592.963029 -286.844835 
L 594.376045 -286.844835 
L 595.789061 -286.844835 
L 597.202076 -286.844835 
L 598.615092 -286.844835 
L 600.028108 -286.844835 
L 601.441124 -286.844835 
L 602.85414 -286.844835 
L 604.267156 -286.844835 
L 605.680172 -286.844835 
L 607.093188 -286.844835 
L 608.506204 -286.844835 
L 609.91922 -286.844835 
L 611.332236 -286.844835 
L 612.745252 -286.844835 
L 614.158268 -286.844835 
L 615.571284 -286.844835 
L 616.9843 -286.844835 
L 618.397316 -286.844835 
L 619.810332 -286.844835 
L 621.223348 -286.844835 
L 622.636364 -286.844835 
L 622.636364 -250.324941 
L 622.636364 -250.324941 
L 621.223348 -250.324941 
L 619.810332 -250.324941 
L 618.397316 -250.324941 
L 616.9843 -250.324941 
L 615.571284 -250.324941 
L 614.158268 -250.324941 
L 612.745252 -250.324941 
L 611.332236 -250.324941 
L 609.91922 -250.324941 
L 608.506204 -250.324941 
L 607.093188 -250.324941 
L 605.680172 -250.324941 
L 604.267156 -250.324941 
L 602.85414 -250.324941 
L 601.441124 -250.324941 
L 600.028108 -250.324941 
L 598.615092 -250.324941 
L 597.202076 -250.324941 
L 595.789061 -250.324941 
L 594.376045 -250.324941 
L 592.963029 -250.324941 
L 591.550013 -250.324941 
L 590.136997 -250.324941 
L 588.723981 -250.324941 
L 587.310965 -250.324941 
L 585.897949 -250.324941 
L 584.484933 -250.324941 
L 583.071917 -250.324941 
L 581.658901 -250.324941 
L 580.245885 -248.435873 
L 578.832869 -248.435873 
L 577.419853 -248.435873 
L 576.006837 -248.435873 
L 574.593821 -248.435873 
L 573.180805 -248.435873 
L 571.767789 -249.900586 
L 570.354773 -249.900586 
L 568.941757 -249.900586 
L 567.528741 -249.900586 
L 566.115726 -249.900586 
L 564.70271 -250.324941 
L 563.289694 -250.324941 
L 561.876678 -250.324941 
L 560.463662 -250.324941 
L 559.050646 -250.324941 
L 557.63763 -250.324941 
L 556.224614 -250.479857 
L 554.811598 -250.479857 
L 553.398582 -250.479857 
L 551.985566 -250.479857 
L 550.57255 -250.479857 
L 549.159534 -221.743233 
L 547.746518 -221.743233 
L 546.333502 -221.743233 
L 544.920486 -221.743233 
L 543.50747 -221.743233 
L 542.094454 -221.743233 
L 540.681438 -220.982798 
L 539.268422 -220.982798 
L 537.855406 -220.982798 
L 536.44239 -220.982798 
L 535.029375 -220.982798 
L 533.616359 -220.982798 
L 532.203343 -220.982798 
L 530.790327 -220.982798 
L 529.377311 -220.982798 
L 527.964295 -220.982798 
L 526.551279 -220.982798 
L 525.138263 -220.982798 
L 523.725247 -220.982798 
L 522.312231 -220.982798 
L 520.899215 -220.982798 
L 519.486199 -220.982798 
L 518.073183 -220.982798 
L 516.660167 -220.982798 
L 515.247151 -220.982798 
L 513.834135 -220.982798 
L 512.421119 -220.982798 
L 511.008103 -220.982798 
L 509.595087 -220.982798 
L 508.182071 -220.982798 
L 506.769055 -220.982798 
L 505.35604 -220.982798 
L 503.943024 -220.982798 
L 502.530008 -220.982798 
L 501.116992 -220.982798 
L 499.703976 -220.982798 
L 498.29096 -220.982798 
L 496.877944 -220.982798 
L 495.464928 -220.982798 
L 494.051912 -220.982798 
L 492.638896 -220.982798 
L 491.22588 -220.982798 
L 489.812864 -220.982798 
L 488.399848 -220.982798 
L 486.986832 -220.982798 
L 485.573816 -220.982798 
L 484.1608 -220.982798 
L 482.747784 -220.982798 
L 481.334768 -220.982798 
L 479.921752 -214.678458 
L 478.508736 -214.678458 
L 477.09572 -214.678458 
L 475.682704 -214.678458 
L 474.269689 -214.678458 
L 472.856673 -214.678458 
L 471.443657 -189.946314 
L 470.030641 -189.946314 
L 468.617625 -189.946314 
L 467.204609 -189.946314 
L 465.791593 -189.946314 
L 464.378577 -176.425866 
L 462.965561 -176.425866 
L 461.552545 -176.425866 
L 460.139529 -176.425866 
L 458.726513 -176.425866 
L 457.313497 -176.425866 
L 455.900481 -176.425866 
L 454.487465 -176.425866 
L 453.074449 -176.425866 
L 451.661433 -176.425866 
L 450.248417 -176.425866 
L 448.835401 -175.786686 
L 447.422385 -175.786686 
L 446.009369 -175.786686 
L 444.596354 -175.786686 
L 443.183338 -175.786686 
L 441.770322 -176.425866 
L 440.357306 -176.425866 
L 438.94429 -176.425866 
L 437.531274 -176.425866 
L 436.118258 -176.425866 
L 434.705242 -176.425866 
L 433.292226 -176.425866 
L 431.87921 -176.425866 
L 430.466194 -176.425866 
L 429.053178 -176.425866 
L 427.640162 -176.425866 
L 426.227146 -176.425866 
L 424.81413 -176.425866 
L 423.401114 -176.425866 
L 421.988098 -176.425866 
L 420.575082 -176.425866 
L 419.162066 -176.425866 
L 417.74905 -176.642217 
L 416.336034 -176.642217 
L 414.923018 -176.642217 
L 413.510003 -176.642217 
L 412.096987 -176.642217 
L 410.683971 -176.425866 
L 409.270955 -176.425866 
L 407.857939 -176.425866 
L 406.444923 -176.425866 
L 405.031907 -176.425866 
L 403.618891 -176.425866 
L 402.205875 -175.786686 
L 400.792859 -175.786686 
L 399.379843 -175.786686 
L 397.966827 -175.786686 
L 396.553811 -175.786686 
L 395.140795 -171.376183 
L 393.727779 -171.376183 
L 392.314763 -171.376183 
L 390.901747 -171.376183 
L 389.488731 -171.376183 
L 388.075715 -141.46711 
L 386.662699 -141.46711 
L 385.249683 -141.46711 
L 383.836668 -141.46711 
L 382.423652 -141.46711 
L 381.010636 -141.46711 
L 379.59762 -141.46711 
L 378.184604 -141.46711 
L 376.771588 -141.46711 
L 375.358572 -141.46711 
L 373.945556 -141.46711 
L 372.53254 -141.46711 
L 371.119524 -141.46711 
L 369.706508 -141.46711 
L 368.293492 -141.46711 
L 366.880476 -141.46711 
L 365.46746 -141.46711 
L 364.054444 -141.646279 
L 362.641428 -141.646279 
L 361.228412 -141.646279 
L 359.815396 -141.646279 
L 358.40238 -141.646279 
L 356.989364 -141.920383 
L 355.576348 -141.920383 
L 354.163332 -141.920383 
L 352.750317 -141.920383 
L 351.337301 -141.920383 
L 349.924285 -141.920383 
L 348.511269 -141.920383 
L 347.098253 -141.920383 
L 345.685237 -141.920383 
L 344.272221 -141.920383 
L 342.859205 -141.920383 
L 341.446189 -148.027181 
L 340.033173 -148.027181 
L 338.620157 -148.027181 
L 337.207141 -148.027181 
L 335.794125 -148.027181 
L 334.381109 -158.989247 
L 332.968093 -158.989247 
L 331.555077 -158.989247 
L 330.142061 -158.989247 
L 328.729045 -158.989247 
L 327.316029 -158.989247 
L 325.903013 -169.313792 
L 324.489997 -169.313792 
L 323.076982 -169.313792 
L 321.663966 -169.313792 
L 320.25095 -169.313792 
L 318.837934 -169.395009 
L 317.424918 -169.395009 
L 316.011902 -169.395009 
L 314.598886 -169.395009 
L 313.18587 -169.395009 
L 311.772854 -169.395009 
L 310.359838 -172.553239 
L 308.946822 -172.553239 
L 307.533806 -172.553239 
L 306.12079 -172.553239 
L 304.707774 -172.553239 
L 303.294758 -178.179472 
L 301.881742 -178.179472 
L 300.468726 -178.179472 
L 299.05571 -178.179472 
L 297.642694 -178.179472 
L 296.229678 -178.179472 
L 294.816662 -180.908509 
L 293.403646 -180.908509 
L 291.990631 -180.908509 
L 290.577615 -180.908509 
L 289.164599 -180.908509 
L 287.751583 -181.352705 
L 286.338567 -181.352705 
L 284.925551 -181.352705 
L 283.512535 -181.352705 
L 282.099519 -181.352705 
L 280.686503 -181.352705 
L 279.273487 -180.908509 
L 277.860471 -180.908509 
L 276.447455 -180.908509 
L 275.034439 -180.908509 
L 273.621423 -180.908509 
L 272.208407 -183.602383 
L 270.795391 -183.602383 
L 269.382375 -183.602383 
L 267.969359 -183.602383 
L 266.556343 -183.602383 
L 265.143327 -185.480267 
L 263.730311 -185.480267 
L 262.317296 -185.480267 
L 260.90428 -185.480267 
L 259.491264 -185.480267 
L 258.078248 -185.480267 
L 256.665232 -189.939486 
L 255.252216 -189.939486 
L 253.8392 -189.939486 
L 252.426184 -189.939486 
L 251.013168 -189.939486 
L 249.600152 -210.723541 
L 248.187136 -210.723541 
L 246.77412 -210.723541 
L 245.361104 -210.723541 
L 243.948088 -210.723541 
L 242.535072 -210.723541 
L 241.122056 -216.477138 
L 239.70904 -216.477138 
L 238.296024 -216.477138 
L 236.883008 -216.477138 
L 235.469992 -216.477138 
L 234.056976 -216.347465 
L 232.64396 -216.347465 
L 231.230945 -216.347465 
L 229.817929 -216.347465 
L 228.404913 -216.347465 
L 226.991897 -216.347465 
L 225.578881 -221.837423 
L 224.165865 -221.837423 
L 222.752849 -221.837423 
L 221.339833 -221.837423 
L 219.926817 -221.837423 
L 218.513801 -221.837423 
L 217.100785 -221.837423 
L 215.687769 -221.837423 
L 214.274753 -221.837423 
L 212.861737 -221.837423 
L 211.448721 -221.837423 
L 210.035705 -221.837423 
L 208.622689 -221.837423 
L 207.209673 -221.837423 
L 205.796657 -221.837423 
L 204.383641 -221.837423 
L 202.970625 -221.837423 
L 201.55761 -221.837423 
L 200.144594 -221.837423 
L 198.731578 -221.837423 
L 197.318562 -221.837423 
L 195.905546 -221.837423 
L 194.49253 -221.837423 
L 193.079514 -221.837423 
L 191.666498 -221.837423 
L 190.253482 -221.837423 
L 188.840466 -221.837423 
L 187.42745 -222.302256 
L 186.014434 -222.302256 
L 184.601418 -222.302256 
L 183.188402 -222.302256 
L 181.775386 -222.302256 
L 180.36237 -227.363041 
L 178.949354 -227.363041 
L 177.536338 -227.363041 
L 176.123322 -227.363041 
L 174.710306 -227.363041 
L 173.29729 -227.363041 
L 171.884274 -241.502425 
L 170.471259 -241.502425 
L 169.058243 -241.502425 
L 167.645227 -241.502425 
L 166.232211 -241.502425 
L 164.819195 -250.999537 
L 163.406179 -250.999537 
L 161.993163 -250.999537 
L 160.580147 -250.999537 
L 159.167131 -250.999537 
L 157.754115 -250.999537 
L 156.341099 -249.58692 
L 154.928083 -249.58692 
L 153.515067 -249.58692 
L 152.102051 -249.58692 
L 150.689035 -249.58692 
L 149.276019 -255.00111 
L 147.863003 -255.00111 
L 146.449987 -255.00111 
L 145.036971 -255.00111 
L 143.623955 -255.00111 
L 142.210939 -255.00111 
L 140.797924 -255.00111 
L 139.384908 -255.00111 
L 137.971892 -255.00111 
L 136.558876 -255.00111 
L 135.14586 -255.00111 
L 133.732844 -255.00111 
L 132.319828 -255.00111 
L 130.906812 -255.00111 
L 129.493796 -255.00111 
L 128.08078 -255.00111 
L 126.667764 -255.00111 
L 125.254748 -255.00111 
L 123.841732 -255.00111 
L 122.428716 -255.00111 
L 121.0157 -255.00111 
L 119.602684 -255.00111 
L 118.189668 -255.00111 
L 116.776652 -255.00111 
L 115.363636 -255.00111 
z
" style="stroke: #482475; stroke-opacity: 0.2"/>
    </defs>
    <g clip-path="url(#pe1b9bcee7d)">
     <use xlink:href="#m6d2bcb5f6d" x="0" y="360" style="fill: #482475; fill-opacity: 0.2; stroke: #482475; stroke-opacity: 0.2"/>
    </g>
   </g>
   <g id="PolyCollection_2">
    <defs>
     <path id="m1c793c4d96" d="M 115.363636 -248.259263 
L 115.363636 -295.025281 
L 116.776652 -295.025281 
L 118.189668 -295.025281 
L 119.602684 -295.025281 
L 121.0157 -295.025281 
L 122.428716 -295.025281 
L 123.841732 -295.025281 
L 125.254748 -295.025281 
L 126.667764 -295.025281 
L 128.08078 -295.025281 
L 129.493796 -295.025281 
L 130.906812 -295.025281 
L 132.319828 -295.025281 
L 133.732844 -295.025281 
L 135.14586 -294.356677 
L 136.558876 -294.356677 
L 137.971892 -294.356677 
L 139.384908 -294.356677 
L 140.797924 -294.356677 
L 142.210939 -294.356677 
L 143.623955 -294.507164 
L 145.036971 -294.507164 
L 146.449987 -294.507164 
L 147.863003 -294.507164 
L 149.276019 -294.507164 
L 150.689035 -282.507411 
L 152.102051 -282.507411 
L 153.515067 -282.507411 
L 154.928083 -282.507411 
L 156.341099 -282.507411 
L 157.754115 -278.210832 
L 159.167131 -278.210832 
L 160.580147 -278.210832 
L 161.993163 -278.210832 
L 163.406179 -278.210832 
L 164.819195 -278.210832 
L 166.232211 -274.051843 
L 167.645227 -274.051843 
L 169.058243 -274.051843 
L 170.471259 -274.051843 
L 171.884274 -274.051843 
L 173.29729 -259.8572 
L 174.710306 -259.8572 
L 176.123322 -259.8572 
L 177.536338 -259.8572 
L 178.949354 -259.8572 
L 180.36237 -259.8572 
L 181.775386 -253.422693 
L 183.188402 -253.422693 
L 184.601418 -253.422693 
L 186.014434 -253.422693 
L 187.42745 -253.422693 
L 188.840466 -252.709279 
L 190.253482 -252.709279 
L 191.666498 -252.709279 
L 193.079514 -252.709279 
L 194.49253 -252.709279 
L 195.905546 -252.709279 
L 197.318562 -254.033658 
L 198.731578 -254.033658 
L 200.144594 -254.033658 
L 201.55761 -254.033658 
L 202.970625 -254.033658 
L 204.383641 -254.033658 
L 205.796657 -254.033658 
L 207.209673 -254.033658 
L 208.622689 -254.033658 
L 210.035705 -254.033658 
L 211.448721 -254.033658 
L 212.861737 -254.033658 
L 214.274753 -254.033658 
L 215.687769 -254.033658 
L 217.100785 -254.033658 
L 218.513801 -254.033658 
L 219.926817 -254.033658 
L 221.339833 -254.033658 
L 222.752849 -254.033658 
L 224.165865 -254.033658 
L 225.578881 -254.033658 
L 226.991897 -247.191402 
L 228.404913 -247.191402 
L 229.817929 -247.191402 
L 231.230945 -247.191402 
L 232.64396 -247.191402 
L 234.056976 -247.191402 
L 235.469992 -247.460218 
L 236.883008 -247.460218 
L 238.296024 -247.460218 
L 239.70904 -247.460218 
L 241.122056 -247.460218 
L 242.535072 -243.212748 
L 243.948088 -243.212748 
L 245.361104 -243.212748 
L 246.77412 -243.212748 
L 248.187136 -243.212748 
L 249.600152 -243.212748 
L 251.013168 -230.991611 
L 252.426184 -230.991611 
L 253.8392 -230.991611 
L 255.252216 -230.991611 
L 256.665232 -230.991611 
L 258.078248 -224.395555 
L 259.491264 -224.395555 
L 260.90428 -224.395555 
L 262.317296 -224.395555 
L 263.730311 -224.395555 
L 265.143327 -224.395555 
L 266.556343 -224.109072 
L 267.969359 -224.109072 
L 269.382375 -224.109072 
L 270.795391 -224.109072 
L 272.208407 -224.109072 
L 273.621423 -224.345228 
L 275.034439 -224.345228 
L 276.447455 -224.345228 
L 277.860471 -224.345228 
L 279.273487 -224.345228 
L 280.686503 -224.345228 
L 282.099519 -224.345228 
L 283.512535 -224.345228 
L 284.925551 -224.345228 
L 286.338567 -224.345228 
L 287.751583 -224.345228 
L 289.164599 -224.345228 
L 290.577615 -224.345228 
L 291.990631 -224.345228 
L 293.403646 -224.345228 
L 294.816662 -224.345228 
L 296.229678 -223.911822 
L 297.642694 -223.911822 
L 299.05571 -223.911822 
L 300.468726 -223.911822 
L 301.881742 -223.911822 
L 303.294758 -223.911822 
L 304.707774 -223.262344 
L 306.12079 -223.262344 
L 307.533806 -223.262344 
L 308.946822 -223.262344 
L 310.359838 -223.262344 
L 311.772854 -221.139923 
L 313.18587 -221.139923 
L 314.598886 -221.139923 
L 316.011902 -221.139923 
L 317.424918 -221.139923 
L 318.837934 -221.139923 
L 320.25095 -220.692196 
L 321.663966 -220.692196 
L 323.076982 -220.692196 
L 324.489997 -220.692196 
L 325.903013 -220.692196 
L 327.316029 -202.364909 
L 328.729045 -202.364909 
L 330.142061 -202.364909 
L 331.555077 -202.364909 
L 332.968093 -202.364909 
L 334.381109 -202.364909 
L 335.794125 -184.360138 
L 337.207141 -184.360138 
L 338.620157 -184.360138 
L 340.033173 -184.360138 
L 341.446189 -184.360138 
L 342.859205 -182.708026 
L 344.272221 -182.708026 
L 345.685237 -182.708026 
L 347.098253 -182.708026 
L 348.511269 -182.708026 
L 349.924285 -181.933402 
L 351.337301 -181.933402 
L 352.750317 -181.933402 
L 354.163332 -181.933402 
L 355.576348 -181.933402 
L 356.989364 -181.933402 
L 358.40238 -181.933402 
L 359.815396 -181.933402 
L 361.228412 -181.933402 
L 362.641428 -181.933402 
L 364.054444 -181.933402 
L 365.46746 -181.933402 
L 366.880476 -181.933402 
L 368.293492 -181.933402 
L 369.706508 -181.933402 
L 371.119524 -181.933402 
L 372.53254 -181.933402 
L 373.945556 -181.933402 
L 375.358572 -181.933402 
L 376.771588 -181.933402 
L 378.184604 -181.933402 
L 379.59762 -181.933402 
L 381.010636 -181.933402 
L 382.423652 -181.933402 
L 383.836668 -181.933402 
L 385.249683 -181.933402 
L 386.662699 -181.933402 
L 388.075715 -181.933402 
L 389.488731 -217.765242 
L 390.901747 -217.765242 
L 392.314763 -217.765242 
L 393.727779 -217.765242 
L 395.140795 -217.765242 
L 396.553811 -224.495614 
L 397.966827 -224.495614 
L 399.379843 -224.495614 
L 400.792859 -224.495614 
L 402.205875 -224.495614 
L 403.618891 -224.907478 
L 405.031907 -224.907478 
L 406.444923 -224.907478 
L 407.857939 -224.907478 
L 409.270955 -224.907478 
L 410.683971 -224.907478 
L 412.096987 -224.809582 
L 413.510003 -224.809582 
L 414.923018 -224.809582 
L 416.336034 -224.809582 
L 417.74905 -224.809582 
L 419.162066 -225.36265 
L 420.575082 -225.36265 
L 421.988098 -225.36265 
L 423.401114 -225.36265 
L 424.81413 -225.36265 
L 426.227146 -225.36265 
L 427.640162 -224.345228 
L 429.053178 -224.345228 
L 430.466194 -224.345228 
L 431.87921 -224.345228 
L 433.292226 -224.345228 
L 434.705242 -224.345228 
L 436.118258 -224.345228 
L 437.531274 -224.345228 
L 438.94429 -224.345228 
L 440.357306 -224.345228 
L 441.770322 -224.345228 
L 443.183338 -224.495614 
L 444.596354 -224.495614 
L 446.009369 -224.495614 
L 447.422385 -224.495614 
L 448.835401 -224.495614 
L 450.248417 -224.345228 
L 451.661433 -224.345228 
L 453.074449 -224.345228 
L 454.487465 -224.345228 
L 455.900481 -224.345228 
L 457.313497 -224.345228 
L 458.726513 -224.345228 
L 460.139529 -224.345228 
L 461.552545 -224.345228 
L 462.965561 -224.345228 
L 464.378577 -224.345228 
L 465.791593 -233.303958 
L 467.204609 -233.303958 
L 468.617625 -233.303958 
L 470.030641 -233.303958 
L 471.443657 -233.303958 
L 472.856673 -252.460968 
L 474.269689 -252.460968 
L 475.682704 -252.460968 
L 477.09572 -252.460968 
L 478.508736 -252.460968 
L 479.921752 -252.460968 
L 481.334768 -254.033658 
L 482.747784 -254.033658 
L 484.1608 -254.033658 
L 485.573816 -254.033658 
L 486.986832 -254.033658 
L 488.399848 -254.033658 
L 489.812864 -254.033658 
L 491.22588 -254.033658 
L 492.638896 -254.033658 
L 494.051912 -254.033658 
L 495.464928 -254.033658 
L 496.877944 -254.033658 
L 498.29096 -254.033658 
L 499.703976 -254.033658 
L 501.116992 -254.033658 
L 502.530008 -254.033658 
L 503.943024 -254.033658 
L 505.35604 -254.033658 
L 506.769055 -254.033658 
L 508.182071 -254.033658 
L 509.595087 -254.033658 
L 511.008103 -254.033658 
L 512.421119 -254.033658 
L 513.834135 -254.033658 
L 515.247151 -254.033658 
L 516.660167 -254.033658 
L 518.073183 -254.033658 
L 519.486199 -254.033658 
L 520.899215 -254.033658 
L 522.312231 -254.033658 
L 523.725247 -254.033658 
L 525.138263 -254.033658 
L 526.551279 -254.033658 
L 527.964295 -254.033658 
L 529.377311 -254.033658 
L 530.790327 -254.033658 
L 532.203343 -254.033658 
L 533.616359 -254.033658 
L 535.029375 -254.62515 
L 536.44239 -254.62515 
L 537.855406 -254.62515 
L 539.268422 -254.62515 
L 540.681438 -254.62515 
L 542.094454 -256.212229 
L 543.50747 -256.212229 
L 544.920486 -256.212229 
L 546.333502 -256.212229 
L 547.746518 -256.212229 
L 549.159534 -256.212229 
L 550.57255 -292.415271 
L 551.985566 -292.415271 
L 553.398582 -292.415271 
L 554.811598 -292.415271 
L 556.224614 -292.415271 
L 557.63763 -295.246594 
L 559.050646 -295.246594 
L 560.463662 -295.246594 
L 561.876678 -295.246594 
L 563.289694 -295.246594 
L 564.70271 -295.246594 
L 566.115726 -295.875866 
L 567.528741 -295.875866 
L 568.941757 -295.875866 
L 570.354773 -295.875866 
L 571.767789 -295.875866 
L 573.180805 -295.583287 
L 574.593821 -295.583287 
L 576.006837 -295.583287 
L 577.419853 -295.583287 
L 578.832869 -295.583287 
L 580.245885 -295.583287 
L 581.658901 -296.205851 
L 583.071917 -296.205851 
L 584.484933 -296.205851 
L 585.897949 -296.205851 
L 587.310965 -296.205851 
L 588.723981 -296.00038 
L 590.136997 -296.00038 
L 591.550013 -296.00038 
L 592.963029 -296.00038 
L 594.376045 -296.00038 
L 595.789061 -296.205851 
L 597.202076 -296.205851 
L 598.615092 -296.205851 
L 600.028108 -296.205851 
L 601.441124 -296.205851 
L 602.85414 -296.205851 
L 604.267156 -296.205851 
L 605.680172 -296.205851 
L 607.093188 -296.205851 
L 608.506204 -296.205851 
L 609.91922 -296.205851 
L 611.332236 -296.205851 
L 612.745252 -296.205851 
L 614.158268 -296.205851 
L 615.571284 -296.205851 
L 616.9843 -296.205851 
L 618.397316 -296.205851 
L 619.810332 -296.205851 
L 621.223348 -296.205851 
L 622.636364 -296.205851 
L 622.636364 -262.641493 
L 622.636364 -262.641493 
L 621.223348 -262.641493 
L 619.810332 -262.641493 
L 618.397316 -262.641493 
L 616.9843 -262.641493 
L 615.571284 -262.641493 
L 614.158268 -262.641493 
L 612.745252 -262.641493 
L 611.332236 -262.641493 
L 609.91922 -262.641493 
L 608.506204 -262.641493 
L 607.093188 -262.641493 
L 605.680172 -262.641493 
L 604.267156 -262.641493 
L 602.85414 -262.641493 
L 601.441124 -262.641493 
L 600.028108 -262.641493 
L 598.615092 -262.641493 
L 597.202076 -262.641493 
L 595.789061 -262.641493 
L 594.376045 -262.29098 
L 592.963029 -262.29098 
L 591.550013 -262.29098 
L 590.136997 -262.29098 
L 588.723981 -262.29098 
L 587.310965 -262.641493 
L 585.897949 -262.641493 
L 584.484933 -262.641493 
L 583.071917 -262.641493 
L 581.658901 -262.641493 
L 580.245885 -262.152089 
L 578.832869 -262.152089 
L 577.419853 -262.152089 
L 576.006837 -262.152089 
L 574.593821 -262.152089 
L 573.180805 -262.152089 
L 571.767789 -262.415494 
L 570.354773 -262.415494 
L 568.941757 -262.415494 
L 567.528741 -262.415494 
L 566.115726 -262.415494 
L 564.70271 -262.48931 
L 563.289694 -262.48931 
L 561.876678 -262.48931 
L 560.463662 -262.48931 
L 559.050646 -262.48931 
L 557.63763 -262.48931 
L 556.224614 -261.429273 
L 554.811598 -261.429273 
L 553.398582 -261.429273 
L 551.985566 -261.429273 
L 550.57255 -261.429273 
L 549.159534 -227.602619 
L 547.746518 -227.602619 
L 546.333502 -227.602619 
L 544.920486 -227.602619 
L 543.50747 -227.602619 
L 542.094454 -227.602619 
L 540.681438 -226.966818 
L 539.268422 -226.966818 
L 537.855406 -226.966818 
L 536.44239 -226.966818 
L 535.029375 -226.966818 
L 533.616359 -227.002326 
L 532.203343 -227.002326 
L 530.790327 -227.002326 
L 529.377311 -227.002326 
L 527.964295 -227.002326 
L 526.551279 -227.002326 
L 525.138263 -227.002326 
L 523.725247 -227.002326 
L 522.312231 -227.002326 
L 520.899215 -227.002326 
L 519.486199 -227.002326 
L 518.073183 -227.002326 
L 516.660167 -227.002326 
L 515.247151 -227.002326 
L 513.834135 -227.002326 
L 512.421119 -227.002326 
L 511.008103 -227.002326 
L 509.595087 -227.002326 
L 508.182071 -227.002326 
L 506.769055 -227.002326 
L 505.35604 -227.002326 
L 503.943024 -227.002326 
L 502.530008 -227.002326 
L 501.116992 -227.002326 
L 499.703976 -227.002326 
L 498.29096 -227.002326 
L 496.877944 -227.002326 
L 495.464928 -227.002326 
L 494.051912 -227.002326 
L 492.638896 -227.002326 
L 491.22588 -227.002326 
L 489.812864 -227.002326 
L 488.399848 -227.002326 
L 486.986832 -227.002326 
L 485.573816 -227.002326 
L 484.1608 -227.002326 
L 482.747784 -227.002326 
L 481.334768 -227.002326 
L 479.921752 -221.90532 
L 478.508736 -221.90532 
L 477.09572 -221.90532 
L 475.682704 -221.90532 
L 474.269689 -221.90532 
L 472.856673 -221.90532 
L 471.443657 -196.043466 
L 470.030641 -196.043466 
L 468.617625 -196.043466 
L 467.204609 -196.043466 
L 465.791593 -196.043466 
L 464.378577 -181.658788 
L 462.965561 -181.658788 
L 461.552545 -181.658788 
L 460.139529 -181.658788 
L 458.726513 -181.658788 
L 457.313497 -181.658788 
L 455.900481 -181.658788 
L 454.487465 -181.658788 
L 453.074449 -181.658788 
L 451.661433 -181.658788 
L 450.248417 -181.658788 
L 448.835401 -180.952418 
L 447.422385 -180.952418 
L 446.009369 -180.952418 
L 444.596354 -180.952418 
L 443.183338 -180.952418 
L 441.770322 -181.658788 
L 440.357306 -181.658788 
L 438.94429 -181.658788 
L 437.531274 -181.658788 
L 436.118258 -181.658788 
L 434.705242 -181.658788 
L 433.292226 -181.658788 
L 431.87921 -181.658788 
L 430.466194 -181.658788 
L 429.053178 -181.658788 
L 427.640162 -181.658788 
L 426.227146 -182.30879 
L 424.81413 -182.30879 
L 423.401114 -182.30879 
L 421.988098 -182.30879 
L 420.575082 -182.30879 
L 419.162066 -182.30879 
L 417.74905 -182.306402 
L 416.336034 -182.306402 
L 414.923018 -182.306402 
L 413.510003 -182.306402 
L 412.096987 -182.306402 
L 410.683971 -182.207978 
L 409.270955 -182.207978 
L 407.857939 -182.207978 
L 406.444923 -182.207978 
L 405.031907 -182.207978 
L 403.618891 -182.207978 
L 402.205875 -180.952418 
L 400.792859 -180.952418 
L 399.379843 -180.952418 
L 397.966827 -180.952418 
L 396.553811 -180.952418 
L 395.140795 -178.789686 
L 393.727779 -178.789686 
L 392.314763 -178.789686 
L 390.901747 -178.789686 
L 389.488731 -178.789686 
L 388.075715 -149.04023 
L 386.662699 -149.04023 
L 385.249683 -149.04023 
L 383.836668 -149.04023 
L 382.423652 -149.04023 
L 381.010636 -149.04023 
L 379.59762 -149.04023 
L 378.184604 -149.04023 
L 376.771588 -149.04023 
L 375.358572 -149.04023 
L 373.945556 -149.04023 
L 372.53254 -149.04023 
L 371.119524 -149.04023 
L 369.706508 -149.04023 
L 368.293492 -149.04023 
L 366.880476 -149.04023 
L 365.46746 -149.04023 
L 364.054444 -149.04023 
L 362.641428 -149.04023 
L 361.228412 -149.04023 
L 359.815396 -149.04023 
L 358.40238 -149.04023 
L 356.989364 -149.04023 
L 355.576348 -149.04023 
L 354.163332 -149.04023 
L 352.750317 -149.04023 
L 351.337301 -149.04023 
L 349.924285 -149.04023 
L 348.511269 -149.377046 
L 347.098253 -149.377046 
L 345.685237 -149.377046 
L 344.272221 -149.377046 
L 342.859205 -149.377046 
L 341.446189 -154.394102 
L 340.033173 -154.394102 
L 338.620157 -154.394102 
L 337.207141 -154.394102 
L 335.794125 -154.394102 
L 334.381109 -163.622515 
L 332.968093 -163.622515 
L 331.555077 -163.622515 
L 330.142061 -163.622515 
L 328.729045 -163.622515 
L 327.316029 -163.622515 
L 325.903013 -173.640908 
L 324.489997 -173.640908 
L 323.076982 -173.640908 
L 321.663966 -173.640908 
L 320.25095 -173.640908 
L 318.837934 -173.749165 
L 317.424918 -173.749165 
L 316.011902 -173.749165 
L 314.598886 -173.749165 
L 313.18587 -173.749165 
L 311.772854 -173.749165 
L 310.359838 -177.183944 
L 308.946822 -177.183944 
L 307.533806 -177.183944 
L 306.12079 -177.183944 
L 304.707774 -177.183944 
L 303.294758 -181.536738 
L 301.881742 -181.536738 
L 300.468726 -181.536738 
L 299.05571 -181.536738 
L 297.642694 -181.536738 
L 296.229678 -181.536738 
L 294.816662 -181.658788 
L 293.403646 -181.658788 
L 291.990631 -181.658788 
L 290.577615 -181.658788 
L 289.164599 -181.658788 
L 287.751583 -181.658788 
L 286.338567 -181.658788 
L 284.925551 -181.658788 
L 283.512535 -181.658788 
L 282.099519 -181.658788 
L 280.686503 -181.658788 
L 279.273487 -181.658788 
L 277.860471 -181.658788 
L 276.447455 -181.658788 
L 275.034439 -181.658788 
L 273.621423 -181.658788 
L 272.208407 -183.006384 
L 270.795391 -183.006384 
L 269.382375 -183.006384 
L 267.969359 -183.006384 
L 266.556343 -183.006384 
L 265.143327 -186.611261 
L 263.730311 -186.611261 
L 262.317296 -186.611261 
L 260.90428 -186.611261 
L 259.491264 -186.611261 
L 258.078248 -186.611261 
L 256.665232 -196.687861 
L 255.252216 -196.687861 
L 253.8392 -196.687861 
L 252.426184 -196.687861 
L 251.013168 -196.687861 
L 249.600152 -219.4821 
L 248.187136 -219.4821 
L 246.77412 -219.4821 
L 245.361104 -219.4821 
L 243.948088 -219.4821 
L 242.535072 -219.4821 
L 241.122056 -224.682662 
L 239.70904 -224.682662 
L 238.296024 -224.682662 
L 236.883008 -224.682662 
L 235.469992 -224.682662 
L 234.056976 -224.395494 
L 232.64396 -224.395494 
L 231.230945 -224.395494 
L 229.817929 -224.395494 
L 228.404913 -224.395494 
L 226.991897 -224.395494 
L 225.578881 -227.002326 
L 224.165865 -227.002326 
L 222.752849 -227.002326 
L 221.339833 -227.002326 
L 219.926817 -227.002326 
L 218.513801 -227.002326 
L 217.100785 -227.002326 
L 215.687769 -227.002326 
L 214.274753 -227.002326 
L 212.861737 -227.002326 
L 211.448721 -227.002326 
L 210.035705 -227.002326 
L 208.622689 -227.002326 
L 207.209673 -227.002326 
L 205.796657 -227.002326 
L 204.383641 -227.002326 
L 202.970625 -227.002326 
L 201.55761 -227.002326 
L 200.144594 -227.002326 
L 198.731578 -227.002326 
L 197.318562 -227.002326 
L 195.905546 -222.212993 
L 194.49253 -222.212993 
L 193.079514 -222.212993 
L 191.666498 -222.212993 
L 190.253482 -222.212993 
L 188.840466 -222.212993 
L 187.42745 -223.722987 
L 186.014434 -223.722987 
L 184.601418 -223.722987 
L 183.188402 -223.722987 
L 181.775386 -223.722987 
L 180.36237 -227.291968 
L 178.949354 -227.291968 
L 177.536338 -227.291968 
L 176.123322 -227.291968 
L 174.710306 -227.291968 
L 173.29729 -227.291968 
L 171.884274 -235.885805 
L 170.471259 -235.885805 
L 169.058243 -235.885805 
L 167.645227 -235.885805 
L 166.232211 -235.885805 
L 164.819195 -240.618864 
L 163.406179 -240.618864 
L 161.993163 -240.618864 
L 160.580147 -240.618864 
L 159.167131 -240.618864 
L 157.754115 -240.618864 
L 156.341099 -242.991981 
L 154.928083 -242.991981 
L 153.515067 -242.991981 
L 152.102051 -242.991981 
L 150.689035 -242.991981 
L 149.276019 -249.88882 
L 147.863003 -249.88882 
L 146.449987 -249.88882 
L 145.036971 -249.88882 
L 143.623955 -249.88882 
L 142.210939 -247.260971 
L 140.797924 -247.260971 
L 139.384908 -247.260971 
L 137.971892 -247.260971 
L 136.558876 -247.260971 
L 135.14586 -247.260971 
L 133.732844 -248.259263 
L 132.319828 -248.259263 
L 130.906812 -248.259263 
L 129.493796 -248.259263 
L 128.08078 -248.259263 
L 126.667764 -248.259263 
L 125.254748 -248.259263 
L 123.841732 -248.259263 
L 122.428716 -248.259263 
L 121.0157 -248.259263 
L 119.602684 -248.259263 
L 118.189668 -248.259263 
L 116.776652 -248.259263 
L 115.363636 -248.259263 
z
" style="stroke: #bddf26; stroke-opacity: 0.2"/>
    </defs>
    <g clip-path="url(#pe1b9bcee7d)">
     <use xlink:href="#m1c793c4d96" x="0" y="360" style="fill: #bddf26; fill-opacity: 0.2; stroke: #bddf26; stroke-opacity: 0.2"/>
    </g>
   </g>
   <g id="matplotlib.axis_1">
    <g id="xtick_1">
     <g id="line2d_1">
      <defs>
       <path id="m2c81a78c72" d="M 0 0 
L 0 3.5 
" style="stroke: #000000; stroke-width: 0.8"/>
      </defs>
      <g>
       <use xlink:href="#m2c81a78c72" x="146.107438" y="320.4" style="stroke: #000000; stroke-width: 0.8"/>
      </g>
     </g>
     <g id="text_1">
      <!-- $\mathdefault{100}$ -->
      <g transform="translate(135.498905 337.431808) scale(0.145 -0.145)">
       <defs>
        <path id="CMR17-31" d="M 1702 4058 
C 1702 4192 1696 4192 1606 4192 
C 1357 3916 979 3827 621 3827 
C 602 3827 570 3827 563 3808 
C 557 3795 557 3782 557 3648 
C 755 3648 1088 3686 1344 3839 
L 1344 461 
C 1344 236 1331 160 781 160 
L 589 160 
L 589 0 
C 896 0 1216 0 1523 0 
C 1830 0 2150 0 2458 0 
L 2458 160 
L 2266 160 
C 1715 160 1702 230 1702 458 
L 1702 4058 
z
" transform="scale(0.015625)"/>
        <path id="CMR17-30" d="M 2688 2025 
C 2688 2416 2682 3080 2413 3591 
C 2176 4039 1798 4198 1466 4198 
C 1158 4198 768 4058 525 3597 
C 269 3118 243 2524 243 2025 
C 243 1661 250 1106 448 619 
C 723 -39 1216 -128 1466 -128 
C 1760 -128 2208 -7 2470 600 
C 2662 1042 2688 1559 2688 2025 
z
M 1466 -26 
C 1056 -26 813 325 723 812 
C 653 1188 653 1738 653 2096 
C 653 2588 653 2997 736 3387 
C 858 3929 1216 4096 1466 4096 
C 1728 4096 2067 3923 2189 3400 
C 2272 3036 2278 2607 2278 2096 
C 2278 1680 2278 1169 2202 792 
C 2067 95 1690 -26 1466 -26 
z
" transform="scale(0.015625)"/>
       </defs>
       <use xlink:href="#CMR17-31" transform="scale(0.996264)"/>
       <use xlink:href="#CMR17-30" transform="translate(45.690477 0) scale(0.996264)"/>
       <use xlink:href="#CMR17-30" transform="translate(91.380954 0) scale(0.996264)"/>
      </g>
     </g>
    </g>
    <g id="xtick_2">
     <g id="line2d_2">
      <g>
       <use xlink:href="#m2c81a78c72" x="222.966942" y="320.4" style="stroke: #000000; stroke-width: 0.8"/>
      </g>
     </g>
     <g id="text_2">
      <!-- $\mathdefault{200}$ -->
      <g transform="translate(212.358409 337.431808) scale(0.145 -0.145)">
       <defs>
        <path id="CMR17-32" d="M 2669 989 
L 2554 989 
C 2490 536 2438 459 2413 420 
C 2381 369 1920 369 1830 369 
L 602 369 
C 832 619 1280 1072 1824 1597 
C 2214 1967 2669 2402 2669 3035 
C 2669 3790 2067 4224 1395 4224 
C 691 4224 262 3604 262 3030 
C 262 2780 448 2748 525 2748 
C 589 2748 781 2787 781 3010 
C 781 3207 614 3264 525 3264 
C 486 3264 448 3258 422 3245 
C 544 3790 915 4058 1306 4058 
C 1862 4058 2227 3617 2227 3035 
C 2227 2479 1901 2000 1536 1584 
L 262 146 
L 262 0 
L 2515 0 
L 2669 989 
z
" transform="scale(0.015625)"/>
       </defs>
       <use xlink:href="#CMR17-32" transform="scale(0.996264)"/>
       <use xlink:href="#CMR17-30" transform="translate(45.690477 0) scale(0.996264)"/>
       <use xlink:href="#CMR17-30" transform="translate(91.380954 0) scale(0.996264)"/>
      </g>
     </g>
    </g>
    <g id="xtick_3">
     <g id="line2d_3">
      <g>
       <use xlink:href="#m2c81a78c72" x="299.826446" y="320.4" style="stroke: #000000; stroke-width: 0.8"/>
      </g>
     </g>
     <g id="text_3">
      <!-- $\mathdefault{300}$ -->
      <g transform="translate(289.217913 337.431808) scale(0.145 -0.145)">
       <defs>
        <path id="CMR17-33" d="M 1414 2157 
C 1984 2157 2234 1662 2234 1090 
C 2234 320 1824 25 1453 25 
C 1114 25 563 194 390 693 
C 422 680 454 680 486 680 
C 640 680 755 782 755 948 
C 755 1133 614 1216 486 1216 
C 378 1216 211 1165 211 926 
C 211 335 787 -128 1466 -128 
C 2176 -128 2720 430 2720 1085 
C 2720 1707 2208 2157 1600 2227 
C 2086 2328 2554 2756 2554 3329 
C 2554 3820 2048 4179 1472 4179 
C 890 4179 378 3829 378 3329 
C 378 3110 544 3072 627 3072 
C 762 3072 877 3155 877 3321 
C 877 3486 762 3569 627 3569 
C 602 3569 570 3569 544 3557 
C 730 3959 1235 4032 1459 4032 
C 1683 4032 2106 3925 2106 3320 
C 2106 3143 2080 2828 1862 2550 
C 1670 2304 1453 2304 1242 2284 
C 1210 2284 1062 2269 1037 2269 
C 992 2263 966 2257 966 2208 
C 966 2163 973 2157 1101 2157 
L 1414 2157 
z
" transform="scale(0.015625)"/>
       </defs>
       <use xlink:href="#CMR17-33" transform="scale(0.996264)"/>
       <use xlink:href="#CMR17-30" transform="translate(45.690477 0) scale(0.996264)"/>
       <use xlink:href="#CMR17-30" transform="translate(91.380954 0) scale(0.996264)"/>
      </g>
     </g>
    </g>
    <g id="xtick_4">
     <g id="line2d_4">
      <g>
       <use xlink:href="#m2c81a78c72" x="376.68595" y="320.4" style="stroke: #000000; stroke-width: 0.8"/>
      </g>
     </g>
     <g id="text_4">
      <!-- $\mathdefault{400}$ -->
      <g transform="translate(366.077417 337.431808) scale(0.145 -0.145)">
       <defs>
        <path id="CMR17-34" d="M 2150 4122 
C 2150 4256 2144 4256 2029 4256 
L 128 1254 
L 128 1088 
L 1779 1088 
L 1779 457 
C 1779 224 1766 160 1318 160 
L 1197 160 
L 1197 0 
C 1402 0 1747 0 1965 0 
C 2182 0 2528 0 2733 0 
L 2733 160 
L 2611 160 
C 2163 160 2150 224 2150 457 
L 2150 1088 
L 2803 1088 
L 2803 1254 
L 2150 1254 
L 2150 4122 
z
M 1798 3703 
L 1798 1254 
L 256 1254 
L 1798 3703 
z
" transform="scale(0.015625)"/>
       </defs>
       <use xlink:href="#CMR17-34" transform="scale(0.996264)"/>
       <use xlink:href="#CMR17-30" transform="translate(45.690477 0) scale(0.996264)"/>
       <use xlink:href="#CMR17-30" transform="translate(91.380954 0) scale(0.996264)"/>
      </g>
     </g>
    </g>
    <g id="xtick_5">
     <g id="line2d_5">
      <g>
       <use xlink:href="#m2c81a78c72" x="453.545455" y="320.4" style="stroke: #000000; stroke-width: 0.8"/>
      </g>
     </g>
     <g id="text_5">
      <!-- $\mathdefault{500}$ -->
      <g transform="translate(442.936921 337.431808) scale(0.145 -0.145)">
       <defs>
        <path id="CMR17-35" d="M 730 3692 
C 794 3666 1056 3584 1325 3584 
C 1920 3584 2246 3911 2432 4100 
C 2432 4157 2432 4192 2394 4192 
C 2387 4192 2374 4192 2323 4163 
C 2099 4058 1837 3973 1517 3973 
C 1325 3973 1037 3999 723 4139 
C 653 4171 640 4171 634 4171 
C 602 4171 595 4164 595 4037 
L 595 2203 
C 595 2089 595 2057 659 2057 
C 691 2057 704 2070 736 2114 
C 941 2401 1222 2522 1542 2522 
C 1766 2522 2246 2382 2246 1289 
C 2246 1085 2246 715 2054 421 
C 1894 159 1645 25 1370 25 
C 947 25 518 320 403 814 
C 429 807 480 795 506 795 
C 589 795 749 840 749 1038 
C 749 1210 627 1280 506 1280 
C 358 1280 262 1190 262 1011 
C 262 454 704 -128 1382 -128 
C 2042 -128 2669 440 2669 1264 
C 2669 2030 2170 2624 1549 2624 
C 1222 2624 947 2503 730 2274 
L 730 3692 
z
" transform="scale(0.015625)"/>
       </defs>
       <use xlink:href="#CMR17-35" transform="scale(0.996264)"/>
       <use xlink:href="#CMR17-30" transform="translate(45.690477 0) scale(0.996264)"/>
       <use xlink:href="#CMR17-30" transform="translate(91.380954 0) scale(0.996264)"/>
      </g>
     </g>
    </g>
    <g id="xtick_6">
     <g id="line2d_6">
      <g>
       <use xlink:href="#m2c81a78c72" x="530.404959" y="320.4" style="stroke: #000000; stroke-width: 0.8"/>
      </g>
     </g>
     <g id="text_6">
      <!-- $\mathdefault{600}$ -->
      <g transform="translate(519.796425 337.431808) scale(0.145 -0.145)">
       <defs>
        <path id="CMR17-36" d="M 678 2176 
C 678 3690 1395 4032 1811 4032 
C 1946 4032 2272 4009 2400 3776 
C 2298 3776 2106 3776 2106 3553 
C 2106 3381 2246 3323 2336 3323 
C 2394 3323 2566 3348 2566 3560 
C 2566 3954 2246 4179 1805 4179 
C 1043 4179 243 3390 243 1984 
C 243 253 966 -128 1478 -128 
C 2099 -128 2688 427 2688 1283 
C 2688 2081 2170 2662 1517 2662 
C 1126 2662 838 2407 678 1960 
L 678 2176 
z
M 1478 25 
C 691 25 691 1200 691 1436 
C 691 1896 909 2560 1504 2560 
C 1613 2560 1926 2560 2138 2120 
C 2253 1870 2253 1609 2253 1289 
C 2253 944 2253 690 2118 434 
C 1978 171 1773 25 1478 25 
z
" transform="scale(0.015625)"/>
       </defs>
       <use xlink:href="#CMR17-36" transform="scale(0.996264)"/>
       <use xlink:href="#CMR17-30" transform="translate(45.690477 0) scale(0.996264)"/>
       <use xlink:href="#CMR17-30" transform="translate(91.380954 0) scale(0.996264)"/>
      </g>
     </g>
    </g>
    <g id="xtick_7">
     <g id="line2d_7">
      <g>
       <use xlink:href="#m2c81a78c72" x="607.264463" y="320.4" style="stroke: #000000; stroke-width: 0.8"/>
      </g>
     </g>
     <g id="text_7">
      <!-- $\mathdefault{700}$ -->
      <g transform="translate(596.655929 337.431808) scale(0.145 -0.145)">
       <defs>
        <path id="CMR17-37" d="M 2886 3941 
L 2886 4081 
L 1382 4081 
C 634 4081 621 4165 595 4288 
L 480 4288 
L 294 3094 
L 410 3094 
C 429 3215 474 3540 550 3661 
C 589 3712 1062 3712 1171 3712 
L 2579 3712 
L 1869 2661 
C 1395 1954 1069 999 1069 165 
C 1069 89 1069 -128 1299 -128 
C 1530 -128 1530 89 1530 171 
L 1530 465 
C 1530 1508 1709 2196 2003 2636 
L 2886 3941 
z
" transform="scale(0.015625)"/>
       </defs>
       <use xlink:href="#CMR17-37" transform="scale(0.996264)"/>
       <use xlink:href="#CMR17-30" transform="translate(45.690477 0) scale(0.996264)"/>
       <use xlink:href="#CMR17-30" transform="translate(91.380954 0) scale(0.996264)"/>
      </g>
     </g>
    </g>
    <g id="text_8">
     <!-- time (s) -->
     <g transform="translate(345.477317 355.075073) scale(0.145 -0.145)">
      <defs>
       <path id="CMSS17-74" d="M 1069 2368 
L 1901 2368 
L 1901 2737 
L 1069 2737 
L 1069 3520 
L 614 3520 
L 614 2737 
L 109 2737 
L 109 2368 
L 602 2368 
L 602 749 
C 602 384 685 -64 1107 -64 
C 1427 -64 1722 25 2003 172 
L 1901 548 
C 1747 414 1562 337 1363 337 
C 1082 337 1069 696 1069 856 
L 1069 2368 
z
" transform="scale(0.015625)"/>
       <path id="CMSS17-69" d="M 979 4183 
L 442 4183 
L 442 3648 
L 979 3648 
L 979 4183 
z
M 947 2739 
L 474 2739 
L 474 0 
L 947 0 
L 947 2739 
z
" transform="scale(0.015625)"/>
       <path id="CMSS17-6d" d="M 4288 1877 
C 4288 2308 4179 2816 3462 2816 
C 2982 2816 2694 2516 2566 2331 
C 2451 2670 2182 2816 1798 2816 
C 1363 2816 1088 2568 941 2389 
L 941 2758 
L 474 2758 
L 474 0 
L 960 0 
L 960 1559 
C 960 1939 1101 2428 1555 2428 
C 2138 2428 2138 2016 2138 1829 
L 2138 0 
L 2624 0 
L 2624 1559 
C 2624 1939 2765 2428 3219 2428 
C 3802 2428 3802 2016 3802 1829 
L 3802 0 
L 4288 0 
L 4288 1877 
z
" transform="scale(0.015625)"/>
       <path id="CMSS17-65" d="M 2502 1377 
C 2502 1590 2490 2003 2285 2345 
C 2061 2713 1696 2816 1421 2816 
C 755 2816 192 2188 192 1375 
C 192 582 774 -64 1510 -64 
C 1798 -64 2150 19 2470 248 
C 2470 274 2458 414 2451 420 
C 2451 433 2432 630 2432 656 
C 2125 407 1773 325 1517 325 
C 1107 325 666 667 646 1377 
L 2502 1377 
z
M 698 1728 
C 781 2084 1062 2421 1421 2421 
C 1517 2421 1965 2421 2080 1728 
L 698 1728 
z
" transform="scale(0.015625)"/>
       <path id="CMSS17-28" d="M 1613 4768 
C 1267 4417 474 3601 474 1588 
C 474 -433 1267 -1243 1613 -1600 
L 2003 -1600 
C 1216 -784 960 357 960 1581 
C 960 2798 1203 3946 2003 4768 
L 1613 4768 
z
" transform="scale(0.015625)"/>
       <path id="CMSS17-73" d="M 2061 2627 
C 1683 2807 1389 2807 1197 2807 
C 742 2807 198 2648 198 2003 
C 198 1359 902 1218 1094 1179 
C 1389 1122 1715 1058 1715 740 
C 1715 337 1254 337 1171 337 
C 915 337 563 407 243 638 
L 166 210 
C 531 0 883 -64 1178 -64 
C 1965 -64 2163 416 2163 781 
C 2163 1094 1984 1305 1862 1401 
C 1651 1568 1574 1587 1050 1696 
C 960 1709 646 1779 646 2066 
C 646 2432 1050 2432 1139 2432 
C 1555 2432 1811 2303 1984 2208 
L 2061 2627 
z
" transform="scale(0.015625)"/>
       <path id="CMSS17-29" d="M 723 -1600 
C 1069 -1249 1862 -433 1862 1581 
C 1862 3601 1069 4411 723 4768 
L 333 4768 
C 1120 3952 1376 2811 1376 1588 
C 1376 370 1133 -778 333 -1600 
L 723 -1600 
z
" transform="scale(0.015625)"/>
      </defs>
      <use xlink:href="#CMSS17-74" transform="scale(0.996264)"/>
      <use xlink:href="#CMSS17-69" transform="translate(33.831567 0) scale(0.996264)"/>
      <use xlink:href="#CMSS17-6d" transform="translate(56.01229 0) scale(0.996264)"/>
      <use xlink:href="#CMSS17-65" transform="translate(130.241544 0) scale(0.996264)"/>
      <use xlink:href="#CMSS17-28" transform="translate(203.109479 0) scale(0.996264)"/>
      <use xlink:href="#CMSS17-73" transform="translate(239.543393 0) scale(0.996264)"/>
      <use xlink:href="#CMSS17-29" transform="translate(275.456935 0) scale(0.996264)"/>
     </g>
    </g>
   </g>
   <g id="matplotlib.axis_2">
    <g id="ytick_1">
     <g id="line2d_8">
      <path d="M 90 320.4 
L 648 320.4 
" clip-path="url(#pe1b9bcee7d)" style="fill: none; stroke-dasharray: 1.85,0.8; stroke-dashoffset: 0; stroke: #808080; stroke-width: 0.5"/>
     </g>
     <g id="line2d_9">
      <defs>
       <path id="m6b288ac860" d="M 0 0 
L -3.5 0 
" style="stroke: #000000; stroke-width: 0.8"/>
      </defs>
      <g>
       <use xlink:href="#m6b288ac860" x="90" y="320.4" style="stroke: #000000; stroke-width: 0.8"/>
      </g>
     </g>
     <g id="text_9">
      <!-- $\mathdefault{0.0}$ -->
      <g transform="translate(64.926206 325.415904) scale(0.145 -0.145)">
       <defs>
        <path id="CMMI12-3a" d="M 1178 307 
C 1178 492 1024 619 870 619 
C 685 619 557 466 557 313 
C 557 128 710 0 864 0 
C 1050 0 1178 153 1178 307 
z
" transform="scale(0.015625)"/>
       </defs>
       <use xlink:href="#CMR17-30" transform="scale(0.996264)"/>
       <use xlink:href="#CMMI12-3a" transform="translate(45.690477 0) scale(0.996264)"/>
       <use xlink:href="#CMR17-30" transform="translate(72.787654 0) scale(0.996264)"/>
      </g>
     </g>
    </g>
    <g id="ytick_2">
     <g id="line2d_10">
      <path d="M 90 267.6 
L 648 267.6 
" clip-path="url(#pe1b9bcee7d)" style="fill: none; stroke-dasharray: 1.85,0.8; stroke-dashoffset: 0; stroke: #808080; stroke-width: 0.5"/>
     </g>
     <g id="line2d_11">
      <g>
       <use xlink:href="#m6b288ac860" x="90" y="267.6" style="stroke: #000000; stroke-width: 0.8"/>
      </g>
     </g>
     <g id="text_10">
      <!-- $\mathdefault{0.2}$ -->
      <g transform="translate(64.926206 272.615904) scale(0.145 -0.145)">
       <use xlink:href="#CMR17-30" transform="scale(0.996264)"/>
       <use xlink:href="#CMMI12-3a" transform="translate(45.690477 0) scale(0.996264)"/>
       <use xlink:href="#CMR17-32" transform="translate(72.787654 0) scale(0.996264)"/>
      </g>
     </g>
    </g>
    <g id="ytick_3">
     <g id="line2d_12">
      <path d="M 90 214.8 
L 648 214.8 
" clip-path="url(#pe1b9bcee7d)" style="fill: none; stroke-dasharray: 1.85,0.8; stroke-dashoffset: 0; stroke: #808080; stroke-width: 0.5"/>
     </g>
     <g id="line2d_13">
      <g>
       <use xlink:href="#m6b288ac860" x="90" y="214.8" style="stroke: #000000; stroke-width: 0.8"/>
      </g>
     </g>
     <g id="text_11">
      <!-- $\mathdefault{0.4}$ -->
      <g transform="translate(64.926206 219.815904) scale(0.145 -0.145)">
       <use xlink:href="#CMR17-30" transform="scale(0.996264)"/>
       <use xlink:href="#CMMI12-3a" transform="translate(45.690477 0) scale(0.996264)"/>
       <use xlink:href="#CMR17-34" transform="translate(72.787654 0) scale(0.996264)"/>
      </g>
     </g>
    </g>
    <g id="ytick_4">
     <g id="line2d_14">
      <path d="M 90 162 
L 648 162 
" clip-path="url(#pe1b9bcee7d)" style="fill: none; stroke-dasharray: 1.85,0.8; stroke-dashoffset: 0; stroke: #808080; stroke-width: 0.5"/>
     </g>
     <g id="line2d_15">
      <g>
       <use xlink:href="#m6b288ac860" x="90" y="162" style="stroke: #000000; stroke-width: 0.8"/>
      </g>
     </g>
     <g id="text_12">
      <!-- $\mathdefault{0.6}$ -->
      <g transform="translate(64.926206 167.015904) scale(0.145 -0.145)">
       <use xlink:href="#CMR17-30" transform="scale(0.996264)"/>
       <use xlink:href="#CMMI12-3a" transform="translate(45.690477 0) scale(0.996264)"/>
       <use xlink:href="#CMR17-36" transform="translate(72.787654 0) scale(0.996264)"/>
      </g>
     </g>
    </g>
    <g id="ytick_5">
     <g id="line2d_16">
      <path d="M 90 109.2 
L 648 109.2 
" clip-path="url(#pe1b9bcee7d)" style="fill: none; stroke-dasharray: 1.85,0.8; stroke-dashoffset: 0; stroke: #808080; stroke-width: 0.5"/>
     </g>
     <g id="line2d_17">
      <g>
       <use xlink:href="#m6b288ac860" x="90" y="109.2" style="stroke: #000000; stroke-width: 0.8"/>
      </g>
     </g>
     <g id="text_13">
      <!-- $\mathdefault{0.8}$ -->
      <g transform="translate(64.926206 114.215904) scale(0.145 -0.145)">
       <defs>
        <path id="CMR17-38" d="M 1741 2264 
C 2144 2467 2554 2773 2554 3263 
C 2554 3841 1990 4179 1472 4179 
C 890 4179 378 3759 378 3180 
C 378 3021 416 2747 666 2505 
C 730 2442 998 2251 1171 2130 
C 883 1983 211 1634 211 934 
C 211 279 838 -128 1459 -128 
C 2144 -128 2720 362 2720 1010 
C 2720 1590 2330 1857 2074 2029 
L 1741 2264 
z
M 902 2822 
C 851 2854 595 3051 595 3351 
C 595 3739 998 4032 1459 4032 
C 1965 4032 2336 3676 2336 3262 
C 2336 2669 1670 2331 1638 2331 
C 1632 2331 1626 2331 1574 2370 
L 902 2822 
z
M 2080 1519 
C 2176 1449 2483 1240 2483 851 
C 2483 381 2010 25 1472 25 
C 890 25 448 438 448 940 
C 448 1443 838 1862 1280 2060 
L 2080 1519 
z
" transform="scale(0.015625)"/>
       </defs>
       <use xlink:href="#CMR17-30" transform="scale(0.996264)"/>
       <use xlink:href="#CMMI12-3a" transform="translate(45.690477 0) scale(0.996264)"/>
       <use xlink:href="#CMR17-38" transform="translate(72.787654 0) scale(0.996264)"/>
      </g>
     </g>
    </g>
    <g id="ytick_6">
     <g id="line2d_18">
      <path d="M 90 56.4 
L 648 56.4 
" clip-path="url(#pe1b9bcee7d)" style="fill: none; stroke-dasharray: 1.85,0.8; stroke-dashoffset: 0; stroke: #808080; stroke-width: 0.5"/>
     </g>
     <g id="line2d_19">
      <g>
       <use xlink:href="#m6b288ac860" x="90" y="56.4" style="stroke: #000000; stroke-width: 0.8"/>
      </g>
     </g>
     <g id="text_14">
      <!-- $\mathdefault{1.0}$ -->
      <g transform="translate(64.926206 61.415904) scale(0.145 -0.145)">
       <use xlink:href="#CMR17-31" transform="scale(0.996264)"/>
       <use xlink:href="#CMMI12-3a" transform="translate(45.690477 0) scale(0.996264)"/>
       <use xlink:href="#CMR17-30" transform="translate(72.787654 0) scale(0.996264)"/>
      </g>
     </g>
    </g>
    <g id="text_15">
     <!-- QoS -->
     <g transform="translate(58.117312 194.481753) rotate(-90) scale(0.145 -0.145)">
      <defs>
       <path id="CMSS17-51" d="M 3200 202 
C 3981 833 4096 1689 4096 2174 
C 4096 3501 3219 4497 2214 4497 
C 1210 4497 333 3497 333 2178 
C 333 847 1222 -128 2214 -128 
C 2438 -128 2630 -77 2765 -26 
L 3302 -832 
L 3930 -832 
L 3200 202 
z
M 2528 324 
C 2438 293 2330 273 2214 273 
C 1523 273 858 993 858 2178 
C 858 3357 1517 4096 2214 4096 
C 2918 4096 3571 3350 3571 2178 
C 3571 1771 3507 1089 2950 566 
L 2490 1210 
L 1939 1210 
L 2528 324 
z
" transform="scale(0.015625)"/>
       <path id="CMSS17-6f" d="M 2829 1356 
C 2829 2176 2221 2816 1504 2816 
C 768 2816 173 2157 173 1356 
C 173 544 787 -64 1498 -64 
C 2227 -64 2829 563 2829 1356 
z
M 1504 337 
C 1050 337 659 709 659 1408 
C 659 2151 1114 2427 1498 2427 
C 1914 2427 2342 2126 2342 1408 
C 2342 683 1926 337 1504 337 
z
" transform="scale(0.015625)"/>
       <path id="CMSS17-53" d="M 2797 4169 
C 2515 4334 2208 4480 1690 4480 
C 864 4480 333 3879 333 3266 
C 333 3025 403 2753 653 2475 
C 902 2196 1184 2121 1542 2033 
C 1690 1994 1939 1924 1984 1906 
C 2342 1767 2515 1444 2515 1140 
C 2515 742 2202 318 1645 318 
C 1453 318 890 318 358 819 
L 269 318 
C 794 -64 1363 -128 1651 -128 
C 2438 -128 3002 488 3002 1186 
C 3002 1440 2925 1763 2656 2061 
C 2394 2347 2163 2410 1638 2549 
C 1338 2626 1146 2677 986 2873 
C 877 3013 819 3146 819 3317 
C 819 3673 1126 4060 1690 4060 
C 1971 4060 2336 4002 2707 3660 
L 2797 4169 
z
" transform="scale(0.015625)"/>
      </defs>
      <use xlink:href="#CMSS17-51" transform="scale(0.996264)"/>
      <use xlink:href="#CMSS17-6f" transform="translate(69.024255 0) scale(0.996264)"/>
      <use xlink:href="#CMSS17-53" transform="translate(115.867879 0) scale(0.996264)"/>
     </g>
    </g>
   </g>
   <g id="line2d_20">
    <path d="M 115.363636 83.35572 
L 149.276019 83.35572 
L 150.689035 93.91572 
L 164.819195 93.915456 
L 166.232211 104.47572 
L 171.884274 104.47572 
L 173.29729 114.202272 
L 180.36237 114.202272 
L 181.775386 119.481744 
L 187.42745 119.481744 
L 188.840466 120.593184 
L 225.578881 120.593184 
L 226.991897 126.429696 
L 234.056976 126.429696 
L 235.469992 126.985416 
L 241.122056 126.985416 
L 242.535072 132.8214 
L 249.600152 132.8214 
L 251.013168 148.938864 
L 256.665232 148.938864 
L 258.078248 153.384888 
L 265.143327 153.384888 
L 266.556343 155.60856 
L 272.208407 155.60856 
L 273.621423 157.831704 
L 279.273487 157.831704 
L 280.686503 157.553712 
L 287.751583 157.553712 
L 289.164599 157.831704 
L 294.816662 157.831704 
L 296.229678 159.498864 
L 303.294758 159.498864 
L 304.707774 162.277992 
L 310.359838 162.277992 
L 311.772854 165.890304 
L 318.837934 165.890304 
L 320.25095 166.168296 
L 325.903013 166.168296 
L 327.316029 179.785416 
L 334.381109 179.785416 
L 335.794125 192.846024 
L 341.446189 192.846024 
L 342.859205 196.180344 
L 356.989364 196.180344 
L 358.40238 196.736328 
L 364.054444 196.736328 
L 365.46746 197.014056 
L 388.075715 197.014056 
L 389.488731 166.724544 
L 395.140795 166.724544 
L 396.553811 161.166552 
L 402.205875 161.166552 
L 403.618891 160.88856 
L 441.770322 160.88856 
L 443.183338 161.166552 
L 448.835401 161.166552 
L 450.248417 160.88856 
L 464.378577 160.88856 
L 465.791593 150.050568 
L 471.443657 150.050568 
L 472.856673 126.985416 
L 479.921752 126.985416 
L 481.334768 122.538864 
L 540.681438 122.538864 
L 542.094454 121.426896 
L 549.159534 121.426896 
L 550.57255 92.804544 
L 556.224614 92.804544 
L 557.63763 91.415112 
L 564.70271 91.415112 
L 566.115726 91.693104 
L 571.767789 91.693104 
L 573.180805 92.526816 
L 580.245885 92.526816 
L 581.658901 91.415112 
L 622.636364 91.415112 
L 622.636364 91.415112 
" clip-path="url(#pe1b9bcee7d)" style="fill: none; stroke: #482475; stroke-width: 2.5; stroke-linecap: square"/>
   </g>
   <g id="line2d_21">
    <path d="M 115.363636 88.357728 
L 133.732844 88.357728 
L 135.14586 89.191176 
L 142.210939 89.191176 
L 143.623955 87.802008 
L 149.276019 87.802008 
L 150.689035 97.250304 
L 156.341099 97.250304 
L 157.754115 100.585152 
L 164.819195 100.585152 
L 166.232211 105.031176 
L 171.884274 105.031176 
L 173.29729 116.425416 
L 180.36237 116.425416 
L 181.775386 121.42716 
L 187.42745 121.42716 
L 188.840466 122.538864 
L 195.905546 122.538864 
L 197.318562 119.482008 
L 225.578881 119.482008 
L 226.991897 124.206552 
L 234.056976 124.206552 
L 235.469992 123.92856 
L 241.122056 123.92856 
L 242.535072 128.652576 
L 249.600152 128.652576 
L 251.013168 146.160264 
L 256.665232 146.160264 
L 258.078248 154.496592 
L 265.143327 154.496592 
L 266.556343 156.442272 
L 272.208407 156.442272 
L 273.621423 156.997992 
L 294.816662 156.997992 
L 296.229678 157.27572 
L 303.294758 157.27572 
L 304.707774 159.776856 
L 310.359838 159.776856 
L 311.772854 162.555456 
L 318.837934 162.555456 
L 320.25095 162.833448 
L 325.903013 162.833448 
L 327.316029 177.006288 
L 334.381109 177.006288 
L 335.794125 190.62288 
L 341.446189 190.62288 
L 342.859205 193.957464 
L 348.511269 193.957464 
L 349.924285 194.513184 
L 388.075715 194.513184 
L 389.488731 161.722536 
L 395.140795 161.722536 
L 396.553811 157.275984 
L 402.205875 157.275984 
L 403.618891 156.442272 
L 417.74905 156.442008 
L 419.162066 156.16428 
L 426.227146 156.16428 
L 427.640162 156.997992 
L 441.770322 156.997992 
L 443.183338 157.275984 
L 448.835401 157.275984 
L 450.248417 156.997992 
L 464.378577 156.997992 
L 465.791593 145.326288 
L 471.443657 145.326288 
L 472.856673 122.816856 
L 479.921752 122.816856 
L 481.334768 119.482008 
L 533.616359 119.482008 
L 535.029375 119.204016 
L 540.681438 119.204016 
L 542.094454 118.092576 
L 549.159534 118.092576 
L 550.57255 83.077728 
L 556.224614 83.077728 
L 557.63763 81.132048 
L 564.70271 81.132048 
L 566.115726 80.85432 
L 571.767789 80.85432 
L 573.180805 81.132312 
L 580.245885 81.132312 
L 581.658901 80.576328 
L 587.310965 80.576328 
L 588.723981 80.85432 
L 594.376045 80.85432 
L 595.789061 80.576328 
L 622.636364 80.576328 
L 622.636364 80.576328 
" clip-path="url(#pe1b9bcee7d)" style="fill: none; stroke: #bddf26; stroke-width: 2.5; stroke-linecap: square"/>
   </g>
   <g id="patch_3">
    <path d="M 90 320.4 
L 90 43.2 
" style="fill: none; stroke: #000000; stroke-width: 0.8; stroke-linejoin: miter; stroke-linecap: square"/>
   </g>
   <g id="patch_4">
    <path d="M 648 320.4 
L 648 43.2 
" style="fill: none; stroke: #000000; stroke-width: 0.8; stroke-linejoin: miter; stroke-linecap: square"/>
   </g>
   <g id="patch_5">
    <path d="M 90 320.4 
L 648 320.4 
" style="fill: none; stroke: #000000; stroke-width: 0.8; stroke-linejoin: miter; stroke-linecap: square"/>
   </g>
   <g id="text_16">
    <!-- $nt=Lobster$ $d=100$ $oc=1\%$ $l=costant$ -->
    <g transform="translate(209.842933 37.2) scale(0.18 -0.18)">
     <defs>
      <path id="CMMI12-6e" d="M 1318 1871 
C 1331 1910 1491 2229 1728 2433 
C 1894 2586 2112 2689 2362 2689 
C 2618 2689 2707 2497 2707 2242 
C 2707 1878 2445 1150 2317 805 
C 2259 651 2227 568 2227 453 
C 2227 166 2426 -64 2733 -64 
C 3328 -64 3552 875 3552 913 
C 3552 945 3526 971 3488 971 
C 3430 971 3424 952 3392 843 
C 3245 319 3002 64 2752 64 
C 2688 64 2586 64 2586 269 
C 2586 429 2656 621 2694 710 
C 2822 1063 3091 1780 3091 2145 
C 3091 2528 2867 2816 2381 2816 
C 1811 2816 1510 2415 1395 2255 
C 1376 2618 1114 2816 832 2816 
C 627 2816 486 2695 378 2478 
C 262 2248 173 1865 173 1839 
C 173 1814 198 1782 243 1782 
C 294 1782 301 1788 339 1935 
C 442 2325 557 2689 813 2689 
C 960 2689 1011 2586 1011 2395 
C 1011 2254 947 2005 902 1807 
L 723 1118 
C 698 996 627 709 595 594 
C 550 428 480 128 480 96 
C 480 6 550 -64 646 -64 
C 723 -64 813 -26 864 70 
C 877 102 934 326 966 453 
L 1107 1028 
L 1318 1871 
z
" transform="scale(0.015625)"/>
      <path id="CMMI12-74" d="M 1286 2566 
L 1875 2566 
C 1997 2566 2061 2566 2061 2681 
C 2061 2752 2022 2752 1894 2752 
L 1331 2752 
L 1568 3692 
C 1594 3781 1594 3794 1594 3840 
C 1594 3943 1510 4000 1427 4000 
C 1376 4000 1229 3981 1178 3775 
L 928 2752 
L 326 2752 
C 198 2752 141 2752 141 2630 
C 141 2566 186 2566 307 2566 
L 877 2566 
L 454 881 
C 403 658 384 594 384 511 
C 384 211 595 -64 954 -64 
C 1600 -64 1946 868 1946 912 
C 1946 951 1920 970 1882 970 
C 1869 970 1843 970 1830 944 
C 1824 938 1818 931 1773 829 
C 1638 511 1344 64 973 64 
C 781 64 768 224 768 364 
C 768 370 768 492 787 568 
L 1286 2566 
z
" transform="scale(0.015625)"/>
      <path id="CMR17-3d" d="M 4115 2017 
C 4211 2017 4307 2017 4307 2125 
C 4307 2240 4198 2240 4090 2240 
L 512 2240 
C 403 2240 294 2240 294 2125 
C 294 2017 390 2017 486 2017 
L 4115 2017 
z
M 4090 896 
C 4198 896 4307 896 4307 1011 
C 4307 1119 4211 1119 4115 1119 
L 486 1119 
C 390 1119 294 1119 294 1011 
C 294 896 403 896 512 896 
L 4090 896 
z
" transform="scale(0.015625)"/>
      <path id="CMMI12-4c" d="M 2349 3861 
C 2406 4103 2426 4167 2989 4167 
C 3162 4167 3206 4167 3206 4288 
C 3206 4352 3136 4352 3110 4352 
C 2982 4352 2835 4352 2707 4352 
L 1850 4352 
C 1728 4352 1587 4352 1466 4352 
C 1414 4352 1344 4352 1344 4231 
C 1344 4167 1402 4167 1498 4167 
C 1888 4167 1888 4116 1888 4046 
C 1888 4034 1888 3995 1862 3899 
L 998 472 
C 941 249 928 185 480 185 
C 358 185 294 185 294 70 
C 294 0 333 0 461 0 
L 3328 0 
C 3469 0 3475 6 3520 121 
L 4013 1478 
C 4026 1510 4038 1548 4038 1567 
C 4038 1605 4006 1631 3974 1631 
C 3968 1631 3936 1631 3923 1605 
C 3910 1599 3910 1586 3859 1465 
C 3654 905 3366 185 2285 185 
L 1670 185 
C 1581 185 1568 185 1530 192 
C 1459 198 1453 211 1453 262 
C 1453 307 1466 345 1478 401 
L 2349 3861 
z
" transform="scale(0.015625)"/>
      <path id="CMMI12-6f" d="M 2918 1756 
C 2918 2363 2522 2816 1939 2816 
C 1094 2816 262 1897 262 996 
C 262 390 659 -64 1242 -64 
C 2093 -64 2918 856 2918 1756 
z
M 1248 64 
C 928 64 691 319 691 766 
C 691 1060 845 1712 1024 2031 
C 1312 2523 1670 2689 1933 2689 
C 2246 2689 2490 2433 2490 1986 
C 2490 1731 2355 1047 2112 658 
C 1850 230 1498 64 1248 64 
z
" transform="scale(0.015625)"/>
      <path id="CMMI12-62" d="M 1478 4257 
C 1485 4283 1498 4321 1498 4352 
C 1498 4416 1434 4416 1421 4416 
C 1414 4416 1184 4393 1069 4377 
C 960 4377 864 4358 749 4358 
C 595 4345 550 4339 550 4224 
C 550 4160 614 4160 678 4160 
C 1005 4160 1005 4103 1005 4040 
C 1005 3996 954 3811 928 3696 
L 774 3085 
C 710 2831 346 1387 320 1272 
C 288 1114 288 1005 288 922 
C 288 274 653 -64 1069 -64 
C 1811 -64 2579 888 2579 1814 
C 2579 2401 2246 2816 1766 2816 
C 1434 2816 1133 2542 1011 2414 
L 1478 4257 
z
M 1075 64 
C 870 64 646 217 646 715 
C 646 926 666 1047 781 1494 
C 800 1577 902 1986 928 2069 
C 941 2120 1318 2689 1754 2689 
C 2035 2689 2163 2408 2163 2076 
C 2163 1769 1984 1047 1824 715 
C 1664 370 1370 64 1075 64 
z
" transform="scale(0.015625)"/>
      <path id="CMMI12-73" d="M 1459 1280 
C 1568 1261 1741 1223 1779 1216 
C 1862 1192 2150 1090 2150 783 
C 2150 586 1971 70 1229 70 
C 1094 70 614 70 486 436 
C 742 404 870 603 870 745 
C 870 880 781 950 653 950 
C 512 950 326 841 326 552 
C 326 173 710 -64 1222 -64 
C 2195 -64 2483 651 2483 984 
C 2483 1079 2483 1258 2278 1462 
C 2118 1616 1965 1648 1619 1718 
C 1446 1756 1171 1814 1171 2101 
C 1171 2229 1286 2689 1894 2689 
C 2163 2689 2426 2589 2490 2368 
C 2208 2368 2195 2125 2195 2119 
C 2195 1984 2317 1946 2374 1946 
C 2464 1946 2643 2015 2643 2281 
C 2643 2545 2400 2816 1901 2816 
C 1062 2816 838 2160 838 1899 
C 838 1414 1312 1312 1459 1280 
z
" transform="scale(0.015625)"/>
      <path id="CMMI12-65" d="M 1146 1479 
C 1318 1479 1754 1479 2061 1595 
C 2547 1783 2592 2158 2592 2274 
C 2592 2558 2349 2816 1926 2816 
C 1254 2816 288 2210 288 1073 
C 288 402 672 -64 1254 -64 
C 2125 -64 2675 609 2675 692 
C 2675 730 2637 762 2611 762 
C 2592 762 2586 756 2528 699 
C 2118 159 1510 64 1267 64 
C 902 64 710 350 710 822 
C 710 911 710 1071 806 1479 
L 1146 1479 
z
M 838 1600 
C 1114 2592 1722 2689 1926 2689 
C 2208 2689 2400 2522 2400 2277 
C 2400 1600 1376 1600 1107 1600 
L 838 1600 
z
" transform="scale(0.015625)"/>
      <path id="CMMI12-72" d="M 2490 2612 
C 2291 2574 2189 2433 2189 2293 
C 2189 2139 2310 2088 2400 2088 
C 2579 2088 2726 2242 2726 2433 
C 2726 2638 2528 2816 2208 2816 
C 1952 2816 1658 2701 1389 2312 
C 1344 2650 1088 2816 832 2816 
C 582 2816 454 2625 378 2484 
C 269 2254 173 1871 173 1839 
C 173 1814 198 1782 243 1782 
C 294 1782 301 1788 339 1935 
C 435 2318 557 2689 813 2689 
C 966 2689 1011 2580 1011 2395 
C 1011 2254 947 2005 902 1807 
L 723 1118 
C 698 996 627 709 595 594 
C 550 428 480 128 480 96 
C 480 6 550 -64 646 -64 
C 717 -64 838 -19 877 109 
C 896 160 1133 1124 1171 1271 
C 1203 1411 1242 1546 1274 1686 
C 1299 1775 1325 1878 1344 1961 
C 1363 2018 1536 2331 1696 2472 
C 1773 2542 1939 2689 2202 2689 
C 2304 2689 2406 2670 2490 2612 
z
" transform="scale(0.015625)"/>
      <path id="CMMI12-64" d="M 3219 4257 
C 3226 4282 3238 4320 3238 4352 
C 3238 4416 3174 4416 3162 4416 
C 3155 4416 2842 4388 2810 4380 
C 2701 4373 2605 4358 2490 4358 
C 2330 4345 2285 4339 2285 4224 
C 2285 4160 2336 4160 2426 4160 
C 2739 4160 2746 4103 2746 4040 
C 2746 4002 2733 3952 2726 3933 
L 2336 2395 
C 2266 2561 2093 2816 1760 2816 
C 1037 2816 256 1884 256 939 
C 256 307 627 -64 1062 -64 
C 1414 -64 1715 211 1894 422 
C 1958 45 2259 -64 2451 -64 
C 2643 -64 2797 51 2912 281 
C 3014 498 3104 888 3104 913 
C 3104 945 3078 971 3040 971 
C 2982 971 2976 939 2950 843 
C 2854 466 2733 64 2470 64 
C 2285 64 2272 229 2272 357 
C 2272 382 2272 515 2317 694 
L 3219 4257 
z
M 1926 760 
C 1894 651 1894 639 1805 517 
C 1664 338 1382 64 1082 64 
C 819 64 672 300 672 677 
C 672 1028 870 1743 992 2012 
C 1210 2459 1510 2689 1760 2689 
C 2182 2689 2266 2165 2266 2114 
C 2266 2108 2246 2024 2240 2012 
L 1926 760 
z
" transform="scale(0.015625)"/>
      <path id="CMMI12-63" d="M 2502 2431 
C 2381 2431 2323 2431 2234 2355 
C 2195 2323 2125 2227 2125 2125 
C 2125 1997 2221 1920 2342 1920 
C 2496 1920 2669 2044 2669 2292 
C 2669 2588 2374 2816 1933 2816 
C 1094 2816 256 1903 256 996 
C 256 441 602 -64 1254 -64 
C 2125 -64 2675 622 2675 706 
C 2675 744 2637 776 2611 776 
C 2592 776 2586 770 2528 713 
C 2118 162 1510 64 1267 64 
C 826 64 685 446 685 764 
C 685 988 794 1605 1024 2039 
C 1190 2338 1536 2682 1939 2682 
C 2022 2682 2374 2682 2502 2431 
z
" transform="scale(0.015625)"/>
      <path id="CMR17-25" d="M 4640 959 
C 4640 1698 4275 2240 3846 2240 
C 3411 2240 2970 1736 2970 959 
C 2970 183 3405 -320 3846 -320 
C 4275 -320 4640 215 4640 959 
z
M 3853 -218 
C 3686 -218 3270 -66 3270 959 
C 3270 1991 3686 2138 3853 2138 
C 4205 2138 4525 1634 4525 959 
C 4525 285 4205 -218 3853 -218 
z
M 4083 4577 
C 4128 4647 4134 4653 4134 4685 
C 4134 4761 4077 4800 4026 4800 
C 3962 4800 3936 4756 3891 4706 
C 3520 4190 3008 4134 2746 4134 
C 2106 4134 1715 4494 1594 4607 
C 1510 4682 1389 4800 1171 4800 
C 736 4800 294 4296 294 3519 
C 294 2743 730 2240 1171 2240 
C 1600 2240 1965 2778 1965 3527 
C 1965 3969 1830 4270 1811 4308 
C 2202 4064 2586 4032 2752 4032 
C 3162 4032 3456 4183 3616 4289 
L 3622 4283 
L 858 -84 
C 800 -174 800 -187 800 -206 
C 800 -276 858 -320 915 -320 
C 973 -320 992 -289 1037 -218 
L 4083 4577 
z
M 1178 2342 
C 1011 2342 595 2494 595 3519 
C 595 4551 1011 4698 1178 4698 
C 1530 4698 1850 4194 1850 3519 
C 1850 2845 1530 2342 1178 2342 
z
" transform="scale(0.015625)"/>
      <path id="CMMI12-6c" d="M 1626 4257 
C 1632 4282 1645 4320 1645 4352 
C 1645 4416 1581 4416 1568 4416 
C 1562 4416 1331 4393 1216 4377 
C 1107 4377 1011 4358 896 4358 
C 742 4345 698 4339 698 4224 
C 698 4160 762 4160 826 4160 
C 1152 4160 1152 4102 1152 4039 
C 1152 4014 1152 4001 1120 3887 
L 326 731 
C 307 661 294 610 294 509 
C 294 191 531 -64 858 -64 
C 1069 -64 1210 76 1312 274 
C 1421 483 1510 884 1510 909 
C 1510 941 1485 967 1446 967 
C 1389 967 1382 935 1357 840 
C 1242 401 1126 64 870 64 
C 678 64 678 267 678 357 
C 678 382 678 515 723 694 
L 1626 4257 
z
" transform="scale(0.015625)"/>
      <path id="CMMI12-61" d="M 1926 760 
C 1894 651 1894 639 1805 517 
C 1664 338 1382 64 1082 64 
C 819 64 672 300 672 677 
C 672 1028 870 1743 992 2012 
C 1210 2459 1510 2689 1760 2689 
C 2182 2689 2266 2165 2266 2114 
C 2266 2108 2246 2024 2240 2012 
L 1926 760 
z
M 2336 2395 
C 2266 2561 2093 2816 1760 2816 
C 1037 2816 256 1884 256 939 
C 256 307 627 -64 1062 -64 
C 1414 -64 1715 211 1894 422 
C 1958 45 2259 -64 2451 -64 
C 2643 -64 2797 51 2912 281 
C 3014 498 3104 888 3104 913 
C 3104 945 3078 971 3040 971 
C 2982 971 2976 939 2950 843 
C 2854 466 2733 64 2470 64 
C 2285 64 2272 230 2272 358 
C 2272 505 2291 575 2349 824 
C 2394 984 2426 1124 2477 1309 
C 2714 2267 2771 2497 2771 2535 
C 2771 2625 2701 2695 2605 2695 
C 2400 2695 2349 2472 2336 2395 
z
" transform="scale(0.015625)"/>
     </defs>
     <use xlink:href="#CMMI12-6e" transform="scale(0.996264)"/>
     <use xlink:href="#CMMI12-74" transform="translate(58.230047 0) scale(0.996264)"/>
     <use xlink:href="#CMR17-3d" transform="translate(121.130386 0) scale(0.996264)"/>
     <use xlink:href="#CMMI12-4c" transform="translate(220.519183 0) scale(0.996264)"/>
     <use xlink:href="#CMMI12-6f" transform="translate(286.890059 0) scale(0.996264)"/>
     <use xlink:href="#CMMI12-62" transform="translate(333.785368 0) scale(0.996264)"/>
     <use xlink:href="#CMMI12-73" transform="translate(375.261243 0) scale(0.996264)"/>
     <use xlink:href="#CMMI12-74" transform="translate(421.21129 0) scale(0.996264)"/>
     <use xlink:href="#CMMI12-65" transform="translate(456.43762 0) scale(0.996264)"/>
     <use xlink:href="#CMMI12-72" transform="translate(501.649621 0) scale(0.996264)"/>
     <use xlink:href="#CMMI12-64" transform="translate(579.549346 0) scale(0.996264)"/>
     <use xlink:href="#CMR17-3d" transform="translate(657.912452 0) scale(0.996264)"/>
     <use xlink:href="#CMR17-31" transform="translate(757.301249 0) scale(0.996264)"/>
     <use xlink:href="#CMR17-30" transform="translate(802.991726 0) scale(0.996264)"/>
     <use xlink:href="#CMR17-30" transform="translate(848.682203 0) scale(0.996264)"/>
     <use xlink:href="#CMMI12-6f" transform="translate(925.601793 0) scale(0.996264)"/>
     <use xlink:href="#CMMI12-63" transform="translate(972.497103 0) scale(0.996264)"/>
     <use xlink:href="#CMR17-3d" transform="translate(1042.154345 0) scale(0.996264)"/>
     <use xlink:href="#CMR17-31" transform="translate(1141.543142 0) scale(0.996264)"/>
     <use xlink:href="#CMR17-25" transform="translate(1187.233619 0) scale(0.996264)"/>
     <use xlink:href="#CMMI12-6c" transform="translate(1295.382322 0) scale(0.996264)"/>
     <use xlink:href="#CMR17-3d" transform="translate(1354.304734 0) scale(0.996264)"/>
     <use xlink:href="#CMMI12-63" transform="translate(1453.693531 0) scale(0.996264)"/>
     <use xlink:href="#CMMI12-6f" transform="translate(1495.676765 0) scale(0.996264)"/>
     <use xlink:href="#CMMI12-73" transform="translate(1542.572075 0) scale(0.996264)"/>
     <use xlink:href="#CMMI12-74" transform="translate(1588.522122 0) scale(0.996264)"/>
     <use xlink:href="#CMMI12-61" transform="translate(1623.748452 0) scale(0.996264)"/>
     <use xlink:href="#CMMI12-6e" transform="translate(1674.95631 0) scale(0.996264)"/>
     <use xlink:href="#CMMI12-74" transform="translate(1733.186357 0) scale(0.996264)"/>
    </g>
   </g>
  </g>
  <g id="axes_2">
   <g id="matplotlib.axis_3">
    <g id="ytick_7">
     <g id="line2d_22">
      <defs>
       <path id="m1288729eb4" d="M 0 0 
L 3.5 0 
" style="stroke: #000000; stroke-width: 0.8"/>
      </defs>
      <g>
       <use xlink:href="#m1288729eb4" x="648" y="320.4" style="stroke: #000000; stroke-width: 0.8"/>
      </g>
     </g>
     <g id="text_17">
      <!-- $\mathdefault{0}$ -->
      <g transform="translate(655 325.415904) scale(0.145 -0.145)">
       <use xlink:href="#CMR17-30" transform="scale(0.996264)"/>
      </g>
     </g>
    </g>
    <g id="ytick_8">
     <g id="line2d_23">
      <g>
       <use xlink:href="#m1288729eb4" x="648" y="264.987706" style="stroke: #000000; stroke-width: 0.8"/>
      </g>
     </g>
     <g id="text_18">
      <!-- $\mathdefault{20}$ -->
      <g transform="translate(655 270.00361) scale(0.145 -0.145)">
       <use xlink:href="#CMR17-32" transform="scale(0.996264)"/>
       <use xlink:href="#CMR17-30" transform="translate(45.690477 0) scale(0.996264)"/>
      </g>
     </g>
    </g>
    <g id="ytick_9">
     <g id="line2d_24">
      <g>
       <use xlink:href="#m1288729eb4" x="648" y="209.575412" style="stroke: #000000; stroke-width: 0.8"/>
      </g>
     </g>
     <g id="text_19">
      <!-- $\mathdefault{40}$ -->
      <g transform="translate(655 214.591316) scale(0.145 -0.145)">
       <use xlink:href="#CMR17-34" transform="scale(0.996264)"/>
       <use xlink:href="#CMR17-30" transform="translate(45.690477 0) scale(0.996264)"/>
      </g>
     </g>
    </g>
    <g id="ytick_10">
     <g id="line2d_25">
      <g>
       <use xlink:href="#m1288729eb4" x="648" y="154.163118" style="stroke: #000000; stroke-width: 0.8"/>
      </g>
     </g>
     <g id="text_20">
      <!-- $\mathdefault{60}$ -->
      <g transform="translate(655 159.179023) scale(0.145 -0.145)">
       <use xlink:href="#CMR17-36" transform="scale(0.996264)"/>
       <use xlink:href="#CMR17-30" transform="translate(45.690477 0) scale(0.996264)"/>
      </g>
     </g>
    </g>
    <g id="ytick_11">
     <g id="line2d_26">
      <g>
       <use xlink:href="#m1288729eb4" x="648" y="98.750825" style="stroke: #000000; stroke-width: 0.8"/>
      </g>
     </g>
     <g id="text_21">
      <!-- $\mathdefault{80}$ -->
      <g transform="translate(655 103.766729) scale(0.145 -0.145)">
       <use xlink:href="#CMR17-38" transform="scale(0.996264)"/>
       <use xlink:href="#CMR17-30" transform="translate(45.690477 0) scale(0.996264)"/>
      </g>
     </g>
    </g>
    <g id="ytick_12">
     <g id="line2d_27">
      <g>
       <use xlink:href="#m1288729eb4" x="648" y="43.338531" style="stroke: #000000; stroke-width: 0.8"/>
      </g>
     </g>
     <g id="text_22">
      <!-- $\mathdefault{100}$ -->
      <g transform="translate(655 48.354435) scale(0.145 -0.145)">
       <use xlink:href="#CMR17-31" transform="scale(0.996264)"/>
       <use xlink:href="#CMR17-30" transform="translate(45.690477 0) scale(0.996264)"/>
       <use xlink:href="#CMR17-30" transform="translate(91.380954 0) scale(0.996264)"/>
      </g>
     </g>
    </g>
    <g id="text_23">
     <!-- CPU load in \% -->
     <g transform="translate(690.248875 226.102524) rotate(-90) scale(0.145 -0.145)">
      <defs>
       <path id="CMSS17-43" d="M 3501 714 
C 3072 427 2874 344 2355 344 
C 1459 344 934 1303 934 2179 
C 934 3112 1472 4032 2381 4032 
C 2790 4032 3059 3918 3386 3715 
L 3475 4217 
C 3168 4370 2778 4440 2387 4440 
C 1158 4440 397 3316 397 2179 
C 397 927 1299 -64 2323 -64 
C 2874 -64 3066 -19 3539 280 
L 3501 714 
z
" transform="scale(0.015625)"/>
       <path id="CMSS17-50" d="M 2106 1856 
C 2874 1856 3501 2453 3501 3158 
C 3501 3850 2899 4453 2067 4453 
L 570 4453 
L 570 0 
L 1107 0 
L 1107 1856 
L 2106 1856 
z
M 1926 4096 
C 2669 4096 2995 3627 2995 3157 
C 2995 2720 2694 2226 1926 2226 
L 1094 2226 
L 1094 4096 
L 1926 4096 
z
" transform="scale(0.015625)"/>
       <path id="CMSS17-55" d="M 3552 4384 
L 3066 4384 
L 3066 1449 
C 3066 604 2547 229 2074 229 
C 1587 229 1101 623 1101 1443 
L 1101 4384 
L 563 4384 
L 563 1454 
C 563 539 1274 -128 2067 -128 
C 2861 -128 3552 539 3552 1454 
L 3552 4384 
z
" transform="scale(0.015625)"/>
       <path id="CMSS17-6c" d="M 947 4416 
L 474 4416 
L 474 0 
L 947 0 
L 947 4416 
z
" transform="scale(0.015625)"/>
       <path id="CMSS17-61" d="M 2406 1791 
C 2406 2392 1978 2808 1402 2808 
C 1120 2808 813 2757 461 2553 
L 499 2135 
C 659 2248 934 2432 1395 2432 
C 1722 2432 1920 2180 1920 1782 
L 1920 1536 
C 896 1536 256 1238 256 726 
C 256 461 416 -64 947 -64 
C 1043 -64 1562 -64 1933 217 
L 1933 -19 
L 2406 -19 
L 2406 1791 
z
M 1920 816 
C 1920 701 1920 548 1728 434 
C 1562 325 1350 325 1261 325 
C 941 325 723 511 723 744 
C 723 1211 1722 1211 1920 1211 
L 1920 816 
z
" transform="scale(0.015625)"/>
       <path id="CMSS17-64" d="M 2611 4416 
L 2138 4416 
L 2138 2438 
C 1939 2603 1613 2756 1254 2756 
C 672 2756 211 2131 211 1347 
C 211 562 666 -64 1235 -64 
C 1677 -64 1971 172 2125 306 
L 2125 -13 
L 2611 -13 
L 2611 4416 
z
M 2125 836 
C 2125 747 2125 653 1926 482 
C 1798 375 1645 325 1498 325 
C 1152 325 698 576 698 1340 
C 698 2134 1210 2368 1562 2368 
C 1798 2368 1990 2254 2125 2065 
L 2125 836 
z
" transform="scale(0.015625)"/>
       <path id="CMSS17-6e" d="M 2618 1877 
C 2618 2283 2522 2816 1798 2816 
C 1389 2816 1120 2606 941 2389 
L 941 2758 
L 474 2758 
L 474 0 
L 960 0 
L 960 1559 
C 960 1964 1114 2428 1549 2428 
C 2112 2428 2131 2048 2131 1829 
L 2131 0 
L 2618 0 
L 2618 1877 
z
" transform="scale(0.015625)"/>
       <path id="CMSS17-25" d="M 3923 4583 
C 3962 4647 3962 4679 3962 4685 
C 3962 4755 3904 4800 3853 4800 
C 3782 4800 3750 4749 3718 4685 
L 1101 -104 
C 1088 -129 1062 -167 1062 -206 
C 1062 -276 1120 -320 1178 -320 
C 1235 -320 1248 -295 1299 -206 
L 3923 4583 
z
M 4678 959 
C 4678 1698 4282 2240 3846 2240 
C 3418 2240 3008 1711 3008 959 
C 3008 208 3418 -320 3846 -320 
C 4288 -320 4678 221 4678 959 
z
M 3846 68 
C 3712 68 3494 189 3494 959 
C 3494 1724 3712 1851 3846 1851 
C 4083 1851 4211 1386 4211 959 
C 4211 533 4083 68 3846 68 
z
M 2003 3519 
C 2003 4258 1606 4800 1171 4800 
C 742 4800 333 4271 333 3519 
C 333 2768 742 2240 1171 2240 
C 1613 2240 2003 2781 2003 3519 
z
M 1171 2628 
C 1037 2628 819 2749 819 3519 
C 819 4284 1037 4411 1171 4411 
C 1408 4411 1536 3946 1536 3519 
C 1536 3093 1408 2628 1171 2628 
z
" transform="scale(0.015625)"/>
      </defs>
      <use xlink:href="#CMSS17-43" transform="scale(0.996264)"/>
      <use xlink:href="#CMSS17-50" transform="translate(59.855772 0) scale(0.996264)"/>
      <use xlink:href="#CMSS17-55" transform="translate(119.591358 0) scale(0.996264)"/>
      <use xlink:href="#CMSS17-6c" transform="translate(214.960211 0) scale(0.996264)"/>
      <use xlink:href="#CMSS17-6f" transform="translate(237.140934 0) scale(0.996264)"/>
      <use xlink:href="#CMSS17-61" transform="translate(283.984557 0) scale(0.996264)"/>
      <use xlink:href="#CMSS17-64" transform="translate(328.906478 0) scale(0.996264)"/>
      <use xlink:href="#CMSS17-69" transform="translate(408.340534 0) scale(0.996264)"/>
      <use xlink:href="#CMSS17-6e" transform="translate(430.521257 0) scale(0.996264)"/>
      <use xlink:href="#CMSS17-25" transform="translate(509.955313 0) scale(0.996264)"/>
     </g>
    </g>
   </g>
   <g id="line2d_28">
    <path d="M 115.363636 112.603898 
L 622.636364 112.603898 
L 622.636364 112.603898 
" clip-path="url(#pe1b9bcee7d)" style="fill: none; stroke-dasharray: 5.55,2.4; stroke-dashoffset: 0; stroke: #140e36; stroke-width: 1.5"/>
   </g>
   <g id="patch_6">
    <path d="M 90 320.4 
L 90 43.2 
" style="fill: none; stroke: #000000; stroke-width: 0.8; stroke-linejoin: miter; stroke-linecap: square"/>
   </g>
   <g id="patch_7">
    <path d="M 648 320.4 
L 648 43.2 
" style="fill: none; stroke: #000000; stroke-width: 0.8; stroke-linejoin: miter; stroke-linecap: square"/>
   </g>
   <g id="patch_8">
    <path d="M 90 320.4 
L 648 320.4 
" style="fill: none; stroke: #000000; stroke-width: 0.8; stroke-linejoin: miter; stroke-linecap: square"/>
   </g>
   <g id="patch_9">
    <path d="M 90 43.2 
L 648 43.2 
" style="fill: none; stroke: #000000; stroke-width: 0.8; stroke-linejoin: miter; stroke-linecap: square"/>
   </g>
   <g id="legend_1">
    <g id="patch_10">
     <path d="M 481.7533 313.15 
L 637.85 313.15 
Q 640.75 313.15 640.75 310.25 
L 640.75 246.612516 
Q 640.75 243.712516 637.85 243.712516 
L 481.7533 243.712516 
Q 478.8533 243.712516 478.8533 246.612516 
L 478.8533 310.25 
Q 478.8533 313.15 481.7533 313.15 
z
" style="fill: #ffffff; opacity: 0.7; stroke: #cccccc; stroke-linejoin: miter"/>
    </g>
    <g id="line2d_29">
     <path d="M 484.6533 255.271887 
L 499.1533 255.271887 
L 513.6533 255.271887 
" style="fill: none; stroke: #482475; stroke-width: 2.5; stroke-linecap: square"/>
    </g>
    <g id="text_24">
     <!-- QoS [static] -->
     <g transform="translate(525.2533 260.346887) scale(0.145 -0.145)">
      <defs>
       <path id="CMSS17-5b" d="M 1613 -1600 
L 1613 -1212 
L 1062 -1212 
L 1062 4352 
L 1613 4352 
L 1613 4741 
L 595 4741 
L 595 -1600 
L 1613 -1600 
z
" transform="scale(0.015625)"/>
       <path id="CMSS17-63" d="M 2464 2541 
C 2464 2585 2170 2714 2093 2739 
C 1882 2816 1613 2816 1542 2816 
C 710 2816 211 2093 211 1363 
C 211 595 768 -64 1517 -64 
C 1946 -64 2253 76 2502 242 
L 2464 664 
C 2189 453 1869 337 1523 337 
C 1024 337 698 774 698 1369 
C 698 1831 909 2414 1549 2414 
C 1901 2414 2099 2343 2394 2145 
L 2464 2541 
z
" transform="scale(0.015625)"/>
       <path id="CMSS17-5d" d="M 1146 4741 
L 128 4741 
L 128 4352 
L 678 4352 
L 678 -1212 
L 128 -1212 
L 128 -1600 
L 1146 -1600 
L 1146 4741 
z
" transform="scale(0.015625)"/>
      </defs>
      <use xlink:href="#CMSS17-51" transform="scale(0.996264)"/>
      <use xlink:href="#CMSS17-6f" transform="translate(69.024255 0) scale(0.996264)"/>
      <use xlink:href="#CMSS17-53" transform="translate(115.867879 0) scale(0.996264)"/>
      <use xlink:href="#CMSS17-5b" transform="translate(199.145508 0) scale(0.996264)"/>
      <use xlink:href="#CMSS17-73" transform="translate(226.330946 0) scale(0.996264)"/>
      <use xlink:href="#CMSS17-74" transform="translate(262.244488 0) scale(0.996264)"/>
      <use xlink:href="#CMSS17-61" transform="translate(296.076055 0) scale(0.996264)"/>
      <use xlink:href="#CMSS17-74" transform="translate(340.997976 0) scale(0.996264)"/>
      <use xlink:href="#CMSS17-69" transform="translate(374.829542 0) scale(0.996264)"/>
      <use xlink:href="#CMSS17-63" transform="translate(397.010265 0) scale(0.996264)"/>
      <use xlink:href="#CMSS17-5d" transform="translate(438.649088 0) scale(0.996264)"/>
     </g>
    </g>
    <g id="line2d_30">
     <path d="M 484.6533 276.967715 
L 499.1533 276.967715 
L 513.6533 276.967715 
" style="fill: none; stroke: #bddf26; stroke-width: 2.5; stroke-linecap: square"/>
    </g>
    <g id="text_25">
     <!-- QoS [dynamic] -->
     <g transform="translate(525.2533 282.042715) scale(0.145 -0.145)">
      <defs>
       <path id="CMSS17-79" d="M 2675 2752 
L 2176 2752 
C 1632 1294 1446 702 1434 383 
L 1427 383 
C 1408 696 1126 1460 902 2007 
L 602 2752 
L 83 2752 
L 1216 13 
C 1146 -178 1043 -465 1011 -529 
C 870 -885 774 -885 672 -885 
C 646 -885 442 -885 211 -809 
L 250 -1229 
C 410 -1261 570 -1280 685 -1280 
C 845 -1280 1165 -1280 1459 -497 
L 2675 2752 
z
" transform="scale(0.015625)"/>
      </defs>
      <use xlink:href="#CMSS17-51" transform="scale(0.996264)"/>
      <use xlink:href="#CMSS17-6f" transform="translate(69.024255 0) scale(0.996264)"/>
      <use xlink:href="#CMSS17-53" transform="translate(115.867879 0) scale(0.996264)"/>
      <use xlink:href="#CMSS17-5b" transform="translate(199.145508 0) scale(0.996264)"/>
      <use xlink:href="#CMSS17-64" transform="translate(226.330946 0) scale(0.996264)"/>
      <use xlink:href="#CMSS17-79" transform="translate(274.53589 0) scale(0.996264)"/>
      <use xlink:href="#CMSS17-6e" transform="translate(317.536031 0) scale(0.996264)"/>
      <use xlink:href="#CMSS17-61" transform="translate(365.740974 0) scale(0.996264)"/>
      <use xlink:href="#CMSS17-6d" transform="translate(410.662895 0) scale(0.996264)"/>
      <use xlink:href="#CMSS17-69" transform="translate(484.892149 0) scale(0.996264)"/>
      <use xlink:href="#CMSS17-63" transform="translate(507.072872 0) scale(0.996264)"/>
      <use xlink:href="#CMSS17-5d" transform="translate(548.711695 0) scale(0.996264)"/>
     </g>
    </g>
    <g id="line2d_31">
     <path d="M 484.6533 298.663543 
L 499.1533 298.663543 
L 513.6533 298.663543 
" style="fill: none; stroke-dasharray: 5.55,2.4; stroke-dashoffset: 0; stroke: #140e36; stroke-width: 1.5"/>
    </g>
    <g id="text_26">
     <!-- Load driver (right) -->
     <g transform="translate(525.2533 303.738543) scale(0.145 -0.145)">
      <defs>
       <path id="CMSS17-4c" d="M 1670 414 
C 1594 414 1517 414 1440 414 
L 1101 414 
L 1101 4416 
L 563 4416 
L 563 0 
L 3002 0 
L 3002 414 
L 1670 414 
z
" transform="scale(0.015625)"/>
       <path id="CMSS17-72" d="M 954 1363 
C 954 1965 1395 2368 1958 2368 
L 1958 2789 
C 1549 2789 1165 2585 934 2253 
L 934 2758 
L 480 2758 
L 480 0 
L 954 0 
L 954 1363 
z
" transform="scale(0.015625)"/>
       <path id="CMSS17-76" d="M 2675 2752 
L 2176 2752 
L 1747 1556 
C 1613 1165 1421 627 1389 352 
L 1382 352 
C 1370 468 1318 634 1286 749 
C 1248 890 1197 1056 1158 1172 
L 595 2752 
L 83 2752 
L 1094 0 
L 1664 0 
L 2675 2752 
z
" transform="scale(0.015625)"/>
       <path id="CMSS17-67" d="M 2848 2808 
C 2483 2808 2170 2738 1914 2617 
C 1702 2777 1485 2808 1338 2808 
C 781 2808 358 2349 358 1814 
C 358 1468 550 1207 563 1195 
C 448 1035 384 863 384 672 
C 384 448 474 289 544 200 
C 211 -3 166 -314 166 -435 
C 166 -898 749 -1280 1498 -1280 
C 2253 -1280 2835 -898 2835 -428 
C 2835 448 1856 448 1587 448 
L 1069 448 
C 973 448 717 448 717 791 
C 717 921 774 1004 781 1010 
C 877 940 1075 832 1338 832 
C 1869 832 2310 1278 2310 1827 
C 2310 2132 2170 2355 2112 2432 
L 2131 2432 
C 2150 2432 2419 2432 2515 2432 
C 2720 2432 2739 2429 2918 2419 
L 2848 2808 
z
M 1338 1182 
C 1120 1182 813 1315 813 1823 
C 813 2375 1165 2464 1331 2464 
C 1549 2464 1856 2331 1856 1823 
C 1856 1271 1504 1182 1338 1182 
z
M 1581 -10 
C 1734 -10 2381 -10 2381 -442 
C 2381 -714 1984 -929 1504 -929 
C 1018 -929 621 -720 621 -435 
C 621 -403 621 -10 1062 -10 
L 1581 -10 
z
" transform="scale(0.015625)"/>
       <path id="CMSS17-68" d="M 2618 1891 
C 2618 2292 2522 2820 1798 2820 
C 1395 2820 1133 2623 947 2407 
L 947 4448 
L 474 4448 
L 474 32 
L 960 32 
L 960 1573 
C 960 1973 1114 2432 1549 2432 
C 2112 2432 2131 2056 2131 1839 
L 2131 32 
L 2618 32 
L 2618 1891 
z
" transform="scale(0.015625)"/>
      </defs>
      <use xlink:href="#CMSS17-4c" transform="scale(0.996264)"/>
      <use xlink:href="#CMSS17-6f" transform="translate(50.687105 0) scale(0.996264)"/>
      <use xlink:href="#CMSS17-61" transform="translate(97.530729 0) scale(0.996264)"/>
      <use xlink:href="#CMSS17-64" transform="translate(142.452649 0) scale(0.996264)"/>
      <use xlink:href="#CMSS17-64" transform="translate(221.886705 0) scale(0.996264)"/>
      <use xlink:href="#CMSS17-72" transform="translate(270.091649 0) scale(0.996264)"/>
      <use xlink:href="#CMSS17-69" transform="translate(302.001421 0) scale(0.996264)"/>
      <use xlink:href="#CMSS17-76" transform="translate(324.182144 0) scale(0.996264)"/>
      <use xlink:href="#CMSS17-65" transform="translate(367.182286 0) scale(0.996264)"/>
      <use xlink:href="#CMSS17-72" transform="translate(408.821108 0) scale(0.996264)"/>
      <use xlink:href="#CMSS17-28" transform="translate(471.959993 0) scale(0.996264)"/>
      <use xlink:href="#CMSS17-72" transform="translate(508.393907 0) scale(0.996264)"/>
      <use xlink:href="#CMSS17-69" transform="translate(540.30368 0) scale(0.996264)"/>
      <use xlink:href="#CMSS17-67" transform="translate(562.484403 0) scale(0.996264)"/>
      <use xlink:href="#CMSS17-68" transform="translate(609.328026 0) scale(0.996264)"/>
      <use xlink:href="#CMSS17-74" transform="translate(657.53297 0) scale(0.996264)"/>
      <use xlink:href="#CMSS17-29" transform="translate(691.364536 0) scale(0.996264)"/>
     </g>
    </g>
   </g>
  </g>
 </g>
 <defs>
  <clipPath id="pe1b9bcee7d">
   <rect x="90" y="43.2" width="558" height="277.2"/>
  </clipPath>
 </defs>
</svg>
