<?xml version="1.0" encoding="utf-8" standalone="no"?>
<!DOCTYPE svg PUBLIC "-//W3C//DTD SVG 1.1//EN"
  "http://www.w3.org/Graphics/SVG/1.1/DTD/svg11.dtd">
<svg xmlns:xlink="http://www.w3.org/1999/xlink" width="949.114497pt" height="457.614705pt" viewBox="0 0 949.114497 457.614705" xmlns="http://www.w3.org/2000/svg" version="1.1">
 <metadata>
  <rdf:RDF xmlns:dc="http://purl.org/dc/elements/1.1/" xmlns:cc="http://creativecommons.org/ns#" xmlns:rdf="http://www.w3.org/1999/02/22-rdf-syntax-ns#">
   <cc:Work>
    <dc:type rdf:resource="http://purl.org/dc/dcmitype/StillImage"/>
    <dc:date>2024-06-13T14:27:01.826073</dc:date>
    <dc:format>image/svg+xml</dc:format>
    <dc:creator>
     <cc:Agent>
      <dc:title>Matplotlib v3.9.0, https://matplotlib.org/</dc:title>
     </cc:Agent>
    </dc:creator>
   </cc:Work>
  </rdf:RDF>
 </metadata>
 <defs>
  <style type="text/css">*{stroke-linejoin: round; stroke-linecap: butt}</style>
 </defs>
 <g id="figure_1">
  <g id="patch_1">
   <path d="M 0 457.614705 
L 949.114497 457.614705 
L 949.114497 0 
L 0 0 
z
" style="fill: #ffffff"/>
  </g>
  <g id="axes_1">
   <g id="patch_2">
    <path d="M 49.114497 413.7333 
L 941.914497 413.7333 
L 941.914497 25.6533 
L 49.114497 25.6533 
z
" style="fill: #ffffff"/>
   </g>
   <g id="PolyCollection_1">
    <defs>
     <path id="mcc0958fb0a" d="M 89.696315 -211.334025 
L 89.696315 -224.311458 
L 91.95714 -224.311458 
L 94.217966 -224.311458 
L 96.478791 -224.161946 
L 98.739617 -224.161946 
L 101.000442 -224.161946 
L 103.261268 -224.161946 
L 105.522094 -224.161946 
L 107.782919 -224.161946 
L 110.043745 -224.167924 
L 112.30457 -224.167924 
L 114.565396 -224.167924 
L 116.826221 -224.167924 
L 119.087047 -224.167924 
L 121.347872 -224.167924 
L 123.608698 -224.167924 
L 125.869523 -224.167924 
L 128.130349 -224.167924 
L 130.391174 -224.167924 
L 132.652 -224.167924 
L 134.912825 -224.167924 
L 137.173651 -224.167924 
L 139.434476 -224.167924 
L 141.695302 -224.167924 
L 143.956127 -224.167924 
L 146.216953 -193.71931 
L 148.477779 -193.71931 
L 150.738604 -193.71931 
L 152.99943 -193.71931 
L 155.260255 -193.71931 
L 157.521081 -184.330404 
L 159.781906 -184.330404 
L 162.042732 -184.330404 
L 164.303557 -184.330404 
L 166.564383 -184.330404 
L 168.825208 -184.330404 
L 171.086034 -184.81234 
L 173.346859 -184.81234 
L 175.607685 -184.81234 
L 177.86851 -184.81234 
L 180.129336 -184.81234 
L 182.390161 -184.841215 
L 184.650987 -184.841215 
L 186.911812 -184.841215 
L 189.172638 -184.841215 
L 191.433463 -184.841215 
L 193.694289 -184.841215 
L 195.955115 -184.841215 
L 198.21594 -184.841215 
L 200.476766 -184.841215 
L 202.737591 -184.841215 
L 204.998417 -184.841215 
L 207.259242 -184.841215 
L 209.520068 -184.841215 
L 211.780893 -184.841215 
L 214.041719 -184.841215 
L 216.302544 -184.841215 
L 218.56337 -184.841215 
L 220.824195 -184.743488 
L 223.085021 -184.743488 
L 225.345846 -184.743488 
L 227.606672 -184.743488 
L 229.867497 -184.743488 
L 232.128323 -184.743488 
L 234.389148 -184.743488 
L 236.649974 -184.743488 
L 238.9108 -184.743488 
L 241.171625 -184.743488 
L 243.432451 -185.173582 
L 245.693276 -185.173582 
L 247.954102 -185.173582 
L 250.214927 -185.173582 
L 252.475753 -185.173582 
L 254.736578 -185.173582 
L 256.997404 -184.841215 
L 259.258229 -184.841215 
L 261.519055 -184.841215 
L 263.77988 -184.841215 
L 266.040706 -184.841215 
L 268.301531 -160.486164 
L 270.562357 -160.486164 
L 272.823182 -160.486164 
L 275.084008 -160.486164 
L 277.344833 -160.486164 
L 279.605659 -160.486164 
L 281.866485 -141.576633 
L 284.12731 -141.576633 
L 286.388136 -141.576633 
L 288.648961 -141.576633 
L 290.909787 -141.576633 
L 293.170612 -139.866092 
L 295.431438 -139.866092 
L 297.692263 -139.866092 
L 299.953089 -139.866092 
L 302.213914 -139.866092 
L 304.47474 -139.866092 
L 306.735565 -140.615446 
L 308.996391 -140.615446 
L 311.257216 -140.615446 
L 313.518042 -140.615446 
L 315.778867 -140.615446 
L 318.039693 -140.084108 
L 320.300518 -140.084108 
L 322.561344 -140.084108 
L 324.822169 -140.084108 
L 327.082995 -140.084108 
L 329.343821 -140.084108 
L 331.604646 -140.176156 
L 333.865472 -140.176156 
L 336.126297 -140.176156 
L 338.387123 -140.176156 
L 340.647948 -140.176156 
L 342.908774 -140.176156 
L 345.169599 -140.176156 
L 347.430425 -140.176156 
L 349.69125 -140.176156 
L 351.952076 -140.176156 
L 354.212901 -140.176156 
L 356.473727 -140.176156 
L 358.734552 -140.176156 
L 360.995378 -140.176156 
L 363.256203 -140.176156 
L 365.517029 -140.176156 
L 367.777854 -140.176156 
L 370.03868 -140.176156 
L 372.299506 -140.176156 
L 374.560331 -140.176156 
L 376.821157 -140.176156 
L 379.081982 -140.08631 
L 381.342808 -140.08631 
L 383.603633 -140.08631 
L 385.864459 -140.08631 
L 388.125284 -140.08631 
L 390.38611 -140.08631 
L 392.646935 -133.288106 
L 394.907761 -133.288106 
L 397.168586 -133.288106 
L 399.429412 -133.288106 
L 401.690237 -133.288106 
L 403.951063 -101.694739 
L 406.211888 -101.694739 
L 408.472714 -101.694739 
L 410.733539 -101.694739 
L 412.994365 -101.694739 
L 415.255191 -101.694739 
L 417.516016 -97.622249 
L 419.776842 -97.622249 
L 422.037667 -97.622249 
L 424.298493 -97.622249 
L 426.559318 -97.622249 
L 428.820144 -96.722049 
L 431.080969 -96.722049 
L 433.341795 -96.722049 
L 435.60262 -96.722049 
L 437.863446 -96.722049 
L 440.124271 -96.722049 
L 442.385097 -96.236106 
L 444.645922 -96.236106 
L 446.906748 -96.236106 
L 449.167573 -96.236106 
L 451.428399 -96.236106 
L 453.689224 -96.236106 
L 455.95005 -96.236106 
L 458.210875 -96.236106 
L 460.471701 -96.236106 
L 462.732527 -96.236106 
L 464.993352 -96.236106 
L 467.254178 -96.236106 
L 469.515003 -96.236106 
L 471.775829 -96.236106 
L 474.036654 -96.236106 
L 476.29748 -96.236106 
L 478.558305 -96.236106 
L 480.819131 -96.236106 
L 483.079956 -96.236106 
L 485.340782 -96.236106 
L 487.601607 -96.236106 
L 489.862433 -96.013073 
L 492.123258 -96.013073 
L 494.384084 -96.013073 
L 496.644909 -96.013073 
L 498.905735 -96.013073 
L 501.16656 -96.013073 
L 503.427386 -96.367129 
L 505.688212 -96.367129 
L 507.949037 -96.367129 
L 510.209863 -96.367129 
L 512.470688 -96.367129 
L 514.731514 -96.236106 
L 516.992339 -96.236106 
L 519.253165 -96.236106 
L 521.51399 -96.236106 
L 523.774816 -96.236106 
L 526.035641 -96.236106 
L 528.296467 -128.556379 
L 530.557292 -128.556379 
L 532.818118 -128.556379 
L 535.078943 -128.556379 
L 537.339769 -128.556379 
L 539.600594 -134.761803 
L 541.86142 -134.761803 
L 544.122245 -134.761803 
L 546.383071 -134.761803 
L 548.643897 -134.761803 
L 550.904722 -135.689634 
L 553.165548 -135.689634 
L 555.426373 -135.689634 
L 557.687199 -135.689634 
L 559.948024 -135.689634 
L 562.20885 -135.689634 
L 564.469675 -135.918162 
L 566.730501 -135.918162 
L 568.991326 -135.918162 
L 571.252152 -135.918162 
L 573.512977 -135.918162 
L 575.773803 -135.918162 
L 578.034628 -135.918162 
L 580.295454 -135.918162 
L 582.556279 -135.918162 
L 584.817105 -135.918162 
L 587.07793 -135.918162 
L 589.338756 -134.477358 
L 591.599581 -134.477358 
L 593.860407 -134.477358 
L 596.121233 -134.477358 
L 598.382058 -134.477358 
L 600.642884 -135.131971 
L 602.903709 -135.131971 
L 605.164535 -135.131971 
L 607.42536 -135.131971 
L 609.686186 -135.131971 
L 611.947011 -135.131971 
L 614.207837 -135.510815 
L 616.468662 -135.510815 
L 618.729488 -135.510815 
L 620.990313 -135.510815 
L 623.251139 -135.510815 
L 625.511964 -135.349963 
L 627.77279 -135.349963 
L 630.033615 -135.349963 
L 632.294441 -135.349963 
L 634.555266 -135.349963 
L 636.816092 -135.349963 
L 639.076918 -135.056626 
L 641.337743 -135.056626 
L 643.598569 -135.056626 
L 645.859394 -135.056626 
L 648.12022 -135.056626 
L 650.381045 -161.925224 
L 652.641871 -161.925224 
L 654.902696 -161.925224 
L 657.163522 -161.925224 
L 659.424347 -161.925224 
L 661.685173 -173.292115 
L 663.945998 -173.292115 
L 666.206824 -173.292115 
L 668.467649 -173.292115 
L 670.728475 -173.292115 
L 672.9893 -173.292115 
L 675.250126 -174.034573 
L 677.510951 -174.034573 
L 679.771777 -174.034573 
L 682.032603 -174.034573 
L 684.293428 -174.034573 
L 686.554254 -174.047609 
L 688.815079 -174.047609 
L 691.075905 -174.047609 
L 693.33673 -174.047609 
L 695.597556 -174.047609 
L 697.858381 -174.047609 
L 700.119207 -174.047609 
L 702.380032 -174.047609 
L 704.640858 -174.047609 
L 706.901683 -174.047609 
L 709.162509 -174.047609 
L 711.423334 -174.067468 
L 713.68416 -174.067468 
L 715.944985 -174.067468 
L 718.205811 -174.067468 
L 720.466636 -174.067468 
L 722.727462 -174.067468 
L 724.988287 -174.047609 
L 727.249113 -174.047609 
L 729.509939 -174.047609 
L 731.770764 -174.047609 
L 734.03159 -174.047609 
L 736.292415 -173.94296 
L 738.553241 -173.94296 
L 740.814066 -173.94296 
L 743.074892 -173.94296 
L 745.335717 -173.94296 
L 747.596543 -173.94296 
L 749.857368 -174.047609 
L 752.118194 -174.047609 
L 754.379019 -174.047609 
L 756.639845 -174.047609 
L 758.90067 -174.047609 
L 761.161496 -173.82946 
L 763.422321 -173.82946 
L 765.683147 -173.82946 
L 767.943972 -173.82946 
L 770.204798 -173.82946 
L 772.465624 -174.841429 
L 774.726449 -174.841429 
L 776.987275 -174.841429 
L 779.2481 -174.841429 
L 781.508926 -174.841429 
L 783.769751 -174.841429 
L 786.030577 -199.459161 
L 788.291402 -199.459161 
L 790.552228 -199.459161 
L 792.813053 -199.459161 
L 795.073879 -199.459161 
L 797.334704 -201.722177 
L 799.59553 -201.722177 
L 801.856355 -201.722177 
L 804.117181 -201.722177 
L 806.378006 -201.722177 
L 808.638832 -201.722177 
L 810.899657 -202.247358 
L 813.160483 -202.247358 
L 815.421309 -202.247358 
L 817.682134 -202.247358 
L 819.94296 -202.247358 
L 822.203785 -202.247358 
L 824.464611 -202.247358 
L 826.725436 -202.247358 
L 828.986262 -202.247358 
L 831.247087 -202.247358 
L 833.507913 -202.247358 
L 835.768738 -202.247358 
L 838.029564 -202.247358 
L 840.290389 -202.247358 
L 842.551215 -202.247358 
L 844.81204 -202.247358 
L 847.072866 -202.422456 
L 849.333691 -202.422456 
L 851.594517 -202.422456 
L 853.855342 -202.422456 
L 856.116168 -202.422456 
L 858.376993 -202.422456 
L 860.637819 -202.422456 
L 862.898645 -202.422456 
L 865.15947 -202.422456 
L 867.420296 -202.422456 
L 869.681121 -202.422456 
L 871.941947 -202.552727 
L 874.202772 -202.552727 
L 876.463598 -202.552727 
L 878.724423 -202.552727 
L 880.985249 -202.552727 
L 883.246074 -201.768283 
L 885.5069 -201.768283 
L 887.767725 -201.768283 
L 890.028551 -201.768283 
L 892.289376 -201.768283 
L 894.550202 -201.768283 
L 896.811027 -202.54976 
L 899.071853 -202.54976 
L 901.332678 -202.54976 
L 901.332678 -186.853663 
L 901.332678 -186.853663 
L 899.071853 -186.853663 
L 896.811027 -186.853663 
L 894.550202 -186.654074 
L 892.289376 -186.654074 
L 890.028551 -186.654074 
L 887.767725 -186.654074 
L 885.5069 -186.654074 
L 883.246074 -186.654074 
L 880.985249 -186.360162 
L 878.724423 -186.360162 
L 876.463598 -186.360162 
L 874.202772 -186.360162 
L 871.941947 -186.360162 
L 869.681121 -186.817972 
L 867.420296 -186.817972 
L 865.15947 -186.817972 
L 862.898645 -186.817972 
L 860.637819 -186.817972 
L 858.376993 -186.817972 
L 856.116168 -186.817972 
L 853.855342 -186.817972 
L 851.594517 -186.817972 
L 849.333691 -186.817972 
L 847.072866 -186.817972 
L 844.81204 -186.830077 
L 842.551215 -186.830077 
L 840.290389 -186.830077 
L 838.029564 -186.830077 
L 835.768738 -186.830077 
L 833.507913 -186.830077 
L 831.247087 -186.830077 
L 828.986262 -186.830077 
L 826.725436 -186.830077 
L 824.464611 -186.830077 
L 822.203785 -186.830077 
L 819.94296 -186.830077 
L 817.682134 -186.830077 
L 815.421309 -186.830077 
L 813.160483 -186.830077 
L 810.899657 -186.830077 
L 808.638832 -186.537186 
L 806.378006 -186.537186 
L 804.117181 -186.537186 
L 801.856355 -186.537186 
L 799.59553 -186.537186 
L 797.334704 -186.537186 
L 795.073879 -183.897975 
L 792.813053 -183.897975 
L 790.552228 -183.897975 
L 788.291402 -183.897975 
L 786.030577 -183.897975 
L 783.769751 -158.51548 
L 781.508926 -158.51548 
L 779.2481 -158.51548 
L 776.987275 -158.51548 
L 774.726449 -158.51548 
L 772.465624 -158.51548 
L 770.204798 -155.278749 
L 767.943972 -155.278749 
L 765.683147 -155.278749 
L 763.422321 -155.278749 
L 761.161496 -155.278749 
L 758.90067 -155.549581 
L 756.639845 -155.549581 
L 754.379019 -155.549581 
L 752.118194 -155.549581 
L 749.857368 -155.549581 
L 747.596543 -155.491236 
L 745.335717 -155.491236 
L 743.074892 -155.491236 
L 740.814066 -155.491236 
L 738.553241 -155.491236 
L 736.292415 -155.491236 
L 734.03159 -155.549581 
L 731.770764 -155.549581 
L 729.509939 -155.549581 
L 727.249113 -155.549581 
L 724.988287 -155.549581 
L 722.727462 -155.694268 
L 720.466636 -155.694268 
L 718.205811 -155.694268 
L 715.944985 -155.694268 
L 713.68416 -155.694268 
L 711.423334 -155.694268 
L 709.162509 -155.549581 
L 706.901683 -155.549581 
L 704.640858 -155.549581 
L 702.380032 -155.549581 
L 700.119207 -155.549581 
L 697.858381 -155.549581 
L 695.597556 -155.549581 
L 693.33673 -155.549581 
L 691.075905 -155.549581 
L 688.815079 -155.549581 
L 686.554254 -155.549581 
L 684.293428 -155.562617 
L 682.032603 -155.562617 
L 679.771777 -155.562617 
L 677.510951 -155.562617 
L 675.250126 -155.562617 
L 672.9893 -154.178397 
L 670.728475 -154.178397 
L 668.467649 -154.178397 
L 666.206824 -154.178397 
L 663.945998 -154.178397 
L 661.685173 -154.178397 
L 659.424347 -138.590803 
L 657.163522 -138.590803 
L 654.902696 -138.590803 
L 652.641871 -138.590803 
L 650.381045 -138.590803 
L 648.12022 -124.279456 
L 645.859394 -124.279456 
L 643.598569 -124.279456 
L 641.337743 -124.279456 
L 639.076918 -124.279456 
L 636.816092 -124.312106 
L 634.555266 -124.312106 
L 632.294441 -124.312106 
L 630.033615 -124.312106 
L 627.77279 -124.312106 
L 625.511964 -124.312106 
L 623.251139 -124.3158 
L 620.990313 -124.3158 
L 618.729488 -124.3158 
L 616.468662 -124.3158 
L 614.207837 -124.3158 
L 611.947011 -124.367105 
L 609.686186 -124.367105 
L 607.42536 -124.367105 
L 605.164535 -124.367105 
L 602.903709 -124.367105 
L 600.642884 -124.367105 
L 598.382058 -124.368191 
L 596.121233 -124.368191 
L 593.860407 -124.368191 
L 591.599581 -124.368191 
L 589.338756 -124.368191 
L 587.07793 -124.23444 
L 584.817105 -124.23444 
L 582.556279 -124.23444 
L 580.295454 -124.23444 
L 578.034628 -124.23444 
L 575.773803 -124.23444 
L 573.512977 -124.23444 
L 571.252152 -124.23444 
L 568.991326 -124.23444 
L 566.730501 -124.23444 
L 564.469675 -124.23444 
L 562.20885 -123.973988 
L 559.948024 -123.973988 
L 557.687199 -123.973988 
L 555.426373 -123.973988 
L 553.165548 -123.973988 
L 550.904722 -123.973988 
L 548.643897 -122.939686 
L 546.383071 -122.939686 
L 544.122245 -122.939686 
L 541.86142 -122.939686 
L 539.600594 -122.939686 
L 537.339769 -115.417478 
L 535.078943 -115.417478 
L 532.818118 -115.417478 
L 530.557292 -115.417478 
L 528.296467 -115.417478 
L 526.035641 -88.097151 
L 523.774816 -88.097151 
L 521.51399 -88.097151 
L 519.253165 -88.097151 
L 516.992339 -88.097151 
L 514.731514 -88.097151 
L 512.470688 -88.129588 
L 510.209863 -88.129588 
L 507.949037 -88.129588 
L 505.688212 -88.129588 
L 503.427386 -88.129588 
L 501.16656 -87.993421 
L 498.905735 -87.993421 
L 496.644909 -87.993421 
L 494.384084 -87.993421 
L 492.123258 -87.993421 
L 489.862433 -87.993421 
L 487.601607 -88.097151 
L 485.340782 -88.097151 
L 483.079956 -88.097151 
L 480.819131 -88.097151 
L 478.558305 -88.097151 
L 476.29748 -88.097151 
L 474.036654 -88.097151 
L 471.775829 -88.097151 
L 469.515003 -88.097151 
L 467.254178 -88.097151 
L 464.993352 -88.097151 
L 462.732527 -88.097151 
L 460.471701 -88.097151 
L 458.210875 -88.097151 
L 455.95005 -88.097151 
L 453.689224 -88.097151 
L 451.428399 -88.097151 
L 449.167573 -88.097151 
L 446.906748 -88.097151 
L 444.645922 -88.097151 
L 442.385097 -88.097151 
L 440.124271 -88.101431 
L 437.863446 -88.101431 
L 435.60262 -88.101431 
L 433.341795 -88.101431 
L 431.080969 -88.101431 
L 428.820144 -88.101431 
L 426.559318 -88.835514 
L 424.298493 -88.835514 
L 422.037667 -88.835514 
L 419.776842 -88.835514 
L 417.516016 -88.835514 
L 415.255191 -91.462371 
L 412.994365 -91.462371 
L 410.733539 -91.462371 
L 408.472714 -91.462371 
L 406.211888 -91.462371 
L 403.951063 -91.462371 
L 401.690237 -123.921298 
L 399.429412 -123.921298 
L 397.168586 -123.921298 
L 394.907761 -123.921298 
L 392.646935 -123.921298 
L 390.38611 -132.157313 
L 388.125284 -132.157313 
L 385.864459 -132.157313 
L 383.603633 -132.157313 
L 381.342808 -132.157313 
L 379.081982 -132.157313 
L 376.821157 -132.230461 
L 374.560331 -132.230461 
L 372.299506 -132.230461 
L 370.03868 -132.230461 
L 367.777854 -132.230461 
L 365.517029 -132.230461 
L 363.256203 -132.230461 
L 360.995378 -132.230461 
L 358.734552 -132.230461 
L 356.473727 -132.230461 
L 354.212901 -132.230461 
L 351.952076 -132.230461 
L 349.69125 -132.230461 
L 347.430425 -132.230461 
L 345.169599 -132.230461 
L 342.908774 -132.230461 
L 340.647948 -132.230461 
L 338.387123 -132.230461 
L 336.126297 -132.230461 
L 333.865472 -132.230461 
L 331.604646 -132.230461 
L 329.343821 -132.322508 
L 327.082995 -132.322508 
L 324.822169 -132.322508 
L 322.561344 -132.322508 
L 320.300518 -132.322508 
L 318.039693 -132.322508 
L 315.778867 -132.11871 
L 313.518042 -132.11871 
L 311.257216 -132.11871 
L 308.996391 -132.11871 
L 306.735565 -132.11871 
L 304.47474 -132.703518 
L 302.213914 -132.703518 
L 299.953089 -132.703518 
L 297.692263 -132.703518 
L 295.431438 -132.703518 
L 293.170612 -132.703518 
L 290.909787 -129.196942 
L 288.648961 -129.196942 
L 286.388136 -129.196942 
L 284.12731 -129.196942 
L 281.866485 -129.196942 
L 279.605659 -148.361164 
L 277.344833 -148.361164 
L 275.084008 -148.361164 
L 272.823182 -148.361164 
L 270.562357 -148.361164 
L 268.301531 -148.361164 
L 266.040706 -168.121496 
L 263.77988 -168.121496 
L 261.519055 -168.121496 
L 259.258229 -168.121496 
L 256.997404 -168.121496 
L 254.736578 -168.279661 
L 252.475753 -168.279661 
L 250.214927 -168.279661 
L 247.954102 -168.279661 
L 245.693276 -168.279661 
L 243.432451 -168.279661 
L 241.171625 -168.056229 
L 238.9108 -168.056229 
L 236.649974 -168.056229 
L 234.389148 -168.056229 
L 232.128323 -168.056229 
L 229.867497 -168.056229 
L 227.606672 -168.056229 
L 225.345846 -168.056229 
L 223.085021 -168.056229 
L 220.824195 -168.056229 
L 218.56337 -168.121496 
L 216.302544 -168.121496 
L 214.041719 -168.121496 
L 211.780893 -168.121496 
L 209.520068 -168.121496 
L 207.259242 -168.121496 
L 204.998417 -168.121496 
L 202.737591 -168.121496 
L 200.476766 -168.121496 
L 198.21594 -168.121496 
L 195.955115 -168.121496 
L 193.694289 -168.121496 
L 191.433463 -168.121496 
L 189.172638 -168.121496 
L 186.911812 -168.121496 
L 184.650987 -168.121496 
L 182.390161 -168.121496 
L 180.129336 -168.15037 
L 177.86851 -168.15037 
L 175.607685 -168.15037 
L 173.346859 -168.15037 
L 171.086034 -168.15037 
L 168.825208 -167.817338 
L 166.564383 -167.817338 
L 164.303557 -167.817338 
L 162.042732 -167.817338 
L 159.781906 -167.817338 
L 157.521081 -167.817338 
L 155.260255 -176.893279 
L 152.99943 -176.893279 
L 150.738604 -176.893279 
L 148.477779 -176.893279 
L 146.216953 -176.893279 
L 143.956127 -211.314565 
L 141.695302 -211.314565 
L 139.434476 -211.314565 
L 137.173651 -211.314565 
L 134.912825 -211.314565 
L 132.652 -211.314565 
L 130.391174 -211.314565 
L 128.130349 -211.314565 
L 125.869523 -211.314565 
L 123.608698 -211.314565 
L 121.347872 -211.314565 
L 119.087047 -211.314565 
L 116.826221 -211.314565 
L 114.565396 -211.314565 
L 112.30457 -211.314565 
L 110.043745 -211.314565 
L 107.782919 -211.485089 
L 105.522094 -211.485089 
L 103.261268 -211.485089 
L 101.000442 -211.485089 
L 98.739617 -211.485089 
L 96.478791 -211.485089 
L 94.217966 -211.334025 
L 91.95714 -211.334025 
L 89.696315 -211.334025 
z
" style="stroke: #482475; stroke-opacity: 0.2"/>
    </defs>
    <g clip-path="url(#pf5cb714f7a)">
     <use xlink:href="#mcc0958fb0a" x="0" y="457.614705" style="fill: #482475; fill-opacity: 0.2; stroke: #482475; stroke-opacity: 0.2"/>
    </g>
   </g>
   <g id="PolyCollection_2">
    <defs>
     <path id="m3194f6e18c" d="M 89.696315 -134.056106 
L 89.696315 -150.933616 
L 91.95714 -150.933616 
L 94.217966 -150.933616 
L 96.478791 -163.236019 
L 98.739617 -163.236019 
L 101.000442 -163.236019 
L 103.261268 -163.236019 
L 105.522094 -163.236019 
L 107.782919 -163.236019 
L 110.043745 -199.460771 
L 112.30457 -199.460771 
L 114.565396 -199.460771 
L 116.826221 -199.460771 
L 119.087047 -199.460771 
L 121.347872 -236.428148 
L 123.608698 -236.428148 
L 125.869523 -236.428148 
L 128.130349 -236.428148 
L 130.391174 -236.428148 
L 132.652 -236.428148 
L 134.912825 -273.34399 
L 137.173651 -273.34399 
L 139.434476 -273.34399 
L 141.695302 -273.34399 
L 143.956127 -273.34399 
L 146.216953 -235.407191 
L 148.477779 -235.407191 
L 150.738604 -235.407191 
L 152.99943 -235.407191 
L 155.260255 -235.407191 
L 157.521081 -238.763202 
L 159.781906 -238.763202 
L 162.042732 -238.763202 
L 164.303557 -238.763202 
L 166.564383 -238.763202 
L 168.825208 -238.763202 
L 171.086034 -238.294096 
L 173.346859 -238.294096 
L 175.607685 -238.294096 
L 177.86851 -238.294096 
L 180.129336 -238.294096 
L 182.390161 -238.335743 
L 184.650987 -238.335743 
L 186.911812 -238.335743 
L 189.172638 -238.335743 
L 191.433463 -238.335743 
L 193.694289 -238.335743 
L 195.955115 -238.136603 
L 198.21594 -238.136603 
L 200.476766 -238.136603 
L 202.737591 -238.136603 
L 204.998417 -238.136603 
L 207.259242 -238.197251 
L 209.520068 -238.197251 
L 211.780893 -238.197251 
L 214.041719 -238.197251 
L 216.302544 -238.197251 
L 218.56337 -238.197251 
L 220.824195 -238.197251 
L 223.085021 -238.197251 
L 225.345846 -238.197251 
L 227.606672 -238.197251 
L 229.867497 -238.197251 
L 232.128323 -237.899282 
L 234.389148 -237.899282 
L 236.649974 -237.899282 
L 238.9108 -237.899282 
L 241.171625 -237.899282 
L 243.432451 -238.296873 
L 245.693276 -238.296873 
L 247.954102 -238.296873 
L 250.214927 -238.296873 
L 252.475753 -238.296873 
L 254.736578 -238.296873 
L 256.997404 -238.296873 
L 259.258229 -238.296873 
L 261.519055 -238.296873 
L 263.77988 -238.296873 
L 266.040706 -238.296873 
L 268.301531 -192.109861 
L 270.562357 -192.109861 
L 272.823182 -192.109861 
L 275.084008 -192.109861 
L 277.344833 -192.109861 
L 279.605659 -192.109861 
L 281.866485 -175.593635 
L 284.12731 -175.593635 
L 286.388136 -175.593635 
L 288.648961 -175.593635 
L 290.909787 -175.593635 
L 293.170612 -176.335825 
L 295.431438 -176.335825 
L 297.692263 -176.335825 
L 299.953089 -176.335825 
L 302.213914 -176.335825 
L 304.47474 -176.335825 
L 306.735565 -175.763627 
L 308.996391 -175.763627 
L 311.257216 -175.763627 
L 313.518042 -175.763627 
L 315.778867 -175.763627 
L 318.039693 -175.281626 
L 320.300518 -175.281626 
L 322.561344 -175.281626 
L 324.822169 -175.281626 
L 327.082995 -175.281626 
L 329.343821 -175.281626 
L 331.604646 -175.023109 
L 333.865472 -175.023109 
L 336.126297 -175.023109 
L 338.387123 -175.023109 
L 340.647948 -175.023109 
L 342.908774 -175.275831 
L 345.169599 -175.275831 
L 347.430425 -175.275831 
L 349.69125 -175.275831 
L 351.952076 -175.275831 
L 354.212901 -175.281626 
L 356.473727 -175.281626 
L 358.734552 -175.281626 
L 360.995378 -175.281626 
L 363.256203 -175.281626 
L 365.517029 -175.281626 
L 367.777854 -175.157589 
L 370.03868 -175.157589 
L 372.299506 -175.157589 
L 374.560331 -175.157589 
L 376.821157 -175.157589 
L 379.081982 -175.281626 
L 381.342808 -175.281626 
L 383.603633 -175.281626 
L 385.864459 -175.281626 
L 388.125284 -175.281626 
L 390.38611 -175.281626 
L 392.646935 -160.98639 
L 394.907761 -160.98639 
L 397.168586 -160.98639 
L 399.429412 -160.98639 
L 401.690237 -160.98639 
L 403.951063 -114.813644 
L 406.211888 -114.813644 
L 408.472714 -114.813644 
L 410.733539 -114.813644 
L 412.994365 -114.813644 
L 415.255191 -114.813644 
L 417.516016 -117.170738 
L 419.776842 -117.170738 
L 422.037667 -117.170738 
L 424.298493 -117.170738 
L 426.559318 -117.170738 
L 428.820144 -116.05016 
L 431.080969 -116.05016 
L 433.341795 -116.05016 
L 435.60262 -116.05016 
L 437.863446 -116.05016 
L 440.124271 -116.05016 
L 442.385097 -115.335029 
L 444.645922 -115.335029 
L 446.906748 -115.335029 
L 449.167573 -115.335029 
L 451.428399 -115.335029 
L 453.689224 -115.335029 
L 455.95005 -115.335029 
L 458.210875 -115.335029 
L 460.471701 -115.335029 
L 462.732527 -115.335029 
L 464.993352 -115.250572 
L 467.254178 -115.250572 
L 469.515003 -115.250572 
L 471.775829 -115.250572 
L 474.036654 -115.250572 
L 476.29748 -115.250572 
L 478.558305 -115.19555 
L 480.819131 -115.19555 
L 483.079956 -115.19555 
L 485.340782 -115.19555 
L 487.601607 -115.19555 
L 489.862433 -114.907719 
L 492.123258 -114.907719 
L 494.384084 -114.907719 
L 496.644909 -114.907719 
L 498.905735 -114.907719 
L 501.16656 -114.907719 
L 503.427386 -115.335029 
L 505.688212 -115.335029 
L 507.949037 -115.335029 
L 510.209863 -115.335029 
L 512.470688 -115.335029 
L 514.731514 -115.335029 
L 516.992339 -115.335029 
L 519.253165 -115.335029 
L 521.51399 -115.335029 
L 523.774816 -115.335029 
L 526.035641 -115.335029 
L 528.296467 -166.459545 
L 530.557292 -166.459545 
L 532.818118 -166.459545 
L 535.078943 -166.459545 
L 537.339769 -166.459545 
L 539.600594 -174.769863 
L 541.86142 -174.769863 
L 544.122245 -174.769863 
L 546.383071 -174.769863 
L 548.643897 -174.769863 
L 550.904722 -175.378017 
L 553.165548 -175.378017 
L 555.426373 -175.378017 
L 557.687199 -175.378017 
L 559.948024 -175.378017 
L 562.20885 -175.378017 
L 564.469675 -175.378017 
L 566.730501 -175.378017 
L 568.991326 -175.378017 
L 571.252152 -175.378017 
L 573.512977 -175.378017 
L 575.773803 -175.398541 
L 578.034628 -175.398541 
L 580.295454 -175.398541 
L 582.556279 -175.398541 
L 584.817105 -175.398541 
L 587.07793 -175.398541 
L 589.338756 -175.378017 
L 591.599581 -175.378017 
L 593.860407 -175.378017 
L 596.121233 -175.378017 
L 598.382058 -175.378017 
L 600.642884 -175.378017 
L 602.903709 -175.378017 
L 605.164535 -175.378017 
L 607.42536 -175.378017 
L 609.686186 -175.378017 
L 611.947011 -175.378017 
L 614.207837 -175.378017 
L 616.468662 -175.378017 
L 618.729488 -175.378017 
L 620.990313 -175.378017 
L 623.251139 -175.378017 
L 625.511964 -175.157589 
L 627.77279 -175.157589 
L 630.033615 -175.157589 
L 632.294441 -175.157589 
L 634.555266 -175.157589 
L 636.816092 -175.157589 
L 639.076918 -175.60391 
L 641.337743 -175.60391 
L 643.598569 -175.60391 
L 645.859394 -175.60391 
L 648.12022 -175.60391 
L 650.381045 -211.364298 
L 652.641871 -211.364298 
L 654.902696 -211.364298 
L 657.163522 -211.364298 
L 659.424347 -211.364298 
L 661.685173 -237.12083 
L 663.945998 -237.12083 
L 666.206824 -237.12083 
L 668.467649 -237.12083 
L 670.728475 -237.12083 
L 672.9893 -237.12083 
L 675.250126 -238.328731 
L 677.510951 -238.328731 
L 679.771777 -238.328731 
L 682.032603 -238.328731 
L 684.293428 -238.328731 
L 686.554254 -238.53769 
L 688.815079 -238.53769 
L 691.075905 -238.53769 
L 693.33673 -238.53769 
L 695.597556 -238.53769 
L 697.858381 -238.53769 
L 700.119207 -238.53769 
L 702.380032 -238.53769 
L 704.640858 -238.53769 
L 706.901683 -238.53769 
L 709.162509 -238.53769 
L 711.423334 -238.437949 
L 713.68416 -238.437949 
L 715.944985 -238.437949 
L 718.205811 -238.437949 
L 720.466636 -238.437949 
L 722.727462 -238.437949 
L 724.988287 -238.53769 
L 727.249113 -238.53769 
L 729.509939 -238.53769 
L 731.770764 -238.53769 
L 734.03159 -238.53769 
L 736.292415 -237.561321 
L 738.553241 -237.561321 
L 740.814066 -237.561321 
L 743.074892 -237.561321 
L 745.335717 -237.561321 
L 747.596543 -237.561321 
L 749.857368 -238.53769 
L 752.118194 -238.53769 
L 754.379019 -238.53769 
L 756.639845 -238.53769 
L 758.90067 -238.53769 
L 761.161496 -238.115238 
L 763.422321 -238.115238 
L 765.683147 -238.115238 
L 767.943972 -238.115238 
L 770.204798 -238.115238 
L 772.465624 -238.03932 
L 774.726449 -238.03932 
L 776.987275 -238.03932 
L 779.2481 -238.03932 
L 781.508926 -238.03932 
L 783.769751 -238.03932 
L 786.030577 -285.584553 
L 788.291402 -285.584553 
L 790.552228 -285.584553 
L 792.813053 -285.584553 
L 795.073879 -285.584553 
L 797.334704 -287.788638 
L 799.59553 -287.788638 
L 801.856355 -287.788638 
L 804.117181 -287.788638 
L 806.378006 -287.788638 
L 808.638832 -287.788638 
L 810.899657 -287.641424 
L 813.160483 -287.641424 
L 815.421309 -287.641424 
L 817.682134 -287.641424 
L 819.94296 -287.641424 
L 822.203785 -287.671078 
L 824.464611 -287.671078 
L 826.725436 -287.671078 
L 828.986262 -287.671078 
L 831.247087 -287.671078 
L 833.507913 -287.671078 
L 835.768738 -287.868429 
L 838.029564 -287.868429 
L 840.290389 -287.868429 
L 842.551215 -287.868429 
L 844.81204 -287.868429 
L 847.072866 -287.583106 
L 849.333691 -287.583106 
L 851.594517 -287.583106 
L 853.855342 -287.583106 
L 856.116168 -287.583106 
L 858.376993 -287.583106 
L 860.637819 -287.583106 
L 862.898645 -287.583106 
L 865.15947 -287.583106 
L 867.420296 -287.583106 
L 869.681121 -287.583106 
L 871.941947 -287.432269 
L 874.202772 -287.432269 
L 876.463598 -287.432269 
L 878.724423 -287.432269 
L 880.985249 -287.432269 
L 883.246074 -287.448822 
L 885.5069 -287.448822 
L 887.767725 -287.448822 
L 890.028551 -287.448822 
L 892.289376 -287.448822 
L 894.550202 -287.448822 
L 896.811027 -287.722158 
L 899.071853 -287.722158 
L 901.332678 -287.722158 
L 901.332678 -273.743518 
L 901.332678 -273.743518 
L 899.071853 -273.743518 
L 896.811027 -273.743518 
L 894.550202 -273.52632 
L 892.289376 -273.52632 
L 890.028551 -273.52632 
L 887.767725 -273.52632 
L 885.5069 -273.52632 
L 883.246074 -273.52632 
L 880.985249 -273.544426 
L 878.724423 -273.544426 
L 876.463598 -273.544426 
L 874.202772 -273.544426 
L 871.941947 -273.544426 
L 869.681121 -273.719576 
L 867.420296 -273.719576 
L 865.15947 -273.719576 
L 862.898645 -273.719576 
L 860.637819 -273.719576 
L 858.376993 -273.719576 
L 856.116168 -273.719576 
L 853.855342 -273.719576 
L 851.594517 -273.719576 
L 849.333691 -273.719576 
L 847.072866 -273.719576 
L 844.81204 -273.76024 
L 842.551215 -273.76024 
L 840.290389 -273.76024 
L 838.029564 -273.76024 
L 835.768738 -273.76024 
L 833.507913 -273.305617 
L 831.247087 -273.305617 
L 828.986262 -273.305617 
L 826.725436 -273.305617 
L 824.464611 -273.305617 
L 822.203785 -273.305617 
L 819.94296 -273.498264 
L 817.682134 -273.498264 
L 815.421309 -273.498264 
L 813.160483 -273.498264 
L 810.899657 -273.498264 
L 808.638832 -273.514045 
L 806.378006 -273.514045 
L 804.117181 -273.514045 
L 801.856355 -273.514045 
L 799.59553 -273.514045 
L 797.334704 -273.514045 
L 795.073879 -269.833285 
L 792.813053 -269.833285 
L 790.552228 -269.833285 
L 788.291402 -269.833285 
L 786.030577 -269.833285 
L 783.769751 -225.709364 
L 781.508926 -225.709364 
L 779.2481 -225.709364 
L 776.987275 -225.709364 
L 774.726449 -225.709364 
L 772.465624 -225.709364 
L 770.204798 -225.797992 
L 767.943972 -225.797992 
L 765.683147 -225.797992 
L 763.422321 -225.797992 
L 761.161496 -225.797992 
L 758.90067 -226.358159 
L 756.639845 -226.358159 
L 754.379019 -226.358159 
L 752.118194 -226.358159 
L 749.857368 -226.358159 
L 747.596543 -226.518007 
L 745.335717 -226.518007 
L 743.074892 -226.518007 
L 740.814066 -226.518007 
L 738.553241 -226.518007 
L 736.292415 -226.518007 
L 734.03159 -226.358159 
L 731.770764 -226.358159 
L 729.509939 -226.358159 
L 727.249113 -226.358159 
L 724.988287 -226.358159 
L 722.727462 -226.4579 
L 720.466636 -226.4579 
L 718.205811 -226.4579 
L 715.944985 -226.4579 
L 713.68416 -226.4579 
L 711.423334 -226.4579 
L 709.162509 -226.358159 
L 706.901683 -226.358159 
L 704.640858 -226.358159 
L 702.380032 -226.358159 
L 700.119207 -226.358159 
L 697.858381 -226.358159 
L 695.597556 -226.358159 
L 693.33673 -226.358159 
L 691.075905 -226.358159 
L 688.815079 -226.358159 
L 686.554254 -226.358159 
L 684.293428 -226.404124 
L 682.032603 -226.404124 
L 679.771777 -226.404124 
L 677.510951 -226.404124 
L 675.250126 -226.404124 
L 672.9893 -225.160912 
L 670.728475 -225.160912 
L 668.467649 -225.160912 
L 666.206824 -225.160912 
L 663.945998 -225.160912 
L 661.685173 -225.160912 
L 659.424347 -188.661651 
L 657.163522 -188.661651 
L 654.902696 -188.661651 
L 652.641871 -188.661651 
L 650.381045 -188.661651 
L 648.12022 -162.81822 
L 645.859394 -162.81822 
L 643.598569 -162.81822 
L 641.337743 -162.81822 
L 639.076918 -162.81822 
L 636.816092 -162.938553 
L 634.555266 -162.938553 
L 632.294441 -162.938553 
L 630.033615 -162.938553 
L 627.77279 -162.938553 
L 625.511964 -162.938553 
L 623.251139 -162.881118 
L 620.990313 -162.881118 
L 618.729488 -162.881118 
L 616.468662 -162.881118 
L 614.207837 -162.881118 
L 611.947011 -162.881118 
L 609.686186 -162.881118 
L 607.42536 -162.881118 
L 605.164535 -162.881118 
L 602.903709 -162.881118 
L 600.642884 -162.881118 
L 598.382058 -162.881118 
L 596.121233 -162.881118 
L 593.860407 -162.881118 
L 591.599581 -162.881118 
L 589.338756 -162.881118 
L 587.07793 -162.696048 
L 584.817105 -162.696048 
L 582.556279 -162.696048 
L 580.295454 -162.696048 
L 578.034628 -162.696048 
L 575.773803 -162.696048 
L 573.512977 -162.881118 
L 571.252152 -162.881118 
L 568.991326 -162.881118 
L 566.730501 -162.881118 
L 564.469675 -162.881118 
L 562.20885 -162.881118 
L 559.948024 -162.881118 
L 557.687199 -162.881118 
L 555.426373 -162.881118 
L 553.165548 -162.881118 
L 550.904722 -162.881118 
L 548.643897 -163.324727 
L 546.383071 -163.324727 
L 544.122245 -163.324727 
L 541.86142 -163.324727 
L 539.600594 -163.324727 
L 537.339769 -153.170198 
L 535.078943 -153.170198 
L 532.818118 -153.170198 
L 530.557292 -153.170198 
L 528.296467 -153.170198 
L 526.035641 -108.705332 
L 523.774816 -108.705332 
L 521.51399 -108.705332 
L 519.253165 -108.705332 
L 516.992339 -108.705332 
L 514.731514 -108.705332 
L 512.470688 -108.705332 
L 510.209863 -108.705332 
L 507.949037 -108.705332 
L 505.688212 -108.705332 
L 503.427386 -108.705332 
L 501.16656 -108.64242 
L 498.905735 -108.64242 
L 496.644909 -108.64242 
L 494.384084 -108.64242 
L 492.123258 -108.64242 
L 489.862433 -108.64242 
L 487.601607 -108.681352 
L 485.340782 -108.681352 
L 483.079956 -108.681352 
L 480.819131 -108.681352 
L 478.558305 -108.681352 
L 476.29748 -108.62633 
L 474.036654 -108.62633 
L 471.775829 -108.62633 
L 469.515003 -108.62633 
L 467.254178 -108.62633 
L 464.993352 -108.62633 
L 462.732527 -108.705332 
L 460.471701 -108.705332 
L 458.210875 -108.705332 
L 455.95005 -108.705332 
L 453.689224 -108.705332 
L 451.428399 -108.705332 
L 449.167573 -108.705332 
L 446.906748 -108.705332 
L 444.645922 -108.705332 
L 442.385097 -108.705332 
L 440.124271 -108.970491 
L 437.863446 -108.970491 
L 435.60262 -108.970491 
L 433.341795 -108.970491 
L 431.080969 -108.970491 
L 428.820144 -108.970491 
L 426.559318 -109.647189 
L 424.298493 -109.647189 
L 422.037667 -109.647189 
L 419.776842 -109.647189 
L 417.516016 -109.647189 
L 415.255191 -107.592435 
L 412.994365 -107.592435 
L 410.733539 -107.592435 
L 408.472714 -107.592435 
L 406.211888 -107.592435 
L 403.951063 -107.592435 
L 401.690237 -149.493979 
L 399.429412 -149.493979 
L 397.168586 -149.493979 
L 394.907761 -149.493979 
L 392.646935 -149.493979 
L 390.38611 -162.979062 
L 388.125284 -162.979062 
L 385.864459 -162.979062 
L 383.603633 -162.979062 
L 381.342808 -162.979062 
L 379.081982 -162.979062 
L 376.821157 -162.938553 
L 374.560331 -162.938553 
L 372.299506 -162.938553 
L 370.03868 -162.938553 
L 367.777854 -162.938553 
L 365.517029 -162.979062 
L 363.256203 -162.979062 
L 360.995378 -162.979062 
L 358.734552 -162.979062 
L 356.473727 -162.979062 
L 354.212901 -162.979062 
L 351.952076 -163.14785 
L 349.69125 -163.14785 
L 347.430425 -163.14785 
L 345.169599 -163.14785 
L 342.908774 -163.14785 
L 340.647948 -162.910039 
L 338.387123 -162.910039 
L 336.126297 -162.910039 
L 333.865472 -162.910039 
L 331.604646 -162.910039 
L 329.343821 -162.979062 
L 327.082995 -162.979062 
L 324.822169 -162.979062 
L 322.561344 -162.979062 
L 320.300518 -162.979062 
L 318.039693 -162.979062 
L 315.778867 -162.169522 
L 313.518042 -162.169522 
L 311.257216 -162.169522 
L 308.996391 -162.169522 
L 306.735565 -162.169522 
L 304.47474 -163.720897 
L 302.213914 -163.720897 
L 299.953089 -163.720897 
L 297.692263 -163.720897 
L 295.431438 -163.720897 
L 293.170612 -163.720897 
L 290.909787 -162.660844 
L 288.648961 -162.660844 
L 286.388136 -162.660844 
L 284.12731 -162.660844 
L 281.866485 -162.660844 
L 279.605659 -176.217713 
L 277.344833 -176.217713 
L 275.084008 -176.217713 
L 272.823182 -176.217713 
L 270.562357 -176.217713 
L 268.301531 -176.217713 
L 266.040706 -226.108442 
L 263.77988 -226.108442 
L 261.519055 -226.108442 
L 259.258229 -226.108442 
L 256.997404 -226.108442 
L 254.736578 -226.108442 
L 252.475753 -226.108442 
L 250.214927 -226.108442 
L 247.954102 -226.108442 
L 245.693276 -226.108442 
L 243.432451 -226.108442 
L 241.171625 -226.178495 
L 238.9108 -226.178495 
L 236.649974 -226.178495 
L 234.389148 -226.178495 
L 232.128323 -226.178495 
L 229.867497 -226.371058 
L 227.606672 -226.371058 
L 225.345846 -226.371058 
L 223.085021 -226.371058 
L 220.824195 -226.371058 
L 218.56337 -226.371058 
L 216.302544 -226.371058 
L 214.041719 -226.371058 
L 211.780893 -226.371058 
L 209.520068 -226.371058 
L 207.259242 -226.371058 
L 204.998417 -226.268713 
L 202.737591 -226.268713 
L 200.476766 -226.268713 
L 198.21594 -226.268713 
L 195.955115 -226.268713 
L 193.694289 -226.558554 
L 191.433463 -226.558554 
L 189.172638 -226.558554 
L 186.911812 -226.558554 
L 184.650987 -226.558554 
L 182.390161 -226.558554 
L 180.129336 -227.579714 
L 177.86851 -227.579714 
L 175.607685 -227.579714 
L 173.346859 -227.579714 
L 171.086034 -227.579714 
L 168.825208 -226.297193 
L 166.564383 -226.297193 
L 164.303557 -226.297193 
L 162.042732 -226.297193 
L 159.781906 -226.297193 
L 157.521081 -226.297193 
L 155.260255 -223.116384 
L 152.99943 -223.116384 
L 150.738604 -223.116384 
L 148.477779 -223.116384 
L 146.216953 -223.116384 
L 143.956127 -202.498819 
L 141.695302 -202.498819 
L 139.434476 -202.498819 
L 137.173651 -202.498819 
L 134.912825 -202.498819 
L 132.652 -146.112468 
L 130.391174 -146.112468 
L 128.130349 -146.112468 
L 125.869523 -146.112468 
L 123.608698 -146.112468 
L 121.347872 -146.112468 
L 119.087047 -121.47913 
L 116.826221 -121.47913 
L 114.565396 -121.47913 
L 112.30457 -121.47913 
L 110.043745 -121.47913 
L 107.782919 -129.76057 
L 105.522094 -129.76057 
L 103.261268 -129.76057 
L 101.000442 -129.76057 
L 98.739617 -129.76057 
L 96.478791 -129.76057 
L 94.217966 -134.056106 
L 91.95714 -134.056106 
L 89.696315 -134.056106 
z
" style="stroke: #bddf26; stroke-opacity: 0.2"/>
    </defs>
    <g clip-path="url(#pf5cb714f7a)">
     <use xlink:href="#m3194f6e18c" x="0" y="457.614705" style="fill: #bddf26; fill-opacity: 0.2; stroke: #bddf26; stroke-opacity: 0.2"/>
    </g>
   </g>
   <g id="matplotlib.axis_1">
    <g id="xtick_1">
     <g id="line2d_1">
      <defs>
       <path id="md1aa11092d" d="M 0 0 
L 0 3.5 
" style="stroke: #000000; stroke-width: 0.8"/>
      </defs>
      <g>
       <use xlink:href="#md1aa11092d" x="138.886397" y="413.7333" style="stroke: #000000; stroke-width: 0.8"/>
      </g>
     </g>
     <g id="text_1">
      <!-- $\mathdefault{100}$ -->
      <g transform="translate(128.277864 430.765108) scale(0.145 -0.145)">
       <defs>
        <path id="CMR17-31" d="M 1702 4058 
C 1702 4192 1696 4192 1606 4192 
C 1357 3916 979 3827 621 3827 
C 602 3827 570 3827 563 3808 
C 557 3795 557 3782 557 3648 
C 755 3648 1088 3686 1344 3839 
L 1344 461 
C 1344 236 1331 160 781 160 
L 589 160 
L 589 0 
C 896 0 1216 0 1523 0 
C 1830 0 2150 0 2458 0 
L 2458 160 
L 2266 160 
C 1715 160 1702 230 1702 458 
L 1702 4058 
z
" transform="scale(0.015625)"/>
        <path id="CMR17-30" d="M 2688 2025 
C 2688 2416 2682 3080 2413 3591 
C 2176 4039 1798 4198 1466 4198 
C 1158 4198 768 4058 525 3597 
C 269 3118 243 2524 243 2025 
C 243 1661 250 1106 448 619 
C 723 -39 1216 -128 1466 -128 
C 1760 -128 2208 -7 2470 600 
C 2662 1042 2688 1559 2688 2025 
z
M 1466 -26 
C 1056 -26 813 325 723 812 
C 653 1188 653 1738 653 2096 
C 653 2588 653 2997 736 3387 
C 858 3929 1216 4096 1466 4096 
C 1728 4096 2067 3923 2189 3400 
C 2272 3036 2278 2607 2278 2096 
C 2278 1680 2278 1169 2202 792 
C 2067 95 1690 -26 1466 -26 
z
" transform="scale(0.015625)"/>
       </defs>
       <use xlink:href="#CMR17-31" transform="scale(0.996264)"/>
       <use xlink:href="#CMR17-30" transform="translate(45.690477 0) scale(0.996264)"/>
       <use xlink:href="#CMR17-30" transform="translate(91.380954 0) scale(0.996264)"/>
      </g>
     </g>
    </g>
    <g id="xtick_2">
     <g id="line2d_2">
      <g>
       <use xlink:href="#md1aa11092d" x="261.861604" y="413.7333" style="stroke: #000000; stroke-width: 0.8"/>
      </g>
     </g>
     <g id="text_2">
      <!-- $\mathdefault{200}$ -->
      <g transform="translate(251.253071 430.765108) scale(0.145 -0.145)">
       <defs>
        <path id="CMR17-32" d="M 2669 989 
L 2554 989 
C 2490 536 2438 459 2413 420 
C 2381 369 1920 369 1830 369 
L 602 369 
C 832 619 1280 1072 1824 1597 
C 2214 1967 2669 2402 2669 3035 
C 2669 3790 2067 4224 1395 4224 
C 691 4224 262 3604 262 3030 
C 262 2780 448 2748 525 2748 
C 589 2748 781 2787 781 3010 
C 781 3207 614 3264 525 3264 
C 486 3264 448 3258 422 3245 
C 544 3790 915 4058 1306 4058 
C 1862 4058 2227 3617 2227 3035 
C 2227 2479 1901 2000 1536 1584 
L 262 146 
L 262 0 
L 2515 0 
L 2669 989 
z
" transform="scale(0.015625)"/>
       </defs>
       <use xlink:href="#CMR17-32" transform="scale(0.996264)"/>
       <use xlink:href="#CMR17-30" transform="translate(45.690477 0) scale(0.996264)"/>
       <use xlink:href="#CMR17-30" transform="translate(91.380954 0) scale(0.996264)"/>
      </g>
     </g>
    </g>
    <g id="xtick_3">
     <g id="line2d_3">
      <g>
       <use xlink:href="#md1aa11092d" x="384.836811" y="413.7333" style="stroke: #000000; stroke-width: 0.8"/>
      </g>
     </g>
     <g id="text_3">
      <!-- $\mathdefault{300}$ -->
      <g transform="translate(374.228277 430.765108) scale(0.145 -0.145)">
       <defs>
        <path id="CMR17-33" d="M 1414 2157 
C 1984 2157 2234 1662 2234 1090 
C 2234 320 1824 25 1453 25 
C 1114 25 563 194 390 693 
C 422 680 454 680 486 680 
C 640 680 755 782 755 948 
C 755 1133 614 1216 486 1216 
C 378 1216 211 1165 211 926 
C 211 335 787 -128 1466 -128 
C 2176 -128 2720 430 2720 1085 
C 2720 1707 2208 2157 1600 2227 
C 2086 2328 2554 2756 2554 3329 
C 2554 3820 2048 4179 1472 4179 
C 890 4179 378 3829 378 3329 
C 378 3110 544 3072 627 3072 
C 762 3072 877 3155 877 3321 
C 877 3486 762 3569 627 3569 
C 602 3569 570 3569 544 3557 
C 730 3959 1235 4032 1459 4032 
C 1683 4032 2106 3925 2106 3320 
C 2106 3143 2080 2828 1862 2550 
C 1670 2304 1453 2304 1242 2284 
C 1210 2284 1062 2269 1037 2269 
C 992 2263 966 2257 966 2208 
C 966 2163 973 2157 1101 2157 
L 1414 2157 
z
" transform="scale(0.015625)"/>
       </defs>
       <use xlink:href="#CMR17-33" transform="scale(0.996264)"/>
       <use xlink:href="#CMR17-30" transform="translate(45.690477 0) scale(0.996264)"/>
       <use xlink:href="#CMR17-30" transform="translate(91.380954 0) scale(0.996264)"/>
      </g>
     </g>
    </g>
    <g id="xtick_4">
     <g id="line2d_4">
      <g>
       <use xlink:href="#md1aa11092d" x="507.812017" y="413.7333" style="stroke: #000000; stroke-width: 0.8"/>
      </g>
     </g>
     <g id="text_4">
      <!-- $\mathdefault{400}$ -->
      <g transform="translate(497.203484 430.765108) scale(0.145 -0.145)">
       <defs>
        <path id="CMR17-34" d="M 2150 4122 
C 2150 4256 2144 4256 2029 4256 
L 128 1254 
L 128 1088 
L 1779 1088 
L 1779 457 
C 1779 224 1766 160 1318 160 
L 1197 160 
L 1197 0 
C 1402 0 1747 0 1965 0 
C 2182 0 2528 0 2733 0 
L 2733 160 
L 2611 160 
C 2163 160 2150 224 2150 457 
L 2150 1088 
L 2803 1088 
L 2803 1254 
L 2150 1254 
L 2150 4122 
z
M 1798 3703 
L 1798 1254 
L 256 1254 
L 1798 3703 
z
" transform="scale(0.015625)"/>
       </defs>
       <use xlink:href="#CMR17-34" transform="scale(0.996264)"/>
       <use xlink:href="#CMR17-30" transform="translate(45.690477 0) scale(0.996264)"/>
       <use xlink:href="#CMR17-30" transform="translate(91.380954 0) scale(0.996264)"/>
      </g>
     </g>
    </g>
    <g id="xtick_5">
     <g id="line2d_5">
      <g>
       <use xlink:href="#md1aa11092d" x="630.787224" y="413.7333" style="stroke: #000000; stroke-width: 0.8"/>
      </g>
     </g>
     <g id="text_5">
      <!-- $\mathdefault{500}$ -->
      <g transform="translate(620.178691 430.765108) scale(0.145 -0.145)">
       <defs>
        <path id="CMR17-35" d="M 730 3692 
C 794 3666 1056 3584 1325 3584 
C 1920 3584 2246 3911 2432 4100 
C 2432 4157 2432 4192 2394 4192 
C 2387 4192 2374 4192 2323 4163 
C 2099 4058 1837 3973 1517 3973 
C 1325 3973 1037 3999 723 4139 
C 653 4171 640 4171 634 4171 
C 602 4171 595 4164 595 4037 
L 595 2203 
C 595 2089 595 2057 659 2057 
C 691 2057 704 2070 736 2114 
C 941 2401 1222 2522 1542 2522 
C 1766 2522 2246 2382 2246 1289 
C 2246 1085 2246 715 2054 421 
C 1894 159 1645 25 1370 25 
C 947 25 518 320 403 814 
C 429 807 480 795 506 795 
C 589 795 749 840 749 1038 
C 749 1210 627 1280 506 1280 
C 358 1280 262 1190 262 1011 
C 262 454 704 -128 1382 -128 
C 2042 -128 2669 440 2669 1264 
C 2669 2030 2170 2624 1549 2624 
C 1222 2624 947 2503 730 2274 
L 730 3692 
z
" transform="scale(0.015625)"/>
       </defs>
       <use xlink:href="#CMR17-35" transform="scale(0.996264)"/>
       <use xlink:href="#CMR17-30" transform="translate(45.690477 0) scale(0.996264)"/>
       <use xlink:href="#CMR17-30" transform="translate(91.380954 0) scale(0.996264)"/>
      </g>
     </g>
    </g>
    <g id="xtick_6">
     <g id="line2d_6">
      <g>
       <use xlink:href="#md1aa11092d" x="753.762431" y="413.7333" style="stroke: #000000; stroke-width: 0.8"/>
      </g>
     </g>
     <g id="text_6">
      <!-- $\mathdefault{600}$ -->
      <g transform="translate(743.153897 430.765108) scale(0.145 -0.145)">
       <defs>
        <path id="CMR17-36" d="M 678 2176 
C 678 3690 1395 4032 1811 4032 
C 1946 4032 2272 4009 2400 3776 
C 2298 3776 2106 3776 2106 3553 
C 2106 3381 2246 3323 2336 3323 
C 2394 3323 2566 3348 2566 3560 
C 2566 3954 2246 4179 1805 4179 
C 1043 4179 243 3390 243 1984 
C 243 253 966 -128 1478 -128 
C 2099 -128 2688 427 2688 1283 
C 2688 2081 2170 2662 1517 2662 
C 1126 2662 838 2407 678 1960 
L 678 2176 
z
M 1478 25 
C 691 25 691 1200 691 1436 
C 691 1896 909 2560 1504 2560 
C 1613 2560 1926 2560 2138 2120 
C 2253 1870 2253 1609 2253 1289 
C 2253 944 2253 690 2118 434 
C 1978 171 1773 25 1478 25 
z
" transform="scale(0.015625)"/>
       </defs>
       <use xlink:href="#CMR17-36" transform="scale(0.996264)"/>
       <use xlink:href="#CMR17-30" transform="translate(45.690477 0) scale(0.996264)"/>
       <use xlink:href="#CMR17-30" transform="translate(91.380954 0) scale(0.996264)"/>
      </g>
     </g>
    </g>
    <g id="xtick_7">
     <g id="line2d_7">
      <g>
       <use xlink:href="#md1aa11092d" x="876.737637" y="413.7333" style="stroke: #000000; stroke-width: 0.8"/>
      </g>
     </g>
     <g id="text_7">
      <!-- $\mathdefault{700}$ -->
      <g transform="translate(866.129104 430.765108) scale(0.145 -0.145)">
       <defs>
        <path id="CMR17-37" d="M 2886 3941 
L 2886 4081 
L 1382 4081 
C 634 4081 621 4165 595 4288 
L 480 4288 
L 294 3094 
L 410 3094 
C 429 3215 474 3540 550 3661 
C 589 3712 1062 3712 1171 3712 
L 2579 3712 
L 1869 2661 
C 1395 1954 1069 999 1069 165 
C 1069 89 1069 -128 1299 -128 
C 1530 -128 1530 89 1530 171 
L 1530 465 
C 1530 1508 1709 2196 2003 2636 
L 2886 3941 
z
" transform="scale(0.015625)"/>
       </defs>
       <use xlink:href="#CMR17-37" transform="scale(0.996264)"/>
       <use xlink:href="#CMR17-30" transform="translate(45.690477 0) scale(0.996264)"/>
       <use xlink:href="#CMR17-30" transform="translate(91.380954 0) scale(0.996264)"/>
      </g>
     </g>
    </g>
    <g id="text_8">
     <!-- time -->
     <g transform="translate(482.561058 447.605811) scale(0.145 -0.145)">
      <defs>
       <path id="CMSS17-74" d="M 1069 2368 
L 1901 2368 
L 1901 2737 
L 1069 2737 
L 1069 3520 
L 614 3520 
L 614 2737 
L 109 2737 
L 109 2368 
L 602 2368 
L 602 749 
C 602 384 685 -64 1107 -64 
C 1427 -64 1722 25 2003 172 
L 1901 548 
C 1747 414 1562 337 1363 337 
C 1082 337 1069 696 1069 856 
L 1069 2368 
z
" transform="scale(0.015625)"/>
       <path id="CMSS17-69" d="M 979 4183 
L 442 4183 
L 442 3648 
L 979 3648 
L 979 4183 
z
M 947 2739 
L 474 2739 
L 474 0 
L 947 0 
L 947 2739 
z
" transform="scale(0.015625)"/>
       <path id="CMSS17-6d" d="M 4288 1877 
C 4288 2308 4179 2816 3462 2816 
C 2982 2816 2694 2516 2566 2331 
C 2451 2670 2182 2816 1798 2816 
C 1363 2816 1088 2568 941 2389 
L 941 2758 
L 474 2758 
L 474 0 
L 960 0 
L 960 1559 
C 960 1939 1101 2428 1555 2428 
C 2138 2428 2138 2016 2138 1829 
L 2138 0 
L 2624 0 
L 2624 1559 
C 2624 1939 2765 2428 3219 2428 
C 3802 2428 3802 2016 3802 1829 
L 3802 0 
L 4288 0 
L 4288 1877 
z
" transform="scale(0.015625)"/>
       <path id="CMSS17-65" d="M 2502 1377 
C 2502 1590 2490 2003 2285 2345 
C 2061 2713 1696 2816 1421 2816 
C 755 2816 192 2188 192 1375 
C 192 582 774 -64 1510 -64 
C 1798 -64 2150 19 2470 248 
C 2470 274 2458 414 2451 420 
C 2451 433 2432 630 2432 656 
C 2125 407 1773 325 1517 325 
C 1107 325 666 667 646 1377 
L 2502 1377 
z
M 698 1728 
C 781 2084 1062 2421 1421 2421 
C 1517 2421 1965 2421 2080 1728 
L 698 1728 
z
" transform="scale(0.015625)"/>
      </defs>
      <use xlink:href="#CMSS17-74" transform="scale(0.996264)"/>
      <use xlink:href="#CMSS17-69" transform="translate(33.831567 0) scale(0.996264)"/>
      <use xlink:href="#CMSS17-6d" transform="translate(56.01229 0) scale(0.996264)"/>
      <use xlink:href="#CMSS17-65" transform="translate(130.241544 0) scale(0.996264)"/>
     </g>
    </g>
   </g>
   <g id="matplotlib.axis_2">
    <g id="ytick_1">
     <g id="line2d_8">
      <path d="M 49.114497 413.7333 
L 941.914497 413.7333 
" clip-path="url(#pf5cb714f7a)" style="fill: none; stroke-dasharray: 1.85,0.8; stroke-dashoffset: 0; stroke: #808080; stroke-width: 0.5"/>
     </g>
     <g id="line2d_9">
      <defs>
       <path id="mb7cf04d82a" d="M 0 0 
L -3.5 0 
" style="stroke: #000000; stroke-width: 0.8"/>
      </defs>
      <g>
       <use xlink:href="#mb7cf04d82a" x="49.114497" y="413.7333" style="stroke: #000000; stroke-width: 0.8"/>
      </g>
     </g>
     <g id="text_9">
      <!-- $\mathdefault{0.0}$ -->
      <g transform="translate(24.040702 418.749204) scale(0.145 -0.145)">
       <defs>
        <path id="CMMI12-3a" d="M 1178 307 
C 1178 492 1024 619 870 619 
C 685 619 557 466 557 313 
C 557 128 710 0 864 0 
C 1050 0 1178 153 1178 307 
z
" transform="scale(0.015625)"/>
       </defs>
       <use xlink:href="#CMR17-30" transform="scale(0.996264)"/>
       <use xlink:href="#CMMI12-3a" transform="translate(45.690477 0) scale(0.996264)"/>
       <use xlink:href="#CMR17-30" transform="translate(72.787654 0) scale(0.996264)"/>
      </g>
     </g>
    </g>
    <g id="ytick_2">
     <g id="line2d_10">
      <path d="M 49.114497 336.1173 
L 941.914497 336.1173 
" clip-path="url(#pf5cb714f7a)" style="fill: none; stroke-dasharray: 1.85,0.8; stroke-dashoffset: 0; stroke: #808080; stroke-width: 0.5"/>
     </g>
     <g id="line2d_11">
      <g>
       <use xlink:href="#mb7cf04d82a" x="49.114497" y="336.1173" style="stroke: #000000; stroke-width: 0.8"/>
      </g>
     </g>
     <g id="text_10">
      <!-- $\mathdefault{0.1}$ -->
      <g transform="translate(24.040702 341.133204) scale(0.145 -0.145)">
       <use xlink:href="#CMR17-30" transform="scale(0.996264)"/>
       <use xlink:href="#CMMI12-3a" transform="translate(45.690477 0) scale(0.996264)"/>
       <use xlink:href="#CMR17-31" transform="translate(72.787654 0) scale(0.996264)"/>
      </g>
     </g>
    </g>
    <g id="ytick_3">
     <g id="line2d_12">
      <path d="M 49.114497 258.5013 
L 941.914497 258.5013 
" clip-path="url(#pf5cb714f7a)" style="fill: none; stroke-dasharray: 1.85,0.8; stroke-dashoffset: 0; stroke: #808080; stroke-width: 0.5"/>
     </g>
     <g id="line2d_13">
      <g>
       <use xlink:href="#mb7cf04d82a" x="49.114497" y="258.5013" style="stroke: #000000; stroke-width: 0.8"/>
      </g>
     </g>
     <g id="text_11">
      <!-- $\mathdefault{0.2}$ -->
      <g transform="translate(24.040702 263.517204) scale(0.145 -0.145)">
       <use xlink:href="#CMR17-30" transform="scale(0.996264)"/>
       <use xlink:href="#CMMI12-3a" transform="translate(45.690477 0) scale(0.996264)"/>
       <use xlink:href="#CMR17-32" transform="translate(72.787654 0) scale(0.996264)"/>
      </g>
     </g>
    </g>
    <g id="ytick_4">
     <g id="line2d_14">
      <path d="M 49.114497 180.8853 
L 941.914497 180.8853 
" clip-path="url(#pf5cb714f7a)" style="fill: none; stroke-dasharray: 1.85,0.8; stroke-dashoffset: 0; stroke: #808080; stroke-width: 0.5"/>
     </g>
     <g id="line2d_15">
      <g>
       <use xlink:href="#mb7cf04d82a" x="49.114497" y="180.8853" style="stroke: #000000; stroke-width: 0.8"/>
      </g>
     </g>
     <g id="text_12">
      <!-- $\mathdefault{0.3}$ -->
      <g transform="translate(24.040702 185.901204) scale(0.145 -0.145)">
       <use xlink:href="#CMR17-30" transform="scale(0.996264)"/>
       <use xlink:href="#CMMI12-3a" transform="translate(45.690477 0) scale(0.996264)"/>
       <use xlink:href="#CMR17-33" transform="translate(72.787654 0) scale(0.996264)"/>
      </g>
     </g>
    </g>
    <g id="ytick_5">
     <g id="line2d_16">
      <path d="M 49.114497 103.2693 
L 941.914497 103.2693 
" clip-path="url(#pf5cb714f7a)" style="fill: none; stroke-dasharray: 1.85,0.8; stroke-dashoffset: 0; stroke: #808080; stroke-width: 0.5"/>
     </g>
     <g id="line2d_17">
      <g>
       <use xlink:href="#mb7cf04d82a" x="49.114497" y="103.2693" style="stroke: #000000; stroke-width: 0.8"/>
      </g>
     </g>
     <g id="text_13">
      <!-- $\mathdefault{0.4}$ -->
      <g transform="translate(24.040702 108.285204) scale(0.145 -0.145)">
       <use xlink:href="#CMR17-30" transform="scale(0.996264)"/>
       <use xlink:href="#CMMI12-3a" transform="translate(45.690477 0) scale(0.996264)"/>
       <use xlink:href="#CMR17-34" transform="translate(72.787654 0) scale(0.996264)"/>
      </g>
     </g>
    </g>
    <g id="ytick_6">
     <g id="line2d_18">
      <path d="M 49.114497 25.6533 
L 941.914497 25.6533 
" clip-path="url(#pf5cb714f7a)" style="fill: none; stroke-dasharray: 1.85,0.8; stroke-dashoffset: 0; stroke: #808080; stroke-width: 0.5"/>
     </g>
     <g id="line2d_19">
      <g>
       <use xlink:href="#mb7cf04d82a" x="49.114497" y="25.6533" style="stroke: #000000; stroke-width: 0.8"/>
      </g>
     </g>
     <g id="text_14">
      <!-- $\mathdefault{0.5}$ -->
      <g transform="translate(24.040702 30.669204) scale(0.145 -0.145)">
       <use xlink:href="#CMR17-30" transform="scale(0.996264)"/>
       <use xlink:href="#CMMI12-3a" transform="translate(45.690477 0) scale(0.996264)"/>
       <use xlink:href="#CMR17-35" transform="translate(72.787654 0) scale(0.996264)"/>
      </g>
     </g>
    </g>
    <g id="text_15">
     <!-- QoS -->
     <g transform="translate(17.231808 232.375053) rotate(-90) scale(0.145 -0.145)">
      <defs>
       <path id="CMSS17-51" d="M 3200 202 
C 3981 833 4096 1689 4096 2174 
C 4096 3501 3219 4497 2214 4497 
C 1210 4497 333 3497 333 2178 
C 333 847 1222 -128 2214 -128 
C 2438 -128 2630 -77 2765 -26 
L 3302 -832 
L 3930 -832 
L 3200 202 
z
M 2528 324 
C 2438 293 2330 273 2214 273 
C 1523 273 858 993 858 2178 
C 858 3357 1517 4096 2214 4096 
C 2918 4096 3571 3350 3571 2178 
C 3571 1771 3507 1089 2950 566 
L 2490 1210 
L 1939 1210 
L 2528 324 
z
" transform="scale(0.015625)"/>
       <path id="CMSS17-6f" d="M 2829 1356 
C 2829 2176 2221 2816 1504 2816 
C 768 2816 173 2157 173 1356 
C 173 544 787 -64 1498 -64 
C 2227 -64 2829 563 2829 1356 
z
M 1504 337 
C 1050 337 659 709 659 1408 
C 659 2151 1114 2427 1498 2427 
C 1914 2427 2342 2126 2342 1408 
C 2342 683 1926 337 1504 337 
z
" transform="scale(0.015625)"/>
       <path id="CMSS17-53" d="M 2797 4169 
C 2515 4334 2208 4480 1690 4480 
C 864 4480 333 3879 333 3266 
C 333 3025 403 2753 653 2475 
C 902 2196 1184 2121 1542 2033 
C 1690 1994 1939 1924 1984 1906 
C 2342 1767 2515 1444 2515 1140 
C 2515 742 2202 318 1645 318 
C 1453 318 890 318 358 819 
L 269 318 
C 794 -64 1363 -128 1651 -128 
C 2438 -128 3002 488 3002 1186 
C 3002 1440 2925 1763 2656 2061 
C 2394 2347 2163 2410 1638 2549 
C 1338 2626 1146 2677 986 2873 
C 877 3013 819 3146 819 3317 
C 819 3673 1126 4060 1690 4060 
C 1971 4060 2336 4002 2707 3660 
L 2797 4169 
z
" transform="scale(0.015625)"/>
      </defs>
      <use xlink:href="#CMSS17-51" transform="scale(0.996264)"/>
      <use xlink:href="#CMSS17-6f" transform="translate(69.024255 0) scale(0.996264)"/>
      <use xlink:href="#CMSS17-53" transform="translate(115.867879 0) scale(0.996264)"/>
     </g>
    </g>
   </g>
   <g id="line2d_20">
    <path d="M 89.696315 239.791963 
L 143.956127 239.87346 
L 146.216953 272.30841 
L 155.260255 272.30841 
L 157.521081 281.540834 
L 168.825208 281.540834 
L 171.086034 281.13335 
L 241.171625 281.214846 
L 243.432451 280.888083 
L 254.736578 280.888083 
L 256.997404 281.13335 
L 266.040706 281.13335 
L 268.301531 303.191041 
L 279.605659 303.191041 
L 281.866485 322.227917 
L 290.909787 322.227917 
L 293.170612 321.3299 
L 376.821157 321.411397 
L 381.342808 321.492893 
L 390.38611 321.492893 
L 392.646935 329.010003 
L 401.690237 329.010003 
L 403.951063 361.03615 
L 415.255191 361.03615 
L 417.516016 364.385823 
L 426.559318 364.385823 
L 428.820144 365.202965 
L 440.124271 365.202965 
L 442.385097 365.448076 
L 487.601607 365.448076 
L 489.862433 365.611458 
L 501.16656 365.611458 
L 503.427386 365.366346 
L 526.035641 365.448076 
L 528.296467 335.627776 
L 537.339769 335.627776 
L 539.600594 328.76396 
L 548.643897 328.76396 
L 550.904722 327.782894 
L 562.20885 327.782894 
L 564.469675 327.538404 
L 587.07793 327.538404 
L 589.338756 328.19193 
L 598.382058 328.19193 
L 600.642884 327.865167 
L 611.947011 327.865167 
L 614.207837 327.701397 
L 636.816092 327.78367 
L 639.076918 327.946664 
L 648.12022 327.946664 
L 650.381045 307.356691 
L 659.424347 307.356691 
L 661.685173 293.879449 
L 672.9893 293.879449 
L 675.250126 292.81611 
L 758.90067 292.81611 
L 761.161496 293.0606 
L 770.204798 293.0606 
L 772.465624 290.93625 
L 783.769751 290.93625 
L 786.030577 265.936137 
L 795.073879 265.936137 
L 797.334704 263.485023 
L 808.638832 263.485023 
L 810.899657 263.075987 
L 880.985249 263.15826 
L 883.246074 263.403527 
L 894.550202 263.403527 
L 896.811027 262.912994 
L 901.332678 262.912994 
L 901.332678 262.912994 
" clip-path="url(#pf5cb714f7a)" style="fill: none; stroke: #482475; stroke-width: 2.5; stroke-linecap: square"/>
   </g>
   <g id="line2d_21">
    <path d="M 89.696315 315.119844 
L 94.217966 315.119844 
L 96.478791 311.11641 
L 107.782919 311.11641 
L 110.043745 297.144754 
L 119.087047 297.144754 
L 121.347872 266.344397 
L 132.652 266.344397 
L 134.912825 219.6933 
L 143.956127 219.6933 
L 146.216953 228.352917 
L 155.260255 228.352917 
L 157.521081 225.084507 
L 168.825208 225.084507 
L 171.086034 224.6778 
L 180.129336 224.6778 
L 182.390161 225.167557 
L 193.694289 225.167557 
L 195.955115 225.412047 
L 229.867497 225.33055 
L 232.128323 225.575817 
L 241.171625 225.575817 
L 243.432451 225.412047 
L 266.040706 225.412047 
L 268.301531 273.450918 
L 279.605659 273.450918 
L 281.866485 288.487466 
L 290.909787 288.487466 
L 293.170612 287.586344 
L 304.47474 287.586344 
L 306.735565 288.648131 
L 315.778867 288.648131 
L 318.039693 288.484361 
L 329.343821 288.484361 
L 331.604646 288.648131 
L 340.647948 288.648131 
L 342.908774 288.402864 
L 365.517029 288.484361 
L 370.03868 288.566634 
L 390.38611 288.484361 
L 392.646935 302.37452 
L 401.690237 302.37452 
L 403.951063 346.411665 
L 415.255191 346.411665 
L 417.516016 344.205741 
L 426.559318 344.205741 
L 428.820144 345.104379 
L 440.124271 345.104379 
L 442.385097 345.594524 
L 487.601607 345.676254 
L 489.862433 345.839636 
L 501.16656 345.839636 
L 503.427386 345.594524 
L 526.035641 345.594524 
L 528.296467 297.799833 
L 537.339769 297.799833 
L 539.600594 288.56741 
L 636.816092 288.566634 
L 639.076918 288.40364 
L 648.12022 288.40364 
L 650.381045 257.601731 
L 659.424347 257.601731 
L 661.685173 226.473834 
L 672.9893 226.473834 
L 675.250126 225.248277 
L 734.03159 225.16678 
L 736.292415 225.575041 
L 747.596543 225.575041 
L 749.857368 225.16678 
L 758.90067 225.16678 
L 761.161496 225.65809 
L 783.769751 225.740363 
L 786.030577 179.905786 
L 795.073879 179.905786 
L 797.334704 176.963364 
L 819.94296 177.04486 
L 824.464611 177.126357 
L 833.507913 177.126357 
L 835.768738 176.80037 
L 844.81204 176.80037 
L 847.072866 176.963364 
L 869.681121 176.963364 
L 871.941947 177.126357 
L 894.550202 177.127133 
L 896.811027 176.881867 
L 901.332678 176.881867 
L 901.332678 176.881867 
" clip-path="url(#pf5cb714f7a)" style="fill: none; stroke: #bddf26; stroke-width: 2.5; stroke-linecap: square"/>
   </g>
   <g id="patch_3">
    <path d="M 49.114497 413.7333 
L 49.114497 25.6533 
" style="fill: none; stroke: #000000; stroke-width: 0.8; stroke-linejoin: miter; stroke-linecap: square"/>
   </g>
   <g id="patch_4">
    <path d="M 941.914497 413.7333 
L 941.914497 25.6533 
" style="fill: none; stroke: #000000; stroke-width: 0.8; stroke-linejoin: miter; stroke-linecap: square"/>
   </g>
   <g id="patch_5">
    <path d="M 49.114497 413.7333 
L 941.914497 413.7333 
" style="fill: none; stroke: #000000; stroke-width: 0.8; stroke-linejoin: miter; stroke-linecap: square"/>
   </g>
   <g id="text_16">
    <!-- $Scale\textrm{- -}free\ topology\ -\ graceful\ degradation\ and\ recovery$ -->
    <g transform="translate(263.751459 19.6533) scale(0.18 -0.18)">
     <defs>
      <path id="CMMI12-53" d="M 4064 4423 
C 4064 4480 4019 4480 4006 4480 
C 3981 4480 3974 4474 3898 4378 
C 3859 4333 3597 4001 3590 3995 
C 3379 4410 2957 4480 2688 4480 
C 1875 4480 1139 3743 1139 3025 
C 1139 2549 1427 2269 1741 2161 
C 1811 2135 2189 2033 2381 1989 
C 2707 1900 2790 1875 2925 1735 
C 2950 1703 3078 1557 3078 1258 
C 3078 667 2528 57 1888 57 
C 1363 57 781 280 781 991 
C 781 1112 806 1265 826 1328 
C 826 1348 832 1378 832 1391 
C 832 1417 819 1449 768 1449 
C 710 1449 704 1436 678 1328 
L 352 24 
C 352 18 326 -64 326 -71 
C 326 -128 378 -128 390 -128 
C 416 -128 422 -122 499 -26 
L 794 356 
C 947 126 1280 -128 1875 -128 
C 2701 -128 3456 666 3456 1460 
C 3456 1728 3392 1963 3149 2197 
C 3014 2331 2899 2363 2310 2516 
C 1882 2630 1824 2649 1709 2751 
C 1600 2858 1517 3011 1517 3227 
C 1517 3761 2061 4308 2669 4308 
C 3296 4308 3590 3926 3590 3323 
C 3590 3158 3558 2986 3558 2961 
C 3558 2903 3610 2903 3629 2903 
C 3686 2903 3693 2922 3718 3024 
L 4064 4423 
z
" transform="scale(0.015625)"/>
      <path id="CMMI12-63" d="M 2502 2431 
C 2381 2431 2323 2431 2234 2355 
C 2195 2323 2125 2227 2125 2125 
C 2125 1997 2221 1920 2342 1920 
C 2496 1920 2669 2044 2669 2292 
C 2669 2588 2374 2816 1933 2816 
C 1094 2816 256 1903 256 996 
C 256 441 602 -64 1254 -64 
C 2125 -64 2675 622 2675 706 
C 2675 744 2637 776 2611 776 
C 2592 776 2586 770 2528 713 
C 2118 162 1510 64 1267 64 
C 826 64 685 446 685 764 
C 685 988 794 1605 1024 2039 
C 1190 2338 1536 2682 1939 2682 
C 2022 2682 2374 2682 2502 2431 
z
" transform="scale(0.015625)"/>
      <path id="CMMI12-61" d="M 1926 760 
C 1894 651 1894 639 1805 517 
C 1664 338 1382 64 1082 64 
C 819 64 672 300 672 677 
C 672 1028 870 1743 992 2012 
C 1210 2459 1510 2689 1760 2689 
C 2182 2689 2266 2165 2266 2114 
C 2266 2108 2246 2024 2240 2012 
L 1926 760 
z
M 2336 2395 
C 2266 2561 2093 2816 1760 2816 
C 1037 2816 256 1884 256 939 
C 256 307 627 -64 1062 -64 
C 1414 -64 1715 211 1894 422 
C 1958 45 2259 -64 2451 -64 
C 2643 -64 2797 51 2912 281 
C 3014 498 3104 888 3104 913 
C 3104 945 3078 971 3040 971 
C 2982 971 2976 939 2950 843 
C 2854 466 2733 64 2470 64 
C 2285 64 2272 230 2272 358 
C 2272 505 2291 575 2349 824 
C 2394 984 2426 1124 2477 1309 
C 2714 2267 2771 2497 2771 2535 
C 2771 2625 2701 2695 2605 2695 
C 2400 2695 2349 2472 2336 2395 
z
" transform="scale(0.015625)"/>
      <path id="CMMI12-6c" d="M 1626 4257 
C 1632 4282 1645 4320 1645 4352 
C 1645 4416 1581 4416 1568 4416 
C 1562 4416 1331 4393 1216 4377 
C 1107 4377 1011 4358 896 4358 
C 742 4345 698 4339 698 4224 
C 698 4160 762 4160 826 4160 
C 1152 4160 1152 4102 1152 4039 
C 1152 4014 1152 4001 1120 3887 
L 326 731 
C 307 661 294 610 294 509 
C 294 191 531 -64 858 -64 
C 1069 -64 1210 76 1312 274 
C 1421 483 1510 884 1510 909 
C 1510 941 1485 967 1446 967 
C 1389 967 1382 935 1357 840 
C 1242 401 1126 64 870 64 
C 678 64 678 267 678 357 
C 678 382 678 515 723 694 
L 1626 4257 
z
" transform="scale(0.015625)"/>
      <path id="CMMI12-65" d="M 1146 1479 
C 1318 1479 1754 1479 2061 1595 
C 2547 1783 2592 2158 2592 2274 
C 2592 2558 2349 2816 1926 2816 
C 1254 2816 288 2210 288 1073 
C 288 402 672 -64 1254 -64 
C 2125 -64 2675 609 2675 692 
C 2675 730 2637 762 2611 762 
C 2592 762 2586 756 2528 699 
C 2118 159 1510 64 1267 64 
C 902 64 710 350 710 822 
C 710 911 710 1071 806 1479 
L 1146 1479 
z
M 838 1600 
C 1114 2592 1722 2689 1926 2689 
C 2208 2689 2400 2522 2400 2277 
C 2400 1600 1376 1600 1107 1600 
L 838 1600 
z
" transform="scale(0.015625)"/>
      <path id="CMR17-7b" d="M 2970 1664 
L 2970 1766 
L -38 1766 
L -38 1664 
L 2970 1664 
z
" transform="scale(0.015625)"/>
      <path id="CMMI12-66" d="M 2854 2566 
C 2982 2566 3034 2566 3034 2688 
C 3034 2752 2982 2752 2867 2752 
L 2349 2752 
C 2470 3429 2560 3897 2611 4107 
C 2650 4265 2784 4416 2950 4416 
C 3085 4416 3219 4358 3283 4298 
C 3034 4272 2957 4082 2957 3969 
C 2957 3837 3053 3759 3174 3759 
C 3302 3759 3494 3870 3494 4119 
C 3494 4393 3226 4544 2944 4544 
C 2669 4544 2400 4334 2272 4078 
C 2157 3848 2093 3611 1946 2752 
L 1517 2752 
C 1395 2752 1331 2752 1331 2637 
C 1331 2566 1370 2566 1498 2566 
L 1907 2566 
C 1792 1976 1530 542 1382 -137 
C 1274 -689 1178 -1152 858 -1152 
C 838 -1152 653 -1152 538 -1031 
C 864 -1005 864 -726 864 -720 
C 864 -593 768 -517 646 -517 
C 518 -517 326 -625 326 -867 
C 326 -1140 608 -1280 858 -1280 
C 1510 -1280 1779 -118 1850 199 
C 1965 688 2278 2376 2310 2566 
L 2854 2566 
z
" transform="scale(0.015625)"/>
      <path id="CMMI12-72" d="M 2490 2612 
C 2291 2574 2189 2433 2189 2293 
C 2189 2139 2310 2088 2400 2088 
C 2579 2088 2726 2242 2726 2433 
C 2726 2638 2528 2816 2208 2816 
C 1952 2816 1658 2701 1389 2312 
C 1344 2650 1088 2816 832 2816 
C 582 2816 454 2625 378 2484 
C 269 2254 173 1871 173 1839 
C 173 1814 198 1782 243 1782 
C 294 1782 301 1788 339 1935 
C 435 2318 557 2689 813 2689 
C 966 2689 1011 2580 1011 2395 
C 1011 2254 947 2005 902 1807 
L 723 1118 
C 698 996 627 709 595 594 
C 550 428 480 128 480 96 
C 480 6 550 -64 646 -64 
C 717 -64 838 -19 877 109 
C 896 160 1133 1124 1171 1271 
C 1203 1411 1242 1546 1274 1686 
C 1299 1775 1325 1878 1344 1961 
C 1363 2018 1536 2331 1696 2472 
C 1773 2542 1939 2689 2202 2689 
C 2304 2689 2406 2670 2490 2612 
z
" transform="scale(0.015625)"/>
      <path id="CMMI12-74" d="M 1286 2566 
L 1875 2566 
C 1997 2566 2061 2566 2061 2681 
C 2061 2752 2022 2752 1894 2752 
L 1331 2752 
L 1568 3692 
C 1594 3781 1594 3794 1594 3840 
C 1594 3943 1510 4000 1427 4000 
C 1376 4000 1229 3981 1178 3775 
L 928 2752 
L 326 2752 
C 198 2752 141 2752 141 2630 
C 141 2566 186 2566 307 2566 
L 877 2566 
L 454 881 
C 403 658 384 594 384 511 
C 384 211 595 -64 954 -64 
C 1600 -64 1946 868 1946 912 
C 1946 951 1920 970 1882 970 
C 1869 970 1843 970 1830 944 
C 1824 938 1818 931 1773 829 
C 1638 511 1344 64 973 64 
C 781 64 768 224 768 364 
C 768 370 768 492 787 568 
L 1286 2566 
z
" transform="scale(0.015625)"/>
      <path id="CMMI12-6f" d="M 2918 1756 
C 2918 2363 2522 2816 1939 2816 
C 1094 2816 262 1897 262 996 
C 262 390 659 -64 1242 -64 
C 2093 -64 2918 856 2918 1756 
z
M 1248 64 
C 928 64 691 319 691 766 
C 691 1060 845 1712 1024 2031 
C 1312 2523 1670 2689 1933 2689 
C 2246 2689 2490 2433 2490 1986 
C 2490 1731 2355 1047 2112 658 
C 1850 230 1498 64 1248 64 
z
" transform="scale(0.015625)"/>
      <path id="CMMI12-70" d="M 275 -789 
C 230 -980 205 -1031 -58 -1031 
C -134 -1031 -198 -1031 -198 -1152 
C -198 -1165 -192 -1216 -122 -1216 
C -38 -1216 51 -1216 134 -1216 
L 410 -1216 
C 544 -1216 870 -1216 1005 -1216 
C 1043 -1216 1120 -1216 1120 -1101 
C 1120 -1031 1075 -1031 966 -1031 
C 672 -1031 653 -987 653 -937 
C 653 -861 941 219 979 364 
C 1050 185 1222 -64 1555 -64 
C 2278 -64 3059 875 3059 1814 
C 3059 2401 2726 2816 2246 2816 
C 1837 2816 1491 2420 1421 2331 
C 1370 2650 1120 2816 864 2816 
C 678 2816 531 2727 410 2484 
C 294 2254 205 1865 205 1839 
C 205 1814 230 1782 275 1782 
C 326 1782 333 1788 371 1935 
C 467 2312 589 2689 845 2689 
C 992 2689 1043 2587 1043 2397 
C 1043 2245 1024 2181 998 2067 
L 275 -789 
z
M 1382 1993 
C 1427 2171 1606 2357 1709 2446 
C 1779 2510 1990 2689 2234 2689 
C 2515 2689 2643 2408 2643 2076 
C 2643 1769 2464 1047 2304 715 
C 2144 370 1850 64 1555 64 
C 1120 64 1050 613 1050 639 
C 1050 658 1062 709 1069 741 
L 1382 1993 
z
" transform="scale(0.015625)"/>
      <path id="CMMI12-67" d="M 2163 811 
C 2138 709 2125 683 2042 588 
C 1779 249 1510 128 1312 128 
C 1101 128 902 294 902 734 
C 902 1073 1094 1788 1235 2076 
C 1421 2433 1709 2689 1978 2689 
C 2400 2689 2483 2165 2483 2127 
L 2464 2037 
L 2163 811 
z
M 2560 2395 
C 2477 2580 2298 2816 1978 2816 
C 1280 2816 486 1941 486 990 
C 486 326 890 0 1299 0 
C 1638 0 1939 268 2054 396 
L 1914 -171 
C 1824 -516 1786 -674 1555 -894 
C 1293 -1152 1050 -1152 909 -1152 
C 717 -1152 557 -1139 397 -1089 
C 602 -1033 653 -858 653 -789 
C 653 -689 576 -588 435 -588 
C 282 -588 115 -714 115 -922 
C 115 -1180 378 -1280 922 -1280 
C 1747 -1280 2176 -753 2259 -410 
L 2970 2435 
C 2989 2511 2989 2524 2989 2536 
C 2989 2625 2918 2695 2822 2695 
C 2669 2695 2579 2567 2560 2395 
z
" transform="scale(0.015625)"/>
      <path id="CMMI12-79" d="M 1683 -700 
C 1510 -939 1261 -1152 947 -1152 
C 870 -1152 563 -1152 467 -889 
C 486 -895 518 -895 531 -895 
C 723 -895 851 -729 851 -582 
C 851 -435 730 -384 634 -384 
C 531 -384 307 -458 307 -759 
C 307 -1071 582 -1286 947 -1286 
C 1587 -1286 2234 -700 2413 6 
L 3040 2485 
C 3046 2517 3059 2556 3059 2594 
C 3059 2689 2982 2753 2886 2753 
C 2829 2753 2694 2727 2643 2535 
L 2170 658 
C 2138 543 2138 530 2086 460 
C 1958 281 1747 64 1440 64 
C 1082 64 1050 415 1050 588 
C 1050 952 1222 1443 1395 1903 
C 1466 2088 1504 2178 1504 2305 
C 1504 2574 1312 2816 998 2816 
C 410 2816 173 1890 173 1839 
C 173 1814 198 1782 243 1782 
C 301 1782 307 1807 333 1897 
C 486 2433 730 2689 979 2689 
C 1037 2689 1146 2689 1146 2478 
C 1146 2312 1075 2127 979 1884 
C 666 1047 666 837 666 683 
C 666 77 1101 -64 1421 -64 
C 1606 -64 1837 -6 2061 230 
L 2067 224 
C 1971 -147 1907 -392 1683 -700 
z
" transform="scale(0.015625)"/>
      <path id="CMSY10-0" d="M 4218 1472 
C 4326 1472 4442 1472 4442 1600 
C 4442 1728 4326 1728 4218 1728 
L 755 1728 
C 646 1728 531 1728 531 1600 
C 531 1472 646 1472 755 1472 
L 4218 1472 
z
" transform="scale(0.015625)"/>
      <path id="CMMI12-75" d="M 2182 370 
C 2266 13 2573 -64 2726 -64 
C 2931 -64 3085 70 3187 287 
C 3296 517 3379 894 3379 913 
C 3379 945 3354 971 3315 971 
C 3258 971 3251 939 3226 843 
C 3110 402 2995 64 2739 64 
C 2547 64 2547 275 2547 358 
C 2547 505 2566 568 2630 837 
C 2675 1009 2720 1181 2758 1360 
L 3021 2401 
C 3066 2561 3066 2574 3066 2593 
C 3066 2689 2989 2753 2893 2753 
C 2707 2753 2662 2593 2624 2433 
C 2560 2184 2214 811 2170 588 
C 2163 588 1914 64 1446 64 
C 1114 64 1050 351 1050 588 
C 1050 952 1229 1462 1395 1890 
C 1472 2095 1504 2178 1504 2305 
C 1504 2580 1306 2816 998 2816 
C 410 2816 173 1890 173 1839 
C 173 1814 198 1782 243 1782 
C 301 1782 307 1807 333 1896 
C 486 2441 736 2682 979 2682 
C 1043 2682 1146 2682 1146 2478 
C 1146 2312 1075 2127 979 1884 
C 698 1124 666 881 666 690 
C 666 38 1158 -64 1421 -64 
C 1830 -64 2054 217 2182 370 
z
" transform="scale(0.015625)"/>
      <path id="CMMI12-64" d="M 3219 4257 
C 3226 4282 3238 4320 3238 4352 
C 3238 4416 3174 4416 3162 4416 
C 3155 4416 2842 4388 2810 4380 
C 2701 4373 2605 4358 2490 4358 
C 2330 4345 2285 4339 2285 4224 
C 2285 4160 2336 4160 2426 4160 
C 2739 4160 2746 4103 2746 4040 
C 2746 4002 2733 3952 2726 3933 
L 2336 2395 
C 2266 2561 2093 2816 1760 2816 
C 1037 2816 256 1884 256 939 
C 256 307 627 -64 1062 -64 
C 1414 -64 1715 211 1894 422 
C 1958 45 2259 -64 2451 -64 
C 2643 -64 2797 51 2912 281 
C 3014 498 3104 888 3104 913 
C 3104 945 3078 971 3040 971 
C 2982 971 2976 939 2950 843 
C 2854 466 2733 64 2470 64 
C 2285 64 2272 229 2272 357 
C 2272 382 2272 515 2317 694 
L 3219 4257 
z
M 1926 760 
C 1894 651 1894 639 1805 517 
C 1664 338 1382 64 1082 64 
C 819 64 672 300 672 677 
C 672 1028 870 1743 992 2012 
C 1210 2459 1510 2689 1760 2689 
C 2182 2689 2266 2165 2266 2114 
C 2266 2108 2246 2024 2240 2012 
L 1926 760 
z
" transform="scale(0.015625)"/>
      <path id="CMMI12-69" d="M 1811 913 
C 1811 945 1786 971 1747 971 
C 1690 971 1683 952 1651 843 
C 1485 262 1222 64 1011 64 
C 934 64 845 83 845 275 
C 845 447 922 639 992 830 
L 1440 2018 
C 1459 2069 1504 2184 1504 2305 
C 1504 2574 1312 2816 998 2816 
C 410 2816 173 1890 173 1839 
C 173 1814 198 1782 243 1782 
C 301 1782 307 1807 333 1896 
C 486 2428 730 2682 979 2682 
C 1037 2682 1146 2682 1146 2478 
C 1146 2312 1062 2101 1011 1961 
L 563 773 
C 525 671 486 568 486 453 
C 486 166 685 -64 992 -64 
C 1581 -64 1811 869 1811 913 
z
M 1760 4013 
C 1760 4109 1683 4224 1542 4224 
C 1395 4224 1229 4083 1229 3917 
C 1229 3758 1363 3707 1440 3707 
C 1613 3707 1760 3873 1760 4013 
z
" transform="scale(0.015625)"/>
      <path id="CMMI12-6e" d="M 1318 1871 
C 1331 1910 1491 2229 1728 2433 
C 1894 2586 2112 2689 2362 2689 
C 2618 2689 2707 2497 2707 2242 
C 2707 1878 2445 1150 2317 805 
C 2259 651 2227 568 2227 453 
C 2227 166 2426 -64 2733 -64 
C 3328 -64 3552 875 3552 913 
C 3552 945 3526 971 3488 971 
C 3430 971 3424 952 3392 843 
C 3245 319 3002 64 2752 64 
C 2688 64 2586 64 2586 269 
C 2586 429 2656 621 2694 710 
C 2822 1063 3091 1780 3091 2145 
C 3091 2528 2867 2816 2381 2816 
C 1811 2816 1510 2415 1395 2255 
C 1376 2618 1114 2816 832 2816 
C 627 2816 486 2695 378 2478 
C 262 2248 173 1865 173 1839 
C 173 1814 198 1782 243 1782 
C 294 1782 301 1788 339 1935 
C 442 2325 557 2689 813 2689 
C 960 2689 1011 2586 1011 2395 
C 1011 2254 947 2005 902 1807 
L 723 1118 
C 698 996 627 709 595 594 
C 550 428 480 128 480 96 
C 480 6 550 -64 646 -64 
C 723 -64 813 -26 864 70 
C 877 102 934 326 966 453 
L 1107 1028 
L 1318 1871 
z
" transform="scale(0.015625)"/>
      <path id="CMMI12-76" d="M 2925 2389 
C 2925 2791 2720 2816 2669 2816 
C 2515 2816 2374 2663 2374 2535 
C 2374 2459 2419 2414 2445 2389 
C 2509 2331 2675 2159 2675 1827 
C 2675 1558 2291 64 1523 64 
C 1133 64 1056 390 1056 626 
C 1056 945 1203 1392 1376 1852 
C 1478 2114 1504 2178 1504 2305 
C 1504 2574 1312 2816 998 2816 
C 410 2816 173 1890 173 1839 
C 173 1814 198 1782 243 1782 
C 301 1782 307 1807 333 1897 
C 486 2446 736 2689 979 2689 
C 1037 2689 1146 2689 1146 2478 
C 1146 2312 1075 2127 979 1884 
C 672 1067 672 869 672 715 
C 672 575 691 313 890 134 
C 1120 -64 1440 -64 1498 -64 
C 2560 -64 2925 2024 2925 2389 
z
" transform="scale(0.015625)"/>
     </defs>
     <use xlink:href="#CMMI12-53" transform="scale(0.996264)"/>
     <use xlink:href="#CMMI12-63" transform="translate(65.794439 0) scale(0.996264)"/>
     <use xlink:href="#CMMI12-61" transform="translate(107.777673 0) scale(0.996264)"/>
     <use xlink:href="#CMMI12-6c" transform="translate(158.98553 0) scale(0.996264)"/>
     <use xlink:href="#CMMI12-65" transform="translate(190.233934 0) scale(0.996264)"/>
     <use xlink:href="#CMR17-7b" transform="translate(235.445935 0) scale(0.996264)"/>
     <use xlink:href="#CMMI12-66" transform="translate(281.136412 0) scale(0.996264)"/>
     <use xlink:href="#CMMI12-72" transform="translate(339.856717 0) scale(0.996264)"/>
     <use xlink:href="#CMMI12-65" transform="translate(386.527329 0) scale(0.996264)"/>
     <use xlink:href="#CMMI12-65" transform="translate(431.73933 0) scale(0.996264)"/>
     <use xlink:href="#CMMI12-74" transform="translate(508.180444 0) scale(0.996264)"/>
     <use xlink:href="#CMMI12-6f" transform="translate(543.406774 0) scale(0.996264)"/>
     <use xlink:href="#CMMI12-70" transform="translate(590.302084 0) scale(0.996264)"/>
     <use xlink:href="#CMMI12-6f" transform="translate(639.261598 0) scale(0.996264)"/>
     <use xlink:href="#CMMI12-6c" transform="translate(686.156907 0) scale(0.996264)"/>
     <use xlink:href="#CMMI12-6f" transform="translate(717.405311 0) scale(0.996264)"/>
     <use xlink:href="#CMMI12-67" transform="translate(764.300621 0) scale(0.996264)"/>
     <use xlink:href="#CMMI12-79" transform="translate(814.58611 0) scale(0.996264)"/>
     <use xlink:href="#CMSY10-0" transform="translate(919.093211 0) scale(0.996264)"/>
     <use xlink:href="#CMMI12-67" transform="translate(1049.948998 0) scale(0.996264)"/>
     <use xlink:href="#CMMI12-72" transform="translate(1100.234487 0) scale(0.996264)"/>
     <use xlink:href="#CMMI12-61" transform="translate(1146.9051 0) scale(0.996264)"/>
     <use xlink:href="#CMMI12-63" transform="translate(1198.112957 0) scale(0.996264)"/>
     <use xlink:href="#CMMI12-65" transform="translate(1240.096191 0) scale(0.996264)"/>
     <use xlink:href="#CMMI12-66" transform="translate(1285.308192 0) scale(0.996264)"/>
     <use xlink:href="#CMMI12-75" transform="translate(1344.028497 0) scale(0.996264)"/>
     <use xlink:href="#CMMI12-6c" transform="translate(1399.548826 0) scale(0.996264)"/>
     <use xlink:href="#CMMI12-64" transform="translate(1462.026343 0) scale(0.996264)"/>
     <use xlink:href="#CMMI12-65" transform="translate(1512.71544 0) scale(0.996264)"/>
     <use xlink:href="#CMMI12-67" transform="translate(1557.927441 0) scale(0.996264)"/>
     <use xlink:href="#CMMI12-72" transform="translate(1608.21293 0) scale(0.996264)"/>
     <use xlink:href="#CMMI12-61" transform="translate(1654.883542 0) scale(0.996264)"/>
     <use xlink:href="#CMMI12-64" transform="translate(1706.0914 0) scale(0.996264)"/>
     <use xlink:href="#CMMI12-61" transform="translate(1756.780497 0) scale(0.996264)"/>
     <use xlink:href="#CMMI12-74" transform="translate(1807.988354 0) scale(0.996264)"/>
     <use xlink:href="#CMMI12-69" transform="translate(1843.214684 0) scale(0.996264)"/>
     <use xlink:href="#CMMI12-6f" transform="translate(1876.493286 0) scale(0.996264)"/>
     <use xlink:href="#CMMI12-6e" transform="translate(1923.388596 0) scale(0.996264)"/>
     <use xlink:href="#CMMI12-61" transform="translate(2012.847756 0) scale(0.996264)"/>
     <use xlink:href="#CMMI12-6e" transform="translate(2064.055614 0) scale(0.996264)"/>
     <use xlink:href="#CMMI12-64" transform="translate(2122.285661 0) scale(0.996264)"/>
     <use xlink:href="#CMMI12-72" transform="translate(2204.20387 0) scale(0.996264)"/>
     <use xlink:href="#CMMI12-65" transform="translate(2250.874483 0) scale(0.996264)"/>
     <use xlink:href="#CMMI12-63" transform="translate(2296.086484 0) scale(0.996264)"/>
     <use xlink:href="#CMMI12-6f" transform="translate(2338.069717 0) scale(0.996264)"/>
     <use xlink:href="#CMMI12-76" transform="translate(2384.965027 0) scale(0.996264)"/>
     <use xlink:href="#CMMI12-65" transform="translate(2435.7002 0) scale(0.996264)"/>
     <use xlink:href="#CMMI12-72" transform="translate(2480.912201 0) scale(0.996264)"/>
     <use xlink:href="#CMMI12-79" transform="translate(2527.582813 0) scale(0.996264)"/>
    </g>
   </g>
   <g id="legend_1">
    <g id="patch_6">
     <path d="M 793.331903 80.644956 
L 931.764497 80.644956 
Q 934.664497 80.644956 934.664497 77.744956 
L 934.664497 35.8033 
Q 934.664497 32.9033 931.764497 32.9033 
L 793.331903 32.9033 
Q 790.431903 32.9033 790.431903 35.8033 
L 790.431903 77.744956 
Q 790.431903 80.644956 793.331903 80.644956 
z
" style="fill: #ffffff; opacity: 0.8; stroke: #cccccc; stroke-linejoin: miter"/>
    </g>
    <g id="line2d_22">
     <path d="M 796.231903 44.462671 
L 810.731903 44.462671 
L 825.231903 44.462671 
" style="fill: none; stroke: #482475; stroke-width: 2.5; stroke-linecap: square"/>
    </g>
    <g id="text_17">
     <!-- QoS [local] -->
     <g transform="translate(836.831903 49.537671) scale(0.145 -0.145)">
      <defs>
       <path id="CMSS17-5b" d="M 1613 -1600 
L 1613 -1212 
L 1062 -1212 
L 1062 4352 
L 1613 4352 
L 1613 4741 
L 595 4741 
L 595 -1600 
L 1613 -1600 
z
" transform="scale(0.015625)"/>
       <path id="CMSS17-6c" d="M 947 4416 
L 474 4416 
L 474 0 
L 947 0 
L 947 4416 
z
" transform="scale(0.015625)"/>
       <path id="CMSS17-63" d="M 2464 2541 
C 2464 2585 2170 2714 2093 2739 
C 1882 2816 1613 2816 1542 2816 
C 710 2816 211 2093 211 1363 
C 211 595 768 -64 1517 -64 
C 1946 -64 2253 76 2502 242 
L 2464 664 
C 2189 453 1869 337 1523 337 
C 1024 337 698 774 698 1369 
C 698 1831 909 2414 1549 2414 
C 1901 2414 2099 2343 2394 2145 
L 2464 2541 
z
" transform="scale(0.015625)"/>
       <path id="CMSS17-61" d="M 2406 1791 
C 2406 2392 1978 2808 1402 2808 
C 1120 2808 813 2757 461 2553 
L 499 2135 
C 659 2248 934 2432 1395 2432 
C 1722 2432 1920 2180 1920 1782 
L 1920 1536 
C 896 1536 256 1238 256 726 
C 256 461 416 -64 947 -64 
C 1043 -64 1562 -64 1933 217 
L 1933 -19 
L 2406 -19 
L 2406 1791 
z
M 1920 816 
C 1920 701 1920 548 1728 434 
C 1562 325 1350 325 1261 325 
C 941 325 723 511 723 744 
C 723 1211 1722 1211 1920 1211 
L 1920 816 
z
" transform="scale(0.015625)"/>
       <path id="CMSS17-5d" d="M 1146 4741 
L 128 4741 
L 128 4352 
L 678 4352 
L 678 -1212 
L 128 -1212 
L 128 -1600 
L 1146 -1600 
L 1146 4741 
z
" transform="scale(0.015625)"/>
      </defs>
      <use xlink:href="#CMSS17-51" transform="scale(0.996264)"/>
      <use xlink:href="#CMSS17-6f" transform="translate(69.024255 0) scale(0.996264)"/>
      <use xlink:href="#CMSS17-53" transform="translate(115.867879 0) scale(0.996264)"/>
      <use xlink:href="#CMSS17-5b" transform="translate(199.145508 0) scale(0.996264)"/>
      <use xlink:href="#CMSS17-6c" transform="translate(226.330946 0) scale(0.996264)"/>
      <use xlink:href="#CMSS17-6f" transform="translate(248.511669 0) scale(0.996264)"/>
      <use xlink:href="#CMSS17-63" transform="translate(297.957732 0) scale(0.996264)"/>
      <use xlink:href="#CMSS17-61" transform="translate(339.596554 0) scale(0.996264)"/>
      <use xlink:href="#CMSS17-6c" transform="translate(384.518474 0) scale(0.996264)"/>
      <use xlink:href="#CMSS17-5d" transform="translate(406.699197 0) scale(0.996264)"/>
     </g>
    </g>
    <g id="line2d_23">
     <path d="M 796.231903 66.158499 
L 810.731903 66.158499 
L 825.231903 66.158499 
" style="fill: none; stroke: #bddf26; stroke-width: 2.5; stroke-linecap: square"/>
    </g>
    <g id="text_18">
     <!-- QoS [collective] -->
     <g transform="translate(836.831903 71.233499) scale(0.145 -0.145)">
      <defs>
       <path id="CMSS17-76" d="M 2675 2752 
L 2176 2752 
L 1747 1556 
C 1613 1165 1421 627 1389 352 
L 1382 352 
C 1370 468 1318 634 1286 749 
C 1248 890 1197 1056 1158 1172 
L 595 2752 
L 83 2752 
L 1094 0 
L 1664 0 
L 2675 2752 
z
" transform="scale(0.015625)"/>
      </defs>
      <use xlink:href="#CMSS17-51" transform="scale(0.996264)"/>
      <use xlink:href="#CMSS17-6f" transform="translate(69.024255 0) scale(0.996264)"/>
      <use xlink:href="#CMSS17-53" transform="translate(115.867879 0) scale(0.996264)"/>
      <use xlink:href="#CMSS17-5b" transform="translate(199.145508 0) scale(0.996264)"/>
      <use xlink:href="#CMSS17-63" transform="translate(226.330946 0) scale(0.996264)"/>
      <use xlink:href="#CMSS17-6f" transform="translate(267.969769 0) scale(0.996264)"/>
      <use xlink:href="#CMSS17-6c" transform="translate(314.813392 0) scale(0.996264)"/>
      <use xlink:href="#CMSS17-6c" transform="translate(336.994115 0) scale(0.996264)"/>
      <use xlink:href="#CMSS17-65" transform="translate(359.174838 0) scale(0.996264)"/>
      <use xlink:href="#CMSS17-63" transform="translate(400.81366 0) scale(0.996264)"/>
      <use xlink:href="#CMSS17-74" transform="translate(442.452482 0) scale(0.996264)"/>
      <use xlink:href="#CMSS17-69" transform="translate(476.284049 0) scale(0.996264)"/>
      <use xlink:href="#CMSS17-76" transform="translate(498.464772 0) scale(0.996264)"/>
      <use xlink:href="#CMSS17-65" transform="translate(541.464914 0) scale(0.996264)"/>
      <use xlink:href="#CMSS17-5d" transform="translate(583.103736 0) scale(0.996264)"/>
     </g>
    </g>
   </g>
  </g>
 </g>
 <defs>
  <clipPath id="pf5cb714f7a">
   <rect x="49.114497" y="25.6533" width="892.8" height="388.08"/>
  </clipPath>
 </defs>
</svg>
